%TF.GenerationSoftware,Altium Limited,Altium Designer,21.3.2 (30)*%
G04 Layer_Color=8388736*
%FSLAX26Y26*%
%MOIN*%
%TF.SameCoordinates,FFAA3912-E1DC-4B59-95C2-56FC1F4E7B50*%
%TF.FilePolarity,Negative*%
%TF.FileFunction,Soldermask,Top*%
%TF.Part,Single*%
G01*
G75*
%TA.AperFunction,SMDPad,CuDef*%
G04:AMPARAMS|DCode=69|XSize=86.74mil|YSize=86.74mil|CornerRadius=23.685mil|HoleSize=0mil|Usage=FLASHONLY|Rotation=90.000|XOffset=0mil|YOffset=0mil|HoleType=Round|Shape=RoundedRectangle|*
%AMROUNDEDRECTD69*
21,1,0.086740,0.039370,0,0,90.0*
21,1,0.039370,0.086740,0,0,90.0*
1,1,0.047370,0.019685,0.019685*
1,1,0.047370,0.019685,-0.019685*
1,1,0.047370,-0.019685,-0.019685*
1,1,0.047370,-0.019685,0.019685*
%
%ADD69ROUNDEDRECTD69*%
%TA.AperFunction,ComponentPad*%
G04:AMPARAMS|DCode=70|XSize=94.614mil|YSize=126.11mil|CornerRadius=25.654mil|HoleSize=0mil|Usage=FLASHONLY|Rotation=270.000|XOffset=0mil|YOffset=0mil|HoleType=Round|Shape=RoundedRectangle|*
%AMROUNDEDRECTD70*
21,1,0.094614,0.074803,0,0,270.0*
21,1,0.043307,0.126110,0,0,270.0*
1,1,0.051307,-0.037401,-0.021654*
1,1,0.051307,-0.037401,0.021654*
1,1,0.051307,0.037401,0.021654*
1,1,0.051307,0.037401,-0.021654*
%
%ADD70ROUNDEDRECTD70*%
%ADD71C,0.133984*%
%ADD72C,0.102488*%
%ADD73R,0.118000X0.128000*%
%ADD74O,0.118000X0.128000*%
%ADD75C,0.084772*%
%ADD76R,0.084772X0.084772*%
%ADD79O,0.043748X0.079496*%
%ADD80C,0.045717*%
%ADD81O,0.083000X0.073000*%
%ADD83R,0.059496X0.059496*%
%ADD84C,0.059496*%
%TA.AperFunction,ViaPad*%
%ADD85C,0.028000*%
%ADD86C,0.224535*%
%TA.AperFunction,SMDPad,CuDef*%
%ADD111R,0.228472X0.173354*%
%ADD112R,0.224535X0.096583*%
G04:AMPARAMS|DCode=113|XSize=31.622mil|YSize=55.244mil|CornerRadius=9.906mil|HoleSize=0mil|Usage=FLASHONLY|Rotation=90.000|XOffset=0mil|YOffset=0mil|HoleType=Round|Shape=RoundedRectangle|*
%AMROUNDEDRECTD113*
21,1,0.031622,0.035433,0,0,90.0*
21,1,0.011811,0.055244,0,0,90.0*
1,1,0.019811,0.017717,0.005906*
1,1,0.019811,0.017717,-0.005906*
1,1,0.019811,-0.017717,-0.005906*
1,1,0.019811,-0.017717,0.005906*
%
%ADD113ROUNDEDRECTD113*%
G04:AMPARAMS|DCode=114|XSize=39.496mil|YSize=55.244mil|CornerRadius=11.874mil|HoleSize=0mil|Usage=FLASHONLY|Rotation=90.000|XOffset=0mil|YOffset=0mil|HoleType=Round|Shape=RoundedRectangle|*
%AMROUNDEDRECTD114*
21,1,0.039496,0.031496,0,0,90.0*
21,1,0.015748,0.055244,0,0,90.0*
1,1,0.023748,0.015748,0.007874*
1,1,0.023748,0.015748,-0.007874*
1,1,0.023748,-0.015748,-0.007874*
1,1,0.023748,-0.015748,0.007874*
%
%ADD114ROUNDEDRECTD114*%
%ADD115O,0.067843X0.039496*%
G04:AMPARAMS|DCode=116|XSize=39.496mil|YSize=67.843mil|CornerRadius=11.874mil|HoleSize=0mil|Usage=FLASHONLY|Rotation=90.000|XOffset=0mil|YOffset=0mil|HoleType=Round|Shape=RoundedRectangle|*
%AMROUNDEDRECTD116*
21,1,0.039496,0.044094,0,0,90.0*
21,1,0.015748,0.067843,0,0,90.0*
1,1,0.023748,0.022047,0.007874*
1,1,0.023748,0.022047,-0.007874*
1,1,0.023748,-0.022047,-0.007874*
1,1,0.023748,-0.022047,0.007874*
%
%ADD116ROUNDEDRECTD116*%
%ADD117R,0.059181X0.069024*%
G04:AMPARAMS|DCode=118|XSize=55.244mil|YSize=43.433mil|CornerRadius=12.858mil|HoleSize=0mil|Usage=FLASHONLY|Rotation=180.000|XOffset=0mil|YOffset=0mil|HoleType=Round|Shape=RoundedRectangle|*
%AMROUNDEDRECTD118*
21,1,0.055244,0.017717,0,0,180.0*
21,1,0.029528,0.043433,0,0,180.0*
1,1,0.025716,-0.014764,0.008858*
1,1,0.025716,0.014764,0.008858*
1,1,0.025716,0.014764,-0.008858*
1,1,0.025716,-0.014764,-0.008858*
%
%ADD118ROUNDEDRECTD118*%
G04:AMPARAMS|DCode=119|XSize=55.244mil|YSize=43.433mil|CornerRadius=12.858mil|HoleSize=0mil|Usage=FLASHONLY|Rotation=270.000|XOffset=0mil|YOffset=0mil|HoleType=Round|Shape=RoundedRectangle|*
%AMROUNDEDRECTD119*
21,1,0.055244,0.017717,0,0,270.0*
21,1,0.029528,0.043433,0,0,270.0*
1,1,0.025716,-0.008858,-0.014764*
1,1,0.025716,-0.008858,0.014764*
1,1,0.025716,0.008858,0.014764*
1,1,0.025716,0.008858,-0.014764*
%
%ADD119ROUNDEDRECTD119*%
G04:AMPARAMS|DCode=120|XSize=70.992mil|YSize=49.339mil|CornerRadius=14.335mil|HoleSize=0mil|Usage=FLASHONLY|Rotation=180.000|XOffset=0mil|YOffset=0mil|HoleType=Round|Shape=RoundedRectangle|*
%AMROUNDEDRECTD120*
21,1,0.070992,0.020669,0,0,180.0*
21,1,0.042323,0.049339,0,0,180.0*
1,1,0.028669,-0.021162,0.010335*
1,1,0.028669,0.021162,0.010335*
1,1,0.028669,0.021162,-0.010335*
1,1,0.028669,-0.021162,-0.010335*
%
%ADD120ROUNDEDRECTD120*%
G04:AMPARAMS|DCode=121|XSize=143.827mil|YSize=70.992mil|CornerRadius=19.748mil|HoleSize=0mil|Usage=FLASHONLY|Rotation=0.000|XOffset=0mil|YOffset=0mil|HoleType=Round|Shape=RoundedRectangle|*
%AMROUNDEDRECTD121*
21,1,0.143827,0.031496,0,0,0.0*
21,1,0.104331,0.070992,0,0,0.0*
1,1,0.039496,0.052165,-0.015748*
1,1,0.039496,-0.052165,-0.015748*
1,1,0.039496,-0.052165,0.015748*
1,1,0.039496,0.052165,0.015748*
%
%ADD121ROUNDEDRECTD121*%
G04:AMPARAMS|DCode=122|XSize=102.488mil|YSize=90.677mil|CornerRadius=24.669mil|HoleSize=0mil|Usage=FLASHONLY|Rotation=0.000|XOffset=0mil|YOffset=0mil|HoleType=Round|Shape=RoundedRectangle|*
%AMROUNDEDRECTD122*
21,1,0.102488,0.041339,0,0,0.0*
21,1,0.053150,0.090677,0,0,0.0*
1,1,0.049339,0.026575,-0.020669*
1,1,0.049339,-0.026575,-0.020669*
1,1,0.049339,-0.026575,0.020669*
1,1,0.049339,0.026575,0.020669*
%
%ADD122ROUNDEDRECTD122*%
G04:AMPARAMS|DCode=123|XSize=67.055mil|YSize=63.118mil|CornerRadius=17.779mil|HoleSize=0mil|Usage=FLASHONLY|Rotation=0.000|XOffset=0mil|YOffset=0mil|HoleType=Round|Shape=RoundedRectangle|*
%AMROUNDEDRECTD123*
21,1,0.067055,0.027559,0,0,0.0*
21,1,0.031496,0.063118,0,0,0.0*
1,1,0.035559,0.015748,-0.013780*
1,1,0.035559,-0.015748,-0.013780*
1,1,0.035559,-0.015748,0.013780*
1,1,0.035559,0.015748,0.013780*
%
%ADD123ROUNDEDRECTD123*%
%ADD124R,0.043433X0.067055*%
%ADD125R,0.067055X0.043433*%
%TA.AperFunction,BGAPad,CuDef*%
%ADD126R,0.043433X0.043433*%
%TA.AperFunction,SMDPad,CuDef*%
G04:AMPARAMS|DCode=127|XSize=133.984mil|YSize=70.992mil|CornerRadius=19.748mil|HoleSize=0mil|Usage=FLASHONLY|Rotation=90.000|XOffset=0mil|YOffset=0mil|HoleType=Round|Shape=RoundedRectangle|*
%AMROUNDEDRECTD127*
21,1,0.133984,0.031496,0,0,90.0*
21,1,0.094488,0.070992,0,0,90.0*
1,1,0.039496,0.015748,0.047244*
1,1,0.039496,0.015748,-0.047244*
1,1,0.039496,-0.015748,-0.047244*
1,1,0.039496,-0.015748,0.047244*
%
%ADD127ROUNDEDRECTD127*%
G04:AMPARAMS|DCode=128|XSize=169.417mil|YSize=86.74mil|CornerRadius=23.685mil|HoleSize=0mil|Usage=FLASHONLY|Rotation=0.000|XOffset=0mil|YOffset=0mil|HoleType=Round|Shape=RoundedRectangle|*
%AMROUNDEDRECTD128*
21,1,0.169417,0.039370,0,0,0.0*
21,1,0.122047,0.086740,0,0,0.0*
1,1,0.047370,0.061024,-0.019685*
1,1,0.047370,-0.061024,-0.019685*
1,1,0.047370,-0.061024,0.019685*
1,1,0.047370,0.061024,0.019685*
%
%ADD128ROUNDEDRECTD128*%
G04:AMPARAMS|DCode=129|XSize=405.638mil|YSize=366.268mil|CornerRadius=93.567mil|HoleSize=0mil|Usage=FLASHONLY|Rotation=180.000|XOffset=0mil|YOffset=0mil|HoleType=Round|Shape=RoundedRectangle|*
%AMROUNDEDRECTD129*
21,1,0.405638,0.179134,0,0,180.0*
21,1,0.218504,0.366268,0,0,180.0*
1,1,0.187134,-0.109252,0.089567*
1,1,0.187134,0.109252,0.089567*
1,1,0.187134,0.109252,-0.089567*
1,1,0.187134,-0.109252,-0.089567*
%
%ADD129ROUNDEDRECTD129*%
G04:AMPARAMS|DCode=130|XSize=51.307mil|YSize=135.953mil|CornerRadius=14.827mil|HoleSize=0mil|Usage=FLASHONLY|Rotation=180.000|XOffset=0mil|YOffset=0mil|HoleType=Round|Shape=RoundedRectangle|*
%AMROUNDEDRECTD130*
21,1,0.051307,0.106299,0,0,180.0*
21,1,0.021654,0.135953,0,0,180.0*
1,1,0.029654,-0.010827,0.053150*
1,1,0.029654,0.010827,0.053150*
1,1,0.029654,0.010827,-0.053150*
1,1,0.029654,-0.010827,-0.053150*
%
%ADD130ROUNDEDRECTD130*%
G04:AMPARAMS|DCode=131|XSize=39.496mil|YSize=43.433mil|CornerRadius=11.874mil|HoleSize=0mil|Usage=FLASHONLY|Rotation=90.000|XOffset=0mil|YOffset=0mil|HoleType=Round|Shape=RoundedRectangle|*
%AMROUNDEDRECTD131*
21,1,0.039496,0.019685,0,0,90.0*
21,1,0.015748,0.043433,0,0,90.0*
1,1,0.023748,0.009843,0.007874*
1,1,0.023748,0.009843,-0.007874*
1,1,0.023748,-0.009843,-0.007874*
1,1,0.023748,-0.009843,0.007874*
%
%ADD131ROUNDEDRECTD131*%
G04:AMPARAMS|DCode=132|XSize=39.496mil|YSize=47.37mil|CornerRadius=11.874mil|HoleSize=0mil|Usage=FLASHONLY|Rotation=90.000|XOffset=0mil|YOffset=0mil|HoleType=Round|Shape=RoundedRectangle|*
%AMROUNDEDRECTD132*
21,1,0.039496,0.023622,0,0,90.0*
21,1,0.015748,0.047370,0,0,90.0*
1,1,0.023748,0.011811,0.007874*
1,1,0.023748,0.011811,-0.007874*
1,1,0.023748,-0.011811,-0.007874*
1,1,0.023748,-0.011811,0.007874*
%
%ADD132ROUNDEDRECTD132*%
G04:AMPARAMS|DCode=133|XSize=86.74mil|YSize=86.74mil|CornerRadius=23.685mil|HoleSize=0mil|Usage=FLASHONLY|Rotation=180.000|XOffset=0mil|YOffset=0mil|HoleType=Round|Shape=RoundedRectangle|*
%AMROUNDEDRECTD133*
21,1,0.086740,0.039370,0,0,180.0*
21,1,0.039370,0.086740,0,0,180.0*
1,1,0.047370,-0.019685,0.019685*
1,1,0.047370,0.019685,0.019685*
1,1,0.047370,0.019685,-0.019685*
1,1,0.047370,-0.019685,-0.019685*
%
%ADD133ROUNDEDRECTD133*%
%ADD134R,0.019811X0.015874*%
%ADD135R,0.063118X0.146189*%
G04:AMPARAMS|DCode=136|XSize=39.496mil|YSize=70.992mil|CornerRadius=11.874mil|HoleSize=0mil|Usage=FLASHONLY|Rotation=270.000|XOffset=0mil|YOffset=0mil|HoleType=Round|Shape=RoundedRectangle|*
%AMROUNDEDRECTD136*
21,1,0.039496,0.047244,0,0,270.0*
21,1,0.015748,0.070992,0,0,270.0*
1,1,0.023748,-0.023622,-0.007874*
1,1,0.023748,-0.023622,0.007874*
1,1,0.023748,0.023622,0.007874*
1,1,0.023748,0.023622,-0.007874*
%
%ADD136ROUNDEDRECTD136*%
%ADD137O,0.070992X0.039496*%
%ADD138R,0.075000X0.029000*%
G04:AMPARAMS|DCode=139|XSize=102.488mil|YSize=90.677mil|CornerRadius=24.669mil|HoleSize=0mil|Usage=FLASHONLY|Rotation=270.000|XOffset=0mil|YOffset=0mil|HoleType=Round|Shape=RoundedRectangle|*
%AMROUNDEDRECTD139*
21,1,0.102488,0.041339,0,0,270.0*
21,1,0.053150,0.090677,0,0,270.0*
1,1,0.049339,-0.020669,-0.026575*
1,1,0.049339,-0.020669,0.026575*
1,1,0.049339,0.020669,0.026575*
1,1,0.049339,0.020669,-0.026575*
%
%ADD139ROUNDEDRECTD139*%
G04:AMPARAMS|DCode=140|XSize=39.496mil|YSize=67.843mil|CornerRadius=11.874mil|HoleSize=0mil|Usage=FLASHONLY|Rotation=0.000|XOffset=0mil|YOffset=0mil|HoleType=Round|Shape=RoundedRectangle|*
%AMROUNDEDRECTD140*
21,1,0.039496,0.044094,0,0,0.0*
21,1,0.015748,0.067843,0,0,0.0*
1,1,0.023748,0.007874,-0.022047*
1,1,0.023748,-0.007874,-0.022047*
1,1,0.023748,-0.007874,0.022047*
1,1,0.023748,0.007874,0.022047*
%
%ADD140ROUNDEDRECTD140*%
%ADD141O,0.039496X0.067843*%
%TA.AperFunction,ComponentPad*%
%ADD142R,0.068000X0.068000*%
%ADD143C,0.068000*%
G36*
X3804484Y2535731D02*
X3811649Y2532763D01*
X3818097Y2528455D01*
X3823581Y2522971D01*
X3827889Y2516523D01*
X3830857Y2509358D01*
X3832370Y2501752D01*
Y2497874D01*
Y2497874D01*
Y2493996D01*
X3830857Y2486390D01*
X3827889Y2479225D01*
X3823581Y2472777D01*
X3818097Y2467293D01*
X3811649Y2462985D01*
X3804484Y2460017D01*
X3796878Y2458504D01*
X3789122D01*
X3781516Y2460017D01*
X3774351Y2462985D01*
X3767903Y2467293D01*
X3762419Y2472777D01*
X3758111Y2479225D01*
X3755143Y2486390D01*
X3753630Y2493996D01*
Y2497874D01*
Y2501752D01*
X3755143Y2509358D01*
X3758111Y2516523D01*
X3762419Y2522971D01*
X3767903Y2528455D01*
X3774351Y2532763D01*
X3781516Y2535731D01*
X3789122Y2537244D01*
X3796878D01*
X3804484Y2535731D01*
D02*
G37*
D69*
X2843583Y1393000D02*
D03*
X2666417D02*
D03*
X2139000Y2767000D02*
D03*
X2316166D02*
D03*
D70*
X192000Y1518769D02*
D03*
Y1703808D02*
D03*
Y1888848D02*
D03*
D71*
X791157Y2798690D02*
D03*
X1551000D02*
D03*
X791157Y608926D02*
D03*
X1551000D02*
D03*
D72*
Y262863D02*
D03*
Y3132942D02*
D03*
X791157D02*
D03*
Y262863D02*
D03*
D73*
X3032000Y896000D02*
D03*
X2632000D02*
D03*
X3032000Y367000D02*
D03*
X2632000D02*
D03*
X5089000Y1171000D02*
D03*
X4688500D02*
D03*
X4288000D02*
D03*
X3887500D02*
D03*
D74*
X2832000Y896000D02*
D03*
X2432000D02*
D03*
X2832000Y367000D02*
D03*
X2432000D02*
D03*
X4889000Y1171000D02*
D03*
X4488500D02*
D03*
X4088000D02*
D03*
X3687500D02*
D03*
D75*
X5209850Y757158D02*
D03*
X4816150D02*
D03*
Y355583D02*
D03*
X5209850D02*
D03*
X4700850Y757158D02*
D03*
X4307150D02*
D03*
Y355583D02*
D03*
X4700850D02*
D03*
X4185850Y757158D02*
D03*
X3792150D02*
D03*
Y355583D02*
D03*
X4185850D02*
D03*
X3674850Y757158D02*
D03*
X3281150D02*
D03*
Y355583D02*
D03*
X3674850D02*
D03*
D76*
X5013000Y257158D02*
D03*
X4504000D02*
D03*
X3989000D02*
D03*
X3478000D02*
D03*
D79*
X2963496Y3175000D02*
D03*
X2682000D02*
D03*
D80*
X2873929Y3183661D02*
D03*
X2848339Y3144291D02*
D03*
X2822748Y3183661D02*
D03*
X2797157Y3144291D02*
D03*
X2771567Y3183661D02*
D03*
D81*
X3246000Y1211000D02*
D03*
X3247000Y1033000D02*
D03*
X3497000Y1034000D02*
D03*
X3496000Y1211000D02*
D03*
D83*
X5537000Y1584520D02*
D03*
D84*
Y1663260D02*
D03*
Y1742000D02*
D03*
Y1820740D02*
D03*
D85*
X3337000Y3133000D02*
D03*
D86*
X222591Y1113480D02*
D03*
Y2294583D02*
D03*
X5498181Y1113480D02*
D03*
Y2294583D02*
D03*
D111*
X4492000Y2725150D02*
D03*
Y3118850D02*
D03*
D112*
X4910000Y2696323D02*
D03*
Y2529000D02*
D03*
D113*
X3373000Y3171260D02*
D03*
Y3133858D02*
D03*
Y3096457D02*
D03*
D114*
X3475362D02*
D03*
Y3171260D02*
D03*
D115*
X2837323Y2537000D02*
D03*
Y2587000D02*
D03*
Y2637000D02*
D03*
Y2687000D02*
D03*
Y2737000D02*
D03*
Y2787000D02*
D03*
Y2837000D02*
D03*
Y2887000D02*
D03*
X2620000Y2537000D02*
D03*
Y2587000D02*
D03*
Y2637000D02*
D03*
Y2687000D02*
D03*
Y2737000D02*
D03*
Y2787000D02*
D03*
Y2837000D02*
D03*
D116*
Y2887000D02*
D03*
D117*
X2456000Y2889647D02*
D03*
Y2777442D02*
D03*
D118*
X3266000Y1882071D02*
D03*
Y1949000D02*
D03*
X3265000Y1801465D02*
D03*
Y1734535D02*
D03*
X3343126Y1633315D02*
D03*
Y1566386D02*
D03*
X3267874D02*
D03*
Y1633315D02*
D03*
X5113000Y1694535D02*
D03*
Y1761465D02*
D03*
X5040825Y1693000D02*
D03*
Y1759929D02*
D03*
X4968650Y1690000D02*
D03*
Y1756929D02*
D03*
X4896475Y1690903D02*
D03*
Y1757833D02*
D03*
X2847968Y1598520D02*
D03*
Y1531591D02*
D03*
X2772968Y1531591D02*
D03*
Y1598520D02*
D03*
X2700356Y1531591D02*
D03*
Y1598520D02*
D03*
X2627000Y1598520D02*
D03*
Y1531591D02*
D03*
X2966000Y2702535D02*
D03*
Y2769465D02*
D03*
Y2599465D02*
D03*
Y2532535D02*
D03*
X3370126Y2916929D02*
D03*
Y2850000D02*
D03*
X3484000Y1511465D02*
D03*
Y1444535D02*
D03*
X3557000Y1511465D02*
D03*
Y1444535D02*
D03*
X2518000Y1592006D02*
D03*
Y1658935D02*
D03*
X3292040Y2916929D02*
D03*
Y2850000D02*
D03*
X2041000Y1592006D02*
D03*
Y1658935D02*
D03*
D119*
X3094535Y1482543D02*
D03*
X3161465D02*
D03*
X3094535Y1410000D02*
D03*
X3161465D02*
D03*
X3618465Y3096457D02*
D03*
X3551535D02*
D03*
X3618465Y3171260D02*
D03*
X3551535D02*
D03*
X3289465Y3096457D02*
D03*
X3222535D02*
D03*
Y3171260D02*
D03*
X3289465D02*
D03*
X2232000Y1389000D02*
D03*
X2165071D02*
D03*
X2321000D02*
D03*
X2387929D02*
D03*
X2737071Y2436417D02*
D03*
X2804000D02*
D03*
X2659000D02*
D03*
X2592071D02*
D03*
X3861465Y2303000D02*
D03*
X3794535D02*
D03*
Y2382000D02*
D03*
X3861465D02*
D03*
X4202740Y2299095D02*
D03*
X4269669D02*
D03*
X4411205D02*
D03*
X4344276D02*
D03*
X4202740Y2381095D02*
D03*
X4269669D02*
D03*
X4411205D02*
D03*
X4344276D02*
D03*
X4223000Y2531000D02*
D03*
X4156071D02*
D03*
X4290000D02*
D03*
X4223071D02*
D03*
X2958535Y2881000D02*
D03*
X3025465D02*
D03*
D120*
X3378000Y2689345D02*
D03*
Y2766117D02*
D03*
X3284166Y2689345D02*
D03*
Y2766117D02*
D03*
X5130142Y1505596D02*
D03*
Y1582368D02*
D03*
X5241475Y1505596D02*
D03*
Y1582368D02*
D03*
X5018809Y1505596D02*
D03*
Y1582368D02*
D03*
X4907475D02*
D03*
Y1505596D02*
D03*
X3351000Y1478772D02*
D03*
Y1402000D02*
D03*
X3260000Y1478772D02*
D03*
Y1402000D02*
D03*
D121*
X2377613Y1658935D02*
D03*
Y1501455D02*
D03*
X2177613D02*
D03*
Y1658935D02*
D03*
D122*
X2384000Y1953000D02*
D03*
Y1773000D02*
D03*
X2184000Y1957000D02*
D03*
Y1777000D02*
D03*
D123*
X3262457Y2207000D02*
D03*
X3569543D02*
D03*
X3262457Y2428000D02*
D03*
X3569543D02*
D03*
D124*
X3740102Y2174488D02*
D03*
X3790102D02*
D03*
X3840102D02*
D03*
X3890102D02*
D03*
X3940102D02*
D03*
X3990102D02*
D03*
X4040102D02*
D03*
X4090102D02*
D03*
X4140102D02*
D03*
X4190102D02*
D03*
X4240102D02*
D03*
X4290102D02*
D03*
X4340102D02*
D03*
X4390102D02*
D03*
X3740102Y1485512D02*
D03*
X3790102D02*
D03*
X3840102D02*
D03*
X3890102D02*
D03*
X3940102D02*
D03*
X3990102D02*
D03*
X4040102D02*
D03*
X4090102D02*
D03*
X4140102D02*
D03*
X4190102D02*
D03*
X4240102D02*
D03*
X4290102D02*
D03*
X4340102D02*
D03*
X4390102D02*
D03*
D125*
X3690890Y1805000D02*
D03*
Y1755000D02*
D03*
Y1705000D02*
D03*
Y1655000D02*
D03*
Y1605000D02*
D03*
Y1855000D02*
D03*
Y1905000D02*
D03*
Y1955000D02*
D03*
Y2005000D02*
D03*
Y2055000D02*
D03*
D126*
X4086165Y1889055D02*
D03*
Y1944173D02*
D03*
Y1833937D02*
D03*
X4141283Y1889055D02*
D03*
Y1944173D02*
D03*
Y1833937D02*
D03*
X4031047Y1889055D02*
D03*
Y1944173D02*
D03*
Y1833937D02*
D03*
D127*
X5180000Y2514236D02*
D03*
Y2711087D02*
D03*
D128*
X4897740Y3043803D02*
D03*
X5240260D02*
D03*
D129*
X3986000Y3049921D02*
D03*
D130*
X4119858Y2668032D02*
D03*
X4052929D02*
D03*
X3986000D02*
D03*
X3919071D02*
D03*
X3852142D02*
D03*
D131*
X3050449Y2529130D02*
D03*
Y2603933D02*
D03*
Y2699130D02*
D03*
Y2773933D02*
D03*
D132*
X3141000Y2566532D02*
D03*
Y2736532D02*
D03*
D133*
X2139000Y2613583D02*
D03*
Y2436417D02*
D03*
X2306500Y2613583D02*
D03*
Y2436417D02*
D03*
X2474000Y2613583D02*
D03*
Y2436417D02*
D03*
X3988000Y2484583D02*
D03*
Y2307417D02*
D03*
D134*
X3793000Y2505748D02*
D03*
Y2490000D02*
D03*
D135*
X2194016Y1260000D02*
D03*
X2355984D02*
D03*
D136*
X2831968Y1712055D02*
D03*
D137*
Y1762055D02*
D03*
Y1812055D02*
D03*
Y1862055D02*
D03*
X2612284Y1712055D02*
D03*
Y1762055D02*
D03*
Y1812055D02*
D03*
Y1862055D02*
D03*
D138*
X2957968Y1567055D02*
D03*
Y1617055D02*
D03*
Y1667055D02*
D03*
Y1717055D02*
D03*
Y1767055D02*
D03*
Y1817055D02*
D03*
Y1867055D02*
D03*
X3161968D02*
D03*
Y1817055D02*
D03*
Y1767055D02*
D03*
Y1717055D02*
D03*
Y1667055D02*
D03*
Y1617055D02*
D03*
Y1567055D02*
D03*
D139*
X2799000Y2020000D02*
D03*
X2619000D02*
D03*
D140*
X5243309Y2098251D02*
D03*
D141*
X5193309D02*
D03*
X5143309D02*
D03*
X5093309D02*
D03*
X5043309D02*
D03*
X4993309D02*
D03*
X4943309D02*
D03*
X4893309D02*
D03*
X5243309Y1880928D02*
D03*
X5193309D02*
D03*
X5143309D02*
D03*
X5093309D02*
D03*
X5043309D02*
D03*
X4993309D02*
D03*
X4943309D02*
D03*
X4893309D02*
D03*
D142*
X2260000Y3177000D02*
D03*
D143*
X2360000D02*
D03*
X2460000D02*
D03*
X2560000D02*
D03*
X2796000Y2266000D02*
D03*
X2596000D02*
D03*
%TF.MD5,de97edf136620115e556919c7783b533*%
M02*
