%TF.GenerationSoftware,Altium Limited,Altium Designer,21.3.2 (30)*%
G04 Layer_Physical_Order=2*
G04 Layer_Color=16711680*
%FSLAX26Y26*%
%MOIN*%
%TF.SameCoordinates,5CB9DBA1-4DA9-4ED0-9B61-E5D9B39C4D3D*%
%TF.FilePolarity,Positive*%
%TF.FileFunction,Copper,L2,Bot,Signal*%
%TF.Part,Single*%
G01*
G75*
%TA.AperFunction,SMDPad,CuDef*%
G04:AMPARAMS|DCode=21|XSize=78.74mil|YSize=78.74mil|CornerRadius=19.685mil|HoleSize=0mil|Usage=FLASHONLY|Rotation=270.000|XOffset=0mil|YOffset=0mil|HoleType=Round|Shape=RoundedRectangle|*
%AMROUNDEDRECTD21*
21,1,0.078740,0.039370,0,0,270.0*
21,1,0.039370,0.078740,0,0,270.0*
1,1,0.039370,-0.019685,-0.019685*
1,1,0.039370,-0.019685,0.019685*
1,1,0.039370,0.019685,0.019685*
1,1,0.039370,0.019685,-0.019685*
%
%ADD21ROUNDEDRECTD21*%
%TA.AperFunction,Conductor*%
%ADD34C,0.010000*%
%ADD35C,0.040000*%
%ADD36C,0.020000*%
%TA.AperFunction,NonConductor*%
%ADD39C,0.010000*%
%TA.AperFunction,ComponentPad*%
G04:AMPARAMS|DCode=40|XSize=86.614mil|YSize=118.11mil|CornerRadius=21.654mil|HoleSize=0mil|Usage=FLASHONLY|Rotation=270.000|XOffset=0mil|YOffset=0mil|HoleType=Round|Shape=RoundedRectangle|*
%AMROUNDEDRECTD40*
21,1,0.086614,0.074803,0,0,270.0*
21,1,0.043307,0.118110,0,0,270.0*
1,1,0.043307,-0.037401,-0.021654*
1,1,0.043307,-0.037401,0.021654*
1,1,0.043307,0.037401,0.021654*
1,1,0.043307,0.037401,-0.021654*
%
%ADD40ROUNDEDRECTD40*%
%ADD41R,0.110000X0.120000*%
%ADD42O,0.110000X0.120000*%
%ADD45C,0.059055*%
G04:AMPARAMS|DCode=46|XSize=59.055mil|YSize=59.055mil|CornerRadius=14.764mil|HoleSize=0mil|Usage=FLASHONLY|Rotation=0.000|XOffset=0mil|YOffset=0mil|HoleType=Round|Shape=RoundedRectangle|*
%AMROUNDEDRECTD46*
21,1,0.059055,0.029527,0,0,0.0*
21,1,0.029527,0.059055,0,0,0.0*
1,1,0.029528,0.014764,-0.014764*
1,1,0.029528,-0.014764,-0.014764*
1,1,0.029528,-0.014764,0.014764*
1,1,0.029528,0.014764,0.014764*
%
%ADD46ROUNDEDRECTD46*%
%ADD47C,0.094488*%
%ADD48C,0.125984*%
%ADD50O,0.075000X0.065000*%
%ADD51C,0.076772*%
%ADD52R,0.076772X0.076772*%
%ADD53R,0.051496X0.051496*%
%ADD54C,0.051496*%
%TA.AperFunction,ViaPad*%
%ADD55C,0.020000*%
%ADD56C,0.216535*%
%TA.AperFunction,Conductor*%
%ADD57C,0.050000*%
%TA.AperFunction,ComponentPad*%
%ADD58O,0.060000X0.080000*%
%ADD59R,0.060000X0.080000*%
%ADD60O,0.080000X0.060000*%
%ADD61R,0.080000X0.060000*%
G36*
X5341640Y3230559D02*
X5352235Y3226170D01*
X5361334Y3219189D01*
X5368315Y3210090D01*
X5372704Y3199495D01*
X5374133Y3188638D01*
X5374031Y3188125D01*
Y2540180D01*
X5373871D01*
X5375681Y2521803D01*
X5380722Y2505188D01*
X5376716Y2502122D01*
X5353392Y2525447D01*
Y3034000D01*
X5351840Y3041804D01*
X5347419Y3048419D01*
X5322419Y3073419D01*
X5315804Y3077840D01*
X5308000Y3079392D01*
X3349256D01*
X3346343Y3088995D01*
X3340307Y3100287D01*
X3332184Y3110184D01*
X3322287Y3118307D01*
X3310995Y3124343D01*
X3298742Y3128059D01*
X3286000Y3129314D01*
X3273258Y3128059D01*
X3261005Y3124343D01*
X3249713Y3118307D01*
X3239816Y3110184D01*
X3231693Y3100287D01*
X3225657Y3088995D01*
X3221941Y3076742D01*
X3220686Y3064000D01*
Y3054000D01*
X3221941Y3041258D01*
X3225657Y3029005D01*
X3231693Y3017713D01*
X3239816Y3007816D01*
X3249713Y2999693D01*
X3261005Y2993657D01*
X3273258Y2989941D01*
X3286000Y2988686D01*
X3298742Y2989941D01*
X3310995Y2993657D01*
X3322287Y2999693D01*
X3332184Y3007816D01*
X3340307Y3017713D01*
X3346343Y3029005D01*
X3349256Y3038608D01*
X5299553D01*
X5312608Y3025553D01*
Y2517000D01*
X5314160Y2509196D01*
X5318581Y2502581D01*
X5431581Y2389581D01*
X5438196Y2385160D01*
X5446000Y2383608D01*
X5576838D01*
X5595876Y2364570D01*
Y2245490D01*
X5591014Y2244323D01*
X5589152Y2247978D01*
X5578209Y2263038D01*
X5565046Y2276202D01*
X5549986Y2287144D01*
X5533399Y2295595D01*
X5515694Y2301348D01*
X5497308Y2304260D01*
X5478692D01*
X5460306Y2301348D01*
X5442601Y2295595D01*
X5426014Y2287144D01*
X5410954Y2276202D01*
X5397791Y2263038D01*
X5386848Y2247978D01*
X5378397Y2231391D01*
X5372645Y2213686D01*
X5369732Y2195300D01*
Y2176684D01*
X5372645Y2158298D01*
X5378397Y2140593D01*
X5386848Y2124006D01*
X5397791Y2108946D01*
X5410954Y2095783D01*
X5426014Y2084840D01*
X5442601Y2076389D01*
X5460306Y2070637D01*
X5478692Y2067724D01*
X5497308D01*
X5515694Y2070637D01*
X5533399Y2076389D01*
X5549986Y2084840D01*
X5565046Y2095783D01*
X5578209Y2108946D01*
X5589152Y2124006D01*
X5591014Y2127662D01*
X5595876Y2126494D01*
Y1723714D01*
X5588553Y1716392D01*
X5537534D01*
X5532950Y1720976D01*
X5524798Y1725682D01*
X5515706Y1728118D01*
X5506294D01*
X5497202Y1725682D01*
X5489050Y1720976D01*
X5482395Y1714320D01*
X5477688Y1706168D01*
X5475252Y1697076D01*
Y1687664D01*
X5477688Y1678572D01*
X5482395Y1670420D01*
X5489050Y1663765D01*
X5497202Y1659058D01*
X5506294Y1656622D01*
X5515706D01*
X5524798Y1659058D01*
X5532950Y1663765D01*
X5539605Y1670420D01*
X5542601Y1675608D01*
X5597000D01*
X5604804Y1677160D01*
X5611419Y1681581D01*
X5627771Y1697933D01*
X5632771Y1695862D01*
X5632771Y905841D01*
X5632873Y905328D01*
X5631444Y894471D01*
X5627055Y883876D01*
X5620074Y874777D01*
X5610975Y867796D01*
X5600380Y863407D01*
X5589523Y861978D01*
X5589010Y862080D01*
X5468065D01*
Y862240D01*
X5449689Y860430D01*
X5432019Y855070D01*
X5415734Y846365D01*
X5401460Y834651D01*
X5389746Y820377D01*
X5381041Y804092D01*
X5375681Y786422D01*
X5373871Y768046D01*
X5374031D01*
Y120093D01*
X5374133Y119580D01*
X5372704Y108723D01*
X5368315Y98128D01*
X5361333Y89029D01*
X5352235Y82048D01*
X5341640Y77659D01*
X5330783Y76230D01*
X5330270Y76332D01*
X4914703D01*
X4912790Y80951D01*
X4925419Y93581D01*
X4929840Y100196D01*
X4931392Y108000D01*
X4931392Y108001D01*
Y212976D01*
X4939859Y217864D01*
X4948868Y226873D01*
X4955238Y237906D01*
X4958535Y250213D01*
Y262953D01*
X4955238Y275259D01*
X4953231Y278734D01*
X5002871Y328374D01*
X5038102D01*
X5045852Y329394D01*
X5053073Y332385D01*
X5059274Y337143D01*
X5064032Y343344D01*
X5067023Y350565D01*
X5068044Y358315D01*
Y397685D01*
X5067023Y405435D01*
X5064032Y412656D01*
X5059274Y418857D01*
X5053073Y423615D01*
X5045852Y426606D01*
X5038102Y427626D01*
X4998732D01*
X4990983Y426606D01*
X4983762Y423615D01*
X4977561Y418857D01*
X4972802Y412656D01*
X4969811Y405435D01*
X4968791Y397685D01*
Y358315D01*
X4969529Y352709D01*
X4920675Y303855D01*
X4916520Y304969D01*
X4903779D01*
X4891473Y301671D01*
X4880440Y295301D01*
X4871431Y286292D01*
X4865061Y275259D01*
X4861764Y262953D01*
Y250213D01*
X4865061Y237906D01*
X4871431Y226873D01*
X4880440Y217864D01*
X4890608Y211994D01*
Y116447D01*
X4880591Y106430D01*
X4631335D01*
X4627719Y109772D01*
X4627719Y111430D01*
Y206543D01*
X4609592D01*
Y649667D01*
X4608561Y657498D01*
X4605538Y664796D01*
X4600730Y671063D01*
X4600729Y671063D01*
X4243180Y1028612D01*
X4242878Y1030906D01*
X4240955Y1035549D01*
X4246009Y1045005D01*
X4249726Y1057258D01*
X4250981Y1070000D01*
Y1080000D01*
X4249726Y1092742D01*
X4246009Y1104995D01*
X4239974Y1116287D01*
X4231851Y1126184D01*
X4221953Y1134307D01*
X4210661Y1140343D01*
X4198409Y1144060D01*
X4185667Y1145314D01*
X4172924Y1144060D01*
X4160672Y1140343D01*
X4149380Y1134307D01*
X4139482Y1126184D01*
X4131360Y1116287D01*
X4125324Y1104995D01*
X4121607Y1092742D01*
X4120352Y1080000D01*
Y1070000D01*
X4121607Y1057258D01*
X4125324Y1045005D01*
X4131360Y1033713D01*
X4139482Y1023816D01*
X4149380Y1015693D01*
X4160672Y1009657D01*
X4172924Y1005941D01*
X4185593Y1004693D01*
X4187445Y1000220D01*
X4192254Y993953D01*
X4549074Y637133D01*
Y206543D01*
X4530947D01*
Y111430D01*
X4530947Y109772D01*
X4527332Y106430D01*
X4406363D01*
X4402260Y111430D01*
X4402875Y114521D01*
X4402875Y114521D01*
Y212485D01*
X4412192Y217864D01*
X4421201Y226873D01*
X4427571Y237906D01*
X4430869Y250213D01*
Y262953D01*
X4427571Y275259D01*
X4424711Y280214D01*
X4472871Y328374D01*
X4508102D01*
X4515852Y329394D01*
X4523073Y332385D01*
X4529274Y337143D01*
X4534032Y343344D01*
X4537023Y350565D01*
X4538044Y358315D01*
Y397685D01*
X4537023Y405435D01*
X4534032Y412656D01*
X4529274Y418857D01*
X4523073Y423615D01*
X4515852Y426606D01*
X4508102Y427626D01*
X4468732D01*
X4460983Y426606D01*
X4453762Y423615D01*
X4447561Y418857D01*
X4442802Y412656D01*
X4439811Y405435D01*
X4438791Y397685D01*
Y358315D01*
X4439529Y352709D01*
X4391168Y304348D01*
X4388853Y304969D01*
X4376113D01*
X4363807Y301671D01*
X4352773Y295301D01*
X4343765Y286292D01*
X4337394Y275259D01*
X4334097Y262953D01*
Y250213D01*
X4337394Y237906D01*
X4343765Y226873D01*
X4352773Y217864D01*
X4362091Y212485D01*
Y122967D01*
X4345553Y106430D01*
X4103668D01*
X4100052Y109772D01*
X4100052Y111430D01*
Y206543D01*
X4081925D01*
Y721333D01*
X4081926Y721333D01*
X4080894Y729165D01*
X4077872Y736463D01*
X4073063Y742730D01*
X4073062Y742730D01*
X3817506Y998287D01*
Y1013494D01*
X3821620Y1015693D01*
X3831518Y1023816D01*
X3839640Y1033713D01*
X3845676Y1045005D01*
X3849393Y1057258D01*
X3850648Y1070000D01*
Y1080000D01*
X3849393Y1092742D01*
X3845676Y1104995D01*
X3839640Y1116287D01*
X3831518Y1126184D01*
X3821620Y1134307D01*
X3810328Y1140343D01*
X3798075Y1144060D01*
X3785333Y1145314D01*
X3772591Y1144060D01*
X3760338Y1140343D01*
X3749046Y1134307D01*
X3739149Y1126184D01*
X3731026Y1116287D01*
X3724991Y1104995D01*
X3721274Y1092742D01*
X3720019Y1080000D01*
Y1070000D01*
X3721274Y1057258D01*
X3724991Y1045005D01*
X3731026Y1033713D01*
X3739149Y1023816D01*
X3749046Y1015693D01*
X3756988Y1011448D01*
Y985753D01*
X3758019Y977922D01*
X3761042Y970624D01*
X3765850Y964357D01*
X4021408Y708800D01*
Y206543D01*
X4003281D01*
Y111430D01*
X4003281Y109772D01*
X3999665Y106430D01*
X3878070D01*
X3874898Y110295D01*
X3875208Y111854D01*
Y212485D01*
X3884526Y217864D01*
X3893535Y226873D01*
X3899905Y237906D01*
X3903202Y250213D01*
Y262953D01*
X3899905Y275259D01*
X3898020Y278523D01*
X3947871Y328374D01*
X3983102D01*
X3990852Y329394D01*
X3998073Y332385D01*
X4004274Y337143D01*
X4009032Y343344D01*
X4012023Y350565D01*
X4013044Y358315D01*
Y397685D01*
X4012023Y405435D01*
X4009032Y412656D01*
X4004274Y418857D01*
X3998073Y423615D01*
X3990852Y426606D01*
X3983102Y427626D01*
X3943732D01*
X3935983Y426606D01*
X3928762Y423615D01*
X3922561Y418857D01*
X3917802Y412656D01*
X3914811Y405435D01*
X3913791Y397685D01*
Y358315D01*
X3914529Y352709D01*
X3865605Y303785D01*
X3861186Y304969D01*
X3848446D01*
X3836140Y301671D01*
X3825107Y295301D01*
X3816098Y286292D01*
X3809728Y275259D01*
X3806430Y262953D01*
Y250213D01*
X3809728Y237906D01*
X3816098Y226873D01*
X3825107Y217864D01*
X3834424Y212485D01*
Y120301D01*
X3820553Y106430D01*
X3576002D01*
X3572386Y109772D01*
X3572386Y111430D01*
Y206543D01*
X3554259D01*
Y355689D01*
X3559259Y356017D01*
X3559977Y350565D01*
X3562968Y343344D01*
X3567726Y337143D01*
X3573927Y332385D01*
X3581148Y329394D01*
X3588898Y328374D01*
X3624796D01*
X3676548Y276621D01*
X3675762Y275259D01*
X3672465Y262953D01*
Y250213D01*
X3675762Y237906D01*
X3682132Y226873D01*
X3691141Y217864D01*
X3702174Y211494D01*
X3714480Y208197D01*
X3727220D01*
X3739527Y211494D01*
X3750560Y217864D01*
X3759569Y226873D01*
X3765939Y237906D01*
X3769236Y250213D01*
Y262953D01*
X3765939Y275259D01*
X3759569Y286292D01*
X3750560Y295301D01*
X3739527Y301671D01*
X3727220Y304969D01*
X3714480D01*
X3707696Y303151D01*
X3657548Y353298D01*
X3658209Y358315D01*
Y397685D01*
X3657189Y405435D01*
X3654198Y412656D01*
X3649439Y418857D01*
X3643238Y423615D01*
X3636017Y426606D01*
X3628268Y427626D01*
X3588898D01*
X3581148Y426606D01*
X3573927Y423615D01*
X3567726Y418857D01*
X3562968Y412656D01*
X3559977Y405435D01*
X3559259Y399983D01*
X3554259Y400311D01*
Y691000D01*
X3553228Y698832D01*
X3550205Y706130D01*
X3545396Y712396D01*
X3415259Y842534D01*
Y1012471D01*
X3421287Y1015693D01*
X3431184Y1023816D01*
X3439307Y1033713D01*
X3445343Y1045005D01*
X3449059Y1057258D01*
X3450314Y1070000D01*
Y1080000D01*
X3449059Y1092742D01*
X3445343Y1104995D01*
X3439307Y1116287D01*
X3431184Y1126184D01*
X3421287Y1134307D01*
X3409995Y1140343D01*
X3397742Y1144060D01*
X3385000Y1145314D01*
X3372258Y1144060D01*
X3360005Y1140343D01*
X3348713Y1134307D01*
X3338816Y1126184D01*
X3330693Y1116287D01*
X3324657Y1104995D01*
X3320941Y1092742D01*
X3319686Y1080000D01*
Y1070000D01*
X3320941Y1057258D01*
X3324657Y1045005D01*
X3330693Y1033713D01*
X3338816Y1023816D01*
X3348713Y1015693D01*
X3354741Y1012471D01*
Y830000D01*
X3355772Y822168D01*
X3358795Y814870D01*
X3363604Y808604D01*
X3493741Y678466D01*
Y206543D01*
X3475614D01*
Y111430D01*
X3475614Y109772D01*
X3471998Y106430D01*
X3380162D01*
X3347541Y139051D01*
Y212485D01*
X3356859Y217864D01*
X3365868Y226873D01*
X3372238Y237906D01*
X3375535Y250213D01*
Y262953D01*
X3372238Y275259D01*
X3368767Y281270D01*
X3415871Y328374D01*
X3451102D01*
X3458852Y329394D01*
X3466073Y332385D01*
X3472274Y337143D01*
X3477032Y343344D01*
X3480023Y350565D01*
X3481044Y358315D01*
Y397685D01*
X3480023Y405435D01*
X3477032Y412656D01*
X3472274Y418857D01*
X3466073Y423615D01*
X3458852Y426606D01*
X3451102Y427626D01*
X3411732D01*
X3403983Y426606D01*
X3396762Y423615D01*
X3390561Y418857D01*
X3385802Y412656D01*
X3382811Y405435D01*
X3381791Y397685D01*
Y358315D01*
X3382529Y352709D01*
X3334521Y304700D01*
X3333520Y304969D01*
X3320780D01*
X3308473Y301671D01*
X3297440Y295301D01*
X3288431Y286292D01*
X3282061Y275259D01*
X3278764Y262953D01*
Y250213D01*
X3282061Y237906D01*
X3288431Y226873D01*
X3297440Y217864D01*
X3306758Y212485D01*
Y130604D01*
X3308310Y122801D01*
X3312730Y116185D01*
X3347964Y80951D01*
X3346051Y76332D01*
X330270D01*
X329756Y76230D01*
X318899Y77659D01*
X308304Y82048D01*
X299206Y89029D01*
X292224Y98128D01*
X287836Y108723D01*
X286406Y119580D01*
X286508Y120093D01*
Y768046D01*
X286668D01*
X284858Y786422D01*
X279498Y804092D01*
X270794Y820377D01*
X259079Y834651D01*
X244806Y846365D01*
X228521Y855070D01*
X210851Y860430D01*
X192474Y862240D01*
Y862080D01*
X71529D01*
X71016Y861978D01*
X60159Y863407D01*
X49564Y867796D01*
X40466Y874777D01*
X33484Y883876D01*
X29095Y894471D01*
X27666Y905328D01*
X27768Y905841D01*
X27768Y2397459D01*
X27768Y2402196D01*
X27768Y2402385D01*
X28231Y2407193D01*
X29095Y2413755D01*
X33484Y2424350D01*
X40465Y2433448D01*
X49564Y2440430D01*
X60159Y2444818D01*
X71016Y2446248D01*
X71529Y2446146D01*
X192474D01*
Y2445986D01*
X210850Y2447796D01*
X228520Y2453156D01*
X244805Y2461860D01*
X259079Y2473575D01*
X270793Y2487849D01*
X279498Y2504133D01*
X284858Y2521803D01*
X286668Y2540180D01*
X286508D01*
Y3188125D01*
X286406Y3188638D01*
X287835Y3199495D01*
X292224Y3210090D01*
X299205Y3219189D01*
X308304Y3226170D01*
X318899Y3230559D01*
X325452Y3231421D01*
X330269Y3231886D01*
Y3231886D01*
X330270Y3231886D01*
X5330270D01*
X5330783Y3231988D01*
X5341640Y3230559D01*
D02*
G37*
%LPC*%
G36*
X1534379Y3150505D02*
X1531843D01*
Y3098261D01*
X1584087D01*
Y3100798D01*
X1580186Y3115357D01*
X1572649Y3128410D01*
X1561991Y3139068D01*
X1548938Y3146604D01*
X1534379Y3150505D01*
D02*
G37*
G36*
X1521843D02*
X1519306D01*
X1504747Y3146604D01*
X1491694Y3139068D01*
X1481036Y3128410D01*
X1473500Y3115357D01*
X1469599Y3100798D01*
Y3098261D01*
X1521843D01*
Y3150505D01*
D02*
G37*
G36*
X3151000Y3129000D02*
X3091000D01*
Y3064000D01*
X3151000D01*
Y3129000D01*
D02*
G37*
G36*
X3081000D02*
X3021000D01*
Y3064000D01*
X3081000D01*
Y3129000D01*
D02*
G37*
G36*
X2751000D02*
X2691000D01*
Y3064000D01*
X2751000D01*
Y3129000D01*
D02*
G37*
G36*
X2681000D02*
X2621000D01*
Y3064000D01*
X2681000D01*
Y3129000D01*
D02*
G37*
G36*
X2491000Y3128822D02*
Y3064000D01*
X2551314D01*
X2550059Y3076742D01*
X2546343Y3088995D01*
X2540307Y3100287D01*
X2532184Y3110184D01*
X2522287Y3118307D01*
X2510995Y3124343D01*
X2498742Y3128059D01*
X2491000Y3128822D01*
D02*
G37*
G36*
X2481000D02*
X2473258Y3128059D01*
X2461005Y3124343D01*
X2449713Y3118307D01*
X2439816Y3110184D01*
X2431693Y3100287D01*
X2425657Y3088995D01*
X2421941Y3076742D01*
X2420686Y3064000D01*
X2481000D01*
Y3128822D01*
D02*
G37*
G36*
X1584087Y3088261D02*
X1531843D01*
Y3036017D01*
X1534379D01*
X1548938Y3039918D01*
X1561991Y3047454D01*
X1572649Y3058113D01*
X1580186Y3071166D01*
X1584087Y3085725D01*
Y3088261D01*
D02*
G37*
G36*
X1521843D02*
X1469599D01*
Y3085725D01*
X1473500Y3071166D01*
X1481036Y3058113D01*
X1491694Y3047454D01*
X1504747Y3039918D01*
X1519306Y3036017D01*
X1521843D01*
Y3088261D01*
D02*
G37*
G36*
X774536Y3150505D02*
X759464D01*
X744905Y3146604D01*
X731851Y3139068D01*
X721193Y3128410D01*
X713657Y3115357D01*
X709756Y3100798D01*
Y3085725D01*
X713657Y3071166D01*
X721193Y3058113D01*
X731851Y3047454D01*
X744905Y3039918D01*
X759464Y3036017D01*
X774536D01*
X789095Y3039918D01*
X802149Y3047454D01*
X812807Y3058113D01*
X820343Y3071166D01*
X824244Y3085725D01*
Y3100798D01*
X820343Y3115357D01*
X812807Y3128410D01*
X802149Y3139068D01*
X789095Y3146604D01*
X774536Y3150505D01*
D02*
G37*
G36*
X2551314Y3054000D02*
X2491000D01*
Y2989178D01*
X2498742Y2989941D01*
X2510995Y2993657D01*
X2522287Y2999693D01*
X2532184Y3007816D01*
X2540307Y3017713D01*
X2546343Y3029005D01*
X2550059Y3041258D01*
X2551314Y3054000D01*
D02*
G37*
G36*
X2481000D02*
X2420686D01*
X2421941Y3041258D01*
X2425657Y3029005D01*
X2431693Y3017713D01*
X2439816Y3007816D01*
X2449713Y2999693D01*
X2461005Y2993657D01*
X2473258Y2989941D01*
X2481000Y2989178D01*
Y3054000D01*
D02*
G37*
G36*
X3151000D02*
X3091000D01*
Y2989000D01*
X3151000D01*
Y3054000D01*
D02*
G37*
G36*
X3081000D02*
X3021000D01*
Y2989000D01*
X3081000D01*
Y3054000D01*
D02*
G37*
G36*
X2751000D02*
X2691000D01*
Y2989000D01*
X2751000D01*
Y3054000D01*
D02*
G37*
G36*
X2681000D02*
X2621000D01*
Y2989000D01*
X2681000D01*
Y3054000D01*
D02*
G37*
G36*
X2151000Y3129000D02*
X2021000D01*
Y2989000D01*
X2151000D01*
Y3129000D01*
D02*
G37*
G36*
X2286000Y3129314D02*
X2273258Y3128059D01*
X2261005Y3124343D01*
X2249713Y3118307D01*
X2239816Y3110184D01*
X2231693Y3100287D01*
X2225657Y3088995D01*
X2221941Y3076742D01*
X2220686Y3064000D01*
Y3054000D01*
X2221941Y3041258D01*
X2225657Y3029005D01*
X2231693Y3017713D01*
X2239816Y3007816D01*
X2249713Y2999693D01*
X2261005Y2993657D01*
X2273258Y2989941D01*
X2286000Y2988686D01*
X2298742Y2989941D01*
X2310995Y2993657D01*
X2322287Y2999693D01*
X2332184Y3007816D01*
X2340307Y3017713D01*
X2346343Y3029005D01*
X2350059Y3041258D01*
X2351314Y3054000D01*
Y3064000D01*
X2350059Y3076742D01*
X2346343Y3088995D01*
X2340307Y3100287D01*
X2332184Y3110184D01*
X2322287Y3118307D01*
X2310995Y3124343D01*
X2298742Y3128059D01*
X2286000Y3129314D01*
D02*
G37*
G36*
X1534032Y2832001D02*
X1519653D01*
X1505552Y2829196D01*
X1492268Y2823694D01*
X1480313Y2815706D01*
X1470146Y2805539D01*
X1462158Y2793584D01*
X1456656Y2780300D01*
X1453851Y2766198D01*
Y2751820D01*
X1456656Y2737718D01*
X1462158Y2724434D01*
X1470146Y2712479D01*
X1480313Y2702312D01*
X1492268Y2694324D01*
X1505552Y2688822D01*
X1519653Y2686017D01*
X1534032D01*
X1548134Y2688822D01*
X1561417Y2694324D01*
X1573372Y2702312D01*
X1583539Y2712479D01*
X1591527Y2724434D01*
X1597030Y2737718D01*
X1599835Y2751820D01*
Y2766198D01*
X1597030Y2780300D01*
X1591527Y2793584D01*
X1583539Y2805539D01*
X1573372Y2815706D01*
X1561417Y2823694D01*
X1548134Y2829196D01*
X1534032Y2832001D01*
D02*
G37*
G36*
X774189D02*
X759811D01*
X745709Y2829196D01*
X732425Y2823694D01*
X720470Y2815706D01*
X710303Y2805539D01*
X702315Y2793584D01*
X696813Y2780300D01*
X694008Y2766198D01*
Y2751820D01*
X696813Y2737718D01*
X702315Y2724434D01*
X710303Y2712479D01*
X720470Y2702312D01*
X732425Y2694324D01*
X745709Y2688822D01*
X759811Y2686017D01*
X774189D01*
X788291Y2688822D01*
X801575Y2694324D01*
X813530Y2702312D01*
X823697Y2712479D01*
X831685Y2724434D01*
X837187Y2737718D01*
X839992Y2751820D01*
Y2766198D01*
X837187Y2780300D01*
X831685Y2793584D01*
X823697Y2805539D01*
X813530Y2815706D01*
X801575Y2823694D01*
X788291Y2829196D01*
X774189Y2832001D01*
D02*
G37*
G36*
X2886000Y3129314D02*
X2873258Y3128059D01*
X2861005Y3124343D01*
X2849713Y3118307D01*
X2839816Y3110184D01*
X2831693Y3100287D01*
X2825657Y3088995D01*
X2821941Y3076742D01*
X2820686Y3064000D01*
Y3054000D01*
X2821941Y3041258D01*
X2825657Y3029005D01*
X2831693Y3017713D01*
X2839816Y3007816D01*
X2849713Y2999693D01*
X2850698Y2999167D01*
Y2788623D01*
X2761377Y2699302D01*
X1792000D01*
X1782863Y2698099D01*
X1774349Y2694572D01*
X1767038Y2688962D01*
X1653038Y2574962D01*
X1647428Y2567651D01*
X1643901Y2559137D01*
X1642698Y2550000D01*
Y1758623D01*
X1570377Y1686302D01*
X241010D01*
X240051Y1688617D01*
X234977Y1695229D01*
X228365Y1700303D01*
X220665Y1703492D01*
X212401Y1704580D01*
X137599D01*
X129335Y1703492D01*
X121635Y1700303D01*
X115023Y1695229D01*
X109949Y1688617D01*
X106760Y1680917D01*
X105672Y1672653D01*
Y1629347D01*
X106760Y1621083D01*
X109949Y1613383D01*
X115023Y1606771D01*
X121635Y1601697D01*
X129335Y1598508D01*
X137599Y1597420D01*
X212401D01*
X220665Y1598508D01*
X228365Y1601697D01*
X234977Y1606771D01*
X240051Y1613383D01*
X241010Y1615698D01*
X1585000D01*
X1594137Y1616901D01*
X1602651Y1620428D01*
X1609962Y1626038D01*
X1702962Y1719038D01*
X1708572Y1726349D01*
X1712099Y1734863D01*
X1713302Y1744000D01*
X1713302Y1744001D01*
Y2535377D01*
X1806623Y2628698D01*
X4377804D01*
Y2585000D01*
X4377804Y2582017D01*
X4378580Y2578115D01*
X4380864Y2572601D01*
X4383074Y2569294D01*
X4387293Y2565074D01*
X4390601Y2562864D01*
X4396114Y2560580D01*
X4398251Y2560155D01*
X4400016Y2559804D01*
X4403000Y2559804D01*
X4512998Y2559804D01*
X4515187Y2559804D01*
X4519088Y2560579D01*
X4519088Y2560579D01*
X4519088Y2560580D01*
X4523132Y2562254D01*
X4526440Y2564464D01*
X4529534Y2567558D01*
X4529535Y2567559D01*
X4530856Y2569537D01*
X4531745Y2570866D01*
X4531745Y2570866D01*
X4531745Y2570866D01*
X4533420Y2574909D01*
X4533420Y2574910D01*
X4533420Y2574910D01*
X4533775Y2576694D01*
X4534196Y2578811D01*
X4534196Y2578811D01*
X4534196Y2578812D01*
X4534196Y2580998D01*
X4534196Y2580999D01*
X4534195Y2722995D01*
X4534156Y2723193D01*
X4534188Y2723394D01*
X4534090Y2725881D01*
X4534090Y2725883D01*
X4534090Y2725884D01*
X4533602Y2727915D01*
X4533162Y2729749D01*
X4533161Y2729751D01*
X4533161Y2729752D01*
X4531076Y2734273D01*
X4531075Y2734275D01*
X4531074Y2734276D01*
X4529899Y2735893D01*
X4528737Y2737491D01*
X4528735Y2737492D01*
X4528734Y2737494D01*
X4525077Y2740871D01*
X4525075Y2740872D01*
X4525074Y2740874D01*
X4523487Y2741845D01*
X4521684Y2742948D01*
X4521682Y2742949D01*
X4521680Y2742949D01*
X4519098Y2743900D01*
X4518050Y2744065D01*
X4517050Y2744420D01*
X4512475Y2745088D01*
X4511731Y2745050D01*
X4511000Y2745196D01*
X4502000Y2745196D01*
X4404000Y2745195D01*
X4400818Y2745195D01*
X4396916Y2744419D01*
X4391035Y2741984D01*
X4387727Y2739773D01*
X4383226Y2735273D01*
X4381016Y2731965D01*
X4379223Y2727636D01*
X4378966Y2726347D01*
X4378539Y2725105D01*
X4377897Y2720371D01*
X4377939Y2719680D01*
X4377804Y2719000D01*
Y2699302D01*
X2867760D01*
X2865846Y2703921D01*
X2910962Y2749038D01*
X2916572Y2756349D01*
X2920099Y2764863D01*
X2921302Y2774000D01*
Y2999167D01*
X2922287Y2999693D01*
X2932184Y3007816D01*
X2940307Y3017713D01*
X2946343Y3029005D01*
X2950059Y3041258D01*
X2951314Y3054000D01*
Y3064000D01*
X2950059Y3076742D01*
X2946343Y3088995D01*
X2940307Y3100287D01*
X2932184Y3110184D01*
X2922287Y3118307D01*
X2910995Y3124343D01*
X2898742Y3128059D01*
X2886000Y3129314D01*
D02*
G37*
G36*
X3623000Y2490687D02*
Y2446000D01*
X3658345D01*
Y2451000D01*
X3656970Y2461442D01*
X3652940Y2471173D01*
X3646528Y2479528D01*
X3638173Y2485940D01*
X3628442Y2489970D01*
X3623000Y2490687D01*
D02*
G37*
G36*
X3613000D02*
X3607558Y2489970D01*
X3597827Y2485940D01*
X3589472Y2479528D01*
X3583060Y2471173D01*
X3579030Y2461442D01*
X3577655Y2451000D01*
Y2446000D01*
X3613000D01*
Y2490687D01*
D02*
G37*
G36*
X3658345Y2436000D02*
X3623000D01*
Y2391313D01*
X3628442Y2392030D01*
X3638173Y2396060D01*
X3646528Y2402472D01*
X3652940Y2410827D01*
X3656970Y2420558D01*
X3658345Y2431000D01*
Y2436000D01*
D02*
G37*
G36*
X3613000D02*
X3577655D01*
Y2431000D01*
X3579030Y2420558D01*
X3583060Y2410827D01*
X3589472Y2402472D01*
X3597827Y2396060D01*
X3607558Y2392030D01*
X3613000Y2391313D01*
Y2436000D01*
D02*
G37*
G36*
X3518000Y2491345D02*
X3507558Y2489970D01*
X3497827Y2485940D01*
X3489472Y2479528D01*
X3483060Y2471173D01*
X3479030Y2461442D01*
X3477655Y2451000D01*
Y2431000D01*
X3479030Y2420558D01*
X3483060Y2410827D01*
X3489472Y2402472D01*
X3497827Y2396060D01*
X3507558Y2392030D01*
X3518000Y2390655D01*
X3528442Y2392030D01*
X3538173Y2396060D01*
X3546528Y2402472D01*
X3552940Y2410827D01*
X3556970Y2420558D01*
X3558345Y2431000D01*
Y2451000D01*
X3556970Y2461442D01*
X3552940Y2471173D01*
X3546528Y2479528D01*
X3538173Y2485940D01*
X3528442Y2489970D01*
X3518000Y2491345D01*
D02*
G37*
G36*
X3818000D02*
X3807558Y2489970D01*
X3797827Y2485940D01*
X3789472Y2479528D01*
X3783060Y2471173D01*
X3779030Y2461442D01*
X3777655Y2451000D01*
Y2431000D01*
X3779030Y2420558D01*
X3783060Y2410827D01*
X3789472Y2402472D01*
X3797827Y2396060D01*
X3802706Y2394039D01*
Y2267000D01*
X3803870Y2261147D01*
X3807186Y2256186D01*
X3817186Y2246186D01*
X3821513Y2243294D01*
X3821495Y2240834D01*
X3820682Y2238294D01*
X3756335D01*
X3733294Y2261335D01*
Y2394039D01*
X3738173Y2396060D01*
X3746528Y2402472D01*
X3752940Y2410827D01*
X3756970Y2420558D01*
X3758345Y2431000D01*
Y2451000D01*
X3756970Y2461442D01*
X3752940Y2471173D01*
X3746528Y2479528D01*
X3738173Y2485940D01*
X3728442Y2489970D01*
X3718000Y2491345D01*
X3707558Y2489970D01*
X3697827Y2485940D01*
X3689472Y2479528D01*
X3683060Y2471173D01*
X3679030Y2461442D01*
X3677655Y2451000D01*
Y2431000D01*
X3679030Y2420558D01*
X3683060Y2410827D01*
X3689472Y2402472D01*
X3697827Y2396060D01*
X3702706Y2394039D01*
Y2255000D01*
X3703870Y2249147D01*
X3707186Y2244186D01*
X3739186Y2212186D01*
X3744147Y2208870D01*
X3750000Y2207706D01*
X4589142D01*
X4594995Y2208870D01*
X4599957Y2212186D01*
X4605814Y2218044D01*
X4609130Y2223005D01*
X4610294Y2228858D01*
Y2247010D01*
X4611955Y2248671D01*
X4615000Y2256022D01*
Y2263978D01*
X4613042Y2268706D01*
X4616111Y2273706D01*
X4623203D01*
X4626544Y2268706D01*
X4625000Y2264978D01*
Y2257022D01*
X4628045Y2249671D01*
X4629706Y2248010D01*
Y2154335D01*
X4618165Y2142794D01*
X3247990D01*
X3246329Y2144455D01*
X3238978Y2147500D01*
X3231022D01*
X3223671Y2144455D01*
X3218045Y2138829D01*
X3215000Y2131478D01*
Y2123522D01*
X3218045Y2116171D01*
X3223671Y2110545D01*
X3231022Y2107500D01*
X3238978D01*
X3242088Y2108788D01*
X3244921Y2104549D01*
X3219186Y2078814D01*
X3215870Y2073853D01*
X3214706Y2068000D01*
Y1989990D01*
X3213045Y1988329D01*
X3210000Y1980978D01*
Y1973022D01*
X3213045Y1965671D01*
X3218671Y1960045D01*
X3226022Y1957000D01*
X3233978D01*
X3241329Y1960045D01*
X3246955Y1965671D01*
X3250000Y1973022D01*
Y1980978D01*
X3246955Y1988329D01*
X3245294Y1989990D01*
Y2061665D01*
X3270335Y2086706D01*
X4817000D01*
X4822853Y2087870D01*
X4827814Y2091186D01*
X4854814Y2118186D01*
X4858130Y2123147D01*
X4859294Y2129000D01*
Y2248010D01*
X4860955Y2249671D01*
X4864000Y2257022D01*
Y2264978D01*
X4860955Y2272329D01*
X4855329Y2277955D01*
X4847978Y2281000D01*
X4840022D01*
X4832671Y2277955D01*
X4827045Y2272329D01*
X4824000Y2264978D01*
Y2257022D01*
X4827045Y2249671D01*
X4828706Y2248010D01*
Y2135335D01*
X4810665Y2117294D01*
X4642456D01*
X4640542Y2121913D01*
X4655814Y2137186D01*
X4659130Y2142147D01*
X4660294Y2148000D01*
Y2248010D01*
X4661955Y2249671D01*
X4665000Y2257022D01*
Y2264978D01*
X4663456Y2268706D01*
X4666797Y2273706D01*
X4769665D01*
X4775994Y2267377D01*
X4775000Y2264978D01*
Y2257022D01*
X4778045Y2249671D01*
X4783671Y2244045D01*
X4791022Y2241000D01*
X4798978D01*
X4806329Y2244045D01*
X4811955Y2249671D01*
X4815000Y2257022D01*
Y2264978D01*
X4811955Y2272329D01*
X4807390Y2276895D01*
X4807216Y2277766D01*
X4803901Y2282728D01*
X4786814Y2299814D01*
X4781853Y2303130D01*
X4776000Y2304294D01*
X3933294D01*
Y2391000D01*
X3958000D01*
Y2491000D01*
X3878000D01*
Y2391000D01*
X3902706D01*
Y2294858D01*
X3903870Y2289005D01*
X3907186Y2284044D01*
X3913044Y2278186D01*
X3914378Y2277294D01*
X3912861Y2272294D01*
X3834335D01*
X3833294Y2273335D01*
Y2394039D01*
X3838173Y2396060D01*
X3846528Y2402472D01*
X3852940Y2410827D01*
X3856970Y2420558D01*
X3858345Y2431000D01*
Y2451000D01*
X3856970Y2461442D01*
X3852940Y2471173D01*
X3846528Y2479528D01*
X3838173Y2485940D01*
X3828442Y2489970D01*
X3818000Y2491345D01*
D02*
G37*
G36*
X2912978Y2196000D02*
X2905022D01*
X2897671Y2192955D01*
X2896010Y2191294D01*
X2886000D01*
X2880147Y2190130D01*
X2875186Y2186814D01*
X2855186Y2166814D01*
X2851870Y2161853D01*
X2850706Y2156000D01*
Y1776335D01*
X2834665Y1760294D01*
X2753097D01*
X2751435Y1761955D01*
X2744084Y1765000D01*
X2736128D01*
X2728777Y1761955D01*
X2723151Y1756329D01*
X2720106Y1748978D01*
Y1741022D01*
X2723151Y1733671D01*
X2728777Y1728045D01*
X2736128Y1725000D01*
X2744084D01*
X2751435Y1728045D01*
X2753097Y1729706D01*
X2841000D01*
X2846853Y1730870D01*
X2851814Y1734186D01*
X2871008Y1753379D01*
X2874723Y1751360D01*
X2875425Y1750725D01*
Y1743022D01*
X2878470Y1735671D01*
X2884096Y1730045D01*
X2891447Y1727000D01*
X2899403D01*
X2906754Y1730045D01*
X2912380Y1735671D01*
X2915425Y1743022D01*
Y1750978D01*
X2912380Y1758329D01*
X2910719Y1759990D01*
Y2004793D01*
X2914022Y2007000D01*
X2921978D01*
X2929329Y2010045D01*
X2934955Y2015671D01*
X2938000Y2023022D01*
Y2030978D01*
X2934955Y2038329D01*
X2929329Y2043955D01*
X2921978Y2047000D01*
X2914022D01*
X2906671Y2043955D01*
X2905010Y2042294D01*
X2901283D01*
X2895430Y2041130D01*
X2890469Y2037814D01*
X2886294Y2033640D01*
X2881294Y2035711D01*
Y2149665D01*
X2892335Y2160706D01*
X2896010D01*
X2897671Y2159045D01*
X2905022Y2156000D01*
X2912978D01*
X2920329Y2159045D01*
X2925955Y2164671D01*
X2929000Y2172022D01*
Y2179978D01*
X2925955Y2187329D01*
X2920329Y2192955D01*
X2912978Y2196000D01*
D02*
G37*
G36*
X182347Y2304260D02*
X163732D01*
X145345Y2301348D01*
X127640Y2295595D01*
X111054Y2287144D01*
X95993Y2276202D01*
X82830Y2263038D01*
X71888Y2247978D01*
X63436Y2231391D01*
X57684Y2213686D01*
X54772Y2195300D01*
Y2176684D01*
X57684Y2158298D01*
X63436Y2140593D01*
X71888Y2124006D01*
X82830Y2108946D01*
X95993Y2095783D01*
X111054Y2084840D01*
X127640Y2076389D01*
X145345Y2070637D01*
X163732Y2067724D01*
X182347D01*
X200734Y2070637D01*
X218438Y2076389D01*
X235025Y2084840D01*
X250086Y2095783D01*
X263249Y2108946D01*
X274191Y2124006D01*
X282642Y2140593D01*
X288395Y2158298D01*
X291307Y2176684D01*
Y2195300D01*
X288395Y2213686D01*
X282642Y2231391D01*
X274191Y2247978D01*
X263249Y2263038D01*
X250086Y2276202D01*
X235025Y2287144D01*
X218438Y2295595D01*
X200734Y2301348D01*
X182347Y2304260D01*
D02*
G37*
G36*
X5090790Y2644696D02*
X5045806D01*
X5041905Y2643920D01*
X5041904Y2643920D01*
X5039700Y2643006D01*
X5039699Y2643006D01*
X5036392Y2640796D01*
X5034704Y2639108D01*
X5032494Y2635800D01*
X5031580Y2633595D01*
X5030804Y2629693D01*
Y2551710D01*
X5031580Y2547808D01*
X5032950Y2544500D01*
X5035160Y2541192D01*
X5037692Y2538660D01*
X5041000Y2536450D01*
X5044308Y2535080D01*
X5048210Y2534304D01*
X5093193D01*
X5097095Y2535080D01*
X5099300Y2535994D01*
X5102608Y2538204D01*
X5104296Y2539892D01*
X5106506Y2543199D01*
X5106506Y2543200D01*
X5107420Y2545405D01*
X5107420Y2545405D01*
X5108196Y2549306D01*
Y2564895D01*
X5113196Y2566966D01*
X5122608Y2557553D01*
Y2259000D01*
Y2093447D01*
X5061553Y2032392D01*
X4294000D01*
Y2052000D01*
X4194000D01*
Y2032392D01*
X3334000D01*
X3326196Y2030840D01*
X3319581Y2026419D01*
X3273581Y1980419D01*
X3269160Y1973804D01*
X3267608Y1966000D01*
Y1691447D01*
X3236553Y1660392D01*
X3115000D01*
X3107196Y1658840D01*
X3100581Y1654419D01*
X3035581Y1589419D01*
X3031160Y1582804D01*
X3029608Y1575000D01*
Y583000D01*
X3030000Y581030D01*
Y579022D01*
X3030769Y577166D01*
X3031160Y575196D01*
X3032276Y573527D01*
X3033045Y571671D01*
X3034465Y570251D01*
X3035581Y568581D01*
X3037251Y567465D01*
X3038671Y566045D01*
X3040526Y565276D01*
X3042196Y564160D01*
X3044166Y563769D01*
X3046022Y563000D01*
X3048030D01*
X3050000Y562608D01*
X3051970Y563000D01*
X3053978D01*
X3055834Y563769D01*
X3057804Y564160D01*
X3059474Y565276D01*
X3061329Y566045D01*
X3062749Y567465D01*
X3064419Y568581D01*
X3065535Y570251D01*
X3066955Y571671D01*
X3067724Y573527D01*
X3068840Y575196D01*
X3069231Y577166D01*
X3070000Y579022D01*
Y581030D01*
X3070392Y583000D01*
Y1566553D01*
X3123447Y1619608D01*
X3245000D01*
X3252804Y1621160D01*
X3259419Y1625581D01*
X3302419Y1668581D01*
X3306840Y1675196D01*
X3308392Y1683000D01*
Y1957553D01*
X3342447Y1991608D01*
X4059535D01*
X4061039Y1986608D01*
X4057160Y1980804D01*
X4055608Y1973000D01*
Y1561000D01*
X4057160Y1553196D01*
X4061581Y1546581D01*
X4077581Y1530581D01*
X4084196Y1526160D01*
X4092000Y1524608D01*
X4329000D01*
X4330970Y1525000D01*
X4332978D01*
X4334834Y1525769D01*
X4336804Y1526160D01*
X4338474Y1527276D01*
X4340329Y1528045D01*
X4341749Y1529465D01*
X4343419Y1530581D01*
X4344535Y1532251D01*
X4345955Y1533671D01*
X4346724Y1535526D01*
X4347840Y1537196D01*
X4348231Y1539166D01*
X4349000Y1541022D01*
Y1543030D01*
X4349392Y1545000D01*
X4349000Y1546970D01*
Y1548978D01*
X4348231Y1550834D01*
X4347840Y1552804D01*
X4346724Y1554474D01*
X4345955Y1556329D01*
X4344535Y1557749D01*
X4343419Y1559419D01*
X4341749Y1560535D01*
X4340329Y1561955D01*
X4338474Y1562724D01*
X4336804Y1563840D01*
X4334834Y1564231D01*
X4332978Y1565000D01*
X4330970D01*
X4329000Y1565392D01*
X4100447D01*
X4096392Y1569447D01*
Y1964553D01*
X4123447Y1991608D01*
X4194000D01*
Y1972000D01*
X4294000D01*
Y1991608D01*
X5070000D01*
X5077804Y1993160D01*
X5084419Y1997581D01*
X5157419Y2070581D01*
X5161840Y2077196D01*
X5163392Y2085000D01*
Y2259000D01*
Y2566000D01*
X5161840Y2573804D01*
X5157419Y2580419D01*
X5134419Y2603419D01*
X5127804Y2607840D01*
X5120000Y2609392D01*
X5108196D01*
Y2627290D01*
X5107420Y2631192D01*
X5107420Y2631192D01*
X5106050Y2634500D01*
X5103839Y2637808D01*
X5101308Y2640339D01*
X5098000Y2642550D01*
X5094692Y2643920D01*
X5090790Y2644696D01*
D02*
G37*
G36*
X4921982Y1985551D02*
X4915262D01*
X4909055Y1982980D01*
X4904304Y1978229D01*
X4901732Y1972021D01*
Y1965302D01*
X4904304Y1959094D01*
X4909055Y1954343D01*
X4915262Y1951772D01*
X4921982D01*
X4928189Y1954343D01*
X4932940Y1959094D01*
X4935512Y1965302D01*
Y1972021D01*
X4932940Y1978229D01*
X4928189Y1982980D01*
X4921982Y1985551D01*
D02*
G37*
G36*
X4866864D02*
X4860144D01*
X4853937Y1982980D01*
X4849185Y1978229D01*
X4846614Y1972021D01*
Y1965302D01*
X4849185Y1959094D01*
X4853937Y1954343D01*
X4860144Y1951772D01*
X4866864D01*
X4873071Y1954343D01*
X4877822Y1959094D01*
X4880394Y1965302D01*
Y1972021D01*
X4877822Y1978229D01*
X4873071Y1982980D01*
X4866864Y1985551D01*
D02*
G37*
G36*
X4949541Y1957992D02*
X4942822D01*
X4936614Y1955421D01*
X4931863Y1950670D01*
X4929291Y1944462D01*
Y1937743D01*
X4931863Y1931535D01*
X4936614Y1926784D01*
X4942822Y1924213D01*
X4949541D01*
X4955748Y1926784D01*
X4960499Y1931535D01*
X4963071Y1937743D01*
Y1944462D01*
X4960499Y1950670D01*
X4955748Y1955421D01*
X4949541Y1957992D01*
D02*
G37*
G36*
X4894423D02*
X4887703D01*
X4881496Y1955421D01*
X4876745Y1950670D01*
X4874173Y1944462D01*
Y1937743D01*
X4876745Y1931535D01*
X4881496Y1926784D01*
X4887703Y1924213D01*
X4894423D01*
X4900630Y1926784D01*
X4905381Y1931535D01*
X4907953Y1937743D01*
Y1944462D01*
X4905381Y1950670D01*
X4900630Y1955421D01*
X4894423Y1957992D01*
D02*
G37*
G36*
X4839304D02*
X4832585D01*
X4826377Y1955421D01*
X4821626Y1950670D01*
X4819055Y1944462D01*
Y1937743D01*
X4821626Y1931535D01*
X4826377Y1926784D01*
X4832585Y1924213D01*
X4839304D01*
X4845512Y1926784D01*
X4850263Y1931535D01*
X4852834Y1937743D01*
Y1944462D01*
X4850263Y1950670D01*
X4845512Y1955421D01*
X4839304Y1957992D01*
D02*
G37*
G36*
X4254000Y1952345D02*
X4249000D01*
Y1917000D01*
X4293687D01*
X4292971Y1922442D01*
X4288940Y1932173D01*
X4282528Y1940528D01*
X4274173Y1946940D01*
X4264442Y1950970D01*
X4254000Y1952345D01*
D02*
G37*
G36*
X4239000D02*
X4234000D01*
X4223558Y1950970D01*
X4213827Y1946940D01*
X4205472Y1940528D01*
X4199060Y1932173D01*
X4195029Y1922442D01*
X4194313Y1917000D01*
X4239000D01*
Y1952345D01*
D02*
G37*
G36*
X4921982Y1930433D02*
X4915262D01*
X4909055Y1927862D01*
X4904304Y1923111D01*
X4901732Y1916903D01*
Y1910184D01*
X4904304Y1903976D01*
X4909055Y1899225D01*
X4915262Y1896654D01*
X4921982D01*
X4928189Y1899225D01*
X4932940Y1903976D01*
X4935512Y1910184D01*
Y1916903D01*
X4932940Y1923111D01*
X4928189Y1927862D01*
X4921982Y1930433D01*
D02*
G37*
G36*
X4866864D02*
X4860144D01*
X4853937Y1927862D01*
X4849185Y1923111D01*
X4846614Y1916903D01*
Y1910184D01*
X4849185Y1903976D01*
X4853937Y1899225D01*
X4860144Y1896654D01*
X4866864D01*
X4873071Y1899225D01*
X4877822Y1903976D01*
X4880394Y1910184D01*
Y1916903D01*
X4877822Y1923111D01*
X4873071Y1927862D01*
X4866864Y1930433D01*
D02*
G37*
G36*
X2411978Y1972000D02*
X2404022D01*
X2396671Y1968955D01*
X2391045Y1963329D01*
X2388000Y1955978D01*
Y1948022D01*
X2391045Y1940671D01*
X2396671Y1935045D01*
X2404022Y1932000D01*
X2411978D01*
X2419329Y1935045D01*
X2420990Y1936706D01*
X2626665D01*
X2634706Y1928665D01*
Y1921990D01*
X2633045Y1920329D01*
X2630000Y1912978D01*
Y1905022D01*
X2633045Y1897671D01*
X2638671Y1892045D01*
X2646022Y1889000D01*
X2653978D01*
X2661329Y1892045D01*
X2666955Y1897671D01*
X2670000Y1905022D01*
Y1912978D01*
X2666955Y1920329D01*
X2665294Y1921990D01*
Y1935000D01*
X2664130Y1940853D01*
X2660814Y1945814D01*
X2643814Y1962814D01*
X2638853Y1966130D01*
X2633000Y1967294D01*
X2420990D01*
X2419329Y1968955D01*
X2411978Y1972000D01*
D02*
G37*
G36*
X2232478Y1971000D02*
X2224522D01*
X2217171Y1967955D01*
X2211545Y1962329D01*
X2208500Y1954978D01*
Y1947022D01*
X2211545Y1939671D01*
X2212706Y1938510D01*
Y1917000D01*
X2213870Y1911147D01*
X2217186Y1906186D01*
X2226186Y1897186D01*
X2231147Y1893870D01*
X2237000Y1892706D01*
X2563010D01*
X2564671Y1891045D01*
X2572022Y1888000D01*
X2579978D01*
X2587329Y1891045D01*
X2592955Y1896671D01*
X2596000Y1904022D01*
Y1911978D01*
X2592955Y1919329D01*
X2587329Y1924955D01*
X2579978Y1928000D01*
X2572022D01*
X2564671Y1924955D01*
X2563010Y1923294D01*
X2243335D01*
X2243294Y1923335D01*
Y1937510D01*
X2245455Y1939671D01*
X2248500Y1947022D01*
Y1954978D01*
X2245455Y1962329D01*
X2239829Y1967955D01*
X2232478Y1971000D01*
D02*
G37*
G36*
X2805978Y2016000D02*
X2798022D01*
X2790671Y2012955D01*
X2785045Y2007329D01*
X2782000Y1999978D01*
Y1992022D01*
X2785045Y1984671D01*
X2790671Y1979045D01*
X2791742Y1978601D01*
Y1912955D01*
X2790080Y1911294D01*
X2787035Y1903943D01*
Y1895986D01*
X2790080Y1888636D01*
X2795706Y1883009D01*
X2803057Y1879965D01*
X2811014D01*
X2818365Y1883009D01*
X2823991Y1888636D01*
X2827035Y1895986D01*
Y1903943D01*
X2823991Y1911294D01*
X2822329Y1912955D01*
Y1990965D01*
X2822000Y1992620D01*
Y1999978D01*
X2818955Y2007329D01*
X2813329Y2012955D01*
X2805978Y2016000D01*
D02*
G37*
G36*
X4293687Y1907000D02*
X4249000D01*
Y1871655D01*
X4254000D01*
X4264442Y1873030D01*
X4274173Y1877060D01*
X4282528Y1883472D01*
X4288940Y1891827D01*
X4292971Y1901558D01*
X4293687Y1907000D01*
D02*
G37*
G36*
X4239000D02*
X4194313D01*
X4195029Y1901558D01*
X4199060Y1891827D01*
X4205472Y1883472D01*
X4213827Y1877060D01*
X4223558Y1873030D01*
X4234000Y1871655D01*
X4239000D01*
Y1907000D01*
D02*
G37*
G36*
X4949541Y1902874D02*
X4942822D01*
X4936614Y1900303D01*
X4931863Y1895552D01*
X4929291Y1889344D01*
Y1882625D01*
X4931863Y1876417D01*
X4936614Y1871666D01*
X4942822Y1869095D01*
X4949541D01*
X4955748Y1871666D01*
X4960499Y1876417D01*
X4963071Y1882625D01*
Y1889344D01*
X4960499Y1895552D01*
X4955748Y1900303D01*
X4949541Y1902874D01*
D02*
G37*
G36*
X4894423D02*
X4887703D01*
X4881496Y1900303D01*
X4876745Y1895552D01*
X4874173Y1889344D01*
Y1882625D01*
X4876745Y1876417D01*
X4881496Y1871666D01*
X4887703Y1869095D01*
X4894423D01*
X4900630Y1871666D01*
X4905381Y1876417D01*
X4907953Y1882625D01*
Y1889344D01*
X4905381Y1895552D01*
X4900630Y1900303D01*
X4894423Y1902874D01*
D02*
G37*
G36*
X4839304D02*
X4832585D01*
X4826377Y1900303D01*
X4821626Y1895552D01*
X4819055Y1889344D01*
Y1882625D01*
X4821626Y1876417D01*
X4826377Y1871666D01*
X4832585Y1869095D01*
X4839304D01*
X4845512Y1871666D01*
X4850263Y1876417D01*
X4852834Y1882625D01*
Y1889344D01*
X4850263Y1895552D01*
X4845512Y1900303D01*
X4839304Y1902874D01*
D02*
G37*
G36*
X4921982Y1875315D02*
X4915262D01*
X4909055Y1872744D01*
X4904304Y1867993D01*
X4901732Y1861785D01*
Y1855066D01*
X4904304Y1848858D01*
X4909055Y1844107D01*
X4915262Y1841535D01*
X4921982D01*
X4928189Y1844107D01*
X4932940Y1848858D01*
X4935512Y1855066D01*
Y1861785D01*
X4932940Y1867993D01*
X4928189Y1872744D01*
X4921982Y1875315D01*
D02*
G37*
G36*
X4866864D02*
X4860144D01*
X4853937Y1872744D01*
X4849185Y1867993D01*
X4846614Y1861785D01*
Y1855066D01*
X4849185Y1848858D01*
X4853937Y1844107D01*
X4860144Y1841535D01*
X4866864D01*
X4873071Y1844107D01*
X4877822Y1848858D01*
X4880394Y1855066D01*
Y1861785D01*
X4877822Y1867993D01*
X4873071Y1872744D01*
X4866864Y1875315D01*
D02*
G37*
G36*
X212401Y1889620D02*
X137599D01*
X129335Y1888532D01*
X121635Y1885342D01*
X115023Y1880268D01*
X109949Y1873656D01*
X106760Y1865956D01*
X105672Y1857693D01*
Y1814386D01*
X106760Y1806123D01*
X109949Y1798423D01*
X115023Y1791810D01*
X121635Y1786737D01*
X129335Y1783547D01*
X137599Y1782459D01*
X212401D01*
X220665Y1783547D01*
X228365Y1786737D01*
X234977Y1791810D01*
X240051Y1798423D01*
X243240Y1806123D01*
X244328Y1814386D01*
Y1857693D01*
X243240Y1865956D01*
X240051Y1873656D01*
X234977Y1880268D01*
X228365Y1885342D01*
X220665Y1888532D01*
X212401Y1889620D01*
D02*
G37*
G36*
X5516000Y1806780D02*
Y1776110D01*
X5546669D01*
X5544312Y1784908D01*
X5539605Y1793060D01*
X5532950Y1799716D01*
X5524798Y1804422D01*
X5516000Y1806780D01*
D02*
G37*
G36*
X5506000D02*
X5497202Y1804422D01*
X5489050Y1799716D01*
X5482395Y1793060D01*
X5477688Y1784908D01*
X5475331Y1776110D01*
X5506000D01*
Y1806780D01*
D02*
G37*
G36*
X5546669Y1766110D02*
X5516000D01*
Y1735441D01*
X5524798Y1737798D01*
X5532950Y1742505D01*
X5539605Y1749160D01*
X5544312Y1757312D01*
X5546669Y1766110D01*
D02*
G37*
G36*
X5506000D02*
X5475331D01*
X5477688Y1757312D01*
X5482395Y1749160D01*
X5489050Y1742505D01*
X5497202Y1737798D01*
X5506000Y1735441D01*
Y1766110D01*
D02*
G37*
G36*
X5515706Y1649378D02*
X5506294D01*
X5497202Y1646942D01*
X5489050Y1642235D01*
X5482395Y1635580D01*
X5477688Y1627428D01*
X5475252Y1618336D01*
Y1608924D01*
X5477688Y1599832D01*
X5482395Y1591680D01*
X5489050Y1585024D01*
X5497202Y1580318D01*
X5506294Y1577882D01*
X5515706D01*
X5524798Y1580318D01*
X5532950Y1585024D01*
X5539605Y1591680D01*
X5544312Y1599832D01*
X5546748Y1608924D01*
Y1618336D01*
X5544312Y1627428D01*
X5539605Y1635580D01*
X5532950Y1642235D01*
X5524798Y1646942D01*
X5515706Y1649378D01*
D02*
G37*
G36*
X3401159Y1606181D02*
X3393203D01*
X3385852Y1603136D01*
X3384191Y1601475D01*
X3165181D01*
X3159328Y1600311D01*
X3154367Y1596995D01*
X3094186Y1536814D01*
X3090870Y1531853D01*
X3089706Y1526000D01*
Y391512D01*
X3088905Y391406D01*
X3078567Y387124D01*
X3069689Y380311D01*
X3062876Y371433D01*
X3060333Y365294D01*
X2899667D01*
X2897124Y371433D01*
X2890311Y380311D01*
X2881433Y387124D01*
X2871095Y391406D01*
X2860000Y392867D01*
X2850000D01*
X2838905Y391406D01*
X2828567Y387124D01*
X2819689Y380311D01*
X2812876Y371433D01*
X2808594Y361095D01*
X2807133Y350000D01*
X2808594Y338905D01*
X2812876Y328567D01*
X2819689Y319689D01*
X2828567Y312876D01*
X2838905Y308594D01*
X2850000Y307133D01*
X2860000D01*
X2871095Y308594D01*
X2881433Y312876D01*
X2890311Y319689D01*
X2897124Y328567D01*
X2899667Y334706D01*
X3060333D01*
X3062876Y328567D01*
X3069689Y319689D01*
X3078567Y312876D01*
X3088905Y308594D01*
X3100000Y307133D01*
X3110000D01*
X3121095Y308594D01*
X3131433Y312876D01*
X3140311Y319689D01*
X3147124Y328567D01*
X3151406Y338905D01*
X3152867Y350000D01*
X3151406Y361095D01*
X3147124Y371433D01*
X3140311Y380311D01*
X3131433Y387124D01*
X3121095Y391406D01*
X3120294Y391512D01*
Y1519665D01*
X3171516Y1570887D01*
X3384191D01*
X3385852Y1569226D01*
X3393203Y1566181D01*
X3401159D01*
X3408510Y1569226D01*
X3414136Y1574852D01*
X3417181Y1582203D01*
Y1590159D01*
X3414136Y1597510D01*
X3408510Y1603136D01*
X3401159Y1606181D01*
D02*
G37*
G36*
X5546748Y1570638D02*
X5475252D01*
Y1499142D01*
X5546748D01*
Y1570638D01*
D02*
G37*
G36*
X4254000Y1852345D02*
X4234000D01*
X4223558Y1850970D01*
X4213827Y1846940D01*
X4205472Y1840528D01*
X4199060Y1832173D01*
X4195029Y1822442D01*
X4193655Y1812000D01*
X4195029Y1801558D01*
X4199060Y1791827D01*
X4205472Y1783472D01*
X4213827Y1777060D01*
X4223558Y1773030D01*
X4234000Y1771655D01*
X4254000D01*
X4264442Y1773030D01*
X4274173Y1777060D01*
X4282528Y1783472D01*
X4288940Y1791827D01*
X4290961Y1796706D01*
X5004665D01*
X5029706Y1771665D01*
Y1452990D01*
X5028045Y1451329D01*
X5025000Y1443978D01*
Y1436022D01*
X5028045Y1428671D01*
X5033671Y1423045D01*
X5041022Y1420000D01*
X5048978D01*
X5056329Y1423045D01*
X5061955Y1428671D01*
X5065000Y1436022D01*
Y1443978D01*
X5061955Y1451329D01*
X5060294Y1452990D01*
Y1778000D01*
X5059130Y1783853D01*
X5055814Y1788814D01*
X5021814Y1822814D01*
X5016853Y1826130D01*
X5011000Y1827294D01*
X4290961D01*
X4288940Y1832173D01*
X4282528Y1840528D01*
X4274173Y1846940D01*
X4264442Y1850970D01*
X4254000Y1852345D01*
D02*
G37*
G36*
Y1752345D02*
X4234000D01*
X4223558Y1750970D01*
X4213827Y1746940D01*
X4205472Y1740528D01*
X4199060Y1732173D01*
X4195029Y1722442D01*
X4193655Y1712000D01*
X4195029Y1701558D01*
X4199060Y1691827D01*
X4205472Y1683472D01*
X4213827Y1677060D01*
X4223558Y1673030D01*
X4234000Y1671655D01*
X4254000D01*
X4264442Y1673030D01*
X4274173Y1677060D01*
X4282528Y1683472D01*
X4288940Y1691827D01*
X4290961Y1696706D01*
X4970665D01*
X4979706Y1687665D01*
Y1449990D01*
X4978045Y1448329D01*
X4975000Y1440978D01*
Y1433022D01*
X4978045Y1425671D01*
X4983671Y1420045D01*
X4991022Y1417000D01*
X4998978D01*
X5006329Y1420045D01*
X5011955Y1425671D01*
X5015000Y1433022D01*
Y1440978D01*
X5011955Y1448329D01*
X5010294Y1449990D01*
Y1694000D01*
X5009130Y1699853D01*
X5005814Y1704814D01*
X4987815Y1722814D01*
X4982853Y1726130D01*
X4977000Y1727294D01*
X4290961D01*
X4288940Y1732173D01*
X4282528Y1740528D01*
X4274173Y1746940D01*
X4264442Y1750970D01*
X4254000Y1752345D01*
D02*
G37*
G36*
X212401Y1519541D02*
X137599D01*
X129335Y1518453D01*
X121635Y1515263D01*
X115023Y1510190D01*
X109949Y1503577D01*
X106760Y1495877D01*
X105672Y1487614D01*
Y1444307D01*
X106760Y1436044D01*
X109949Y1428344D01*
X115023Y1421732D01*
X121635Y1416658D01*
X129335Y1413468D01*
X137599Y1412380D01*
X212401D01*
X220665Y1413468D01*
X228365Y1416658D01*
X234977Y1421732D01*
X240051Y1428344D01*
X243240Y1436044D01*
X244328Y1444307D01*
Y1487614D01*
X243240Y1495877D01*
X240051Y1503577D01*
X234977Y1510190D01*
X228365Y1515263D01*
X220665Y1518453D01*
X212401Y1519541D01*
D02*
G37*
G36*
X3785978Y1785000D02*
X3778022D01*
X3770671Y1781955D01*
X3765045Y1776329D01*
X3762000Y1768978D01*
Y1761022D01*
X3765045Y1753671D01*
X3766706Y1752010D01*
Y1383858D01*
X3766921Y1382779D01*
X3762313Y1380316D01*
X3747294Y1395335D01*
Y1752010D01*
X3748955Y1753671D01*
X3752000Y1761022D01*
Y1768978D01*
X3748955Y1776329D01*
X3743329Y1781955D01*
X3735978Y1785000D01*
X3728022D01*
X3720671Y1781955D01*
X3715045Y1776329D01*
X3712000Y1768978D01*
Y1761022D01*
X3715045Y1753671D01*
X3716706Y1752010D01*
Y1389000D01*
X3716956Y1387744D01*
X3712348Y1385281D01*
X3697294Y1400335D01*
Y1752010D01*
X3698955Y1753671D01*
X3702000Y1761022D01*
Y1768978D01*
X3698955Y1776329D01*
X3693329Y1781955D01*
X3685978Y1785000D01*
X3678022D01*
X3670671Y1781955D01*
X3665045Y1776329D01*
X3662000Y1768978D01*
Y1761022D01*
X3665045Y1753671D01*
X3666706Y1752010D01*
Y1394000D01*
X3667701Y1388999D01*
X3665468Y1386975D01*
X3663577Y1386052D01*
X3647294Y1402335D01*
Y1752010D01*
X3648955Y1753671D01*
X3652000Y1761022D01*
Y1768978D01*
X3648955Y1776329D01*
X3643329Y1781955D01*
X3635978Y1785000D01*
X3628022D01*
X3620671Y1781955D01*
X3615045Y1776329D01*
X3612000Y1768978D01*
Y1761022D01*
X3615045Y1753671D01*
X3616706Y1752010D01*
Y1396000D01*
X3617870Y1390147D01*
X3621186Y1385186D01*
X3711186Y1295186D01*
X3716147Y1291870D01*
X3722000Y1290706D01*
X4906000D01*
X4911853Y1291870D01*
X4916814Y1295186D01*
X4957815Y1336186D01*
X4961130Y1341147D01*
X4962294Y1347000D01*
Y1437010D01*
X4963955Y1438671D01*
X4967000Y1446022D01*
Y1453978D01*
X4963955Y1461329D01*
X4958329Y1466955D01*
X4950978Y1470000D01*
X4943022D01*
X4935671Y1466955D01*
X4930045Y1461329D01*
X4927000Y1453978D01*
Y1446022D01*
X4930045Y1438671D01*
X4931706Y1437010D01*
Y1353335D01*
X4899665Y1321294D01*
X4832456D01*
X4830542Y1325913D01*
X4857814Y1353186D01*
X4861130Y1358147D01*
X4862294Y1364000D01*
Y1437010D01*
X4863955Y1438671D01*
X4867000Y1446022D01*
Y1453978D01*
X4863955Y1461329D01*
X4858329Y1466955D01*
X4850978Y1470000D01*
X4843022D01*
X4835671Y1466955D01*
X4830045Y1461329D01*
X4827000Y1453978D01*
Y1446022D01*
X4830045Y1438671D01*
X4831706Y1437010D01*
Y1370335D01*
X4807665Y1346294D01*
X4799456D01*
X4797542Y1350913D01*
X4807814Y1361186D01*
X4811130Y1366147D01*
X4812294Y1372000D01*
Y1437010D01*
X4813955Y1438671D01*
X4817000Y1446022D01*
Y1453978D01*
X4813955Y1461329D01*
X4808329Y1466955D01*
X4800978Y1470000D01*
X4793022D01*
X4785671Y1466955D01*
X4780045Y1461329D01*
X4777000Y1453978D01*
Y1446022D01*
X4780045Y1438671D01*
X4781706Y1437010D01*
Y1378335D01*
X4773665Y1370294D01*
X4654456D01*
X4652542Y1374913D01*
X4655814Y1378186D01*
X4659130Y1383147D01*
X4660294Y1389000D01*
Y1437010D01*
X4661955Y1438671D01*
X4665000Y1446022D01*
Y1453978D01*
X4661955Y1461329D01*
X4656329Y1466955D01*
X4648978Y1470000D01*
X4641022D01*
X4633671Y1466955D01*
X4628045Y1461329D01*
X4625000Y1453978D01*
Y1446022D01*
X4628045Y1438671D01*
X4629706Y1437010D01*
Y1395335D01*
X4627665Y1393294D01*
X3797294D01*
Y1752010D01*
X3798955Y1753671D01*
X3802000Y1761022D01*
Y1768978D01*
X3798955Y1776329D01*
X3793329Y1781955D01*
X3785978Y1785000D01*
D02*
G37*
G36*
X5497308Y1241268D02*
X5478692D01*
X5460306Y1238355D01*
X5442601Y1232603D01*
X5426014Y1224152D01*
X5410954Y1213209D01*
X5397791Y1200046D01*
X5386848Y1184986D01*
X5378397Y1168399D01*
X5372645Y1150694D01*
X5369732Y1132308D01*
Y1113692D01*
X5372645Y1095306D01*
X5378397Y1077601D01*
X5386848Y1061014D01*
X5397791Y1045954D01*
X5410954Y1032791D01*
X5426014Y1021848D01*
X5442601Y1013397D01*
X5460306Y1007644D01*
X5478692Y1004732D01*
X5497308D01*
X5515694Y1007644D01*
X5533399Y1013397D01*
X5549986Y1021848D01*
X5565046Y1032791D01*
X5578209Y1045954D01*
X5589152Y1061014D01*
X5597603Y1077601D01*
X5603355Y1095306D01*
X5606268Y1113692D01*
Y1132308D01*
X5603355Y1150694D01*
X5597603Y1168399D01*
X5589152Y1184986D01*
X5578209Y1200046D01*
X5565046Y1213209D01*
X5549986Y1224152D01*
X5533399Y1232603D01*
X5515694Y1238355D01*
X5497308Y1241268D01*
D02*
G37*
G36*
X182347D02*
X163732D01*
X145345Y1238355D01*
X127640Y1232603D01*
X111054Y1224152D01*
X95993Y1213209D01*
X82830Y1200046D01*
X71888Y1184986D01*
X63436Y1168399D01*
X57684Y1150694D01*
X54772Y1132308D01*
Y1113692D01*
X57684Y1095306D01*
X63436Y1077601D01*
X71888Y1061014D01*
X82830Y1045954D01*
X95993Y1032791D01*
X111054Y1021848D01*
X127640Y1013397D01*
X145345Y1007644D01*
X163732Y1004732D01*
X182347D01*
X200734Y1007644D01*
X218438Y1013397D01*
X235025Y1021848D01*
X250086Y1032791D01*
X263249Y1045954D01*
X274191Y1061014D01*
X282642Y1077601D01*
X288395Y1095306D01*
X291307Y1113692D01*
Y1132308D01*
X288395Y1150694D01*
X282642Y1168399D01*
X274191Y1184986D01*
X263249Y1200046D01*
X250086Y1213209D01*
X235025Y1224152D01*
X218438Y1232603D01*
X200734Y1238355D01*
X182347Y1241268D01*
D02*
G37*
G36*
X4851000Y1145000D02*
X4721000D01*
Y1005000D01*
X4851000D01*
Y1044741D01*
X5027466D01*
X5273591Y798616D01*
Y696327D01*
X5265132Y687867D01*
X5258762Y676834D01*
X5255464Y664528D01*
Y651787D01*
X5258762Y639481D01*
X5265132Y628448D01*
X5274141Y619439D01*
X5285174Y613069D01*
X5297480Y609772D01*
X5310220D01*
X5322526Y613069D01*
X5333560Y619439D01*
X5342569Y628448D01*
X5348939Y639481D01*
X5352236Y651787D01*
Y664528D01*
X5348939Y676834D01*
X5342569Y687867D01*
X5334109Y696327D01*
Y811150D01*
X5333078Y818981D01*
X5330055Y826279D01*
X5325247Y832546D01*
X5061396Y1096396D01*
X5055130Y1101205D01*
X5047832Y1104228D01*
X5040000Y1105259D01*
X4851000D01*
Y1145000D01*
D02*
G37*
G36*
X4916520Y706543D02*
X4903779D01*
X4891473Y703246D01*
X4880440Y696876D01*
X4871431Y687867D01*
X4865061Y676834D01*
X4861764Y664528D01*
Y651787D01*
X4865061Y639481D01*
X4871431Y628448D01*
X4880440Y619439D01*
X4891473Y613069D01*
X4903779Y609772D01*
X4916520D01*
X4928826Y613069D01*
X4939859Y619439D01*
X4948868Y628448D01*
X4955238Y639481D01*
X4958535Y651787D01*
Y664528D01*
X4955238Y676834D01*
X4948868Y687867D01*
X4939859Y696876D01*
X4928826Y703246D01*
X4916520Y706543D01*
D02*
G37*
G36*
X4450667Y1145000D02*
X4320667D01*
Y1005000D01*
X4386548D01*
X4727798Y663751D01*
Y651787D01*
X4731095Y639481D01*
X4737465Y628448D01*
X4746474Y619439D01*
X4757507Y613069D01*
X4769814Y609772D01*
X4782554D01*
X4794860Y613069D01*
X4805893Y619439D01*
X4814902Y628448D01*
X4821272Y639481D01*
X4824569Y651787D01*
Y664528D01*
X4821272Y676834D01*
X4814902Y687867D01*
X4805893Y696876D01*
X4794860Y703246D01*
X4782554Y706543D01*
X4770590D01*
X4450667Y1026467D01*
Y1145000D01*
D02*
G37*
G36*
X4388853Y706543D02*
X4376113D01*
X4363807Y703246D01*
X4352773Y696876D01*
X4343765Y687867D01*
X4337394Y676834D01*
X4334097Y664528D01*
Y651787D01*
X4337394Y639481D01*
X4343765Y628448D01*
X4352773Y619439D01*
X4363807Y613069D01*
X4376113Y609772D01*
X4388853D01*
X4401159Y613069D01*
X4412192Y619439D01*
X4421201Y628448D01*
X4427571Y639481D01*
X4430869Y651787D01*
Y664528D01*
X4427571Y676834D01*
X4421201Y687867D01*
X4412192Y696876D01*
X4401159Y703246D01*
X4388853Y706543D01*
D02*
G37*
G36*
X4050333Y1145000D02*
X3920333D01*
Y1005000D01*
X3967610D01*
X3968937Y1003270D01*
X4218258Y753949D01*
Y696327D01*
X4209799Y687867D01*
X4203429Y676834D01*
X4200131Y664528D01*
Y651787D01*
X4203429Y639481D01*
X4209799Y628448D01*
X4218807Y619439D01*
X4229841Y613069D01*
X4242147Y609772D01*
X4254887D01*
X4267193Y613069D01*
X4278227Y619439D01*
X4287235Y628448D01*
X4293605Y639481D01*
X4296903Y651787D01*
Y664528D01*
X4293605Y676834D01*
X4287235Y687867D01*
X4278776Y696327D01*
Y766483D01*
X4277745Y774315D01*
X4274722Y781613D01*
X4269913Y787879D01*
X4050333Y1007459D01*
Y1145000D01*
D02*
G37*
G36*
X3861186Y706543D02*
X3848446D01*
X3836140Y703246D01*
X3825107Y696876D01*
X3816098Y687867D01*
X3809728Y676834D01*
X3806430Y664528D01*
Y651787D01*
X3809728Y639481D01*
X3816098Y628448D01*
X3825107Y619439D01*
X3836140Y613069D01*
X3848446Y609772D01*
X3861186D01*
X3873492Y613069D01*
X3884526Y619439D01*
X3893535Y628448D01*
X3899905Y639481D01*
X3903202Y651787D01*
Y664528D01*
X3899905Y676834D01*
X3893535Y687867D01*
X3884526Y696876D01*
X3873492Y703246D01*
X3861186Y706543D01*
D02*
G37*
G36*
X3650000Y1145000D02*
X3520000D01*
Y1005000D01*
X3554741D01*
Y944000D01*
X3555772Y936168D01*
X3558795Y928871D01*
X3563604Y922604D01*
X3690591Y795616D01*
Y696327D01*
X3682132Y687867D01*
X3675762Y676834D01*
X3672465Y664528D01*
Y651787D01*
X3675762Y639481D01*
X3682132Y628448D01*
X3691141Y619439D01*
X3702174Y613069D01*
X3714480Y609772D01*
X3727220D01*
X3739527Y613069D01*
X3750560Y619439D01*
X3759569Y628448D01*
X3765939Y639481D01*
X3769236Y651787D01*
Y664528D01*
X3765939Y676834D01*
X3759569Y687867D01*
X3751109Y696327D01*
Y808149D01*
X3751109Y808150D01*
X3750078Y815981D01*
X3747055Y823279D01*
X3742247Y829546D01*
X3615259Y956534D01*
Y1005000D01*
X3650000D01*
Y1145000D01*
D02*
G37*
G36*
X3333520Y706543D02*
X3320780D01*
X3308473Y703246D01*
X3297440Y696876D01*
X3288431Y687867D01*
X3282061Y676834D01*
X3278764Y664528D01*
Y651787D01*
X3282061Y639481D01*
X3288431Y628448D01*
X3297440Y619439D01*
X3308473Y613069D01*
X3320780Y609772D01*
X3333520D01*
X3345826Y613069D01*
X3356859Y619439D01*
X3365868Y628448D01*
X3372238Y639481D01*
X3375535Y651787D01*
Y664528D01*
X3372238Y676834D01*
X3365868Y687867D01*
X3356859Y696876D01*
X3345826Y703246D01*
X3333520Y706543D01*
D02*
G37*
G36*
X1534032Y642237D02*
X1519653D01*
X1505552Y639433D01*
X1492268Y633930D01*
X1480313Y625942D01*
X1470146Y615775D01*
X1462158Y603820D01*
X1456656Y590536D01*
X1453851Y576434D01*
Y562056D01*
X1456656Y547954D01*
X1462158Y534671D01*
X1470146Y522716D01*
X1480313Y512549D01*
X1492268Y504561D01*
X1505552Y499058D01*
X1519653Y496253D01*
X1534032D01*
X1548134Y499058D01*
X1561417Y504561D01*
X1573372Y512549D01*
X1583539Y522716D01*
X1591527Y534671D01*
X1597030Y547954D01*
X1599835Y562056D01*
Y576434D01*
X1597030Y590536D01*
X1591527Y603820D01*
X1583539Y615775D01*
X1573372Y625942D01*
X1561417Y633930D01*
X1548134Y639433D01*
X1534032Y642237D01*
D02*
G37*
G36*
X774189D02*
X759811D01*
X745709Y639433D01*
X732425Y633930D01*
X720470Y625942D01*
X710303Y615775D01*
X702315Y603820D01*
X696813Y590536D01*
X694008Y576434D01*
Y562056D01*
X696813Y547954D01*
X702315Y534671D01*
X710303Y522716D01*
X720470Y512549D01*
X732425Y504561D01*
X745709Y499058D01*
X759811Y496253D01*
X774189D01*
X788291Y499058D01*
X801575Y504561D01*
X813530Y512549D01*
X823697Y522716D01*
X831685Y534671D01*
X837187Y547954D01*
X839992Y562056D01*
Y576434D01*
X837187Y590536D01*
X831685Y603820D01*
X823697Y615775D01*
X813530Y625942D01*
X801575Y633930D01*
X788291Y639433D01*
X774189Y642237D01*
D02*
G37*
G36*
X2092764Y336462D02*
X2083000D01*
Y301449D01*
X2118013D01*
Y311212D01*
X2116091Y320875D01*
X2110617Y329066D01*
X2102426Y334539D01*
X2092764Y336462D01*
D02*
G37*
G36*
X2073000D02*
X2063236D01*
X2053574Y334539D01*
X2045383Y329066D01*
X2039909Y320875D01*
X2037987Y311212D01*
Y301449D01*
X2073000D01*
Y336462D01*
D02*
G37*
G36*
X2183204Y335976D02*
X2172796D01*
X2162743Y333283D01*
X2153729Y328079D01*
X2146370Y320719D01*
X2141166Y311706D01*
X2138472Y301653D01*
Y291245D01*
X2141166Y281192D01*
X2146370Y272178D01*
X2153729Y264819D01*
X2162743Y259615D01*
X2172796Y256921D01*
X2183204D01*
X2193257Y259615D01*
X2202271Y264819D01*
X2209630Y272178D01*
X2214834Y281192D01*
X2217528Y291245D01*
Y301653D01*
X2214834Y311706D01*
X2209630Y320719D01*
X2202271Y328079D01*
X2193257Y333283D01*
X2183204Y335976D01*
D02*
G37*
G36*
X2118013Y291449D02*
X2083000D01*
Y256436D01*
X2092764D01*
X2102426Y258358D01*
X2110617Y263831D01*
X2116091Y272023D01*
X2118013Y281685D01*
Y291449D01*
D02*
G37*
G36*
X2073000D02*
X2037987D01*
Y281685D01*
X2039909Y272023D01*
X2045383Y263831D01*
X2053574Y258358D01*
X2063236Y256436D01*
X2073000D01*
Y291449D01*
D02*
G37*
G36*
X5215268Y427626D02*
X5175898D01*
X5168148Y426606D01*
X5160927Y423615D01*
X5154726Y418857D01*
X5149968Y412656D01*
X5146977Y405435D01*
X5145956Y397685D01*
Y358315D01*
X5146977Y350565D01*
X5149968Y343344D01*
X5154726Y337143D01*
X5160927Y332385D01*
X5168148Y329394D01*
X5175898Y328374D01*
X5211129D01*
X5260768Y278735D01*
X5258762Y275259D01*
X5255464Y262953D01*
Y250213D01*
X5258762Y237906D01*
X5265132Y226873D01*
X5274141Y217864D01*
X5285174Y211494D01*
X5297480Y208197D01*
X5310220D01*
X5322526Y211494D01*
X5333560Y217864D01*
X5342569Y226873D01*
X5348939Y237906D01*
X5352236Y250213D01*
Y262953D01*
X5348939Y275259D01*
X5342569Y286292D01*
X5333560Y295301D01*
X5322526Y301671D01*
X5310220Y304969D01*
X5297480D01*
X5293325Y303855D01*
X5244471Y352709D01*
X5245209Y358315D01*
Y397685D01*
X5244189Y405435D01*
X5241198Y412656D01*
X5236439Y418857D01*
X5230238Y423615D01*
X5223017Y426606D01*
X5215268Y427626D01*
D02*
G37*
G36*
X4685268D02*
X4645898D01*
X4638148Y426606D01*
X4630927Y423615D01*
X4624726Y418857D01*
X4619968Y412656D01*
X4616977Y405435D01*
X4615956Y397685D01*
Y358315D01*
X4616977Y350565D01*
X4619968Y343344D01*
X4624726Y337143D01*
X4630927Y332385D01*
X4638148Y329394D01*
X4645898Y328374D01*
X4681129D01*
X4732248Y277255D01*
X4731095Y275259D01*
X4727798Y262953D01*
Y250213D01*
X4731095Y237906D01*
X4737465Y226873D01*
X4746474Y217864D01*
X4757507Y211494D01*
X4769814Y208197D01*
X4782554D01*
X4794860Y211494D01*
X4805893Y217864D01*
X4814902Y226873D01*
X4821272Y237906D01*
X4824569Y250213D01*
Y262953D01*
X4821272Y275259D01*
X4814902Y286292D01*
X4805893Y295301D01*
X4794860Y301671D01*
X4782554Y304969D01*
X4769814D01*
X4763818Y303362D01*
X4714471Y352709D01*
X4715209Y358315D01*
Y397685D01*
X4714189Y405435D01*
X4711198Y412656D01*
X4706439Y418857D01*
X4700238Y423615D01*
X4693017Y426606D01*
X4685268Y427626D01*
D02*
G37*
G36*
X4160268D02*
X4120898D01*
X4113148Y426606D01*
X4105927Y423615D01*
X4099726Y418857D01*
X4094968Y412656D01*
X4091977Y405435D01*
X4090956Y397685D01*
Y358315D01*
X4091977Y350565D01*
X4094968Y343344D01*
X4099726Y337143D01*
X4105927Y332385D01*
X4113148Y329394D01*
X4120898Y328374D01*
X4156129D01*
X4205557Y278946D01*
X4203429Y275259D01*
X4200131Y262953D01*
Y250213D01*
X4203429Y237906D01*
X4209799Y226873D01*
X4218807Y217864D01*
X4229841Y211494D01*
X4242147Y208197D01*
X4254887D01*
X4267193Y211494D01*
X4278227Y217864D01*
X4287235Y226873D01*
X4293605Y237906D01*
X4296903Y250213D01*
Y262953D01*
X4293605Y275259D01*
X4287235Y286292D01*
X4278227Y295301D01*
X4267193Y301671D01*
X4254887Y304969D01*
X4242147D01*
X4238254Y303925D01*
X4189471Y352709D01*
X4190209Y358315D01*
Y397685D01*
X4189189Y405435D01*
X4186198Y412656D01*
X4181439Y418857D01*
X4175238Y423615D01*
X4168017Y426606D01*
X4160268Y427626D01*
D02*
G37*
G36*
X3111000Y215867D02*
D01*
Y178000D01*
X3153209D01*
X3152406Y184095D01*
X3148124Y194433D01*
X3141311Y203311D01*
X3132433Y210124D01*
X3122095Y214406D01*
X3111000Y215867D01*
D02*
G37*
G36*
X3101000D02*
X3089905Y214406D01*
X3079567Y210124D01*
X3070689Y203311D01*
X3063876Y194433D01*
X3059594Y184095D01*
X3058791Y178000D01*
X3101000D01*
Y215867D01*
D02*
G37*
G36*
X2861000Y214867D02*
D01*
Y177000D01*
X2903209D01*
X2902406Y183095D01*
X2898124Y193433D01*
X2891311Y202311D01*
X2882433Y209124D01*
X2872095Y213406D01*
X2861000Y214867D01*
D02*
G37*
G36*
X2851000D02*
X2839905Y213406D01*
X2829567Y209124D01*
X2820689Y202311D01*
X2813876Y193433D01*
X2809594Y183095D01*
X2808791Y177000D01*
X2851000D01*
Y214867D01*
D02*
G37*
G36*
X1534379Y280426D02*
X1519306D01*
X1504747Y276525D01*
X1491694Y268989D01*
X1481036Y258331D01*
X1473500Y245278D01*
X1469599Y230719D01*
Y215646D01*
X1473500Y201087D01*
X1481036Y188034D01*
X1491694Y177376D01*
X1504747Y169839D01*
X1519306Y165938D01*
X1534379D01*
X1548938Y169839D01*
X1561991Y177376D01*
X1572649Y188034D01*
X1580186Y201087D01*
X1584087Y215646D01*
Y230719D01*
X1580186Y245278D01*
X1572649Y258331D01*
X1561991Y268989D01*
X1548938Y276525D01*
X1534379Y280426D01*
D02*
G37*
G36*
X774536D02*
X759464D01*
X744905Y276525D01*
X731851Y268989D01*
X721193Y258331D01*
X713657Y245278D01*
X709756Y230719D01*
Y215646D01*
X713657Y201087D01*
X721193Y188034D01*
X731851Y177376D01*
X744905Y169839D01*
X759464Y165938D01*
X774536D01*
X789095Y169839D01*
X802149Y177376D01*
X812807Y188034D01*
X820343Y201087D01*
X824244Y215646D01*
Y230719D01*
X820343Y245278D01*
X812807Y258331D01*
X802149Y268989D01*
X789095Y276525D01*
X774536Y280426D01*
D02*
G37*
G36*
X3153209Y168000D02*
X3111000D01*
Y130133D01*
X3122095Y131594D01*
X3132433Y135876D01*
X3141311Y142689D01*
X3148124Y151567D01*
X3152406Y161905D01*
X3153209Y168000D01*
D02*
G37*
G36*
X3101000D02*
X3058791D01*
X3059594Y161905D01*
X3063876Y151567D01*
X3070689Y142689D01*
X3079567Y135876D01*
X3089905Y131594D01*
X3101000Y130133D01*
D01*
Y168000D01*
D02*
G37*
G36*
X2903209Y167000D02*
X2861000D01*
Y129133D01*
X2872095Y130594D01*
X2882433Y134876D01*
X2891311Y141689D01*
X2898124Y150567D01*
X2902406Y160905D01*
X2903209Y167000D01*
D02*
G37*
G36*
X2851000D02*
X2808791D01*
X2809594Y160905D01*
X2813876Y150567D01*
X2820689Y141689D01*
X2829567Y134876D01*
X2839905Y130594D01*
X2851000Y129133D01*
D01*
Y167000D01*
D02*
G37*
G36*
X4586000Y1145314D02*
X4573258Y1144060D01*
X4561005Y1140343D01*
X4549713Y1134307D01*
X4539816Y1126184D01*
X4531693Y1116287D01*
X4525657Y1104995D01*
X4521940Y1092742D01*
X4520685Y1080000D01*
Y1070000D01*
X4521940Y1057258D01*
X4525657Y1045005D01*
X4531693Y1033713D01*
X4539816Y1023816D01*
X4549713Y1015693D01*
X4561005Y1009657D01*
X4573258Y1005941D01*
X4586000Y1004686D01*
X4598742Y1005941D01*
X4605283Y1007925D01*
X4760603Y852604D01*
X4760604Y852604D01*
X4766870Y847795D01*
X4774168Y844772D01*
X4782000Y843741D01*
X4782001Y843741D01*
X4962466D01*
X5076741Y729466D01*
Y206543D01*
X5058614D01*
Y109772D01*
X5155386D01*
Y206543D01*
X5137259D01*
Y742000D01*
X5136228Y749832D01*
X5133205Y757130D01*
X5128396Y763396D01*
X4996396Y895396D01*
X4990130Y900205D01*
X4982832Y903228D01*
X4975000Y904259D01*
X4794533D01*
X4648075Y1050717D01*
X4650059Y1057258D01*
X4651314Y1070000D01*
Y1080000D01*
X4650059Y1092742D01*
X4646343Y1104995D01*
X4640307Y1116287D01*
X4632184Y1126184D01*
X4622287Y1134307D01*
X4610995Y1140343D01*
X4598742Y1144060D01*
X4586000Y1145314D01*
D02*
G37*
%LPD*%
G36*
X4510999Y2735000D02*
X4511000Y2734999D01*
X4511000Y2734999D01*
X4511001Y2735000D01*
X4515577Y2734331D01*
X4518159Y2733381D01*
X4521817Y2730003D01*
X4523902Y2725482D01*
X4524000Y2722995D01*
X4524000Y2580999D01*
X4524000Y2580999D01*
X4524000Y2578811D01*
X4522325Y2574768D01*
X4519231Y2571674D01*
X4515188Y2570000D01*
X4512999Y2570000D01*
X4403000Y2570000D01*
X4400016Y2570000D01*
X4394503Y2572284D01*
X4390283Y2576503D01*
X4388000Y2582016D01*
X4388000Y2585000D01*
X4388000Y2719000D01*
X4388000Y2719000D01*
X4388000Y2719000D01*
X4388642Y2723734D01*
X4390436Y2728063D01*
X4394936Y2732564D01*
X4400817Y2735000D01*
X4404000Y2734999D01*
X4502000Y2735000D01*
X4510999Y2735000D01*
D02*
G37*
G36*
X5094098Y2633130D02*
X5096630Y2630598D01*
X5098000Y2627290D01*
Y2625500D01*
Y2550500D01*
Y2549307D01*
X5097087Y2547101D01*
X5095399Y2545413D01*
X5093193Y2544500D01*
X5048210D01*
X5044902Y2545870D01*
X5042370Y2548402D01*
X5041000Y2551710D01*
Y2553500D01*
Y2628500D01*
Y2629693D01*
X5041913Y2631899D01*
X5043601Y2633586D01*
X5045806Y2634500D01*
X5090790D01*
X5094098Y2633130D01*
D02*
G37*
D21*
X4665583Y378000D02*
D03*
X4488417D02*
D03*
X4140583D02*
D03*
X3963417D02*
D03*
X3608583D02*
D03*
X3431417D02*
D03*
X5195583D02*
D03*
X5018417D02*
D03*
D34*
X2855000Y350000D02*
X3105000D01*
X4844000Y2129000D02*
Y2261000D01*
X4817000Y2102000D02*
X4844000Y2129000D01*
X3264000Y2102000D02*
X4817000D01*
X3230000Y2068000D02*
X3264000Y2102000D01*
X3230000Y1977000D02*
Y2068000D01*
X3105000Y1526000D02*
X3165181Y1586181D01*
X3105000Y350000D02*
Y1526000D01*
X3165181Y1586181D02*
X3397181D01*
X2802000Y1996000D02*
X2807035Y1990965D01*
Y1899965D02*
Y1990965D01*
X4793087Y2262913D02*
X4795000Y2261000D01*
X4793087Y2262913D02*
Y2271913D01*
X3923858Y2289000D02*
X4776000D01*
X4793087Y2271913D01*
X3918000Y2294858D02*
Y2441000D01*
Y2294858D02*
X3923858Y2289000D01*
X3787858Y1378000D02*
X4634000D01*
X4645000Y1389000D01*
Y1450000D01*
X3782000Y1383858D02*
Y1765000D01*
Y1383858D02*
X3787858Y1378000D01*
X4947000Y1347000D02*
Y1450000D01*
X3722000Y1306000D02*
X4906000D01*
X4947000Y1347000D01*
X4797000Y1372000D02*
Y1450000D01*
X3766000Y1355000D02*
X4780000D01*
X4797000Y1372000D01*
X3732000Y1389000D02*
Y1765000D01*
Y1389000D02*
X3766000Y1355000D01*
X3745000Y1331000D02*
X4814000D01*
X3682000Y1394000D02*
Y1765000D01*
Y1394000D02*
X3745000Y1331000D01*
X3632000Y1396000D02*
Y1765000D01*
Y1396000D02*
X3722000Y1306000D01*
X4814000Y1331000D02*
X4847000Y1364000D01*
Y1450000D01*
X4244000Y1812000D02*
X5011000D01*
X5045000Y1440000D02*
Y1778000D01*
X5011000Y1812000D02*
X5045000Y1778000D01*
X4995000Y1437000D02*
Y1694000D01*
X4244000Y1712000D02*
X4977000D01*
X4995000Y1694000D01*
X4645000Y2148000D02*
Y2261000D01*
X3235000Y2127500D02*
X4624500D01*
X4645000Y2148000D01*
X3750000Y2223000D02*
X4589142D01*
X4595000Y2228858D02*
Y2260000D01*
X4589142Y2223000D02*
X4595000Y2228858D01*
X3718000Y2255000D02*
X3750000Y2223000D01*
X3828000Y2257000D02*
X4545000D01*
X3818000Y2267000D02*
Y2441000D01*
Y2267000D02*
X3828000Y2257000D01*
X3718000Y2255000D02*
Y2441000D01*
X2228000Y1917000D02*
X2237000Y1908000D01*
X2576000D01*
X2228000Y1917000D02*
Y1950500D01*
X2633000Y1952000D02*
X2650000Y1935000D01*
Y1909000D02*
Y1935000D01*
X2408000Y1952000D02*
X2633000D01*
X2228000Y1950500D02*
X2228500Y1951000D01*
X2895425Y2021142D02*
X2901283Y2027000D01*
X2918000D01*
X2895425Y1747000D02*
Y2021142D01*
X2866000Y1770000D02*
Y2156000D01*
X2886000Y2176000D02*
X2909000D01*
X2866000Y2156000D02*
X2886000Y2176000D01*
X2740106Y1745000D02*
X2841000D01*
X2866000Y1770000D01*
D35*
X4185667Y1051058D02*
X4213650Y1023074D01*
X4579333Y158157D02*
Y649667D01*
X4213650Y1015350D02*
X4579333Y649667D01*
X4213650Y1015350D02*
Y1023074D01*
X4185667Y1051058D02*
Y1075000D01*
X5303850Y658158D02*
Y811150D01*
X4786000Y1075000D02*
X5040000D01*
X5303850Y811150D01*
X4975000Y874000D02*
X5107000Y742000D01*
Y158157D02*
Y742000D01*
X4782000Y874000D02*
X4975000D01*
X4586000Y1070000D02*
Y1075000D01*
Y1070000D02*
X4782000Y874000D01*
X3990333Y1024667D02*
Y1070000D01*
Y1024667D02*
X4248517Y766483D01*
Y658158D02*
Y766483D01*
X3985333Y1075000D02*
X3990333Y1070000D01*
X3787247Y985753D02*
X4051667Y721333D01*
Y158157D02*
Y721333D01*
X3785333Y1075000D02*
X3787247Y1073087D01*
Y985753D02*
Y1073087D01*
X3720850Y658158D02*
Y808150D01*
X3585000Y944000D02*
Y1075000D01*
Y944000D02*
X3720850Y808150D01*
X3385000Y830000D02*
Y1075000D01*
Y830000D02*
X3524000Y691000D01*
Y158157D02*
Y691000D01*
X4390667Y1043675D02*
Y1070000D01*
Y1043675D02*
X4776184Y658158D01*
X4385667Y1075000D02*
X4390667Y1070000D01*
D36*
X5511000Y1692370D02*
X5514630Y1696000D01*
X5597000D01*
X5616268Y1715268D01*
Y2373017D01*
X5446000Y2404000D02*
X5585284D01*
X5616268Y2373017D01*
X5333000Y2517000D02*
X5446000Y2404000D01*
X5333000Y2517000D02*
Y3034000D01*
X5308000Y3059000D02*
X5333000Y3034000D01*
X3286000Y3059000D02*
X5308000D01*
X5143000Y2259000D02*
Y2566000D01*
X5120000Y2589000D02*
X5143000Y2566000D01*
X5082000Y2589000D02*
X5120000D01*
X3050000Y583000D02*
Y1575000D01*
X3115000Y1640000D01*
X3245000D01*
X3288000Y1683000D01*
Y1966000D01*
X3334000Y2012000D01*
X4115000D01*
X4092000Y1545000D02*
X4329000D01*
X4076000Y1561000D02*
X4092000Y1545000D01*
X4076000Y1561000D02*
Y1973000D01*
X4115000Y2012000D01*
X4244000D01*
X5143000Y2085000D02*
Y2259000D01*
X4244000Y2012000D02*
X5070000D01*
X5143000Y2085000D01*
X3327150Y130604D02*
X3371716Y86038D01*
X3829000D01*
X3854816Y111854D02*
Y256583D01*
X3829000Y86038D02*
X3854816Y111854D01*
X3829000Y86038D02*
X4354000D01*
X4382483Y114521D01*
X4354000Y86038D02*
X4889038D01*
X4911000Y108000D01*
Y255732D01*
X4382483Y114521D02*
Y256583D01*
X3327150Y130604D02*
Y256583D01*
X5195583Y372759D02*
X5303850Y264491D01*
Y256583D02*
Y264491D01*
X5195583Y372759D02*
Y378000D01*
X5018417Y372759D02*
Y378000D01*
X4910149Y264491D02*
X5018417Y372759D01*
X4910149Y256583D02*
Y264491D01*
X4776184Y256583D02*
Y262158D01*
X4665583Y372759D02*
Y378000D01*
Y372759D02*
X4776184Y262158D01*
X4382483Y266824D02*
X4488417Y372759D01*
Y378000D01*
X4382483Y256583D02*
Y266824D01*
X4140583Y372759D02*
X4248517Y264824D01*
X4140583Y372759D02*
Y378000D01*
X4248517Y256583D02*
Y264824D01*
X3854816Y264158D02*
X3963417Y372759D01*
X3854816Y256583D02*
Y264158D01*
X3963417Y372759D02*
Y378000D01*
X3608583Y373425D02*
X3720850Y261158D01*
X3608583Y373425D02*
Y378000D01*
X3720850Y256583D02*
Y261158D01*
X3327150Y268491D02*
X3431417Y372759D01*
Y378000D01*
X3327150Y256583D02*
Y268491D01*
D39*
X330269Y3247180D02*
G03*
X271214Y3188125I0J-59055D01*
G01*
X271214Y120093D02*
G03*
X330270Y61038I59055J0D01*
G01*
X12474Y905841D02*
G03*
X71529Y846786I59055J0D01*
G01*
X71529Y2461440D02*
G03*
X12474Y2402385I0J-59055D01*
G01*
X192474Y2461440D02*
G03*
X271214Y2540180I0J78740D01*
G01*
X271214Y768046D02*
G03*
X192474Y846786I-78740J0D01*
G01*
X5468065D02*
G03*
X5389325Y768046I0J-78740D01*
G01*
X5389325Y2540180D02*
G03*
X5468065Y2461440I78740J0D01*
G01*
X5648065Y2402385D02*
G03*
X5589010Y2461440I-59055J0D01*
G01*
X5589010Y846786D02*
G03*
X5648065Y905841I0J59055D01*
G01*
X5330270Y61038D02*
G03*
X5389325Y120093I0J59055D01*
G01*
X5389325Y3188125D02*
G03*
X5330270Y3247180I-59055J0D01*
G01*
X271214Y120093D02*
Y768046D01*
X271214Y2540180D02*
Y3188125D01*
X71529Y2461440D02*
X192474D01*
X71529Y846786D02*
X192474D01*
X12474Y2401904D02*
X12474Y905841D01*
X5648065D02*
X5648065Y2401904D01*
X5468065Y846786D02*
X5589010D01*
X5468065Y2461440D02*
X5589010D01*
X5389325Y2540180D02*
Y3188125D01*
X5389325Y120093D02*
Y768046D01*
X330270Y3247180D02*
X5330270D01*
X330270Y61038D02*
X5330270D01*
D40*
X175000Y1465961D02*
D03*
Y1651000D02*
D03*
Y1836039D02*
D03*
D41*
X4786000Y1075000D02*
D03*
X4385667D02*
D03*
X3985333D02*
D03*
X3585000D02*
D03*
X2086000Y3059000D02*
D03*
X2686000D02*
D03*
X3086000D02*
D03*
D42*
X4586000Y1075000D02*
D03*
X4185667D02*
D03*
X3785333D02*
D03*
X3385000D02*
D03*
X2286000Y3059000D02*
D03*
X2486000D02*
D03*
X2886000D02*
D03*
X3286000D02*
D03*
D45*
X2178000Y296449D02*
D03*
D46*
X2078000D02*
D03*
D47*
X767000Y223182D02*
D03*
Y3093261D02*
D03*
X1526843D02*
D03*
Y223182D02*
D03*
D48*
Y569245D02*
D03*
X767000D02*
D03*
X1526843Y2759009D02*
D03*
X767000D02*
D03*
D50*
X3105000Y350000D02*
D03*
X3106000Y173000D02*
D03*
X2856000Y172000D02*
D03*
X2855000Y350000D02*
D03*
D51*
X4776184Y658158D02*
D03*
X4382483D02*
D03*
Y256583D02*
D03*
X4776184D02*
D03*
X3720850Y658158D02*
D03*
X3327150D02*
D03*
Y256583D02*
D03*
X3720850D02*
D03*
X4248517Y658158D02*
D03*
X3854816D02*
D03*
Y256583D02*
D03*
X4248517D02*
D03*
X5303850Y658158D02*
D03*
X4910149D02*
D03*
Y256583D02*
D03*
X5303850D02*
D03*
D52*
X4579333Y158157D02*
D03*
X3524000D02*
D03*
X4051667D02*
D03*
X5107000D02*
D03*
D53*
X5511000Y1534890D02*
D03*
D54*
Y1613630D02*
D03*
Y1692370D02*
D03*
Y1771110D02*
D03*
D55*
X4478934Y2715278D02*
D03*
X4844000Y2261000D02*
D03*
X4947000Y1450000D02*
D03*
X4595000Y2260000D02*
D03*
X4645000Y2261000D02*
D03*
X5045000Y1440000D02*
D03*
X4995000Y1437000D02*
D03*
X4545000Y2257000D02*
D03*
X4797000Y1450000D02*
D03*
X3732000Y1765000D02*
D03*
X4645000Y1450000D02*
D03*
X3682000Y1765000D02*
D03*
X3235000Y2127500D02*
D03*
X3782000Y1765000D02*
D03*
X4847000Y1450000D02*
D03*
X3632000Y1765000D02*
D03*
X2650000Y1909000D02*
D03*
X2895425Y1747000D02*
D03*
X2740106Y1745000D02*
D03*
X2909000Y2176000D02*
D03*
X2918000Y2027000D02*
D03*
X3230000Y1977000D02*
D03*
X2228500Y1951000D02*
D03*
X2408000Y1952000D02*
D03*
X2576000Y1908000D02*
D03*
X4406934Y2715278D02*
D03*
X4408934Y2661278D02*
D03*
X2802000Y1996000D02*
D03*
X2807035Y1899965D02*
D03*
X3397181Y1586181D02*
D03*
X4795000Y2261000D02*
D03*
X4406934Y2607278D02*
D03*
X4476934Y2609278D02*
D03*
Y2663278D02*
D03*
X4440000Y2584000D02*
D03*
Y2634000D02*
D03*
Y2684000D02*
D03*
X5143000Y2259000D02*
D03*
X5058000Y2618000D02*
D03*
X5082000Y2589000D02*
D03*
X5058000D02*
D03*
X3050000Y583000D02*
D03*
X4329000Y1545000D02*
D03*
X5082000Y2618000D02*
D03*
X5081836Y2562602D02*
D03*
X5057836D02*
D03*
X90000Y1434000D02*
D03*
X240000Y984000D02*
D03*
X90000Y1584000D02*
D03*
Y1734000D02*
D03*
Y1284000D02*
D03*
X266270Y1123320D02*
D03*
X79270Y1124320D02*
D03*
X173040Y1216320D02*
D03*
Y1029025D02*
D03*
X239270Y1189320D02*
D03*
X107270Y1188320D02*
D03*
X106270Y1056320D02*
D03*
X238270D02*
D03*
X5581230Y1123320D02*
D03*
X5394230Y1124320D02*
D03*
X5488000Y1216320D02*
D03*
Y1029025D02*
D03*
X5554230Y1189320D02*
D03*
X5422230Y1188320D02*
D03*
X5421230Y1056320D02*
D03*
X5553230D02*
D03*
X5581230Y2186312D02*
D03*
X990000Y2634000D02*
D03*
Y534000D02*
D03*
Y1434000D02*
D03*
X1290000Y534000D02*
D03*
Y834000D02*
D03*
X1140000Y234000D02*
D03*
X840000Y2634000D02*
D03*
X990000Y1284000D02*
D03*
X1290000Y1134000D02*
D03*
X840000Y2934000D02*
D03*
X990000Y2484000D02*
D03*
X1290000Y684000D02*
D03*
X840000Y2334000D02*
D03*
X1290000Y984000D02*
D03*
Y1434000D02*
D03*
X990000Y2034000D02*
D03*
Y1884000D02*
D03*
Y2934000D02*
D03*
X840000Y1734000D02*
D03*
X990000Y2184000D02*
D03*
X1140000Y3084000D02*
D03*
X990000Y684000D02*
D03*
Y1134000D02*
D03*
Y834000D02*
D03*
Y234000D02*
D03*
X1290000Y384000D02*
D03*
X840000Y1884000D02*
D03*
Y1584000D02*
D03*
X990000Y2334000D02*
D03*
Y984000D02*
D03*
Y1734000D02*
D03*
Y2784000D02*
D03*
X840000Y2034000D02*
D03*
Y2184000D02*
D03*
X1290000Y1284000D02*
D03*
X840000Y2484000D02*
D03*
X990000Y384000D02*
D03*
Y1584000D02*
D03*
X3840000Y2934000D02*
D03*
X3990000Y234000D02*
D03*
Y534000D02*
D03*
Y684000D02*
D03*
Y1434000D02*
D03*
Y1734000D02*
D03*
Y1884000D02*
D03*
Y2184000D02*
D03*
Y2334000D02*
D03*
Y2484000D02*
D03*
Y2784000D02*
D03*
X4140000Y234000D02*
D03*
Y984000D02*
D03*
Y1434000D02*
D03*
Y1734000D02*
D03*
Y1884000D02*
D03*
Y2484000D02*
D03*
X4290000Y384000D02*
D03*
X4140000Y2784000D02*
D03*
Y2184000D02*
D03*
X1590000Y1584000D02*
D03*
Y2334000D02*
D03*
X1440000Y1134000D02*
D03*
X1590000Y2484000D02*
D03*
X1740000Y2034000D02*
D03*
X1440000Y834000D02*
D03*
Y2034000D02*
D03*
X1740000Y1134000D02*
D03*
X1290000Y1584000D02*
D03*
X1740000Y2334000D02*
D03*
Y1434000D02*
D03*
Y984000D02*
D03*
X1590000Y384000D02*
D03*
X1740000Y2484000D02*
D03*
X1290000Y2034000D02*
D03*
X1740000Y1734000D02*
D03*
Y1584000D02*
D03*
X1590000Y2034000D02*
D03*
X1740000Y384000D02*
D03*
X1590000Y1284000D02*
D03*
X1440000Y2334000D02*
D03*
X1590000Y984000D02*
D03*
X1290000Y2784000D02*
D03*
X1440000Y384000D02*
D03*
Y2184000D02*
D03*
X1590000Y2934000D02*
D03*
X1290000Y1734000D02*
D03*
X1440000Y2634000D02*
D03*
Y1884000D02*
D03*
X1590000Y1434000D02*
D03*
X1290000Y2934000D02*
D03*
X1440000Y1434000D02*
D03*
X1740000Y2784000D02*
D03*
X1290000Y2334000D02*
D03*
X1740000Y534000D02*
D03*
X1590000Y684000D02*
D03*
X1440000Y1584000D02*
D03*
Y2784000D02*
D03*
X1590000Y1134000D02*
D03*
X1440000Y1284000D02*
D03*
X1290000Y2634000D02*
D03*
X1440000Y684000D02*
D03*
Y984000D02*
D03*
Y2934000D02*
D03*
X1590000Y1884000D02*
D03*
Y2634000D02*
D03*
X1440000Y3084000D02*
D03*
X1740000Y2184000D02*
D03*
X1290000Y1884000D02*
D03*
X1440000Y534000D02*
D03*
Y1734000D02*
D03*
X1740000Y234000D02*
D03*
Y834000D02*
D03*
X1590000Y1734000D02*
D03*
X1740000Y1884000D02*
D03*
X1290000Y2484000D02*
D03*
X1590000Y2184000D02*
D03*
X1290000Y3084000D02*
D03*
X1740000Y1284000D02*
D03*
X1590000Y834000D02*
D03*
X1290000Y2184000D02*
D03*
X1440000Y2484000D02*
D03*
X1740000Y684000D02*
D03*
X540000Y2634000D02*
D03*
X690000Y2334000D02*
D03*
Y2484000D02*
D03*
Y1734000D02*
D03*
X540000Y2334000D02*
D03*
X690000Y1134000D02*
D03*
X240000Y1284000D02*
D03*
X540000Y2484000D02*
D03*
X840000Y684000D02*
D03*
X690000Y984000D02*
D03*
X390000Y234000D02*
D03*
X540000Y1884000D02*
D03*
X690000Y2034000D02*
D03*
X540000Y3084000D02*
D03*
X390000Y1884000D02*
D03*
X840000Y834000D02*
D03*
X390000Y2934000D02*
D03*
X690000D02*
D03*
X390000Y1134000D02*
D03*
X540000Y2934000D02*
D03*
X690000Y2184000D02*
D03*
X390000Y1734000D02*
D03*
Y834000D02*
D03*
X540000Y2184000D02*
D03*
X390000Y1284000D02*
D03*
Y984000D02*
D03*
X840000Y1284000D02*
D03*
Y234000D02*
D03*
X390000Y684000D02*
D03*
X690000Y1884000D02*
D03*
X540000Y1584000D02*
D03*
X390000Y2484000D02*
D03*
X240000Y1734000D02*
D03*
X690000Y1584000D02*
D03*
X390000Y2184000D02*
D03*
X690000Y2634000D02*
D03*
Y1434000D02*
D03*
Y3084000D02*
D03*
X390000Y2034000D02*
D03*
X690000Y384000D02*
D03*
X840000D02*
D03*
X390000D02*
D03*
X840000Y984000D02*
D03*
X390000Y534000D02*
D03*
X690000Y684000D02*
D03*
X540000Y2784000D02*
D03*
X840000Y1134000D02*
D03*
X690000Y834000D02*
D03*
X540000Y1734000D02*
D03*
X90000Y2034000D02*
D03*
X390000Y3084000D02*
D03*
Y1584000D02*
D03*
X90000Y2334000D02*
D03*
X390000D02*
D03*
X690000Y534000D02*
D03*
X240000Y1584000D02*
D03*
X540000Y2034000D02*
D03*
X840000Y1434000D02*
D03*
X390000Y2784000D02*
D03*
X240000Y2034000D02*
D03*
X690000Y1284000D02*
D03*
X390000Y2634000D02*
D03*
X240000Y2334000D02*
D03*
X5490000D02*
D03*
Y2034000D02*
D03*
Y1884000D02*
D03*
Y1434000D02*
D03*
Y1284000D02*
D03*
Y984000D02*
D03*
X5340000Y3084000D02*
D03*
Y2334000D02*
D03*
Y2184000D02*
D03*
Y2034000D02*
D03*
Y1884000D02*
D03*
Y1734000D02*
D03*
Y1434000D02*
D03*
Y1284000D02*
D03*
Y1134000D02*
D03*
Y984000D02*
D03*
Y834000D02*
D03*
Y534000D02*
D03*
Y384000D02*
D03*
X5190000Y2784000D02*
D03*
Y2634000D02*
D03*
Y2334000D02*
D03*
Y2034000D02*
D03*
Y1884000D02*
D03*
Y1734000D02*
D03*
Y1434000D02*
D03*
Y1284000D02*
D03*
Y1134000D02*
D03*
Y234000D02*
D03*
X5040000Y2784000D02*
D03*
Y2334000D02*
D03*
Y1884000D02*
D03*
Y1284000D02*
D03*
Y1134000D02*
D03*
Y984000D02*
D03*
X4290000Y2184000D02*
D03*
X4890000Y534000D02*
D03*
X4740000Y834000D02*
D03*
Y1884000D02*
D03*
X4590000D02*
D03*
X4440000Y2784000D02*
D03*
X4290000D02*
D03*
X4890000Y984000D02*
D03*
X4740000Y2334000D02*
D03*
X4590000Y2634000D02*
D03*
Y984000D02*
D03*
X4440000Y234000D02*
D03*
X5040000D02*
D03*
X4740000Y2784000D02*
D03*
X4590000D02*
D03*
X4440000Y1434000D02*
D03*
Y534000D02*
D03*
X5040000D02*
D03*
X4890000Y384000D02*
D03*
X4740000D02*
D03*
X4440000Y1884000D02*
D03*
Y684000D02*
D03*
X5040000D02*
D03*
X4740000Y984000D02*
D03*
Y534000D02*
D03*
X2690056Y2022974D02*
D03*
X3240000Y1734000D02*
D03*
X3390000Y1884000D02*
D03*
X3240000Y2484000D02*
D03*
Y2184000D02*
D03*
Y1284000D02*
D03*
X3540000D02*
D03*
X3240000Y2934000D02*
D03*
X3540000Y1434000D02*
D03*
X3690000Y534000D02*
D03*
X3540000Y1734000D02*
D03*
X3840000Y534000D02*
D03*
X3390000Y2934000D02*
D03*
X3690000Y1884000D02*
D03*
X3240000Y1134000D02*
D03*
X3690000Y2184000D02*
D03*
X3390000Y1284000D02*
D03*
X3840000Y834000D02*
D03*
X3390000Y234000D02*
D03*
X3690000Y2334000D02*
D03*
X3540000Y1884000D02*
D03*
Y984000D02*
D03*
X3840000Y1134000D02*
D03*
X3690000Y2784000D02*
D03*
Y2934000D02*
D03*
X3240000Y2334000D02*
D03*
X3390000Y2784000D02*
D03*
X3540000D02*
D03*
Y2934000D02*
D03*
X3390000Y1434000D02*
D03*
X3840000Y1884000D02*
D03*
X3390000Y2484000D02*
D03*
X3840000Y384000D02*
D03*
X3390000Y2334000D02*
D03*
X3840000Y2184000D02*
D03*
X3690000Y384000D02*
D03*
X3240000Y2784000D02*
D03*
X3390000Y2184000D02*
D03*
X3840000Y2784000D02*
D03*
X3390000Y1734000D02*
D03*
X2490000Y834000D02*
D03*
Y684000D02*
D03*
X2190000Y234000D02*
D03*
X2340000Y684000D02*
D03*
X2040000Y384000D02*
D03*
X2490000Y2034000D02*
D03*
Y234000D02*
D03*
Y384000D02*
D03*
X2040000Y1434000D02*
D03*
X2490000Y2784000D02*
D03*
X2040000Y1584000D02*
D03*
X2190000Y834000D02*
D03*
X2490000Y984000D02*
D03*
X2190000Y684000D02*
D03*
X2340000Y984000D02*
D03*
X1890000Y384000D02*
D03*
X2040000Y2034000D02*
D03*
Y1284000D02*
D03*
X1740000Y2934000D02*
D03*
X2040000Y1134000D02*
D03*
X2340000Y2934000D02*
D03*
X2190000Y1434000D02*
D03*
X2340000Y2034000D02*
D03*
X2190000Y2934000D02*
D03*
X2490000Y2484000D02*
D03*
Y1584000D02*
D03*
X2640000Y234000D02*
D03*
X2340000Y1584000D02*
D03*
X2040000Y2334000D02*
D03*
Y684000D02*
D03*
X2190000Y1134000D02*
D03*
X2040000Y234000D02*
D03*
X2190000Y984000D02*
D03*
X2490000Y534000D02*
D03*
X2340000Y1734000D02*
D03*
X2040000Y2934000D02*
D03*
X1740000Y3084000D02*
D03*
X1890000Y234000D02*
D03*
X2190000Y3084000D02*
D03*
X2490000Y2934000D02*
D03*
X2340000Y2484000D02*
D03*
Y1284000D02*
D03*
X2040000Y2484000D02*
D03*
X2190000Y1584000D02*
D03*
X2040000Y2184000D02*
D03*
X2340000Y384000D02*
D03*
X2490000Y1134000D02*
D03*
Y1284000D02*
D03*
Y1434000D02*
D03*
X2040000Y2784000D02*
D03*
Y984000D02*
D03*
X2190000Y1284000D02*
D03*
X2340000Y1134000D02*
D03*
X2190000Y534000D02*
D03*
X2040000Y1734000D02*
D03*
X2340000Y834000D02*
D03*
X2040000Y534000D02*
D03*
X2340000D02*
D03*
Y1434000D02*
D03*
Y234000D02*
D03*
X2040000Y834000D02*
D03*
Y1884000D02*
D03*
X2640000Y534000D02*
D03*
X2790000D02*
D03*
X2640000Y2934000D02*
D03*
X3090000Y2784000D02*
D03*
X2640000Y2184000D02*
D03*
Y384000D02*
D03*
Y1284000D02*
D03*
X3240000Y684000D02*
D03*
X2790000Y1134000D02*
D03*
Y834000D02*
D03*
X2640000Y2784000D02*
D03*
X2940000Y1134000D02*
D03*
X2790000Y2784000D02*
D03*
X3090000Y234000D02*
D03*
X2790000Y384000D02*
D03*
X3240000D02*
D03*
X2790000Y3084000D02*
D03*
Y2334000D02*
D03*
Y234000D02*
D03*
X3240000Y834000D02*
D03*
X2940000D02*
D03*
Y1734000D02*
D03*
Y684000D02*
D03*
X2640000Y1134000D02*
D03*
Y2334000D02*
D03*
Y834000D02*
D03*
Y984000D02*
D03*
X2940000Y234000D02*
D03*
Y384000D02*
D03*
X3090000Y2484000D02*
D03*
X2940000Y1284000D02*
D03*
X3240000Y984000D02*
D03*
X2640000Y2484000D02*
D03*
X2940000Y2784000D02*
D03*
X3240000Y234000D02*
D03*
X2940000Y2484000D02*
D03*
X2790000Y1434000D02*
D03*
X2940000Y2334000D02*
D03*
X2790000Y1284000D02*
D03*
X3240000Y534000D02*
D03*
X2640000Y684000D02*
D03*
X2940000Y534000D02*
D03*
Y1584000D02*
D03*
X2790000Y684000D02*
D03*
X2940000Y1434000D02*
D03*
X2790000Y2484000D02*
D03*
X2940000Y984000D02*
D03*
Y2934000D02*
D03*
X3090000Y2334000D02*
D03*
Y2934000D02*
D03*
X2790000D02*
D03*
Y1584000D02*
D03*
Y984000D02*
D03*
X5394230Y2187312D02*
D03*
X5488000Y2279312D02*
D03*
Y2092017D02*
D03*
X5554230Y2252312D02*
D03*
X5422230Y2251312D02*
D03*
X5421230Y2119312D02*
D03*
X5553230D02*
D03*
X266270Y2186312D02*
D03*
X79270Y2187312D02*
D03*
X173040Y2279312D02*
D03*
Y2092017D02*
D03*
X239270Y2252312D02*
D03*
X107270Y2251312D02*
D03*
X106270Y2119312D02*
D03*
X238270D02*
D03*
X90000Y984000D02*
D03*
Y1884000D02*
D03*
X4290000Y534000D02*
D03*
Y1434000D02*
D03*
Y1134000D02*
D03*
Y834000D02*
D03*
D56*
X173039Y2185992D02*
D03*
X5488000D02*
D03*
Y1123000D02*
D03*
X173039D02*
D03*
D57*
X2776000Y2664000D02*
X4461000D01*
X1678000Y1744000D02*
Y2550000D01*
X1792000Y2664000D02*
X2776000D01*
X1678000Y2550000D02*
X1792000Y2664000D01*
X1585000Y1651000D02*
X1678000Y1744000D01*
X175000Y1651000D02*
X1585000D01*
X2776000Y2664000D02*
X2886000Y2774000D01*
Y3059000D01*
D58*
X3518000Y2441000D02*
D03*
X3618000D02*
D03*
X3718000D02*
D03*
X3818000D02*
D03*
D59*
X3918000D02*
D03*
D60*
X4244000Y1712000D02*
D03*
Y1812000D02*
D03*
Y1912000D02*
D03*
D61*
Y2012000D02*
D03*
%TF.MD5,5ec3603b53965d371118c2ea84b08b1a*%
M02*
