%TF.GenerationSoftware,Altium Limited,Altium Designer,21.3.2 (30)*%
G04 Layer_Color=16711935*
%FSLAX26Y26*%
%MOIN*%
%TF.SameCoordinates,5CB9DBA1-4DA9-4ED0-9B61-E5D9B39C4D3D*%
%TF.FilePolarity,Positive*%
%TF.FileFunction,Other,Mechanical_1*%
%TF.Part,Single*%
G01*
G75*
%TA.AperFunction,NonConductor*%
%ADD83C,0.006000*%
%ADD87C,0.008000*%
D83*
X5052000Y2456835D02*
X5292157D01*
Y2311165D02*
Y2456835D01*
X5052000Y2311165D02*
X5292157D01*
X5052000D02*
Y2456835D01*
X5292157Y2399748D02*
X5329559D01*
Y2368252D02*
Y2399748D01*
X5292157Y2368252D02*
X5329559D01*
X5014598Y2368252D02*
X5052000D01*
X5014598D02*
Y2399748D01*
X5052000D01*
Y1406835D02*
X5292157D01*
Y1261165D02*
Y1406835D01*
X5052000Y1261165D02*
X5292157D01*
X5052000D02*
Y1406835D01*
X5292157Y1349748D02*
X5329559D01*
Y1318252D02*
Y1349748D01*
X5292157Y1318252D02*
X5329559D01*
X5014598Y1318252D02*
X5052000D01*
X5014598D02*
Y1349748D01*
X5052000D01*
D87*
X3973000Y2491000D02*
X3978000Y2496000D01*
X3473000Y2391000D02*
Y2491000D01*
Y2391000D02*
X3973000D01*
Y2491000D01*
X3473000D02*
X3973000D01*
X4189000Y2072000D02*
X4194000Y2067000D01*
Y1667000D02*
X4294000D01*
Y2067000D01*
X4194000D02*
X4294000D01*
X4194000Y1667000D02*
Y2067000D01*
%TF.MD5,d81ddd41f3701c5cd883c5c73a9a4faa*%
M02*
