%TF.GenerationSoftware,Altium Limited,Altium Designer,21.3.2 (30)*%
G04 Layer_Color=128*
%FSLAX26Y26*%
%MOIN*%
%TF.SameCoordinates,FFAA3912-E1DC-4B59-95C2-56FC1F4E7B50*%
%TF.FilePolarity,Positive*%
%TF.FileFunction,Drillmap*%
%TF.Part,Single*%
G01*
G75*
%TA.AperFunction,NonConductor*%
%ADD88C,0.005000*%
D88*
X168378Y1518769D02*
X215622D01*
X192000Y1495147D02*
Y1542391D01*
X168378Y1703808D02*
X215622D01*
X192000Y1680186D02*
Y1727430D01*
X168378Y1888848D02*
X215622D01*
X192000Y1865226D02*
Y1912469D01*
X728165Y2798690D02*
X854149D01*
X791157Y2735698D02*
Y2861682D01*
X1488008Y2798690D02*
X1613992D01*
X1551000Y2735698D02*
Y2861682D01*
X728165Y608926D02*
X854149D01*
X791157Y545934D02*
Y671918D01*
X1488008Y608926D02*
X1613992D01*
X1551000Y545934D02*
Y671918D01*
X1519504Y262863D02*
X1582496D01*
X1551000Y231367D02*
Y294359D01*
X1519504Y3132942D02*
X1582496D01*
X1551000Y3101446D02*
Y3164438D01*
X759661Y3132942D02*
X822653D01*
X791157Y3101446D02*
Y3164438D01*
X759661Y262863D02*
X822653D01*
X791157Y231367D02*
Y294359D01*
X3002000Y896000D02*
X3062000D01*
X3032000Y866000D02*
Y926000D01*
X2802000Y896000D02*
X2862000D01*
X2832000Y866000D02*
Y926000D01*
X2402000Y896000D02*
X2462000D01*
X2432000Y866000D02*
Y926000D01*
X2602000Y896000D02*
X2662000D01*
X2632000Y866000D02*
Y926000D01*
X3002000Y367000D02*
X3062000D01*
X3032000Y337000D02*
Y397000D01*
X2802000Y367000D02*
X2862000D01*
X2832000Y337000D02*
Y397000D01*
X2602000Y367000D02*
X2662000D01*
X2632000Y337000D02*
Y397000D01*
X2402000Y367000D02*
X2462000D01*
X2432000Y337000D02*
Y397000D01*
X4859000Y1171000D02*
X4919000D01*
X4889000Y1141000D02*
Y1201000D01*
X5059000Y1171000D02*
X5119000D01*
X5089000Y1141000D02*
Y1201000D01*
X4458500Y1171000D02*
X4518500D01*
X4488500Y1141000D02*
Y1201000D01*
X4658500Y1171000D02*
X4718500D01*
X4688500Y1141000D02*
Y1201000D01*
X4058000Y1171000D02*
X4118000D01*
X4088000Y1141000D02*
Y1201000D01*
X4258000Y1171000D02*
X4318000D01*
X4288000Y1141000D02*
Y1201000D01*
X3657500Y1171000D02*
X3717500D01*
X3687500Y1141000D02*
Y1201000D01*
X3857500Y1171000D02*
X3917500D01*
X3887500Y1141000D02*
Y1201000D01*
X5184260Y757158D02*
X5235441D01*
X5209850Y731567D02*
Y782748D01*
X4790559Y757158D02*
X4841740D01*
X4816150Y731567D02*
Y782748D01*
X4987409Y257158D02*
X5038591D01*
X5013000Y231567D02*
Y282748D01*
X4790559Y355583D02*
X4841740D01*
X4816150Y329992D02*
Y381173D01*
X5184260Y355583D02*
X5235441D01*
X5209850Y329992D02*
Y381173D01*
X4675260Y757158D02*
X4726441D01*
X4700850Y731567D02*
Y782748D01*
X4281559Y757158D02*
X4332740D01*
X4307150Y731567D02*
Y782748D01*
X4478409Y257158D02*
X4529591D01*
X4504000Y231567D02*
Y282748D01*
X4281559Y355583D02*
X4332740D01*
X4307150Y329992D02*
Y381173D01*
X4675260Y355583D02*
X4726441D01*
X4700850Y329992D02*
Y381173D01*
X4160260Y757158D02*
X4211441D01*
X4185850Y731567D02*
Y782748D01*
X3766559Y757158D02*
X3817740D01*
X3792150Y731567D02*
Y782748D01*
X3963410Y257158D02*
X4014590D01*
X3989000Y231567D02*
Y282748D01*
X3766559Y355583D02*
X3817740D01*
X3792150Y329992D02*
Y381173D01*
X4160260Y355583D02*
X4211441D01*
X4185850Y329992D02*
Y381173D01*
X3649260Y757158D02*
X3700441D01*
X3674850Y731567D02*
Y782748D01*
X3255559Y757158D02*
X3306740D01*
X3281150Y731567D02*
Y782748D01*
X3452410Y257158D02*
X3503590D01*
X3478000Y231567D02*
Y282748D01*
X3255559Y355583D02*
X3306740D01*
X3281150Y329992D02*
Y381173D01*
X3649260Y355583D02*
X3700441D01*
X3674850Y329992D02*
Y381173D01*
X2240500Y3177000D02*
X2279500D01*
X2260000Y3157500D02*
Y3196500D01*
X2340500Y3177000D02*
X2379500D01*
X2360000Y3157500D02*
Y3196500D01*
X2440500Y3177000D02*
X2479500D01*
X2460000Y3157500D02*
Y3196500D01*
X2540500Y3177000D02*
X2579500D01*
X2560000Y3157500D02*
Y3196500D01*
X2955622Y3175000D02*
X2971370D01*
X2963496Y3167126D02*
Y3182874D01*
X2674126Y3175000D02*
X2689874D01*
X2682000Y3167126D02*
Y3182874D01*
X2865071Y3183661D02*
X2882787D01*
X2873929Y3174803D02*
Y3192520D01*
X2839480Y3144291D02*
X2857197D01*
X2848339Y3135433D02*
Y3153149D01*
X2813890Y3183661D02*
X2831606D01*
X2822748Y3174803D02*
Y3192520D01*
X2788299Y3144291D02*
X2806016D01*
X2797157Y3135433D02*
Y3153149D01*
X2762709Y3183661D02*
X2780425D01*
X2771567Y3174803D02*
Y3192520D01*
X3227000Y1211000D02*
X3265000D01*
X3246000Y1192000D02*
Y1230000D01*
X3228000Y1033000D02*
X3266000D01*
X3247000Y1014000D02*
Y1052000D01*
X3478000Y1034000D02*
X3516000D01*
X3497000Y1015000D02*
Y1053000D01*
X3477000Y1211000D02*
X3515000D01*
X3496000Y1192000D02*
Y1230000D01*
X2780500Y2266000D02*
X2811500D01*
X2796000Y2250500D02*
Y2281500D01*
X2580500Y2266000D02*
X2611500D01*
X2596000Y2250500D02*
Y2281500D01*
X5521252Y1584520D02*
X5552748D01*
X5537000Y1568772D02*
Y1600268D01*
X5521252Y1663260D02*
X5552748D01*
X5537000Y1647512D02*
Y1679008D01*
X5521252Y1742000D02*
X5552748D01*
X5537000Y1726252D02*
Y1757748D01*
X5521252Y1820740D02*
X5552748D01*
X5537000Y1804992D02*
Y1836488D01*
X3064500Y981000D02*
X3079500D01*
X3072000Y973500D02*
Y988500D01*
X3214500Y1131000D02*
X3229500D01*
X3222000Y1123500D02*
Y1138500D01*
X3064500Y1131000D02*
X3079500D01*
X3072000Y1123500D02*
Y1138500D01*
X5464500Y2481000D02*
X5479500D01*
X5472000Y2473500D02*
Y2488500D01*
X5464500Y2031000D02*
X5479500D01*
X5472000Y2023500D02*
Y2038500D01*
X5464500Y1881000D02*
X5479500D01*
X5472000Y1873500D02*
Y1888500D01*
X5464500Y1581000D02*
X5479500D01*
X5472000Y1573500D02*
Y1588500D01*
X5464500Y1431000D02*
X5479500D01*
X5472000Y1423500D02*
Y1438500D01*
X5464500Y1281000D02*
X5479500D01*
X5472000Y1273500D02*
Y1288500D01*
X5464500Y981000D02*
X5479500D01*
X5472000Y973500D02*
Y988500D01*
X5314500Y2931000D02*
X5329500D01*
X5322000Y2923500D02*
Y2938500D01*
X5314500Y2781000D02*
X5329500D01*
X5322000Y2773500D02*
Y2788500D01*
X5314500Y2631000D02*
X5329500D01*
X5322000Y2623500D02*
Y2638500D01*
X5314500Y2481000D02*
X5329500D01*
X5322000Y2473500D02*
Y2488500D01*
X5314500Y2331000D02*
X5329500D01*
X5322000Y2323500D02*
Y2338500D01*
X5314500Y2181000D02*
X5329500D01*
X5322000Y2173500D02*
Y2188500D01*
X5314500Y2031000D02*
X5329500D01*
X5322000Y2023500D02*
Y2038500D01*
X5314500Y1881000D02*
X5329500D01*
X5322000Y1873500D02*
Y1888500D01*
X5164500Y2931000D02*
X5179500D01*
X5172000Y2923500D02*
Y2938500D01*
X5164500Y2331000D02*
X5179500D01*
X5172000Y2323500D02*
Y2338500D01*
X5164500Y2031000D02*
X5179500D01*
X5172000Y2023500D02*
Y2038500D01*
X5164500Y1431000D02*
X5179500D01*
X5172000Y1423500D02*
Y1438500D01*
X5164500Y1281000D02*
X5179500D01*
X5172000Y1273500D02*
Y1288500D01*
X5164500Y681000D02*
X5179500D01*
X5172000Y673500D02*
Y688500D01*
X5164500Y531000D02*
X5179500D01*
X5172000Y523500D02*
Y538500D01*
X5164500Y231000D02*
X5179500D01*
X5172000Y223500D02*
Y238500D01*
X5014500Y3081000D02*
X5029500D01*
X5022000Y3073500D02*
Y3088500D01*
X5014500Y2931000D02*
X5029500D01*
X5022000Y2923500D02*
Y2938500D01*
X5014500Y2781000D02*
X5029500D01*
X5022000Y2773500D02*
Y2788500D01*
X5014500Y2631000D02*
X5029500D01*
X5022000Y2623500D02*
Y2638500D01*
X5014500Y2331000D02*
X5029500D01*
X5022000Y2323500D02*
Y2338500D01*
X5014500Y2031000D02*
X5029500D01*
X5022000Y2023500D02*
Y2038500D01*
X5014500Y981000D02*
X5029500D01*
X5022000Y973500D02*
Y988500D01*
X4864500Y2631000D02*
X4879500D01*
X4872000Y2623500D02*
Y2638500D01*
X4864500Y2331000D02*
X4879500D01*
X4872000Y2323500D02*
Y2338500D01*
X4864500Y1431000D02*
X4879500D01*
X4872000Y1423500D02*
Y1438500D01*
X4864500Y831000D02*
X4879500D01*
X4872000Y823500D02*
Y838500D01*
X4864500Y681000D02*
X4879500D01*
X4872000Y673500D02*
Y688500D01*
X4864500Y531000D02*
X4879500D01*
X4872000Y523500D02*
Y538500D01*
X4864500Y381000D02*
X4879500D01*
X4872000Y373500D02*
Y388500D01*
X4864500Y231000D02*
X4879500D01*
X4872000Y223500D02*
Y238500D01*
X4714500Y3081000D02*
X4729500D01*
X4722000Y3073500D02*
Y3088500D01*
X4714500Y2931000D02*
X4729500D01*
X4722000Y2923500D02*
Y2938500D01*
X4714500Y2781000D02*
X4729500D01*
X4722000Y2773500D02*
Y2788500D01*
X4714500Y2631000D02*
X4729500D01*
X4722000Y2623500D02*
Y2638500D01*
X4714500Y2331000D02*
X4729500D01*
X4722000Y2323500D02*
Y2338500D01*
X4714500Y2031000D02*
X4729500D01*
X4722000Y2023500D02*
Y2038500D01*
X4714500Y1881000D02*
X4729500D01*
X4722000Y1873500D02*
Y1888500D01*
X4714500Y1731000D02*
X4729500D01*
X4722000Y1723500D02*
Y1738500D01*
X4714500Y1581000D02*
X4729500D01*
X4722000Y1573500D02*
Y1588500D01*
X4714500Y681000D02*
X4729500D01*
X4722000Y673500D02*
Y688500D01*
X4714500Y531000D02*
X4729500D01*
X4722000Y523500D02*
Y538500D01*
X4714500Y231000D02*
X4729500D01*
X4722000Y223500D02*
Y238500D01*
X4564500Y2931000D02*
X4579500D01*
X4572000Y2923500D02*
Y2938500D01*
X4564500Y2331000D02*
X4579500D01*
X4572000Y2323500D02*
Y2338500D01*
X4564500Y2031000D02*
X4579500D01*
X4572000Y2023500D02*
Y2038500D01*
X4564500Y1881000D02*
X4579500D01*
X4572000Y1873500D02*
Y1888500D01*
X4564500Y1731000D02*
X4579500D01*
X4572000Y1723500D02*
Y1738500D01*
X4564500Y1581000D02*
X4579500D01*
X4572000Y1573500D02*
Y1588500D01*
X4564500Y1281000D02*
X4579500D01*
X4572000Y1273500D02*
Y1288500D01*
X4564500Y381000D02*
X4579500D01*
X4572000Y373500D02*
Y388500D01*
X4564500Y231000D02*
X4579500D01*
X4572000Y223500D02*
Y238500D01*
X4414500Y2931000D02*
X4429500D01*
X4422000Y2923500D02*
Y2938500D01*
X4414500Y2031000D02*
X4429500D01*
X4422000Y2023500D02*
Y2038500D01*
X4414500Y1881000D02*
X4429500D01*
X4422000Y1873500D02*
Y1888500D01*
X4414500Y1731000D02*
X4429500D01*
X4422000Y1723500D02*
Y1738500D01*
X4414500Y1581000D02*
X4429500D01*
X4422000Y1573500D02*
Y1588500D01*
X4414500Y1281000D02*
X4429500D01*
X4422000Y1273500D02*
Y1288500D01*
X4414500Y981000D02*
X4429500D01*
X4422000Y973500D02*
Y988500D01*
X4414500Y831000D02*
X4429500D01*
X4422000Y823500D02*
Y838500D01*
X4414500Y681000D02*
X4429500D01*
X4422000Y673500D02*
Y688500D01*
X4414500Y381000D02*
X4429500D01*
X4422000Y373500D02*
Y388500D01*
X4414500Y231000D02*
X4429500D01*
X4422000Y223500D02*
Y238500D01*
X4264500Y2781000D02*
X4279500D01*
X4272000Y2773500D02*
Y2788500D01*
X4264500Y2631000D02*
X4279500D01*
X4272000Y2623500D02*
Y2638500D01*
X4264500Y2031000D02*
X4279500D01*
X4272000Y2023500D02*
Y2038500D01*
X4264500Y1881000D02*
X4279500D01*
X4272000Y1873500D02*
Y1888500D01*
X4264500Y1731000D02*
X4279500D01*
X4272000Y1723500D02*
Y1738500D01*
X4264500Y1581000D02*
X4279500D01*
X4272000Y1573500D02*
Y1588500D01*
X4264500Y1281000D02*
X4279500D01*
X4272000Y1273500D02*
Y1288500D01*
X4264500Y831000D02*
X4279500D01*
X4272000Y823500D02*
Y838500D01*
X4264500Y681000D02*
X4279500D01*
X4272000Y673500D02*
Y688500D01*
X4264500Y531000D02*
X4279500D01*
X4272000Y523500D02*
Y538500D01*
X4264500Y231000D02*
X4279500D01*
X4272000Y223500D02*
Y238500D01*
X4114500Y2031000D02*
X4129500D01*
X4122000Y2023500D02*
Y2038500D01*
X4114500Y1731000D02*
X4129500D01*
X4122000Y1723500D02*
Y1738500D01*
X4114500Y1581000D02*
X4129500D01*
X4122000Y1573500D02*
Y1588500D01*
X4114500Y1281000D02*
X4129500D01*
X4122000Y1273500D02*
Y1288500D01*
X4114500Y981000D02*
X4129500D01*
X4122000Y973500D02*
Y988500D01*
X4114500Y831000D02*
X4129500D01*
X4122000Y823500D02*
Y838500D01*
X4114500Y681000D02*
X4129500D01*
X4122000Y673500D02*
Y688500D01*
X4114500Y231000D02*
X4129500D01*
X4122000Y223500D02*
Y238500D01*
X3964500Y1881000D02*
X3979500D01*
X3972000Y1873500D02*
Y1888500D01*
X3964500Y1731000D02*
X3979500D01*
X3972000Y1723500D02*
Y1738500D01*
X3964500Y1581000D02*
X3979500D01*
X3972000Y1573500D02*
Y1588500D01*
X3964500Y1281000D02*
X3979500D01*
X3972000Y1273500D02*
Y1288500D01*
X3964500Y1131000D02*
X3979500D01*
X3972000Y1123500D02*
Y1138500D01*
X3964500Y981000D02*
X3979500D01*
X3972000Y973500D02*
Y988500D01*
X3814500Y1281000D02*
X3829500D01*
X3822000Y1273500D02*
Y1288500D01*
X3814500Y831000D02*
X3829500D01*
X3822000Y823500D02*
Y838500D01*
X3814500Y681000D02*
X3829500D01*
X3822000Y673500D02*
Y688500D01*
X3814500Y531000D02*
X3829500D01*
X3822000Y523500D02*
Y538500D01*
X3664500Y2781000D02*
X3679500D01*
X3672000Y2773500D02*
Y2788500D01*
X3664500Y2181000D02*
X3679500D01*
X3672000Y2173500D02*
Y2188500D01*
X3664500Y1281000D02*
X3679500D01*
X3672000Y1273500D02*
Y1288500D01*
X3664500Y681000D02*
X3679500D01*
X3672000Y673500D02*
Y688500D01*
X3664500Y531000D02*
X3679500D01*
X3672000Y523500D02*
Y538500D01*
X3664500Y231000D02*
X3679500D01*
X3672000Y223500D02*
Y238500D01*
X3514500Y2031000D02*
X3529500D01*
X3522000Y2023500D02*
Y2038500D01*
X3514500Y1881000D02*
X3529500D01*
X3522000Y1873500D02*
Y1888500D01*
X3514500Y1581000D02*
X3529500D01*
X3522000Y1573500D02*
Y1588500D01*
X3514500Y1281000D02*
X3529500D01*
X3522000Y1273500D02*
Y1288500D01*
X3514500Y1131000D02*
X3529500D01*
X3522000Y1123500D02*
Y1138500D01*
X3514500Y981000D02*
X3529500D01*
X3522000Y973500D02*
Y988500D01*
X3514500Y381000D02*
X3529500D01*
X3522000Y373500D02*
Y388500D01*
X3364500Y2631000D02*
X3379500D01*
X3372000Y2623500D02*
Y2638500D01*
X3364500Y2481000D02*
X3379500D01*
X3372000Y2473500D02*
Y2488500D01*
X3364500Y2031000D02*
X3379500D01*
X3372000Y2023500D02*
Y2038500D01*
X3364500Y1881000D02*
X3379500D01*
X3372000Y1873500D02*
Y1888500D01*
X3364500Y1131000D02*
X3379500D01*
X3372000Y1123500D02*
Y1138500D01*
X3364500Y981000D02*
X3379500D01*
X3372000Y973500D02*
Y988500D01*
X3364500Y831000D02*
X3379500D01*
X3372000Y823500D02*
Y838500D01*
X3364500Y681000D02*
X3379500D01*
X3372000Y673500D02*
Y688500D01*
X3364500Y381000D02*
X3379500D01*
X3372000Y373500D02*
Y388500D01*
X3364500Y231000D02*
X3379500D01*
X3372000Y223500D02*
Y238500D01*
X3214500Y2931000D02*
X3229500D01*
X3222000Y2923500D02*
Y2938500D01*
X3214500Y2781000D02*
X3229500D01*
X3222000Y2773500D02*
Y2788500D01*
X3214500Y2331000D02*
X3229500D01*
X3222000Y2323500D02*
Y2338500D01*
X3214500Y2031000D02*
X3229500D01*
X3222000Y2023500D02*
Y2038500D01*
X3214500Y981000D02*
X3229500D01*
X3222000Y973500D02*
Y988500D01*
X3214500Y831000D02*
X3229500D01*
X3222000Y823500D02*
Y838500D01*
X3214500Y681000D02*
X3229500D01*
X3222000Y673500D02*
Y688500D01*
X3214500Y531000D02*
X3229500D01*
X3222000Y523500D02*
Y538500D01*
X3214500Y381000D02*
X3229500D01*
X3222000Y373500D02*
Y388500D01*
X3214500Y231000D02*
X3229500D01*
X3222000Y223500D02*
Y238500D01*
X3064500Y3081000D02*
X3079500D01*
X3072000Y3073500D02*
Y3088500D01*
X3064500Y2931000D02*
X3079500D01*
X3072000Y2923500D02*
Y2938500D01*
X3064500Y2331000D02*
X3079500D01*
X3072000Y2323500D02*
Y2338500D01*
X3064500Y2181000D02*
X3079500D01*
X3072000Y2173500D02*
Y2188500D01*
X3064500Y2031000D02*
X3079500D01*
X3072000Y2023500D02*
Y2038500D01*
X3064500Y1581000D02*
X3079500D01*
X3072000Y1573500D02*
Y1588500D01*
X3064500Y681000D02*
X3079500D01*
X3072000Y673500D02*
Y688500D01*
X3064500Y531000D02*
X3079500D01*
X3072000Y523500D02*
Y538500D01*
X3064500Y231000D02*
X3079500D01*
X3072000Y223500D02*
Y238500D01*
X2914500Y3081000D02*
X2929500D01*
X2922000Y3073500D02*
Y3088500D01*
X2914500Y2931000D02*
X2929500D01*
X2922000Y2923500D02*
Y2938500D01*
X2914500Y2631000D02*
X2929500D01*
X2922000Y2623500D02*
Y2638500D01*
X2914500Y2481000D02*
X2929500D01*
X2922000Y2473500D02*
Y2488500D01*
X2914500Y2331000D02*
X2929500D01*
X2922000Y2323500D02*
Y2338500D01*
X2914500Y2181000D02*
X2929500D01*
X2922000Y2173500D02*
Y2188500D01*
X2914500Y2031000D02*
X2929500D01*
X2922000Y2023500D02*
Y2038500D01*
X2914500Y1431000D02*
X2929500D01*
X2922000Y1423500D02*
Y1438500D01*
X2914500Y1281000D02*
X2929500D01*
X2922000Y1273500D02*
Y1288500D01*
X2914500Y1131000D02*
X2929500D01*
X2922000Y1123500D02*
Y1138500D01*
X2914500Y981000D02*
X2929500D01*
X2922000Y973500D02*
Y988500D01*
X2914500Y831000D02*
X2929500D01*
X2922000Y823500D02*
Y838500D01*
X2914500Y681000D02*
X2929500D01*
X2922000Y673500D02*
Y688500D01*
X2914500Y531000D02*
X2929500D01*
X2922000Y523500D02*
Y538500D01*
X2914500Y381000D02*
X2929500D01*
X2922000Y373500D02*
Y388500D01*
X2914500Y231000D02*
X2929500D01*
X2922000Y223500D02*
Y238500D01*
X2764500Y2631000D02*
X2779500D01*
X2772000Y2623500D02*
Y2638500D01*
X2764500Y2481000D02*
X2779500D01*
X2772000Y2473500D02*
Y2488500D01*
X2764500Y2331000D02*
X2779500D01*
X2772000Y2323500D02*
Y2338500D01*
X2764500Y2181000D02*
X2779500D01*
X2772000Y2173500D02*
Y2188500D01*
X2764500Y1281000D02*
X2779500D01*
X2772000Y1273500D02*
Y1288500D01*
X2764500Y1131000D02*
X2779500D01*
X2772000Y1123500D02*
Y1138500D01*
X2764500Y981000D02*
X2779500D01*
X2772000Y973500D02*
Y988500D01*
X2764500Y831000D02*
X2779500D01*
X2772000Y823500D02*
Y838500D01*
X2764500Y681000D02*
X2779500D01*
X2772000Y673500D02*
Y688500D01*
X2764500Y531000D02*
X2779500D01*
X2772000Y523500D02*
Y538500D01*
X2764500Y231000D02*
X2779500D01*
X2772000Y223500D02*
Y238500D01*
X2614500Y3081000D02*
X2629500D01*
X2622000Y3073500D02*
Y3088500D01*
X2614500Y2481000D02*
X2629500D01*
X2622000Y2473500D02*
Y2488500D01*
X2614500Y2331000D02*
X2629500D01*
X2622000Y2323500D02*
Y2338500D01*
X2614500Y2181000D02*
X2629500D01*
X2622000Y2173500D02*
Y2188500D01*
X2614500Y1281000D02*
X2629500D01*
X2622000Y1273500D02*
Y1288500D01*
X2614500Y1131000D02*
X2629500D01*
X2622000Y1123500D02*
Y1138500D01*
X2614500Y681000D02*
X2629500D01*
X2622000Y673500D02*
Y688500D01*
X2614500Y531000D02*
X2629500D01*
X2622000Y523500D02*
Y538500D01*
X2614500Y231000D02*
X2629500D01*
X2622000Y223500D02*
Y238500D01*
X2464500Y2331000D02*
X2479500D01*
X2472000Y2323500D02*
Y2338500D01*
X2464500Y2181000D02*
X2479500D01*
X2472000Y2173500D02*
Y2188500D01*
X2464500Y2031000D02*
X2479500D01*
X2472000Y2023500D02*
Y2038500D01*
X2464500Y1581000D02*
X2479500D01*
X2472000Y1573500D02*
Y1588500D01*
X2464500Y1431000D02*
X2479500D01*
X2472000Y1423500D02*
Y1438500D01*
X2464500Y1281000D02*
X2479500D01*
X2472000Y1273500D02*
Y1288500D01*
X2464500Y981000D02*
X2479500D01*
X2472000Y973500D02*
Y988500D01*
X2464500Y681000D02*
X2479500D01*
X2472000Y673500D02*
Y688500D01*
X2464500Y531000D02*
X2479500D01*
X2472000Y523500D02*
Y538500D01*
X2464500Y231000D02*
X2479500D01*
X2472000Y223500D02*
Y238500D01*
X2314500Y3081000D02*
X2329500D01*
X2322000Y3073500D02*
Y3088500D01*
X2314500Y2331000D02*
X2329500D01*
X2322000Y2323500D02*
Y2338500D01*
X2314500Y2181000D02*
X2329500D01*
X2322000Y2173500D02*
Y2188500D01*
X2314500Y2031000D02*
X2329500D01*
X2322000Y2023500D02*
Y2038500D01*
X2314500Y1731000D02*
X2329500D01*
X2322000Y1723500D02*
Y1738500D01*
X2314500Y1131000D02*
X2329500D01*
X2322000Y1123500D02*
Y1138500D01*
X2314500Y981000D02*
X2329500D01*
X2322000Y973500D02*
Y988500D01*
X2314500Y831000D02*
X2329500D01*
X2322000Y823500D02*
Y838500D01*
X2314500Y681000D02*
X2329500D01*
X2322000Y673500D02*
Y688500D01*
X2314500Y531000D02*
X2329500D01*
X2322000Y523500D02*
Y538500D01*
X2314500Y231000D02*
X2329500D01*
X2322000Y223500D02*
Y238500D01*
X2164500Y3081000D02*
X2179500D01*
X2172000Y3073500D02*
Y3088500D01*
X2164500Y2331000D02*
X2179500D01*
X2172000Y2323500D02*
Y2338500D01*
X2164500Y2181000D02*
X2179500D01*
X2172000Y2173500D02*
Y2188500D01*
X2164500Y2031000D02*
X2179500D01*
X2172000Y2023500D02*
Y2038500D01*
X2164500Y1881000D02*
X2179500D01*
X2172000Y1873500D02*
Y1888500D01*
X2164500Y981000D02*
X2179500D01*
X2172000Y973500D02*
Y988500D01*
X2164500Y831000D02*
X2179500D01*
X2172000Y823500D02*
Y838500D01*
X2164500Y681000D02*
X2179500D01*
X2172000Y673500D02*
Y688500D01*
X2164500Y531000D02*
X2179500D01*
X2172000Y523500D02*
Y538500D01*
X2164500Y231000D02*
X2179500D01*
X2172000Y223500D02*
Y238500D01*
X2014500Y3081000D02*
X2029500D01*
X2022000Y3073500D02*
Y3088500D01*
X2014500Y2931000D02*
X2029500D01*
X2022000Y2923500D02*
Y2938500D01*
X2014500Y2781000D02*
X2029500D01*
X2022000Y2773500D02*
Y2788500D01*
X2014500Y2631000D02*
X2029500D01*
X2022000Y2623500D02*
Y2638500D01*
X2014500Y2481000D02*
X2029500D01*
X2022000Y2473500D02*
Y2488500D01*
X2014500Y2331000D02*
X2029500D01*
X2022000Y2323500D02*
Y2338500D01*
X2014500Y2181000D02*
X2029500D01*
X2022000Y2173500D02*
Y2188500D01*
X2014500Y2031000D02*
X2029500D01*
X2022000Y2023500D02*
Y2038500D01*
X2014500Y1881000D02*
X2029500D01*
X2022000Y1873500D02*
Y1888500D01*
X2014500Y1731000D02*
X2029500D01*
X2022000Y1723500D02*
Y1738500D01*
X2014500Y1431000D02*
X2029500D01*
X2022000Y1423500D02*
Y1438500D01*
X2014500Y1281000D02*
X2029500D01*
X2022000Y1273500D02*
Y1288500D01*
X2014500Y1131000D02*
X2029500D01*
X2022000Y1123500D02*
Y1138500D01*
X2014500Y981000D02*
X2029500D01*
X2022000Y973500D02*
Y988500D01*
X2014500Y831000D02*
X2029500D01*
X2022000Y823500D02*
Y838500D01*
X2014500Y681000D02*
X2029500D01*
X2022000Y673500D02*
Y688500D01*
X2014500Y531000D02*
X2029500D01*
X2022000Y523500D02*
Y538500D01*
X2014500Y231000D02*
X2029500D01*
X2022000Y223500D02*
Y238500D01*
X1864500Y231000D02*
X1879500D01*
X1872000Y223500D02*
Y238500D01*
X1714500Y3081000D02*
X1729500D01*
X1722000Y3073500D02*
Y3088500D01*
X1714500Y2931000D02*
X1729500D01*
X1722000Y2923500D02*
Y2938500D01*
X1714500Y2781000D02*
X1729500D01*
X1722000Y2773500D02*
Y2788500D01*
X1714500Y2631000D02*
X1729500D01*
X1722000Y2623500D02*
Y2638500D01*
X1714500Y2481000D02*
X1729500D01*
X1722000Y2473500D02*
Y2488500D01*
X1714500Y2331000D02*
X1729500D01*
X1722000Y2323500D02*
Y2338500D01*
X1714500Y2181000D02*
X1729500D01*
X1722000Y2173500D02*
Y2188500D01*
X1714500Y2031000D02*
X1729500D01*
X1722000Y2023500D02*
Y2038500D01*
X1714500Y1881000D02*
X1729500D01*
X1722000Y1873500D02*
Y1888500D01*
X1714500Y1581000D02*
X1729500D01*
X1722000Y1573500D02*
Y1588500D01*
X1714500Y1431000D02*
X1729500D01*
X1722000Y1423500D02*
Y1438500D01*
X1714500Y1281000D02*
X1729500D01*
X1722000Y1273500D02*
Y1288500D01*
X1714500Y1131000D02*
X1729500D01*
X1722000Y1123500D02*
Y1138500D01*
X1714500Y981000D02*
X1729500D01*
X1722000Y973500D02*
Y988500D01*
X1714500Y831000D02*
X1729500D01*
X1722000Y823500D02*
Y838500D01*
X1714500Y681000D02*
X1729500D01*
X1722000Y673500D02*
Y688500D01*
X1714500Y531000D02*
X1729500D01*
X1722000Y523500D02*
Y538500D01*
X1714500Y381000D02*
X1729500D01*
X1722000Y373500D02*
Y388500D01*
X1714500Y231000D02*
X1729500D01*
X1722000Y223500D02*
Y238500D01*
X1564500Y2931000D02*
X1579500D01*
X1572000Y2923500D02*
Y2938500D01*
X1564500Y2631000D02*
X1579500D01*
X1572000Y2623500D02*
Y2638500D01*
X1564500Y2481000D02*
X1579500D01*
X1572000Y2473500D02*
Y2488500D01*
X1564500Y2331000D02*
X1579500D01*
X1572000Y2323500D02*
Y2338500D01*
X1564500Y2181000D02*
X1579500D01*
X1572000Y2173500D02*
Y2188500D01*
X1564500Y2031000D02*
X1579500D01*
X1572000Y2023500D02*
Y2038500D01*
X1564500Y1881000D02*
X1579500D01*
X1572000Y1873500D02*
Y1888500D01*
X1564500Y1581000D02*
X1579500D01*
X1572000Y1573500D02*
Y1588500D01*
X1564500Y1431000D02*
X1579500D01*
X1572000Y1423500D02*
Y1438500D01*
X1564500Y1281000D02*
X1579500D01*
X1572000Y1273500D02*
Y1288500D01*
X1564500Y1131000D02*
X1579500D01*
X1572000Y1123500D02*
Y1138500D01*
X1564500Y981000D02*
X1579500D01*
X1572000Y973500D02*
Y988500D01*
X1564500Y831000D02*
X1579500D01*
X1572000Y823500D02*
Y838500D01*
X1564500Y381000D02*
X1579500D01*
X1572000Y373500D02*
Y388500D01*
X1414500Y3081000D02*
X1429500D01*
X1422000Y3073500D02*
Y3088500D01*
X1414500Y2931000D02*
X1429500D01*
X1422000Y2923500D02*
Y2938500D01*
X1414500Y2781000D02*
X1429500D01*
X1422000Y2773500D02*
Y2788500D01*
X1414500Y2631000D02*
X1429500D01*
X1422000Y2623500D02*
Y2638500D01*
X1414500Y2481000D02*
X1429500D01*
X1422000Y2473500D02*
Y2488500D01*
X1414500Y2331000D02*
X1429500D01*
X1422000Y2323500D02*
Y2338500D01*
X1414500Y2181000D02*
X1429500D01*
X1422000Y2173500D02*
Y2188500D01*
X1414500Y2031000D02*
X1429500D01*
X1422000Y2023500D02*
Y2038500D01*
X1414500Y1881000D02*
X1429500D01*
X1422000Y1873500D02*
Y1888500D01*
X1414500Y1581000D02*
X1429500D01*
X1422000Y1573500D02*
Y1588500D01*
X1414500Y1431000D02*
X1429500D01*
X1422000Y1423500D02*
Y1438500D01*
X1414500Y1281000D02*
X1429500D01*
X1422000Y1273500D02*
Y1288500D01*
X1414500Y1131000D02*
X1429500D01*
X1422000Y1123500D02*
Y1138500D01*
X1414500Y981000D02*
X1429500D01*
X1422000Y973500D02*
Y988500D01*
X1414500Y831000D02*
X1429500D01*
X1422000Y823500D02*
Y838500D01*
X1414500Y681000D02*
X1429500D01*
X1422000Y673500D02*
Y688500D01*
X1414500Y531000D02*
X1429500D01*
X1422000Y523500D02*
Y538500D01*
X1414500Y231000D02*
X1429500D01*
X1422000Y223500D02*
Y238500D01*
X1264500Y3081000D02*
X1279500D01*
X1272000Y3073500D02*
Y3088500D01*
X1264500Y2931000D02*
X1279500D01*
X1272000Y2923500D02*
Y2938500D01*
X1264500Y2781000D02*
X1279500D01*
X1272000Y2773500D02*
Y2788500D01*
X1264500Y2631000D02*
X1279500D01*
X1272000Y2623500D02*
Y2638500D01*
X1264500Y2481000D02*
X1279500D01*
X1272000Y2473500D02*
Y2488500D01*
X1264500Y2331000D02*
X1279500D01*
X1272000Y2323500D02*
Y2338500D01*
X1264500Y2181000D02*
X1279500D01*
X1272000Y2173500D02*
Y2188500D01*
X1264500Y2031000D02*
X1279500D01*
X1272000Y2023500D02*
Y2038500D01*
X1264500Y1881000D02*
X1279500D01*
X1272000Y1873500D02*
Y1888500D01*
X1264500Y1581000D02*
X1279500D01*
X1272000Y1573500D02*
Y1588500D01*
X1264500Y1431000D02*
X1279500D01*
X1272000Y1423500D02*
Y1438500D01*
X1264500Y1281000D02*
X1279500D01*
X1272000Y1273500D02*
Y1288500D01*
X1264500Y1131000D02*
X1279500D01*
X1272000Y1123500D02*
Y1138500D01*
X1264500Y981000D02*
X1279500D01*
X1272000Y973500D02*
Y988500D01*
X1264500Y831000D02*
X1279500D01*
X1272000Y823500D02*
Y838500D01*
X1264500Y681000D02*
X1279500D01*
X1272000Y673500D02*
Y688500D01*
X1264500Y381000D02*
X1279500D01*
X1272000Y373500D02*
Y388500D01*
X1264500Y231000D02*
X1279500D01*
X1272000Y223500D02*
Y238500D01*
X1114500Y3081000D02*
X1129500D01*
X1122000Y3073500D02*
Y3088500D01*
X1114500Y2931000D02*
X1129500D01*
X1122000Y2923500D02*
Y2938500D01*
X1114500Y531000D02*
X1129500D01*
X1122000Y523500D02*
Y538500D01*
X1114500Y381000D02*
X1129500D01*
X1122000Y373500D02*
Y388500D01*
X1114500Y231000D02*
X1129500D01*
X1122000Y223500D02*
Y238500D01*
X964500Y3081000D02*
X979500D01*
X972000Y3073500D02*
Y3088500D01*
X964500Y2781000D02*
X979500D01*
X972000Y2773500D02*
Y2788500D01*
X964500Y2631000D02*
X979500D01*
X972000Y2623500D02*
Y2638500D01*
X964500Y2481000D02*
X979500D01*
X972000Y2473500D02*
Y2488500D01*
X964500Y2331000D02*
X979500D01*
X972000Y2323500D02*
Y2338500D01*
X964500Y2181000D02*
X979500D01*
X972000Y2173500D02*
Y2188500D01*
X964500Y2031000D02*
X979500D01*
X972000Y2023500D02*
Y2038500D01*
X964500Y1881000D02*
X979500D01*
X972000Y1873500D02*
Y1888500D01*
X964500Y1581000D02*
X979500D01*
X972000Y1573500D02*
Y1588500D01*
X964500Y1431000D02*
X979500D01*
X972000Y1423500D02*
Y1438500D01*
X964500Y1281000D02*
X979500D01*
X972000Y1273500D02*
Y1288500D01*
X964500Y1131000D02*
X979500D01*
X972000Y1123500D02*
Y1138500D01*
X964500Y981000D02*
X979500D01*
X972000Y973500D02*
Y988500D01*
X964500Y831000D02*
X979500D01*
X972000Y823500D02*
Y838500D01*
X964500Y681000D02*
X979500D01*
X972000Y673500D02*
Y688500D01*
X964500Y531000D02*
X979500D01*
X972000Y523500D02*
Y538500D01*
X964500Y381000D02*
X979500D01*
X972000Y373500D02*
Y388500D01*
X964500Y231000D02*
X979500D01*
X972000Y223500D02*
Y238500D01*
X814500Y2931000D02*
X829500D01*
X822000Y2923500D02*
Y2938500D01*
X814500Y2631000D02*
X829500D01*
X822000Y2623500D02*
Y2638500D01*
X814500Y2481000D02*
X829500D01*
X822000Y2473500D02*
Y2488500D01*
X814500Y2331000D02*
X829500D01*
X822000Y2323500D02*
Y2338500D01*
X814500Y2181000D02*
X829500D01*
X822000Y2173500D02*
Y2188500D01*
X814500Y2031000D02*
X829500D01*
X822000Y2023500D02*
Y2038500D01*
X814500Y1881000D02*
X829500D01*
X822000Y1873500D02*
Y1888500D01*
X814500Y1581000D02*
X829500D01*
X822000Y1573500D02*
Y1588500D01*
X814500Y1431000D02*
X829500D01*
X822000Y1423500D02*
Y1438500D01*
X814500Y1281000D02*
X829500D01*
X822000Y1273500D02*
Y1288500D01*
X814500Y1131000D02*
X829500D01*
X822000Y1123500D02*
Y1138500D01*
X814500Y981000D02*
X829500D01*
X822000Y973500D02*
Y988500D01*
X814500Y831000D02*
X829500D01*
X822000Y823500D02*
Y838500D01*
X814500Y531000D02*
X829500D01*
X822000Y523500D02*
Y538500D01*
X814500Y381000D02*
X829500D01*
X822000Y373500D02*
Y388500D01*
X664500Y3081000D02*
X679500D01*
X672000Y3073500D02*
Y3088500D01*
X664500Y2931000D02*
X679500D01*
X672000Y2923500D02*
Y2938500D01*
X664500Y2781000D02*
X679500D01*
X672000Y2773500D02*
Y2788500D01*
X664500Y2631000D02*
X679500D01*
X672000Y2623500D02*
Y2638500D01*
X664500Y2481000D02*
X679500D01*
X672000Y2473500D02*
Y2488500D01*
X664500Y2331000D02*
X679500D01*
X672000Y2323500D02*
Y2338500D01*
X664500Y2181000D02*
X679500D01*
X672000Y2173500D02*
Y2188500D01*
X664500Y2031000D02*
X679500D01*
X672000Y2023500D02*
Y2038500D01*
X664500Y1881000D02*
X679500D01*
X672000Y1873500D02*
Y1888500D01*
X664500Y1581000D02*
X679500D01*
X672000Y1573500D02*
Y1588500D01*
X664500Y1431000D02*
X679500D01*
X672000Y1423500D02*
Y1438500D01*
X664500Y1281000D02*
X679500D01*
X672000Y1273500D02*
Y1288500D01*
X664500Y1131000D02*
X679500D01*
X672000Y1123500D02*
Y1138500D01*
X664500Y981000D02*
X679500D01*
X672000Y973500D02*
Y988500D01*
X664500Y831000D02*
X679500D01*
X672000Y823500D02*
Y838500D01*
X664500Y681000D02*
X679500D01*
X672000Y673500D02*
Y688500D01*
X664500Y531000D02*
X679500D01*
X672000Y523500D02*
Y538500D01*
X664500Y381000D02*
X679500D01*
X672000Y373500D02*
Y388500D01*
X514500Y3081000D02*
X529500D01*
X522000Y3073500D02*
Y3088500D01*
X514500Y2931000D02*
X529500D01*
X522000Y2923500D02*
Y2938500D01*
X514500Y2781000D02*
X529500D01*
X522000Y2773500D02*
Y2788500D01*
X514500Y2631000D02*
X529500D01*
X522000Y2623500D02*
Y2638500D01*
X514500Y2481000D02*
X529500D01*
X522000Y2473500D02*
Y2488500D01*
X514500Y2331000D02*
X529500D01*
X522000Y2323500D02*
Y2338500D01*
X514500Y2181000D02*
X529500D01*
X522000Y2173500D02*
Y2188500D01*
X514500Y2031000D02*
X529500D01*
X522000Y2023500D02*
Y2038500D01*
X514500Y1881000D02*
X529500D01*
X522000Y1873500D02*
Y1888500D01*
X514500Y1581000D02*
X529500D01*
X522000Y1573500D02*
Y1588500D01*
X514500Y231000D02*
X529500D01*
X522000Y223500D02*
Y238500D01*
X364500Y3081000D02*
X379500D01*
X372000Y3073500D02*
Y3088500D01*
X364500Y2931000D02*
X379500D01*
X372000Y2923500D02*
Y2938500D01*
X364500Y2781000D02*
X379500D01*
X372000Y2773500D02*
Y2788500D01*
X364500Y2631000D02*
X379500D01*
X372000Y2623500D02*
Y2638500D01*
X364500Y2481000D02*
X379500D01*
X372000Y2473500D02*
Y2488500D01*
X364500Y2331000D02*
X379500D01*
X372000Y2323500D02*
Y2338500D01*
X364500Y2181000D02*
X379500D01*
X372000Y2173500D02*
Y2188500D01*
X364500Y2031000D02*
X379500D01*
X372000Y2023500D02*
Y2038500D01*
X364500Y1881000D02*
X379500D01*
X372000Y1873500D02*
Y1888500D01*
X364500Y1431000D02*
X379500D01*
X372000Y1423500D02*
Y1438500D01*
X364500Y1281000D02*
X379500D01*
X372000Y1273500D02*
Y1288500D01*
X364500Y1131000D02*
X379500D01*
X372000Y1123500D02*
Y1138500D01*
X364500Y981000D02*
X379500D01*
X372000Y973500D02*
Y988500D01*
X364500Y831000D02*
X379500D01*
X372000Y823500D02*
Y838500D01*
X364500Y681000D02*
X379500D01*
X372000Y673500D02*
Y688500D01*
X364500Y531000D02*
X379500D01*
X372000Y523500D02*
Y538500D01*
X364500Y381000D02*
X379500D01*
X372000Y373500D02*
Y388500D01*
X364500Y231000D02*
X379500D01*
X372000Y223500D02*
Y238500D01*
X214500Y2481000D02*
X229500D01*
X222000Y2473500D02*
Y2488500D01*
X214500Y2031000D02*
X229500D01*
X222000Y2023500D02*
Y2038500D01*
X214500Y1431000D02*
X229500D01*
X222000Y1423500D02*
Y1438500D01*
X214500Y1281000D02*
X229500D01*
X222000Y1273500D02*
Y1288500D01*
X214500Y981000D02*
X229500D01*
X222000Y973500D02*
Y988500D01*
X64500Y2331000D02*
X79500D01*
X72000Y2323500D02*
Y2338500D01*
X64500Y2181000D02*
X79500D01*
X72000Y2173500D02*
Y2188500D01*
X64500Y2031000D02*
X79500D01*
X72000Y2023500D02*
Y2038500D01*
X64500Y1881000D02*
X79500D01*
X72000Y1873500D02*
Y1888500D01*
X64500Y1731000D02*
X79500D01*
X72000Y1723500D02*
Y1738500D01*
X64500Y1581000D02*
X79500D01*
X72000Y1573500D02*
Y1588500D01*
X64500Y1431000D02*
X79500D01*
X72000Y1423500D02*
Y1438500D01*
X64500Y1281000D02*
X79500D01*
X72000Y1273500D02*
Y1288500D01*
X64500Y1131000D02*
X79500D01*
X72000Y1123500D02*
Y1138500D01*
X64500Y981000D02*
X79500D01*
X72000Y973500D02*
Y988500D01*
X3329500Y3133000D02*
X3344500D01*
X3337000Y3125500D02*
Y3140500D01*
X4971500Y2411000D02*
X4986500D01*
X4979000Y2403500D02*
Y2418500D01*
X4900000Y2412000D02*
X4915000D01*
X4907500Y2404500D02*
Y2419500D01*
X4828500Y2413000D02*
X4843500D01*
X4836000Y2405500D02*
Y2420500D01*
X4900500Y2484000D02*
X4915500D01*
X4908000Y2476500D02*
Y2491500D01*
X4972000Y2483000D02*
X4987000D01*
X4979500Y2475500D02*
Y2490500D01*
X4971000Y2546000D02*
X4986000D01*
X4978500Y2538500D02*
Y2553500D01*
X4899500Y2547000D02*
X4914500D01*
X4907000Y2539500D02*
Y2554500D01*
X4828000Y2548000D02*
X4843000D01*
X4835500Y2540500D02*
Y2555500D01*
X4829000Y2485000D02*
X4844000D01*
X4836500Y2477500D02*
Y2492500D01*
X3417500Y1289000D02*
X3432500D01*
X3425000Y1281500D02*
Y1296500D01*
X3413500Y3041000D02*
X3428500D01*
X3421000Y3033500D02*
Y3048500D01*
X4114500Y2447000D02*
X4129500D01*
X4122000Y2439500D02*
Y2454500D01*
X2827500Y2997000D02*
X2842500D01*
X2835000Y2989500D02*
Y3004500D01*
X2308831Y3000000D02*
X2323831D01*
X2316331Y2992500D02*
Y3007500D01*
X2836500Y1304000D02*
X2851500D01*
X2844000Y1296500D02*
Y1311500D01*
X2897445Y1617055D02*
X2912445D01*
X2904945Y1609555D02*
Y1624555D01*
X2136500Y2942000D02*
X2151500D01*
X2144000Y2934500D02*
Y2949500D01*
X2678500Y2940000D02*
X2693500D01*
X2686000Y2932500D02*
Y2947500D01*
X2758500Y2686000D02*
X2773500D01*
X2766000Y2678500D02*
Y2693500D01*
X2666500Y2686000D02*
X2681500D01*
X2674000Y2678500D02*
Y2693500D01*
X3155500Y1350000D02*
X3170500D01*
X3163000Y1342500D02*
Y1357500D01*
X3611500Y1488000D02*
X3626500D01*
X3619000Y1480500D02*
Y1495500D01*
X3410210Y2920390D02*
X3425210D01*
X3417710Y2912890D02*
Y2927890D01*
X3379500Y3173000D02*
X3394500D01*
X3387000Y3165500D02*
Y3180500D01*
X3379500Y3200342D02*
X3394500D01*
X3387000Y3192842D02*
Y3207842D01*
X4339500Y2532000D02*
X4354500D01*
X4347000Y2524500D02*
Y2539500D01*
X4336776Y2340095D02*
X4351776D01*
X4344276Y2332595D02*
Y2347595D01*
X4935809Y2180309D02*
X4950809D01*
X4943309Y2172809D02*
Y2187809D01*
X4985809Y2180309D02*
X5000809D01*
X4993309Y2172809D02*
Y2187809D01*
X5084500Y2182000D02*
X5099500D01*
X5092000Y2174500D02*
Y2189500D01*
X5035809Y2180309D02*
X5050809D01*
X5043309Y2172809D02*
Y2187809D01*
X4032602Y2237898D02*
X4047602D01*
X4040102Y2230398D02*
Y2245398D01*
X3928500Y2005000D02*
X3943500D01*
X3936000Y1997500D02*
Y2012500D01*
X3963500Y2042000D02*
X3978500D01*
X3971000Y2034500D02*
Y2049500D01*
X3352500Y3184000D02*
X3367500D01*
X3360000Y3176500D02*
Y3191500D01*
X3352500Y3210500D02*
X3367500D01*
X3360000Y3203000D02*
Y3218000D01*
X3379500Y3227683D02*
X3394500D01*
X3387000Y3220183D02*
Y3235183D01*
X3352500Y3237000D02*
X3367500D01*
X3360000Y3229500D02*
Y3244500D01*
X4182602Y1551102D02*
X4197602D01*
X4190102Y1543602D02*
Y1558602D01*
X3207445Y1567055D02*
X3222445D01*
X3214945Y1559555D02*
Y1574555D01*
X2775555Y1712055D02*
X2790555D01*
X2783055Y1704555D02*
Y1719555D01*
X4232602Y1551102D02*
X4247602D01*
X4240102Y1543602D02*
Y1558602D01*
X2664500Y2837000D02*
X2679500D01*
X2672000Y2829500D02*
Y2844500D01*
X2664500Y2787000D02*
X2679500D01*
X2672000Y2779500D02*
Y2794500D01*
X3308500Y1735000D02*
X3323500D01*
X3316000Y1727500D02*
Y1742500D01*
X3832602Y2238102D02*
X3847602D01*
X3840102Y2230602D02*
Y2245602D01*
X2772500Y1863000D02*
X2787500D01*
X2780000Y1855500D02*
Y1870500D01*
X3829500Y1415102D02*
X3844500D01*
X3837000Y1407602D02*
Y1422602D01*
X3982602Y1415102D02*
X3997602D01*
X3990102Y1407602D02*
Y1422602D01*
X4132500Y1421000D02*
X4147500D01*
X4140000Y1413500D02*
Y1428500D01*
X4031500Y1418000D02*
X4046500D01*
X4039000Y1410500D02*
Y1425500D01*
X5085191Y1817000D02*
X5100191D01*
X5092691Y1809500D02*
Y1824500D01*
X5233975Y1430000D02*
X5248975D01*
X5241475Y1422500D02*
Y1437500D01*
X5122642Y1432000D02*
X5137642D01*
X5130142Y1424500D02*
Y1439500D01*
X5012500Y1434000D02*
X5027500D01*
X5020000Y1426500D02*
Y1441500D01*
X4899500Y1435000D02*
X4914500D01*
X4907000Y1427500D02*
Y1442500D01*
X5038500Y1817000D02*
X5053500D01*
X5046000Y1809500D02*
Y1824500D01*
X4938500Y1817000D02*
X4953500D01*
X4946000Y1809500D02*
Y1824500D01*
X4988500Y1817000D02*
X5003500D01*
X4996000Y1809500D02*
Y1824500D01*
X2914965Y2702535D02*
X2929965D01*
X2922465Y2695035D02*
Y2710035D01*
X3042949Y2481551D02*
X3057949D01*
X3050449Y2474051D02*
Y2489051D01*
X2659500Y1470000D02*
X2674500D01*
X2667000Y1462500D02*
Y1477500D01*
X2765468Y1639968D02*
X2780468D01*
X2772968Y1632468D02*
Y1647468D01*
X3006500Y1817000D02*
X3021500D01*
X3014000Y1809500D02*
Y1824500D01*
X159599Y1113480D02*
X285583D01*
X222591Y1050488D02*
Y1176472D01*
X280321Y1046801D02*
X295321D01*
X287821Y1039301D02*
Y1054301D01*
X148321Y1046801D02*
X163321D01*
X155821Y1039301D02*
Y1054301D01*
X149321Y1178801D02*
X164321D01*
X156821Y1171301D02*
Y1186301D01*
X281321Y1179801D02*
X296321D01*
X288821Y1172301D02*
Y1187301D01*
X215091Y1019505D02*
X230091D01*
X222591Y1012005D02*
Y1027005D01*
X215091Y1206801D02*
X230091D01*
X222591Y1199301D02*
Y1214301D01*
X121321Y1114801D02*
X136321D01*
X128821Y1107301D02*
Y1122301D01*
X308321Y1113801D02*
X323321D01*
X315821Y1106301D02*
Y1121301D01*
X159599Y2294583D02*
X285583D01*
X222591Y2231591D02*
Y2357575D01*
X280321Y2227903D02*
X295321D01*
X287821Y2220403D02*
Y2235403D01*
X148321Y2227903D02*
X163321D01*
X155821Y2220403D02*
Y2235403D01*
X149321Y2359903D02*
X164321D01*
X156821Y2352403D02*
Y2367403D01*
X281321Y2360903D02*
X296321D01*
X288821Y2353403D02*
Y2368403D01*
X215091Y2200608D02*
X230091D01*
X222591Y2193108D02*
Y2208108D01*
X215091Y2387903D02*
X230091D01*
X222591Y2380403D02*
Y2395403D01*
X121321Y2295903D02*
X136321D01*
X128821Y2288403D02*
Y2303403D01*
X308321Y2294903D02*
X323321D01*
X315821Y2287403D02*
Y2302403D01*
X5435189Y1113480D02*
X5561173D01*
X5498181Y1050488D02*
Y1176472D01*
X5555911Y1046801D02*
X5570911D01*
X5563411Y1039301D02*
Y1054301D01*
X5423911Y1046801D02*
X5438911D01*
X5431411Y1039301D02*
Y1054301D01*
X5424911Y1178801D02*
X5439911D01*
X5432411Y1171301D02*
Y1186301D01*
X5556911Y1179801D02*
X5571911D01*
X5564411Y1172301D02*
Y1187301D01*
X5490681Y1019505D02*
X5505681D01*
X5498181Y1012005D02*
Y1027005D01*
X5490681Y1206801D02*
X5505681D01*
X5498181Y1199301D02*
Y1214301D01*
X5396911Y1114801D02*
X5411911D01*
X5404411Y1107301D02*
Y1122301D01*
X5583911Y1113801D02*
X5598911D01*
X5591411Y1106301D02*
Y1121301D01*
X5435189Y2294583D02*
X5561173D01*
X5498181Y2231591D02*
Y2357575D01*
X5555911Y2227903D02*
X5570911D01*
X5563411Y2220403D02*
Y2235403D01*
X5423911Y2227903D02*
X5438911D01*
X5431411Y2220403D02*
Y2235403D01*
X5424911Y2359903D02*
X5439911D01*
X5432411Y2352403D02*
Y2367403D01*
X5556911Y2360903D02*
X5571911D01*
X5564411Y2353403D02*
Y2368403D01*
X5490681Y2200608D02*
X5505681D01*
X5498181Y2193108D02*
Y2208108D01*
X5490681Y2387903D02*
X5505681D01*
X5498181Y2380403D02*
Y2395403D01*
X5396911Y2295903D02*
X5411911D01*
X5404411Y2288403D02*
Y2303403D01*
X5583911Y2294903D02*
X5598911D01*
X5591411Y2287403D02*
Y2302403D01*
%TF.MD5,bdf81e62761d6c3adaa3ed938ce43032*%
M02*
