%TF.GenerationSoftware,Altium Limited,Altium Designer,21.3.2 (30)*%
G04 Layer_Color=128*
%FSLAX26Y26*%
%MOIN*%
%TF.SameCoordinates,5CB9DBA1-4DA9-4ED0-9B61-E5D9B39C4D3D*%
%TF.FilePolarity,Positive*%
%TF.FileFunction,Drillmap*%
%TF.Part,Single*%
G01*
G75*
%TA.AperFunction,NonConductor*%
%ADD88C,0.005000*%
D88*
X151378Y1465961D02*
X198622D01*
X175000Y1442339D02*
Y1489583D01*
X151378Y1651000D02*
X198622D01*
X175000Y1627378D02*
Y1674622D01*
X151378Y1836039D02*
X198622D01*
X175000Y1812417D02*
Y1859661D01*
X4756000Y1075000D02*
X4816000D01*
X4786000Y1045000D02*
Y1105000D01*
X4556000Y1075000D02*
X4616000D01*
X4586000Y1045000D02*
Y1105000D01*
X4355667Y1075000D02*
X4415667D01*
X4385667Y1045000D02*
Y1105000D01*
X4155667Y1075000D02*
X4215667D01*
X4185667Y1045000D02*
Y1105000D01*
X3955333Y1075000D02*
X4015333D01*
X3985333Y1045000D02*
Y1105000D01*
X3755333Y1075000D02*
X3815333D01*
X3785333Y1045000D02*
Y1105000D01*
X3555000Y1075000D02*
X3615000D01*
X3585000Y1045000D02*
Y1105000D01*
X3355000Y1075000D02*
X3415000D01*
X3385000Y1045000D02*
Y1105000D01*
X3498317Y2441000D02*
X3537683D01*
X3518000Y2421317D02*
Y2460683D01*
X3598317Y2441000D02*
X3637683D01*
X3618000Y2421317D02*
Y2460683D01*
X3698317Y2441000D02*
X3737683D01*
X3718000Y2421317D02*
Y2460683D01*
X3798317Y2441000D02*
X3837683D01*
X3818000Y2421317D02*
Y2460683D01*
X3898317Y2441000D02*
X3937683D01*
X3918000Y2421317D02*
Y2460683D01*
X2160284Y296449D02*
X2195716D01*
X2178000Y278732D02*
Y314165D01*
X2060284Y296449D02*
X2095716D01*
X2078000Y278732D02*
Y314165D01*
X2056000Y3059000D02*
X2116000D01*
X2086000Y3029000D02*
Y3089000D01*
X2256000Y3059000D02*
X2316000D01*
X2286000Y3029000D02*
Y3089000D01*
X2456000Y3059000D02*
X2516000D01*
X2486000Y3029000D02*
Y3089000D01*
X2656000Y3059000D02*
X2716000D01*
X2686000Y3029000D02*
Y3089000D01*
X2856000Y3059000D02*
X2916000D01*
X2886000Y3029000D02*
Y3089000D01*
X3056000Y3059000D02*
X3116000D01*
X3086000Y3029000D02*
Y3089000D01*
X3256000Y3059000D02*
X3316000D01*
X3286000Y3029000D02*
Y3089000D01*
X735504Y223182D02*
X798496D01*
X767000Y191686D02*
Y254678D01*
X735504Y3093261D02*
X798496D01*
X767000Y3061765D02*
Y3124757D01*
X1495347Y3093261D02*
X1558339D01*
X1526843Y3061765D02*
Y3124757D01*
X1495347Y223182D02*
X1558339D01*
X1526843Y191686D02*
Y254678D01*
X1463851Y569245D02*
X1589835D01*
X1526843Y506253D02*
Y632237D01*
X704008Y569245D02*
X829992D01*
X767000Y506253D02*
Y632237D01*
X1463851Y2759009D02*
X1589835D01*
X1526843Y2696017D02*
Y2822001D01*
X704008Y2759009D02*
X829992D01*
X767000Y2696017D02*
Y2822001D01*
X4224500Y1712000D02*
X4263500D01*
X4244000Y1692500D02*
Y1731500D01*
X4224500Y1812000D02*
X4263500D01*
X4244000Y1792500D02*
Y1831500D01*
X4224500Y1912000D02*
X4263500D01*
X4244000Y1892500D02*
Y1931500D01*
X4224500Y2012000D02*
X4263500D01*
X4244000Y1992500D02*
Y2031500D01*
X3086000Y350000D02*
X3124000D01*
X3105000Y331000D02*
Y369000D01*
X3087000Y173000D02*
X3125000D01*
X3106000Y154000D02*
Y192000D01*
X2837000Y172000D02*
X2875000D01*
X2856000Y153000D02*
Y191000D01*
X2836000Y350000D02*
X2874000D01*
X2855000Y331000D02*
Y369000D01*
X4750593Y658158D02*
X4801774D01*
X4776184Y632567D02*
Y683748D01*
X4356892Y658158D02*
X4408073D01*
X4382483Y632567D02*
Y683748D01*
X4553743Y158157D02*
X4604924D01*
X4579333Y132567D02*
Y183748D01*
X4356892Y256583D02*
X4408073D01*
X4382483Y230992D02*
Y282173D01*
X4750593Y256583D02*
X4801774D01*
X4776184Y230992D02*
Y282173D01*
X3695260Y658158D02*
X3746441D01*
X3720850Y632567D02*
Y683748D01*
X3301559Y658158D02*
X3352740D01*
X3327150Y632567D02*
Y683748D01*
X3498410Y158157D02*
X3549590D01*
X3524000Y132567D02*
Y183748D01*
X3301559Y256583D02*
X3352740D01*
X3327150Y230992D02*
Y282173D01*
X3695260Y256583D02*
X3746441D01*
X3720850Y230992D02*
Y282173D01*
X4222926Y658158D02*
X4274108D01*
X4248517Y632567D02*
Y683748D01*
X3829226Y658158D02*
X3880407D01*
X3854816Y632567D02*
Y683748D01*
X4026076Y158157D02*
X4077257D01*
X4051667Y132567D02*
Y183748D01*
X3829226Y256583D02*
X3880407D01*
X3854816Y230992D02*
Y282173D01*
X4222926Y256583D02*
X4274108D01*
X4248517Y230992D02*
Y282173D01*
X5278260Y658158D02*
X5329441D01*
X5303850Y632567D02*
Y683748D01*
X4884559Y658158D02*
X4935740D01*
X4910149Y632567D02*
Y683748D01*
X5081409Y158157D02*
X5132590D01*
X5107000Y132567D02*
Y183748D01*
X4884559Y256583D02*
X4935740D01*
X4910149Y230992D02*
Y282173D01*
X5278260Y256583D02*
X5329441D01*
X5303850Y230992D02*
Y282173D01*
X5495252Y1534890D02*
X5526748D01*
X5511000Y1519142D02*
Y1550638D01*
X5495252Y1613630D02*
X5526748D01*
X5511000Y1597882D02*
Y1629378D01*
X5495252Y1692370D02*
X5526748D01*
X5511000Y1676622D02*
Y1708118D01*
X5495252Y1771110D02*
X5526748D01*
X5511000Y1755362D02*
Y1786858D01*
X4471434Y2715278D02*
X4486434D01*
X4478934Y2707778D02*
Y2722778D01*
X4836500Y2261000D02*
X4851500D01*
X4844000Y2253500D02*
Y2268500D01*
X4939500Y1450000D02*
X4954500D01*
X4947000Y1442500D02*
Y1457500D01*
X4587500Y2260000D02*
X4602500D01*
X4595000Y2252500D02*
Y2267500D01*
X4637500Y2261000D02*
X4652500D01*
X4645000Y2253500D02*
Y2268500D01*
X5037500Y1440000D02*
X5052500D01*
X5045000Y1432500D02*
Y1447500D01*
X4987500Y1437000D02*
X5002500D01*
X4995000Y1429500D02*
Y1444500D01*
X4537500Y2257000D02*
X4552500D01*
X4545000Y2249500D02*
Y2264500D01*
X4789500Y1450000D02*
X4804500D01*
X4797000Y1442500D02*
Y1457500D01*
X3724500Y1765000D02*
X3739500D01*
X3732000Y1757500D02*
Y1772500D01*
X4637500Y1450000D02*
X4652500D01*
X4645000Y1442500D02*
Y1457500D01*
X3674500Y1765000D02*
X3689500D01*
X3682000Y1757500D02*
Y1772500D01*
X3227500Y2127500D02*
X3242500D01*
X3235000Y2120000D02*
Y2135000D01*
X3774500Y1765000D02*
X3789500D01*
X3782000Y1757500D02*
Y1772500D01*
X4839500Y1450000D02*
X4854500D01*
X4847000Y1442500D02*
Y1457500D01*
X3624500Y1765000D02*
X3639500D01*
X3632000Y1757500D02*
Y1772500D01*
X2642500Y1909000D02*
X2657500D01*
X2650000Y1901500D02*
Y1916500D01*
X2887925Y1747000D02*
X2902925D01*
X2895425Y1739500D02*
Y1754500D01*
X2732606Y1745000D02*
X2747606D01*
X2740106Y1737500D02*
Y1752500D01*
X2901500Y2176000D02*
X2916500D01*
X2909000Y2168500D02*
Y2183500D01*
X2910500Y2027000D02*
X2925500D01*
X2918000Y2019500D02*
Y2034500D01*
X3222500Y1977000D02*
X3237500D01*
X3230000Y1969500D02*
Y1984500D01*
X2221000Y1951000D02*
X2236000D01*
X2228500Y1943500D02*
Y1958500D01*
X2400500Y1952000D02*
X2415500D01*
X2408000Y1944500D02*
Y1959500D01*
X2568500Y1908000D02*
X2583500D01*
X2576000Y1900500D02*
Y1915500D01*
X4399434Y2715278D02*
X4414434D01*
X4406934Y2707778D02*
Y2722778D01*
X4401434Y2661278D02*
X4416434D01*
X4408934Y2653778D02*
Y2668778D01*
X2794500Y1996000D02*
X2809500D01*
X2802000Y1988500D02*
Y2003500D01*
X2799535Y1899965D02*
X2814535D01*
X2807035Y1892465D02*
Y1907465D01*
X3389681Y1586181D02*
X3404681D01*
X3397181Y1578681D02*
Y1593681D01*
X4787500Y2261000D02*
X4802500D01*
X4795000Y2253500D02*
Y2268500D01*
X4399434Y2607278D02*
X4414434D01*
X4406934Y2599778D02*
Y2614778D01*
X4469434Y2609278D02*
X4484434D01*
X4476934Y2601778D02*
Y2616778D01*
X4469434Y2663278D02*
X4484434D01*
X4476934Y2655778D02*
Y2670778D01*
X4432500Y2584000D02*
X4447500D01*
X4440000Y2576500D02*
Y2591500D01*
X4432500Y2634000D02*
X4447500D01*
X4440000Y2626500D02*
Y2641500D01*
X4432500Y2684000D02*
X4447500D01*
X4440000Y2676500D02*
Y2691500D01*
X5135500Y2259000D02*
X5150500D01*
X5143000Y2251500D02*
Y2266500D01*
X5050500Y2618000D02*
X5065500D01*
X5058000Y2610500D02*
Y2625500D01*
X5074500Y2589000D02*
X5089500D01*
X5082000Y2581500D02*
Y2596500D01*
X5050500Y2589000D02*
X5065500D01*
X5058000Y2581500D02*
Y2596500D01*
X3042500Y583000D02*
X3057500D01*
X3050000Y575500D02*
Y590500D01*
X4321500Y1545000D02*
X4336500D01*
X4329000Y1537500D02*
Y1552500D01*
X5074500Y2618000D02*
X5089500D01*
X5082000Y2610500D02*
Y2625500D01*
X5074336Y2562602D02*
X5089336D01*
X5081836Y2555102D02*
Y2570102D01*
X5050336Y2562602D02*
X5065336D01*
X5057836Y2555102D02*
Y2570102D01*
X82500Y1434000D02*
X97500D01*
X90000Y1426500D02*
Y1441500D01*
X232500Y984000D02*
X247500D01*
X240000Y976500D02*
Y991500D01*
X82500Y1584000D02*
X97500D01*
X90000Y1576500D02*
Y1591500D01*
X82500Y1734000D02*
X97500D01*
X90000Y1726500D02*
Y1741500D01*
X82500Y1284000D02*
X97500D01*
X90000Y1276500D02*
Y1291500D01*
X258770Y1123320D02*
X273770D01*
X266270Y1115820D02*
Y1130820D01*
X71770Y1124320D02*
X86770D01*
X79270Y1116820D02*
Y1131820D01*
X165540Y1216320D02*
X180540D01*
X173040Y1208820D02*
Y1223820D01*
X165540Y1029025D02*
X180540D01*
X173040Y1021525D02*
Y1036525D01*
X231770Y1189320D02*
X246770D01*
X239270Y1181820D02*
Y1196820D01*
X99770Y1188320D02*
X114770D01*
X107270Y1180820D02*
Y1195820D01*
X98770Y1056320D02*
X113770D01*
X106270Y1048820D02*
Y1063820D01*
X230770Y1056320D02*
X245770D01*
X238270Y1048820D02*
Y1063820D01*
X5573730Y1123320D02*
X5588730D01*
X5581230Y1115820D02*
Y1130820D01*
X5386730Y1124320D02*
X5401730D01*
X5394230Y1116820D02*
Y1131820D01*
X5480500Y1216320D02*
X5495500D01*
X5488000Y1208820D02*
Y1223820D01*
X5480500Y1029025D02*
X5495500D01*
X5488000Y1021525D02*
Y1036525D01*
X5546730Y1189320D02*
X5561730D01*
X5554230Y1181820D02*
Y1196820D01*
X5414730Y1188320D02*
X5429730D01*
X5422230Y1180820D02*
Y1195820D01*
X5413730Y1056320D02*
X5428730D01*
X5421230Y1048820D02*
Y1063820D01*
X5545730Y1056320D02*
X5560730D01*
X5553230Y1048820D02*
Y1063820D01*
X5573730Y2186312D02*
X5588730D01*
X5581230Y2178812D02*
Y2193812D01*
X982500Y2634000D02*
X997500D01*
X990000Y2626500D02*
Y2641500D01*
X982500Y534000D02*
X997500D01*
X990000Y526500D02*
Y541500D01*
X982500Y1434000D02*
X997500D01*
X990000Y1426500D02*
Y1441500D01*
X1282500Y534000D02*
X1297500D01*
X1290000Y526500D02*
Y541500D01*
X1282500Y834000D02*
X1297500D01*
X1290000Y826500D02*
Y841500D01*
X1132500Y234000D02*
X1147500D01*
X1140000Y226500D02*
Y241500D01*
X832500Y2634000D02*
X847500D01*
X840000Y2626500D02*
Y2641500D01*
X982500Y1284000D02*
X997500D01*
X990000Y1276500D02*
Y1291500D01*
X1282500Y1134000D02*
X1297500D01*
X1290000Y1126500D02*
Y1141500D01*
X832500Y2934000D02*
X847500D01*
X840000Y2926500D02*
Y2941500D01*
X982500Y2484000D02*
X997500D01*
X990000Y2476500D02*
Y2491500D01*
X1282500Y684000D02*
X1297500D01*
X1290000Y676500D02*
Y691500D01*
X832500Y2334000D02*
X847500D01*
X840000Y2326500D02*
Y2341500D01*
X1282500Y984000D02*
X1297500D01*
X1290000Y976500D02*
Y991500D01*
X1282500Y1434000D02*
X1297500D01*
X1290000Y1426500D02*
Y1441500D01*
X982500Y2034000D02*
X997500D01*
X990000Y2026500D02*
Y2041500D01*
X982500Y1884000D02*
X997500D01*
X990000Y1876500D02*
Y1891500D01*
X982500Y2934000D02*
X997500D01*
X990000Y2926500D02*
Y2941500D01*
X832500Y1734000D02*
X847500D01*
X840000Y1726500D02*
Y1741500D01*
X982500Y2184000D02*
X997500D01*
X990000Y2176500D02*
Y2191500D01*
X1132500Y3084000D02*
X1147500D01*
X1140000Y3076500D02*
Y3091500D01*
X982500Y684000D02*
X997500D01*
X990000Y676500D02*
Y691500D01*
X982500Y1134000D02*
X997500D01*
X990000Y1126500D02*
Y1141500D01*
X982500Y834000D02*
X997500D01*
X990000Y826500D02*
Y841500D01*
X982500Y234000D02*
X997500D01*
X990000Y226500D02*
Y241500D01*
X1282500Y384000D02*
X1297500D01*
X1290000Y376500D02*
Y391500D01*
X832500Y1884000D02*
X847500D01*
X840000Y1876500D02*
Y1891500D01*
X832500Y1584000D02*
X847500D01*
X840000Y1576500D02*
Y1591500D01*
X982500Y2334000D02*
X997500D01*
X990000Y2326500D02*
Y2341500D01*
X982500Y984000D02*
X997500D01*
X990000Y976500D02*
Y991500D01*
X982500Y1734000D02*
X997500D01*
X990000Y1726500D02*
Y1741500D01*
X982500Y2784000D02*
X997500D01*
X990000Y2776500D02*
Y2791500D01*
X832500Y2034000D02*
X847500D01*
X840000Y2026500D02*
Y2041500D01*
X832500Y2184000D02*
X847500D01*
X840000Y2176500D02*
Y2191500D01*
X1282500Y1284000D02*
X1297500D01*
X1290000Y1276500D02*
Y1291500D01*
X832500Y2484000D02*
X847500D01*
X840000Y2476500D02*
Y2491500D01*
X982500Y384000D02*
X997500D01*
X990000Y376500D02*
Y391500D01*
X982500Y1584000D02*
X997500D01*
X990000Y1576500D02*
Y1591500D01*
X3832500Y2934000D02*
X3847500D01*
X3840000Y2926500D02*
Y2941500D01*
X3982500Y234000D02*
X3997500D01*
X3990000Y226500D02*
Y241500D01*
X3982500Y534000D02*
X3997500D01*
X3990000Y526500D02*
Y541500D01*
X3982500Y684000D02*
X3997500D01*
X3990000Y676500D02*
Y691500D01*
X3982500Y1434000D02*
X3997500D01*
X3990000Y1426500D02*
Y1441500D01*
X3982500Y1734000D02*
X3997500D01*
X3990000Y1726500D02*
Y1741500D01*
X3982500Y1884000D02*
X3997500D01*
X3990000Y1876500D02*
Y1891500D01*
X3982500Y2184000D02*
X3997500D01*
X3990000Y2176500D02*
Y2191500D01*
X3982500Y2334000D02*
X3997500D01*
X3990000Y2326500D02*
Y2341500D01*
X3982500Y2484000D02*
X3997500D01*
X3990000Y2476500D02*
Y2491500D01*
X3982500Y2784000D02*
X3997500D01*
X3990000Y2776500D02*
Y2791500D01*
X4132500Y234000D02*
X4147500D01*
X4140000Y226500D02*
Y241500D01*
X4132500Y984000D02*
X4147500D01*
X4140000Y976500D02*
Y991500D01*
X4132500Y1434000D02*
X4147500D01*
X4140000Y1426500D02*
Y1441500D01*
X4132500Y1734000D02*
X4147500D01*
X4140000Y1726500D02*
Y1741500D01*
X4132500Y1884000D02*
X4147500D01*
X4140000Y1876500D02*
Y1891500D01*
X4132500Y2484000D02*
X4147500D01*
X4140000Y2476500D02*
Y2491500D01*
X4282500Y384000D02*
X4297500D01*
X4290000Y376500D02*
Y391500D01*
X4132500Y2784000D02*
X4147500D01*
X4140000Y2776500D02*
Y2791500D01*
X4132500Y2184000D02*
X4147500D01*
X4140000Y2176500D02*
Y2191500D01*
X1582500Y1584000D02*
X1597500D01*
X1590000Y1576500D02*
Y1591500D01*
X1582500Y2334000D02*
X1597500D01*
X1590000Y2326500D02*
Y2341500D01*
X1432500Y1134000D02*
X1447500D01*
X1440000Y1126500D02*
Y1141500D01*
X1582500Y2484000D02*
X1597500D01*
X1590000Y2476500D02*
Y2491500D01*
X1732500Y2034000D02*
X1747500D01*
X1740000Y2026500D02*
Y2041500D01*
X1432500Y834000D02*
X1447500D01*
X1440000Y826500D02*
Y841500D01*
X1432500Y2034000D02*
X1447500D01*
X1440000Y2026500D02*
Y2041500D01*
X1732500Y1134000D02*
X1747500D01*
X1740000Y1126500D02*
Y1141500D01*
X1282500Y1584000D02*
X1297500D01*
X1290000Y1576500D02*
Y1591500D01*
X1732500Y2334000D02*
X1747500D01*
X1740000Y2326500D02*
Y2341500D01*
X1732500Y1434000D02*
X1747500D01*
X1740000Y1426500D02*
Y1441500D01*
X1732500Y984000D02*
X1747500D01*
X1740000Y976500D02*
Y991500D01*
X1582500Y384000D02*
X1597500D01*
X1590000Y376500D02*
Y391500D01*
X1732500Y2484000D02*
X1747500D01*
X1740000Y2476500D02*
Y2491500D01*
X1282500Y2034000D02*
X1297500D01*
X1290000Y2026500D02*
Y2041500D01*
X1732500Y1734000D02*
X1747500D01*
X1740000Y1726500D02*
Y1741500D01*
X1732500Y1584000D02*
X1747500D01*
X1740000Y1576500D02*
Y1591500D01*
X1582500Y2034000D02*
X1597500D01*
X1590000Y2026500D02*
Y2041500D01*
X1732500Y384000D02*
X1747500D01*
X1740000Y376500D02*
Y391500D01*
X1582500Y1284000D02*
X1597500D01*
X1590000Y1276500D02*
Y1291500D01*
X1432500Y2334000D02*
X1447500D01*
X1440000Y2326500D02*
Y2341500D01*
X1582500Y984000D02*
X1597500D01*
X1590000Y976500D02*
Y991500D01*
X1282500Y2784000D02*
X1297500D01*
X1290000Y2776500D02*
Y2791500D01*
X1432500Y384000D02*
X1447500D01*
X1440000Y376500D02*
Y391500D01*
X1432500Y2184000D02*
X1447500D01*
X1440000Y2176500D02*
Y2191500D01*
X1582500Y2934000D02*
X1597500D01*
X1590000Y2926500D02*
Y2941500D01*
X1282500Y1734000D02*
X1297500D01*
X1290000Y1726500D02*
Y1741500D01*
X1432500Y2634000D02*
X1447500D01*
X1440000Y2626500D02*
Y2641500D01*
X1432500Y1884000D02*
X1447500D01*
X1440000Y1876500D02*
Y1891500D01*
X1582500Y1434000D02*
X1597500D01*
X1590000Y1426500D02*
Y1441500D01*
X1282500Y2934000D02*
X1297500D01*
X1290000Y2926500D02*
Y2941500D01*
X1432500Y1434000D02*
X1447500D01*
X1440000Y1426500D02*
Y1441500D01*
X1732500Y2784000D02*
X1747500D01*
X1740000Y2776500D02*
Y2791500D01*
X1282500Y2334000D02*
X1297500D01*
X1290000Y2326500D02*
Y2341500D01*
X1732500Y534000D02*
X1747500D01*
X1740000Y526500D02*
Y541500D01*
X1582500Y684000D02*
X1597500D01*
X1590000Y676500D02*
Y691500D01*
X1432500Y1584000D02*
X1447500D01*
X1440000Y1576500D02*
Y1591500D01*
X1432500Y2784000D02*
X1447500D01*
X1440000Y2776500D02*
Y2791500D01*
X1582500Y1134000D02*
X1597500D01*
X1590000Y1126500D02*
Y1141500D01*
X1432500Y1284000D02*
X1447500D01*
X1440000Y1276500D02*
Y1291500D01*
X1282500Y2634000D02*
X1297500D01*
X1290000Y2626500D02*
Y2641500D01*
X1432500Y684000D02*
X1447500D01*
X1440000Y676500D02*
Y691500D01*
X1432500Y984000D02*
X1447500D01*
X1440000Y976500D02*
Y991500D01*
X1432500Y2934000D02*
X1447500D01*
X1440000Y2926500D02*
Y2941500D01*
X1582500Y1884000D02*
X1597500D01*
X1590000Y1876500D02*
Y1891500D01*
X1582500Y2634000D02*
X1597500D01*
X1590000Y2626500D02*
Y2641500D01*
X1432500Y3084000D02*
X1447500D01*
X1440000Y3076500D02*
Y3091500D01*
X1732500Y2184000D02*
X1747500D01*
X1740000Y2176500D02*
Y2191500D01*
X1282500Y1884000D02*
X1297500D01*
X1290000Y1876500D02*
Y1891500D01*
X1432500Y534000D02*
X1447500D01*
X1440000Y526500D02*
Y541500D01*
X1432500Y1734000D02*
X1447500D01*
X1440000Y1726500D02*
Y1741500D01*
X1732500Y234000D02*
X1747500D01*
X1740000Y226500D02*
Y241500D01*
X1732500Y834000D02*
X1747500D01*
X1740000Y826500D02*
Y841500D01*
X1582500Y1734000D02*
X1597500D01*
X1590000Y1726500D02*
Y1741500D01*
X1732500Y1884000D02*
X1747500D01*
X1740000Y1876500D02*
Y1891500D01*
X1282500Y2484000D02*
X1297500D01*
X1290000Y2476500D02*
Y2491500D01*
X1582500Y2184000D02*
X1597500D01*
X1590000Y2176500D02*
Y2191500D01*
X1282500Y3084000D02*
X1297500D01*
X1290000Y3076500D02*
Y3091500D01*
X1732500Y1284000D02*
X1747500D01*
X1740000Y1276500D02*
Y1291500D01*
X1582500Y834000D02*
X1597500D01*
X1590000Y826500D02*
Y841500D01*
X1282500Y2184000D02*
X1297500D01*
X1290000Y2176500D02*
Y2191500D01*
X1432500Y2484000D02*
X1447500D01*
X1440000Y2476500D02*
Y2491500D01*
X1732500Y684000D02*
X1747500D01*
X1740000Y676500D02*
Y691500D01*
X532500Y2634000D02*
X547500D01*
X540000Y2626500D02*
Y2641500D01*
X682500Y2334000D02*
X697500D01*
X690000Y2326500D02*
Y2341500D01*
X682500Y2484000D02*
X697500D01*
X690000Y2476500D02*
Y2491500D01*
X682500Y1734000D02*
X697500D01*
X690000Y1726500D02*
Y1741500D01*
X532500Y2334000D02*
X547500D01*
X540000Y2326500D02*
Y2341500D01*
X682500Y1134000D02*
X697500D01*
X690000Y1126500D02*
Y1141500D01*
X232500Y1284000D02*
X247500D01*
X240000Y1276500D02*
Y1291500D01*
X532500Y2484000D02*
X547500D01*
X540000Y2476500D02*
Y2491500D01*
X832500Y684000D02*
X847500D01*
X840000Y676500D02*
Y691500D01*
X682500Y984000D02*
X697500D01*
X690000Y976500D02*
Y991500D01*
X382500Y234000D02*
X397500D01*
X390000Y226500D02*
Y241500D01*
X532500Y1884000D02*
X547500D01*
X540000Y1876500D02*
Y1891500D01*
X682500Y2034000D02*
X697500D01*
X690000Y2026500D02*
Y2041500D01*
X532500Y3084000D02*
X547500D01*
X540000Y3076500D02*
Y3091500D01*
X382500Y1884000D02*
X397500D01*
X390000Y1876500D02*
Y1891500D01*
X832500Y834000D02*
X847500D01*
X840000Y826500D02*
Y841500D01*
X382500Y2934000D02*
X397500D01*
X390000Y2926500D02*
Y2941500D01*
X682500Y2934000D02*
X697500D01*
X690000Y2926500D02*
Y2941500D01*
X382500Y1134000D02*
X397500D01*
X390000Y1126500D02*
Y1141500D01*
X532500Y2934000D02*
X547500D01*
X540000Y2926500D02*
Y2941500D01*
X682500Y2184000D02*
X697500D01*
X690000Y2176500D02*
Y2191500D01*
X382500Y1734000D02*
X397500D01*
X390000Y1726500D02*
Y1741500D01*
X382500Y834000D02*
X397500D01*
X390000Y826500D02*
Y841500D01*
X532500Y2184000D02*
X547500D01*
X540000Y2176500D02*
Y2191500D01*
X382500Y1284000D02*
X397500D01*
X390000Y1276500D02*
Y1291500D01*
X382500Y984000D02*
X397500D01*
X390000Y976500D02*
Y991500D01*
X832500Y1284000D02*
X847500D01*
X840000Y1276500D02*
Y1291500D01*
X832500Y234000D02*
X847500D01*
X840000Y226500D02*
Y241500D01*
X382500Y684000D02*
X397500D01*
X390000Y676500D02*
Y691500D01*
X682500Y1884000D02*
X697500D01*
X690000Y1876500D02*
Y1891500D01*
X532500Y1584000D02*
X547500D01*
X540000Y1576500D02*
Y1591500D01*
X382500Y2484000D02*
X397500D01*
X390000Y2476500D02*
Y2491500D01*
X232500Y1734000D02*
X247500D01*
X240000Y1726500D02*
Y1741500D01*
X682500Y1584000D02*
X697500D01*
X690000Y1576500D02*
Y1591500D01*
X382500Y2184000D02*
X397500D01*
X390000Y2176500D02*
Y2191500D01*
X682500Y2634000D02*
X697500D01*
X690000Y2626500D02*
Y2641500D01*
X682500Y1434000D02*
X697500D01*
X690000Y1426500D02*
Y1441500D01*
X682500Y3084000D02*
X697500D01*
X690000Y3076500D02*
Y3091500D01*
X382500Y2034000D02*
X397500D01*
X390000Y2026500D02*
Y2041500D01*
X682500Y384000D02*
X697500D01*
X690000Y376500D02*
Y391500D01*
X832500Y384000D02*
X847500D01*
X840000Y376500D02*
Y391500D01*
X382500Y384000D02*
X397500D01*
X390000Y376500D02*
Y391500D01*
X832500Y984000D02*
X847500D01*
X840000Y976500D02*
Y991500D01*
X382500Y534000D02*
X397500D01*
X390000Y526500D02*
Y541500D01*
X682500Y684000D02*
X697500D01*
X690000Y676500D02*
Y691500D01*
X532500Y2784000D02*
X547500D01*
X540000Y2776500D02*
Y2791500D01*
X832500Y1134000D02*
X847500D01*
X840000Y1126500D02*
Y1141500D01*
X682500Y834000D02*
X697500D01*
X690000Y826500D02*
Y841500D01*
X532500Y1734000D02*
X547500D01*
X540000Y1726500D02*
Y1741500D01*
X82500Y2034000D02*
X97500D01*
X90000Y2026500D02*
Y2041500D01*
X382500Y3084000D02*
X397500D01*
X390000Y3076500D02*
Y3091500D01*
X382500Y1584000D02*
X397500D01*
X390000Y1576500D02*
Y1591500D01*
X82500Y2334000D02*
X97500D01*
X90000Y2326500D02*
Y2341500D01*
X382500Y2334000D02*
X397500D01*
X390000Y2326500D02*
Y2341500D01*
X682500Y534000D02*
X697500D01*
X690000Y526500D02*
Y541500D01*
X232500Y1584000D02*
X247500D01*
X240000Y1576500D02*
Y1591500D01*
X532500Y2034000D02*
X547500D01*
X540000Y2026500D02*
Y2041500D01*
X832500Y1434000D02*
X847500D01*
X840000Y1426500D02*
Y1441500D01*
X382500Y2784000D02*
X397500D01*
X390000Y2776500D02*
Y2791500D01*
X232500Y2034000D02*
X247500D01*
X240000Y2026500D02*
Y2041500D01*
X682500Y1284000D02*
X697500D01*
X690000Y1276500D02*
Y1291500D01*
X382500Y2634000D02*
X397500D01*
X390000Y2626500D02*
Y2641500D01*
X232500Y2334000D02*
X247500D01*
X240000Y2326500D02*
Y2341500D01*
X5482500Y2334000D02*
X5497500D01*
X5490000Y2326500D02*
Y2341500D01*
X5482500Y2034000D02*
X5497500D01*
X5490000Y2026500D02*
Y2041500D01*
X5482500Y1884000D02*
X5497500D01*
X5490000Y1876500D02*
Y1891500D01*
X5482500Y1434000D02*
X5497500D01*
X5490000Y1426500D02*
Y1441500D01*
X5482500Y1284000D02*
X5497500D01*
X5490000Y1276500D02*
Y1291500D01*
X5482500Y984000D02*
X5497500D01*
X5490000Y976500D02*
Y991500D01*
X5332500Y3084000D02*
X5347500D01*
X5340000Y3076500D02*
Y3091500D01*
X5332500Y2334000D02*
X5347500D01*
X5340000Y2326500D02*
Y2341500D01*
X5332500Y2184000D02*
X5347500D01*
X5340000Y2176500D02*
Y2191500D01*
X5332500Y2034000D02*
X5347500D01*
X5340000Y2026500D02*
Y2041500D01*
X5332500Y1884000D02*
X5347500D01*
X5340000Y1876500D02*
Y1891500D01*
X5332500Y1734000D02*
X5347500D01*
X5340000Y1726500D02*
Y1741500D01*
X5332500Y1434000D02*
X5347500D01*
X5340000Y1426500D02*
Y1441500D01*
X5332500Y1284000D02*
X5347500D01*
X5340000Y1276500D02*
Y1291500D01*
X5332500Y1134000D02*
X5347500D01*
X5340000Y1126500D02*
Y1141500D01*
X5332500Y984000D02*
X5347500D01*
X5340000Y976500D02*
Y991500D01*
X5332500Y834000D02*
X5347500D01*
X5340000Y826500D02*
Y841500D01*
X5332500Y534000D02*
X5347500D01*
X5340000Y526500D02*
Y541500D01*
X5332500Y384000D02*
X5347500D01*
X5340000Y376500D02*
Y391500D01*
X5182500Y2784000D02*
X5197500D01*
X5190000Y2776500D02*
Y2791500D01*
X5182500Y2634000D02*
X5197500D01*
X5190000Y2626500D02*
Y2641500D01*
X5182500Y2334000D02*
X5197500D01*
X5190000Y2326500D02*
Y2341500D01*
X5182500Y2034000D02*
X5197500D01*
X5190000Y2026500D02*
Y2041500D01*
X5182500Y1884000D02*
X5197500D01*
X5190000Y1876500D02*
Y1891500D01*
X5182500Y1734000D02*
X5197500D01*
X5190000Y1726500D02*
Y1741500D01*
X5182500Y1434000D02*
X5197500D01*
X5190000Y1426500D02*
Y1441500D01*
X5182500Y1284000D02*
X5197500D01*
X5190000Y1276500D02*
Y1291500D01*
X5182500Y1134000D02*
X5197500D01*
X5190000Y1126500D02*
Y1141500D01*
X5182500Y234000D02*
X5197500D01*
X5190000Y226500D02*
Y241500D01*
X5032500Y2784000D02*
X5047500D01*
X5040000Y2776500D02*
Y2791500D01*
X5032500Y2334000D02*
X5047500D01*
X5040000Y2326500D02*
Y2341500D01*
X5032500Y1884000D02*
X5047500D01*
X5040000Y1876500D02*
Y1891500D01*
X5032500Y1284000D02*
X5047500D01*
X5040000Y1276500D02*
Y1291500D01*
X5032500Y1134000D02*
X5047500D01*
X5040000Y1126500D02*
Y1141500D01*
X5032500Y984000D02*
X5047500D01*
X5040000Y976500D02*
Y991500D01*
X4282500Y2184000D02*
X4297500D01*
X4290000Y2176500D02*
Y2191500D01*
X4882500Y534000D02*
X4897500D01*
X4890000Y526500D02*
Y541500D01*
X4732500Y834000D02*
X4747500D01*
X4740000Y826500D02*
Y841500D01*
X4732500Y1884000D02*
X4747500D01*
X4740000Y1876500D02*
Y1891500D01*
X4582500Y1884000D02*
X4597500D01*
X4590000Y1876500D02*
Y1891500D01*
X4432500Y2784000D02*
X4447500D01*
X4440000Y2776500D02*
Y2791500D01*
X4282500Y2784000D02*
X4297500D01*
X4290000Y2776500D02*
Y2791500D01*
X4882500Y984000D02*
X4897500D01*
X4890000Y976500D02*
Y991500D01*
X4732500Y2334000D02*
X4747500D01*
X4740000Y2326500D02*
Y2341500D01*
X4582500Y2634000D02*
X4597500D01*
X4590000Y2626500D02*
Y2641500D01*
X4582500Y984000D02*
X4597500D01*
X4590000Y976500D02*
Y991500D01*
X4432500Y234000D02*
X4447500D01*
X4440000Y226500D02*
Y241500D01*
X5032500Y234000D02*
X5047500D01*
X5040000Y226500D02*
Y241500D01*
X4732500Y2784000D02*
X4747500D01*
X4740000Y2776500D02*
Y2791500D01*
X4582500Y2784000D02*
X4597500D01*
X4590000Y2776500D02*
Y2791500D01*
X4432500Y1434000D02*
X4447500D01*
X4440000Y1426500D02*
Y1441500D01*
X4432500Y534000D02*
X4447500D01*
X4440000Y526500D02*
Y541500D01*
X5032500Y534000D02*
X5047500D01*
X5040000Y526500D02*
Y541500D01*
X4882500Y384000D02*
X4897500D01*
X4890000Y376500D02*
Y391500D01*
X4732500Y384000D02*
X4747500D01*
X4740000Y376500D02*
Y391500D01*
X4432500Y1884000D02*
X4447500D01*
X4440000Y1876500D02*
Y1891500D01*
X4432500Y684000D02*
X4447500D01*
X4440000Y676500D02*
Y691500D01*
X5032500Y684000D02*
X5047500D01*
X5040000Y676500D02*
Y691500D01*
X4732500Y984000D02*
X4747500D01*
X4740000Y976500D02*
Y991500D01*
X4732500Y534000D02*
X4747500D01*
X4740000Y526500D02*
Y541500D01*
X2682556Y2022974D02*
X2697556D01*
X2690056Y2015474D02*
Y2030474D01*
X3232500Y1734000D02*
X3247500D01*
X3240000Y1726500D02*
Y1741500D01*
X3382500Y1884000D02*
X3397500D01*
X3390000Y1876500D02*
Y1891500D01*
X3232500Y2484000D02*
X3247500D01*
X3240000Y2476500D02*
Y2491500D01*
X3232500Y2184000D02*
X3247500D01*
X3240000Y2176500D02*
Y2191500D01*
X3232500Y1284000D02*
X3247500D01*
X3240000Y1276500D02*
Y1291500D01*
X3532500Y1284000D02*
X3547500D01*
X3540000Y1276500D02*
Y1291500D01*
X3232500Y2934000D02*
X3247500D01*
X3240000Y2926500D02*
Y2941500D01*
X3532500Y1434000D02*
X3547500D01*
X3540000Y1426500D02*
Y1441500D01*
X3682500Y534000D02*
X3697500D01*
X3690000Y526500D02*
Y541500D01*
X3532500Y1734000D02*
X3547500D01*
X3540000Y1726500D02*
Y1741500D01*
X3832500Y534000D02*
X3847500D01*
X3840000Y526500D02*
Y541500D01*
X3382500Y2934000D02*
X3397500D01*
X3390000Y2926500D02*
Y2941500D01*
X3682500Y1884000D02*
X3697500D01*
X3690000Y1876500D02*
Y1891500D01*
X3232500Y1134000D02*
X3247500D01*
X3240000Y1126500D02*
Y1141500D01*
X3682500Y2184000D02*
X3697500D01*
X3690000Y2176500D02*
Y2191500D01*
X3382500Y1284000D02*
X3397500D01*
X3390000Y1276500D02*
Y1291500D01*
X3832500Y834000D02*
X3847500D01*
X3840000Y826500D02*
Y841500D01*
X3382500Y234000D02*
X3397500D01*
X3390000Y226500D02*
Y241500D01*
X3682500Y2334000D02*
X3697500D01*
X3690000Y2326500D02*
Y2341500D01*
X3532500Y1884000D02*
X3547500D01*
X3540000Y1876500D02*
Y1891500D01*
X3532500Y984000D02*
X3547500D01*
X3540000Y976500D02*
Y991500D01*
X3832500Y1134000D02*
X3847500D01*
X3840000Y1126500D02*
Y1141500D01*
X3682500Y2784000D02*
X3697500D01*
X3690000Y2776500D02*
Y2791500D01*
X3682500Y2934000D02*
X3697500D01*
X3690000Y2926500D02*
Y2941500D01*
X3232500Y2334000D02*
X3247500D01*
X3240000Y2326500D02*
Y2341500D01*
X3382500Y2784000D02*
X3397500D01*
X3390000Y2776500D02*
Y2791500D01*
X3532500Y2784000D02*
X3547500D01*
X3540000Y2776500D02*
Y2791500D01*
X3532500Y2934000D02*
X3547500D01*
X3540000Y2926500D02*
Y2941500D01*
X3382500Y1434000D02*
X3397500D01*
X3390000Y1426500D02*
Y1441500D01*
X3832500Y1884000D02*
X3847500D01*
X3840000Y1876500D02*
Y1891500D01*
X3382500Y2484000D02*
X3397500D01*
X3390000Y2476500D02*
Y2491500D01*
X3832500Y384000D02*
X3847500D01*
X3840000Y376500D02*
Y391500D01*
X3382500Y2334000D02*
X3397500D01*
X3390000Y2326500D02*
Y2341500D01*
X3832500Y2184000D02*
X3847500D01*
X3840000Y2176500D02*
Y2191500D01*
X3682500Y384000D02*
X3697500D01*
X3690000Y376500D02*
Y391500D01*
X3232500Y2784000D02*
X3247500D01*
X3240000Y2776500D02*
Y2791500D01*
X3382500Y2184000D02*
X3397500D01*
X3390000Y2176500D02*
Y2191500D01*
X3832500Y2784000D02*
X3847500D01*
X3840000Y2776500D02*
Y2791500D01*
X3382500Y1734000D02*
X3397500D01*
X3390000Y1726500D02*
Y1741500D01*
X2482500Y834000D02*
X2497500D01*
X2490000Y826500D02*
Y841500D01*
X2482500Y684000D02*
X2497500D01*
X2490000Y676500D02*
Y691500D01*
X2182500Y234000D02*
X2197500D01*
X2190000Y226500D02*
Y241500D01*
X2332500Y684000D02*
X2347500D01*
X2340000Y676500D02*
Y691500D01*
X2032500Y384000D02*
X2047500D01*
X2040000Y376500D02*
Y391500D01*
X2482500Y2034000D02*
X2497500D01*
X2490000Y2026500D02*
Y2041500D01*
X2482500Y234000D02*
X2497500D01*
X2490000Y226500D02*
Y241500D01*
X2482500Y384000D02*
X2497500D01*
X2490000Y376500D02*
Y391500D01*
X2032500Y1434000D02*
X2047500D01*
X2040000Y1426500D02*
Y1441500D01*
X2482500Y2784000D02*
X2497500D01*
X2490000Y2776500D02*
Y2791500D01*
X2032500Y1584000D02*
X2047500D01*
X2040000Y1576500D02*
Y1591500D01*
X2182500Y834000D02*
X2197500D01*
X2190000Y826500D02*
Y841500D01*
X2482500Y984000D02*
X2497500D01*
X2490000Y976500D02*
Y991500D01*
X2182500Y684000D02*
X2197500D01*
X2190000Y676500D02*
Y691500D01*
X2332500Y984000D02*
X2347500D01*
X2340000Y976500D02*
Y991500D01*
X1882500Y384000D02*
X1897500D01*
X1890000Y376500D02*
Y391500D01*
X2032500Y2034000D02*
X2047500D01*
X2040000Y2026500D02*
Y2041500D01*
X2032500Y1284000D02*
X2047500D01*
X2040000Y1276500D02*
Y1291500D01*
X1732500Y2934000D02*
X1747500D01*
X1740000Y2926500D02*
Y2941500D01*
X2032500Y1134000D02*
X2047500D01*
X2040000Y1126500D02*
Y1141500D01*
X2332500Y2934000D02*
X2347500D01*
X2340000Y2926500D02*
Y2941500D01*
X2182500Y1434000D02*
X2197500D01*
X2190000Y1426500D02*
Y1441500D01*
X2332500Y2034000D02*
X2347500D01*
X2340000Y2026500D02*
Y2041500D01*
X2182500Y2934000D02*
X2197500D01*
X2190000Y2926500D02*
Y2941500D01*
X2482500Y2484000D02*
X2497500D01*
X2490000Y2476500D02*
Y2491500D01*
X2482500Y1584000D02*
X2497500D01*
X2490000Y1576500D02*
Y1591500D01*
X2632500Y234000D02*
X2647500D01*
X2640000Y226500D02*
Y241500D01*
X2332500Y1584000D02*
X2347500D01*
X2340000Y1576500D02*
Y1591500D01*
X2032500Y2334000D02*
X2047500D01*
X2040000Y2326500D02*
Y2341500D01*
X2032500Y684000D02*
X2047500D01*
X2040000Y676500D02*
Y691500D01*
X2182500Y1134000D02*
X2197500D01*
X2190000Y1126500D02*
Y1141500D01*
X2032500Y234000D02*
X2047500D01*
X2040000Y226500D02*
Y241500D01*
X2182500Y984000D02*
X2197500D01*
X2190000Y976500D02*
Y991500D01*
X2482500Y534000D02*
X2497500D01*
X2490000Y526500D02*
Y541500D01*
X2332500Y1734000D02*
X2347500D01*
X2340000Y1726500D02*
Y1741500D01*
X2032500Y2934000D02*
X2047500D01*
X2040000Y2926500D02*
Y2941500D01*
X1732500Y3084000D02*
X1747500D01*
X1740000Y3076500D02*
Y3091500D01*
X1882500Y234000D02*
X1897500D01*
X1890000Y226500D02*
Y241500D01*
X2182500Y3084000D02*
X2197500D01*
X2190000Y3076500D02*
Y3091500D01*
X2482500Y2934000D02*
X2497500D01*
X2490000Y2926500D02*
Y2941500D01*
X2332500Y2484000D02*
X2347500D01*
X2340000Y2476500D02*
Y2491500D01*
X2332500Y1284000D02*
X2347500D01*
X2340000Y1276500D02*
Y1291500D01*
X2032500Y2484000D02*
X2047500D01*
X2040000Y2476500D02*
Y2491500D01*
X2182500Y1584000D02*
X2197500D01*
X2190000Y1576500D02*
Y1591500D01*
X2032500Y2184000D02*
X2047500D01*
X2040000Y2176500D02*
Y2191500D01*
X2332500Y384000D02*
X2347500D01*
X2340000Y376500D02*
Y391500D01*
X2482500Y1134000D02*
X2497500D01*
X2490000Y1126500D02*
Y1141500D01*
X2482500Y1284000D02*
X2497500D01*
X2490000Y1276500D02*
Y1291500D01*
X2482500Y1434000D02*
X2497500D01*
X2490000Y1426500D02*
Y1441500D01*
X2032500Y2784000D02*
X2047500D01*
X2040000Y2776500D02*
Y2791500D01*
X2032500Y984000D02*
X2047500D01*
X2040000Y976500D02*
Y991500D01*
X2182500Y1284000D02*
X2197500D01*
X2190000Y1276500D02*
Y1291500D01*
X2332500Y1134000D02*
X2347500D01*
X2340000Y1126500D02*
Y1141500D01*
X2182500Y534000D02*
X2197500D01*
X2190000Y526500D02*
Y541500D01*
X2032500Y1734000D02*
X2047500D01*
X2040000Y1726500D02*
Y1741500D01*
X2332500Y834000D02*
X2347500D01*
X2340000Y826500D02*
Y841500D01*
X2032500Y534000D02*
X2047500D01*
X2040000Y526500D02*
Y541500D01*
X2332500Y534000D02*
X2347500D01*
X2340000Y526500D02*
Y541500D01*
X2332500Y1434000D02*
X2347500D01*
X2340000Y1426500D02*
Y1441500D01*
X2332500Y234000D02*
X2347500D01*
X2340000Y226500D02*
Y241500D01*
X2032500Y834000D02*
X2047500D01*
X2040000Y826500D02*
Y841500D01*
X2032500Y1884000D02*
X2047500D01*
X2040000Y1876500D02*
Y1891500D01*
X2632500Y534000D02*
X2647500D01*
X2640000Y526500D02*
Y541500D01*
X2782500Y534000D02*
X2797500D01*
X2790000Y526500D02*
Y541500D01*
X2632500Y2934000D02*
X2647500D01*
X2640000Y2926500D02*
Y2941500D01*
X3082500Y2784000D02*
X3097500D01*
X3090000Y2776500D02*
Y2791500D01*
X2632500Y2184000D02*
X2647500D01*
X2640000Y2176500D02*
Y2191500D01*
X2632500Y384000D02*
X2647500D01*
X2640000Y376500D02*
Y391500D01*
X2632500Y1284000D02*
X2647500D01*
X2640000Y1276500D02*
Y1291500D01*
X3232500Y684000D02*
X3247500D01*
X3240000Y676500D02*
Y691500D01*
X2782500Y1134000D02*
X2797500D01*
X2790000Y1126500D02*
Y1141500D01*
X2782500Y834000D02*
X2797500D01*
X2790000Y826500D02*
Y841500D01*
X2632500Y2784000D02*
X2647500D01*
X2640000Y2776500D02*
Y2791500D01*
X2932500Y1134000D02*
X2947500D01*
X2940000Y1126500D02*
Y1141500D01*
X2782500Y2784000D02*
X2797500D01*
X2790000Y2776500D02*
Y2791500D01*
X3082500Y234000D02*
X3097500D01*
X3090000Y226500D02*
Y241500D01*
X2782500Y384000D02*
X2797500D01*
X2790000Y376500D02*
Y391500D01*
X3232500Y384000D02*
X3247500D01*
X3240000Y376500D02*
Y391500D01*
X2782500Y3084000D02*
X2797500D01*
X2790000Y3076500D02*
Y3091500D01*
X2782500Y2334000D02*
X2797500D01*
X2790000Y2326500D02*
Y2341500D01*
X2782500Y234000D02*
X2797500D01*
X2790000Y226500D02*
Y241500D01*
X3232500Y834000D02*
X3247500D01*
X3240000Y826500D02*
Y841500D01*
X2932500Y834000D02*
X2947500D01*
X2940000Y826500D02*
Y841500D01*
X2932500Y1734000D02*
X2947500D01*
X2940000Y1726500D02*
Y1741500D01*
X2932500Y684000D02*
X2947500D01*
X2940000Y676500D02*
Y691500D01*
X2632500Y1134000D02*
X2647500D01*
X2640000Y1126500D02*
Y1141500D01*
X2632500Y2334000D02*
X2647500D01*
X2640000Y2326500D02*
Y2341500D01*
X2632500Y834000D02*
X2647500D01*
X2640000Y826500D02*
Y841500D01*
X2632500Y984000D02*
X2647500D01*
X2640000Y976500D02*
Y991500D01*
X2932500Y234000D02*
X2947500D01*
X2940000Y226500D02*
Y241500D01*
X2932500Y384000D02*
X2947500D01*
X2940000Y376500D02*
Y391500D01*
X3082500Y2484000D02*
X3097500D01*
X3090000Y2476500D02*
Y2491500D01*
X2932500Y1284000D02*
X2947500D01*
X2940000Y1276500D02*
Y1291500D01*
X3232500Y984000D02*
X3247500D01*
X3240000Y976500D02*
Y991500D01*
X2632500Y2484000D02*
X2647500D01*
X2640000Y2476500D02*
Y2491500D01*
X2932500Y2784000D02*
X2947500D01*
X2940000Y2776500D02*
Y2791500D01*
X3232500Y234000D02*
X3247500D01*
X3240000Y226500D02*
Y241500D01*
X2932500Y2484000D02*
X2947500D01*
X2940000Y2476500D02*
Y2491500D01*
X2782500Y1434000D02*
X2797500D01*
X2790000Y1426500D02*
Y1441500D01*
X2932500Y2334000D02*
X2947500D01*
X2940000Y2326500D02*
Y2341500D01*
X2782500Y1284000D02*
X2797500D01*
X2790000Y1276500D02*
Y1291500D01*
X3232500Y534000D02*
X3247500D01*
X3240000Y526500D02*
Y541500D01*
X2632500Y684000D02*
X2647500D01*
X2640000Y676500D02*
Y691500D01*
X2932500Y534000D02*
X2947500D01*
X2940000Y526500D02*
Y541500D01*
X2932500Y1584000D02*
X2947500D01*
X2940000Y1576500D02*
Y1591500D01*
X2782500Y684000D02*
X2797500D01*
X2790000Y676500D02*
Y691500D01*
X2932500Y1434000D02*
X2947500D01*
X2940000Y1426500D02*
Y1441500D01*
X2782500Y2484000D02*
X2797500D01*
X2790000Y2476500D02*
Y2491500D01*
X2932500Y984000D02*
X2947500D01*
X2940000Y976500D02*
Y991500D01*
X2932500Y2934000D02*
X2947500D01*
X2940000Y2926500D02*
Y2941500D01*
X3082500Y2334000D02*
X3097500D01*
X3090000Y2326500D02*
Y2341500D01*
X3082500Y2934000D02*
X3097500D01*
X3090000Y2926500D02*
Y2941500D01*
X2782500Y2934000D02*
X2797500D01*
X2790000Y2926500D02*
Y2941500D01*
X2782500Y1584000D02*
X2797500D01*
X2790000Y1576500D02*
Y1591500D01*
X2782500Y984000D02*
X2797500D01*
X2790000Y976500D02*
Y991500D01*
X5386730Y2187312D02*
X5401730D01*
X5394230Y2179812D02*
Y2194812D01*
X5480500Y2279312D02*
X5495500D01*
X5488000Y2271812D02*
Y2286812D01*
X5480500Y2092017D02*
X5495500D01*
X5488000Y2084517D02*
Y2099517D01*
X5546730Y2252312D02*
X5561730D01*
X5554230Y2244812D02*
Y2259812D01*
X5414730Y2251312D02*
X5429730D01*
X5422230Y2243812D02*
Y2258812D01*
X5413730Y2119312D02*
X5428730D01*
X5421230Y2111812D02*
Y2126812D01*
X5545730Y2119312D02*
X5560730D01*
X5553230Y2111812D02*
Y2126812D01*
X258770Y2186312D02*
X273770D01*
X266270Y2178812D02*
Y2193812D01*
X71770Y2187312D02*
X86770D01*
X79270Y2179812D02*
Y2194812D01*
X165540Y2279312D02*
X180540D01*
X173040Y2271812D02*
Y2286812D01*
X165540Y2092017D02*
X180540D01*
X173040Y2084517D02*
Y2099517D01*
X231770Y2252312D02*
X246770D01*
X239270Y2244812D02*
Y2259812D01*
X99770Y2251312D02*
X114770D01*
X107270Y2243812D02*
Y2258812D01*
X98770Y2119312D02*
X113770D01*
X106270Y2111812D02*
Y2126812D01*
X230770Y2119312D02*
X245770D01*
X238270Y2111812D02*
Y2126812D01*
X82500Y984000D02*
X97500D01*
X90000Y976500D02*
Y991500D01*
X82500Y1884000D02*
X97500D01*
X90000Y1876500D02*
Y1891500D01*
X4282500Y534000D02*
X4297500D01*
X4290000Y526500D02*
Y541500D01*
X4282500Y1434000D02*
X4297500D01*
X4290000Y1426500D02*
Y1441500D01*
X4282500Y1134000D02*
X4297500D01*
X4290000Y1126500D02*
Y1141500D01*
X4282500Y834000D02*
X4297500D01*
X4290000Y826500D02*
Y841500D01*
X110047Y2185992D02*
X236031D01*
X173039Y2123000D02*
Y2248984D01*
X5425008Y2185992D02*
X5550992D01*
X5488000Y2123000D02*
Y2248984D01*
X5425008Y1123000D02*
X5550992D01*
X5488000Y1060008D02*
Y1185992D01*
X110047Y1123000D02*
X236031D01*
X173039Y1060008D02*
Y1185992D01*
%TF.MD5,74a438e7bd27078bbc07760680d4c871*%
M02*
