%TF.GenerationSoftware,Altium Limited,Altium Designer,21.3.2 (30)*%
G04 Layer_Color=8421504*
%FSLAX26Y26*%
%MOIN*%
%TF.SameCoordinates,FFAA3912-E1DC-4B59-95C2-56FC1F4E7B50*%
%TF.FilePolarity,Positive*%
%TF.FileFunction,Paste,Top*%
%TF.Part,Single*%
G01*
G75*
%TA.AperFunction,SMDPad,CuDef*%
%ADD10R,0.220472X0.165354*%
%ADD11R,0.216535X0.088583*%
G04:AMPARAMS|DCode=12|XSize=23.622mil|YSize=47.244mil|CornerRadius=5.906mil|HoleSize=0mil|Usage=FLASHONLY|Rotation=90.000|XOffset=0mil|YOffset=0mil|HoleType=Round|Shape=RoundedRectangle|*
%AMROUNDEDRECTD12*
21,1,0.023622,0.035433,0,0,90.0*
21,1,0.011811,0.047244,0,0,90.0*
1,1,0.011811,0.017717,0.005906*
1,1,0.011811,0.017717,-0.005906*
1,1,0.011811,-0.017717,-0.005906*
1,1,0.011811,-0.017717,0.005906*
%
%ADD12ROUNDEDRECTD12*%
G04:AMPARAMS|DCode=13|XSize=31.496mil|YSize=47.244mil|CornerRadius=7.874mil|HoleSize=0mil|Usage=FLASHONLY|Rotation=90.000|XOffset=0mil|YOffset=0mil|HoleType=Round|Shape=RoundedRectangle|*
%AMROUNDEDRECTD13*
21,1,0.031496,0.031496,0,0,90.0*
21,1,0.015748,0.047244,0,0,90.0*
1,1,0.015748,0.015748,0.007874*
1,1,0.015748,0.015748,-0.007874*
1,1,0.015748,-0.015748,-0.007874*
1,1,0.015748,-0.015748,0.007874*
%
%ADD13ROUNDEDRECTD13*%
%ADD14O,0.059843X0.031496*%
G04:AMPARAMS|DCode=15|XSize=31.496mil|YSize=59.843mil|CornerRadius=7.874mil|HoleSize=0mil|Usage=FLASHONLY|Rotation=90.000|XOffset=0mil|YOffset=0mil|HoleType=Round|Shape=RoundedRectangle|*
%AMROUNDEDRECTD15*
21,1,0.031496,0.044094,0,0,90.0*
21,1,0.015748,0.059843,0,0,90.0*
1,1,0.015748,0.022047,0.007874*
1,1,0.015748,0.022047,-0.007874*
1,1,0.015748,-0.022047,-0.007874*
1,1,0.015748,-0.022047,0.007874*
%
%ADD15ROUNDEDRECTD15*%
%ADD16R,0.051181X0.061024*%
G04:AMPARAMS|DCode=17|XSize=47.244mil|YSize=35.433mil|CornerRadius=8.858mil|HoleSize=0mil|Usage=FLASHONLY|Rotation=180.000|XOffset=0mil|YOffset=0mil|HoleType=Round|Shape=RoundedRectangle|*
%AMROUNDEDRECTD17*
21,1,0.047244,0.017717,0,0,180.0*
21,1,0.029528,0.035433,0,0,180.0*
1,1,0.017716,-0.014764,0.008858*
1,1,0.017716,0.014764,0.008858*
1,1,0.017716,0.014764,-0.008858*
1,1,0.017716,-0.014764,-0.008858*
%
%ADD17ROUNDEDRECTD17*%
G04:AMPARAMS|DCode=18|XSize=47.244mil|YSize=35.433mil|CornerRadius=8.858mil|HoleSize=0mil|Usage=FLASHONLY|Rotation=270.000|XOffset=0mil|YOffset=0mil|HoleType=Round|Shape=RoundedRectangle|*
%AMROUNDEDRECTD18*
21,1,0.047244,0.017717,0,0,270.0*
21,1,0.029528,0.035433,0,0,270.0*
1,1,0.017716,-0.008858,-0.014764*
1,1,0.017716,-0.008858,0.014764*
1,1,0.017716,0.008858,0.014764*
1,1,0.017716,0.008858,-0.014764*
%
%ADD18ROUNDEDRECTD18*%
G04:AMPARAMS|DCode=19|XSize=62.992mil|YSize=41.339mil|CornerRadius=10.335mil|HoleSize=0mil|Usage=FLASHONLY|Rotation=180.000|XOffset=0mil|YOffset=0mil|HoleType=Round|Shape=RoundedRectangle|*
%AMROUNDEDRECTD19*
21,1,0.062992,0.020669,0,0,180.0*
21,1,0.042323,0.041339,0,0,180.0*
1,1,0.020669,-0.021162,0.010335*
1,1,0.020669,0.021162,0.010335*
1,1,0.020669,0.021162,-0.010335*
1,1,0.020669,-0.021162,-0.010335*
%
%ADD19ROUNDEDRECTD19*%
G04:AMPARAMS|DCode=20|XSize=135.827mil|YSize=62.992mil|CornerRadius=15.748mil|HoleSize=0mil|Usage=FLASHONLY|Rotation=0.000|XOffset=0mil|YOffset=0mil|HoleType=Round|Shape=RoundedRectangle|*
%AMROUNDEDRECTD20*
21,1,0.135827,0.031496,0,0,0.0*
21,1,0.104331,0.062992,0,0,0.0*
1,1,0.031496,0.052165,-0.015748*
1,1,0.031496,-0.052165,-0.015748*
1,1,0.031496,-0.052165,0.015748*
1,1,0.031496,0.052165,0.015748*
%
%ADD20ROUNDEDRECTD20*%
G04:AMPARAMS|DCode=21|XSize=94.488mil|YSize=82.677mil|CornerRadius=20.669mil|HoleSize=0mil|Usage=FLASHONLY|Rotation=0.000|XOffset=0mil|YOffset=0mil|HoleType=Round|Shape=RoundedRectangle|*
%AMROUNDEDRECTD21*
21,1,0.094488,0.041339,0,0,0.0*
21,1,0.053150,0.082677,0,0,0.0*
1,1,0.041339,0.026575,-0.020669*
1,1,0.041339,-0.026575,-0.020669*
1,1,0.041339,-0.026575,0.020669*
1,1,0.041339,0.026575,0.020669*
%
%ADD21ROUNDEDRECTD21*%
G04:AMPARAMS|DCode=22|XSize=78.74mil|YSize=78.74mil|CornerRadius=19.685mil|HoleSize=0mil|Usage=FLASHONLY|Rotation=270.000|XOffset=0mil|YOffset=0mil|HoleType=Round|Shape=RoundedRectangle|*
%AMROUNDEDRECTD22*
21,1,0.078740,0.039370,0,0,270.0*
21,1,0.039370,0.078740,0,0,270.0*
1,1,0.039370,-0.019685,-0.019685*
1,1,0.039370,-0.019685,0.019685*
1,1,0.039370,0.019685,0.019685*
1,1,0.039370,0.019685,-0.019685*
%
%ADD22ROUNDEDRECTD22*%
G04:AMPARAMS|DCode=23|XSize=59.055mil|YSize=55.118mil|CornerRadius=13.78mil|HoleSize=0mil|Usage=FLASHONLY|Rotation=0.000|XOffset=0mil|YOffset=0mil|HoleType=Round|Shape=RoundedRectangle|*
%AMROUNDEDRECTD23*
21,1,0.059055,0.027559,0,0,0.0*
21,1,0.031496,0.055118,0,0,0.0*
1,1,0.027559,0.015748,-0.013780*
1,1,0.027559,-0.015748,-0.013780*
1,1,0.027559,-0.015748,0.013780*
1,1,0.027559,0.015748,0.013780*
%
%ADD23ROUNDEDRECTD23*%
%ADD24R,0.035433X0.059055*%
%ADD25R,0.059055X0.035433*%
%TA.AperFunction,BGAPad,CuDef*%
%ADD26R,0.035433X0.035433*%
%TA.AperFunction,SMDPad,CuDef*%
G04:AMPARAMS|DCode=27|XSize=125.984mil|YSize=62.992mil|CornerRadius=15.748mil|HoleSize=0mil|Usage=FLASHONLY|Rotation=90.000|XOffset=0mil|YOffset=0mil|HoleType=Round|Shape=RoundedRectangle|*
%AMROUNDEDRECTD27*
21,1,0.125984,0.031496,0,0,90.0*
21,1,0.094488,0.062992,0,0,90.0*
1,1,0.031496,0.015748,0.047244*
1,1,0.031496,0.015748,-0.047244*
1,1,0.031496,-0.015748,-0.047244*
1,1,0.031496,-0.015748,0.047244*
%
%ADD27ROUNDEDRECTD27*%
G04:AMPARAMS|DCode=28|XSize=161.417mil|YSize=78.74mil|CornerRadius=19.685mil|HoleSize=0mil|Usage=FLASHONLY|Rotation=0.000|XOffset=0mil|YOffset=0mil|HoleType=Round|Shape=RoundedRectangle|*
%AMROUNDEDRECTD28*
21,1,0.161417,0.039370,0,0,0.0*
21,1,0.122047,0.078740,0,0,0.0*
1,1,0.039370,0.061024,-0.019685*
1,1,0.039370,-0.061024,-0.019685*
1,1,0.039370,-0.061024,0.019685*
1,1,0.039370,0.061024,0.019685*
%
%ADD28ROUNDEDRECTD28*%
G04:AMPARAMS|DCode=29|XSize=397.638mil|YSize=358.268mil|CornerRadius=89.567mil|HoleSize=0mil|Usage=FLASHONLY|Rotation=180.000|XOffset=0mil|YOffset=0mil|HoleType=Round|Shape=RoundedRectangle|*
%AMROUNDEDRECTD29*
21,1,0.397638,0.179134,0,0,180.0*
21,1,0.218504,0.358268,0,0,180.0*
1,1,0.179134,-0.109252,0.089567*
1,1,0.179134,0.109252,0.089567*
1,1,0.179134,0.109252,-0.089567*
1,1,0.179134,-0.109252,-0.089567*
%
%ADD29ROUNDEDRECTD29*%
G04:AMPARAMS|DCode=30|XSize=43.307mil|YSize=127.953mil|CornerRadius=10.827mil|HoleSize=0mil|Usage=FLASHONLY|Rotation=180.000|XOffset=0mil|YOffset=0mil|HoleType=Round|Shape=RoundedRectangle|*
%AMROUNDEDRECTD30*
21,1,0.043307,0.106299,0,0,180.0*
21,1,0.021654,0.127953,0,0,180.0*
1,1,0.021654,-0.010827,0.053150*
1,1,0.021654,0.010827,0.053150*
1,1,0.021654,0.010827,-0.053150*
1,1,0.021654,-0.010827,-0.053150*
%
%ADD30ROUNDEDRECTD30*%
G04:AMPARAMS|DCode=31|XSize=31.496mil|YSize=35.433mil|CornerRadius=7.874mil|HoleSize=0mil|Usage=FLASHONLY|Rotation=90.000|XOffset=0mil|YOffset=0mil|HoleType=Round|Shape=RoundedRectangle|*
%AMROUNDEDRECTD31*
21,1,0.031496,0.019685,0,0,90.0*
21,1,0.015748,0.035433,0,0,90.0*
1,1,0.015748,0.009843,0.007874*
1,1,0.015748,0.009843,-0.007874*
1,1,0.015748,-0.009843,-0.007874*
1,1,0.015748,-0.009843,0.007874*
%
%ADD31ROUNDEDRECTD31*%
G04:AMPARAMS|DCode=32|XSize=31.496mil|YSize=39.37mil|CornerRadius=7.874mil|HoleSize=0mil|Usage=FLASHONLY|Rotation=90.000|XOffset=0mil|YOffset=0mil|HoleType=Round|Shape=RoundedRectangle|*
%AMROUNDEDRECTD32*
21,1,0.031496,0.023622,0,0,90.0*
21,1,0.015748,0.039370,0,0,90.0*
1,1,0.015748,0.011811,0.007874*
1,1,0.015748,0.011811,-0.007874*
1,1,0.015748,-0.011811,-0.007874*
1,1,0.015748,-0.011811,0.007874*
%
%ADD32ROUNDEDRECTD32*%
G04:AMPARAMS|DCode=33|XSize=78.74mil|YSize=78.74mil|CornerRadius=19.685mil|HoleSize=0mil|Usage=FLASHONLY|Rotation=180.000|XOffset=0mil|YOffset=0mil|HoleType=Round|Shape=RoundedRectangle|*
%AMROUNDEDRECTD33*
21,1,0.078740,0.039370,0,0,180.0*
21,1,0.039370,0.078740,0,0,180.0*
1,1,0.039370,-0.019685,0.019685*
1,1,0.039370,0.019685,0.019685*
1,1,0.039370,0.019685,-0.019685*
1,1,0.039370,-0.019685,-0.019685*
%
%ADD33ROUNDEDRECTD33*%
%ADD34R,0.011811X0.007874*%
%ADD35R,0.055118X0.138189*%
G04:AMPARAMS|DCode=36|XSize=31.496mil|YSize=62.992mil|CornerRadius=7.874mil|HoleSize=0mil|Usage=FLASHONLY|Rotation=270.000|XOffset=0mil|YOffset=0mil|HoleType=Round|Shape=RoundedRectangle|*
%AMROUNDEDRECTD36*
21,1,0.031496,0.047244,0,0,270.0*
21,1,0.015748,0.062992,0,0,270.0*
1,1,0.015748,-0.023622,-0.007874*
1,1,0.015748,-0.023622,0.007874*
1,1,0.015748,0.023622,0.007874*
1,1,0.015748,0.023622,-0.007874*
%
%ADD36ROUNDEDRECTD36*%
%ADD37O,0.062992X0.031496*%
%ADD38R,0.067000X0.021000*%
G04:AMPARAMS|DCode=39|XSize=94.488mil|YSize=82.677mil|CornerRadius=20.669mil|HoleSize=0mil|Usage=FLASHONLY|Rotation=270.000|XOffset=0mil|YOffset=0mil|HoleType=Round|Shape=RoundedRectangle|*
%AMROUNDEDRECTD39*
21,1,0.094488,0.041339,0,0,270.0*
21,1,0.053150,0.082677,0,0,270.0*
1,1,0.041339,-0.020669,-0.026575*
1,1,0.041339,-0.020669,0.026575*
1,1,0.041339,0.020669,0.026575*
1,1,0.041339,0.020669,-0.026575*
%
%ADD39ROUNDEDRECTD39*%
G04:AMPARAMS|DCode=40|XSize=31.496mil|YSize=59.843mil|CornerRadius=7.874mil|HoleSize=0mil|Usage=FLASHONLY|Rotation=0.000|XOffset=0mil|YOffset=0mil|HoleType=Round|Shape=RoundedRectangle|*
%AMROUNDEDRECTD40*
21,1,0.031496,0.044094,0,0,0.0*
21,1,0.015748,0.059843,0,0,0.0*
1,1,0.015748,0.007874,-0.022047*
1,1,0.015748,-0.007874,-0.022047*
1,1,0.015748,-0.007874,0.022047*
1,1,0.015748,0.007874,0.022047*
%
%ADD40ROUNDEDRECTD40*%
%ADD41O,0.031496X0.059843*%
D10*
X4492000Y2725150D02*
D03*
Y3118850D02*
D03*
D11*
X4910000Y2696323D02*
D03*
Y2529000D02*
D03*
D12*
X3373000Y3171260D02*
D03*
Y3133858D02*
D03*
Y3096457D02*
D03*
D13*
X3475362D02*
D03*
Y3171260D02*
D03*
D14*
X2837323Y2537000D02*
D03*
Y2587000D02*
D03*
Y2637000D02*
D03*
Y2687000D02*
D03*
Y2737000D02*
D03*
Y2787000D02*
D03*
Y2837000D02*
D03*
Y2887000D02*
D03*
X2620000Y2537000D02*
D03*
Y2587000D02*
D03*
Y2637000D02*
D03*
Y2687000D02*
D03*
Y2737000D02*
D03*
Y2787000D02*
D03*
Y2837000D02*
D03*
D15*
Y2887000D02*
D03*
D16*
X2456000Y2889647D02*
D03*
Y2777442D02*
D03*
D17*
X3266000Y1882071D02*
D03*
Y1949000D02*
D03*
X3265000Y1801465D02*
D03*
Y1734535D02*
D03*
X3343126Y1633315D02*
D03*
Y1566386D02*
D03*
X3267874D02*
D03*
Y1633315D02*
D03*
X5113000Y1694535D02*
D03*
Y1761465D02*
D03*
X5040825Y1693000D02*
D03*
Y1759929D02*
D03*
X4968650Y1690000D02*
D03*
Y1756929D02*
D03*
X4896475Y1690903D02*
D03*
Y1757833D02*
D03*
X2847968Y1598520D02*
D03*
Y1531591D02*
D03*
X2772968Y1531591D02*
D03*
Y1598520D02*
D03*
X2700356Y1531591D02*
D03*
Y1598520D02*
D03*
X2627000Y1598520D02*
D03*
Y1531591D02*
D03*
X2966000Y2702535D02*
D03*
Y2769465D02*
D03*
Y2599465D02*
D03*
Y2532535D02*
D03*
X3370126Y2916929D02*
D03*
Y2850000D02*
D03*
X3484000Y1511465D02*
D03*
Y1444535D02*
D03*
X3557000Y1511465D02*
D03*
Y1444535D02*
D03*
X2518000Y1592006D02*
D03*
Y1658935D02*
D03*
X3292040Y2916929D02*
D03*
Y2850000D02*
D03*
X2041000Y1592006D02*
D03*
Y1658935D02*
D03*
D18*
X3094535Y1482543D02*
D03*
X3161465D02*
D03*
X3094535Y1410000D02*
D03*
X3161465D02*
D03*
X3618465Y3096457D02*
D03*
X3551535D02*
D03*
X3618465Y3171260D02*
D03*
X3551535D02*
D03*
X3289465Y3096457D02*
D03*
X3222535D02*
D03*
Y3171260D02*
D03*
X3289465D02*
D03*
X2232000Y1389000D02*
D03*
X2165071D02*
D03*
X2321000D02*
D03*
X2387929D02*
D03*
X2737071Y2436417D02*
D03*
X2804000D02*
D03*
X2659000D02*
D03*
X2592071D02*
D03*
X3861465Y2303000D02*
D03*
X3794535D02*
D03*
Y2382000D02*
D03*
X3861465D02*
D03*
X4202740Y2299095D02*
D03*
X4269669D02*
D03*
X4411205D02*
D03*
X4344276D02*
D03*
X4202740Y2381095D02*
D03*
X4269669D02*
D03*
X4411205D02*
D03*
X4344276D02*
D03*
X4223000Y2531000D02*
D03*
X4156071D02*
D03*
X4290000D02*
D03*
X4223071D02*
D03*
X2958535Y2881000D02*
D03*
X3025465D02*
D03*
D19*
X3378000Y2689345D02*
D03*
Y2766117D02*
D03*
X3284166Y2689345D02*
D03*
Y2766117D02*
D03*
X5130142Y1505596D02*
D03*
Y1582368D02*
D03*
X5241475Y1505596D02*
D03*
Y1582368D02*
D03*
X5018809Y1505596D02*
D03*
Y1582368D02*
D03*
X4907475D02*
D03*
Y1505596D02*
D03*
X3351000Y1478772D02*
D03*
Y1402000D02*
D03*
X3260000Y1478772D02*
D03*
Y1402000D02*
D03*
D20*
X2377613Y1658935D02*
D03*
Y1501455D02*
D03*
X2177613D02*
D03*
Y1658935D02*
D03*
D21*
X2384000Y1953000D02*
D03*
Y1773000D02*
D03*
X2184000Y1957000D02*
D03*
Y1777000D02*
D03*
D22*
X2843583Y1393000D02*
D03*
X2666417D02*
D03*
X2139000Y2767000D02*
D03*
X2316166D02*
D03*
D23*
X3262457Y2207000D02*
D03*
X3569543D02*
D03*
X3262457Y2428000D02*
D03*
X3569543D02*
D03*
D24*
X3740102Y2174488D02*
D03*
X3790102D02*
D03*
X3840102D02*
D03*
X3890102D02*
D03*
X3940102D02*
D03*
X3990102D02*
D03*
X4040102D02*
D03*
X4090102D02*
D03*
X4140102D02*
D03*
X4190102D02*
D03*
X4240102D02*
D03*
X4290102D02*
D03*
X4340102D02*
D03*
X4390102D02*
D03*
X3740102Y1485512D02*
D03*
X3790102D02*
D03*
X3840102D02*
D03*
X3890102D02*
D03*
X3940102D02*
D03*
X3990102D02*
D03*
X4040102D02*
D03*
X4090102D02*
D03*
X4140102D02*
D03*
X4190102D02*
D03*
X4240102D02*
D03*
X4290102D02*
D03*
X4340102D02*
D03*
X4390102D02*
D03*
D25*
X3690890Y1805000D02*
D03*
Y1755000D02*
D03*
Y1705000D02*
D03*
Y1655000D02*
D03*
Y1605000D02*
D03*
Y1855000D02*
D03*
Y1905000D02*
D03*
Y1955000D02*
D03*
Y2005000D02*
D03*
Y2055000D02*
D03*
D26*
X4086165Y1889055D02*
D03*
Y1944173D02*
D03*
Y1833937D02*
D03*
X4141283Y1889055D02*
D03*
Y1944173D02*
D03*
Y1833937D02*
D03*
X4031047Y1889055D02*
D03*
Y1944173D02*
D03*
Y1833937D02*
D03*
D27*
X5180000Y2514236D02*
D03*
Y2711087D02*
D03*
D28*
X4897740Y3043803D02*
D03*
X5240260D02*
D03*
D29*
X3986000Y3049921D02*
D03*
D30*
X4119858Y2668032D02*
D03*
X4052929D02*
D03*
X3986000D02*
D03*
X3919071D02*
D03*
X3852142D02*
D03*
D31*
X3050449Y2529130D02*
D03*
Y2603933D02*
D03*
Y2699130D02*
D03*
Y2773933D02*
D03*
D32*
X3141000Y2566532D02*
D03*
Y2736532D02*
D03*
D33*
X2139000Y2613583D02*
D03*
Y2436417D02*
D03*
X2306500Y2613583D02*
D03*
Y2436417D02*
D03*
X2474000Y2613583D02*
D03*
Y2436417D02*
D03*
X3988000Y2484583D02*
D03*
Y2307417D02*
D03*
D34*
X3793000Y2505748D02*
D03*
Y2490000D02*
D03*
D35*
X2194016Y1260000D02*
D03*
X2355984D02*
D03*
D36*
X2831968Y1712055D02*
D03*
D37*
Y1762055D02*
D03*
Y1812055D02*
D03*
Y1862055D02*
D03*
X2612284Y1712055D02*
D03*
Y1762055D02*
D03*
Y1812055D02*
D03*
Y1862055D02*
D03*
D38*
X2957968Y1567055D02*
D03*
Y1617055D02*
D03*
Y1667055D02*
D03*
Y1717055D02*
D03*
Y1767055D02*
D03*
Y1817055D02*
D03*
Y1867055D02*
D03*
X3161968D02*
D03*
Y1817055D02*
D03*
Y1767055D02*
D03*
Y1717055D02*
D03*
Y1667055D02*
D03*
Y1617055D02*
D03*
Y1567055D02*
D03*
D39*
X2799000Y2020000D02*
D03*
X2619000D02*
D03*
D40*
X5243309Y2098251D02*
D03*
D41*
X5193309D02*
D03*
X5143309D02*
D03*
X5093309D02*
D03*
X5043309D02*
D03*
X4993309D02*
D03*
X4943309D02*
D03*
X4893309D02*
D03*
X5243309Y1880928D02*
D03*
X5193309D02*
D03*
X5143309D02*
D03*
X5093309D02*
D03*
X5043309D02*
D03*
X4993309D02*
D03*
X4943309D02*
D03*
X4893309D02*
D03*
%TF.MD5,6c7702bf99b256a22ed8e98f56a59630*%
M02*
