%TF.GenerationSoftware,Altium Limited,Altium Designer,21.3.2 (30)*%
G04 Layer_Color=0*
%FSLAX26Y26*%
%MOIN*%
%TF.SameCoordinates,FFAA3912-E1DC-4B59-95C2-56FC1F4E7B50*%
%TF.FilePolarity,Positive*%
%TF.FileFunction,Plated,1,2,PTH,Drill*%
%TF.Part,Single*%
G01*
G75*
%TA.AperFunction,ComponentDrill*%
%ADD155O,0.078740X0.047244*%
%ADD156C,0.062992*%
%ADD157C,0.060000*%
%ADD158C,0.051181*%
%ADD159C,0.039000*%
%ADD160O,0.015748X0.055118*%
%ADD161C,0.017716*%
%ADD162C,0.038000*%
%ADD163C,0.031000*%
%ADD164C,0.031496*%
%TA.AperFunction,ViaDrill,NotFilled*%
%ADD165C,0.015000*%
%ADD166C,0.125984*%
D155*
X192000Y1518769D02*
D03*
Y1703808D02*
D03*
Y1888848D02*
D03*
D156*
X1551000Y262863D02*
D03*
Y3132942D02*
D03*
X791157D02*
D03*
Y262863D02*
D03*
D157*
X3032000Y896000D02*
D03*
X2832000D02*
D03*
X2432000D02*
D03*
X2632000D02*
D03*
X3032000Y367000D02*
D03*
X2832000D02*
D03*
X2632000D02*
D03*
X2432000D02*
D03*
X4889000Y1171000D02*
D03*
X5089000D02*
D03*
X4488500D02*
D03*
X4688500D02*
D03*
X4088000D02*
D03*
X4288000D02*
D03*
X3687500D02*
D03*
X3887500D02*
D03*
D158*
X5209850Y757158D02*
D03*
X4816150D02*
D03*
X5013000Y257158D02*
D03*
X4816150Y355583D02*
D03*
X5209850D02*
D03*
X4700850Y757158D02*
D03*
X4307150D02*
D03*
X4504000Y257158D02*
D03*
X4307150Y355583D02*
D03*
X4700850D02*
D03*
X4185850Y757158D02*
D03*
X3792150D02*
D03*
X3989000Y257158D02*
D03*
X3792150Y355583D02*
D03*
X4185850D02*
D03*
X3674850Y757158D02*
D03*
X3281150D02*
D03*
X3478000Y257158D02*
D03*
X3281150Y355583D02*
D03*
X3674850D02*
D03*
D159*
X2260000Y3177000D02*
D03*
X2360000D02*
D03*
X2460000D02*
D03*
X2560000D02*
D03*
D160*
X2963496Y3175000D02*
D03*
X2682000D02*
D03*
D161*
X2873929Y3183661D02*
D03*
X2848339Y3144291D02*
D03*
X2822748Y3183661D02*
D03*
X2797157Y3144291D02*
D03*
X2771567Y3183661D02*
D03*
D162*
X3246000Y1211000D02*
D03*
X3247000Y1033000D02*
D03*
X3497000Y1034000D02*
D03*
X3496000Y1211000D02*
D03*
D163*
X2796000Y2266000D02*
D03*
X2596000D02*
D03*
D164*
X5537000Y1584520D02*
D03*
Y1663260D02*
D03*
Y1742000D02*
D03*
Y1820740D02*
D03*
D165*
X3072000Y981000D02*
D03*
X3222000Y1131000D02*
D03*
X3072000D02*
D03*
X5472000Y2481000D02*
D03*
Y2031000D02*
D03*
Y1881000D02*
D03*
Y1581000D02*
D03*
Y1431000D02*
D03*
Y1281000D02*
D03*
Y981000D02*
D03*
X5322000Y2931000D02*
D03*
Y2781000D02*
D03*
Y2631000D02*
D03*
Y2481000D02*
D03*
Y2331000D02*
D03*
Y2181000D02*
D03*
Y2031000D02*
D03*
Y1881000D02*
D03*
X5172000Y2931000D02*
D03*
Y2331000D02*
D03*
Y2031000D02*
D03*
Y1431000D02*
D03*
Y1281000D02*
D03*
Y681000D02*
D03*
Y531000D02*
D03*
Y231000D02*
D03*
X5022000Y3081000D02*
D03*
Y2931000D02*
D03*
Y2781000D02*
D03*
Y2631000D02*
D03*
Y2331000D02*
D03*
Y2031000D02*
D03*
Y981000D02*
D03*
X4872000Y2631000D02*
D03*
Y2331000D02*
D03*
Y1431000D02*
D03*
Y831000D02*
D03*
Y681000D02*
D03*
Y531000D02*
D03*
Y381000D02*
D03*
Y231000D02*
D03*
X4722000Y3081000D02*
D03*
Y2931000D02*
D03*
Y2781000D02*
D03*
Y2631000D02*
D03*
Y2331000D02*
D03*
Y2031000D02*
D03*
Y1881000D02*
D03*
Y1731000D02*
D03*
Y1581000D02*
D03*
Y681000D02*
D03*
Y531000D02*
D03*
Y231000D02*
D03*
X4572000Y2931000D02*
D03*
Y2331000D02*
D03*
Y2031000D02*
D03*
Y1881000D02*
D03*
Y1731000D02*
D03*
Y1581000D02*
D03*
Y1281000D02*
D03*
Y381000D02*
D03*
Y231000D02*
D03*
X4422000Y2931000D02*
D03*
Y2031000D02*
D03*
Y1881000D02*
D03*
Y1731000D02*
D03*
Y1581000D02*
D03*
Y1281000D02*
D03*
Y981000D02*
D03*
Y831000D02*
D03*
Y681000D02*
D03*
Y381000D02*
D03*
Y231000D02*
D03*
X4272000Y2781000D02*
D03*
Y2631000D02*
D03*
Y2031000D02*
D03*
Y1881000D02*
D03*
Y1731000D02*
D03*
Y1581000D02*
D03*
Y1281000D02*
D03*
Y831000D02*
D03*
Y681000D02*
D03*
Y531000D02*
D03*
Y231000D02*
D03*
X4122000Y2031000D02*
D03*
Y1731000D02*
D03*
Y1581000D02*
D03*
Y1281000D02*
D03*
Y981000D02*
D03*
Y831000D02*
D03*
Y681000D02*
D03*
Y231000D02*
D03*
X3972000Y1881000D02*
D03*
Y1731000D02*
D03*
Y1581000D02*
D03*
Y1281000D02*
D03*
Y1131000D02*
D03*
Y981000D02*
D03*
X3822000Y1281000D02*
D03*
Y831000D02*
D03*
Y681000D02*
D03*
Y531000D02*
D03*
X3672000Y2781000D02*
D03*
Y2181000D02*
D03*
Y1281000D02*
D03*
Y681000D02*
D03*
Y531000D02*
D03*
Y231000D02*
D03*
X3522000Y2031000D02*
D03*
Y1881000D02*
D03*
Y1581000D02*
D03*
Y1281000D02*
D03*
Y1131000D02*
D03*
Y981000D02*
D03*
Y381000D02*
D03*
X3372000Y2631000D02*
D03*
Y2481000D02*
D03*
Y2031000D02*
D03*
Y1881000D02*
D03*
Y1131000D02*
D03*
Y981000D02*
D03*
Y831000D02*
D03*
Y681000D02*
D03*
Y381000D02*
D03*
Y231000D02*
D03*
X3222000Y2931000D02*
D03*
Y2781000D02*
D03*
Y2331000D02*
D03*
Y2031000D02*
D03*
Y981000D02*
D03*
Y831000D02*
D03*
Y681000D02*
D03*
Y531000D02*
D03*
Y381000D02*
D03*
Y231000D02*
D03*
X3072000Y3081000D02*
D03*
Y2931000D02*
D03*
Y2331000D02*
D03*
Y2181000D02*
D03*
Y2031000D02*
D03*
Y1581000D02*
D03*
Y681000D02*
D03*
Y531000D02*
D03*
Y231000D02*
D03*
X2922000Y3081000D02*
D03*
Y2931000D02*
D03*
Y2631000D02*
D03*
Y2481000D02*
D03*
Y2331000D02*
D03*
Y2181000D02*
D03*
Y2031000D02*
D03*
Y1431000D02*
D03*
Y1281000D02*
D03*
Y1131000D02*
D03*
Y981000D02*
D03*
Y831000D02*
D03*
Y681000D02*
D03*
Y531000D02*
D03*
Y381000D02*
D03*
Y231000D02*
D03*
X2772000Y2631000D02*
D03*
Y2481000D02*
D03*
Y2331000D02*
D03*
Y2181000D02*
D03*
Y1281000D02*
D03*
Y1131000D02*
D03*
Y981000D02*
D03*
Y831000D02*
D03*
Y681000D02*
D03*
Y531000D02*
D03*
Y231000D02*
D03*
X2622000Y3081000D02*
D03*
Y2481000D02*
D03*
Y2331000D02*
D03*
Y2181000D02*
D03*
Y1281000D02*
D03*
Y1131000D02*
D03*
Y681000D02*
D03*
Y531000D02*
D03*
Y231000D02*
D03*
X2472000Y2331000D02*
D03*
Y2181000D02*
D03*
Y2031000D02*
D03*
Y1581000D02*
D03*
Y1431000D02*
D03*
Y1281000D02*
D03*
Y981000D02*
D03*
Y681000D02*
D03*
Y531000D02*
D03*
Y231000D02*
D03*
X2322000Y3081000D02*
D03*
Y2331000D02*
D03*
Y2181000D02*
D03*
Y2031000D02*
D03*
Y1731000D02*
D03*
Y1131000D02*
D03*
Y981000D02*
D03*
Y831000D02*
D03*
Y681000D02*
D03*
Y531000D02*
D03*
Y231000D02*
D03*
X2172000Y3081000D02*
D03*
Y2331000D02*
D03*
Y2181000D02*
D03*
Y2031000D02*
D03*
Y1881000D02*
D03*
Y981000D02*
D03*
Y831000D02*
D03*
Y681000D02*
D03*
Y531000D02*
D03*
Y231000D02*
D03*
X2022000Y3081000D02*
D03*
Y2931000D02*
D03*
Y2781000D02*
D03*
Y2631000D02*
D03*
Y2481000D02*
D03*
Y2331000D02*
D03*
Y2181000D02*
D03*
Y2031000D02*
D03*
Y1881000D02*
D03*
Y1731000D02*
D03*
Y1431000D02*
D03*
Y1281000D02*
D03*
Y1131000D02*
D03*
Y981000D02*
D03*
Y831000D02*
D03*
Y681000D02*
D03*
Y531000D02*
D03*
Y231000D02*
D03*
X1872000D02*
D03*
X1722000Y3081000D02*
D03*
Y2931000D02*
D03*
Y2781000D02*
D03*
Y2631000D02*
D03*
Y2481000D02*
D03*
Y2331000D02*
D03*
Y2181000D02*
D03*
Y2031000D02*
D03*
Y1881000D02*
D03*
Y1581000D02*
D03*
Y1431000D02*
D03*
Y1281000D02*
D03*
Y1131000D02*
D03*
Y981000D02*
D03*
Y831000D02*
D03*
Y681000D02*
D03*
Y531000D02*
D03*
Y381000D02*
D03*
Y231000D02*
D03*
X1572000Y2931000D02*
D03*
Y2631000D02*
D03*
Y2481000D02*
D03*
Y2331000D02*
D03*
Y2181000D02*
D03*
Y2031000D02*
D03*
Y1881000D02*
D03*
Y1581000D02*
D03*
Y1431000D02*
D03*
Y1281000D02*
D03*
Y1131000D02*
D03*
Y981000D02*
D03*
Y831000D02*
D03*
Y381000D02*
D03*
X1422000Y3081000D02*
D03*
Y2931000D02*
D03*
Y2781000D02*
D03*
Y2631000D02*
D03*
Y2481000D02*
D03*
Y2331000D02*
D03*
Y2181000D02*
D03*
Y2031000D02*
D03*
Y1881000D02*
D03*
Y1581000D02*
D03*
Y1431000D02*
D03*
Y1281000D02*
D03*
Y1131000D02*
D03*
Y981000D02*
D03*
Y831000D02*
D03*
Y681000D02*
D03*
Y531000D02*
D03*
Y231000D02*
D03*
X1272000Y3081000D02*
D03*
Y2931000D02*
D03*
Y2781000D02*
D03*
Y2631000D02*
D03*
Y2481000D02*
D03*
Y2331000D02*
D03*
Y2181000D02*
D03*
Y2031000D02*
D03*
Y1881000D02*
D03*
Y1581000D02*
D03*
Y1431000D02*
D03*
Y1281000D02*
D03*
Y1131000D02*
D03*
Y981000D02*
D03*
Y831000D02*
D03*
Y681000D02*
D03*
Y381000D02*
D03*
Y231000D02*
D03*
X1122000Y3081000D02*
D03*
Y2931000D02*
D03*
Y531000D02*
D03*
Y381000D02*
D03*
Y231000D02*
D03*
X972000Y3081000D02*
D03*
Y2781000D02*
D03*
Y2631000D02*
D03*
Y2481000D02*
D03*
Y2331000D02*
D03*
Y2181000D02*
D03*
Y2031000D02*
D03*
Y1881000D02*
D03*
Y1581000D02*
D03*
Y1431000D02*
D03*
Y1281000D02*
D03*
Y1131000D02*
D03*
Y981000D02*
D03*
Y831000D02*
D03*
Y681000D02*
D03*
Y531000D02*
D03*
Y381000D02*
D03*
Y231000D02*
D03*
X822000Y2931000D02*
D03*
Y2631000D02*
D03*
Y2481000D02*
D03*
Y2331000D02*
D03*
Y2181000D02*
D03*
Y2031000D02*
D03*
Y1881000D02*
D03*
Y1581000D02*
D03*
Y1431000D02*
D03*
Y1281000D02*
D03*
Y1131000D02*
D03*
Y981000D02*
D03*
Y831000D02*
D03*
Y531000D02*
D03*
Y381000D02*
D03*
X672000Y3081000D02*
D03*
Y2931000D02*
D03*
Y2781000D02*
D03*
Y2631000D02*
D03*
Y2481000D02*
D03*
Y2331000D02*
D03*
Y2181000D02*
D03*
Y2031000D02*
D03*
Y1881000D02*
D03*
Y1581000D02*
D03*
Y1431000D02*
D03*
Y1281000D02*
D03*
Y1131000D02*
D03*
Y981000D02*
D03*
Y831000D02*
D03*
Y681000D02*
D03*
Y531000D02*
D03*
Y381000D02*
D03*
X522000Y3081000D02*
D03*
Y2931000D02*
D03*
Y2781000D02*
D03*
Y2631000D02*
D03*
Y2481000D02*
D03*
Y2331000D02*
D03*
Y2181000D02*
D03*
Y2031000D02*
D03*
Y1881000D02*
D03*
Y1581000D02*
D03*
Y231000D02*
D03*
X372000Y3081000D02*
D03*
Y2931000D02*
D03*
Y2781000D02*
D03*
Y2631000D02*
D03*
Y2481000D02*
D03*
Y2331000D02*
D03*
Y2181000D02*
D03*
Y2031000D02*
D03*
Y1881000D02*
D03*
Y1431000D02*
D03*
Y1281000D02*
D03*
Y1131000D02*
D03*
Y981000D02*
D03*
Y831000D02*
D03*
Y681000D02*
D03*
Y531000D02*
D03*
Y381000D02*
D03*
Y231000D02*
D03*
X222000Y2481000D02*
D03*
Y2031000D02*
D03*
Y1431000D02*
D03*
Y1281000D02*
D03*
Y981000D02*
D03*
X72000Y2331000D02*
D03*
Y2181000D02*
D03*
Y2031000D02*
D03*
Y1881000D02*
D03*
Y1731000D02*
D03*
Y1581000D02*
D03*
Y1431000D02*
D03*
Y1281000D02*
D03*
Y1131000D02*
D03*
Y981000D02*
D03*
X3337000Y3133000D02*
D03*
X4979000Y2411000D02*
D03*
X4907500Y2412000D02*
D03*
X4836000Y2413000D02*
D03*
X4908000Y2484000D02*
D03*
X4979500Y2483000D02*
D03*
X4978500Y2546000D02*
D03*
X4907000Y2547000D02*
D03*
X4835500Y2548000D02*
D03*
X4836500Y2485000D02*
D03*
X3425000Y1289000D02*
D03*
X3421000Y3041000D02*
D03*
X4122000Y2447000D02*
D03*
X2835000Y2997000D02*
D03*
X2316331Y3000000D02*
D03*
X2844000Y1304000D02*
D03*
X2904945Y1617055D02*
D03*
X2144000Y2942000D02*
D03*
X2686000Y2940000D02*
D03*
X2766000Y2686000D02*
D03*
X2674000D02*
D03*
X3163000Y1350000D02*
D03*
X3619000Y1488000D02*
D03*
X3417710Y2920390D02*
D03*
X3387000Y3173000D02*
D03*
Y3200342D02*
D03*
X4347000Y2532000D02*
D03*
X4344276Y2340095D02*
D03*
X4943309Y2180309D02*
D03*
X4993309D02*
D03*
X5092000Y2182000D02*
D03*
X5043309Y2180309D02*
D03*
X4040102Y2237898D02*
D03*
X3936000Y2005000D02*
D03*
X3971000Y2042000D02*
D03*
X3360000Y3184000D02*
D03*
Y3210500D02*
D03*
X3387000Y3227683D02*
D03*
X3360000Y3237000D02*
D03*
X4190102Y1551102D02*
D03*
X3214945Y1567055D02*
D03*
X2783055Y1712055D02*
D03*
X4240102Y1551102D02*
D03*
X2672000Y2837000D02*
D03*
Y2787000D02*
D03*
X3316000Y1735000D02*
D03*
X3840102Y2238102D02*
D03*
X2780000Y1863000D02*
D03*
X3837000Y1415102D02*
D03*
X3990102D02*
D03*
X4140000Y1421000D02*
D03*
X4039000Y1418000D02*
D03*
X5092691Y1817000D02*
D03*
X5241475Y1430000D02*
D03*
X5130142Y1432000D02*
D03*
X5020000Y1434000D02*
D03*
X4907000Y1435000D02*
D03*
X5046000Y1817000D02*
D03*
X4946000D02*
D03*
X4996000D02*
D03*
X2922465Y2702535D02*
D03*
X3050449Y2481551D02*
D03*
X2667000Y1470000D02*
D03*
X2772968Y1639968D02*
D03*
X3014000Y1817000D02*
D03*
X287821Y1046801D02*
D03*
X155821D02*
D03*
X156821Y1178801D02*
D03*
X288821Y1179801D02*
D03*
X222591Y1019505D02*
D03*
Y1206801D02*
D03*
X128821Y1114801D02*
D03*
X315821Y1113801D02*
D03*
X287821Y2227903D02*
D03*
X155821D02*
D03*
X156821Y2359903D02*
D03*
X288821Y2360903D02*
D03*
X222591Y2200608D02*
D03*
Y2387903D02*
D03*
X128821Y2295903D02*
D03*
X315821Y2294903D02*
D03*
X5563411Y1046801D02*
D03*
X5431411D02*
D03*
X5432411Y1178801D02*
D03*
X5564411Y1179801D02*
D03*
X5498181Y1019505D02*
D03*
Y1206801D02*
D03*
X5404411Y1114801D02*
D03*
X5591411Y1113801D02*
D03*
X5563411Y2227903D02*
D03*
X5431411D02*
D03*
X5432411Y2359903D02*
D03*
X5564411Y2360903D02*
D03*
X5498181Y2200608D02*
D03*
Y2387903D02*
D03*
X5404411Y2295903D02*
D03*
X5591411Y2294903D02*
D03*
D166*
X222591Y1113480D02*
D03*
Y2294583D02*
D03*
X5498181Y1113480D02*
D03*
Y2294583D02*
D03*
%TF.MD5,d3dd8f06f1f7820671dc6032546ae609*%
M02*
