%TF.GenerationSoftware,Altium Limited,Altium Designer,21.3.2 (30)*%
G04 Layer_Color=32896*
%FSLAX26Y26*%
%MOIN*%
%TF.SameCoordinates,FFAA3912-E1DC-4B59-95C2-56FC1F4E7B50*%
%TF.FilePolarity,Positive*%
%TF.FileFunction,Legend,Bot*%
%TF.Part,Single*%
G01*
G75*
%TA.AperFunction,NonConductor*%
%ADD66C,0.009842*%
%ADD67C,0.007874*%
%ADD68R,0.018230X0.121055*%
G36*
X5043997Y427797D02*
X5030177D01*
X5028901Y427853D01*
X5027735Y427908D01*
X5026681Y428019D01*
X5025793Y428130D01*
X5025016Y428241D01*
X5024461Y428296D01*
X5024294Y428352D01*
X5024128Y428408D01*
X5024017D01*
X5023018Y428685D01*
X5022130Y429018D01*
X5021353Y429296D01*
X5020687Y429628D01*
X5020132Y429906D01*
X5019743Y430128D01*
X5019521Y430295D01*
X5019410Y430350D01*
X5018689Y430849D01*
X5018078Y431460D01*
X5017468Y432015D01*
X5016968Y432570D01*
X5016524Y433070D01*
X5016191Y433458D01*
X5015969Y433736D01*
X5015914Y433846D01*
X5015359Y434735D01*
X5014804Y435678D01*
X5014360Y436566D01*
X5014027Y437454D01*
X5013694Y438231D01*
X5013472Y438841D01*
X5013416Y439063D01*
X5013361Y439230D01*
X5013305Y439341D01*
Y439397D01*
X5012972Y440728D01*
X5012695Y442060D01*
X5012528Y443337D01*
X5012362Y444558D01*
X5012306Y445613D01*
Y446057D01*
X5012251Y446445D01*
Y446723D01*
Y447000D01*
Y447111D01*
Y447166D01*
X5012306Y449053D01*
X5012473Y450774D01*
X5012750Y452328D01*
X5012861Y453050D01*
X5013028Y453660D01*
X5013194Y454271D01*
X5013305Y454770D01*
X5013416Y455214D01*
X5013583Y455603D01*
X5013638Y455935D01*
X5013749Y456158D01*
X5013805Y456269D01*
Y456324D01*
X5014415Y457767D01*
X5015137Y459043D01*
X5015914Y460154D01*
X5016635Y461097D01*
X5017301Y461874D01*
X5017856Y462429D01*
X5018078Y462596D01*
X5018245Y462762D01*
X5018300Y462817D01*
X5018356Y462873D01*
X5019244Y463594D01*
X5020187Y464149D01*
X5021131Y464649D01*
X5022019Y465038D01*
X5022796Y465315D01*
X5023406Y465481D01*
X5023628Y465592D01*
X5023795D01*
X5023906Y465648D01*
X5023961D01*
X5024905Y465815D01*
X5026015Y465981D01*
X5027125Y466092D01*
X5028235Y466147D01*
X5029234Y466203D01*
X5043997D01*
Y427797D01*
D02*
G37*
G36*
X5006867Y461152D02*
X4988053D01*
X4989385Y459543D01*
X4990661Y457822D01*
X4991771Y456158D01*
X4992826Y454548D01*
X4993270Y453827D01*
X4993658Y453161D01*
X4994047Y452550D01*
X4994324Y452050D01*
X4994546Y451606D01*
X4994713Y451329D01*
X4994824Y451107D01*
X4994879Y451051D01*
X4995989Y448832D01*
X4996988Y446611D01*
X4997821Y444502D01*
X4998154Y443559D01*
X4998487Y442615D01*
X4998820Y441783D01*
X4999042Y441006D01*
X4999264Y440340D01*
X4999430Y439785D01*
X4999597Y439286D01*
X4999708Y438952D01*
X4999763Y438731D01*
Y438675D01*
X5000318Y436399D01*
X5000540Y435289D01*
X5000707Y434291D01*
X5000873Y433347D01*
X5001040Y432404D01*
X5001151Y431627D01*
X5001262Y430849D01*
X5001317Y430183D01*
X5001373Y429573D01*
X5001428Y429018D01*
Y428574D01*
X5001484Y428241D01*
Y428019D01*
Y427853D01*
Y427797D01*
X4996655D01*
X4996489Y429906D01*
X4996211Y431849D01*
X4995934Y433625D01*
X4995767Y434457D01*
X4995601Y435234D01*
X4995490Y435900D01*
X4995323Y436510D01*
X4995212Y437065D01*
X4995101Y437510D01*
X4994990Y437842D01*
X4994935Y438120D01*
X4994879Y438286D01*
Y438342D01*
X4994047Y440895D01*
X4993159Y443281D01*
X4992715Y444447D01*
X4992271Y445557D01*
X4991771Y446556D01*
X4991327Y447555D01*
X4990939Y448443D01*
X4990550Y449220D01*
X4990217Y449886D01*
X4989940Y450497D01*
X4989662Y450996D01*
X4989496Y451329D01*
X4989385Y451551D01*
X4989329Y451606D01*
X4988663Y452772D01*
X4987997Y453938D01*
X4987331Y454992D01*
X4986665Y455991D01*
X4986055Y456879D01*
X4985444Y457767D01*
X4984834Y458544D01*
X4984334Y459210D01*
X4983835Y459876D01*
X4983391Y460431D01*
X4982947Y460875D01*
X4982614Y461264D01*
X4982392Y461596D01*
X4982170Y461818D01*
X4982059Y461930D01*
X4982003Y461985D01*
Y465704D01*
X5006867D01*
Y461152D01*
D02*
G37*
G36*
X4484713Y466147D02*
X4485767Y466036D01*
X4486766Y465815D01*
X4487710Y465537D01*
X4488542Y465149D01*
X4489375Y464815D01*
X4490096Y464372D01*
X4490762Y463983D01*
X4491317Y463594D01*
X4491872Y463151D01*
X4492316Y462817D01*
X4492649Y462485D01*
X4492927Y462151D01*
X4493149Y461930D01*
X4493260Y461818D01*
X4493315Y461763D01*
X4494037Y460764D01*
X4494647Y459599D01*
X4495202Y458377D01*
X4495702Y457101D01*
X4496090Y455769D01*
X4496423Y454437D01*
X4496701Y453050D01*
X4496923Y451773D01*
X4497089Y450497D01*
X4497200Y449331D01*
X4497311Y448276D01*
X4497367Y447389D01*
Y446611D01*
X4497422Y446057D01*
Y445834D01*
Y445668D01*
Y445613D01*
Y445557D01*
X4497367Y443781D01*
X4497256Y442116D01*
X4497089Y440562D01*
X4496812Y439119D01*
X4496534Y437842D01*
X4496257Y436677D01*
X4495924Y435623D01*
X4495535Y434679D01*
X4495202Y433902D01*
X4494869Y433180D01*
X4494592Y432625D01*
X4494259Y432126D01*
X4494037Y431738D01*
X4493870Y431515D01*
X4493759Y431349D01*
X4493704Y431293D01*
X4492982Y430517D01*
X4492205Y429851D01*
X4491428Y429296D01*
X4490651Y428796D01*
X4489819Y428352D01*
X4489042Y428019D01*
X4488265Y427741D01*
X4487488Y427519D01*
X4486822Y427353D01*
X4486156Y427187D01*
X4485601Y427075D01*
X4485101Y427020D01*
X4484657D01*
X4484380Y426964D01*
X4484102D01*
X4482826Y427020D01*
X4481660Y427242D01*
X4480606Y427464D01*
X4479662Y427797D01*
X4478941Y428075D01*
X4478386Y428352D01*
X4478164Y428408D01*
X4477997Y428519D01*
X4477942Y428574D01*
X4477886D01*
X4476943Y429240D01*
X4476055Y430017D01*
X4475333Y430794D01*
X4474723Y431571D01*
X4474223Y432293D01*
X4473890Y432848D01*
X4473779Y433070D01*
X4473668Y433236D01*
X4473613Y433291D01*
Y433347D01*
X4473058Y434512D01*
X4472669Y435733D01*
X4472392Y436844D01*
X4472225Y437898D01*
X4472059Y438786D01*
Y439119D01*
X4472003Y439452D01*
Y439729D01*
Y439896D01*
Y440007D01*
Y440062D01*
X4472059Y441062D01*
X4472170Y442005D01*
X4472336Y442949D01*
X4472503Y443781D01*
X4472780Y444558D01*
X4473058Y445335D01*
X4473335Y446001D01*
X4473668Y446611D01*
X4474001Y447166D01*
X4474279Y447666D01*
X4474556Y448055D01*
X4474834Y448443D01*
X4475000Y448721D01*
X4475167Y448887D01*
X4475278Y448998D01*
X4475333Y449053D01*
X4475944Y449664D01*
X4476610Y450219D01*
X4477331Y450663D01*
X4477997Y451051D01*
X4478663Y451440D01*
X4479329Y451717D01*
X4480606Y452106D01*
X4481161Y452272D01*
X4481716Y452384D01*
X4482160Y452439D01*
X4482604Y452495D01*
X4482937Y452550D01*
X4483381D01*
X4484380Y452495D01*
X4485323Y452328D01*
X4486211Y452161D01*
X4486988Y451940D01*
X4487654Y451662D01*
X4488154Y451495D01*
X4488487Y451329D01*
X4488542Y451274D01*
X4488598D01*
X4489486Y450719D01*
X4490263Y450108D01*
X4490984Y449498D01*
X4491539Y448832D01*
X4492039Y448276D01*
X4492427Y447832D01*
X4492649Y447500D01*
X4492705Y447444D01*
Y448443D01*
X4492649Y449442D01*
X4492594Y450330D01*
X4492483Y451218D01*
X4492427Y451995D01*
X4492316Y452716D01*
X4492205Y453382D01*
X4492039Y453993D01*
X4491928Y454548D01*
X4491817Y454992D01*
X4491706Y455380D01*
X4491650Y455714D01*
X4491539Y455935D01*
X4491484Y456102D01*
X4491428Y456213D01*
Y456269D01*
X4490873Y457378D01*
X4490318Y458377D01*
X4489708Y459154D01*
X4489153Y459820D01*
X4488653Y460375D01*
X4488265Y460764D01*
X4487987Y460986D01*
X4487876Y461041D01*
X4487210Y461486D01*
X4486544Y461763D01*
X4485878Y461985D01*
X4485212Y462151D01*
X4484713Y462262D01*
X4484269Y462318D01*
X4483880D01*
X4482881Y462207D01*
X4481938Y461985D01*
X4481161Y461652D01*
X4480439Y461319D01*
X4479884Y460930D01*
X4479496Y460598D01*
X4479274Y460375D01*
X4479163Y460264D01*
X4478774Y459765D01*
X4478386Y459154D01*
X4478053Y458488D01*
X4477831Y457822D01*
X4477609Y457212D01*
X4477442Y456712D01*
X4477387Y456380D01*
X4477331Y456324D01*
Y456269D01*
X4472614Y456657D01*
X4472947Y458211D01*
X4473446Y459599D01*
X4474001Y460820D01*
X4474612Y461818D01*
X4475222Y462596D01*
X4475444Y462928D01*
X4475722Y463206D01*
X4475888Y463373D01*
X4476055Y463539D01*
X4476110Y463594D01*
X4476166Y463650D01*
X4476721Y464094D01*
X4477331Y464483D01*
X4478552Y465149D01*
X4479773Y465592D01*
X4480939Y465870D01*
X4481993Y466092D01*
X4482437Y466147D01*
X4482826D01*
X4483159Y466203D01*
X4483603D01*
X4484713Y466147D01*
D02*
G37*
G36*
X4533997Y427630D02*
X4520177D01*
X4518901Y427686D01*
X4517735Y427741D01*
X4516681Y427853D01*
X4515793Y427964D01*
X4515016Y428075D01*
X4514461Y428130D01*
X4514294Y428185D01*
X4514128Y428241D01*
X4514017D01*
X4513018Y428519D01*
X4512130Y428851D01*
X4511353Y429129D01*
X4510687Y429462D01*
X4510132Y429740D01*
X4509743Y429962D01*
X4509521Y430128D01*
X4509410Y430183D01*
X4508689Y430683D01*
X4508078Y431293D01*
X4507468Y431849D01*
X4506968Y432404D01*
X4506524Y432903D01*
X4506191Y433291D01*
X4505969Y433569D01*
X4505914Y433680D01*
X4505359Y434568D01*
X4504804Y435512D01*
X4504360Y436399D01*
X4504027Y437288D01*
X4503694Y438065D01*
X4503472Y438675D01*
X4503416Y438897D01*
X4503361Y439063D01*
X4503305Y439175D01*
Y439230D01*
X4502972Y440562D01*
X4502695Y441894D01*
X4502528Y443171D01*
X4502362Y444392D01*
X4502306Y445446D01*
Y445890D01*
X4502251Y446279D01*
Y446556D01*
Y446834D01*
Y446945D01*
Y447000D01*
X4502306Y448887D01*
X4502473Y450608D01*
X4502750Y452161D01*
X4502861Y452883D01*
X4503028Y453493D01*
X4503194Y454104D01*
X4503305Y454603D01*
X4503416Y455048D01*
X4503583Y455436D01*
X4503638Y455769D01*
X4503749Y455991D01*
X4503805Y456102D01*
Y456158D01*
X4504415Y457601D01*
X4505137Y458877D01*
X4505914Y459987D01*
X4506635Y460930D01*
X4507301Y461707D01*
X4507856Y462262D01*
X4508078Y462429D01*
X4508245Y462596D01*
X4508300Y462651D01*
X4508356Y462707D01*
X4509244Y463428D01*
X4510187Y463983D01*
X4511131Y464483D01*
X4512019Y464871D01*
X4512796Y465149D01*
X4513406Y465315D01*
X4513628Y465426D01*
X4513795D01*
X4513906Y465481D01*
X4513961D01*
X4514905Y465648D01*
X4516015Y465815D01*
X4517125Y465925D01*
X4518235Y465981D01*
X4519234Y466036D01*
X4533997D01*
Y427630D01*
D02*
G37*
G36*
X3964506Y445945D02*
X3960066Y445335D01*
X3959678Y445945D01*
X3959178Y446445D01*
X3958735Y446945D01*
X3958291Y447333D01*
X3957847Y447611D01*
X3957514Y447888D01*
X3957291Y447999D01*
X3957236Y448055D01*
X3956515Y448387D01*
X3955793Y448665D01*
X3955127Y448832D01*
X3954461Y448998D01*
X3953906Y449053D01*
X3953462Y449109D01*
X3952407D01*
X3951742Y448998D01*
X3950576Y448721D01*
X3949577Y448332D01*
X3948689Y447943D01*
X3948023Y447500D01*
X3947523Y447111D01*
X3947246Y446834D01*
X3947135Y446778D01*
Y446723D01*
X3946358Y445779D01*
X3945803Y444780D01*
X3945414Y443726D01*
X3945137Y442671D01*
X3944970Y441783D01*
X3944915Y441394D01*
Y441062D01*
X3944860Y440784D01*
Y440562D01*
Y440451D01*
Y440396D01*
Y439618D01*
X3944970Y438897D01*
X3945248Y437510D01*
X3945637Y436344D01*
X3946025Y435401D01*
X3946469Y434623D01*
X3946858Y434013D01*
X3947024Y433846D01*
X3947135Y433680D01*
X3947191Y433625D01*
X3947246Y433569D01*
X3947690Y433125D01*
X3948134Y432736D01*
X3949133Y432070D01*
X3950077Y431627D01*
X3951020Y431349D01*
X3951797Y431127D01*
X3952463Y431072D01*
X3952685Y431016D01*
X3953018D01*
X3954073Y431072D01*
X3955016Y431293D01*
X3955849Y431571D01*
X3956515Y431904D01*
X3957125Y432237D01*
X3957569Y432514D01*
X3957791Y432736D01*
X3957902Y432792D01*
X3958568Y433569D01*
X3959123Y434401D01*
X3959567Y435345D01*
X3959900Y436178D01*
X3960122Y437010D01*
X3960289Y437620D01*
X3960344Y437898D01*
X3960399Y438065D01*
Y438175D01*
Y438231D01*
X3965339Y437842D01*
X3965228Y436954D01*
X3965061Y436122D01*
X3964562Y434568D01*
X3963952Y433236D01*
X3963619Y432625D01*
X3963285Y432126D01*
X3963008Y431627D01*
X3962675Y431183D01*
X3962398Y430849D01*
X3962120Y430572D01*
X3961898Y430350D01*
X3961787Y430128D01*
X3961676Y430072D01*
X3961620Y430017D01*
X3960954Y429517D01*
X3960289Y429074D01*
X3959567Y428685D01*
X3958845Y428352D01*
X3957458Y427853D01*
X3956070Y427519D01*
X3955460Y427353D01*
X3954849Y427298D01*
X3954350Y427242D01*
X3953906Y427187D01*
X3953517Y427131D01*
X3953018D01*
X3951852Y427187D01*
X3950742Y427353D01*
X3949688Y427575D01*
X3948744Y427853D01*
X3947856Y428241D01*
X3947024Y428630D01*
X3946247Y429018D01*
X3945581Y429462D01*
X3944970Y429906D01*
X3944416Y430295D01*
X3943972Y430738D01*
X3943583Y431072D01*
X3943305Y431349D01*
X3943084Y431571D01*
X3942972Y431738D01*
X3942917Y431793D01*
X3942362Y432514D01*
X3941918Y433291D01*
X3941474Y434013D01*
X3941141Y434790D01*
X3940586Y436288D01*
X3940253Y437731D01*
X3940142Y438342D01*
X3940031Y438952D01*
X3939976Y439452D01*
X3939920Y439896D01*
X3939865Y440284D01*
Y440562D01*
Y440728D01*
Y440784D01*
X3939920Y441783D01*
X3940031Y442726D01*
X3940198Y443670D01*
X3940419Y444502D01*
X3940697Y445279D01*
X3940974Y446057D01*
X3941307Y446723D01*
X3941585Y447333D01*
X3941918Y447888D01*
X3942251Y448387D01*
X3942528Y448776D01*
X3942806Y449164D01*
X3943028Y449442D01*
X3943195Y449608D01*
X3943305Y449719D01*
X3943361Y449775D01*
X3944027Y450385D01*
X3944693Y450940D01*
X3945414Y451385D01*
X3946136Y451773D01*
X3946858Y452161D01*
X3947579Y452439D01*
X3948911Y452827D01*
X3949521Y452994D01*
X3950077Y453105D01*
X3950576Y453161D01*
X3951020Y453216D01*
X3951353Y453272D01*
X3952574D01*
X3953240Y453161D01*
X3954572Y452883D01*
X3955793Y452495D01*
X3956903Y452050D01*
X3957791Y451606D01*
X3958180Y451385D01*
X3958512Y451218D01*
X3958790Y451051D01*
X3958956Y450940D01*
X3959068Y450885D01*
X3959123Y450829D01*
X3957070Y461208D01*
X3941696D01*
Y465704D01*
X3960788D01*
X3964506Y445945D01*
D02*
G37*
G36*
X4002135Y427797D02*
X3988316D01*
X3987039Y427853D01*
X3985874Y427908D01*
X3984820Y428019D01*
X3983932Y428130D01*
X3983155Y428241D01*
X3982599Y428296D01*
X3982433Y428352D01*
X3982267Y428408D01*
X3982155D01*
X3981157Y428685D01*
X3980269Y429018D01*
X3979492Y429296D01*
X3978825Y429628D01*
X3978271Y429906D01*
X3977882Y430128D01*
X3977660Y430295D01*
X3977549Y430350D01*
X3976827Y430849D01*
X3976217Y431460D01*
X3975606Y432015D01*
X3975107Y432570D01*
X3974663Y433070D01*
X3974330Y433458D01*
X3974108Y433736D01*
X3974052Y433846D01*
X3973497Y434735D01*
X3972943Y435678D01*
X3972499Y436566D01*
X3972166Y437454D01*
X3971832Y438231D01*
X3971610Y438841D01*
X3971555Y439063D01*
X3971499Y439230D01*
X3971444Y439341D01*
Y439397D01*
X3971111Y440728D01*
X3970834Y442060D01*
X3970667Y443337D01*
X3970501Y444558D01*
X3970445Y445613D01*
Y446057D01*
X3970390Y446445D01*
Y446723D01*
Y447000D01*
Y447111D01*
Y447166D01*
X3970445Y449053D01*
X3970611Y450774D01*
X3970889Y452328D01*
X3971000Y453050D01*
X3971166Y453660D01*
X3971333Y454271D01*
X3971444Y454770D01*
X3971555Y455214D01*
X3971722Y455603D01*
X3971777Y455935D01*
X3971888Y456158D01*
X3971943Y456269D01*
Y456324D01*
X3972554Y457767D01*
X3973276Y459043D01*
X3974052Y460154D01*
X3974774Y461097D01*
X3975440Y461874D01*
X3975995Y462429D01*
X3976217Y462596D01*
X3976383Y462762D01*
X3976439Y462817D01*
X3976494Y462873D01*
X3977383Y463594D01*
X3978326Y464149D01*
X3979269Y464649D01*
X3980157Y465038D01*
X3980934Y465315D01*
X3981545Y465481D01*
X3981767Y465592D01*
X3981934D01*
X3982044Y465648D01*
X3982100D01*
X3983044Y465815D01*
X3984153Y465981D01*
X3985264Y466092D01*
X3986374Y466147D01*
X3987372Y466203D01*
X4002135D01*
Y427797D01*
D02*
G37*
G36*
X3487914D02*
X3474094D01*
X3472818Y427853D01*
X3471652Y427908D01*
X3470597Y428019D01*
X3469709Y428130D01*
X3468932Y428241D01*
X3468378Y428296D01*
X3468211Y428352D01*
X3468044Y428408D01*
X3467934D01*
X3466934Y428685D01*
X3466046Y429018D01*
X3465269Y429296D01*
X3464604Y429628D01*
X3464048Y429906D01*
X3463660Y430128D01*
X3463438Y430295D01*
X3463327Y430350D01*
X3462606Y430849D01*
X3461995Y431460D01*
X3461385Y432015D01*
X3460885Y432570D01*
X3460441Y433070D01*
X3460108Y433458D01*
X3459886Y433736D01*
X3459831Y433846D01*
X3459276Y434735D01*
X3458720Y435678D01*
X3458276Y436566D01*
X3457943Y437454D01*
X3457610Y438231D01*
X3457389Y438841D01*
X3457333Y439063D01*
X3457278Y439230D01*
X3457222Y439341D01*
Y439397D01*
X3456889Y440728D01*
X3456611Y442060D01*
X3456445Y443337D01*
X3456278Y444558D01*
X3456223Y445613D01*
Y446057D01*
X3456168Y446445D01*
Y446723D01*
Y447000D01*
Y447111D01*
Y447166D01*
X3456223Y449053D01*
X3456390Y450774D01*
X3456667Y452328D01*
X3456778Y453050D01*
X3456945Y453660D01*
X3457111Y454271D01*
X3457222Y454770D01*
X3457333Y455214D01*
X3457499Y455603D01*
X3457555Y455935D01*
X3457666Y456158D01*
X3457722Y456269D01*
Y456324D01*
X3458332Y457767D01*
X3459053Y459043D01*
X3459831Y460154D01*
X3460552Y461097D01*
X3461218Y461874D01*
X3461773Y462429D01*
X3461995Y462596D01*
X3462162Y462762D01*
X3462217Y462817D01*
X3462273Y462873D01*
X3463160Y463594D01*
X3464104Y464149D01*
X3465048Y464649D01*
X3465936Y465038D01*
X3466713Y465315D01*
X3467323Y465481D01*
X3467545Y465592D01*
X3467711D01*
X3467823Y465648D01*
X3467878D01*
X3468822Y465815D01*
X3469932Y465981D01*
X3471041Y466092D01*
X3472151Y466147D01*
X3473151Y466203D01*
X3487914D01*
Y427797D01*
D02*
G37*
G36*
X3452727Y441339D02*
Y437010D01*
X3436021D01*
Y427797D01*
X3431303D01*
Y437010D01*
X3426086D01*
Y441339D01*
X3431303D01*
Y466203D01*
X3435133D01*
X3452727Y441339D01*
D02*
G37*
%LPC*%
G36*
X5038891Y461652D02*
X5030011D01*
X5029289Y461596D01*
X5028568D01*
X5027902Y461541D01*
X5026792Y461375D01*
X5025904Y461264D01*
X5025182Y461097D01*
X5024683Y460930D01*
X5024405Y460875D01*
X5024294Y460820D01*
X5023295Y460320D01*
X5022352Y459709D01*
X5021519Y458988D01*
X5020798Y458267D01*
X5020243Y457601D01*
X5019799Y457046D01*
X5019688Y456824D01*
X5019577Y456657D01*
X5019466Y456546D01*
Y456490D01*
X5019133Y455880D01*
X5018800Y455159D01*
X5018300Y453716D01*
X5017967Y452161D01*
X5017690Y450663D01*
X5017634Y449997D01*
X5017579Y449331D01*
X5017523Y448776D01*
Y448276D01*
X5017468Y447832D01*
Y447555D01*
Y447333D01*
Y447277D01*
X5017523Y445724D01*
X5017634Y444281D01*
X5017801Y443004D01*
X5017967Y441894D01*
X5018078Y441450D01*
X5018189Y441062D01*
X5018300Y440673D01*
X5018356Y440396D01*
X5018411Y440173D01*
X5018467Y440007D01*
X5018522Y439896D01*
Y439841D01*
X5018911Y438786D01*
X5019355Y437842D01*
X5019854Y437010D01*
X5020298Y436288D01*
X5020687Y435733D01*
X5021020Y435345D01*
X5021242Y435123D01*
X5021297Y435012D01*
X5021852Y434568D01*
X5022407Y434180D01*
X5022962Y433846D01*
X5023517Y433514D01*
X5024017Y433291D01*
X5024405Y433125D01*
X5024683Y433070D01*
X5024794Y433014D01*
X5025626Y432792D01*
X5026625Y432625D01*
X5027624Y432514D01*
X5028568Y432459D01*
X5029400Y432404D01*
X5029789Y432348D01*
X5038891D01*
Y461652D01*
D02*
G37*
G36*
X4484657Y448387D02*
X4484324D01*
X4483159Y448276D01*
X4482104Y447999D01*
X4481216Y447666D01*
X4480439Y447222D01*
X4479829Y446778D01*
X4479385Y446445D01*
X4479107Y446168D01*
X4478996Y446057D01*
X4478275Y445113D01*
X4477720Y444114D01*
X4477331Y443060D01*
X4477109Y442060D01*
X4476943Y441173D01*
X4476887Y440784D01*
Y440451D01*
X4476832Y440173D01*
Y439952D01*
Y439841D01*
Y439785D01*
X4476943Y438286D01*
X4477165Y437010D01*
X4477498Y435900D01*
X4477886Y434957D01*
X4478330Y434235D01*
X4478663Y433680D01*
X4478885Y433347D01*
X4478996Y433291D01*
Y433236D01*
X4479385Y432792D01*
X4479829Y432459D01*
X4480717Y431849D01*
X4481605Y431460D01*
X4482382Y431127D01*
X4483103Y430961D01*
X4483658Y430905D01*
X4483880Y430849D01*
X4484158D01*
X4484935Y430905D01*
X4485656Y431016D01*
X4486322Y431238D01*
X4486877Y431460D01*
X4487377Y431627D01*
X4487765Y431849D01*
X4487987Y431959D01*
X4488098Y432015D01*
X4488764Y432514D01*
X4489319Y433014D01*
X4489819Y433625D01*
X4490207Y434124D01*
X4490540Y434623D01*
X4490762Y435012D01*
X4490929Y435289D01*
X4490984Y435401D01*
X4491317Y436233D01*
X4491539Y437065D01*
X4491761Y437842D01*
X4491872Y438564D01*
X4491928Y439175D01*
X4491983Y439674D01*
Y439952D01*
Y440062D01*
X4491872Y441394D01*
X4491650Y442560D01*
X4491262Y443615D01*
X4490873Y444447D01*
X4490485Y445168D01*
X4490096Y445668D01*
X4489874Y445945D01*
X4489763Y446057D01*
X4488875Y446834D01*
X4487987Y447389D01*
X4487044Y447832D01*
X4486211Y448110D01*
X4485434Y448276D01*
X4484879Y448332D01*
X4484657Y448387D01*
D02*
G37*
G36*
X4528891Y461486D02*
X4520011D01*
X4519289Y461430D01*
X4518568D01*
X4517902Y461375D01*
X4516792Y461208D01*
X4515904Y461097D01*
X4515182Y460930D01*
X4514683Y460764D01*
X4514405Y460709D01*
X4514294Y460653D01*
X4513295Y460154D01*
X4512352Y459543D01*
X4511519Y458822D01*
X4510798Y458100D01*
X4510243Y457434D01*
X4509799Y456879D01*
X4509688Y456657D01*
X4509577Y456490D01*
X4509466Y456380D01*
Y456324D01*
X4509133Y455714D01*
X4508800Y454992D01*
X4508300Y453549D01*
X4507967Y451995D01*
X4507690Y450497D01*
X4507634Y449830D01*
X4507579Y449164D01*
X4507523Y448610D01*
Y448110D01*
X4507468Y447666D01*
Y447389D01*
Y447166D01*
Y447111D01*
X4507523Y445557D01*
X4507634Y444114D01*
X4507801Y442837D01*
X4507967Y441728D01*
X4508078Y441284D01*
X4508189Y440895D01*
X4508300Y440507D01*
X4508356Y440229D01*
X4508411Y440007D01*
X4508467Y439841D01*
X4508522Y439729D01*
Y439674D01*
X4508911Y438620D01*
X4509355Y437676D01*
X4509854Y436844D01*
X4510298Y436122D01*
X4510687Y435567D01*
X4511020Y435178D01*
X4511242Y434957D01*
X4511297Y434846D01*
X4511852Y434401D01*
X4512407Y434013D01*
X4512962Y433680D01*
X4513517Y433347D01*
X4514017Y433125D01*
X4514405Y432959D01*
X4514683Y432903D01*
X4514794Y432848D01*
X4515626Y432625D01*
X4516625Y432459D01*
X4517624Y432348D01*
X4518568Y432293D01*
X4519400Y432237D01*
X4519789Y432182D01*
X4528891D01*
Y461486D01*
D02*
G37*
G36*
X3997030Y461652D02*
X3988149D01*
X3987428Y461596D01*
X3986706D01*
X3986041Y461541D01*
X3984930Y461375D01*
X3984043Y461264D01*
X3983321Y461097D01*
X3982822Y460930D01*
X3982544Y460875D01*
X3982433Y460820D01*
X3981434Y460320D01*
X3980490Y459709D01*
X3979658Y458988D01*
X3978936Y458267D01*
X3978381Y457601D01*
X3977938Y457046D01*
X3977827Y456824D01*
X3977715Y456657D01*
X3977604Y456546D01*
Y456490D01*
X3977271Y455880D01*
X3976939Y455159D01*
X3976439Y453716D01*
X3976106Y452161D01*
X3975829Y450663D01*
X3975773Y449997D01*
X3975718Y449331D01*
X3975662Y448776D01*
Y448276D01*
X3975606Y447832D01*
Y447555D01*
Y447333D01*
Y447277D01*
X3975662Y445724D01*
X3975773Y444281D01*
X3975939Y443004D01*
X3976106Y441894D01*
X3976217Y441450D01*
X3976328Y441062D01*
X3976439Y440673D01*
X3976494Y440396D01*
X3976550Y440173D01*
X3976606Y440007D01*
X3976661Y439896D01*
Y439841D01*
X3977050Y438786D01*
X3977494Y437842D01*
X3977993Y437010D01*
X3978437Y436288D01*
X3978825Y435733D01*
X3979159Y435345D01*
X3979381Y435123D01*
X3979436Y435012D01*
X3979991Y434568D01*
X3980546Y434180D01*
X3981101Y433846D01*
X3981656Y433514D01*
X3982155Y433291D01*
X3982544Y433125D01*
X3982822Y433070D01*
X3982932Y433014D01*
X3983765Y432792D01*
X3984764Y432625D01*
X3985763Y432514D01*
X3986706Y432459D01*
X3987539Y432404D01*
X3987927Y432348D01*
X3997030D01*
Y461652D01*
D02*
G37*
G36*
X3482807D02*
X3473927D01*
X3473206Y461596D01*
X3472485D01*
X3471818Y461541D01*
X3470709Y461375D01*
X3469820Y461264D01*
X3469099Y461097D01*
X3468599Y460930D01*
X3468322Y460875D01*
X3468211Y460820D01*
X3467212Y460320D01*
X3466269Y459709D01*
X3465436Y458988D01*
X3464715Y458267D01*
X3464160Y457601D01*
X3463715Y457046D01*
X3463604Y456824D01*
X3463494Y456657D01*
X3463383Y456546D01*
Y456490D01*
X3463050Y455880D01*
X3462716Y455159D01*
X3462217Y453716D01*
X3461884Y452161D01*
X3461606Y450663D01*
X3461551Y449997D01*
X3461495Y449331D01*
X3461440Y448776D01*
Y448276D01*
X3461385Y447832D01*
Y447555D01*
Y447333D01*
Y447277D01*
X3461440Y445724D01*
X3461551Y444281D01*
X3461718Y443004D01*
X3461884Y441894D01*
X3461995Y441450D01*
X3462106Y441062D01*
X3462217Y440673D01*
X3462273Y440396D01*
X3462328Y440173D01*
X3462383Y440007D01*
X3462439Y439896D01*
Y439841D01*
X3462827Y438786D01*
X3463271Y437842D01*
X3463771Y437010D01*
X3464215Y436288D01*
X3464604Y435733D01*
X3464936Y435345D01*
X3465159Y435123D01*
X3465214Y435012D01*
X3465769Y434568D01*
X3466324Y434180D01*
X3466879Y433846D01*
X3467434Y433514D01*
X3467934Y433291D01*
X3468322Y433125D01*
X3468599Y433070D01*
X3468711Y433014D01*
X3469543Y432792D01*
X3470542Y432625D01*
X3471541Y432514D01*
X3472485Y432459D01*
X3473317Y432404D01*
X3473706Y432348D01*
X3482807D01*
Y461652D01*
D02*
G37*
G36*
X3436021Y458544D02*
Y441339D01*
X3448120D01*
X3436021Y458544D01*
D02*
G37*
%LPD*%
D66*
X3374063Y593165D02*
G03*
X3374063Y593165I-4921J0D01*
G01*
X4918063D02*
G03*
X4918063Y593165I-4921J0D01*
G01*
X4400063D02*
G03*
X4400063Y593165I-4921J0D01*
G01*
X3879730D02*
G03*
X3879730Y593165I-4921J0D01*
G01*
D67*
X3387449Y600055D02*
X3568551D01*
X3387449Y481945D02*
X3568551D01*
Y587260D02*
Y600055D01*
X3387449Y587260D02*
Y600055D01*
X3568551Y481945D02*
Y494740D01*
X3387449Y481945D02*
Y494740D01*
X4931449Y600055D02*
X5112551D01*
X4931449Y481945D02*
X5112551D01*
Y587260D02*
Y600055D01*
X4931449Y587260D02*
Y600055D01*
X5112551Y481945D02*
Y494740D01*
X4931449Y481945D02*
Y494740D01*
X4413449Y600055D02*
X4594551D01*
X4413449Y481945D02*
X4594551D01*
Y587260D02*
Y600055D01*
X4413449Y587260D02*
Y600055D01*
X4594551Y481945D02*
Y494740D01*
X4413449Y481945D02*
Y494740D01*
X3893115Y600055D02*
X4074218D01*
X3893115Y481945D02*
X4074218D01*
Y587260D02*
Y600055D01*
X3893115Y587260D02*
Y600055D01*
X4074218Y481945D02*
Y494740D01*
X3893115Y481945D02*
Y494740D01*
D68*
X3441464Y542772D02*
D03*
X4985465D02*
D03*
X4467465D02*
D03*
X3947131D02*
D03*
%TF.MD5,26f876e5f0daf52bbee8f06d5d216a87*%
M02*
