%TF.GenerationSoftware,Altium Limited,Altium Designer,21.3.2 (30)*%
G04 Layer_Physical_Order=1*
G04 Layer_Color=255*
%FSLAX26Y26*%
%MOIN*%
%TF.SameCoordinates,FFAA3912-E1DC-4B59-95C2-56FC1F4E7B50*%
%TF.FilePolarity,Positive*%
%TF.FileFunction,Copper,L1,Top,Signal*%
%TF.Part,Single*%
G01*
G75*
%TA.AperFunction,SMDPad,CuDef*%
%ADD10R,0.220472X0.165354*%
%ADD11R,0.216535X0.088583*%
G04:AMPARAMS|DCode=12|XSize=23.622mil|YSize=47.244mil|CornerRadius=5.906mil|HoleSize=0mil|Usage=FLASHONLY|Rotation=90.000|XOffset=0mil|YOffset=0mil|HoleType=Round|Shape=RoundedRectangle|*
%AMROUNDEDRECTD12*
21,1,0.023622,0.035433,0,0,90.0*
21,1,0.011811,0.047244,0,0,90.0*
1,1,0.011811,0.017717,0.005906*
1,1,0.011811,0.017717,-0.005906*
1,1,0.011811,-0.017717,-0.005906*
1,1,0.011811,-0.017717,0.005906*
%
%ADD12ROUNDEDRECTD12*%
G04:AMPARAMS|DCode=13|XSize=31.496mil|YSize=47.244mil|CornerRadius=7.874mil|HoleSize=0mil|Usage=FLASHONLY|Rotation=90.000|XOffset=0mil|YOffset=0mil|HoleType=Round|Shape=RoundedRectangle|*
%AMROUNDEDRECTD13*
21,1,0.031496,0.031496,0,0,90.0*
21,1,0.015748,0.047244,0,0,90.0*
1,1,0.015748,0.015748,0.007874*
1,1,0.015748,0.015748,-0.007874*
1,1,0.015748,-0.015748,-0.007874*
1,1,0.015748,-0.015748,0.007874*
%
%ADD13ROUNDEDRECTD13*%
%ADD14O,0.059843X0.031496*%
G04:AMPARAMS|DCode=15|XSize=31.496mil|YSize=59.843mil|CornerRadius=7.874mil|HoleSize=0mil|Usage=FLASHONLY|Rotation=90.000|XOffset=0mil|YOffset=0mil|HoleType=Round|Shape=RoundedRectangle|*
%AMROUNDEDRECTD15*
21,1,0.031496,0.044094,0,0,90.0*
21,1,0.015748,0.059843,0,0,90.0*
1,1,0.015748,0.022047,0.007874*
1,1,0.015748,0.022047,-0.007874*
1,1,0.015748,-0.022047,-0.007874*
1,1,0.015748,-0.022047,0.007874*
%
%ADD15ROUNDEDRECTD15*%
%ADD16R,0.051181X0.061024*%
G04:AMPARAMS|DCode=17|XSize=47.244mil|YSize=35.433mil|CornerRadius=8.858mil|HoleSize=0mil|Usage=FLASHONLY|Rotation=180.000|XOffset=0mil|YOffset=0mil|HoleType=Round|Shape=RoundedRectangle|*
%AMROUNDEDRECTD17*
21,1,0.047244,0.017717,0,0,180.0*
21,1,0.029528,0.035433,0,0,180.0*
1,1,0.017716,-0.014764,0.008858*
1,1,0.017716,0.014764,0.008858*
1,1,0.017716,0.014764,-0.008858*
1,1,0.017716,-0.014764,-0.008858*
%
%ADD17ROUNDEDRECTD17*%
G04:AMPARAMS|DCode=18|XSize=47.244mil|YSize=35.433mil|CornerRadius=8.858mil|HoleSize=0mil|Usage=FLASHONLY|Rotation=270.000|XOffset=0mil|YOffset=0mil|HoleType=Round|Shape=RoundedRectangle|*
%AMROUNDEDRECTD18*
21,1,0.047244,0.017717,0,0,270.0*
21,1,0.029528,0.035433,0,0,270.0*
1,1,0.017716,-0.008858,-0.014764*
1,1,0.017716,-0.008858,0.014764*
1,1,0.017716,0.008858,0.014764*
1,1,0.017716,0.008858,-0.014764*
%
%ADD18ROUNDEDRECTD18*%
G04:AMPARAMS|DCode=19|XSize=62.992mil|YSize=41.339mil|CornerRadius=10.335mil|HoleSize=0mil|Usage=FLASHONLY|Rotation=180.000|XOffset=0mil|YOffset=0mil|HoleType=Round|Shape=RoundedRectangle|*
%AMROUNDEDRECTD19*
21,1,0.062992,0.020669,0,0,180.0*
21,1,0.042323,0.041339,0,0,180.0*
1,1,0.020669,-0.021162,0.010335*
1,1,0.020669,0.021162,0.010335*
1,1,0.020669,0.021162,-0.010335*
1,1,0.020669,-0.021162,-0.010335*
%
%ADD19ROUNDEDRECTD19*%
G04:AMPARAMS|DCode=20|XSize=135.827mil|YSize=62.992mil|CornerRadius=15.748mil|HoleSize=0mil|Usage=FLASHONLY|Rotation=0.000|XOffset=0mil|YOffset=0mil|HoleType=Round|Shape=RoundedRectangle|*
%AMROUNDEDRECTD20*
21,1,0.135827,0.031496,0,0,0.0*
21,1,0.104331,0.062992,0,0,0.0*
1,1,0.031496,0.052165,-0.015748*
1,1,0.031496,-0.052165,-0.015748*
1,1,0.031496,-0.052165,0.015748*
1,1,0.031496,0.052165,0.015748*
%
%ADD20ROUNDEDRECTD20*%
G04:AMPARAMS|DCode=21|XSize=94.488mil|YSize=82.677mil|CornerRadius=20.669mil|HoleSize=0mil|Usage=FLASHONLY|Rotation=0.000|XOffset=0mil|YOffset=0mil|HoleType=Round|Shape=RoundedRectangle|*
%AMROUNDEDRECTD21*
21,1,0.094488,0.041339,0,0,0.0*
21,1,0.053150,0.082677,0,0,0.0*
1,1,0.041339,0.026575,-0.020669*
1,1,0.041339,-0.026575,-0.020669*
1,1,0.041339,-0.026575,0.020669*
1,1,0.041339,0.026575,0.020669*
%
%ADD21ROUNDEDRECTD21*%
G04:AMPARAMS|DCode=22|XSize=78.74mil|YSize=78.74mil|CornerRadius=19.685mil|HoleSize=0mil|Usage=FLASHONLY|Rotation=270.000|XOffset=0mil|YOffset=0mil|HoleType=Round|Shape=RoundedRectangle|*
%AMROUNDEDRECTD22*
21,1,0.078740,0.039370,0,0,270.0*
21,1,0.039370,0.078740,0,0,270.0*
1,1,0.039370,-0.019685,-0.019685*
1,1,0.039370,-0.019685,0.019685*
1,1,0.039370,0.019685,0.019685*
1,1,0.039370,0.019685,-0.019685*
%
%ADD22ROUNDEDRECTD22*%
G04:AMPARAMS|DCode=23|XSize=59.055mil|YSize=55.118mil|CornerRadius=13.78mil|HoleSize=0mil|Usage=FLASHONLY|Rotation=0.000|XOffset=0mil|YOffset=0mil|HoleType=Round|Shape=RoundedRectangle|*
%AMROUNDEDRECTD23*
21,1,0.059055,0.027559,0,0,0.0*
21,1,0.031496,0.055118,0,0,0.0*
1,1,0.027559,0.015748,-0.013780*
1,1,0.027559,-0.015748,-0.013780*
1,1,0.027559,-0.015748,0.013780*
1,1,0.027559,0.015748,0.013780*
%
%ADD23ROUNDEDRECTD23*%
%ADD24R,0.035433X0.059055*%
%ADD25R,0.059055X0.035433*%
%TA.AperFunction,BGAPad,CuDef*%
%ADD26R,0.035433X0.035433*%
%TA.AperFunction,SMDPad,CuDef*%
G04:AMPARAMS|DCode=27|XSize=125.984mil|YSize=62.992mil|CornerRadius=15.748mil|HoleSize=0mil|Usage=FLASHONLY|Rotation=90.000|XOffset=0mil|YOffset=0mil|HoleType=Round|Shape=RoundedRectangle|*
%AMROUNDEDRECTD27*
21,1,0.125984,0.031496,0,0,90.0*
21,1,0.094488,0.062992,0,0,90.0*
1,1,0.031496,0.015748,0.047244*
1,1,0.031496,0.015748,-0.047244*
1,1,0.031496,-0.015748,-0.047244*
1,1,0.031496,-0.015748,0.047244*
%
%ADD27ROUNDEDRECTD27*%
G04:AMPARAMS|DCode=28|XSize=161.417mil|YSize=78.74mil|CornerRadius=19.685mil|HoleSize=0mil|Usage=FLASHONLY|Rotation=0.000|XOffset=0mil|YOffset=0mil|HoleType=Round|Shape=RoundedRectangle|*
%AMROUNDEDRECTD28*
21,1,0.161417,0.039370,0,0,0.0*
21,1,0.122047,0.078740,0,0,0.0*
1,1,0.039370,0.061024,-0.019685*
1,1,0.039370,-0.061024,-0.019685*
1,1,0.039370,-0.061024,0.019685*
1,1,0.039370,0.061024,0.019685*
%
%ADD28ROUNDEDRECTD28*%
G04:AMPARAMS|DCode=29|XSize=397.638mil|YSize=358.268mil|CornerRadius=89.567mil|HoleSize=0mil|Usage=FLASHONLY|Rotation=180.000|XOffset=0mil|YOffset=0mil|HoleType=Round|Shape=RoundedRectangle|*
%AMROUNDEDRECTD29*
21,1,0.397638,0.179134,0,0,180.0*
21,1,0.218504,0.358268,0,0,180.0*
1,1,0.179134,-0.109252,0.089567*
1,1,0.179134,0.109252,0.089567*
1,1,0.179134,0.109252,-0.089567*
1,1,0.179134,-0.109252,-0.089567*
%
%ADD29ROUNDEDRECTD29*%
G04:AMPARAMS|DCode=30|XSize=43.307mil|YSize=127.953mil|CornerRadius=10.827mil|HoleSize=0mil|Usage=FLASHONLY|Rotation=180.000|XOffset=0mil|YOffset=0mil|HoleType=Round|Shape=RoundedRectangle|*
%AMROUNDEDRECTD30*
21,1,0.043307,0.106299,0,0,180.0*
21,1,0.021654,0.127953,0,0,180.0*
1,1,0.021654,-0.010827,0.053150*
1,1,0.021654,0.010827,0.053150*
1,1,0.021654,0.010827,-0.053150*
1,1,0.021654,-0.010827,-0.053150*
%
%ADD30ROUNDEDRECTD30*%
G04:AMPARAMS|DCode=31|XSize=31.496mil|YSize=35.433mil|CornerRadius=7.874mil|HoleSize=0mil|Usage=FLASHONLY|Rotation=90.000|XOffset=0mil|YOffset=0mil|HoleType=Round|Shape=RoundedRectangle|*
%AMROUNDEDRECTD31*
21,1,0.031496,0.019685,0,0,90.0*
21,1,0.015748,0.035433,0,0,90.0*
1,1,0.015748,0.009843,0.007874*
1,1,0.015748,0.009843,-0.007874*
1,1,0.015748,-0.009843,-0.007874*
1,1,0.015748,-0.009843,0.007874*
%
%ADD31ROUNDEDRECTD31*%
G04:AMPARAMS|DCode=32|XSize=31.496mil|YSize=39.37mil|CornerRadius=7.874mil|HoleSize=0mil|Usage=FLASHONLY|Rotation=90.000|XOffset=0mil|YOffset=0mil|HoleType=Round|Shape=RoundedRectangle|*
%AMROUNDEDRECTD32*
21,1,0.031496,0.023622,0,0,90.0*
21,1,0.015748,0.039370,0,0,90.0*
1,1,0.015748,0.011811,0.007874*
1,1,0.015748,0.011811,-0.007874*
1,1,0.015748,-0.011811,-0.007874*
1,1,0.015748,-0.011811,0.007874*
%
%ADD32ROUNDEDRECTD32*%
G04:AMPARAMS|DCode=33|XSize=78.74mil|YSize=78.74mil|CornerRadius=19.685mil|HoleSize=0mil|Usage=FLASHONLY|Rotation=180.000|XOffset=0mil|YOffset=0mil|HoleType=Round|Shape=RoundedRectangle|*
%AMROUNDEDRECTD33*
21,1,0.078740,0.039370,0,0,180.0*
21,1,0.039370,0.078740,0,0,180.0*
1,1,0.039370,-0.019685,0.019685*
1,1,0.039370,0.019685,0.019685*
1,1,0.039370,0.019685,-0.019685*
1,1,0.039370,-0.019685,-0.019685*
%
%ADD33ROUNDEDRECTD33*%
%ADD34R,0.011811X0.007874*%
%ADD35R,0.055118X0.138189*%
G04:AMPARAMS|DCode=36|XSize=31.496mil|YSize=62.992mil|CornerRadius=7.874mil|HoleSize=0mil|Usage=FLASHONLY|Rotation=270.000|XOffset=0mil|YOffset=0mil|HoleType=Round|Shape=RoundedRectangle|*
%AMROUNDEDRECTD36*
21,1,0.031496,0.047244,0,0,270.0*
21,1,0.015748,0.062992,0,0,270.0*
1,1,0.015748,-0.023622,-0.007874*
1,1,0.015748,-0.023622,0.007874*
1,1,0.015748,0.023622,0.007874*
1,1,0.015748,0.023622,-0.007874*
%
%ADD36ROUNDEDRECTD36*%
%ADD37O,0.062992X0.031496*%
%ADD38R,0.067000X0.021000*%
G04:AMPARAMS|DCode=39|XSize=94.488mil|YSize=82.677mil|CornerRadius=20.669mil|HoleSize=0mil|Usage=FLASHONLY|Rotation=270.000|XOffset=0mil|YOffset=0mil|HoleType=Round|Shape=RoundedRectangle|*
%AMROUNDEDRECTD39*
21,1,0.094488,0.041339,0,0,270.0*
21,1,0.053150,0.082677,0,0,270.0*
1,1,0.041339,-0.020669,-0.026575*
1,1,0.041339,-0.020669,0.026575*
1,1,0.041339,0.020669,0.026575*
1,1,0.041339,0.020669,-0.026575*
%
%ADD39ROUNDEDRECTD39*%
G04:AMPARAMS|DCode=40|XSize=31.496mil|YSize=59.843mil|CornerRadius=7.874mil|HoleSize=0mil|Usage=FLASHONLY|Rotation=0.000|XOffset=0mil|YOffset=0mil|HoleType=Round|Shape=RoundedRectangle|*
%AMROUNDEDRECTD40*
21,1,0.031496,0.044094,0,0,0.0*
21,1,0.015748,0.059843,0,0,0.0*
1,1,0.015748,0.007874,-0.022047*
1,1,0.015748,-0.007874,-0.022047*
1,1,0.015748,-0.007874,0.022047*
1,1,0.015748,0.007874,0.022047*
%
%ADD40ROUNDEDRECTD40*%
%ADD41O,0.031496X0.059843*%
%TA.AperFunction,Conductor*%
%ADD42C,0.010000*%
%ADD43C,0.020000*%
%ADD44C,0.040000*%
%ADD45C,0.100000*%
%TA.AperFunction,NonConductor*%
%ADD46C,0.010000*%
%TA.AperFunction,ComponentPad*%
G04:AMPARAMS|DCode=47|XSize=86.614mil|YSize=118.11mil|CornerRadius=21.654mil|HoleSize=0mil|Usage=FLASHONLY|Rotation=270.000|XOffset=0mil|YOffset=0mil|HoleType=Round|Shape=RoundedRectangle|*
%AMROUNDEDRECTD47*
21,1,0.086614,0.074803,0,0,270.0*
21,1,0.043307,0.118110,0,0,270.0*
1,1,0.043307,-0.037401,-0.021654*
1,1,0.043307,-0.037401,0.021654*
1,1,0.043307,0.037401,0.021654*
1,1,0.043307,0.037401,-0.021654*
%
%ADD47ROUNDEDRECTD47*%
%ADD48C,0.125984*%
%ADD49C,0.094488*%
%ADD50R,0.110000X0.120000*%
%ADD51O,0.110000X0.120000*%
%ADD52C,0.076772*%
%ADD53R,0.076772X0.076772*%
%ADD54R,0.060000X0.060000*%
%ADD55C,0.060000*%
%ADD56O,0.035748X0.071496*%
%ADD57C,0.037717*%
%ADD58O,0.075000X0.065000*%
%ADD59R,0.051496X0.051496*%
%ADD60C,0.051496*%
%TA.AperFunction,ViaPad*%
%ADD61C,0.020000*%
%ADD62C,0.216535*%
G36*
X5371747Y3280494D02*
X5382343Y3276105D01*
X5391441Y3269124D01*
X5398422Y3260026D01*
X5402811Y3249430D01*
X5404240Y3238573D01*
X5404138Y3238060D01*
Y2590115D01*
X5403979D01*
X5405788Y2571739D01*
X5411149Y2554069D01*
X5419853Y2537784D01*
X5431567Y2523510D01*
X5445841Y2511796D01*
X5462126Y2503091D01*
X5479796Y2497731D01*
X5498172Y2495921D01*
Y2496081D01*
X5619117D01*
X5619631Y2496183D01*
X5630488Y2494754D01*
X5641083Y2490365D01*
X5650181Y2483384D01*
X5657163Y2474285D01*
X5661551Y2463690D01*
X5662415Y2457128D01*
X5662878Y2452320D01*
X5662878Y2452320D01*
X5662878Y2447394D01*
X5662878Y955777D01*
X5662980Y955263D01*
X5661551Y944406D01*
X5657162Y933811D01*
X5650181Y924713D01*
X5641082Y917731D01*
X5630487Y913343D01*
X5619630Y911913D01*
X5619117Y912015D01*
X5498172D01*
Y912175D01*
X5479796Y910365D01*
X5462126Y905005D01*
X5445841Y896301D01*
X5431567Y884586D01*
X5419853Y870313D01*
X5411148Y854028D01*
X5405788Y836358D01*
X5403978Y817981D01*
X5404138D01*
Y170029D01*
X5404240Y169515D01*
X5402811Y158658D01*
X5398422Y148063D01*
X5391441Y138965D01*
X5382342Y131983D01*
X5371747Y127594D01*
X5360890Y126165D01*
X5360377Y126267D01*
X360377D01*
X359863Y126165D01*
X349007Y127594D01*
X338411Y131983D01*
X329313Y138965D01*
X322332Y148063D01*
X317943Y158658D01*
X316514Y169515D01*
X316616Y170029D01*
Y817981D01*
X316775D01*
X314965Y836358D01*
X309605Y854028D01*
X300901Y870313D01*
X289187Y884586D01*
X274913Y896301D01*
X258628Y905005D01*
X240958Y910365D01*
X222582Y912175D01*
Y912015D01*
X101637D01*
X101123Y911913D01*
X90266Y913343D01*
X79671Y917731D01*
X70573Y924713D01*
X63591Y933811D01*
X59203Y944406D01*
X57773Y955263D01*
X57875Y955777D01*
X57875Y2447394D01*
X57875Y2452131D01*
X57875Y2452320D01*
X58338Y2457128D01*
X59202Y2463690D01*
X63591Y2474285D01*
X70573Y2483384D01*
X79671Y2490365D01*
X90266Y2494754D01*
X101123Y2496183D01*
X101636Y2496081D01*
X222581D01*
Y2495921D01*
X240958Y2497731D01*
X258628Y2503091D01*
X274913Y2511796D01*
X289186Y2523510D01*
X300901Y2537784D01*
X309605Y2554069D01*
X314965Y2571739D01*
X316775Y2590115D01*
X316615D01*
Y3238060D01*
X316513Y3238573D01*
X317942Y3249430D01*
X322331Y3260026D01*
X329313Y3269124D01*
X338411Y3276105D01*
X349006Y3280494D01*
X355560Y3281357D01*
X360377Y3281821D01*
Y3281821D01*
X360377Y3281821D01*
X5360377D01*
X5360891Y3281923D01*
X5371747Y3280494D01*
D02*
G37*
%LPC*%
G36*
X2907000Y3262294D02*
X2838000D01*
X2832147Y3261130D01*
X2827186Y3257814D01*
X2811934Y3242562D01*
X2808618Y3237601D01*
X2807454Y3231748D01*
Y3208154D01*
X2805029Y3206754D01*
X2800148Y3201873D01*
X2797157Y3201605D01*
X2794167Y3201873D01*
X2789286Y3206754D01*
X2782706Y3210553D01*
X2775366Y3212520D01*
X2767768D01*
X2760428Y3210553D01*
X2753848Y3206754D01*
X2748475Y3201381D01*
X2744675Y3194800D01*
X2742709Y3187461D01*
Y3179862D01*
X2743434Y3177157D01*
X2713467Y3147190D01*
X2709359Y3149725D01*
X2709172Y3149966D01*
X2710115Y3157126D01*
Y3170000D01*
X2687000D01*
Y3129670D01*
X2689160Y3129954D01*
X2689401Y3129767D01*
X2691936Y3125659D01*
X2674186Y3107909D01*
X2670870Y3102947D01*
X2669706Y3097095D01*
Y2951990D01*
X2669045Y2951329D01*
X2666000Y2943978D01*
Y2936022D01*
X2669045Y2928671D01*
X2674671Y2923045D01*
X2682022Y2920000D01*
X2689978D01*
X2697329Y2923045D01*
X2702955Y2928671D01*
X2704706Y2932898D01*
X2709706Y2931903D01*
Y2653335D01*
X2708665Y2652294D01*
X2654892D01*
X2652537Y2655364D01*
X2647492Y2659235D01*
X2647136Y2661919D01*
Y2662081D01*
X2647492Y2664765D01*
X2652537Y2668636D01*
X2654892Y2671706D01*
X2660010D01*
X2662671Y2669045D01*
X2670022Y2666000D01*
X2677978D01*
X2685329Y2669045D01*
X2690955Y2674671D01*
X2694000Y2682022D01*
Y2689978D01*
X2690955Y2697329D01*
X2685329Y2702955D01*
X2677978Y2706000D01*
X2670022D01*
X2662671Y2702955D01*
X2662010Y2702294D01*
X2654892D01*
X2652537Y2705364D01*
X2647492Y2709235D01*
X2647136Y2711919D01*
Y2712081D01*
X2647492Y2714765D01*
X2652537Y2718636D01*
X2656664Y2724015D01*
X2659258Y2730278D01*
X2660143Y2737000D01*
X2659258Y2743722D01*
X2656664Y2749985D01*
X2652537Y2755364D01*
X2647492Y2759235D01*
X2647136Y2761919D01*
Y2762081D01*
X2647492Y2764765D01*
X2652537Y2768636D01*
X2654319Y2770959D01*
X2659534Y2771181D01*
X2660671Y2770045D01*
X2668022Y2767000D01*
X2675978D01*
X2683329Y2770045D01*
X2688955Y2775671D01*
X2692000Y2783022D01*
Y2790978D01*
X2688955Y2798329D01*
X2683329Y2803955D01*
X2675978Y2807000D01*
X2668022D01*
X2660671Y2803955D01*
X2659534Y2802819D01*
X2654319Y2803041D01*
X2652537Y2805364D01*
X2647492Y2809235D01*
X2647136Y2811919D01*
Y2812081D01*
X2647492Y2814765D01*
X2652537Y2818636D01*
X2654319Y2820959D01*
X2659534Y2821181D01*
X2660671Y2820045D01*
X2668022Y2817000D01*
X2675978D01*
X2683329Y2820045D01*
X2688955Y2825671D01*
X2692000Y2833022D01*
Y2840978D01*
X2688955Y2848329D01*
X2683329Y2853955D01*
X2675978Y2857000D01*
X2668022D01*
X2660671Y2853955D01*
X2659534Y2852819D01*
X2654319Y2853041D01*
X2652537Y2855364D01*
X2649922Y2857370D01*
X2649686Y2858657D01*
X2650467Y2863255D01*
X2654934Y2866240D01*
X2658884Y2872152D01*
X2660271Y2879126D01*
Y2882000D01*
X2620000D01*
X2579729D01*
Y2879126D01*
X2581116Y2872152D01*
X2585066Y2866240D01*
X2589533Y2863255D01*
X2590314Y2858657D01*
X2590078Y2857370D01*
X2587463Y2855364D01*
X2585108Y2852294D01*
X2567294D01*
Y3137543D01*
X2575439Y3139726D01*
X2584561Y3144992D01*
X2592008Y3152439D01*
X2597274Y3161561D01*
X2600000Y3171734D01*
Y3182266D01*
X2597274Y3192439D01*
X2592008Y3201561D01*
X2584561Y3209008D01*
X2575439Y3214274D01*
X2565266Y3217000D01*
X2554734D01*
X2544561Y3214274D01*
X2535439Y3209008D01*
X2527992Y3201561D01*
X2522726Y3192439D01*
X2520000Y3182266D01*
Y3171734D01*
X2522726Y3161561D01*
X2527992Y3152439D01*
X2535439Y3144992D01*
X2536706Y3144261D01*
Y3079456D01*
X2532087Y3077542D01*
X2475294Y3134335D01*
Y3139687D01*
X2475439Y3139726D01*
X2484561Y3144992D01*
X2492008Y3152439D01*
X2497274Y3161561D01*
X2500000Y3171734D01*
Y3182266D01*
X2497274Y3192439D01*
X2492008Y3201561D01*
X2484561Y3209008D01*
X2475439Y3214274D01*
X2465266Y3217000D01*
X2454734D01*
X2444561Y3214274D01*
X2435439Y3209008D01*
X2427992Y3201561D01*
X2422726Y3192439D01*
X2420000Y3182266D01*
Y3171734D01*
X2422726Y3161561D01*
X2427992Y3152439D01*
X2435439Y3144992D01*
X2444561Y3139726D01*
X2444706Y3139687D01*
Y3128000D01*
X2445870Y3122147D01*
X2449186Y3117186D01*
X2516706Y3049665D01*
Y2806000D01*
X2517870Y2800147D01*
X2521186Y2795186D01*
X2540186Y2776186D01*
X2545147Y2772870D01*
X2551000Y2771706D01*
X2585108D01*
X2587463Y2768636D01*
X2592508Y2764765D01*
X2592864Y2762081D01*
Y2761919D01*
X2592508Y2759235D01*
X2587463Y2755364D01*
X2583336Y2749985D01*
X2580742Y2743722D01*
X2579857Y2737000D01*
X2580742Y2730278D01*
X2583336Y2724015D01*
X2587463Y2718636D01*
X2592508Y2714765D01*
X2592864Y2712081D01*
Y2711919D01*
X2592508Y2709235D01*
X2587463Y2705364D01*
X2584340Y2701294D01*
X2336000D01*
X2330147Y2700130D01*
X2325186Y2696814D01*
X2301280Y2672909D01*
X2297965Y2667948D01*
X2297023Y2663209D01*
X2286815D01*
X2279066Y2662189D01*
X2271844Y2659198D01*
X2265643Y2654439D01*
X2260885Y2648238D01*
X2257894Y2641017D01*
X2256874Y2633268D01*
Y2593898D01*
X2257894Y2586148D01*
X2260885Y2578927D01*
X2265643Y2572726D01*
X2271844Y2567968D01*
X2279066Y2564977D01*
X2286815Y2563956D01*
X2326185D01*
X2333934Y2564977D01*
X2341156Y2567968D01*
X2347357Y2572726D01*
X2352115Y2578927D01*
X2355106Y2586148D01*
X2356126Y2593898D01*
Y2633268D01*
X2355106Y2641017D01*
X2352115Y2648238D01*
X2347357Y2654439D01*
X2341156Y2659198D01*
X2338852Y2660152D01*
X2337679Y2666050D01*
X2342335Y2670706D01*
X2585875D01*
X2587463Y2668636D01*
X2592508Y2664765D01*
X2592864Y2662081D01*
Y2661919D01*
X2592508Y2659235D01*
X2587463Y2655364D01*
X2583336Y2649985D01*
X2582589Y2648181D01*
X2519639D01*
X2519615Y2648238D01*
X2514857Y2654439D01*
X2508656Y2659198D01*
X2501434Y2662189D01*
X2493685Y2663209D01*
X2454315D01*
X2446566Y2662189D01*
X2439344Y2659198D01*
X2433143Y2654439D01*
X2428385Y2648238D01*
X2425394Y2641017D01*
X2424374Y2633268D01*
Y2593898D01*
X2425394Y2586148D01*
X2428385Y2578927D01*
X2433143Y2572726D01*
X2439344Y2567968D01*
X2446566Y2564977D01*
X2454315Y2563956D01*
X2493685D01*
X2501434Y2564977D01*
X2508656Y2567968D01*
X2514857Y2572726D01*
X2519615Y2578927D01*
X2522606Y2586148D01*
X2523626Y2593898D01*
Y2617593D01*
X2588823D01*
X2592508Y2614765D01*
X2592864Y2612081D01*
Y2611919D01*
X2592508Y2609235D01*
X2587463Y2605364D01*
X2583336Y2599985D01*
X2580742Y2593722D01*
X2579857Y2587000D01*
X2580742Y2580278D01*
X2583336Y2574015D01*
X2587463Y2568636D01*
X2592508Y2564765D01*
X2592864Y2562081D01*
Y2561919D01*
X2592508Y2559235D01*
X2587463Y2555364D01*
X2583336Y2549985D01*
X2580742Y2543722D01*
X2579857Y2537000D01*
X2580742Y2530278D01*
X2583336Y2524015D01*
X2587463Y2518636D01*
X2592842Y2514509D01*
X2599105Y2511915D01*
X2605827Y2511030D01*
X2634173D01*
X2638706Y2511627D01*
X2643706Y2508204D01*
Y2469129D01*
X2642784Y2468945D01*
X2636546Y2464777D01*
X2632378Y2458539D01*
X2630914Y2451181D01*
Y2421653D01*
X2632378Y2414295D01*
X2636546Y2408057D01*
X2642784Y2403889D01*
X2643706Y2403706D01*
Y2335335D01*
X2611570Y2303199D01*
X2611439Y2303274D01*
X2601266Y2306000D01*
X2590734D01*
X2580561Y2303274D01*
X2571439Y2298008D01*
X2563992Y2290561D01*
X2558726Y2281439D01*
X2556000Y2271266D01*
Y2260734D01*
X2558726Y2250561D01*
X2563992Y2241439D01*
X2571439Y2233992D01*
X2580561Y2228726D01*
X2590734Y2226000D01*
X2601266D01*
X2611439Y2228726D01*
X2620561Y2233992D01*
X2628008Y2241439D01*
X2633274Y2250561D01*
X2636000Y2260734D01*
Y2271266D01*
X2633274Y2281439D01*
X2633199Y2281570D01*
X2669814Y2318186D01*
X2673130Y2323147D01*
X2674294Y2329000D01*
Y2403706D01*
X2675216Y2403889D01*
X2681454Y2408057D01*
X2685622Y2414295D01*
X2687086Y2421653D01*
Y2451181D01*
X2685622Y2458539D01*
X2681454Y2464777D01*
X2675216Y2468945D01*
X2674294Y2469129D01*
Y2526627D01*
X2673130Y2532479D01*
X2669814Y2537441D01*
X2663554Y2543701D01*
X2658593Y2547017D01*
X2657831Y2547168D01*
X2656664Y2549985D01*
X2652537Y2555364D01*
X2647492Y2559235D01*
X2647136Y2561919D01*
Y2562081D01*
X2647492Y2564765D01*
X2652537Y2568636D01*
X2654892Y2571706D01*
X2705665D01*
X2721777Y2555594D01*
Y2469129D01*
X2720854Y2468945D01*
X2714617Y2464777D01*
X2710448Y2458539D01*
X2708985Y2451181D01*
Y2421653D01*
X2710448Y2414295D01*
X2714617Y2408057D01*
X2720854Y2403889D01*
X2721777Y2403706D01*
Y2324929D01*
X2722941Y2319076D01*
X2726256Y2314115D01*
X2758801Y2281570D01*
X2758726Y2281439D01*
X2756000Y2271266D01*
Y2260734D01*
X2758726Y2250561D01*
X2763992Y2241439D01*
X2771439Y2233992D01*
X2780561Y2228726D01*
X2790734Y2226000D01*
X2801266D01*
X2811439Y2228726D01*
X2820561Y2233992D01*
X2828008Y2241439D01*
X2833274Y2250561D01*
X2836000Y2260734D01*
Y2271266D01*
X2833274Y2281439D01*
X2828008Y2290561D01*
X2820561Y2298008D01*
X2811439Y2303274D01*
X2801266Y2306000D01*
X2790734D01*
X2780561Y2303274D01*
X2780430Y2303199D01*
X2752365Y2331264D01*
Y2403706D01*
X2753287Y2403889D01*
X2759525Y2408057D01*
X2763693Y2414295D01*
X2765157Y2421653D01*
Y2451181D01*
X2763693Y2458539D01*
X2759525Y2464777D01*
X2753287Y2468945D01*
X2752365Y2469129D01*
Y2561929D01*
X2751201Y2567782D01*
X2747885Y2572744D01*
X2722814Y2597814D01*
X2717853Y2601130D01*
X2712000Y2602294D01*
X2654892D01*
X2652537Y2605364D01*
X2647492Y2609235D01*
X2647136Y2611919D01*
Y2612081D01*
X2647492Y2614765D01*
X2652537Y2618636D01*
X2654892Y2621706D01*
X2715000D01*
X2720853Y2622870D01*
X2725814Y2626186D01*
X2735814Y2636186D01*
X2739130Y2641147D01*
X2740294Y2647000D01*
Y3065799D01*
X2790653Y3116158D01*
X2793358Y3115433D01*
X2800957D01*
X2808296Y3117400D01*
X2814877Y3121199D01*
X2819757Y3126079D01*
X2822748Y3126348D01*
X2825739Y3126079D01*
X2830619Y3121199D01*
X2837200Y3117400D01*
X2844539Y3115433D01*
X2852138D01*
X2859477Y3117400D01*
X2866058Y3121199D01*
X2871431Y3126572D01*
X2875230Y3133153D01*
X2877197Y3140492D01*
Y3148091D01*
X2876001Y3152552D01*
X2877729Y3154803D01*
X2885068Y3156770D01*
X2891648Y3160569D01*
X2896706Y3165627D01*
X2898117Y3165501D01*
X2901706Y3164056D01*
Y3124335D01*
X2883665Y3106294D01*
X2797000D01*
X2791147Y3105130D01*
X2786186Y3101814D01*
X2755186Y3070814D01*
X2751870Y3065853D01*
X2750706Y3060000D01*
Y2698990D01*
X2749045Y2697329D01*
X2746000Y2689978D01*
Y2682022D01*
X2749045Y2674671D01*
X2751461Y2672255D01*
X2751870Y2670197D01*
X2755186Y2665236D01*
X2760147Y2661920D01*
X2766000Y2660756D01*
X2771853Y2661920D01*
X2776814Y2665236D01*
X2780130Y2670197D01*
X2780539Y2672255D01*
X2782955Y2674671D01*
X2786000Y2682022D01*
Y2689978D01*
X2782955Y2697329D01*
X2781294Y2698990D01*
Y3053665D01*
X2803335Y3075706D01*
X2890000D01*
X2895853Y3076870D01*
X2900814Y3080186D01*
X2927814Y3107186D01*
X2931130Y3112147D01*
X2932294Y3118000D01*
Y3146551D01*
X2937294Y3147545D01*
X2939148Y3143069D01*
X2943616Y3137246D01*
X2949439Y3132778D01*
X2956219Y3129970D01*
X2958496Y3129670D01*
Y3175000D01*
Y3220330D01*
X2956219Y3220030D01*
X2949439Y3217222D01*
X2943616Y3212754D01*
X2939148Y3206931D01*
X2937294Y3202455D01*
X2932294Y3203449D01*
Y3237000D01*
X2931130Y3242853D01*
X2927814Y3247814D01*
X2917814Y3257814D01*
X2912853Y3261130D01*
X2907000Y3262294D01*
D02*
G37*
G36*
X2365266Y3217000D02*
X2365000D01*
Y3182000D01*
X2400000D01*
Y3182266D01*
X2397274Y3192439D01*
X2392008Y3201561D01*
X2384561Y3209008D01*
X2375439Y3214274D01*
X2365266Y3217000D01*
D02*
G37*
G36*
X2355000D02*
X2354734D01*
X2344561Y3214274D01*
X2335439Y3209008D01*
X2327992Y3201561D01*
X2322726Y3192439D01*
X2320000Y3182266D01*
Y3182000D01*
X2355000D01*
Y3217000D01*
D02*
G37*
G36*
X2968496Y3220330D02*
Y3180000D01*
X2991610D01*
Y3192874D01*
X2990653Y3200151D01*
X2987844Y3206931D01*
X2983376Y3212754D01*
X2977553Y3217222D01*
X2970773Y3220030D01*
X2968496Y3220330D01*
D02*
G37*
G36*
X2687000D02*
Y3180000D01*
X2710115D01*
Y3192874D01*
X2709157Y3200151D01*
X2706348Y3206931D01*
X2701880Y3212754D01*
X2696057Y3217222D01*
X2689277Y3220030D01*
X2687000Y3220330D01*
D02*
G37*
G36*
X2677000D02*
X2674723Y3220030D01*
X2667943Y3217222D01*
X2662120Y3212754D01*
X2657652Y3206931D01*
X2654843Y3200151D01*
X2653885Y3192874D01*
Y3180000D01*
X2677000D01*
Y3220330D01*
D02*
G37*
G36*
X3627323Y3205251D02*
X3623465D01*
Y3176260D01*
X3646550D01*
Y3186024D01*
X3645087Y3193382D01*
X3640919Y3199620D01*
X3634681Y3203788D01*
X3627323Y3205251D01*
D02*
G37*
G36*
X3231394D02*
X3227535D01*
Y3176260D01*
X3250622D01*
Y3186024D01*
X3249158Y3193382D01*
X3244990Y3199620D01*
X3238752Y3203788D01*
X3231394Y3205251D01*
D02*
G37*
G36*
X3217535D02*
X3213677D01*
X3206319Y3203788D01*
X3200081Y3199620D01*
X3195913Y3193382D01*
X3194450Y3186024D01*
Y3176260D01*
X3217535D01*
Y3205251D01*
D02*
G37*
G36*
X3613465D02*
X3609606D01*
X3602248Y3203788D01*
X3596010Y3199620D01*
X3591842Y3193382D01*
X3590378Y3186024D01*
Y3176260D01*
X3613465D01*
Y3205251D01*
D02*
G37*
G36*
X3646550Y3166260D02*
X3623465D01*
Y3137268D01*
X3627323D01*
X3634681Y3138732D01*
X3640919Y3142900D01*
X3645087Y3149138D01*
X3646550Y3156496D01*
Y3166260D01*
D02*
G37*
G36*
X3613465D02*
X3590378D01*
Y3156496D01*
X3591842Y3149138D01*
X3596010Y3142900D01*
X3602248Y3138732D01*
X3609606Y3137268D01*
X3613465D01*
Y3166260D01*
D02*
G37*
G36*
X2400000Y3172000D02*
X2365000D01*
Y3137000D01*
X2365266D01*
X2375439Y3139726D01*
X2384561Y3144992D01*
X2392008Y3152439D01*
X2397274Y3161561D01*
X2400000Y3171734D01*
Y3172000D01*
D02*
G37*
G36*
X2355000D02*
X2320000D01*
Y3171734D01*
X2322726Y3161561D01*
X2327992Y3152439D01*
X2335439Y3144992D01*
X2344561Y3139726D01*
X2354734Y3137000D01*
X2355000D01*
Y3172000D01*
D02*
G37*
G36*
X2300000Y3217000D02*
X2220000D01*
Y3137000D01*
X2300000D01*
Y3217000D01*
D02*
G37*
G36*
X2991610Y3170000D02*
X2968496D01*
Y3129670D01*
X2970773Y3129970D01*
X2977553Y3132778D01*
X2983376Y3137246D01*
X2987844Y3143069D01*
X2990653Y3149849D01*
X2991610Y3157126D01*
Y3170000D01*
D02*
G37*
G36*
X2677000D02*
X2653885D01*
Y3157126D01*
X2654843Y3149849D01*
X2657652Y3143069D01*
X2662120Y3137246D01*
X2667943Y3132778D01*
X2674723Y3129970D01*
X2677000Y3129670D01*
Y3170000D01*
D02*
G37*
G36*
X3560394Y3130448D02*
X3542677D01*
X3535319Y3128985D01*
X3529081Y3124816D01*
X3524913Y3118579D01*
X3523555Y3111751D01*
X3507649D01*
X3503997Y3117217D01*
X3498084Y3121168D01*
X3491110Y3122555D01*
X3459614D01*
X3452640Y3121168D01*
X3446728Y3117217D01*
X3442777Y3111305D01*
X3441390Y3104331D01*
Y3088583D01*
X3442777Y3081609D01*
X3446728Y3075696D01*
X3452640Y3071746D01*
X3459614Y3070358D01*
X3491110D01*
X3498084Y3071746D01*
X3503997Y3075696D01*
X3507649Y3081163D01*
X3523555D01*
X3524913Y3074335D01*
X3529081Y3068097D01*
X3535319Y3063929D01*
X3542677Y3062465D01*
X3560394D01*
X3567752Y3063929D01*
X3573990Y3068097D01*
X3578158Y3074335D01*
X3579621Y3081693D01*
Y3111220D01*
X3578158Y3118579D01*
X3573990Y3124816D01*
X3567752Y3128985D01*
X3560394Y3130448D01*
D02*
G37*
G36*
X3627323D02*
X3623465D01*
Y3101457D01*
X3646550D01*
Y3111220D01*
X3645087Y3118579D01*
X3640919Y3124816D01*
X3634681Y3128985D01*
X3627323Y3130448D01*
D02*
G37*
G36*
X3613465D02*
X3609606D01*
X3602248Y3128985D01*
X3596010Y3124816D01*
X3591842Y3118579D01*
X3590378Y3111220D01*
Y3101457D01*
X3613465D01*
Y3130448D01*
D02*
G37*
G36*
X3646550Y3091457D02*
X3623465D01*
Y3062465D01*
X3627323D01*
X3634681Y3063929D01*
X3640919Y3068097D01*
X3645087Y3074335D01*
X3646550Y3081693D01*
Y3091457D01*
D02*
G37*
G36*
X3613465D02*
X3590378D01*
Y3081693D01*
X3591842Y3074335D01*
X3596010Y3068097D01*
X3602248Y3063929D01*
X3609606Y3062465D01*
X3613465D01*
Y3091457D01*
D02*
G37*
G36*
X5301283Y3093429D02*
X5245260D01*
Y3048803D01*
X5331225D01*
Y3063488D01*
X5330204Y3071238D01*
X5327213Y3078459D01*
X5322455Y3084660D01*
X5316254Y3089418D01*
X5309033Y3092409D01*
X5301283Y3093429D01*
D02*
G37*
G36*
X5235260D02*
X5179236D01*
X5171487Y3092409D01*
X5164266Y3089418D01*
X5158065Y3084660D01*
X5153306Y3078459D01*
X5150315Y3071238D01*
X5149295Y3063488D01*
Y3048803D01*
X5235260D01*
Y3093429D01*
D02*
G37*
G36*
X3391790Y3273196D02*
X3356210D01*
X3352308Y3272420D01*
X3352308Y3272420D01*
X3349000Y3271050D01*
X3345692Y3268839D01*
X3343160Y3266308D01*
X3340950Y3263000D01*
X3339580Y3259692D01*
X3338804Y3255790D01*
Y3191652D01*
X3316431D01*
X3316087Y3193382D01*
X3311919Y3199620D01*
X3305681Y3203788D01*
X3298323Y3205251D01*
X3280606D01*
X3273248Y3203788D01*
X3267010Y3199620D01*
X3262842Y3193382D01*
X3261379Y3186024D01*
Y3166107D01*
X3255622Y3160350D01*
X3250622Y3162421D01*
Y3166260D01*
X3222535D01*
X3194450D01*
Y3156496D01*
X3195913Y3149138D01*
X3200081Y3142900D01*
X3206319Y3138732D01*
X3213677Y3137268D01*
X3221653D01*
X3224203Y3132268D01*
X3222882Y3130448D01*
X3213677D01*
X3206319Y3128985D01*
X3200081Y3124816D01*
X3195913Y3118579D01*
X3194450Y3111220D01*
Y3081693D01*
X3195913Y3074335D01*
X3200081Y3068097D01*
X3206319Y3063929D01*
X3213677Y3062465D01*
X3231394D01*
X3238752Y3063929D01*
X3244990Y3068097D01*
X3249158Y3074335D01*
X3250622Y3081693D01*
Y3097673D01*
X3256759Y3103811D01*
X3261379Y3101897D01*
Y3081693D01*
X3262842Y3074335D01*
X3267010Y3068097D01*
X3273248Y3063929D01*
X3280606Y3062465D01*
X3298323D01*
X3305681Y3063929D01*
X3311919Y3068097D01*
X3316087Y3074335D01*
X3317445Y3081163D01*
X3342427D01*
X3343816Y3079084D01*
X3349077Y3075569D01*
X3355284Y3074334D01*
X3390716D01*
X3396923Y3075569D01*
X3400706Y3078097D01*
X3405387Y3076172D01*
X3405706Y3075882D01*
Y3053990D01*
X3404045Y3052329D01*
X3401000Y3044978D01*
Y3037022D01*
X3404045Y3029671D01*
X3405706Y3028010D01*
Y2940504D01*
X3404441Y2939438D01*
X3398486Y2939383D01*
X3392248Y2943552D01*
X3384890Y2945015D01*
X3355362D01*
X3348004Y2943552D01*
X3341766Y2939383D01*
X3337598Y2933146D01*
X3337415Y2932223D01*
X3324752D01*
X3324568Y2933146D01*
X3320400Y2939383D01*
X3314162Y2943552D01*
X3306804Y2945015D01*
X3277277D01*
X3269919Y2943552D01*
X3263681Y2939383D01*
X3259512Y2933146D01*
X3258049Y2925787D01*
Y2908071D01*
X3259512Y2900713D01*
X3263681Y2894475D01*
X3269919Y2890307D01*
X3277277Y2888843D01*
X3306804D01*
X3314162Y2890307D01*
X3320400Y2894475D01*
X3324568Y2900713D01*
X3324752Y2901635D01*
X3337415D01*
X3337598Y2900713D01*
X3341766Y2894475D01*
X3348004Y2890307D01*
X3355362Y2888843D01*
X3384890D01*
X3392248Y2890307D01*
X3398486Y2894475D01*
X3402654Y2900713D01*
X3402837Y2901635D01*
X3410727D01*
X3413732Y2900390D01*
X3421689D01*
X3429039Y2903435D01*
X3434666Y2909061D01*
X3437710Y2916412D01*
Y2924369D01*
X3436294Y2927788D01*
Y3028010D01*
X3437955Y3029671D01*
X3441000Y3037022D01*
Y3044978D01*
X3437955Y3052329D01*
X3436294Y3053990D01*
Y3149006D01*
X3440091Y3152569D01*
X3445715Y3152015D01*
X3446728Y3150499D01*
X3452640Y3146549D01*
X3459614Y3145162D01*
X3491110D01*
X3498084Y3146549D01*
X3503997Y3150499D01*
X3507649Y3155966D01*
X3523555D01*
X3524913Y3149138D01*
X3529081Y3142900D01*
X3535319Y3138732D01*
X3542677Y3137268D01*
X3560394D01*
X3567752Y3138732D01*
X3573990Y3142900D01*
X3578158Y3149138D01*
X3579621Y3156496D01*
Y3186024D01*
X3578158Y3193382D01*
X3573990Y3199620D01*
X3567752Y3203788D01*
X3560394Y3205251D01*
X3542677D01*
X3535319Y3203788D01*
X3529081Y3199620D01*
X3524913Y3193382D01*
X3523555Y3186554D01*
X3507649D01*
X3503997Y3192020D01*
X3498084Y3195971D01*
X3491110Y3197358D01*
X3459614D01*
X3452640Y3195971D01*
X3446728Y3192020D01*
X3443075Y3186554D01*
X3436260D01*
X3430407Y3185390D01*
X3425445Y3182074D01*
X3414196Y3170825D01*
X3409196Y3172896D01*
Y3211025D01*
X3665035D01*
X3670741Y3205319D01*
Y2835000D01*
X3671772Y2827168D01*
X3674795Y2819870D01*
X3679604Y2813604D01*
X3706603Y2786604D01*
X3706604Y2786604D01*
X3712871Y2781795D01*
X3720168Y2778772D01*
X3728000Y2777741D01*
X3728001Y2777741D01*
X3807466D01*
X3821883Y2763325D01*
Y2729586D01*
X3821697Y2729307D01*
X3820080Y2721181D01*
Y2614882D01*
X3821697Y2606756D01*
X3826300Y2599867D01*
X3831750Y2596225D01*
Y2573336D01*
X3799487Y2541073D01*
X3797888Y2541367D01*
X3796959Y2541353D01*
X3796046Y2541535D01*
X3792999Y2541535D01*
X3789952D01*
X3789041Y2541353D01*
X3788111Y2541367D01*
X3782117Y2540266D01*
X3781253Y2539923D01*
X3780336Y2539769D01*
X3774639Y2537603D01*
X3773851Y2537110D01*
X3772978Y2536792D01*
X3767766Y2533634D01*
X3767080Y2533006D01*
X3766278Y2532536D01*
X3761722Y2528488D01*
X3761161Y2527747D01*
X3760457Y2527140D01*
X3756707Y2522335D01*
X3756289Y2521505D01*
X3755706Y2520781D01*
X3752886Y2515378D01*
X3752625Y2514486D01*
X3752182Y2513668D01*
X3750384Y2507845D01*
X3750289Y2506921D01*
X3750001Y2506036D01*
X3749643Y2503010D01*
X3749690Y2502406D01*
X3749572Y2501811D01*
X3749845Y2500439D01*
X3749955Y2499044D01*
X3750230Y2498504D01*
X3750348Y2497909D01*
X3750372Y2497874D01*
X3750348Y2497839D01*
X3750230Y2497244D01*
X3749954Y2496704D01*
X3749845Y2495309D01*
X3749572Y2493937D01*
X3749690Y2493342D01*
X3749643Y2492738D01*
X3750001Y2489712D01*
X3750288Y2488828D01*
X3750384Y2487903D01*
X3752182Y2482080D01*
X3752625Y2481262D01*
X3752886Y2480370D01*
X3755706Y2474967D01*
X3756289Y2474243D01*
X3756707Y2473412D01*
X3760457Y2468608D01*
X3761161Y2468001D01*
X3761722Y2467260D01*
X3766278Y2463212D01*
X3767080Y2462742D01*
X3767766Y2462114D01*
X3772488Y2459252D01*
Y2410631D01*
X3772081Y2410360D01*
X3767913Y2404122D01*
X3766450Y2396764D01*
Y2367236D01*
X3767913Y2359878D01*
X3772081Y2353640D01*
X3778319Y2349472D01*
X3785677Y2348008D01*
X3803394D01*
X3810752Y2349472D01*
X3816990Y2353640D01*
X3821158Y2359878D01*
X3822622Y2367236D01*
Y2396764D01*
X3821158Y2404122D01*
X3816990Y2410360D01*
X3813271Y2412844D01*
Y2459107D01*
X3818234Y2462114D01*
X3818920Y2462742D01*
X3819722Y2463212D01*
X3824278Y2467260D01*
X3824839Y2468001D01*
X3825543Y2468608D01*
X3829293Y2473413D01*
X3829711Y2474243D01*
X3830293Y2474967D01*
X3833114Y2480370D01*
X3833375Y2481262D01*
X3833817Y2482080D01*
X3835615Y2487903D01*
X3835711Y2488827D01*
X3835999Y2489712D01*
X3836357Y2492738D01*
X3836310Y2493342D01*
X3836428Y2493937D01*
X3836155Y2495309D01*
X3836045Y2496704D01*
X3835770Y2497244D01*
X3835652Y2497839D01*
X3835628Y2497874D01*
X3835652Y2497909D01*
X3835770Y2498504D01*
X3836046Y2499044D01*
X3836127Y2500083D01*
X3836403Y2501088D01*
X3836357Y2501452D01*
X3836428Y2501811D01*
X3836310Y2502406D01*
X3836357Y2503010D01*
X3835999Y2506036D01*
X3835711Y2506920D01*
X3835616Y2507845D01*
X3833818Y2513668D01*
X3833375Y2514486D01*
X3833114Y2515378D01*
X3832550Y2516459D01*
X3866561Y2550470D01*
X3870981Y2557086D01*
X3872534Y2564890D01*
Y2596225D01*
X3877984Y2599867D01*
X3881598Y2605276D01*
X3886278Y2606154D01*
X3887525Y2605951D01*
X3888812Y2604393D01*
Y2553512D01*
X3889843Y2545680D01*
X3892866Y2538382D01*
X3897675Y2532116D01*
X3938374Y2491416D01*
Y2464898D01*
X3939394Y2457148D01*
X3942385Y2449927D01*
X3947143Y2443726D01*
X3953344Y2438968D01*
X3960566Y2435977D01*
X3968315Y2434956D01*
X4007685D01*
X4015434Y2435977D01*
X4022656Y2438968D01*
X4028857Y2443726D01*
X4033615Y2449927D01*
X4036606Y2457148D01*
X4037626Y2464898D01*
Y2504268D01*
X4036606Y2512017D01*
X4033615Y2519238D01*
X4028857Y2525439D01*
X4022656Y2530198D01*
X4015434Y2533189D01*
X4007685Y2534209D01*
X3981166D01*
X3949330Y2566046D01*
Y2606477D01*
X3949516Y2606756D01*
X3949986Y2609121D01*
X3955084D01*
X3955555Y2606756D01*
X3960158Y2599867D01*
X3967047Y2595264D01*
X3975173Y2593647D01*
X3981000D01*
Y2668032D01*
Y2742416D01*
X3975173D01*
X3967047Y2740800D01*
X3960158Y2736196D01*
X3956544Y2730787D01*
X3951864Y2729908D01*
X3950617Y2730111D01*
X3949330Y2731670D01*
Y2765035D01*
X3955036Y2770741D01*
X4232000D01*
X4239832Y2771772D01*
X4247130Y2774795D01*
X4253396Y2779604D01*
X4307396Y2833604D01*
X4312205Y2839870D01*
X4315228Y2847168D01*
X4316259Y2855000D01*
Y3034466D01*
X4357729Y3075936D01*
X4371764D01*
Y3026173D01*
X4612236D01*
Y3211528D01*
X4371764D01*
Y3136454D01*
X4345195D01*
X4337364Y3135423D01*
X4330066Y3132400D01*
X4323799Y3127592D01*
X4264604Y3068396D01*
X4259795Y3062130D01*
X4256772Y3054832D01*
X4255741Y3047000D01*
Y2867534D01*
X4219466Y2831259D01*
X3942502D01*
X3934671Y2830228D01*
X3927373Y2827205D01*
X3921106Y2822396D01*
X3921106Y2822396D01*
X3897675Y2798965D01*
X3892866Y2792698D01*
X3889843Y2785400D01*
X3888812Y2777568D01*
Y2731759D01*
X3884061Y2730051D01*
X3883688Y2730112D01*
X3882401Y2731670D01*
Y2775858D01*
X3881370Y2783690D01*
X3878347Y2790988D01*
X3873538Y2797255D01*
X3841396Y2829396D01*
X3835130Y2834205D01*
X3827832Y2837228D01*
X3820000Y2838259D01*
X3740534D01*
X3731259Y2847534D01*
Y3217853D01*
X3730228Y3225684D01*
X3727205Y3232982D01*
X3722396Y3239249D01*
X3722396Y3239249D01*
X3698965Y3262680D01*
X3692698Y3267489D01*
X3685400Y3270512D01*
X3677568Y3271543D01*
X3397808D01*
X3395692Y3272420D01*
X3391790Y3273196D01*
D02*
G37*
G36*
X5331225Y3038803D02*
X5245260D01*
Y2994177D01*
X5301283D01*
X5309033Y2995197D01*
X5316254Y2998188D01*
X5322455Y3002946D01*
X5327213Y3009147D01*
X5330204Y3016369D01*
X5331225Y3024118D01*
Y3038803D01*
D02*
G37*
G36*
X5235260D02*
X5149295D01*
Y3024118D01*
X5150315Y3016369D01*
X5153306Y3009147D01*
X5158065Y3002946D01*
X5164266Y2998188D01*
X5171487Y2995197D01*
X5179236Y2994177D01*
X5235260D01*
Y3038803D01*
D02*
G37*
G36*
X2491590Y2930159D02*
X2461000D01*
Y2894647D01*
X2491590D01*
Y2930159D01*
D02*
G37*
G36*
X2451000D02*
X2420410D01*
Y2894647D01*
X2451000D01*
Y2930159D01*
D02*
G37*
G36*
X2642047Y2913098D02*
X2625000D01*
Y2892000D01*
X2660271D01*
Y2894874D01*
X2658884Y2901848D01*
X2654934Y2907760D01*
X2649021Y2911711D01*
X2642047Y2913098D01*
D02*
G37*
G36*
X2615000D02*
X2597953D01*
X2590979Y2911711D01*
X2585066Y2907760D01*
X2581116Y2901848D01*
X2579729Y2894874D01*
Y2892000D01*
X2615000D01*
Y2913098D01*
D02*
G37*
G36*
X3034323Y2914992D02*
X3030465D01*
Y2886000D01*
X3053551D01*
Y2895764D01*
X3052087Y2903122D01*
X3047919Y2909360D01*
X3041681Y2913528D01*
X3034323Y2914992D01*
D02*
G37*
G36*
X3020465D02*
X3016606D01*
X3009248Y2913528D01*
X3003010Y2909360D01*
X2998842Y2903122D01*
X2997379Y2895764D01*
Y2886000D01*
X3020465D01*
Y2914992D01*
D02*
G37*
G36*
X4095252Y3239537D02*
X3876748D01*
X3857229Y3237615D01*
X3838461Y3231921D01*
X3821164Y3222676D01*
X3806003Y3210233D01*
X3793561Y3195072D01*
X3784315Y3177775D01*
X3778622Y3159007D01*
X3776699Y3139488D01*
Y2960354D01*
X3778622Y2940836D01*
X3784315Y2922067D01*
X3793561Y2904770D01*
X3806003Y2889609D01*
X3821164Y2877167D01*
X3838461Y2867921D01*
X3857229Y2862228D01*
X3876748Y2860306D01*
X4095252D01*
X4114770Y2862228D01*
X4133539Y2867921D01*
X4150836Y2877167D01*
X4165997Y2889609D01*
X4178440Y2904770D01*
X4187685Y2922067D01*
X4193378Y2940836D01*
X4195301Y2960354D01*
Y3139488D01*
X4193378Y3159007D01*
X4187685Y3177775D01*
X4178440Y3195072D01*
X4165997Y3210233D01*
X4150836Y3222676D01*
X4133539Y3231921D01*
X4114770Y3237615D01*
X4095252Y3239537D01*
D02*
G37*
G36*
X2491590Y2884647D02*
X2461000D01*
Y2849135D01*
X2491590D01*
Y2884647D01*
D02*
G37*
G36*
X2451000D02*
X2420410D01*
Y2849135D01*
X2451000D01*
Y2884647D01*
D02*
G37*
G36*
X3053551Y2876000D02*
X3030465D01*
Y2847008D01*
X3034323D01*
X3041681Y2848472D01*
X3047919Y2852640D01*
X3052087Y2858878D01*
X3053551Y2866236D01*
Y2876000D01*
D02*
G37*
G36*
X3020465D02*
X2997379D01*
Y2866236D01*
X2998842Y2858878D01*
X3003010Y2852640D01*
X3009248Y2848472D01*
X3016606Y2847008D01*
X3020465D01*
Y2876000D01*
D02*
G37*
G36*
X2835000Y3017392D02*
X2833030Y3017000D01*
X2831022D01*
X2829166Y3016231D01*
X2827196Y3015840D01*
X2825526Y3014724D01*
X2823671Y3013955D01*
X2822251Y3012535D01*
X2820581Y3011419D01*
X2819465Y3009749D01*
X2818045Y3008329D01*
X2817276Y3006474D01*
X2816160Y3004804D01*
X2815769Y3002834D01*
X2815000Y3000978D01*
Y2998970D01*
X2814608Y2997000D01*
X2815000Y2995030D01*
Y2993022D01*
X2815769Y2991166D01*
X2816160Y2989196D01*
X2816931Y2988043D01*
Y2912151D01*
X2816428Y2912085D01*
X2810164Y2909491D01*
X2804786Y2905364D01*
X2800659Y2899985D01*
X2798064Y2893722D01*
X2797179Y2887000D01*
X2798064Y2880278D01*
X2800659Y2874015D01*
X2804786Y2868636D01*
X2809831Y2864765D01*
X2810186Y2862081D01*
Y2861919D01*
X2809831Y2859235D01*
X2804786Y2855364D01*
X2800659Y2849985D01*
X2798064Y2843722D01*
X2797179Y2837000D01*
X2798064Y2830278D01*
X2800659Y2824015D01*
X2804786Y2818636D01*
X2809831Y2814765D01*
X2810186Y2812081D01*
Y2811919D01*
X2809831Y2809235D01*
X2804786Y2805364D01*
X2800659Y2799985D01*
X2798064Y2793722D01*
X2797179Y2787000D01*
X2798064Y2780278D01*
X2800659Y2774015D01*
X2804786Y2768636D01*
X2809831Y2764765D01*
X2810186Y2762081D01*
Y2761919D01*
X2809831Y2759235D01*
X2804786Y2755364D01*
X2800659Y2749985D01*
X2798064Y2743722D01*
X2797179Y2737000D01*
X2798064Y2730278D01*
X2800659Y2724015D01*
X2804786Y2718636D01*
X2809831Y2714765D01*
X2810186Y2712081D01*
Y2711919D01*
X2809831Y2709235D01*
X2804786Y2705364D01*
X2800659Y2699985D01*
X2798064Y2693722D01*
X2797179Y2687000D01*
X2798064Y2680278D01*
X2800659Y2674015D01*
X2804786Y2668636D01*
X2809831Y2664765D01*
X2810186Y2662081D01*
Y2661919D01*
X2809831Y2659235D01*
X2804786Y2655364D01*
X2800659Y2649985D01*
X2798064Y2643722D01*
X2797179Y2637000D01*
X2798064Y2630278D01*
X2800659Y2624015D01*
X2804786Y2618636D01*
X2809831Y2614765D01*
X2810186Y2612081D01*
Y2611919D01*
X2809831Y2609235D01*
X2804786Y2605364D01*
X2800659Y2599985D01*
X2798064Y2593722D01*
X2797179Y2587000D01*
X2798064Y2580278D01*
X2800659Y2574015D01*
X2804786Y2568636D01*
X2809831Y2564765D01*
X2810186Y2562081D01*
Y2561919D01*
X2809831Y2559235D01*
X2804786Y2555364D01*
X2800659Y2549985D01*
X2798064Y2543722D01*
X2797179Y2537000D01*
X2798064Y2530278D01*
X2800659Y2524015D01*
X2804786Y2518636D01*
X2810164Y2514509D01*
X2816428Y2511915D01*
X2823150Y2511030D01*
X2851496D01*
X2858218Y2511915D01*
X2864481Y2514509D01*
X2869860Y2518636D01*
X2873987Y2524015D01*
X2876581Y2530278D01*
X2877466Y2537000D01*
X2876581Y2543722D01*
X2873987Y2549985D01*
X2869860Y2555364D01*
X2864814Y2559235D01*
X2864459Y2561919D01*
Y2562081D01*
X2864814Y2564765D01*
X2869860Y2568636D01*
X2873987Y2574015D01*
X2876581Y2580278D01*
X2877466Y2587000D01*
X2876581Y2593722D01*
X2873987Y2599985D01*
X2869860Y2605364D01*
X2864814Y2609235D01*
X2864459Y2611919D01*
Y2612081D01*
X2864814Y2614765D01*
X2869860Y2618636D01*
X2873987Y2624015D01*
X2876581Y2630278D01*
X2877466Y2637000D01*
X2876581Y2643722D01*
X2873987Y2649985D01*
X2869860Y2655364D01*
X2864814Y2659235D01*
X2864459Y2661919D01*
Y2662081D01*
X2864814Y2664765D01*
X2869860Y2668636D01*
X2873987Y2674015D01*
X2876581Y2680278D01*
X2877466Y2687000D01*
X2876581Y2693722D01*
X2873987Y2699985D01*
X2869860Y2705364D01*
X2864814Y2709235D01*
X2864459Y2711919D01*
Y2712081D01*
X2864814Y2714765D01*
X2869860Y2718636D01*
X2872215Y2721706D01*
X2881665D01*
X2902465Y2700907D01*
Y2698557D01*
X2905509Y2691206D01*
X2911135Y2685580D01*
X2918486Y2682535D01*
X2926443D01*
X2933794Y2685580D01*
X2933978Y2685562D01*
X2937640Y2680081D01*
X2943878Y2675913D01*
X2951236Y2674450D01*
X2980764D01*
X2988122Y2675913D01*
X2994360Y2680081D01*
X2998528Y2686319D01*
X2999992Y2693677D01*
Y2711394D01*
X2998528Y2718752D01*
X2994360Y2724990D01*
X2988122Y2729158D01*
X2980764Y2730622D01*
X2951236D01*
X2943878Y2729158D01*
X2937640Y2724990D01*
X2933978Y2719509D01*
X2933794Y2719491D01*
X2926443Y2722535D01*
X2924093D01*
X2898814Y2747814D01*
X2893853Y2751130D01*
X2888000Y2752294D01*
X2872215D01*
X2869860Y2755364D01*
X2864814Y2759235D01*
X2864459Y2761919D01*
Y2762081D01*
X2864814Y2764765D01*
X2869860Y2768636D01*
X2872215Y2771706D01*
X2890000D01*
X2895853Y2772870D01*
X2900814Y2776186D01*
X2935335Y2810706D01*
X3065665D01*
X3079182Y2797189D01*
X3078847Y2795209D01*
X3073586Y2794083D01*
X3073178Y2794694D01*
X3067265Y2798644D01*
X3060291Y2800031D01*
X3040606D01*
X3033632Y2798644D01*
X3027720Y2794694D01*
X3023769Y2788781D01*
X3023414Y2786993D01*
X2997651D01*
X2994360Y2791919D01*
X2988122Y2796087D01*
X2980764Y2797551D01*
X2951236D01*
X2943878Y2796087D01*
X2937640Y2791919D01*
X2933472Y2785681D01*
X2932008Y2778323D01*
Y2760606D01*
X2933472Y2753248D01*
X2937640Y2747010D01*
X2943878Y2742842D01*
X2951236Y2741379D01*
X2980764D01*
X2988122Y2742842D01*
X2994360Y2747010D01*
X2998528Y2753248D01*
X2999156Y2756405D01*
X3025560D01*
X3027720Y2753173D01*
X3033632Y2749222D01*
X3040606Y2747835D01*
X3060291D01*
X3067265Y2749222D01*
X3073178Y2753173D01*
X3075706Y2756957D01*
X3080706Y2755440D01*
Y2734335D01*
X3069032Y2722661D01*
X3067265Y2723841D01*
X3060291Y2725228D01*
X3040606D01*
X3033632Y2723841D01*
X3027720Y2719891D01*
X3023769Y2713978D01*
X3022382Y2707004D01*
Y2692692D01*
X2966259Y2636569D01*
X2962943Y2631607D01*
X2962136Y2627550D01*
X2951236D01*
X2943878Y2626087D01*
X2937640Y2621919D01*
X2933472Y2615681D01*
X2932008Y2608323D01*
Y2590606D01*
X2933472Y2583248D01*
X2937640Y2577010D01*
X2943878Y2572842D01*
X2951236Y2571378D01*
X2980764D01*
X2982368Y2571698D01*
X2984831Y2567090D01*
X2978363Y2560621D01*
X2951236D01*
X2943878Y2559158D01*
X2937640Y2554990D01*
X2933472Y2548752D01*
X2932008Y2541394D01*
Y2523677D01*
X2933472Y2516319D01*
X2937640Y2510081D01*
X2943878Y2505913D01*
X2951236Y2504449D01*
X2980764D01*
X2988122Y2505913D01*
X2994360Y2510081D01*
X2998528Y2516319D01*
X2999992Y2523677D01*
Y2538993D01*
X3039128Y2578129D01*
X3040606Y2577835D01*
X3060291D01*
X3067265Y2579222D01*
X3073178Y2583173D01*
X3077128Y2589085D01*
X3078515Y2596059D01*
Y2611807D01*
X3077128Y2618781D01*
X3073178Y2624694D01*
X3067265Y2628644D01*
X3060291Y2630031D01*
X3040606D01*
X3033632Y2628644D01*
X3027720Y2624694D01*
X3023769Y2618781D01*
X3022382Y2611807D01*
Y2604641D01*
X3004280Y2586539D01*
X2999673Y2589002D01*
X2999992Y2590606D01*
Y2608323D01*
X2998528Y2615681D01*
X2994563Y2621615D01*
X3045979Y2673032D01*
X3060291D01*
X3067265Y2674419D01*
X3073178Y2678370D01*
X3077128Y2684282D01*
X3078515Y2691256D01*
Y2691462D01*
X3079675Y2691692D01*
X3084637Y2695008D01*
X3106814Y2717186D01*
X3108142Y2719172D01*
X3114093Y2719078D01*
X3116302Y2715771D01*
X3122215Y2711821D01*
X3129189Y2710433D01*
X3152811D01*
X3159785Y2711821D01*
X3165698Y2715771D01*
X3168599Y2720114D01*
X3173906Y2720465D01*
X3192706Y2701665D01*
Y2442000D01*
X3193870Y2436147D01*
X3197186Y2431186D01*
X3211186Y2417186D01*
X3216147Y2413870D01*
X3222000Y2412706D01*
X3222765D01*
X3224309Y2404942D01*
X3229565Y2397076D01*
X3237430Y2391821D01*
X3246709Y2389975D01*
X3278205D01*
X3287483Y2391821D01*
X3295349Y2397076D01*
X3300604Y2404942D01*
X3302149Y2412706D01*
X3343665D01*
X3378706Y2377665D01*
Y2172000D01*
X3379870Y2166147D01*
X3383186Y2161186D01*
X3454186Y2090186D01*
X3459147Y2086870D01*
X3465000Y2085706D01*
X3647601D01*
X3651362Y2082716D01*
X3651362Y2080706D01*
Y2060000D01*
X3690890D01*
X3730417D01*
Y2080706D01*
X3730417Y2082716D01*
X3734179Y2085706D01*
X3902230D01*
X3902706Y2085079D01*
X3904077Y2080706D01*
X3864186Y2040814D01*
X3860870Y2035853D01*
X3859706Y2030000D01*
Y1607335D01*
X3820898Y1568526D01*
X3598768D01*
X3592915Y1567362D01*
X3587953Y1564047D01*
X3563457Y1539551D01*
X3542236D01*
X3534878Y1538087D01*
X3528640Y1533919D01*
X3524472Y1527681D01*
X3523008Y1520323D01*
Y1513057D01*
X3518008Y1510384D01*
X3517992Y1510395D01*
Y1520323D01*
X3516528Y1527681D01*
X3512360Y1533919D01*
X3506122Y1538087D01*
X3499294Y1539445D01*
Y1994000D01*
X3498130Y1999853D01*
X3494814Y2004814D01*
X3302657Y2196972D01*
X3302450Y2197110D01*
Y2220780D01*
X3300604Y2230058D01*
X3295349Y2237924D01*
X3287483Y2243179D01*
X3278205Y2245025D01*
X3246709D01*
X3237430Y2243179D01*
X3229565Y2237924D01*
X3224309Y2230058D01*
X3222765Y2222294D01*
X3196335D01*
X3156294Y2262335D01*
Y2541126D01*
X3159785Y2541820D01*
X3165698Y2545771D01*
X3169648Y2551683D01*
X3171035Y2558657D01*
Y2574405D01*
X3169648Y2581380D01*
X3165698Y2587292D01*
X3159785Y2591242D01*
X3152811Y2592630D01*
X3129189D01*
X3122215Y2591242D01*
X3116302Y2587292D01*
X3112352Y2581380D01*
X3110965Y2574405D01*
Y2558657D01*
X3112352Y2551683D01*
X3116302Y2545771D01*
X3122215Y2541820D01*
X3125706Y2541126D01*
Y2256000D01*
X3126870Y2250147D01*
X3130186Y2245186D01*
X3179186Y2196186D01*
X3184147Y2192870D01*
X3190000Y2191706D01*
X3222765D01*
X3224309Y2183942D01*
X3229565Y2176076D01*
X3237430Y2170821D01*
X3246709Y2168975D01*
X3278205D01*
X3285871Y2170500D01*
X3468706Y1987665D01*
Y1539445D01*
X3461878Y1538087D01*
X3455640Y1533919D01*
X3451472Y1527681D01*
X3450392Y1522250D01*
X3445392Y1522742D01*
Y1771000D01*
X3443840Y1778804D01*
X3439419Y1785419D01*
X3408955Y1815884D01*
X3402339Y1820304D01*
X3394535Y1821856D01*
X3294738D01*
X3293360Y1823919D01*
X3287122Y1828087D01*
X3285892Y1828332D01*
Y1855005D01*
X3288122Y1855448D01*
X3294360Y1859617D01*
X3298528Y1865854D01*
X3299992Y1873213D01*
Y1890929D01*
X3298528Y1898287D01*
X3294360Y1904525D01*
X3288122Y1908693D01*
X3280764Y1910157D01*
X3251236D01*
X3243878Y1908693D01*
X3237640Y1904525D01*
X3233472Y1898287D01*
X3232008Y1890929D01*
Y1873213D01*
X3233472Y1865854D01*
X3237640Y1859617D01*
X3243878Y1855448D01*
X3245108Y1855204D01*
Y1828531D01*
X3242878Y1828087D01*
X3236640Y1823919D01*
X3232472Y1817681D01*
X3231008Y1810323D01*
Y1792606D01*
X3232472Y1785248D01*
X3236640Y1779010D01*
X3242878Y1774842D01*
X3250236Y1773379D01*
X3279764D01*
X3287122Y1774842D01*
X3293360Y1779010D01*
X3294738Y1781073D01*
X3386089D01*
X3404608Y1762553D01*
Y1289000D01*
X3405000Y1287030D01*
Y1285022D01*
X3405769Y1283166D01*
X3406160Y1281196D01*
X3407276Y1279526D01*
X3408045Y1277671D01*
X3409465Y1276251D01*
X3410581Y1274581D01*
X3412251Y1273465D01*
X3413671Y1272045D01*
X3415526Y1271276D01*
X3417196Y1270160D01*
X3419166Y1269769D01*
X3421022Y1269000D01*
X3423030D01*
X3425000Y1268608D01*
X3426970Y1269000D01*
X3428978D01*
X3430834Y1269769D01*
X3432804Y1270160D01*
X3434474Y1271276D01*
X3436329Y1272045D01*
X3437749Y1273465D01*
X3439419Y1274581D01*
X3440535Y1276251D01*
X3441955Y1277671D01*
X3442724Y1279526D01*
X3443840Y1281196D01*
X3444231Y1283166D01*
X3445000Y1285022D01*
Y1287030D01*
X3445392Y1289000D01*
Y1433258D01*
X3450392Y1433750D01*
X3451472Y1428319D01*
X3455640Y1422081D01*
X3461878Y1417913D01*
X3469236Y1416449D01*
X3479000D01*
Y1444535D01*
X3484000D01*
Y1449535D01*
X3517992D01*
Y1449909D01*
X3522992Y1452195D01*
X3523008Y1452180D01*
Y1435677D01*
X3524472Y1428319D01*
X3528640Y1422081D01*
X3534878Y1417913D01*
X3542236Y1416449D01*
X3571764D01*
X3579122Y1417913D01*
X3585360Y1422081D01*
X3589528Y1428319D01*
X3589711Y1429242D01*
X3710937D01*
X3716790Y1430406D01*
X3721751Y1433721D01*
X3734015Y1445984D01*
X3774809D01*
Y1408437D01*
X3750665Y1384294D01*
X3523000D01*
X3517147Y1383130D01*
X3512186Y1379814D01*
X3485186Y1352814D01*
X3481870Y1347853D01*
X3480706Y1342000D01*
Y1252512D01*
X3479905Y1252406D01*
X3469567Y1248124D01*
X3460689Y1241311D01*
X3453876Y1232433D01*
X3451333Y1226294D01*
X3290667D01*
X3288124Y1232433D01*
X3281311Y1241311D01*
X3272433Y1248124D01*
X3262095Y1252406D01*
X3251000Y1253867D01*
X3241000D01*
X3229905Y1252406D01*
X3219567Y1248124D01*
X3210689Y1241311D01*
X3203876Y1232433D01*
X3201333Y1226294D01*
X3132335D01*
X3109829Y1248799D01*
Y1377289D01*
X3110752Y1377472D01*
X3116990Y1381640D01*
X3121158Y1387878D01*
X3122622Y1395236D01*
Y1422363D01*
X3129090Y1428831D01*
X3133698Y1426368D01*
X3133379Y1424764D01*
Y1395236D01*
X3134842Y1387878D01*
X3139010Y1381640D01*
X3145248Y1377472D01*
X3146171Y1377289D01*
Y1361455D01*
X3146045Y1361329D01*
X3143000Y1353978D01*
Y1346022D01*
X3146045Y1338671D01*
X3151671Y1333045D01*
X3159022Y1330000D01*
X3166978D01*
X3174329Y1333045D01*
X3179955Y1338671D01*
X3183000Y1346022D01*
Y1353978D01*
X3179955Y1361329D01*
X3176758Y1364526D01*
Y1377289D01*
X3177681Y1377472D01*
X3183919Y1381640D01*
X3188087Y1387878D01*
X3189551Y1395236D01*
Y1424764D01*
X3188087Y1432122D01*
X3183919Y1438360D01*
X3177681Y1442528D01*
X3171675Y1443723D01*
Y1448821D01*
X3177681Y1450015D01*
X3183919Y1454184D01*
X3188087Y1460421D01*
X3189551Y1467780D01*
Y1497307D01*
X3188087Y1504665D01*
X3183919Y1510903D01*
X3177681Y1515071D01*
X3170323Y1516535D01*
X3152606D01*
X3145248Y1515071D01*
X3139010Y1510903D01*
X3134842Y1504665D01*
X3133379Y1497307D01*
Y1476377D01*
X3127622Y1470620D01*
X3122622Y1472691D01*
Y1477543D01*
X3094536D01*
X3066450D01*
Y1467780D01*
X3067913Y1460421D01*
X3072081Y1454184D01*
X3078319Y1450015D01*
X3084326Y1448821D01*
Y1443723D01*
X3078319Y1442528D01*
X3072081Y1438360D01*
X3067913Y1432122D01*
X3066450Y1424764D01*
Y1395236D01*
X3067913Y1387878D01*
X3072081Y1381640D01*
X3078319Y1377472D01*
X3079242Y1377289D01*
Y1242465D01*
X3080406Y1236612D01*
X3083721Y1231650D01*
X3115186Y1200186D01*
X3120147Y1196870D01*
X3126000Y1195706D01*
X3201333D01*
X3203876Y1189567D01*
X3210689Y1180689D01*
X3219567Y1173876D01*
X3229905Y1169594D01*
X3241000Y1168133D01*
X3251000D01*
X3262095Y1169594D01*
X3272433Y1173876D01*
X3281311Y1180689D01*
X3288124Y1189567D01*
X3290667Y1195706D01*
X3451333D01*
X3453876Y1189567D01*
X3460689Y1180689D01*
X3469567Y1173876D01*
X3479905Y1169594D01*
X3491000Y1168133D01*
X3501000D01*
X3512095Y1169594D01*
X3522433Y1173876D01*
X3531311Y1180689D01*
X3538124Y1189567D01*
X3542406Y1199905D01*
X3543867Y1211000D01*
X3542406Y1222095D01*
X3538124Y1232433D01*
X3531311Y1241311D01*
X3522433Y1248124D01*
X3512095Y1252406D01*
X3511294Y1252512D01*
Y1335665D01*
X3529335Y1353706D01*
X3757000D01*
X3762853Y1354870D01*
X3767814Y1358186D01*
X3800917Y1391288D01*
X3804232Y1396250D01*
X3805396Y1402102D01*
Y1445984D01*
X3821706D01*
Y1428093D01*
X3820045Y1426431D01*
X3817000Y1419081D01*
Y1411124D01*
X3820045Y1403773D01*
X3825671Y1398147D01*
X3833022Y1395102D01*
X3840978D01*
X3848329Y1398147D01*
X3853955Y1403773D01*
X3857000Y1411124D01*
Y1419081D01*
X3853955Y1426431D01*
X3852294Y1428093D01*
Y1445984D01*
X3974809D01*
Y1428093D01*
X3973147Y1426431D01*
X3970102Y1419081D01*
Y1411124D01*
X3973147Y1403773D01*
X3978773Y1398147D01*
X3986124Y1395102D01*
X3994081D01*
X4001432Y1398147D01*
X4007058Y1403773D01*
X4010102Y1411124D01*
Y1419081D01*
X4007058Y1426431D01*
X4005396Y1428093D01*
Y1445984D01*
X4023706D01*
Y1430990D01*
X4022045Y1429329D01*
X4019000Y1421978D01*
Y1414022D01*
X4022045Y1406671D01*
X4027671Y1401045D01*
X4035022Y1398000D01*
X4042978D01*
X4050329Y1401045D01*
X4055955Y1406671D01*
X4059000Y1414022D01*
Y1421978D01*
X4055955Y1429329D01*
X4054294Y1430990D01*
Y1445984D01*
X4124706D01*
Y1433990D01*
X4123045Y1432329D01*
X4120000Y1424978D01*
Y1417022D01*
X4123045Y1409671D01*
X4128671Y1404045D01*
X4136022Y1401000D01*
X4143978D01*
X4151329Y1404045D01*
X4156955Y1409671D01*
X4160000Y1417022D01*
Y1424978D01*
X4156955Y1432329D01*
X4155294Y1433990D01*
Y1445984D01*
X4385102D01*
Y1485512D01*
Y1525039D01*
X4255396D01*
Y1538112D01*
X4257058Y1539773D01*
X4260102Y1547124D01*
Y1555081D01*
X4257058Y1562431D01*
X4251431Y1568058D01*
X4244081Y1571102D01*
X4236124D01*
X4228773Y1568058D01*
X4223147Y1562431D01*
X4220102Y1555081D01*
Y1547124D01*
X4223147Y1539773D01*
X4224809Y1538112D01*
Y1525039D01*
X4205396D01*
Y1538112D01*
X4207058Y1539773D01*
X4210102Y1547124D01*
Y1555081D01*
X4207058Y1562431D01*
X4201431Y1568058D01*
X4194081Y1571102D01*
X4186124D01*
X4178773Y1568058D01*
X4173147Y1562431D01*
X4170102Y1555081D01*
Y1547124D01*
X4173147Y1539773D01*
X4174809Y1538112D01*
Y1525039D01*
X3951294D01*
Y1992010D01*
X3952955Y1993671D01*
X3956000Y2001022D01*
Y2008978D01*
X3952955Y2016329D01*
X3947578Y2021706D01*
X3947667Y2022960D01*
X3948925Y2026706D01*
X3958010D01*
X3959671Y2025045D01*
X3967022Y2022000D01*
X3974978D01*
X3982329Y2025045D01*
X3987955Y2030671D01*
X3991000Y2038022D01*
Y2045978D01*
X3989042Y2050706D01*
X3992111Y2055706D01*
X4319000D01*
X4324853Y2056870D01*
X4329814Y2060186D01*
X4350917Y2081288D01*
X4354232Y2086250D01*
X4355396Y2092102D01*
Y2134961D01*
X4385103D01*
Y2174488D01*
X4390103D01*
D01*
X4385103D01*
Y2214016D01*
X4359569D01*
Y2266383D01*
X4360492Y2266567D01*
X4366730Y2270735D01*
X4370898Y2276973D01*
X4372362Y2284331D01*
Y2313858D01*
X4370898Y2321216D01*
X4366730Y2327454D01*
X4361998Y2330616D01*
X4364276Y2336116D01*
Y2344073D01*
X4361998Y2349573D01*
X4366730Y2352735D01*
X4370898Y2358973D01*
X4372362Y2366331D01*
Y2395858D01*
X4370898Y2403216D01*
X4366730Y2409454D01*
X4360492Y2413622D01*
X4354868Y2414741D01*
X4355360Y2419741D01*
X4400120D01*
X4400612Y2414741D01*
X4394988Y2413622D01*
X4388750Y2409454D01*
X4384582Y2403216D01*
X4383119Y2395858D01*
Y2386094D01*
X4411205D01*
X4439291D01*
Y2395858D01*
X4437827Y2403216D01*
X4433659Y2409454D01*
X4427421Y2413622D01*
X4421797Y2414741D01*
X4422289Y2419741D01*
X4787904D01*
X4791429Y2416195D01*
X4791317Y2397155D01*
X4747581Y2353419D01*
X4743160Y2346803D01*
X4741608Y2339000D01*
Y1902000D01*
X4743160Y1894196D01*
X4747581Y1887581D01*
X4770236Y1864926D01*
X4776851Y1860505D01*
X4784655Y1858953D01*
X4868671D01*
X4870818Y1853770D01*
X4874500Y1848971D01*
Y1784484D01*
X4874354Y1784455D01*
X4868116Y1780287D01*
X4863948Y1774049D01*
X4862484Y1766691D01*
Y1748974D01*
X4863948Y1741616D01*
X4868116Y1735378D01*
X4874354Y1731210D01*
X4881712Y1729747D01*
X4911239D01*
X4918597Y1731210D01*
X4924835Y1735378D01*
X4927427Y1739257D01*
X4937095D01*
X4940291Y1734475D01*
X4946528Y1730307D01*
X4953886Y1728843D01*
X4983414D01*
X4990772Y1730307D01*
X4997010Y1734475D01*
X5000205Y1739257D01*
X5011275D01*
X5012465Y1737475D01*
X5018703Y1733307D01*
X5026061Y1731843D01*
X5055589D01*
X5062947Y1733307D01*
X5069185Y1737475D01*
X5070376Y1739257D01*
X5084475D01*
X5084640Y1739010D01*
X5090878Y1734842D01*
X5098236Y1733379D01*
X5118121D01*
X5123878Y1727621D01*
X5123876Y1727447D01*
X5122341Y1722621D01*
X5098236D01*
X5090878Y1721158D01*
X5084640Y1716990D01*
X5080472Y1710752D01*
X5079309Y1704904D01*
X5074211D01*
X5073353Y1709216D01*
X5069185Y1715454D01*
X5062947Y1719622D01*
X5055589Y1721086D01*
X5026061D01*
X5018703Y1719622D01*
X5012465Y1715454D01*
X5008297Y1709216D01*
X5006834Y1701858D01*
X5001976Y1702203D01*
X5001178Y1706216D01*
X4997010Y1712454D01*
X4990772Y1716622D01*
X4983414Y1718086D01*
X4953886D01*
X4946528Y1716622D01*
X4940291Y1712454D01*
X4936122Y1706216D01*
X4935202Y1701588D01*
X4930104D01*
X4929003Y1707120D01*
X4924835Y1713358D01*
X4918597Y1717526D01*
X4911239Y1718989D01*
X4881712D01*
X4874354Y1717526D01*
X4868116Y1713358D01*
X4863948Y1707120D01*
X4862484Y1699762D01*
Y1682045D01*
X4863948Y1674687D01*
X4868116Y1668449D01*
X4874354Y1664281D01*
X4881182Y1662923D01*
Y1612415D01*
X4878380Y1611858D01*
X4871654Y1607363D01*
X4867159Y1600637D01*
X4865581Y1592703D01*
Y1572033D01*
X4867159Y1564099D01*
X4871654Y1557373D01*
X4878380Y1552879D01*
X4886314Y1551300D01*
X4928637D01*
X4936571Y1552879D01*
X4943297Y1557373D01*
X4947792Y1564099D01*
X4949370Y1572033D01*
Y1592703D01*
X4947792Y1600637D01*
X4943297Y1607363D01*
X4936571Y1611858D01*
X4928637Y1613436D01*
X4911769D01*
Y1662923D01*
X4918597Y1664281D01*
X4924835Y1668449D01*
X4929003Y1674687D01*
X4929924Y1679316D01*
X4935022D01*
X4936122Y1673784D01*
X4940291Y1667546D01*
X4946528Y1663378D01*
X4953356Y1662019D01*
Y1624587D01*
X4954521Y1618734D01*
X4957836Y1613773D01*
X4977245Y1594364D01*
X4976914Y1592703D01*
Y1572033D01*
X4978493Y1564099D01*
X4982987Y1557373D01*
X4989713Y1552879D01*
X4997647Y1551300D01*
X5039970D01*
X5047904Y1552879D01*
X5054631Y1557373D01*
X5059125Y1564099D01*
X5060703Y1572033D01*
Y1592703D01*
X5059125Y1600637D01*
X5054631Y1607363D01*
X5047904Y1611858D01*
X5039970Y1613436D01*
X5001430D01*
X4983944Y1630922D01*
Y1662019D01*
X4990772Y1663378D01*
X4997010Y1667546D01*
X5001178Y1673784D01*
X5002642Y1681142D01*
X5007499Y1680797D01*
X5008297Y1676784D01*
X5012465Y1670546D01*
X5018703Y1666378D01*
X5026061Y1664914D01*
X5028993D01*
Y1659713D01*
X5030157Y1653860D01*
X5033473Y1648899D01*
X5088483Y1593888D01*
X5088248Y1592703D01*
Y1572033D01*
X5089826Y1564099D01*
X5094320Y1557373D01*
X5101047Y1552879D01*
X5108981Y1551300D01*
X5151303D01*
X5159238Y1552879D01*
X5165964Y1557373D01*
X5170458Y1564099D01*
X5172037Y1572033D01*
Y1592703D01*
X5170458Y1600637D01*
X5165964Y1607363D01*
X5159238Y1611858D01*
X5151303Y1613436D01*
X5112193D01*
X5063793Y1661836D01*
X5064970Y1667730D01*
X5069185Y1670546D01*
X5073353Y1676784D01*
X5074516Y1682631D01*
X5079614D01*
X5080472Y1678319D01*
X5084640Y1672081D01*
X5090878Y1667913D01*
X5098236Y1666449D01*
X5127764D01*
X5135122Y1667913D01*
X5141360Y1672081D01*
X5145528Y1678319D01*
X5145711Y1679242D01*
X5205130D01*
X5226181Y1658190D01*
Y1613436D01*
X5220314D01*
X5212380Y1611858D01*
X5205654Y1607363D01*
X5201159Y1600637D01*
X5199581Y1592703D01*
Y1572033D01*
X5201159Y1564099D01*
X5205654Y1557373D01*
X5212380Y1552879D01*
X5220314Y1551300D01*
X5262637D01*
X5270571Y1552879D01*
X5277297Y1557373D01*
X5281792Y1564099D01*
X5283370Y1572033D01*
Y1592703D01*
X5281792Y1600637D01*
X5277297Y1607363D01*
X5270571Y1611858D01*
X5262637Y1613436D01*
X5256769D01*
Y1664525D01*
X5255605Y1670377D01*
X5252290Y1675339D01*
X5222279Y1705350D01*
X5217317Y1708665D01*
X5211465Y1709829D01*
X5145711D01*
X5145528Y1710752D01*
X5141615Y1716608D01*
X5142056Y1718529D01*
X5143448Y1721608D01*
X5507495D01*
X5508395Y1720050D01*
X5515050Y1713395D01*
X5523202Y1708688D01*
X5532294Y1706252D01*
X5541706D01*
X5550798Y1708688D01*
X5558950Y1713395D01*
X5565605Y1720050D01*
X5570312Y1728202D01*
X5572748Y1737294D01*
Y1746706D01*
X5570312Y1755798D01*
X5565605Y1763950D01*
X5558950Y1770605D01*
X5550798Y1775312D01*
X5541706Y1777748D01*
X5532294D01*
X5523202Y1775312D01*
X5515050Y1770605D01*
X5508395Y1763950D01*
X5507495Y1762392D01*
X5146991D01*
Y1770323D01*
X5145528Y1777681D01*
X5141360Y1783919D01*
X5135122Y1788087D01*
X5127764Y1789551D01*
X5098236D01*
X5090878Y1788087D01*
X5084640Y1783919D01*
X5082048Y1780040D01*
X5070751D01*
X5069185Y1782383D01*
X5062947Y1786552D01*
X5055589Y1788015D01*
X5026061D01*
X5018703Y1786552D01*
X5012465Y1782383D01*
X5010900Y1780040D01*
X4996027D01*
X4990772Y1783552D01*
X4983414Y1785015D01*
X4953886D01*
X4946528Y1783552D01*
X4941274Y1780040D01*
X4925000D01*
X4924835Y1780287D01*
X4918597Y1784455D01*
X4915284Y1785114D01*
Y1850252D01*
X4920090Y1853567D01*
X4921074Y1853437D01*
X4924263Y1849281D01*
Y1818345D01*
X4925815Y1810542D01*
X4929004Y1805768D01*
X4929045Y1805671D01*
X4929119Y1805596D01*
X4930235Y1803926D01*
X4931905Y1802811D01*
X4934671Y1800045D01*
X4942022Y1797000D01*
X4949978D01*
X4957329Y1800045D01*
X4962955Y1805671D01*
X4966000Y1813022D01*
Y1820978D01*
X4965046Y1823281D01*
Y1850389D01*
X4969702Y1853618D01*
X4971074Y1853437D01*
X4974263Y1849281D01*
Y1818345D01*
X4975815Y1810542D01*
X4979004Y1805768D01*
X4979045Y1805671D01*
X4979119Y1805596D01*
X4980235Y1803926D01*
X4981905Y1802811D01*
X4984671Y1800045D01*
X4992022Y1797000D01*
X4999978D01*
X5007329Y1800045D01*
X5012955Y1805671D01*
X5016000Y1813022D01*
Y1820978D01*
X5015046Y1823281D01*
Y1850389D01*
X5019702Y1853618D01*
X5021074Y1853437D01*
X5024263Y1849281D01*
Y1818345D01*
X5025815Y1810542D01*
X5029004Y1805768D01*
X5029045Y1805671D01*
X5029119Y1805596D01*
X5030235Y1803926D01*
X5031905Y1802811D01*
X5034671Y1800045D01*
X5042022Y1797000D01*
X5049978D01*
X5057329Y1800045D01*
X5062955Y1805671D01*
X5066000Y1813022D01*
Y1820978D01*
X5065046Y1823281D01*
Y1850389D01*
X5068032Y1852459D01*
X5072608Y1849597D01*
Y1817309D01*
X5072691Y1816893D01*
Y1813022D01*
X5075736Y1805671D01*
X5081362Y1800045D01*
X5088713Y1797000D01*
X5092584D01*
X5093000Y1796917D01*
X5093416Y1797000D01*
X5096669D01*
X5099675Y1798245D01*
X5100804Y1798469D01*
X5101761Y1799109D01*
X5104020Y1800045D01*
X5105749Y1801774D01*
X5107419Y1802890D01*
X5108535Y1804560D01*
X5109646Y1805671D01*
X5110248Y1807123D01*
X5111840Y1809505D01*
X5112399Y1812316D01*
X5112691Y1813022D01*
Y1813786D01*
X5113392Y1817309D01*
Y1850632D01*
X5115544Y1853437D01*
X5118228Y1853792D01*
X5118390D01*
X5121074Y1853437D01*
X5124945Y1848391D01*
X5130324Y1844264D01*
X5136587Y1841670D01*
X5143309Y1840785D01*
X5150031Y1841670D01*
X5156294Y1844264D01*
X5161673Y1848391D01*
X5165544Y1853437D01*
X5168228Y1853792D01*
X5168390D01*
X5171074Y1853437D01*
X5174945Y1848391D01*
X5180324Y1844264D01*
X5186587Y1841670D01*
X5193309Y1840785D01*
X5200031Y1841670D01*
X5206294Y1844264D01*
X5211673Y1848391D01*
X5215544Y1853437D01*
X5218228Y1853792D01*
X5218390D01*
X5221074Y1853437D01*
X5224945Y1848391D01*
X5230324Y1844264D01*
X5236587Y1841670D01*
X5243309Y1840785D01*
X5250031Y1841670D01*
X5256294Y1844264D01*
X5261673Y1848391D01*
X5265800Y1853770D01*
X5268394Y1860033D01*
X5269279Y1866755D01*
Y1895101D01*
X5268394Y1901823D01*
X5265800Y1908086D01*
X5261673Y1913465D01*
X5256294Y1917592D01*
X5250031Y1920187D01*
X5243309Y1921072D01*
X5236587Y1920187D01*
X5230324Y1917592D01*
X5224945Y1913465D01*
X5221074Y1908420D01*
X5218390Y1908065D01*
X5218228D01*
X5215544Y1908420D01*
X5211673Y1913465D01*
X5206294Y1917592D01*
X5200031Y1920187D01*
X5193309Y1921072D01*
X5186587Y1920187D01*
X5180324Y1917592D01*
X5174945Y1913465D01*
X5171074Y1908420D01*
X5168390Y1908065D01*
X5168228D01*
X5165544Y1908420D01*
X5161673Y1913465D01*
X5156294Y1917592D01*
X5150031Y1920187D01*
X5143309Y1921072D01*
X5136587Y1920187D01*
X5130324Y1917592D01*
X5124945Y1913465D01*
X5121074Y1908420D01*
X5118390Y1908065D01*
X5118228D01*
X5115544Y1908420D01*
X5111673Y1913465D01*
X5106294Y1917592D01*
X5100031Y1920187D01*
X5093309Y1921072D01*
X5086587Y1920187D01*
X5080324Y1917592D01*
X5074945Y1913465D01*
X5071074Y1908420D01*
X5068390Y1908065D01*
X5068228D01*
X5065544Y1908420D01*
X5061673Y1913465D01*
X5056294Y1917592D01*
X5050031Y1920187D01*
X5043309Y1921072D01*
X5036587Y1920187D01*
X5030324Y1917592D01*
X5024945Y1913465D01*
X5021074Y1908420D01*
X5018390Y1908065D01*
X5018228D01*
X5015544Y1908420D01*
X5011673Y1913465D01*
X5006294Y1917592D01*
X5000031Y1920187D01*
X4993309Y1921072D01*
X4986587Y1920187D01*
X4980324Y1917592D01*
X4974945Y1913465D01*
X4971074Y1908420D01*
X4968390Y1908065D01*
X4968228D01*
X4965544Y1908420D01*
X4961673Y1913465D01*
X4956294Y1917592D01*
X4950031Y1920187D01*
X4943309Y1921072D01*
X4936587Y1920187D01*
X4930324Y1917592D01*
X4924945Y1913465D01*
X4921074Y1908420D01*
X4918390Y1908065D01*
X4918228D01*
X4915544Y1908420D01*
X4911673Y1913465D01*
X4906294Y1917592D01*
X4900031Y1920187D01*
X4893309Y1921072D01*
X4886587Y1920187D01*
X4880324Y1917592D01*
X4874945Y1913465D01*
X4870818Y1908086D01*
X4868224Y1901823D01*
X4867949Y1899737D01*
X4793102D01*
X4782392Y1910447D01*
Y2330553D01*
X4821643Y2369804D01*
X5001725D01*
X5005626Y2370580D01*
X5013345Y2373777D01*
X5016652Y2375987D01*
X5022560Y2381895D01*
X5024770Y2385203D01*
X5027967Y2392921D01*
X5028743Y2396823D01*
Y2483977D01*
X5138282D01*
Y2466992D01*
X5139167Y2460271D01*
X5141761Y2454007D01*
X5145888Y2448628D01*
X5151267Y2444501D01*
X5157530Y2441907D01*
X5164252Y2441022D01*
X5195748D01*
X5202470Y2441907D01*
X5208733Y2444501D01*
X5214112Y2448628D01*
X5218239Y2454007D01*
X5220833Y2460271D01*
X5221718Y2466992D01*
Y2561480D01*
X5220833Y2568202D01*
X5218239Y2574465D01*
X5214112Y2579844D01*
X5208733Y2583971D01*
X5202470Y2586566D01*
X5195748Y2587450D01*
X5164252D01*
X5157530Y2586566D01*
X5151267Y2583971D01*
X5145888Y2579844D01*
X5141761Y2574465D01*
X5139167Y2568202D01*
X5138282Y2561480D01*
Y2544495D01*
X5028743D01*
Y2558000D01*
X5028599Y2558724D01*
X5028638Y2559460D01*
X5028268Y2562021D01*
Y2583291D01*
X4791732D01*
Y2506675D01*
X4791473Y2504709D01*
Y2485965D01*
X4785767Y2480259D01*
X4118259D01*
Y2544999D01*
X4118259Y2545000D01*
X4117228Y2552832D01*
X4114205Y2560129D01*
X4109396Y2566396D01*
X4109396Y2566397D01*
X4084565Y2591228D01*
Y2604918D01*
X4089192Y2606597D01*
X4089565Y2606529D01*
X4094016Y2599867D01*
X4100905Y2595264D01*
X4109032Y2593647D01*
X4130685D01*
X4138811Y2595264D01*
X4145700Y2599867D01*
X4150303Y2606756D01*
X4151920Y2614882D01*
Y2652738D01*
X4171634D01*
X4207777Y2616594D01*
Y2563726D01*
X4206784Y2563528D01*
X4200546Y2559360D01*
X4196378Y2553122D01*
X4194914Y2545764D01*
Y2516236D01*
X4196378Y2508878D01*
X4200546Y2502640D01*
X4206784Y2498472D01*
X4214142Y2497008D01*
X4231929D01*
X4239287Y2498472D01*
X4245525Y2502640D01*
X4249693Y2508878D01*
X4251157Y2516236D01*
Y2545764D01*
X4249693Y2553122D01*
X4245525Y2559360D01*
X4239287Y2563528D01*
X4238365Y2563711D01*
Y2622929D01*
X4237201Y2628782D01*
X4233885Y2633743D01*
X4188783Y2678846D01*
X4183821Y2682161D01*
X4177968Y2683325D01*
X4151920D01*
Y2721181D01*
X4150303Y2729307D01*
X4145700Y2736196D01*
X4138811Y2740800D01*
X4130685Y2742416D01*
X4109032D01*
X4100905Y2740800D01*
X4094016Y2736196D01*
X4089413Y2729307D01*
X4088943Y2726942D01*
X4083845D01*
X4083374Y2729307D01*
X4078771Y2736196D01*
X4071882Y2740800D01*
X4063756Y2742416D01*
X4042102D01*
X4033976Y2740800D01*
X4027087Y2736196D01*
X4022484Y2729307D01*
X4022014Y2726942D01*
X4016916D01*
X4016445Y2729307D01*
X4011842Y2736196D01*
X4004953Y2740800D01*
X3996827Y2742416D01*
X3991000D01*
Y2668032D01*
Y2593647D01*
X3996827D01*
X4004953Y2595264D01*
X4011842Y2599867D01*
X4016445Y2606756D01*
X4016916Y2609121D01*
X4022014D01*
X4022484Y2606756D01*
X4024047Y2604416D01*
Y2578694D01*
X4025078Y2570863D01*
X4028101Y2563565D01*
X4032910Y2557298D01*
X4057741Y2532466D01*
Y2464000D01*
X4058772Y2456168D01*
X4061795Y2448870D01*
X4066604Y2442604D01*
X4080604Y2428604D01*
X4086870Y2423795D01*
X4094168Y2420772D01*
X4102000Y2419741D01*
X4191655D01*
X4192148Y2414741D01*
X4186524Y2413622D01*
X4180286Y2409454D01*
X4176118Y2403216D01*
X4174654Y2395858D01*
Y2386094D01*
X4202740D01*
Y2381094D01*
X4207740D01*
Y2347103D01*
X4211599D01*
X4215237Y2347827D01*
X4217700Y2343219D01*
X4207567Y2333086D01*
X4193882D01*
X4186524Y2331622D01*
X4180286Y2327454D01*
X4176118Y2321216D01*
X4174654Y2313858D01*
Y2284331D01*
X4176118Y2276973D01*
X4180286Y2270735D01*
X4186524Y2266567D01*
X4187446Y2266383D01*
Y2259260D01*
X4188610Y2253407D01*
X4191926Y2248445D01*
X4212186Y2228186D01*
X4217147Y2224870D01*
X4223000Y2223706D01*
X4274665D01*
X4274809Y2223563D01*
Y2214016D01*
X4155396D01*
Y2351898D01*
X4154232Y2357750D01*
X4150917Y2362712D01*
X4120814Y2392814D01*
X4115853Y2396130D01*
X4110000Y2397294D01*
X3889445D01*
X3888087Y2404122D01*
X3883919Y2410360D01*
X3877681Y2414528D01*
X3870323Y2415992D01*
X3852606D01*
X3845248Y2414528D01*
X3839010Y2410360D01*
X3834842Y2404122D01*
X3833379Y2396764D01*
Y2367236D01*
X3834842Y2359878D01*
X3839010Y2353640D01*
X3845248Y2349472D01*
X3846171Y2349289D01*
Y2335711D01*
X3845248Y2335528D01*
X3839010Y2331360D01*
X3834842Y2325122D01*
X3833379Y2317764D01*
Y2288236D01*
X3834842Y2280878D01*
X3839010Y2274640D01*
X3845248Y2270472D01*
X3852606Y2269008D01*
X3870323D01*
X3877681Y2270472D01*
X3883919Y2274640D01*
X3888087Y2280878D01*
X3889551Y2288236D01*
Y2317764D01*
X3888087Y2325122D01*
X3883919Y2331360D01*
X3877681Y2335528D01*
X3876758Y2335711D01*
Y2349289D01*
X3877681Y2349472D01*
X3883919Y2353640D01*
X3888087Y2359878D01*
X3889445Y2366706D01*
X4103665D01*
X4124809Y2345563D01*
Y2214016D01*
X4055396D01*
Y2224907D01*
X4057058Y2226568D01*
X4060102Y2233919D01*
Y2241876D01*
X4057058Y2249227D01*
X4051432Y2254853D01*
X4044081Y2257898D01*
X4036124D01*
X4028773Y2254853D01*
X4023147Y2249227D01*
X4020102Y2241876D01*
Y2233919D01*
X4023147Y2226568D01*
X4024809Y2224907D01*
Y2214016D01*
X3855396D01*
Y2225112D01*
X3857058Y2226773D01*
X3860102Y2234124D01*
Y2242081D01*
X3857058Y2249432D01*
X3851432Y2255058D01*
X3844081Y2258102D01*
X3836124D01*
X3828773Y2255058D01*
X3823147Y2249432D01*
X3820102Y2242081D01*
Y2234124D01*
X3823147Y2226773D01*
X3824809Y2225112D01*
Y2214016D01*
X3805396D01*
Y2238142D01*
X3804232Y2243995D01*
X3800917Y2248956D01*
X3795059Y2254814D01*
X3790097Y2258130D01*
X3784244Y2259294D01*
X3713335D01*
X3702294Y2270335D01*
Y2646000D01*
X3701130Y2651853D01*
X3697814Y2656814D01*
X3654469Y2700160D01*
X3649507Y2703475D01*
X3643655Y2704639D01*
X3418908D01*
X3418316Y2707614D01*
X3413822Y2714340D01*
X3407096Y2718835D01*
X3399161Y2720413D01*
X3356839D01*
X3348904Y2718835D01*
X3342178Y2714340D01*
X3337684Y2707614D01*
X3336106Y2699680D01*
Y2679011D01*
X3337684Y2671077D01*
X3342178Y2664350D01*
X3348904Y2659856D01*
X3356839Y2658278D01*
X3399161D01*
X3407096Y2659856D01*
X3413822Y2664350D01*
X3418316Y2671077D01*
X3418908Y2674052D01*
X3637320D01*
X3671706Y2639665D01*
Y2264000D01*
X3672870Y2258147D01*
X3676186Y2253186D01*
X3696186Y2233186D01*
X3701147Y2229870D01*
X3707000Y2228706D01*
X3774809D01*
Y2214016D01*
X3712386D01*
Y2134961D01*
X4274809D01*
Y2124437D01*
X4266665Y2116294D01*
X3471335D01*
X3409294Y2178335D01*
Y2384000D01*
X3408130Y2389853D01*
X3404814Y2394814D01*
X3360814Y2438814D01*
X3355853Y2442130D01*
X3350000Y2443294D01*
X3302149D01*
X3300604Y2451058D01*
X3295349Y2458924D01*
X3287483Y2464179D01*
X3278205Y2466025D01*
X3246709D01*
X3237430Y2464179D01*
X3229565Y2458924D01*
X3228294Y2457022D01*
X3223294Y2458539D01*
Y2708000D01*
X3222130Y2713853D01*
X3218814Y2718814D01*
X3190283Y2747346D01*
X3185321Y2750661D01*
X3179468Y2751825D01*
X3169350D01*
X3165698Y2757292D01*
X3159785Y2761243D01*
X3152811Y2762630D01*
X3129189D01*
X3122215Y2761243D01*
X3116302Y2757292D01*
X3116294Y2757279D01*
X3111294Y2758796D01*
Y2802000D01*
X3110130Y2807853D01*
X3106814Y2812814D01*
X3082814Y2836814D01*
X3077853Y2840130D01*
X3072000Y2841294D01*
X2929000D01*
X2923147Y2840130D01*
X2918186Y2836814D01*
X2883665Y2802294D01*
X2872215D01*
X2869860Y2805364D01*
X2864814Y2809235D01*
X2864459Y2811919D01*
Y2812081D01*
X2864814Y2814765D01*
X2869860Y2818636D01*
X2873987Y2824015D01*
X2876581Y2830278D01*
X2877466Y2837000D01*
X2876581Y2843722D01*
X2873987Y2849985D01*
X2869860Y2855364D01*
X2864814Y2859235D01*
X2864740Y2859796D01*
X2867153Y2864409D01*
X2930813D01*
X2931913Y2858878D01*
X2936081Y2852640D01*
X2942319Y2848472D01*
X2949677Y2847008D01*
X2967394D01*
X2974752Y2848472D01*
X2980990Y2852640D01*
X2985158Y2858878D01*
X2986622Y2866236D01*
Y2895764D01*
X2985158Y2903122D01*
X2980990Y2909360D01*
X2974752Y2913528D01*
X2967394Y2914992D01*
X2949677D01*
X2942319Y2913528D01*
X2936081Y2909360D01*
X2933296Y2905192D01*
X2869991D01*
X2869860Y2905364D01*
X2864481Y2909491D01*
X2858218Y2912085D01*
X2857715Y2912151D01*
Y2994677D01*
X2856162Y3002481D01*
X2851742Y3009096D01*
X2849419Y3011419D01*
X2847749Y3012535D01*
X2846329Y3013955D01*
X2844474Y3014724D01*
X2842804Y3015840D01*
X2840834Y3016231D01*
X2838978Y3017000D01*
X2836970D01*
X2835000Y3017392D01*
D02*
G37*
G36*
X4958764Y3093429D02*
X4836717D01*
X4828967Y3092409D01*
X4821746Y3089418D01*
X4815545Y3084660D01*
X4810787Y3078459D01*
X4807796Y3071238D01*
X4806775Y3063488D01*
Y3024118D01*
X4807796Y3016369D01*
X4810787Y3009147D01*
X4815545Y3002946D01*
X4821746Y2998188D01*
X4828967Y2995197D01*
X4836717Y2994177D01*
X4867481D01*
Y2750614D01*
X4791732D01*
Y2738841D01*
X4612236D01*
Y2817827D01*
X4371764D01*
Y2632472D01*
X4612236D01*
Y2678324D01*
X4791732D01*
Y2642032D01*
X5028268D01*
Y2750614D01*
X4927999D01*
Y2994177D01*
X4958764D01*
X4966513Y2995197D01*
X4973734Y2998188D01*
X4979935Y3002946D01*
X4984694Y3009147D01*
X4987685Y3016369D01*
X4988705Y3024118D01*
Y3063488D01*
X4987685Y3071238D01*
X4984694Y3078459D01*
X4979935Y3084660D01*
X4973734Y3089418D01*
X4966513Y3092409D01*
X4958764Y3093429D01*
D02*
G37*
G36*
X2316331Y3020392D02*
X2314361Y3020000D01*
X2312353D01*
X2310497Y3019231D01*
X2308527Y3018840D01*
X2306858Y3017724D01*
X2305002Y3016955D01*
X2303581Y3015535D01*
X2301912Y3014419D01*
X2301746Y3014254D01*
X2300631Y3012584D01*
X2299376Y3011329D01*
X2298697Y3009690D01*
X2297326Y3007638D01*
X2296845Y3005218D01*
X2296331Y3003978D01*
Y3002636D01*
X2295774Y2999834D01*
Y2816533D01*
X2288731Y2815606D01*
X2281510Y2812615D01*
X2275309Y2807857D01*
X2270551Y2801656D01*
X2267559Y2794434D01*
X2266539Y2786685D01*
Y2747315D01*
X2267559Y2739566D01*
X2270551Y2732344D01*
X2275309Y2726143D01*
X2281510Y2721385D01*
X2288731Y2718394D01*
X2296480Y2717374D01*
X2335851D01*
X2343600Y2718394D01*
X2350821Y2721385D01*
X2357022Y2726143D01*
X2361780Y2732344D01*
X2364772Y2739566D01*
X2365699Y2746608D01*
X2420410D01*
Y2736931D01*
X2491590D01*
Y2817954D01*
X2420410D01*
Y2787392D01*
X2365699D01*
X2364772Y2794434D01*
X2361780Y2801656D01*
X2357022Y2807857D01*
X2350821Y2812615D01*
X2343600Y2815606D01*
X2336557Y2816533D01*
Y2999168D01*
X2336723Y3000000D01*
X2336331Y3001970D01*
Y3003978D01*
X2335562Y3005834D01*
X2335171Y3007804D01*
X2334055Y3009474D01*
X2333286Y3011329D01*
X2331866Y3012749D01*
X2330750Y3014419D01*
X2329080Y3015535D01*
X2327660Y3016955D01*
X2325805Y3017724D01*
X2324135Y3018840D01*
X2322165Y3019231D01*
X2320309Y3020000D01*
X2318301D01*
X2316331Y3020392D01*
D02*
G37*
G36*
X3384890Y2878086D02*
X3355362D01*
X3348004Y2876622D01*
X3341766Y2872454D01*
X3337598Y2866216D01*
X3336135Y2858858D01*
Y2841142D01*
X3337598Y2833784D01*
X3341766Y2827546D01*
X3348004Y2823378D01*
X3354832Y2822019D01*
Y2796786D01*
X3348904Y2795607D01*
X3342178Y2791112D01*
X3337684Y2784386D01*
X3336106Y2776452D01*
Y2755782D01*
X3337684Y2747848D01*
X3342178Y2741122D01*
X3348904Y2736628D01*
X3356839Y2735049D01*
X3399161D01*
X3407096Y2736628D01*
X3413822Y2741122D01*
X3418316Y2747848D01*
X3419894Y2755782D01*
Y2776452D01*
X3418316Y2784386D01*
X3413822Y2791112D01*
X3407096Y2795607D01*
X3399161Y2797185D01*
X3385420D01*
Y2822019D01*
X3392248Y2823378D01*
X3398486Y2827546D01*
X3402654Y2833784D01*
X3404117Y2841142D01*
Y2858858D01*
X3402654Y2866216D01*
X3398486Y2872454D01*
X3392248Y2876622D01*
X3384890Y2878086D01*
D02*
G37*
G36*
X3306804D02*
X3277277D01*
X3269919Y2876622D01*
X3263681Y2872454D01*
X3259512Y2866216D01*
X3258049Y2858858D01*
Y2841142D01*
X3259512Y2833784D01*
X3263681Y2827546D01*
X3269919Y2823378D01*
X3276747Y2822019D01*
Y2797185D01*
X3263005D01*
X3255071Y2795607D01*
X3248345Y2791112D01*
X3243850Y2784386D01*
X3242272Y2776452D01*
Y2755782D01*
X3243850Y2747848D01*
X3248345Y2741122D01*
X3255071Y2736628D01*
X3263005Y2735049D01*
X3305328D01*
X3313262Y2736628D01*
X3319988Y2741122D01*
X3324483Y2747848D01*
X3326061Y2755782D01*
Y2776452D01*
X3324483Y2784386D01*
X3319988Y2791112D01*
X3313262Y2795607D01*
X3307334Y2796786D01*
Y2822019D01*
X3314162Y2823378D01*
X3320400Y2827546D01*
X3324568Y2833784D01*
X3326032Y2841142D01*
Y2858858D01*
X3324568Y2866216D01*
X3320400Y2872454D01*
X3314162Y2876622D01*
X3306804Y2878086D01*
D02*
G37*
G36*
X1558189Y2871682D02*
X1543811D01*
X1529709Y2868877D01*
X1516425Y2863375D01*
X1504470Y2855387D01*
X1494303Y2845220D01*
X1486315Y2833265D01*
X1480813Y2819981D01*
X1478008Y2805879D01*
Y2791501D01*
X1480813Y2777399D01*
X1486315Y2764115D01*
X1494303Y2752160D01*
X1504470Y2741993D01*
X1516425Y2734005D01*
X1529709Y2728503D01*
X1543811Y2725698D01*
X1558189D01*
X1572291Y2728503D01*
X1585575Y2734005D01*
X1597530Y2741993D01*
X1607697Y2752160D01*
X1615685Y2764115D01*
X1621187Y2777399D01*
X1623992Y2791501D01*
Y2805879D01*
X1621187Y2819981D01*
X1615685Y2833265D01*
X1607697Y2845220D01*
X1597530Y2855387D01*
X1585575Y2863375D01*
X1572291Y2868877D01*
X1558189Y2871682D01*
D02*
G37*
G36*
X798346D02*
X783968D01*
X769866Y2868877D01*
X756583Y2863375D01*
X744628Y2855387D01*
X734461Y2845220D01*
X726473Y2833265D01*
X720970Y2819981D01*
X718165Y2805879D01*
Y2791501D01*
X720970Y2777399D01*
X726473Y2764115D01*
X734461Y2752160D01*
X744628Y2741993D01*
X756583Y2734005D01*
X769866Y2728503D01*
X783968Y2725698D01*
X798346D01*
X812448Y2728503D01*
X825732Y2734005D01*
X837687Y2741993D01*
X847854Y2752160D01*
X855842Y2764115D01*
X861345Y2777399D01*
X864149Y2791501D01*
Y2805879D01*
X861345Y2819981D01*
X855842Y2833265D01*
X847854Y2845220D01*
X837687Y2855387D01*
X825732Y2863375D01*
X812448Y2868877D01*
X798346Y2871682D01*
D02*
G37*
G36*
X5195748Y2784301D02*
X5185000D01*
Y2716086D01*
X5221718D01*
Y2758331D01*
X5220833Y2765052D01*
X5218239Y2771316D01*
X5214112Y2776694D01*
X5208733Y2780822D01*
X5202470Y2783416D01*
X5195748Y2784301D01*
D02*
G37*
G36*
X5175000D02*
X5164252D01*
X5157530Y2783416D01*
X5151267Y2780822D01*
X5145888Y2776694D01*
X5141761Y2771316D01*
X5139167Y2765052D01*
X5138282Y2758331D01*
Y2716086D01*
X5175000D01*
Y2784301D01*
D02*
G37*
G36*
X3305328Y2720413D02*
X3289166D01*
Y2694346D01*
X3326061D01*
Y2699680D01*
X3324483Y2707614D01*
X3319988Y2714340D01*
X3313262Y2718835D01*
X3305328Y2720413D01*
D02*
G37*
G36*
X3279166D02*
X3263005D01*
X3255071Y2718835D01*
X3248345Y2714340D01*
X3243850Y2707614D01*
X3242272Y2699680D01*
Y2694346D01*
X3279166D01*
Y2720413D01*
D02*
G37*
G36*
X3326061Y2684346D02*
X3289166D01*
Y2658278D01*
X3305328D01*
X3313262Y2659856D01*
X3319988Y2664350D01*
X3324483Y2671077D01*
X3326061Y2679011D01*
Y2684346D01*
D02*
G37*
G36*
X3279166D02*
X3242272D01*
Y2679011D01*
X3243850Y2671077D01*
X3248345Y2664350D01*
X3255071Y2659856D01*
X3263005Y2658278D01*
X3279166D01*
Y2684346D01*
D02*
G37*
G36*
X5221718Y2706086D02*
X5185000D01*
Y2637872D01*
X5195748D01*
X5202470Y2638757D01*
X5208733Y2641352D01*
X5214112Y2645479D01*
X5218239Y2650857D01*
X5220833Y2657121D01*
X5221718Y2663843D01*
Y2706086D01*
D02*
G37*
G36*
X5175000D02*
X5138282D01*
Y2663843D01*
X5139167Y2657121D01*
X5141761Y2650857D01*
X5145888Y2645479D01*
X5151267Y2641352D01*
X5157530Y2638757D01*
X5164252Y2637872D01*
X5175000D01*
Y2706086D01*
D02*
G37*
G36*
X2147978Y2962000D02*
X2140022D01*
X2132671Y2958955D01*
X2127045Y2953329D01*
X2124000Y2945978D01*
Y2938022D01*
X2127045Y2930671D01*
X2128706Y2929010D01*
Y2816626D01*
X2119315D01*
X2111566Y2815606D01*
X2104344Y2812615D01*
X2098143Y2807857D01*
X2093385Y2801656D01*
X2090394Y2794434D01*
X2089374Y2786685D01*
Y2747315D01*
X2090394Y2739566D01*
X2093385Y2732344D01*
X2098143Y2726143D01*
X2104344Y2721385D01*
X2111566Y2718394D01*
X2119315Y2717374D01*
X2123706D01*
Y2663209D01*
X2119315D01*
X2111566Y2662189D01*
X2104344Y2659198D01*
X2098143Y2654439D01*
X2093385Y2648238D01*
X2090394Y2641017D01*
X2089374Y2633268D01*
Y2593898D01*
X2090394Y2586148D01*
X2093385Y2578927D01*
X2098143Y2572726D01*
X2104344Y2567968D01*
X2111566Y2564977D01*
X2119315Y2563956D01*
X2158685D01*
X2166434Y2564977D01*
X2173656Y2567968D01*
X2179857Y2572726D01*
X2184615Y2578927D01*
X2187606Y2586148D01*
X2188626Y2593898D01*
Y2633268D01*
X2187606Y2641017D01*
X2184615Y2648238D01*
X2179857Y2654439D01*
X2173656Y2659198D01*
X2166434Y2662189D01*
X2158685Y2663209D01*
X2154294D01*
Y2717374D01*
X2158685D01*
X2166435Y2718394D01*
X2173656Y2721385D01*
X2179857Y2726143D01*
X2184615Y2732344D01*
X2187606Y2739566D01*
X2188626Y2747315D01*
Y2786685D01*
X2187606Y2794434D01*
X2184615Y2801656D01*
X2179857Y2807857D01*
X2173656Y2812615D01*
X2166435Y2815606D01*
X2159294Y2816546D01*
Y2929010D01*
X2160955Y2930671D01*
X2164000Y2938022D01*
Y2945978D01*
X2160955Y2953329D01*
X2155329Y2958955D01*
X2147978Y2962000D01*
D02*
G37*
G36*
X4164929Y2564992D02*
X4161071D01*
Y2536000D01*
X4184157D01*
Y2545764D01*
X4182693Y2553122D01*
X4178525Y2559360D01*
X4172287Y2563528D01*
X4164929Y2564992D01*
D02*
G37*
G36*
X4151071D02*
X4147213D01*
X4139855Y2563528D01*
X4133617Y2559360D01*
X4129449Y2553122D01*
X4127985Y2545764D01*
Y2536000D01*
X4151071D01*
Y2564992D01*
D02*
G37*
G36*
X4298858D02*
X4281142D01*
X4273784Y2563528D01*
X4267546Y2559360D01*
X4263378Y2553122D01*
X4261914Y2545764D01*
Y2516236D01*
X4263378Y2508878D01*
X4267546Y2502640D01*
X4273784Y2498472D01*
X4281142Y2497008D01*
X4298858D01*
X4306217Y2498472D01*
X4312454Y2502640D01*
X4316623Y2508878D01*
X4318080Y2516206D01*
X4334510D01*
X4335671Y2515045D01*
X4343022Y2512000D01*
X4350978D01*
X4358329Y2515045D01*
X4363955Y2520671D01*
X4367000Y2528022D01*
Y2535978D01*
X4363955Y2543329D01*
X4358329Y2548955D01*
X4350978Y2552000D01*
X4343022D01*
X4335671Y2548955D01*
X4333510Y2546794D01*
X4317881D01*
X4316623Y2553122D01*
X4312454Y2559360D01*
X4306217Y2563528D01*
X4298858Y2564992D01*
D02*
G37*
G36*
X4184157Y2526000D02*
X4161071D01*
Y2497008D01*
X4164929D01*
X4172287Y2498472D01*
X4178525Y2502640D01*
X4182693Y2508878D01*
X4184157Y2516236D01*
Y2526000D01*
D02*
G37*
G36*
X4151071D02*
X4127985D01*
Y2516236D01*
X4129449Y2508878D01*
X4133617Y2502640D01*
X4139855Y2498472D01*
X4147213Y2497008D01*
X4151071D01*
Y2526000D01*
D02*
G37*
G36*
X3060291Y2555228D02*
X3040606D01*
X3033632Y2553841D01*
X3027720Y2549890D01*
X3023769Y2543978D01*
X3022382Y2537004D01*
Y2521256D01*
X3023769Y2514282D01*
X3027720Y2508369D01*
X3033632Y2504419D01*
X3035155Y2504116D01*
Y2494542D01*
X3033494Y2492880D01*
X3030449Y2485529D01*
Y2477573D01*
X3033494Y2470222D01*
X3039120Y2464596D01*
X3046471Y2461551D01*
X3054427D01*
X3061778Y2464596D01*
X3067404Y2470222D01*
X3070449Y2477573D01*
Y2485529D01*
X3067404Y2492880D01*
X3065743Y2494542D01*
Y2504116D01*
X3067265Y2504419D01*
X3073178Y2508369D01*
X3077128Y2514282D01*
X3078515Y2521256D01*
Y2537004D01*
X3077128Y2543978D01*
X3073178Y2549890D01*
X3067265Y2553841D01*
X3060291Y2555228D01*
D02*
G37*
G36*
X2812858Y2470409D02*
X2809000D01*
Y2441417D01*
X2832086D01*
Y2451181D01*
X2830622Y2458539D01*
X2826454Y2464777D01*
X2820216Y2468945D01*
X2812858Y2470409D01*
D02*
G37*
G36*
X2799000D02*
X2795142D01*
X2787784Y2468945D01*
X2781546Y2464777D01*
X2777378Y2458539D01*
X2775914Y2451181D01*
Y2441417D01*
X2799000D01*
Y2470409D01*
D02*
G37*
G36*
X2493685Y2486044D02*
X2479000D01*
Y2441417D01*
X2523626D01*
Y2456102D01*
X2522606Y2463852D01*
X2519615Y2471073D01*
X2514857Y2477274D01*
X2508656Y2482032D01*
X2501434Y2485023D01*
X2493685Y2486044D01*
D02*
G37*
G36*
X2158685D02*
X2144000D01*
Y2441417D01*
X2188626D01*
Y2456102D01*
X2187606Y2463852D01*
X2184615Y2471073D01*
X2179857Y2477274D01*
X2173656Y2482032D01*
X2166434Y2485023D01*
X2158685Y2486044D01*
D02*
G37*
G36*
X2326185D02*
X2311500D01*
Y2441417D01*
X2356126D01*
Y2456102D01*
X2355106Y2463852D01*
X2352115Y2471073D01*
X2347357Y2477274D01*
X2341156Y2482032D01*
X2333934Y2485023D01*
X2326185Y2486044D01*
D02*
G37*
G36*
X2600929Y2470409D02*
X2597071D01*
Y2441417D01*
X2620157D01*
Y2451181D01*
X2618693Y2458539D01*
X2614525Y2464777D01*
X2608287Y2468945D01*
X2600929Y2470409D01*
D02*
G37*
G36*
X2587071D02*
X2583213D01*
X2575854Y2468945D01*
X2569617Y2464777D01*
X2565448Y2458539D01*
X2563985Y2451181D01*
Y2441417D01*
X2587071D01*
Y2470409D01*
D02*
G37*
G36*
X2469000Y2486044D02*
X2454315D01*
X2446566Y2485023D01*
X2439344Y2482032D01*
X2433143Y2477274D01*
X2428385Y2471073D01*
X2425394Y2463852D01*
X2424374Y2456102D01*
Y2441417D01*
X2469000D01*
Y2486044D01*
D02*
G37*
G36*
X2301500D02*
X2286815D01*
X2279066Y2485023D01*
X2271844Y2482032D01*
X2265643Y2477274D01*
X2260885Y2471073D01*
X2257894Y2463852D01*
X2256874Y2456102D01*
Y2441417D01*
X2301500D01*
Y2486044D01*
D02*
G37*
G36*
X2134000D02*
X2119315D01*
X2111566Y2485023D01*
X2104344Y2482032D01*
X2098143Y2477274D01*
X2093385Y2471073D01*
X2090394Y2463852D01*
X2089374Y2456102D01*
Y2441417D01*
X2134000D01*
Y2486044D01*
D02*
G37*
G36*
X3585291Y2466025D02*
X3574543D01*
Y2433000D01*
X3609537D01*
Y2441780D01*
X3607691Y2451058D01*
X3602435Y2458924D01*
X3594570Y2464179D01*
X3585291Y2466025D01*
D02*
G37*
G36*
X3564543D02*
X3553795D01*
X3544517Y2464179D01*
X3536651Y2458924D01*
X3531396Y2451058D01*
X3529550Y2441780D01*
Y2433000D01*
X3564543D01*
Y2466025D01*
D02*
G37*
G36*
X2832086Y2431417D02*
X2809000D01*
Y2402426D01*
X2812858D01*
X2820216Y2403889D01*
X2826454Y2408057D01*
X2830622Y2414295D01*
X2832086Y2421653D01*
Y2431417D01*
D02*
G37*
G36*
X2799000D02*
X2775914D01*
Y2421653D01*
X2777378Y2414295D01*
X2781546Y2408057D01*
X2787784Y2403889D01*
X2795142Y2402426D01*
X2799000D01*
Y2431417D01*
D02*
G37*
G36*
X2620157Y2431417D02*
X2597071D01*
Y2402426D01*
X2600929D01*
X2608287Y2403889D01*
X2614525Y2408057D01*
X2618693Y2414295D01*
X2620157Y2421653D01*
Y2431417D01*
D02*
G37*
G36*
X2587071D02*
X2563985D01*
Y2421653D01*
X2565448Y2414295D01*
X2569617Y2408057D01*
X2575854Y2403889D01*
X2583213Y2402426D01*
X2587071D01*
Y2431417D01*
D02*
G37*
G36*
X3609537Y2423000D02*
X3574543D01*
Y2389975D01*
X3585291D01*
X3594570Y2391821D01*
X3602435Y2397076D01*
X3607691Y2404942D01*
X3609537Y2414220D01*
Y2423000D01*
D02*
G37*
G36*
X3564543D02*
X3529550D01*
Y2414220D01*
X3531396Y2404942D01*
X3536651Y2397076D01*
X3544517Y2391821D01*
X3553795Y2389975D01*
X3564543D01*
Y2423000D01*
D02*
G37*
G36*
X2523626Y2431417D02*
X2479000D01*
Y2386791D01*
X2493685D01*
X2501434Y2387811D01*
X2508656Y2390802D01*
X2514857Y2395561D01*
X2519615Y2401762D01*
X2522606Y2408983D01*
X2523626Y2416732D01*
Y2431417D01*
D02*
G37*
G36*
X2469000D02*
X2424374D01*
Y2416732D01*
X2425394Y2408983D01*
X2428385Y2401762D01*
X2433143Y2395561D01*
X2439344Y2390802D01*
X2446566Y2387811D01*
X2454315Y2386791D01*
X2469000D01*
Y2431417D01*
D02*
G37*
G36*
X2356126D02*
X2311500D01*
Y2386791D01*
X2326185D01*
X2333934Y2387811D01*
X2341156Y2390802D01*
X2347357Y2395561D01*
X2352115Y2401762D01*
X2355106Y2408983D01*
X2356126Y2416732D01*
Y2431417D01*
D02*
G37*
G36*
X2301500D02*
X2256874D01*
Y2416732D01*
X2257894Y2408983D01*
X2260885Y2401762D01*
X2265643Y2395561D01*
X2271844Y2390802D01*
X2279066Y2387811D01*
X2286815Y2386791D01*
X2301500D01*
Y2431417D01*
D02*
G37*
G36*
X2188626D02*
X2144000D01*
Y2386791D01*
X2158685D01*
X2166434Y2387811D01*
X2173656Y2390802D01*
X2179857Y2395561D01*
X2184615Y2401762D01*
X2187606Y2408983D01*
X2188626Y2416732D01*
Y2431417D01*
D02*
G37*
G36*
X2134000D02*
X2089374D01*
Y2416732D01*
X2090394Y2408983D01*
X2093385Y2401762D01*
X2098143Y2395561D01*
X2104344Y2390802D01*
X2111566Y2387811D01*
X2119315Y2386791D01*
X2134000D01*
Y2431417D01*
D02*
G37*
G36*
X4439291Y2376094D02*
X4416205D01*
Y2347103D01*
X4420063D01*
X4427421Y2348567D01*
X4433659Y2352735D01*
X4437827Y2358973D01*
X4439291Y2366331D01*
Y2376094D01*
D02*
G37*
G36*
X4406205D02*
X4383119D01*
Y2366331D01*
X4384582Y2358973D01*
X4388750Y2352735D01*
X4394988Y2348567D01*
X4402346Y2347103D01*
X4406205D01*
Y2376094D01*
D02*
G37*
G36*
X4197740Y2376094D02*
X4174654D01*
Y2366331D01*
X4176118Y2358973D01*
X4180286Y2352735D01*
X4186524Y2348567D01*
X4193882Y2347103D01*
X4197740D01*
Y2376094D01*
D02*
G37*
G36*
X4007685Y2357044D02*
X3993000D01*
Y2312417D01*
X4037626D01*
Y2327102D01*
X4036606Y2334852D01*
X4033615Y2342073D01*
X4028857Y2348274D01*
X4022656Y2353032D01*
X4015434Y2356023D01*
X4007685Y2357044D01*
D02*
G37*
G36*
X3983000D02*
X3968315D01*
X3960566Y2356023D01*
X3953344Y2353032D01*
X3947143Y2348274D01*
X3942385Y2342073D01*
X3939394Y2334852D01*
X3938374Y2327102D01*
Y2312417D01*
X3983000D01*
Y2357044D01*
D02*
G37*
G36*
X3803394Y2336992D02*
X3799536D01*
Y2308000D01*
X3822622D01*
Y2317764D01*
X3821158Y2325122D01*
X3816990Y2331360D01*
X3810752Y2335528D01*
X3803394Y2336992D01*
D02*
G37*
G36*
X3789536D02*
X3785677D01*
X3778319Y2335528D01*
X3772081Y2331360D01*
X3767913Y2325122D01*
X3766450Y2317764D01*
Y2308000D01*
X3789536D01*
Y2336992D01*
D02*
G37*
G36*
X4420063Y2333086D02*
X4416205D01*
Y2304094D01*
X4439291D01*
Y2313858D01*
X4437827Y2321216D01*
X4433659Y2327454D01*
X4427421Y2331622D01*
X4420063Y2333086D01*
D02*
G37*
G36*
X4406205D02*
X4402346D01*
X4394988Y2331622D01*
X4388750Y2327454D01*
X4384582Y2321216D01*
X4383119Y2313858D01*
Y2304094D01*
X4406205D01*
Y2333086D01*
D02*
G37*
G36*
X3822622Y2298000D02*
X3799536D01*
Y2269008D01*
X3803394D01*
X3810752Y2270472D01*
X3816990Y2274640D01*
X3821158Y2280878D01*
X3822622Y2288236D01*
Y2298000D01*
D02*
G37*
G36*
X3789536D02*
X3766450D01*
Y2288236D01*
X3767913Y2280878D01*
X3772081Y2274640D01*
X3778319Y2270472D01*
X3785677Y2269008D01*
X3789536D01*
Y2298000D01*
D02*
G37*
G36*
X4439291Y2294094D02*
X4416205D01*
Y2265103D01*
X4420063D01*
X4427421Y2266567D01*
X4433659Y2270735D01*
X4437827Y2276973D01*
X4439291Y2284331D01*
Y2294094D01*
D02*
G37*
G36*
X4406205D02*
X4383119D01*
Y2284331D01*
X4384582Y2276973D01*
X4388750Y2270735D01*
X4394988Y2266567D01*
X4402346Y2265103D01*
X4406205D01*
Y2294094D01*
D02*
G37*
G36*
X4037626Y2302417D02*
X3993000D01*
Y2257791D01*
X4007685D01*
X4015434Y2258811D01*
X4022656Y2261802D01*
X4028857Y2266561D01*
X4033615Y2272762D01*
X4036606Y2279983D01*
X4037626Y2287732D01*
Y2302417D01*
D02*
G37*
G36*
X3983000D02*
X3938374D01*
Y2287732D01*
X3939394Y2279983D01*
X3942385Y2272762D01*
X3947143Y2266561D01*
X3953344Y2261802D01*
X3960566Y2258811D01*
X3968315Y2257791D01*
X3983000D01*
Y2302417D01*
D02*
G37*
G36*
X3585291Y2245025D02*
X3574543D01*
Y2212000D01*
X3609537D01*
Y2220780D01*
X3607691Y2230058D01*
X3602435Y2237924D01*
X3594570Y2243179D01*
X3585291Y2245025D01*
D02*
G37*
G36*
X3564543D02*
X3553795D01*
X3544517Y2243179D01*
X3536651Y2237924D01*
X3531396Y2230058D01*
X3529550Y2220780D01*
Y2212000D01*
X3564543D01*
Y2245025D01*
D02*
G37*
G36*
X4417819Y2214016D02*
X4395103D01*
Y2179488D01*
X4417819D01*
Y2214016D01*
D02*
G37*
G36*
X5507489Y2412850D02*
X5488873D01*
X5470487Y2409938D01*
X5452782Y2404186D01*
X5436195Y2395734D01*
X5421135Y2384792D01*
X5407972Y2371629D01*
X5397029Y2356568D01*
X5388578Y2339982D01*
X5382826Y2322277D01*
X5379913Y2303891D01*
Y2285275D01*
X5382826Y2266888D01*
X5388578Y2249184D01*
X5397029Y2232597D01*
X5407972Y2217537D01*
X5421135Y2204373D01*
X5436195Y2193431D01*
X5452782Y2184980D01*
X5470487Y2179227D01*
X5488873Y2176315D01*
X5507489D01*
X5525876Y2179227D01*
X5543580Y2184980D01*
X5560167Y2193431D01*
X5575227Y2204373D01*
X5588391Y2217537D01*
X5599333Y2232597D01*
X5607784Y2249184D01*
X5613537Y2266888D01*
X5616449Y2285275D01*
Y2303891D01*
X5613537Y2322277D01*
X5607784Y2339982D01*
X5599333Y2356568D01*
X5588391Y2371629D01*
X5575227Y2384792D01*
X5560167Y2395734D01*
X5543580Y2404186D01*
X5525876Y2409938D01*
X5507489Y2412850D01*
D02*
G37*
G36*
X231899D02*
X213283D01*
X194896Y2409938D01*
X177192Y2404186D01*
X160605Y2395734D01*
X145544Y2384792D01*
X132381Y2371629D01*
X121439Y2356568D01*
X112988Y2339982D01*
X107235Y2322277D01*
X104323Y2303891D01*
Y2285275D01*
X107235Y2266888D01*
X112988Y2249184D01*
X121439Y2232597D01*
X132381Y2217537D01*
X145544Y2204373D01*
X160605Y2193431D01*
X177192Y2184980D01*
X194896Y2179227D01*
X213283Y2176315D01*
X231899D01*
X250285Y2179227D01*
X267990Y2184980D01*
X284576Y2193431D01*
X299637Y2204373D01*
X312800Y2217537D01*
X323742Y2232597D01*
X332194Y2249184D01*
X337946Y2266888D01*
X340858Y2285275D01*
Y2303891D01*
X337946Y2322277D01*
X332194Y2339982D01*
X323742Y2356568D01*
X312800Y2371629D01*
X299637Y2384792D01*
X284576Y2395734D01*
X267990Y2404186D01*
X250285Y2409938D01*
X231899Y2412850D01*
D02*
G37*
G36*
X3609537Y2202000D02*
X3574543D01*
Y2168975D01*
X3585291D01*
X3594570Y2170821D01*
X3602435Y2176076D01*
X3607691Y2183942D01*
X3609537Y2193220D01*
Y2202000D01*
D02*
G37*
G36*
X3564543D02*
X3529550D01*
Y2193220D01*
X3531396Y2183942D01*
X3536651Y2176076D01*
X3544517Y2170821D01*
X3553795Y2168975D01*
X3564543D01*
Y2202000D01*
D02*
G37*
G36*
X4417819Y2169488D02*
X4395103D01*
Y2134961D01*
X4417819D01*
Y2169488D01*
D02*
G37*
G36*
X5095978Y2202000D02*
X5088022D01*
X5080671Y2198955D01*
X5075045Y2193329D01*
X5072000Y2185978D01*
Y2178022D01*
X5075045Y2170671D01*
X5077361Y2168355D01*
Y2132641D01*
X5074945Y2130788D01*
X5071074Y2125743D01*
X5068390Y2125387D01*
X5068228D01*
X5065544Y2125743D01*
X5061673Y2130788D01*
X5058603Y2133144D01*
Y2167319D01*
X5060264Y2168980D01*
X5063309Y2176331D01*
Y2184287D01*
X5060264Y2191638D01*
X5054638Y2197264D01*
X5047287Y2200309D01*
X5039331D01*
X5031980Y2197264D01*
X5026354Y2191638D01*
X5023309Y2184287D01*
Y2176331D01*
X5026354Y2168980D01*
X5028015Y2167319D01*
Y2133144D01*
X5024945Y2130788D01*
X5021074Y2125743D01*
X5018390Y2125387D01*
X5018228D01*
X5015544Y2125743D01*
X5011673Y2130788D01*
X5008603Y2133144D01*
Y2167319D01*
X5010264Y2168980D01*
X5013309Y2176331D01*
Y2184287D01*
X5010264Y2191638D01*
X5004638Y2197264D01*
X4997287Y2200309D01*
X4989331D01*
X4981980Y2197264D01*
X4976354Y2191638D01*
X4973309Y2184287D01*
Y2176331D01*
X4976354Y2168980D01*
X4978015Y2167319D01*
Y2133144D01*
X4974945Y2130788D01*
X4971074Y2125743D01*
X4968390Y2125387D01*
X4968228D01*
X4965544Y2125743D01*
X4961673Y2130788D01*
X4958603Y2133144D01*
Y2167319D01*
X4960264Y2168980D01*
X4963309Y2176331D01*
Y2184287D01*
X4960264Y2191638D01*
X4954638Y2197264D01*
X4947287Y2200309D01*
X4939331D01*
X4931980Y2197264D01*
X4926354Y2191638D01*
X4923309Y2184287D01*
Y2176331D01*
X4926354Y2168980D01*
X4928015Y2167319D01*
Y2133144D01*
X4924945Y2130788D01*
X4921074Y2125743D01*
X4918390Y2125387D01*
X4918228D01*
X4915544Y2125743D01*
X4911673Y2130788D01*
X4906294Y2134915D01*
X4900031Y2137510D01*
X4898309Y2137736D01*
Y2098251D01*
Y2058766D01*
X4900031Y2058992D01*
X4906294Y2061587D01*
X4911673Y2065714D01*
X4915544Y2070759D01*
X4918228Y2071115D01*
X4918390D01*
X4921074Y2070759D01*
X4924945Y2065714D01*
X4930324Y2061587D01*
X4936587Y2058992D01*
X4943309Y2058108D01*
X4950031Y2058992D01*
X4956294Y2061587D01*
X4961673Y2065714D01*
X4965544Y2070759D01*
X4968228Y2071115D01*
X4968390D01*
X4971074Y2070759D01*
X4974945Y2065714D01*
X4980324Y2061587D01*
X4986587Y2058992D01*
X4993309Y2058108D01*
X5000031Y2058992D01*
X5006294Y2061587D01*
X5011673Y2065714D01*
X5015544Y2070759D01*
X5018228Y2071115D01*
X5018390D01*
X5021074Y2070759D01*
X5024945Y2065714D01*
X5030324Y2061587D01*
X5036587Y2058992D01*
X5043309Y2058108D01*
X5050031Y2058992D01*
X5056294Y2061587D01*
X5061673Y2065714D01*
X5065544Y2070759D01*
X5068228Y2071115D01*
X5068390D01*
X5071074Y2070759D01*
X5074945Y2065714D01*
X5080324Y2061587D01*
X5086587Y2058992D01*
X5093309Y2058108D01*
X5100031Y2058992D01*
X5106294Y2061587D01*
X5111673Y2065714D01*
X5115544Y2070759D01*
X5118228Y2071115D01*
X5118390D01*
X5121074Y2070759D01*
X5124945Y2065714D01*
X5130324Y2061587D01*
X5136587Y2058992D01*
X5143309Y2058108D01*
X5150031Y2058992D01*
X5156294Y2061587D01*
X5161673Y2065714D01*
X5165544Y2070759D01*
X5168228Y2071115D01*
X5168390D01*
X5171074Y2070759D01*
X5174945Y2065714D01*
X5180324Y2061587D01*
X5186587Y2058992D01*
X5193309Y2058108D01*
X5200031Y2058992D01*
X5206294Y2061587D01*
X5211673Y2065714D01*
X5213679Y2068329D01*
X5214966Y2068564D01*
X5219564Y2067784D01*
X5222548Y2063317D01*
X5228461Y2059367D01*
X5235435Y2057980D01*
X5251183D01*
X5258157Y2059367D01*
X5264069Y2063317D01*
X5268020Y2069230D01*
X5269407Y2076204D01*
Y2120298D01*
X5268020Y2127272D01*
X5264069Y2133185D01*
X5258157Y2137135D01*
X5251183Y2138522D01*
X5235435D01*
X5228461Y2137135D01*
X5222548Y2133185D01*
X5219564Y2128718D01*
X5214966Y2127938D01*
X5213679Y2128173D01*
X5211673Y2130788D01*
X5206294Y2134915D01*
X5200031Y2137510D01*
X5193309Y2138394D01*
X5186587Y2137510D01*
X5180324Y2134915D01*
X5174945Y2130788D01*
X5171074Y2125743D01*
X5168390Y2125387D01*
X5168228D01*
X5165544Y2125743D01*
X5161673Y2130788D01*
X5156294Y2134915D01*
X5150031Y2137510D01*
X5143309Y2138394D01*
X5136587Y2137510D01*
X5130324Y2134915D01*
X5124945Y2130788D01*
X5121074Y2125743D01*
X5118390Y2125387D01*
X5118228D01*
X5115544Y2125743D01*
X5111673Y2130788D01*
X5107948Y2133646D01*
Y2169664D01*
X5108955Y2170671D01*
X5112000Y2178022D01*
Y2185978D01*
X5108955Y2193329D01*
X5103329Y2198955D01*
X5095978Y2202000D01*
D02*
G37*
G36*
X4888309Y2137736D02*
X4886587Y2137510D01*
X4880324Y2134915D01*
X4874945Y2130788D01*
X4870818Y2125409D01*
X4868224Y2119146D01*
X4867339Y2112424D01*
Y2103251D01*
X4888309D01*
Y2137736D01*
D02*
G37*
G36*
Y2093251D02*
X4867339D01*
Y2084078D01*
X4868224Y2077356D01*
X4870818Y2071093D01*
X4874945Y2065714D01*
X4880324Y2061587D01*
X4886587Y2058992D01*
X4888309Y2058766D01*
Y2093251D01*
D02*
G37*
G36*
X2819669Y2077509D02*
X2778331D01*
X2770324Y2076455D01*
X2762864Y2073364D01*
X2756457Y2068448D01*
X2751541Y2062042D01*
X2748451Y2054581D01*
X2747397Y2046575D01*
Y1993425D01*
X2747641Y1991573D01*
X2713581Y1957514D01*
X2709160Y1950898D01*
X2707608Y1943094D01*
Y1792447D01*
X2697608Y1782447D01*
X2643752D01*
X2641350Y1784290D01*
X2640995Y1786975D01*
Y1787136D01*
X2641350Y1789820D01*
X2646395Y1793691D01*
X2650522Y1799070D01*
X2653117Y1805333D01*
X2654002Y1812055D01*
X2653117Y1818777D01*
X2650522Y1825040D01*
X2646395Y1830419D01*
X2641350Y1834290D01*
X2640995Y1836975D01*
Y1837136D01*
X2641350Y1839820D01*
X2646395Y1843691D01*
X2650522Y1849070D01*
X2653117Y1855333D01*
X2653343Y1857055D01*
X2612284D01*
X2571224D01*
X2571450Y1855333D01*
X2574045Y1849070D01*
X2578172Y1843691D01*
X2583217Y1839820D01*
X2583572Y1837136D01*
Y1836975D01*
X2583217Y1834290D01*
X2580815Y1832447D01*
X2543392D01*
X2515392Y1860447D01*
Y1964553D01*
X2550447Y1999608D01*
X2567397D01*
Y1993425D01*
X2568451Y1985419D01*
X2571541Y1977958D01*
X2576457Y1971552D01*
X2582864Y1966636D01*
X2590324Y1963545D01*
X2598331Y1962491D01*
X2639669D01*
X2647676Y1963545D01*
X2655136Y1966636D01*
X2661543Y1971552D01*
X2666459Y1977958D01*
X2669549Y1985419D01*
X2670603Y1993425D01*
Y2046575D01*
X2669549Y2054581D01*
X2666459Y2062042D01*
X2661543Y2068448D01*
X2655136Y2073364D01*
X2647676Y2076455D01*
X2639669Y2077509D01*
X2598331D01*
X2590324Y2076455D01*
X2582864Y2073364D01*
X2576457Y2068448D01*
X2571541Y2062042D01*
X2568451Y2054581D01*
X2567397Y2046575D01*
Y2040392D01*
X2542000D01*
X2534196Y2038840D01*
X2527581Y2034419D01*
X2480581Y1987419D01*
X2476160Y1980804D01*
X2474608Y1973000D01*
Y1878392D01*
X2204000D01*
X2196196Y1876840D01*
X2189581Y1872419D01*
X2169581Y1852419D01*
X2165160Y1845804D01*
X2163608Y1838000D01*
Y1828603D01*
X2157425D01*
X2149419Y1827549D01*
X2141958Y1824459D01*
X2135552Y1819543D01*
X2130636Y1813136D01*
X2127545Y1805676D01*
X2126491Y1797669D01*
Y1756331D01*
X2127545Y1748324D01*
X2130636Y1740864D01*
X2135552Y1734457D01*
X2141958Y1729541D01*
X2149419Y1726451D01*
X2157425Y1725397D01*
X2163608D01*
Y1700654D01*
X2125447D01*
X2118726Y1699769D01*
X2112462Y1697174D01*
X2107084Y1693047D01*
X2102956Y1687668D01*
X2100362Y1681405D01*
X2100089Y1679327D01*
X2070738D01*
X2069360Y1681390D01*
X2063122Y1685558D01*
X2055764Y1687021D01*
X2026236D01*
X2018878Y1685558D01*
X2012640Y1681390D01*
X2008472Y1675152D01*
X2007008Y1667794D01*
Y1650077D01*
X2008472Y1642719D01*
X2012640Y1636481D01*
X2018878Y1632313D01*
X2026236Y1630849D01*
X2055764D01*
X2063122Y1632313D01*
X2069360Y1636481D01*
X2070738Y1638544D01*
X2100089D01*
X2100362Y1636466D01*
X2102956Y1630202D01*
X2107084Y1624824D01*
X2112462Y1620697D01*
X2118726Y1618102D01*
X2125447Y1617217D01*
X2229778D01*
X2236500Y1618102D01*
X2242763Y1620697D01*
X2248142Y1624824D01*
X2252269Y1630202D01*
X2254863Y1636466D01*
X2255748Y1643187D01*
Y1674683D01*
X2254863Y1681405D01*
X2252269Y1687668D01*
X2248142Y1693047D01*
X2242763Y1697174D01*
X2236500Y1699769D01*
X2229778Y1700654D01*
X2204392D01*
Y1725397D01*
X2210575D01*
X2218581Y1726451D01*
X2226042Y1729541D01*
X2232448Y1734457D01*
X2237364Y1740864D01*
X2240455Y1748324D01*
X2241509Y1756331D01*
Y1797669D01*
X2240455Y1805676D01*
X2237364Y1813136D01*
X2232448Y1819543D01*
X2226042Y1824459D01*
X2218581Y1827549D01*
X2210575Y1828603D01*
X2210513D01*
X2208442Y1833603D01*
X2212447Y1837608D01*
X2480553D01*
X2520526Y1797636D01*
X2527141Y1793216D01*
X2534945Y1791663D01*
X2580815D01*
X2583217Y1789820D01*
X2583572Y1787136D01*
Y1786975D01*
X2583217Y1784290D01*
X2580815Y1782447D01*
X2441509D01*
Y1793669D01*
X2440455Y1801676D01*
X2437364Y1809136D01*
X2432448Y1815543D01*
X2426042Y1820459D01*
X2418581Y1823549D01*
X2410575Y1824603D01*
X2357425D01*
X2349419Y1823549D01*
X2341958Y1820459D01*
X2335552Y1815543D01*
X2330636Y1809136D01*
X2327545Y1801676D01*
X2326491Y1793669D01*
Y1752331D01*
X2327545Y1744324D01*
X2330636Y1736864D01*
X2335552Y1730457D01*
X2341958Y1725541D01*
X2349419Y1722451D01*
X2357425Y1721397D01*
X2363608D01*
Y1700654D01*
X2325447D01*
X2318726Y1699769D01*
X2312462Y1697174D01*
X2307084Y1693047D01*
X2302956Y1687668D01*
X2300362Y1681405D01*
X2299477Y1674683D01*
Y1643187D01*
X2300362Y1636466D01*
X2302956Y1630202D01*
X2307084Y1624824D01*
X2312462Y1620697D01*
X2318726Y1618102D01*
X2325447Y1617217D01*
X2429778D01*
X2436500Y1618102D01*
X2442763Y1620697D01*
X2448142Y1624824D01*
X2452269Y1630202D01*
X2454863Y1636466D01*
X2455137Y1638544D01*
X2488262D01*
X2489640Y1636481D01*
X2495878Y1632313D01*
X2503236Y1630849D01*
X2532764D01*
X2540122Y1632313D01*
X2546360Y1636481D01*
X2550528Y1642719D01*
X2550608Y1643123D01*
X2555608Y1642630D01*
Y1608312D01*
X2550608Y1607819D01*
X2550528Y1608223D01*
X2546360Y1614461D01*
X2540122Y1618629D01*
X2532764Y1620092D01*
X2523000D01*
Y1592006D01*
Y1563920D01*
X2532764D01*
X2540122Y1565384D01*
X2546360Y1569552D01*
X2550528Y1575790D01*
X2550608Y1576194D01*
X2555608Y1575701D01*
Y1554000D01*
Y1485553D01*
X2550989Y1483640D01*
X2431808Y1602821D01*
X2426846Y1606136D01*
X2420994Y1607300D01*
X2073711D01*
X2073528Y1608223D01*
X2069360Y1614461D01*
X2063122Y1618629D01*
X2055764Y1620092D01*
X2026236D01*
X2018878Y1618629D01*
X2012640Y1614461D01*
X2008472Y1608223D01*
X2007008Y1600865D01*
Y1583148D01*
X2008472Y1575790D01*
X2012640Y1569552D01*
X2018878Y1565384D01*
X2026236Y1563920D01*
X2055764D01*
X2063122Y1565384D01*
X2069360Y1569552D01*
X2073528Y1575790D01*
X2073711Y1576712D01*
X2414659D01*
X2555608Y1435763D01*
Y1254000D01*
X2557160Y1246196D01*
X2561581Y1239581D01*
X2598581Y1202581D01*
X2605196Y1198160D01*
X2613000Y1196608D01*
X2915522D01*
X2937577Y1174553D01*
Y975032D01*
X2939129Y967228D01*
X2943549Y960612D01*
X2967000Y937162D01*
Y826000D01*
X3097000D01*
Y966000D01*
X2995838D01*
X2978360Y983478D01*
Y1182999D01*
X2978360Y1183000D01*
X2978360Y1183001D01*
Y1546555D01*
X3001468D01*
Y1587555D01*
X2914468D01*
Y1551982D01*
X2877706D01*
X2876328Y1554045D01*
X2870090Y1558213D01*
X2862732Y1559677D01*
X2833205D01*
X2825847Y1558213D01*
X2819609Y1554045D01*
X2815441Y1547807D01*
X2813977Y1540449D01*
Y1522732D01*
X2815441Y1515374D01*
X2819609Y1509136D01*
X2825847Y1504968D01*
X2833205Y1503505D01*
X2862732D01*
X2870090Y1504968D01*
X2876328Y1509136D01*
X2877706Y1511199D01*
X2923575D01*
X2931379Y1512751D01*
X2933167Y1513946D01*
X2937577Y1511589D01*
Y1237264D01*
X2933167Y1234908D01*
X2931772Y1235840D01*
X2923968Y1237392D01*
X2621447D01*
X2596392Y1262447D01*
Y1437000D01*
Y1504625D01*
X2601392Y1507298D01*
X2604878Y1504968D01*
X2612236Y1503505D01*
X2641764D01*
X2649122Y1504968D01*
X2655360Y1509136D01*
X2659528Y1515374D01*
X2660992Y1522732D01*
Y1540449D01*
X2659528Y1547807D01*
X2655360Y1554045D01*
X2649122Y1558213D01*
X2641764Y1559677D01*
X2612236D01*
X2604878Y1558213D01*
X2603026Y1556975D01*
X2601863D01*
X2596392Y1562447D01*
Y1571554D01*
X2601392Y1574227D01*
X2604878Y1571897D01*
X2612236Y1570434D01*
X2641764D01*
X2649122Y1571897D01*
X2655360Y1576065D01*
X2659528Y1582303D01*
X2660992Y1589661D01*
Y1607378D01*
X2659528Y1614736D01*
X2655360Y1620974D01*
X2649122Y1625142D01*
X2642294Y1626500D01*
Y1636665D01*
X2646335Y1640706D01*
X2712000D01*
X2717853Y1641870D01*
X2722814Y1645186D01*
X2732814Y1655186D01*
X2736130Y1660147D01*
X2737294Y1666000D01*
Y1693665D01*
X2740390Y1696761D01*
X2770065D01*
X2771726Y1695100D01*
X2779077Y1692055D01*
X2787033D01*
X2793235Y1694624D01*
X2795460Y1691295D01*
X2801372Y1687344D01*
X2808347Y1685957D01*
X2855590D01*
X2862565Y1687344D01*
X2868477Y1691295D01*
X2870706Y1694631D01*
X2875706Y1693114D01*
Y1679000D01*
X2876870Y1673147D01*
X2880186Y1668186D01*
X2892131Y1656241D01*
X2897092Y1652925D01*
X2902945Y1651761D01*
X2914468D01*
Y1646555D01*
X3001468D01*
Y1687555D01*
X2914468D01*
Y1682349D01*
X2909280D01*
X2906294Y1685335D01*
Y1742000D01*
X2905130Y1747853D01*
X2903069Y1750936D01*
X2906674Y1754541D01*
X2909092Y1752925D01*
X2914468Y1751856D01*
Y1746555D01*
X3001468D01*
Y1787555D01*
X2916871D01*
X2913390Y1791444D01*
X2914249Y1796450D01*
X2914468Y1796555D01*
X2915294Y1796555D01*
X3001468D01*
Y1796555D01*
X3006468Y1798472D01*
X3010022Y1797000D01*
X3017978D01*
X3025329Y1800045D01*
X3030955Y1805671D01*
X3034000Y1813022D01*
Y1820978D01*
X3030955Y1828329D01*
X3025329Y1833955D01*
X3017978Y1837000D01*
X3010022D01*
X3006468Y1835528D01*
X3001468Y1837555D01*
Y1837555D01*
X2915294D01*
X2914468Y1837555D01*
X2910294Y1839548D01*
Y1843207D01*
X2910294Y1844000D01*
X2910733Y1845283D01*
X2914884Y1846555D01*
X2918604Y1846555D01*
X3001468D01*
Y1851761D01*
X3045610D01*
X3065706Y1831665D01*
Y1711500D01*
X3060706Y1709983D01*
X3058814Y1712814D01*
X3043759Y1727870D01*
X3038798Y1731185D01*
X3032945Y1732349D01*
X3001468D01*
Y1737555D01*
X2914468D01*
Y1696555D01*
X3001468D01*
Y1701761D01*
X3026610D01*
X3032706Y1695665D01*
Y1638000D01*
X3033870Y1632147D01*
X3037186Y1627186D01*
X3058131Y1606241D01*
X3063092Y1602925D01*
X3068945Y1601761D01*
X3118468D01*
Y1596555D01*
X3205468D01*
Y1601761D01*
X3243621D01*
X3249473Y1602925D01*
X3252964Y1605258D01*
X3253110Y1605229D01*
X3282638D01*
X3289996Y1606693D01*
X3296234Y1610861D01*
X3300402Y1617099D01*
X3301865Y1624457D01*
Y1642173D01*
X3300402Y1649531D01*
X3296234Y1655769D01*
X3289996Y1659937D01*
X3282638Y1661401D01*
X3253110D01*
X3245752Y1659937D01*
X3239514Y1655769D01*
X3235346Y1649531D01*
X3233883Y1642173D01*
Y1632349D01*
X3205468D01*
Y1637555D01*
X3118468D01*
Y1632349D01*
X3075280D01*
X3063294Y1644335D01*
Y1666500D01*
X3068294Y1668017D01*
X3070186Y1665186D01*
X3079131Y1656241D01*
X3084092Y1652925D01*
X3089945Y1651761D01*
X3118468D01*
Y1646555D01*
X3205468D01*
Y1651761D01*
X3208055D01*
X3213908Y1652925D01*
X3218869Y1656241D01*
X3235335Y1672706D01*
X3327665D01*
X3327832Y1672539D01*
Y1661295D01*
X3321004Y1659937D01*
X3314766Y1655769D01*
X3310598Y1649531D01*
X3309135Y1642173D01*
Y1624457D01*
X3310598Y1617099D01*
X3314766Y1610861D01*
X3321004Y1606693D01*
X3328362Y1605229D01*
X3357890D01*
X3365248Y1606693D01*
X3371486Y1610861D01*
X3375654Y1617099D01*
X3377117Y1624457D01*
Y1642173D01*
X3375654Y1649531D01*
X3371486Y1655769D01*
X3365248Y1659937D01*
X3358420Y1661295D01*
Y1678874D01*
X3357256Y1684727D01*
X3353940Y1689688D01*
X3344814Y1698814D01*
X3339853Y1702130D01*
X3334000Y1703294D01*
X3291415D01*
X3290645Y1704254D01*
X3291678Y1710958D01*
X3293360Y1712081D01*
X3297528Y1718319D01*
X3297711Y1719242D01*
X3303474D01*
X3304671Y1718045D01*
X3312022Y1715000D01*
X3319978D01*
X3327329Y1718045D01*
X3332955Y1723671D01*
X3336000Y1731022D01*
Y1738978D01*
X3332955Y1746329D01*
X3327329Y1751955D01*
X3319978Y1755000D01*
X3312022D01*
X3304671Y1751955D01*
X3302545Y1749829D01*
X3297711D01*
X3297528Y1750752D01*
X3293360Y1756990D01*
X3287122Y1761158D01*
X3279764Y1762621D01*
X3250236D01*
X3242878Y1761158D01*
X3236640Y1756990D01*
X3232472Y1750752D01*
X3232289Y1749829D01*
X3227535D01*
X3221683Y1748665D01*
X3216721Y1745350D01*
X3210197Y1738825D01*
X3205468Y1737555D01*
Y1737555D01*
X3205468Y1737555D01*
X3118468D01*
Y1696555D01*
X3205468D01*
Y1701761D01*
X3210055D01*
X3215908Y1702925D01*
X3218186Y1698814D01*
X3209384Y1690013D01*
X3205468Y1687555D01*
Y1687555D01*
X3205468Y1687555D01*
X3118468D01*
Y1682349D01*
X3096294D01*
Y1838000D01*
X3095130Y1843853D01*
X3091814Y1848814D01*
X3062759Y1877870D01*
X3057798Y1881185D01*
X3051945Y1882349D01*
X3001468D01*
Y1887555D01*
X2914468D01*
Y1851383D01*
X2914468Y1851235D01*
X2914468Y1851235D01*
X2914468Y1848642D01*
X2909468Y1848150D01*
X2909130Y1849853D01*
X2905814Y1854814D01*
X2889279Y1871350D01*
X2884317Y1874665D01*
X2878465Y1875829D01*
X2869602D01*
X2866080Y1880419D01*
X2860702Y1884546D01*
X2854438Y1887140D01*
X2847716Y1888025D01*
X2816220D01*
X2809499Y1887140D01*
X2803235Y1884546D01*
X2797857Y1880419D01*
X2797731Y1880255D01*
X2791399Y1879886D01*
X2791329Y1879955D01*
X2783978Y1883000D01*
X2776022D01*
X2768671Y1879955D01*
X2763045Y1874329D01*
X2760000Y1866978D01*
Y1859022D01*
X2763045Y1851671D01*
X2768671Y1846045D01*
X2776022Y1843000D01*
X2783978D01*
X2791329Y1846045D01*
X2796504Y1845454D01*
X2797857Y1843691D01*
X2802902Y1839820D01*
X2803257Y1837136D01*
Y1836975D01*
X2802902Y1834290D01*
X2797857Y1830419D01*
X2793730Y1825040D01*
X2791135Y1818777D01*
X2790250Y1812055D01*
X2791135Y1805333D01*
X2793730Y1799070D01*
X2797857Y1793691D01*
X2802902Y1789820D01*
X2803257Y1787136D01*
Y1786975D01*
X2802902Y1784290D01*
X2797857Y1780419D01*
X2793730Y1775040D01*
X2791135Y1768777D01*
X2790250Y1762055D01*
X2791135Y1755333D01*
X2793730Y1749070D01*
X2797857Y1743691D01*
X2800472Y1741685D01*
X2800707Y1740398D01*
X2799927Y1735800D01*
X2795460Y1732816D01*
X2793235Y1729486D01*
X2787033Y1732055D01*
X2779077D01*
X2771726Y1729010D01*
X2770065Y1727349D01*
X2734055D01*
X2728202Y1726185D01*
X2723241Y1722870D01*
X2711186Y1710814D01*
X2707870Y1705853D01*
X2706706Y1700000D01*
Y1672335D01*
X2705665Y1671294D01*
X2640000D01*
X2634147Y1670130D01*
X2629186Y1666814D01*
X2616186Y1653814D01*
X2612870Y1648853D01*
X2611706Y1643000D01*
Y1626500D01*
X2604878Y1625142D01*
X2601392Y1622813D01*
X2596392Y1625485D01*
Y1679962D01*
X2602515Y1686085D01*
X2628032D01*
X2634753Y1686970D01*
X2641017Y1689564D01*
X2646395Y1693691D01*
X2650522Y1699070D01*
X2653117Y1705333D01*
X2654002Y1712055D01*
X2653117Y1718777D01*
X2650522Y1725040D01*
X2646395Y1730419D01*
X2641350Y1734290D01*
X2640995Y1736975D01*
Y1737136D01*
X2641350Y1739820D01*
X2643752Y1741663D01*
X2706055D01*
X2713859Y1743216D01*
X2720474Y1747636D01*
X2742419Y1769581D01*
X2746840Y1776196D01*
X2748392Y1784000D01*
Y1934648D01*
X2776479Y1962735D01*
X2778331Y1962491D01*
X2819669D01*
X2827676Y1963545D01*
X2835136Y1966636D01*
X2841543Y1971552D01*
X2846459Y1977958D01*
X2849549Y1985419D01*
X2850603Y1993425D01*
Y2046575D01*
X2849549Y2054581D01*
X2846459Y2062042D01*
X2841543Y2068448D01*
X2835136Y2073364D01*
X2827676Y2076455D01*
X2819669Y2077509D01*
D02*
G37*
G36*
X2210575Y2008603D02*
X2189000D01*
Y1962000D01*
X2241509D01*
Y1977669D01*
X2240455Y1985676D01*
X2237364Y1993136D01*
X2232448Y1999543D01*
X2226042Y2004459D01*
X2218581Y2007549D01*
X2210575Y2008603D01*
D02*
G37*
G36*
X2179000D02*
X2157425D01*
X2149419Y2007549D01*
X2141958Y2004459D01*
X2135552Y1999543D01*
X2130636Y1993136D01*
X2127545Y1985676D01*
X2126491Y1977669D01*
Y1962000D01*
X2179000D01*
Y2008603D01*
D02*
G37*
G36*
X2410575Y2004603D02*
X2389000D01*
Y1958000D01*
X2441509D01*
Y1973669D01*
X2440455Y1981676D01*
X2437364Y1989136D01*
X2432448Y1995543D01*
X2426042Y2000459D01*
X2418581Y2003549D01*
X2410575Y2004603D01*
D02*
G37*
G36*
X2379000D02*
X2357425D01*
X2349419Y2003549D01*
X2341958Y2000459D01*
X2335552Y1995543D01*
X2330636Y1989136D01*
X2327545Y1981676D01*
X2326491Y1973669D01*
Y1958000D01*
X2379000D01*
Y2004603D01*
D02*
G37*
G36*
X3280764Y1977086D02*
X3271000D01*
Y1954000D01*
X3299992D01*
Y1957858D01*
X3298528Y1965216D01*
X3294360Y1971454D01*
X3288122Y1975622D01*
X3280764Y1977086D01*
D02*
G37*
G36*
X3261000D02*
X3251236D01*
X3243878Y1975622D01*
X3237640Y1971454D01*
X3233472Y1965216D01*
X3232008Y1957858D01*
Y1954000D01*
X3261000D01*
Y1977086D01*
D02*
G37*
G36*
X4169000Y1971890D02*
X4146284D01*
Y1949173D01*
X4169000D01*
Y1971890D01*
D02*
G37*
G36*
X4026047D02*
X4003331D01*
Y1949173D01*
X4026047D01*
Y1971890D01*
D02*
G37*
G36*
X4136284D02*
X4091166D01*
Y1944173D01*
X4081166D01*
Y1971890D01*
X4036047D01*
Y1944173D01*
X4031047D01*
Y1939173D01*
X4003331D01*
Y1916457D01*
Y1894055D01*
X4031047D01*
Y1884055D01*
X4003331D01*
Y1861339D01*
Y1838937D01*
X4031047D01*
Y1833937D01*
X4036047D01*
Y1806220D01*
X4081166D01*
Y1833937D01*
X4091166D01*
Y1806220D01*
X4136284D01*
Y1833937D01*
X4141284D01*
Y1838937D01*
X4169000D01*
Y1861339D01*
Y1884055D01*
X4141283D01*
Y1894055D01*
X4169000D01*
Y1916457D01*
Y1939173D01*
X4141284D01*
Y1944173D01*
X4136284D01*
Y1971890D01*
D02*
G37*
G36*
X3299992Y1944000D02*
X3271000D01*
Y1920914D01*
X3280764D01*
X3288122Y1922378D01*
X3294360Y1926546D01*
X3298528Y1932784D01*
X3299992Y1940142D01*
Y1944000D01*
D02*
G37*
G36*
X3261000D02*
X3232008D01*
Y1940142D01*
X3233472Y1932784D01*
X3237640Y1926546D01*
X3243878Y1922378D01*
X3251236Y1920914D01*
X3261000D01*
Y1944000D01*
D02*
G37*
G36*
X2241509Y1952000D02*
X2189000D01*
Y1905397D01*
X2210575D01*
X2218581Y1906451D01*
X2226042Y1909541D01*
X2232448Y1914457D01*
X2237364Y1920864D01*
X2240455Y1928324D01*
X2241509Y1936331D01*
Y1952000D01*
D02*
G37*
G36*
X2179000D02*
X2126491D01*
Y1936331D01*
X2127545Y1928324D01*
X2130636Y1920864D01*
X2135552Y1914457D01*
X2141958Y1909541D01*
X2149419Y1906451D01*
X2157425Y1905397D01*
X2179000D01*
Y1952000D01*
D02*
G37*
G36*
X2441509Y1948000D02*
X2389000D01*
Y1901397D01*
X2410575D01*
X2418581Y1902451D01*
X2426042Y1905541D01*
X2432448Y1910457D01*
X2437364Y1916864D01*
X2440455Y1924324D01*
X2441509Y1932331D01*
Y1948000D01*
D02*
G37*
G36*
X2379000D02*
X2326491D01*
Y1932331D01*
X2327545Y1924324D01*
X2330636Y1916864D01*
X2335552Y1910457D01*
X2341958Y1905541D01*
X2349419Y1902451D01*
X2357425Y1901397D01*
X2379000D01*
Y1948000D01*
D02*
G37*
G36*
X3205468Y1887555D02*
X3166968D01*
Y1872055D01*
X3205468D01*
Y1887555D01*
D02*
G37*
G36*
X3156968D02*
X3118468D01*
Y1872055D01*
X3156968D01*
Y1887555D01*
D02*
G37*
G36*
X2628032Y1888025D02*
X2617284D01*
Y1867055D01*
X2653343D01*
X2653117Y1868777D01*
X2650522Y1875040D01*
X2646395Y1880419D01*
X2641017Y1884546D01*
X2634753Y1887140D01*
X2628032Y1888025D01*
D02*
G37*
G36*
X2607284D02*
X2596535D01*
X2589814Y1887140D01*
X2583550Y1884546D01*
X2578172Y1880419D01*
X2574045Y1875040D01*
X2571450Y1868777D01*
X2571224Y1867055D01*
X2607284D01*
Y1888025D01*
D02*
G37*
G36*
X3205468Y1862055D02*
X3166968D01*
Y1846555D01*
X3205468D01*
Y1862055D01*
D02*
G37*
G36*
X3156968D02*
X3118468D01*
Y1846555D01*
X3156968D01*
Y1862055D01*
D02*
G37*
G36*
X229401Y1942428D02*
X154599D01*
X146335Y1941340D01*
X138635Y1938150D01*
X132023Y1933077D01*
X126949Y1926464D01*
X123760Y1918764D01*
X122672Y1910501D01*
Y1867194D01*
X123760Y1858931D01*
X126949Y1851231D01*
X132023Y1844618D01*
X138635Y1839545D01*
X146335Y1836355D01*
X154599Y1835267D01*
X229401D01*
X237665Y1836355D01*
X245365Y1839545D01*
X251977Y1844618D01*
X257051Y1851231D01*
X260240Y1858931D01*
X261328Y1867194D01*
Y1910501D01*
X260240Y1918764D01*
X257051Y1926464D01*
X251977Y1933077D01*
X245365Y1938150D01*
X237665Y1941340D01*
X229401Y1942428D01*
D02*
G37*
G36*
X5542000Y1856409D02*
Y1825740D01*
X5572669D01*
X5570312Y1834538D01*
X5565605Y1842690D01*
X5558950Y1849346D01*
X5550798Y1854052D01*
X5542000Y1856409D01*
D02*
G37*
G36*
X5532000D02*
X5523202Y1854052D01*
X5515050Y1849346D01*
X5508395Y1842690D01*
X5503688Y1834538D01*
X5501331Y1825740D01*
X5532000D01*
Y1856409D01*
D02*
G37*
G36*
X4169000Y1828937D02*
X4146284D01*
Y1806220D01*
X4169000D01*
Y1828937D01*
D02*
G37*
G36*
X4026047Y1828937D02*
X4003331D01*
Y1806220D01*
X4026047D01*
Y1828937D01*
D02*
G37*
G36*
X3205468Y1837555D02*
X3118468D01*
Y1796555D01*
X3205468D01*
Y1837555D01*
D02*
G37*
G36*
X5532000Y1815740D02*
X5501331D01*
X5503688Y1806942D01*
X5508395Y1798790D01*
X5515050Y1792135D01*
X5523202Y1787428D01*
X5532000Y1785071D01*
Y1815740D01*
D02*
G37*
G36*
X5572669D02*
X5542000D01*
Y1785071D01*
X5550798Y1787428D01*
X5558950Y1792135D01*
X5565605Y1798790D01*
X5570312Y1806942D01*
X5572669Y1815740D01*
D02*
G37*
G36*
X3205468Y1787555D02*
X3118468D01*
Y1746555D01*
X3205468D01*
Y1787555D01*
D02*
G37*
G36*
X229401Y1757388D02*
X154599D01*
X146335Y1756300D01*
X138635Y1753111D01*
X132023Y1748037D01*
X126949Y1741425D01*
X123760Y1733725D01*
X122672Y1725462D01*
Y1682155D01*
X123760Y1673891D01*
X126949Y1666191D01*
X132023Y1659579D01*
X138635Y1654505D01*
X146335Y1651316D01*
X154599Y1650228D01*
X229401D01*
X237665Y1651316D01*
X245365Y1654505D01*
X251977Y1659579D01*
X257051Y1666191D01*
X260240Y1673891D01*
X261328Y1682155D01*
Y1725462D01*
X260240Y1733725D01*
X257051Y1741425D01*
X251977Y1748037D01*
X245365Y1753111D01*
X237665Y1756300D01*
X229401Y1757388D01*
D02*
G37*
G36*
X2914468Y1637555D02*
X2911884Y1635829D01*
X2908923Y1637055D01*
X2900967D01*
X2893616Y1634010D01*
X2887990Y1628384D01*
X2884945Y1621033D01*
Y1616393D01*
X2883697Y1615928D01*
X2879945Y1615562D01*
X2876328Y1620974D01*
X2870090Y1625142D01*
X2862732Y1626606D01*
X2852968D01*
Y1603520D01*
X2881960D01*
Y1607378D01*
X2886829Y1608527D01*
X2887990Y1605726D01*
X2893616Y1600100D01*
X2900967Y1597055D01*
X2908923D01*
X2911884Y1598282D01*
X2914468Y1596555D01*
Y1596555D01*
X3001468D01*
Y1637555D01*
X2914468D01*
Y1637555D01*
D02*
G37*
G36*
X5541706Y1699008D02*
X5532294D01*
X5523202Y1696572D01*
X5515050Y1691865D01*
X5508395Y1685210D01*
X5503688Y1677058D01*
X5501252Y1667966D01*
Y1658553D01*
X5503688Y1649462D01*
X5508395Y1641310D01*
X5515050Y1634654D01*
X5523202Y1629948D01*
X5532294Y1627512D01*
X5541706D01*
X5550798Y1629948D01*
X5558950Y1634654D01*
X5565605Y1641310D01*
X5570312Y1649462D01*
X5572748Y1658553D01*
Y1667966D01*
X5570312Y1677058D01*
X5565605Y1685210D01*
X5558950Y1691865D01*
X5550798Y1696572D01*
X5541706Y1699008D01*
D02*
G37*
G36*
X2776947Y1659968D02*
X2768990D01*
X2761639Y1656924D01*
X2756013Y1651298D01*
X2752968Y1643947D01*
Y1635990D01*
X2755007Y1631068D01*
X2752755Y1625801D01*
X2752339Y1625439D01*
X2750847Y1625142D01*
X2744609Y1620974D01*
X2740441Y1614736D01*
X2739211Y1608555D01*
X2734113D01*
X2732884Y1614736D01*
X2728715Y1620974D01*
X2722478Y1625142D01*
X2715119Y1626606D01*
X2705356D01*
Y1598520D01*
Y1570434D01*
X2715119D01*
X2722478Y1571897D01*
X2728715Y1576065D01*
X2732884Y1582303D01*
X2734113Y1588485D01*
X2739211D01*
X2740441Y1582303D01*
X2744609Y1576065D01*
X2750847Y1571897D01*
X2758205Y1570434D01*
X2787732D01*
X2795090Y1571897D01*
X2801328Y1576065D01*
X2805496Y1582303D01*
X2806960Y1589661D01*
Y1607378D01*
X2805496Y1614736D01*
X2801328Y1620974D01*
X2795090Y1625142D01*
X2793598Y1625439D01*
X2793182Y1625801D01*
X2790930Y1631068D01*
X2792968Y1635990D01*
Y1643947D01*
X2789924Y1651298D01*
X2784298Y1656924D01*
X2776947Y1659968D01*
D02*
G37*
G36*
X2695356Y1626606D02*
X2685592D01*
X2678234Y1625142D01*
X2671996Y1620974D01*
X2667828Y1614736D01*
X2666364Y1607378D01*
Y1603520D01*
X2695356D01*
Y1626606D01*
D02*
G37*
G36*
X2842968Y1626606D02*
X2833205D01*
X2825847Y1625142D01*
X2819609Y1620974D01*
X2815441Y1614736D01*
X2813977Y1607378D01*
Y1603520D01*
X2842968D01*
Y1626606D01*
D02*
G37*
G36*
X2513000Y1620092D02*
X2503236D01*
X2495878Y1618629D01*
X2489640Y1614461D01*
X2485472Y1608223D01*
X2484008Y1600865D01*
Y1597006D01*
X2513000D01*
Y1620092D01*
D02*
G37*
G36*
X3282638Y1594472D02*
X3253110D01*
X3245752Y1593008D01*
X3239514Y1588840D01*
X3235346Y1582602D01*
X3235248Y1582108D01*
X3229822Y1580462D01*
X3226274Y1584010D01*
X3218923Y1587055D01*
X3210967D01*
X3208035Y1585841D01*
X3205468Y1587555D01*
Y1587555D01*
X3118468D01*
Y1546555D01*
X3205468D01*
Y1546555D01*
X3208035Y1548270D01*
X3210967Y1547055D01*
X3218923D01*
X3226274Y1550100D01*
X3229600Y1553426D01*
X3235026Y1551780D01*
X3235346Y1550169D01*
X3239514Y1543931D01*
X3245752Y1539763D01*
X3252580Y1538405D01*
Y1509839D01*
X3238839D01*
X3230904Y1508261D01*
X3224178Y1503767D01*
X3219684Y1497041D01*
X3218106Y1489106D01*
Y1468437D01*
X3219684Y1460503D01*
X3224178Y1453777D01*
X3230904Y1449282D01*
X3238839Y1447704D01*
X3281161D01*
X3289096Y1449282D01*
X3295822Y1453777D01*
X3300316Y1460503D01*
X3301894Y1468437D01*
Y1489106D01*
X3300316Y1497041D01*
X3295822Y1503767D01*
X3289096Y1508261D01*
X3283168Y1509440D01*
Y1538405D01*
X3289996Y1539763D01*
X3296234Y1543931D01*
X3300402Y1550169D01*
X3301865Y1557527D01*
Y1575244D01*
X3300402Y1582602D01*
X3296234Y1588840D01*
X3289996Y1593008D01*
X3282638Y1594472D01*
D02*
G37*
G36*
X3730417Y2050000D02*
X3690890D01*
X3651362D01*
Y2027284D01*
Y1977284D01*
Y1927284D01*
Y1877284D01*
Y1827284D01*
Y1777284D01*
Y1727284D01*
Y1677284D01*
Y1627284D01*
Y1577284D01*
X3730417D01*
Y1627284D01*
Y1677284D01*
Y1727284D01*
Y1777284D01*
Y1827284D01*
Y1877284D01*
Y1927284D01*
Y1977284D01*
Y2027284D01*
Y2050000D01*
D02*
G37*
G36*
X2695356Y1593520D02*
X2666364D01*
Y1589661D01*
X2667828Y1582303D01*
X2671996Y1576065D01*
X2678234Y1571897D01*
X2685592Y1570434D01*
X2695356D01*
Y1593520D01*
D02*
G37*
G36*
X2881960Y1593520D02*
X2852968D01*
Y1570434D01*
X2862732D01*
X2870090Y1571897D01*
X2876328Y1576065D01*
X2880496Y1582303D01*
X2881960Y1589661D01*
Y1593520D01*
D02*
G37*
G36*
X2842968D02*
X2813977D01*
Y1589661D01*
X2815441Y1582303D01*
X2819609Y1576065D01*
X2825847Y1571897D01*
X2833205Y1570434D01*
X2842968D01*
Y1593520D01*
D02*
G37*
G36*
X2513000Y1587006D02*
X2484008D01*
Y1583148D01*
X2485472Y1575790D01*
X2489640Y1569552D01*
X2495878Y1565384D01*
X2503236Y1563920D01*
X2513000D01*
Y1587006D01*
D02*
G37*
G36*
X5572748Y1620268D02*
X5501252D01*
Y1548772D01*
X5572748D01*
Y1620268D01*
D02*
G37*
G36*
X2787732Y1559677D02*
X2758205D01*
X2750847Y1558213D01*
X2744609Y1554045D01*
X2740441Y1547807D01*
X2740257Y1546885D01*
X2733067D01*
X2732884Y1547807D01*
X2728715Y1554045D01*
X2722478Y1558213D01*
X2715119Y1559677D01*
X2685592D01*
X2678234Y1558213D01*
X2671996Y1554045D01*
X2667828Y1547807D01*
X2666364Y1540449D01*
Y1522732D01*
X2667828Y1515374D01*
X2671996Y1509136D01*
X2678234Y1504968D01*
X2685592Y1503505D01*
X2715119D01*
X2722478Y1504968D01*
X2728715Y1509136D01*
X2732884Y1515374D01*
X2733067Y1516297D01*
X2740257D01*
X2740441Y1515374D01*
X2744609Y1509136D01*
X2750847Y1504968D01*
X2757675Y1503610D01*
Y1463614D01*
X2758839Y1457762D01*
X2762154Y1452800D01*
X2794923Y1420031D01*
X2793956Y1412685D01*
Y1373315D01*
X2794977Y1365565D01*
X2797968Y1358344D01*
X2802726Y1352143D01*
X2808927Y1347385D01*
X2816148Y1344394D01*
X2823898Y1343374D01*
X2828706D01*
Y1316990D01*
X2827045Y1315329D01*
X2824000Y1307978D01*
Y1300022D01*
X2827045Y1292671D01*
X2832671Y1287045D01*
X2840022Y1284000D01*
X2847978D01*
X2855329Y1287045D01*
X2860955Y1292671D01*
X2864000Y1300022D01*
Y1307978D01*
X2860955Y1315329D01*
X2859294Y1316990D01*
Y1343374D01*
X2863268D01*
X2871017Y1344394D01*
X2878238Y1347385D01*
X2884439Y1352143D01*
X2889198Y1358344D01*
X2892189Y1365565D01*
X2893209Y1373315D01*
Y1412685D01*
X2892189Y1420435D01*
X2889198Y1427656D01*
X2884439Y1433857D01*
X2878238Y1438615D01*
X2871017Y1441606D01*
X2863268Y1442626D01*
X2823898D01*
X2816552Y1441659D01*
X2788262Y1469949D01*
Y1503610D01*
X2795090Y1504968D01*
X2801328Y1509136D01*
X2805496Y1515374D01*
X2806960Y1522732D01*
Y1540449D01*
X2805496Y1547807D01*
X2801328Y1554045D01*
X2795090Y1558213D01*
X2787732Y1559677D01*
D02*
G37*
G36*
X4417819Y1525039D02*
X4395102D01*
Y1490512D01*
X4417819D01*
Y1525039D01*
D02*
G37*
G36*
X3103394Y1516535D02*
X3099536D01*
Y1487543D01*
X3122622D01*
Y1497307D01*
X3121158Y1504665D01*
X3116990Y1510903D01*
X3110752Y1515071D01*
X3103394Y1516535D01*
D02*
G37*
G36*
X3089536D02*
X3085677D01*
X3078319Y1515071D01*
X3072081Y1510903D01*
X3067913Y1504665D01*
X3066450Y1497307D01*
Y1487543D01*
X3089536D01*
Y1516535D01*
D02*
G37*
G36*
X3357890Y1594472D02*
X3328362D01*
X3321004Y1593008D01*
X3314766Y1588840D01*
X3310598Y1582602D01*
X3309135Y1575244D01*
Y1557527D01*
X3310598Y1550169D01*
X3314766Y1543931D01*
X3321004Y1539763D01*
X3327832Y1538405D01*
Y1509440D01*
X3321904Y1508261D01*
X3315178Y1503767D01*
X3310684Y1497041D01*
X3309106Y1489106D01*
Y1468437D01*
X3310684Y1460503D01*
X3315178Y1453777D01*
X3321904Y1449282D01*
X3329839Y1447704D01*
X3372161D01*
X3380096Y1449282D01*
X3386822Y1453777D01*
X3391316Y1460503D01*
X3392894Y1468437D01*
Y1489106D01*
X3391316Y1497041D01*
X3386822Y1503767D01*
X3380096Y1508261D01*
X3372161Y1509839D01*
X3358420D01*
Y1538405D01*
X3365248Y1539763D01*
X3371486Y1543931D01*
X3375654Y1550169D01*
X3377117Y1557527D01*
Y1575244D01*
X3375654Y1582602D01*
X3371486Y1588840D01*
X3365248Y1593008D01*
X3357890Y1594472D01*
D02*
G37*
G36*
X4417819Y1480512D02*
X4395102D01*
Y1445984D01*
X4417819D01*
Y1480512D01*
D02*
G37*
G36*
X3517992Y1439535D02*
X3489000D01*
Y1416449D01*
X3498764D01*
X3506122Y1417913D01*
X3512360Y1422081D01*
X3516528Y1428319D01*
X3517992Y1435677D01*
Y1439535D01*
D02*
G37*
G36*
X2329858Y1422992D02*
X2312142D01*
X2304784Y1421528D01*
X2298546Y1417360D01*
X2294378Y1411122D01*
X2294034Y1409392D01*
X2258966D01*
X2258622Y1411122D01*
X2254454Y1417360D01*
X2248216Y1421528D01*
X2240858Y1422992D01*
X2223142D01*
X2215784Y1421528D01*
X2209546Y1417360D01*
X2205378Y1411122D01*
X2203914Y1403764D01*
Y1374236D01*
X2205378Y1366878D01*
X2209546Y1360640D01*
X2215784Y1356472D01*
X2223142Y1355008D01*
X2240858D01*
X2248216Y1356472D01*
X2254454Y1360640D01*
X2258622Y1366878D01*
X2258966Y1368608D01*
X2294034D01*
X2294378Y1366878D01*
X2298546Y1360640D01*
X2304784Y1356472D01*
X2312142Y1355008D01*
X2329858D01*
X2337216Y1356472D01*
X2343454Y1360640D01*
X2347622Y1366878D01*
X2349086Y1374236D01*
Y1403764D01*
X2347622Y1411122D01*
X2343454Y1417360D01*
X2337216Y1421528D01*
X2329858Y1422992D01*
D02*
G37*
G36*
X3281161Y1433068D02*
X3265000D01*
Y1407000D01*
X3301894D01*
Y1412335D01*
X3300316Y1420269D01*
X3295822Y1426995D01*
X3289096Y1431489D01*
X3281161Y1433068D01*
D02*
G37*
G36*
X3372161D02*
X3356000D01*
Y1407000D01*
X3392894D01*
Y1412335D01*
X3391316Y1420269D01*
X3386822Y1426995D01*
X3380096Y1431489D01*
X3372161Y1433068D01*
D02*
G37*
G36*
X3255000D02*
X3238839D01*
X3230904Y1431489D01*
X3224178Y1426995D01*
X3219684Y1420269D01*
X3218106Y1412335D01*
Y1407000D01*
X3255000D01*
Y1433068D01*
D02*
G37*
G36*
X3346000D02*
X3329839D01*
X3321904Y1431489D01*
X3315178Y1426995D01*
X3310684Y1420269D01*
X3309106Y1412335D01*
Y1407000D01*
X3346000D01*
Y1433068D01*
D02*
G37*
G36*
X3392894Y1397000D02*
X3356000D01*
Y1370932D01*
X3372161D01*
X3380096Y1372511D01*
X3386822Y1377005D01*
X3391316Y1383731D01*
X3392894Y1391665D01*
Y1397000D01*
D02*
G37*
G36*
X3346000D02*
X3309106D01*
Y1391665D01*
X3310684Y1383731D01*
X3315178Y1377005D01*
X3321904Y1372511D01*
X3329839Y1370932D01*
X3346000D01*
Y1397000D01*
D02*
G37*
G36*
X3301894D02*
X3265000D01*
Y1370932D01*
X3281161D01*
X3289096Y1372511D01*
X3295822Y1377005D01*
X3300316Y1383731D01*
X3301894Y1391665D01*
Y1397000D01*
D02*
G37*
G36*
X3255000D02*
X3218106D01*
Y1391665D01*
X3219684Y1383731D01*
X3224178Y1377005D01*
X3230904Y1372511D01*
X3238839Y1370932D01*
X3255000D01*
Y1397000D01*
D02*
G37*
G36*
X2670978Y1490000D02*
X2663022D01*
X2655671Y1486955D01*
X2650045Y1481329D01*
X2647000Y1473978D01*
Y1466022D01*
X2650045Y1458671D01*
X2651123Y1457592D01*
Y1442626D01*
X2646732D01*
X2638983Y1441606D01*
X2631762Y1438615D01*
X2625561Y1433857D01*
X2620802Y1427656D01*
X2617811Y1420435D01*
X2616791Y1412685D01*
Y1373315D01*
X2617811Y1365565D01*
X2620802Y1358344D01*
X2625561Y1352143D01*
X2631762Y1347385D01*
X2638983Y1344394D01*
X2646732Y1343374D01*
X2686102D01*
X2693852Y1344394D01*
X2701073Y1347385D01*
X2707274Y1352143D01*
X2712032Y1358344D01*
X2715023Y1365565D01*
X2716044Y1373315D01*
Y1412685D01*
X2715023Y1420435D01*
X2712032Y1427656D01*
X2707274Y1433857D01*
X2701073Y1438615D01*
X2693852Y1441606D01*
X2686102Y1442626D01*
X2681711D01*
Y1456427D01*
X2683955Y1458671D01*
X2687000Y1466022D01*
Y1473978D01*
X2683955Y1481329D01*
X2678329Y1486955D01*
X2670978Y1490000D01*
D02*
G37*
G36*
X5151303Y1536664D02*
X5108981D01*
X5101047Y1535086D01*
X5094320Y1530591D01*
X5089826Y1523865D01*
X5088248Y1515931D01*
Y1495262D01*
X5089826Y1487328D01*
X5094320Y1480601D01*
X5101047Y1476107D01*
X5108981Y1474529D01*
X5109750D01*
Y1432000D01*
Y1387589D01*
X5033553Y1311392D01*
X4974301D01*
X4972230Y1316392D01*
X5033228Y1377390D01*
X5037648Y1384005D01*
X5039201Y1391809D01*
Y1428092D01*
X5040000Y1430022D01*
Y1437978D01*
X5039201Y1439908D01*
Y1474529D01*
X5039970D01*
X5047904Y1476107D01*
X5054631Y1480601D01*
X5059125Y1487328D01*
X5060703Y1495262D01*
Y1515931D01*
X5059125Y1523865D01*
X5054631Y1530591D01*
X5047904Y1535086D01*
X5039970Y1536664D01*
X4997647D01*
X4989713Y1535086D01*
X4982987Y1530591D01*
X4978493Y1523865D01*
X4976914Y1515931D01*
Y1495262D01*
X4978493Y1487328D01*
X4982987Y1480601D01*
X4989713Y1476107D01*
X4997647Y1474529D01*
X4998417D01*
Y1400255D01*
X4946553Y1348392D01*
X4891301D01*
X4889230Y1353392D01*
X4921895Y1386056D01*
X4926315Y1392672D01*
X4927867Y1400476D01*
Y1474529D01*
X4928637D01*
X4936571Y1476107D01*
X4943297Y1480601D01*
X4947792Y1487328D01*
X4949370Y1495262D01*
Y1515931D01*
X4947792Y1523865D01*
X4943297Y1530591D01*
X4936571Y1535086D01*
X4928637Y1536664D01*
X4886314D01*
X4878380Y1535086D01*
X4871654Y1530591D01*
X4867159Y1523865D01*
X4865581Y1515931D01*
Y1495262D01*
X4867159Y1487328D01*
X4871654Y1480601D01*
X4878380Y1476107D01*
X4886314Y1474529D01*
X4887084D01*
Y1439180D01*
X4887000Y1438978D01*
Y1431022D01*
X4887084Y1430820D01*
Y1408922D01*
X4863553Y1385392D01*
X3846000D01*
X3838196Y1383840D01*
X3831581Y1379419D01*
X3765581Y1313419D01*
X3761160Y1306804D01*
X3759608Y1299000D01*
Y1031447D01*
X3521581Y793419D01*
X3517160Y786804D01*
X3515608Y779000D01*
Y494433D01*
X3517160Y486630D01*
X3521581Y480014D01*
X3629249Y372345D01*
X3626465Y361953D01*
Y349213D01*
X3629762Y336906D01*
X3636132Y325873D01*
X3645141Y316864D01*
X3656174Y310494D01*
X3668480Y307197D01*
X3681220D01*
X3693527Y310494D01*
X3704560Y316864D01*
X3713569Y325873D01*
X3719939Y336906D01*
X3723236Y349213D01*
Y361953D01*
X3719939Y374259D01*
X3713569Y385292D01*
X3704560Y394301D01*
X3693527Y400671D01*
X3681220Y403969D01*
X3668480D01*
X3658088Y401184D01*
X3556392Y502880D01*
Y770553D01*
X3794419Y1008581D01*
X3798840Y1015196D01*
X3800392Y1023000D01*
Y1290553D01*
X3854447Y1344608D01*
X4207699D01*
X4209770Y1339608D01*
X4163581Y1293419D01*
X4159160Y1286804D01*
X4157608Y1279000D01*
Y1183417D01*
X4152608Y1183171D01*
X4152060Y1188742D01*
X4148343Y1200995D01*
X4142307Y1212287D01*
X4134184Y1222184D01*
X4124287Y1230307D01*
X4112995Y1236343D01*
X4100742Y1240060D01*
X4088000Y1241314D01*
X4075258Y1240060D01*
X4063005Y1236343D01*
X4051713Y1230307D01*
X4041816Y1222184D01*
X4033693Y1212287D01*
X4027657Y1200995D01*
X4023941Y1188742D01*
X4022686Y1176000D01*
Y1166000D01*
X4023941Y1153258D01*
X4027657Y1141005D01*
X4033693Y1129713D01*
X4041816Y1119816D01*
X4051713Y1111693D01*
X4063005Y1105657D01*
X4075258Y1101940D01*
X4088000Y1100686D01*
X4100742Y1101940D01*
X4112995Y1105657D01*
X4124287Y1111693D01*
X4134184Y1119816D01*
X4142307Y1129713D01*
X4148343Y1141005D01*
X4152060Y1153258D01*
X4152608Y1158829D01*
X4157608Y1158583D01*
Y943447D01*
X4051581Y837419D01*
X4047160Y830804D01*
X4045608Y823000D01*
Y475433D01*
X4047160Y467630D01*
X4051581Y461014D01*
X4140249Y372345D01*
X4137465Y361953D01*
Y349213D01*
X4140762Y336906D01*
X4147132Y325873D01*
X4156141Y316864D01*
X4167174Y310494D01*
X4179480Y307197D01*
X4192221D01*
X4204527Y310494D01*
X4215560Y316864D01*
X4224569Y325873D01*
X4230939Y336906D01*
X4234236Y349213D01*
Y361953D01*
X4230939Y374259D01*
X4224569Y385292D01*
X4215560Y394301D01*
X4204527Y400671D01*
X4192221Y403969D01*
X4179480D01*
X4169088Y401184D01*
X4086392Y483880D01*
Y814553D01*
X4192419Y920581D01*
X4196840Y927196D01*
X4198392Y935000D01*
Y1270553D01*
X4235447Y1307608D01*
X4613699D01*
X4615770Y1302608D01*
X4574581Y1261419D01*
X4570160Y1254804D01*
X4568608Y1247000D01*
Y467433D01*
X4570160Y459630D01*
X4574581Y453014D01*
X4655249Y372346D01*
X4652465Y361953D01*
Y349213D01*
X4655762Y336906D01*
X4662132Y325873D01*
X4671141Y316864D01*
X4682174Y310494D01*
X4694480Y307197D01*
X4707221D01*
X4719527Y310494D01*
X4730560Y316864D01*
X4739569Y325873D01*
X4745939Y336906D01*
X4749236Y349213D01*
Y361953D01*
X4745939Y374259D01*
X4739569Y385292D01*
X4730560Y394301D01*
X4719527Y400671D01*
X4707221Y403969D01*
X4694480D01*
X4684088Y401184D01*
X4609392Y475880D01*
Y1238553D01*
X4641447Y1270608D01*
X5042000D01*
X5049804Y1272160D01*
X5056419Y1276581D01*
X5144561Y1364723D01*
X5144561Y1364723D01*
X5148982Y1371339D01*
X5150534Y1379142D01*
X5150534Y1379143D01*
Y1432000D01*
Y1474529D01*
X5151303D01*
X5159238Y1476107D01*
X5165964Y1480601D01*
X5170458Y1487328D01*
X5172037Y1495262D01*
Y1515931D01*
X5170458Y1523865D01*
X5165964Y1530591D01*
X5159238Y1535086D01*
X5151303Y1536664D01*
D02*
G37*
G36*
X5154000Y1241000D02*
X5024000D01*
Y1101000D01*
X5154000D01*
Y1241000D01*
D02*
G37*
G36*
X4753500D02*
X4623500D01*
Y1101000D01*
X4753500D01*
Y1241000D01*
D02*
G37*
G36*
X4353000D02*
X4223000D01*
Y1101000D01*
X4353000D01*
Y1241000D01*
D02*
G37*
G36*
X3952500D02*
X3822500D01*
Y1101000D01*
X3952500D01*
Y1241000D01*
D02*
G37*
G36*
X4889000Y1241314D02*
X4876258Y1240060D01*
X4864005Y1236343D01*
X4852713Y1230307D01*
X4842816Y1222184D01*
X4834693Y1212287D01*
X4828657Y1200995D01*
X4824940Y1188742D01*
X4823685Y1176000D01*
Y1166000D01*
X4824940Y1153258D01*
X4828657Y1141005D01*
X4834693Y1129713D01*
X4842816Y1119816D01*
X4852713Y1111693D01*
X4864005Y1105657D01*
X4876258Y1101940D01*
X4889000Y1100686D01*
X4901742Y1101940D01*
X4913995Y1105657D01*
X4925287Y1111693D01*
X4935184Y1119816D01*
X4943307Y1129713D01*
X4949343Y1141005D01*
X4953060Y1153258D01*
X4954315Y1166000D01*
Y1176000D01*
X4953060Y1188742D01*
X4949343Y1200995D01*
X4943307Y1212287D01*
X4935184Y1222184D01*
X4925287Y1230307D01*
X4913995Y1236343D01*
X4901742Y1240060D01*
X4889000Y1241314D01*
D02*
G37*
G36*
X4488500D02*
X4475758Y1240060D01*
X4463505Y1236343D01*
X4452213Y1230307D01*
X4442316Y1222184D01*
X4434193Y1212287D01*
X4428157Y1200995D01*
X4424440Y1188742D01*
X4423185Y1176000D01*
Y1166000D01*
X4424440Y1153258D01*
X4428157Y1141005D01*
X4434193Y1129713D01*
X4442316Y1119816D01*
X4452213Y1111693D01*
X4463505Y1105657D01*
X4475758Y1101940D01*
X4488500Y1100686D01*
X4501242Y1101940D01*
X4513495Y1105657D01*
X4524787Y1111693D01*
X4534684Y1119816D01*
X4542807Y1129713D01*
X4548843Y1141005D01*
X4552560Y1153258D01*
X4553815Y1166000D01*
Y1176000D01*
X4552560Y1188742D01*
X4548843Y1200995D01*
X4542807Y1212287D01*
X4534684Y1222184D01*
X4524787Y1230307D01*
X4513495Y1236343D01*
X4501242Y1240060D01*
X4488500Y1241314D01*
D02*
G37*
G36*
X3687500D02*
X3674758Y1240060D01*
X3662505Y1236343D01*
X3651213Y1230307D01*
X3641316Y1222184D01*
X3633193Y1212287D01*
X3627157Y1200995D01*
X3623441Y1188742D01*
X3622186Y1176000D01*
Y1166000D01*
X3623441Y1153258D01*
X3627157Y1141005D01*
X3633193Y1129713D01*
X3641316Y1119816D01*
X3651213Y1111693D01*
X3662505Y1105657D01*
X3674758Y1101940D01*
X3687500Y1100686D01*
X3700242Y1101940D01*
X3712495Y1105657D01*
X3723787Y1111693D01*
X3733684Y1119816D01*
X3741807Y1129713D01*
X3747843Y1141005D01*
X3751559Y1153258D01*
X3752814Y1166000D01*
Y1176000D01*
X3751559Y1188742D01*
X3747843Y1200995D01*
X3741807Y1212287D01*
X3733684Y1222184D01*
X3723787Y1230307D01*
X3712495Y1236343D01*
X3700242Y1240060D01*
X3687500Y1241314D01*
D02*
G37*
G36*
X3502000Y1076867D02*
D01*
Y1039000D01*
X3544209D01*
X3543406Y1045095D01*
X3539124Y1055433D01*
X3532311Y1064311D01*
X3523433Y1071124D01*
X3513095Y1075406D01*
X3502000Y1076867D01*
D02*
G37*
G36*
X3492000D02*
X3480905Y1075406D01*
X3470567Y1071124D01*
X3461689Y1064311D01*
X3454876Y1055433D01*
X3450594Y1045095D01*
X3449791Y1039000D01*
X3492000D01*
Y1076867D01*
D02*
G37*
G36*
X3252000Y1075867D02*
D01*
Y1038000D01*
X3294209D01*
X3293406Y1044095D01*
X3289124Y1054433D01*
X3282311Y1063311D01*
X3273433Y1070124D01*
X3263095Y1074406D01*
X3252000Y1075867D01*
D02*
G37*
G36*
X3242000D02*
X3230905Y1074406D01*
X3220567Y1070124D01*
X3211689Y1063311D01*
X3204876Y1054433D01*
X3200594Y1044095D01*
X3199791Y1038000D01*
X3242000D01*
Y1075867D01*
D02*
G37*
G36*
X5507489Y1231748D02*
X5488873D01*
X5470487Y1228836D01*
X5452782Y1223083D01*
X5436195Y1214632D01*
X5421135Y1203690D01*
X5407972Y1190526D01*
X5397029Y1175466D01*
X5388578Y1158879D01*
X5382826Y1141175D01*
X5379913Y1122788D01*
Y1104172D01*
X5382826Y1085786D01*
X5388578Y1068081D01*
X5397029Y1051495D01*
X5407972Y1036434D01*
X5421135Y1023271D01*
X5436195Y1012329D01*
X5452782Y1003877D01*
X5470487Y998125D01*
X5488873Y995213D01*
X5507489D01*
X5525876Y998125D01*
X5543580Y1003877D01*
X5560167Y1012329D01*
X5575227Y1023271D01*
X5588391Y1036434D01*
X5599333Y1051495D01*
X5607784Y1068081D01*
X5613537Y1085786D01*
X5616449Y1104172D01*
Y1122788D01*
X5613537Y1141175D01*
X5607784Y1158879D01*
X5599333Y1175466D01*
X5588391Y1190526D01*
X5575227Y1203690D01*
X5560167Y1214632D01*
X5543580Y1223083D01*
X5525876Y1228836D01*
X5507489Y1231748D01*
D02*
G37*
G36*
X231899D02*
X213283D01*
X194896Y1228836D01*
X177192Y1223083D01*
X160605Y1214632D01*
X145544Y1203690D01*
X132381Y1190526D01*
X121439Y1175466D01*
X112988Y1158879D01*
X107235Y1141175D01*
X104323Y1122788D01*
Y1104172D01*
X107235Y1085786D01*
X112988Y1068081D01*
X121439Y1051495D01*
X132381Y1036434D01*
X145544Y1023271D01*
X160605Y1012329D01*
X177192Y1003877D01*
X194896Y998125D01*
X213283Y995213D01*
X231899D01*
X250285Y998125D01*
X267990Y1003877D01*
X284576Y1012329D01*
X299637Y1023271D01*
X312800Y1036434D01*
X323742Y1051495D01*
X332194Y1068081D01*
X337946Y1085786D01*
X340858Y1104172D01*
Y1122788D01*
X337946Y1141175D01*
X332194Y1158879D01*
X323742Y1175466D01*
X312800Y1190526D01*
X299637Y1203690D01*
X284576Y1214632D01*
X267990Y1223083D01*
X250285Y1228836D01*
X231899Y1231748D01*
D02*
G37*
G36*
X3544209Y1029000D02*
X3502000D01*
Y991133D01*
X3513095Y992594D01*
X3523433Y996876D01*
X3532311Y1003689D01*
X3539124Y1012567D01*
X3543406Y1022905D01*
X3544209Y1029000D01*
D02*
G37*
G36*
X3492000D02*
X3449791D01*
X3450594Y1022905D01*
X3454876Y1012567D01*
X3461689Y1003689D01*
X3470567Y996876D01*
X3480905Y992594D01*
X3492000Y991133D01*
D01*
Y1029000D01*
D02*
G37*
G36*
X3294209Y1028000D02*
X3252000D01*
Y990133D01*
X3263095Y991594D01*
X3273433Y995876D01*
X3282311Y1002689D01*
X3289124Y1011567D01*
X3293406Y1021905D01*
X3294209Y1028000D01*
D02*
G37*
G36*
X3242000D02*
X3199791D01*
X3200594Y1021905D01*
X3204876Y1011567D01*
X3211689Y1002689D01*
X3220567Y995876D01*
X3230905Y991594D01*
X3242000Y990133D01*
D01*
Y1028000D01*
D02*
G37*
G36*
X2837000Y965822D02*
Y901000D01*
X2897314D01*
X2896059Y913742D01*
X2892343Y925995D01*
X2886307Y937287D01*
X2878184Y947184D01*
X2868287Y955307D01*
X2856995Y961343D01*
X2844742Y965059D01*
X2837000Y965822D01*
D02*
G37*
G36*
X2827000D02*
X2819258Y965059D01*
X2807005Y961343D01*
X2795713Y955307D01*
X2785816Y947184D01*
X2777693Y937287D01*
X2771657Y925995D01*
X2767941Y913742D01*
X2766686Y901000D01*
D01*
X2827000D01*
Y965822D01*
D02*
G37*
G36*
X2897314Y891000D02*
X2837000D01*
Y826178D01*
X2844742Y826941D01*
X2856995Y830657D01*
X2868287Y836693D01*
X2878184Y844816D01*
X2886307Y854713D01*
X2892343Y866005D01*
X2896059Y878258D01*
X2897314Y891000D01*
D01*
D02*
G37*
G36*
X2827000D02*
X2766686D01*
X2767941Y878258D01*
X2771657Y866005D01*
X2777693Y854713D01*
X2785816Y844816D01*
X2795713Y836693D01*
X2807005Y830657D01*
X2819258Y826941D01*
X2827000Y826178D01*
Y891000D01*
D02*
G37*
G36*
X2429778Y1543173D02*
X2325447D01*
X2318726Y1542288D01*
X2312462Y1539694D01*
X2307084Y1535567D01*
X2302956Y1530188D01*
X2300362Y1523925D01*
X2299477Y1517203D01*
Y1485707D01*
X2300362Y1478986D01*
X2302956Y1472722D01*
X2307084Y1467343D01*
X2312462Y1463216D01*
X2318726Y1460622D01*
X2325447Y1459737D01*
X2364608D01*
Y1416063D01*
X2361307Y1411122D01*
X2359843Y1403764D01*
Y1374236D01*
X2361307Y1366878D01*
X2364608Y1361937D01*
Y1339094D01*
X2318425D01*
Y1180906D01*
X2335593D01*
Y1171016D01*
X2337145Y1163212D01*
X2341565Y1156597D01*
X2404581Y1093581D01*
X2411196Y1089160D01*
X2419000Y1087608D01*
X2419001Y1087608D01*
X2566553D01*
X2611608Y1042553D01*
Y966000D01*
X2567000D01*
Y826000D01*
X2697000D01*
Y966000D01*
X2652392D01*
Y1051000D01*
X2650840Y1058804D01*
X2646419Y1065419D01*
X2589419Y1122419D01*
X2582804Y1126840D01*
X2575000Y1128392D01*
X2427447D01*
X2379933Y1175906D01*
X2382004Y1180906D01*
X2393543D01*
Y1310256D01*
X2399419Y1316132D01*
X2403840Y1322747D01*
X2405392Y1330551D01*
X2405392Y1330552D01*
Y1357305D01*
X2410383Y1360640D01*
X2414552Y1366878D01*
X2416015Y1374236D01*
Y1403764D01*
X2414552Y1411122D01*
X2410383Y1417360D01*
X2405392Y1420695D01*
Y1459737D01*
X2429778D01*
X2436500Y1460622D01*
X2442763Y1463216D01*
X2448142Y1467343D01*
X2452269Y1472722D01*
X2454863Y1478986D01*
X2455748Y1485707D01*
Y1517203D01*
X2454863Y1523925D01*
X2452269Y1530188D01*
X2448142Y1535567D01*
X2442763Y1539694D01*
X2436500Y1542288D01*
X2429778Y1543173D01*
D02*
G37*
G36*
X2229778D02*
X2125447D01*
X2118726Y1542288D01*
X2112462Y1539694D01*
X2107084Y1535567D01*
X2102956Y1530188D01*
X2100362Y1523925D01*
X2099477Y1517203D01*
Y1485707D01*
X2100362Y1478986D01*
X2102956Y1472722D01*
X2107084Y1467343D01*
X2112462Y1463216D01*
X2118726Y1460622D01*
X2125447Y1459737D01*
X2144679D01*
Y1418738D01*
X2142617Y1417360D01*
X2138448Y1411122D01*
X2136985Y1403764D01*
Y1374236D01*
X2138448Y1366878D01*
X2142617Y1360640D01*
X2144679Y1359262D01*
Y1330480D01*
X2146231Y1322677D01*
X2150652Y1316061D01*
X2156457Y1310256D01*
Y1180906D01*
X2173624D01*
Y1015984D01*
X2175176Y1008181D01*
X2179597Y1001565D01*
X2299581Y881581D01*
X2306196Y877160D01*
X2314000Y875608D01*
X2368744D01*
X2371657Y866005D01*
X2377693Y854713D01*
X2385816Y844816D01*
X2395713Y836693D01*
X2407005Y830657D01*
X2419258Y826941D01*
X2432000Y825686D01*
X2444742Y826941D01*
X2456995Y830657D01*
X2468287Y836693D01*
X2478184Y844816D01*
X2486307Y854713D01*
X2492343Y866005D01*
X2496059Y878258D01*
X2497314Y891000D01*
Y901000D01*
X2496059Y913742D01*
X2492343Y925995D01*
X2486307Y937287D01*
X2478184Y947184D01*
X2468287Y955307D01*
X2456995Y961343D01*
X2444742Y965059D01*
X2432000Y966314D01*
X2419258Y965059D01*
X2407005Y961343D01*
X2395713Y955307D01*
X2385816Y947184D01*
X2377693Y937287D01*
X2371657Y925995D01*
X2368744Y916392D01*
X2322447D01*
X2214407Y1024431D01*
Y1180906D01*
X2231575D01*
Y1339094D01*
X2185463D01*
Y1359262D01*
X2187525Y1360640D01*
X2191693Y1366878D01*
X2193157Y1374236D01*
Y1403764D01*
X2191693Y1411122D01*
X2187525Y1417360D01*
X2185463Y1418738D01*
Y1459737D01*
X2229778D01*
X2236500Y1460622D01*
X2242763Y1463216D01*
X2248142Y1467343D01*
X2252269Y1472722D01*
X2254863Y1478986D01*
X2255748Y1485707D01*
Y1517203D01*
X2254863Y1523925D01*
X2252269Y1530188D01*
X2248142Y1535567D01*
X2242763Y1539694D01*
X2236500Y1542288D01*
X2229778Y1543173D01*
D02*
G37*
G36*
X5216221Y805543D02*
X5203480D01*
X5191174Y802246D01*
X5180141Y795876D01*
X5171132Y786867D01*
X5164762Y775834D01*
X5161465Y763528D01*
Y750787D01*
X5164762Y738481D01*
X5171132Y727448D01*
X5180141Y718439D01*
X5191174Y712069D01*
X5203480Y708772D01*
X5216221D01*
X5228527Y712069D01*
X5239560Y718439D01*
X5248569Y727448D01*
X5254939Y738481D01*
X5258236Y750787D01*
Y763528D01*
X5254939Y775834D01*
X5248569Y786867D01*
X5239560Y795876D01*
X5228527Y802246D01*
X5216221Y805543D01*
D02*
G37*
G36*
X4822520D02*
X4809779D01*
X4797473Y802246D01*
X4786440Y795876D01*
X4777431Y786867D01*
X4771061Y775834D01*
X4767764Y763528D01*
Y750787D01*
X4771061Y738481D01*
X4777431Y727448D01*
X4786440Y718439D01*
X4797473Y712069D01*
X4809779Y708772D01*
X4822520D01*
X4834826Y712069D01*
X4845859Y718439D01*
X4854868Y727448D01*
X4861238Y738481D01*
X4864535Y750787D01*
Y763528D01*
X4861238Y775834D01*
X4854868Y786867D01*
X4845859Y795876D01*
X4834826Y802246D01*
X4822520Y805543D01*
D02*
G37*
G36*
X4707221D02*
X4694480D01*
X4682174Y802246D01*
X4671141Y795876D01*
X4662132Y786867D01*
X4655762Y775834D01*
X4652465Y763528D01*
Y750787D01*
X4655762Y738481D01*
X4662132Y727448D01*
X4671141Y718439D01*
X4682174Y712069D01*
X4694480Y708772D01*
X4707221D01*
X4719527Y712069D01*
X4730560Y718439D01*
X4739569Y727448D01*
X4745939Y738481D01*
X4749236Y750787D01*
Y763528D01*
X4745939Y775834D01*
X4739569Y786867D01*
X4730560Y795876D01*
X4719527Y802246D01*
X4707221Y805543D01*
D02*
G37*
G36*
X4313520D02*
X4300779D01*
X4288473Y802246D01*
X4277440Y795876D01*
X4268431Y786867D01*
X4262061Y775834D01*
X4258764Y763528D01*
Y750787D01*
X4262061Y738481D01*
X4268431Y727448D01*
X4277440Y718439D01*
X4288473Y712069D01*
X4300779Y708772D01*
X4313520D01*
X4325826Y712069D01*
X4336859Y718439D01*
X4345868Y727448D01*
X4352238Y738481D01*
X4355535Y750787D01*
Y763528D01*
X4352238Y775834D01*
X4345868Y786867D01*
X4336859Y795876D01*
X4325826Y802246D01*
X4313520Y805543D01*
D02*
G37*
G36*
X4192221D02*
X4179480D01*
X4167174Y802246D01*
X4156141Y795876D01*
X4147132Y786867D01*
X4140762Y775834D01*
X4137465Y763528D01*
Y750787D01*
X4140762Y738481D01*
X4147132Y727448D01*
X4156141Y718439D01*
X4167174Y712069D01*
X4179480Y708772D01*
X4192221D01*
X4204527Y712069D01*
X4215560Y718439D01*
X4224569Y727448D01*
X4230939Y738481D01*
X4234236Y750787D01*
Y763528D01*
X4230939Y775834D01*
X4224569Y786867D01*
X4215560Y795876D01*
X4204527Y802246D01*
X4192221Y805543D01*
D02*
G37*
G36*
X3798520D02*
X3785780D01*
X3773473Y802246D01*
X3762440Y795876D01*
X3753431Y786867D01*
X3747061Y775834D01*
X3743764Y763528D01*
Y750787D01*
X3747061Y738481D01*
X3753431Y727448D01*
X3762440Y718439D01*
X3773473Y712069D01*
X3785780Y708772D01*
X3798520D01*
X3810826Y712069D01*
X3821859Y718439D01*
X3830868Y727448D01*
X3837238Y738481D01*
X3840535Y750787D01*
Y763528D01*
X3837238Y775834D01*
X3830868Y786867D01*
X3821859Y795876D01*
X3810826Y802246D01*
X3798520Y805543D01*
D02*
G37*
G36*
X3681220D02*
X3668480D01*
X3656174Y802246D01*
X3645141Y795876D01*
X3636132Y786867D01*
X3629762Y775834D01*
X3626465Y763528D01*
Y750787D01*
X3629762Y738481D01*
X3636132Y727448D01*
X3645141Y718439D01*
X3656174Y712069D01*
X3668480Y708772D01*
X3681220D01*
X3693527Y712069D01*
X3704560Y718439D01*
X3713569Y727448D01*
X3719939Y738481D01*
X3723236Y750787D01*
Y763528D01*
X3719939Y775834D01*
X3713569Y786867D01*
X3704560Y795876D01*
X3693527Y802246D01*
X3681220Y805543D01*
D02*
G37*
G36*
X3287520D02*
X3274780D01*
X3262473Y802246D01*
X3251440Y795876D01*
X3242431Y786867D01*
X3236061Y775834D01*
X3232764Y763528D01*
Y750787D01*
X3236061Y738481D01*
X3242431Y727448D01*
X3251440Y718439D01*
X3262473Y712069D01*
X3274780Y708772D01*
X3287520D01*
X3299826Y712069D01*
X3310859Y718439D01*
X3319868Y727448D01*
X3326238Y738481D01*
X3329535Y750787D01*
Y763528D01*
X3326238Y775834D01*
X3319868Y786867D01*
X3310859Y795876D01*
X3299826Y802246D01*
X3287520Y805543D01*
D02*
G37*
G36*
X1558189Y681918D02*
X1543811D01*
X1529709Y679113D01*
X1516425Y673611D01*
X1504470Y665623D01*
X1494303Y655456D01*
X1486315Y643501D01*
X1480813Y630217D01*
X1478008Y616115D01*
Y601737D01*
X1480813Y587635D01*
X1486315Y574351D01*
X1494303Y562396D01*
X1504470Y552230D01*
X1516425Y544241D01*
X1529709Y538739D01*
X1543811Y535934D01*
X1558189D01*
X1572291Y538739D01*
X1585575Y544241D01*
X1597530Y552230D01*
X1607697Y562396D01*
X1615685Y574351D01*
X1621187Y587635D01*
X1623992Y601737D01*
Y616115D01*
X1621187Y630217D01*
X1615685Y643501D01*
X1607697Y655456D01*
X1597530Y665623D01*
X1585575Y673611D01*
X1572291Y679113D01*
X1558189Y681918D01*
D02*
G37*
G36*
X798346D02*
X783968D01*
X769866Y679113D01*
X756583Y673611D01*
X744628Y665623D01*
X734461Y655456D01*
X726473Y643501D01*
X720970Y630217D01*
X718165Y616115D01*
Y601737D01*
X720970Y587635D01*
X726473Y574351D01*
X734461Y562396D01*
X744628Y552230D01*
X756583Y544241D01*
X769866Y538739D01*
X783968Y535934D01*
X798346D01*
X812448Y538739D01*
X825732Y544241D01*
X837687Y552230D01*
X847854Y562396D01*
X855842Y574351D01*
X861345Y587635D01*
X864149Y601737D01*
Y616115D01*
X861345Y630217D01*
X855842Y643501D01*
X847854Y655456D01*
X837687Y665623D01*
X825732Y673611D01*
X812448Y679113D01*
X798346Y681918D01*
D02*
G37*
G36*
X5262637Y1536664D02*
X5220314D01*
X5212380Y1535086D01*
X5205654Y1530591D01*
X5201159Y1523865D01*
X5199581Y1515931D01*
Y1495262D01*
X5201159Y1487328D01*
X5205654Y1480601D01*
X5212380Y1476107D01*
X5220314Y1474529D01*
X5221084D01*
Y1430000D01*
Y1374525D01*
X5222636Y1366721D01*
X5227056Y1360105D01*
X5309608Y1277553D01*
Y484179D01*
X5226613Y401184D01*
X5216221Y403969D01*
X5203480D01*
X5191174Y400671D01*
X5180141Y394301D01*
X5171132Y385292D01*
X5164762Y374259D01*
X5161465Y361953D01*
Y349213D01*
X5164762Y336906D01*
X5171132Y325873D01*
X5180141Y316864D01*
X5191174Y310494D01*
X5203480Y307197D01*
X5216221D01*
X5228527Y310494D01*
X5239560Y316864D01*
X5248569Y325873D01*
X5254939Y336906D01*
X5258236Y349213D01*
Y361953D01*
X5255452Y372345D01*
X5344419Y461313D01*
X5348840Y467929D01*
X5350392Y475732D01*
Y1286000D01*
X5348840Y1293804D01*
X5344419Y1300419D01*
X5261867Y1382971D01*
Y1430000D01*
Y1474529D01*
X5262637D01*
X5270571Y1476107D01*
X5277297Y1480601D01*
X5281792Y1487328D01*
X5283370Y1495262D01*
Y1515931D01*
X5281792Y1523865D01*
X5277297Y1530591D01*
X5270571Y1535086D01*
X5262637Y1536664D01*
D02*
G37*
G36*
X2697000Y437000D02*
X2637000D01*
Y372000D01*
X2697000D01*
Y437000D01*
D02*
G37*
G36*
X3097000D02*
X3037000D01*
Y372000D01*
X3097000D01*
Y437000D01*
D02*
G37*
G36*
X2627000D02*
X2567000D01*
Y372000D01*
X2627000D01*
Y437000D01*
D02*
G37*
G36*
X3027000D02*
X2967000D01*
Y372000D01*
X3027000D01*
Y437000D01*
D02*
G37*
G36*
X4822520Y403969D02*
X4809779D01*
X4797473Y400671D01*
X4786440Y394301D01*
X4777431Y385292D01*
X4771061Y374259D01*
X4767764Y361953D01*
Y349213D01*
X4771061Y336906D01*
X4777431Y325873D01*
X4786440Y316864D01*
X4797473Y310494D01*
X4809779Y307197D01*
X4822520D01*
X4834826Y310494D01*
X4845859Y316864D01*
X4854868Y325873D01*
X4861238Y336906D01*
X4864535Y349213D01*
Y361953D01*
X4861238Y374259D01*
X4854868Y385292D01*
X4845859Y394301D01*
X4834826Y400671D01*
X4822520Y403969D01*
D02*
G37*
G36*
X4313520D02*
X4300779D01*
X4288473Y400671D01*
X4277440Y394301D01*
X4268431Y385292D01*
X4262061Y374259D01*
X4258764Y361953D01*
Y349213D01*
X4262061Y336906D01*
X4268431Y325873D01*
X4277440Y316864D01*
X4288473Y310494D01*
X4300779Y307197D01*
X4313520D01*
X4325826Y310494D01*
X4336859Y316864D01*
X4345868Y325873D01*
X4352238Y336906D01*
X4355535Y349213D01*
Y361953D01*
X4352238Y374259D01*
X4345868Y385292D01*
X4336859Y394301D01*
X4325826Y400671D01*
X4313520Y403969D01*
D02*
G37*
G36*
X3798520D02*
X3785780D01*
X3773473Y400671D01*
X3762440Y394301D01*
X3753431Y385292D01*
X3747061Y374259D01*
X3743764Y361953D01*
Y349213D01*
X3747061Y336906D01*
X3753431Y325873D01*
X3762440Y316864D01*
X3773473Y310494D01*
X3785780Y307197D01*
X3798520D01*
X3810826Y310494D01*
X3821859Y316864D01*
X3830868Y325873D01*
X3837238Y336906D01*
X3840535Y349213D01*
Y361953D01*
X3837238Y374259D01*
X3830868Y385292D01*
X3821859Y394301D01*
X3810826Y400671D01*
X3798520Y403969D01*
D02*
G37*
G36*
X3287520D02*
X3274780D01*
X3262473Y400671D01*
X3251440Y394301D01*
X3242431Y385292D01*
X3236061Y374259D01*
X3232764Y361953D01*
Y349213D01*
X3236061Y336906D01*
X3242431Y325873D01*
X3251440Y316864D01*
X3262473Y310494D01*
X3274780Y307197D01*
X3287520D01*
X3299826Y310494D01*
X3310859Y316864D01*
X3319868Y325873D01*
X3326238Y336906D01*
X3329535Y349213D01*
Y361953D01*
X3326238Y374259D01*
X3319868Y385292D01*
X3310859Y394301D01*
X3299826Y400671D01*
X3287520Y403969D01*
D02*
G37*
G36*
X3097000Y362000D02*
X3037000D01*
Y297000D01*
X3097000D01*
Y362000D01*
D02*
G37*
G36*
X3027000D02*
X2967000D01*
Y297000D01*
X3027000D01*
Y362000D01*
D02*
G37*
G36*
X2697000D02*
X2637000D01*
Y297000D01*
X2697000D01*
Y362000D01*
D02*
G37*
G36*
X2627000D02*
X2567000D01*
Y297000D01*
X2627000D01*
Y362000D01*
D02*
G37*
G36*
X2832000Y437315D02*
X2819258Y436060D01*
X2807005Y432343D01*
X2795713Y426307D01*
X2785816Y418184D01*
X2777693Y408287D01*
X2771657Y396995D01*
X2767941Y384742D01*
X2766686Y372000D01*
Y362000D01*
X2767941Y349258D01*
X2771657Y337005D01*
X2777693Y325713D01*
X2785816Y315816D01*
X2795713Y307693D01*
X2807005Y301657D01*
X2819258Y297940D01*
X2832000Y296685D01*
X2844742Y297940D01*
X2856995Y301657D01*
X2868287Y307693D01*
X2878184Y315816D01*
X2886307Y325713D01*
X2892343Y337005D01*
X2896059Y349258D01*
X2897314Y362000D01*
Y372000D01*
X2896059Y384742D01*
X2892343Y396995D01*
X2886307Y408287D01*
X2878184Y418184D01*
X2868287Y426307D01*
X2856995Y432343D01*
X2844742Y436060D01*
X2832000Y437315D01*
D02*
G37*
G36*
X2432000D02*
X2419258Y436060D01*
X2407005Y432343D01*
X2395713Y426307D01*
X2385816Y418184D01*
X2377693Y408287D01*
X2371657Y396995D01*
X2367941Y384742D01*
X2366686Y372000D01*
Y362000D01*
X2367941Y349258D01*
X2371657Y337005D01*
X2377693Y325713D01*
X2385816Y315816D01*
X2395713Y307693D01*
X2407005Y301657D01*
X2419258Y297940D01*
X2432000Y296685D01*
X2444742Y297940D01*
X2456995Y301657D01*
X2468287Y307693D01*
X2478184Y315816D01*
X2486307Y325713D01*
X2492343Y337005D01*
X2496059Y349258D01*
X2497314Y362000D01*
Y372000D01*
X2496059Y384742D01*
X2492343Y396995D01*
X2486307Y408287D01*
X2478184Y418184D01*
X2468287Y426307D01*
X2456995Y432343D01*
X2444742Y436060D01*
X2432000Y437315D01*
D02*
G37*
G36*
X5061386Y305543D02*
X4964614D01*
Y208772D01*
X5061386D01*
Y305543D01*
D02*
G37*
G36*
X4552386D02*
X4455614D01*
Y208772D01*
X4552386D01*
Y305543D01*
D02*
G37*
G36*
X4037386D02*
X3940614D01*
Y208772D01*
X4037386D01*
Y305543D01*
D02*
G37*
G36*
X3526386D02*
X3429614D01*
Y208772D01*
X3526386D01*
Y305543D01*
D02*
G37*
G36*
X791157Y3193232D02*
X779395Y3192074D01*
X768085Y3188643D01*
X757662Y3183072D01*
X748526Y3175574D01*
X741028Y3166437D01*
X735456Y3156014D01*
X732025Y3144704D01*
X730867Y3132942D01*
X732025Y3121180D01*
X735456Y3109870D01*
X741028Y3099447D01*
X748526Y3090310D01*
X1113710Y2725126D01*
Y639863D01*
X1114868Y628101D01*
X1118299Y616791D01*
X1123870Y606368D01*
X1131368Y597231D01*
X1508368Y220232D01*
X1517505Y212734D01*
X1527928Y207162D01*
X1539238Y203731D01*
X1551000Y202573D01*
X1562762Y203731D01*
X1574072Y207162D01*
X1584495Y212734D01*
X1593632Y220232D01*
X1601130Y229368D01*
X1606701Y239791D01*
X1610132Y251101D01*
X1611290Y262863D01*
X1610132Y274625D01*
X1606701Y285935D01*
X1601130Y296359D01*
X1593632Y305495D01*
X1234290Y664836D01*
Y2750099D01*
X1233132Y2761861D01*
X1229701Y2773171D01*
X1224130Y2783595D01*
X1216632Y2792731D01*
X833789Y3175574D01*
X824653Y3183072D01*
X814230Y3188643D01*
X802919Y3192074D01*
X791157Y3193232D01*
D02*
G37*
G36*
X403231Y1579059D02*
X192000D01*
X180238Y1577900D01*
X168928Y1574470D01*
X164960Y1572349D01*
X154599D01*
X146335Y1571261D01*
X138635Y1568072D01*
X132023Y1562998D01*
X126949Y1556386D01*
X123760Y1548685D01*
X122672Y1540422D01*
Y1497115D01*
X123760Y1488852D01*
X126949Y1481152D01*
X132023Y1474540D01*
X138635Y1469466D01*
X146335Y1466276D01*
X154599Y1465188D01*
X164960D01*
X168928Y1463068D01*
X180238Y1459637D01*
X192000Y1458478D01*
X378258D01*
X445710Y1391027D01*
Y392000D01*
X446868Y380238D01*
X450299Y368928D01*
X455870Y358505D01*
X463368Y349368D01*
X592505Y220232D01*
X601641Y212734D01*
X612065Y207162D01*
X623375Y203731D01*
X635137Y202573D01*
X791157D01*
X802919Y203731D01*
X814230Y207162D01*
X824653Y212734D01*
X833789Y220232D01*
X841287Y229368D01*
X846858Y239791D01*
X850289Y251101D01*
X851448Y262863D01*
X850289Y274625D01*
X846858Y285935D01*
X841287Y296359D01*
X833789Y305495D01*
X824653Y312993D01*
X814230Y318564D01*
X802919Y321995D01*
X791157Y323154D01*
X660110D01*
X566290Y416973D01*
Y1416000D01*
X565132Y1427762D01*
X561701Y1439072D01*
X556130Y1449495D01*
X548632Y1458632D01*
X445863Y1561400D01*
X436727Y1568898D01*
X426303Y1574470D01*
X414993Y1577901D01*
X403231Y1579059D01*
D02*
G37*
%LPD*%
G36*
X3395098Y3261630D02*
X3397630Y3259098D01*
X3399000Y3255790D01*
Y3254000D01*
Y3168000D01*
Y3166409D01*
X3397782Y3163468D01*
X3395532Y3161218D01*
X3392591Y3160000D01*
X3353005D01*
X3351168Y3160761D01*
X3349761Y3162168D01*
X3349000Y3164005D01*
Y3165000D01*
Y3254000D01*
Y3255790D01*
X3350370Y3259098D01*
X3352902Y3261630D01*
X3356210Y3263000D01*
X3391790D01*
X3395098Y3261630D01*
D02*
G37*
G36*
X3802041Y2530238D02*
X3807738Y2528073D01*
X3812950Y2524914D01*
X3817505Y2520867D01*
X3821255Y2516062D01*
X3824075Y2510660D01*
X3825874Y2504837D01*
X3826232Y2501811D01*
X3826232D01*
X3826232Y2501811D01*
Y2501811D01*
X3759768Y2501811D01*
X3760126Y2504837D01*
X3761925Y2510660D01*
X3764745Y2516062D01*
X3768494Y2520866D01*
X3773050Y2524914D01*
X3778262Y2528073D01*
X3783959Y2530238D01*
X3789952Y2531339D01*
X3793000D01*
X3796047Y2531339D01*
X3802041Y2530238D01*
D02*
G37*
G36*
X3759768Y2493937D02*
X3826232D01*
X3825874Y2490911D01*
X3824075Y2485088D01*
X3821255Y2479686D01*
X3817506Y2474882D01*
X3812950Y2470834D01*
X3807738Y2467675D01*
X3802041Y2465510D01*
X3796047Y2464409D01*
X3793000D01*
X3789953Y2464409D01*
X3783959Y2465510D01*
X3778262Y2467675D01*
X3773050Y2470834D01*
X3768494Y2474881D01*
X3764745Y2479686D01*
X3761924Y2485088D01*
X3760126Y2490911D01*
X3759768Y2493937D01*
D01*
Y2493937D01*
Y2493937D01*
D02*
G37*
G36*
X5003547Y2573000D02*
X5006531Y2573000D01*
X5012044Y2570716D01*
X5016264Y2566497D01*
X5017884Y2562584D01*
X5018547Y2558001D01*
Y2558000D01*
X5018547D01*
X5018547Y2558000D01*
Y2401000D01*
Y2396823D01*
X5015350Y2389104D01*
X5009443Y2383197D01*
X5001725Y2380000D01*
X4816547D01*
X4813554Y2380000D01*
X4808024Y2382291D01*
X4803791Y2386523D01*
X4801501Y2392054D01*
X4801501Y2395047D01*
X4802453Y2557001D01*
Y2560183D01*
X4804889Y2566063D01*
X4809390Y2570564D01*
X4815270Y2573000D01*
X4818453D01*
Y2573000D01*
X5003547Y2573000D01*
D02*
G37*
D10*
X4492000Y2725150D02*
D03*
Y3118850D02*
D03*
D11*
X4910000Y2696323D02*
D03*
Y2529000D02*
D03*
D12*
X3373000Y3171260D02*
D03*
Y3133858D02*
D03*
Y3096457D02*
D03*
D13*
X3475362D02*
D03*
Y3171260D02*
D03*
D14*
X2837323Y2537000D02*
D03*
Y2587000D02*
D03*
Y2637000D02*
D03*
Y2687000D02*
D03*
Y2737000D02*
D03*
Y2787000D02*
D03*
Y2837000D02*
D03*
Y2887000D02*
D03*
X2620000Y2537000D02*
D03*
Y2587000D02*
D03*
Y2637000D02*
D03*
Y2687000D02*
D03*
Y2737000D02*
D03*
Y2787000D02*
D03*
Y2837000D02*
D03*
D15*
Y2887000D02*
D03*
D16*
X2456000Y2889647D02*
D03*
Y2777442D02*
D03*
D17*
X3266000Y1882071D02*
D03*
Y1949000D02*
D03*
X3265000Y1801465D02*
D03*
Y1734535D02*
D03*
X3343126Y1633315D02*
D03*
Y1566386D02*
D03*
X3267874D02*
D03*
Y1633315D02*
D03*
X5113000Y1694535D02*
D03*
Y1761465D02*
D03*
X5040825Y1693000D02*
D03*
Y1759929D02*
D03*
X4968650Y1690000D02*
D03*
Y1756929D02*
D03*
X4896475Y1690903D02*
D03*
Y1757833D02*
D03*
X2847968Y1598520D02*
D03*
Y1531591D02*
D03*
X2772968Y1531591D02*
D03*
Y1598520D02*
D03*
X2700356Y1531591D02*
D03*
Y1598520D02*
D03*
X2627000Y1598520D02*
D03*
Y1531591D02*
D03*
X2966000Y2702535D02*
D03*
Y2769465D02*
D03*
Y2599465D02*
D03*
Y2532535D02*
D03*
X3370126Y2916929D02*
D03*
Y2850000D02*
D03*
X3484000Y1511465D02*
D03*
Y1444535D02*
D03*
X3557000Y1511465D02*
D03*
Y1444535D02*
D03*
X2518000Y1592006D02*
D03*
Y1658935D02*
D03*
X3292040Y2916929D02*
D03*
Y2850000D02*
D03*
X2041000Y1592006D02*
D03*
Y1658935D02*
D03*
D18*
X3094535Y1482543D02*
D03*
X3161465D02*
D03*
X3094535Y1410000D02*
D03*
X3161465D02*
D03*
X3618465Y3096457D02*
D03*
X3551535D02*
D03*
X3618465Y3171260D02*
D03*
X3551535D02*
D03*
X3289465Y3096457D02*
D03*
X3222535D02*
D03*
Y3171260D02*
D03*
X3289465D02*
D03*
X2232000Y1389000D02*
D03*
X2165071D02*
D03*
X2321000D02*
D03*
X2387929D02*
D03*
X2737071Y2436417D02*
D03*
X2804000D02*
D03*
X2659000D02*
D03*
X2592071D02*
D03*
X3861465Y2303000D02*
D03*
X3794535D02*
D03*
Y2382000D02*
D03*
X3861465D02*
D03*
X4202740Y2299095D02*
D03*
X4269669D02*
D03*
X4411205D02*
D03*
X4344276D02*
D03*
X4202740Y2381095D02*
D03*
X4269669D02*
D03*
X4411205D02*
D03*
X4344276D02*
D03*
X4223000Y2531000D02*
D03*
X4156071D02*
D03*
X4290000D02*
D03*
X4223071D02*
D03*
X2958535Y2881000D02*
D03*
X3025465D02*
D03*
D19*
X3378000Y2689345D02*
D03*
Y2766117D02*
D03*
X3284166Y2689345D02*
D03*
Y2766117D02*
D03*
X5130142Y1505596D02*
D03*
Y1582368D02*
D03*
X5241475Y1505596D02*
D03*
Y1582368D02*
D03*
X5018809Y1505596D02*
D03*
Y1582368D02*
D03*
X4907475D02*
D03*
Y1505596D02*
D03*
X3351000Y1478772D02*
D03*
Y1402000D02*
D03*
X3260000Y1478772D02*
D03*
Y1402000D02*
D03*
D20*
X2377613Y1658935D02*
D03*
Y1501455D02*
D03*
X2177613D02*
D03*
Y1658935D02*
D03*
D21*
X2384000Y1953000D02*
D03*
Y1773000D02*
D03*
X2184000Y1957000D02*
D03*
Y1777000D02*
D03*
D22*
X2843583Y1393000D02*
D03*
X2666417D02*
D03*
X2139000Y2767000D02*
D03*
X2316166D02*
D03*
D23*
X3262457Y2207000D02*
D03*
X3569543D02*
D03*
X3262457Y2428000D02*
D03*
X3569543D02*
D03*
D24*
X3740102Y2174488D02*
D03*
X3790102D02*
D03*
X3840102D02*
D03*
X3890102D02*
D03*
X3940102D02*
D03*
X3990102D02*
D03*
X4040102D02*
D03*
X4090102D02*
D03*
X4140102D02*
D03*
X4190102D02*
D03*
X4240102D02*
D03*
X4290102D02*
D03*
X4340102D02*
D03*
X4390102D02*
D03*
X3740102Y1485512D02*
D03*
X3790102D02*
D03*
X3840102D02*
D03*
X3890102D02*
D03*
X3940102D02*
D03*
X3990102D02*
D03*
X4040102D02*
D03*
X4090102D02*
D03*
X4140102D02*
D03*
X4190102D02*
D03*
X4240102D02*
D03*
X4290102D02*
D03*
X4340102D02*
D03*
X4390102D02*
D03*
D25*
X3690890Y1805000D02*
D03*
Y1755000D02*
D03*
Y1705000D02*
D03*
Y1655000D02*
D03*
Y1605000D02*
D03*
Y1855000D02*
D03*
Y1905000D02*
D03*
Y1955000D02*
D03*
Y2005000D02*
D03*
Y2055000D02*
D03*
D26*
X4086165Y1889055D02*
D03*
Y1944173D02*
D03*
Y1833937D02*
D03*
X4141283Y1889055D02*
D03*
Y1944173D02*
D03*
Y1833937D02*
D03*
X4031047Y1889055D02*
D03*
Y1944173D02*
D03*
Y1833937D02*
D03*
D27*
X5180000Y2514236D02*
D03*
Y2711087D02*
D03*
D28*
X4897740Y3043803D02*
D03*
X5240260D02*
D03*
D29*
X3986000Y3049921D02*
D03*
D30*
X4119858Y2668032D02*
D03*
X4052929D02*
D03*
X3986000D02*
D03*
X3919071D02*
D03*
X3852142D02*
D03*
D31*
X3050449Y2529130D02*
D03*
Y2603933D02*
D03*
Y2699130D02*
D03*
Y2773933D02*
D03*
D32*
X3141000Y2566532D02*
D03*
Y2736532D02*
D03*
D33*
X2139000Y2613583D02*
D03*
Y2436417D02*
D03*
X2306500Y2613583D02*
D03*
Y2436417D02*
D03*
X2474000Y2613583D02*
D03*
Y2436417D02*
D03*
X3988000Y2484583D02*
D03*
Y2307417D02*
D03*
D34*
X3793000Y2505748D02*
D03*
Y2490000D02*
D03*
D35*
X2194016Y1260000D02*
D03*
X2355984D02*
D03*
D36*
X2831968Y1712055D02*
D03*
D37*
Y1762055D02*
D03*
Y1812055D02*
D03*
Y1862055D02*
D03*
X2612284Y1712055D02*
D03*
Y1762055D02*
D03*
Y1812055D02*
D03*
Y1862055D02*
D03*
D38*
X2957968Y1567055D02*
D03*
Y1617055D02*
D03*
Y1667055D02*
D03*
Y1717055D02*
D03*
Y1767055D02*
D03*
Y1817055D02*
D03*
Y1867055D02*
D03*
X3161968D02*
D03*
Y1817055D02*
D03*
Y1767055D02*
D03*
Y1717055D02*
D03*
Y1667055D02*
D03*
Y1617055D02*
D03*
Y1567055D02*
D03*
D39*
X2799000Y2020000D02*
D03*
X2619000D02*
D03*
D40*
X5243309Y2098251D02*
D03*
D41*
X5193309D02*
D03*
X5143309D02*
D03*
X5093309D02*
D03*
X5043309D02*
D03*
X4993309D02*
D03*
X4943309D02*
D03*
X4893309D02*
D03*
X5243309Y1880928D02*
D03*
X5193309D02*
D03*
X5143309D02*
D03*
X5093309D02*
D03*
X5043309D02*
D03*
X4993309D02*
D03*
X4943309D02*
D03*
X4893309D02*
D03*
D42*
X4086165Y1889055D02*
Y1944173D01*
Y1833937D02*
Y1889055D01*
X4141283D01*
X4031047D02*
X4086165D01*
X3337000Y3133000D02*
X3337858Y3133858D01*
X3373000D01*
X2420994Y1592006D02*
X2576000Y1437000D01*
X2041000Y1592006D02*
X2420994D01*
X3246000Y1211000D02*
X3496000D01*
X3126000D02*
X3246000D01*
X3496000D02*
Y1342000D01*
X3421000Y3041000D02*
Y3156000D01*
Y2926000D02*
Y3041000D01*
X2843583Y1393000D02*
X2844000Y1392583D01*
Y1304000D02*
Y1392583D01*
X2904945Y1617055D02*
X2957968D01*
X2139000Y2767000D02*
X2144000Y2772000D01*
Y2942000D01*
X2685000Y2941000D02*
X2686000Y2940000D01*
X2685000Y2941000D02*
Y3097095D01*
X2771567Y3183661D01*
X2766000Y3060000D02*
X2797000Y3091000D01*
X2766000Y2676050D02*
Y3060000D01*
X2312095Y2662095D02*
X2336000Y2686000D01*
X2619000D01*
X2620000Y2687000D01*
X2673000D01*
X2674000Y2686000D01*
X2725000Y3072134D02*
X2797157Y3144291D01*
X2715000Y2637000D02*
X2725000Y2647000D01*
Y3072134D01*
X2620000Y2637000D02*
X2715000D01*
X2797000Y3091000D02*
X2890000D01*
X2917000Y3118000D01*
Y3237000D01*
X2907000Y3247000D02*
X2917000Y3237000D01*
X2838000Y3247000D02*
X2907000D01*
X2822748Y3231748D02*
X2838000Y3247000D01*
X2822748Y3183661D02*
Y3231748D01*
X3161465Y1350000D02*
Y1410000D01*
X3560817Y1511465D02*
X3595535D01*
X3619000Y1488000D01*
X3523000Y1369000D02*
X3757000D01*
X3496000Y1342000D02*
X3523000Y1369000D01*
X3094535Y1242465D02*
Y1410000D01*
Y1415906D01*
X3598768Y1553232D02*
X3827232D01*
X3875000Y1601000D02*
Y2030000D01*
X3827232Y1553232D02*
X3875000Y1601000D01*
Y2030000D02*
X3916000Y2071000D01*
X4319000D01*
X3557000Y1511465D02*
X3560817D01*
X3573240Y1523888D01*
Y1527705D02*
X3598768Y1553232D01*
X3573240Y1523888D02*
Y1527705D01*
X3291842Y2186158D02*
X3484000Y1994000D01*
Y1511465D02*
X3489905D01*
X3484000D02*
Y1994000D01*
X4319000Y2071000D02*
X4340102Y2092102D01*
Y2174488D01*
X4290000Y2531000D02*
X4290500Y2531500D01*
X4346500D02*
X4347000Y2532000D01*
X4290500Y2531500D02*
X4346500D01*
X4344276Y2340095D02*
Y2381095D01*
Y2299095D02*
Y2340095D01*
X3465000Y2101000D02*
X4273000D01*
X4290102Y2118102D02*
Y2174488D01*
Y2229898D01*
X3394000Y2172000D02*
Y2384000D01*
X4273000Y2101000D02*
X4290102Y2118102D01*
X3394000Y2172000D02*
X3465000Y2101000D01*
X4943309Y2098251D02*
Y2180309D01*
X5043309Y2098251D02*
Y2180309D01*
X5092000Y2182000D02*
X5092654Y2181345D01*
Y2098905D02*
Y2181345D01*
X4993309Y2098251D02*
Y2180309D01*
X4040102Y2174488D02*
Y2237898D01*
X3925000Y2042000D02*
X3971000D01*
X3904000Y2021000D02*
X3925000Y2042000D01*
X3904000Y1515897D02*
Y2021000D01*
X3936000Y1489614D02*
X3940102Y1485512D01*
X3936000Y1489614D02*
Y2005000D01*
X3890102Y1485512D02*
X3902819Y1498228D01*
Y1514716D01*
X3904000Y1515897D01*
X5092654Y2098905D02*
X5093309Y2098251D01*
X4190102Y1485512D02*
Y1551102D01*
X3161968Y1567055D02*
X3214945D01*
X2783055Y1712055D02*
X2831968D01*
X4240102Y1485512D02*
Y1551102D01*
X2620000Y2837000D02*
X2672000D01*
X2620000Y2787000D02*
X2672000D01*
X3687000Y2264000D02*
Y2646000D01*
X3643655Y2689345D02*
X3687000Y2646000D01*
X3378000Y2689345D02*
X3643655D01*
X3315535Y1734535D02*
X3316000Y1735000D01*
X3265000Y1734535D02*
X3315535D01*
X3840102Y2174488D02*
Y2238102D01*
X3687000Y2264000D02*
X3707000Y2244000D01*
X3784244D01*
X3790102Y2238142D01*
Y2174488D02*
Y2238142D01*
X4110000Y2382000D02*
X4140102Y2351898D01*
Y2174488D02*
Y2351898D01*
X3861465Y2382000D02*
X4110000D01*
X3757000Y1369000D02*
X3790102Y1402102D01*
Y1485512D01*
X3370126Y2916929D02*
X3411929D01*
X3292040D02*
X3370126D01*
Y2773991D02*
Y2850000D01*
Y2773991D02*
X3378000Y2766117D01*
X3284166D02*
X3292040Y2773991D01*
Y2850000D01*
X3350000Y2428000D02*
X3394000Y2384000D01*
X3262457Y2428000D02*
X3350000D01*
X3269177Y2207000D02*
X3290019Y2186158D01*
X3291842D01*
X3190000Y2207000D02*
X3269177D01*
X2532000Y2806000D02*
X2551000Y2787000D01*
X2620000D01*
X2532000Y2806000D02*
Y3056000D01*
X3421000Y3156000D02*
X3436260Y3171260D01*
X3475362D01*
X2780000Y1863000D02*
X2780945Y1862055D01*
X2831968D01*
X2460000Y3128000D02*
X2532000Y3056000D01*
X2460000Y3128000D02*
Y3177000D01*
X2552000Y3169000D02*
X2560000Y3177000D01*
X2552000Y2842858D02*
Y3169000D01*
Y2842858D02*
X2557858Y2837000D01*
X2620000D01*
X3072000Y2826000D02*
X3096000Y2802000D01*
X2929000Y2826000D02*
X3072000D01*
X2890000Y2787000D02*
X2929000Y2826000D01*
X3208000Y2442000D02*
X3222000Y2428000D01*
X3262457D01*
X3208000Y2442000D02*
Y2708000D01*
X3179468Y2736532D02*
X3208000Y2708000D01*
X3141000Y2736532D02*
X3179468D01*
X3141000Y2256000D02*
X3190000Y2207000D01*
X3141000Y2256000D02*
Y2566532D01*
X3089945Y1667055D02*
X3208055D01*
X3081000Y1676000D02*
Y1838000D01*
Y1676000D02*
X3089945Y1667055D01*
X3837000Y1482409D02*
X3840102Y1485512D01*
X3837000Y1415102D02*
Y1482409D01*
X3990102Y1415102D02*
Y1485512D01*
X4039000Y1418000D02*
Y1484409D01*
X4040102Y1485512D01*
X4140000Y1421000D02*
Y1485409D01*
X4140102Y1485512D01*
X5092691Y1817000D02*
X5093000Y1817309D01*
X5044654Y1818345D02*
X5046000Y1817000D01*
X4994654Y1818345D02*
X4996000Y1817000D01*
X4944654Y1818345D02*
X4946000Y1817000D01*
X4943309Y1880928D02*
X4944654Y1879583D01*
X5043309Y1880928D02*
X5044654Y1879583D01*
X4993309Y1880928D02*
X4994654Y1879583D01*
X5093000Y1880619D02*
X5093309Y1880928D01*
X4119697Y2667870D02*
X4119858Y2668032D01*
X3557000Y1444535D02*
X3710937D01*
X3740102Y1473701D01*
X3553183Y1444535D02*
X3557000D01*
X4992313Y1600925D02*
X5010869Y1582368D01*
X4968650Y1624587D02*
Y1690000D01*
X4992313Y1600925D02*
Y1600925D01*
X4968650Y1624587D02*
X4992313Y1600925D01*
X5010869Y1582368D02*
X5018809D01*
X5044287Y1659713D02*
X5121632Y1582368D01*
X5044287Y1659713D02*
Y1689538D01*
X5121632Y1582368D02*
X5130142D01*
X5040825Y1693000D02*
X5044287Y1689538D01*
X5241475Y1582368D02*
Y1664525D01*
X5211465Y1694535D02*
X5241475Y1664525D01*
X5113000Y1694535D02*
X5211465D01*
X4896475Y1593368D02*
Y1690903D01*
Y1593368D02*
X4907475Y1582368D01*
X4899577Y1690903D02*
X4912000Y1678481D01*
X4896475Y1690903D02*
X4899577D01*
X2139000Y2613583D02*
Y2767000D01*
X2624113Y2532887D02*
X2652740D01*
X2620000Y2537000D02*
X2624113Y2532887D01*
X2652740D02*
X2659000Y2526627D01*
Y2329000D02*
Y2526627D01*
X4202740Y2259260D02*
Y2299095D01*
Y2259260D02*
X4223000Y2239000D01*
X4281000D01*
X4290102Y2229898D01*
X4344276Y2178661D02*
Y2299095D01*
X4340102Y2174488D02*
X4344276Y2178661D01*
X4269669Y2299095D02*
X4344276D01*
X4269669Y2373559D02*
Y2381095D01*
X4202740Y2306630D02*
X4269669Y2373559D01*
X4202740Y2299095D02*
Y2306630D01*
X3050449Y2481551D02*
Y2529130D01*
Y2699130D02*
X3057141Y2705822D01*
X3073822D02*
X3096000Y2728000D01*
Y2802000D01*
X3057141Y2705822D02*
X3073822D01*
X3050036Y2699130D02*
X3050449D01*
X2837323Y2787000D02*
X2890000D01*
X2968234Y2771699D02*
X3048215D01*
X3050449Y2773933D01*
X2966000Y2769465D02*
X2968234Y2771699D01*
X2971905Y2532535D02*
X3034329Y2594959D01*
X3041475D01*
X2966000Y2532535D02*
X2971905D01*
X3041475Y2594959D02*
X3050449Y2603933D01*
X2977073Y2625754D02*
X3039506Y2688188D01*
X2977073Y2610537D02*
Y2625754D01*
X2966000Y2599465D02*
X2977073Y2610537D01*
X3039506Y2688601D02*
X3050036Y2699130D01*
X3039506Y2688188D02*
Y2688601D01*
X2837323Y2737000D02*
X2888000D01*
X2922465Y2702535D02*
X2966000D01*
X2888000Y2737000D02*
X2922465Y2702535D01*
X3740102Y1473701D02*
Y1485512D01*
X3540760Y1456958D02*
Y1460610D01*
X3489905Y1511465D02*
X3540760Y1460610D01*
Y1456958D02*
X3553183Y1444535D01*
X3094535Y1242465D02*
X3126000Y1211000D01*
X3144933Y1466303D02*
X3149042D01*
X3161465Y1478726D01*
Y1482543D01*
X3094535Y1415906D02*
X3144933Y1466303D01*
X3048000Y1638000D02*
Y1702000D01*
X3068945Y1617055D02*
X3161968D01*
X3048000Y1638000D02*
X3068945Y1617055D01*
X2957968Y1717055D02*
X3032945D01*
X3048000Y1702000D01*
X3051945Y1867055D02*
X3081000Y1838000D01*
X2957968Y1867055D02*
X3051945D01*
X2640000Y1656000D02*
X2712000D01*
X2722000Y1666000D02*
Y1700000D01*
X2712000Y1656000D02*
X2722000Y1666000D01*
X2734055Y1712055D02*
X2783055D01*
X2722000Y1700000D02*
X2734055Y1712055D01*
X2627000Y1643000D02*
X2640000Y1656000D01*
X2627000Y1598520D02*
Y1643000D01*
X2666417Y1469417D02*
X2667000Y1470000D01*
X2666417Y1393000D02*
Y1469417D01*
X2772968Y1598520D02*
Y1639968D01*
Y1463614D02*
X2843583Y1393000D01*
X2772968Y1463614D02*
Y1531591D01*
X2700356D02*
X2772968D01*
X3210055Y1717055D02*
X3227535Y1734535D01*
X3265000D01*
X3161968Y1717055D02*
X3210055D01*
X3208055Y1667055D02*
X3229000Y1688000D01*
X3334000D02*
X3343126Y1678874D01*
X3229000Y1688000D02*
X3334000D01*
X3343126Y1486646D02*
X3351000Y1478772D01*
X3343126Y1486646D02*
Y1566386D01*
X3260000Y1478772D02*
X3267874Y1486646D01*
Y1566386D01*
X3343126Y1633315D02*
Y1678874D01*
X3161968Y1617055D02*
X3243621D01*
X3259880Y1633315D01*
X3267874D01*
X2902945Y1667055D02*
X2957968D01*
X2891000Y1679000D02*
X2902945Y1667055D01*
X2891000Y1679000D02*
Y1742000D01*
X2875058Y1757942D02*
X2891000Y1742000D01*
X2831968Y1762055D02*
X2836081Y1757942D01*
X2875058D01*
X2957996Y1817027D02*
X3013972D01*
X3014000Y1817000D01*
X2957968Y1817055D02*
X2957996Y1817027D01*
X2831968Y1762055D02*
Y1812055D01*
X2895000Y1787000D02*
X2914945Y1767055D01*
X2957968D01*
X2895000Y1787000D02*
Y1844000D01*
X2878465Y1860535D02*
X2895000Y1844000D01*
X2833488Y1860535D02*
X2878465D01*
X2831968Y1862055D02*
X2833488Y1860535D01*
X2737071Y2324929D02*
Y2436417D01*
Y2324929D02*
X2796000Y2266000D01*
X2596000D02*
X2659000Y2329000D01*
X2737071Y2436417D02*
Y2561929D01*
X2712000Y2587000D02*
X2737071Y2561929D01*
X2620000Y2587000D02*
X2712000D01*
X2474000Y2613583D02*
X2493304Y2632887D01*
X2615887D02*
X2620000Y2637000D01*
X2493304Y2632887D02*
X2615887D01*
X2312095Y2619178D02*
Y2662095D01*
X2306500Y2613583D02*
X2312095Y2619178D01*
X2139000Y2613583D02*
X2139000Y2613583D01*
X3861465Y2303000D02*
Y2382000D01*
X3792880Y2383656D02*
X3794535Y2382000D01*
X4223071Y2531000D02*
Y2622929D01*
X4177968Y2668032D02*
X4223071Y2622929D01*
X4119858Y2668032D02*
X4177968D01*
X4223071Y2531000D02*
X4223232Y2531161D01*
X4492000Y2725150D02*
X4508567Y2708583D01*
X3475362Y3171260D02*
X3551535D01*
X3551535Y3171260D01*
X3475362Y3096457D02*
X3551535D01*
X3289465D02*
X3373000D01*
D43*
X2576000Y1437000D02*
Y1554000D01*
Y1254000D02*
Y1437000D01*
X2957968Y1183000D02*
Y1567055D01*
Y975032D02*
Y1183000D01*
X2613000Y1217000D02*
X2923968D01*
X2957968Y1183000D01*
X2576000Y1254000D02*
X2613000Y1217000D01*
X3394535Y1801465D02*
X3425000Y1771000D01*
Y1289000D02*
Y1771000D01*
X3265000Y1801465D02*
X3394535D01*
X4836000Y2413000D02*
Y2413000D01*
X4762000Y2339000D02*
X4836000Y2413000D01*
X4762000Y1902000D02*
Y2339000D01*
X4784655Y1879345D02*
X4894892D01*
X4762000Y1902000D02*
X4784655Y1879345D01*
X2835000Y2997000D02*
X2837323Y2994677D01*
Y2887000D02*
Y2994677D01*
X2316166Y2999834D02*
X2316331Y3000000D01*
X2316166Y2767000D02*
Y2999834D01*
X2957968Y975032D02*
X3032000Y901000D01*
Y896000D02*
Y901000D01*
X3778810Y2513937D02*
X3801189D01*
X3289465Y3171260D02*
X3373000D01*
X3234189Y3110079D02*
X3289465Y3165354D01*
Y3171260D02*
X3289465Y3171260D01*
X3801189Y2513937D02*
X3852142Y2564890D01*
Y2668032D01*
X3222535Y3102362D02*
X3230252Y3110079D01*
X3234189D01*
X3222535Y3096457D02*
Y3102362D01*
X3289465Y3165354D02*
Y3171260D01*
X5138338Y1742000D02*
X5537000D01*
X4898291Y1759649D02*
X5111184D01*
X5118905Y1761465D02*
X5126622Y1753748D01*
X5113000Y1761465D02*
X5118905D01*
X5126622Y1753716D02*
Y1753748D01*
Y1753716D02*
X5138338Y1742000D01*
X4894892Y1759416D02*
Y1879345D01*
Y1759416D02*
X4896475Y1757833D01*
X2355984Y1171016D02*
X2419000Y1108000D01*
X2355984Y1171016D02*
Y1260000D01*
X2419000Y1108000D02*
X2575000D01*
X2632000Y1051000D01*
Y896000D02*
Y1051000D01*
X2204016Y1260000D02*
Y1291535D01*
X2314000Y896000D02*
X2432000D01*
X2194016Y1015984D02*
X2314000Y896000D01*
X2194016Y1015984D02*
Y1260000D01*
X2165071Y1330480D02*
Y1389000D01*
Y1488913D01*
X2177613Y1501455D01*
X2385000Y1330551D02*
Y1494068D01*
X2377613Y1501455D02*
X2385000Y1494068D01*
X3265500Y1801965D02*
Y1881571D01*
X3266000Y1882071D01*
X3265000Y1801465D02*
X3265500Y1801965D01*
X2576000Y1554000D02*
Y1688409D01*
X2599646Y1712055D01*
X2622007Y1536583D02*
X2627000Y1531591D01*
X2593417Y1536583D02*
X2622007D01*
X2576000Y1554000D02*
X2593417Y1536583D01*
X2599646Y1712055D02*
X2612284D01*
X2923575Y1531591D02*
X2935291Y1543306D01*
X2847968Y1531591D02*
X2923575D01*
X2935291Y1543306D02*
Y1566555D01*
X2935791Y1567055D01*
X2957968D01*
X2165071Y1330480D02*
X2204016Y1291535D01*
X2365984Y1286011D02*
Y1311535D01*
X2385000Y1330551D01*
X2495000Y1973000D02*
X2542000Y2020000D01*
X2495000Y1852000D02*
Y1973000D01*
X2489000Y1858000D02*
X2534945Y1812055D01*
X3846000Y1365000D02*
X4872000D01*
X4907475Y1400476D02*
Y1505596D01*
X3780000Y1299000D02*
X3846000Y1365000D01*
X5093000Y1817309D02*
Y1880619D01*
X5111184Y1759649D02*
X5113000Y1761465D01*
X4896475Y1757833D02*
X4898291Y1759649D01*
X5241475Y1430000D02*
Y1505596D01*
Y1374525D02*
Y1430000D01*
X5130142Y1432000D02*
Y1505596D01*
Y1379142D02*
Y1432000D01*
X5018809Y1391809D02*
Y1505596D01*
X4994654Y1818345D02*
Y1879583D01*
X5044654Y1818345D02*
Y1879583D01*
X4944654Y1818345D02*
Y1879583D01*
X2837323Y2887000D02*
X2839522Y2884800D01*
X2954735D01*
X2958535Y2881000D01*
X2445558Y2767000D02*
X2456000Y2777442D01*
X2316166Y2767000D02*
X2445558D01*
X2728000Y1943094D02*
X2799000Y2014094D01*
Y2020000D01*
X2728000Y1784000D02*
Y1943094D01*
X2706055Y1762055D02*
X2728000Y1784000D01*
X2612284Y1762055D02*
X2706055D01*
X2542000Y2020000D02*
X2619000D01*
X5330000Y475732D02*
Y1286000D01*
X5241475Y1374525D02*
X5330000Y1286000D01*
X4955000Y1328000D02*
X5018809Y1391809D01*
X4227000Y1328000D02*
X4955000D01*
X4178000Y1279000D02*
X4227000Y1328000D01*
X5209850Y355583D02*
X5330000Y475732D01*
X5042000Y1291000D02*
X5130142Y1379142D01*
X4633000Y1291000D02*
X5042000D01*
X4589000Y1247000D02*
X4633000Y1291000D01*
X4589000Y467433D02*
Y1247000D01*
Y467433D02*
X4700850Y355583D01*
X4178000Y935000D02*
Y1279000D01*
X4066000Y475433D02*
Y823000D01*
Y475433D02*
X4185850Y355583D01*
X4066000Y823000D02*
X4178000Y935000D01*
X3536000Y494433D02*
Y779000D01*
X3780000Y1023000D02*
Y1299000D01*
X3536000Y779000D02*
X3780000Y1023000D01*
X3536000Y494433D02*
X3674850Y355583D01*
X4872000Y1365000D02*
X4907475Y1400476D01*
X2184000Y1777000D02*
Y1838000D01*
X2204000Y1858000D02*
X2489000D01*
X2184000Y1838000D02*
X2204000Y1858000D01*
X2534945Y1812055D02*
X2612284D01*
X2394945Y1762055D02*
X2612284D01*
X2384000Y1773000D02*
X2394945Y1762055D01*
X2232000Y1389000D02*
X2321000D01*
X2389000Y1658935D02*
X2518000D01*
X2384000Y1663935D02*
Y1773000D01*
Y1663935D02*
X2389000Y1658935D01*
X2041000D02*
X2177613D01*
X2184000Y1665323D01*
Y1777000D01*
X3792880Y2383656D02*
Y2481126D01*
D44*
X4102000Y2450000D02*
X4798301D01*
X4821732Y2473432D02*
Y2504709D01*
X4798301Y2450000D02*
X4821732Y2473432D01*
Y2504709D02*
X4846024Y2529000D01*
X4910000D01*
X3373000Y3241284D02*
X3677568D01*
X3701000Y2835000D02*
Y3217853D01*
X3677568Y3241284D02*
X3701000Y3217853D01*
X3852142Y2668032D02*
Y2775858D01*
X3728000Y2808000D02*
X3820000D01*
X3852142Y2775858D01*
X3701000Y2835000D02*
X3728000Y2808000D01*
X4088000Y2464000D02*
Y2545000D01*
Y2464000D02*
X4102000Y2450000D01*
X4054306Y2578694D02*
Y2666655D01*
Y2578694D02*
X4088000Y2545000D01*
X4052929Y2668032D02*
X4054306Y2666655D01*
X4910000Y2529000D02*
X4924764Y2514236D01*
X5180000D01*
X3919071Y2553512D02*
Y2668032D01*
Y2553512D02*
X3988000Y2484583D01*
X3942502Y2801000D02*
X4232000D01*
X3988000Y2484583D02*
X3994417Y2491000D01*
X4286000Y2855000D02*
Y3047000D01*
X4232000Y2801000D02*
X4286000Y2855000D01*
Y3047000D02*
X4345195Y3106195D01*
X4479345D01*
X4492000Y3118850D01*
X3919071Y2668032D02*
Y2777568D01*
X3942502Y2801000D01*
X4508567Y2708583D02*
X4897740D01*
Y3043803D01*
D45*
X1174000Y639863D02*
X1551000Y262863D01*
X1174000Y639863D02*
Y2750099D01*
X791157Y3132942D02*
X1174000Y2750099D01*
X506000Y392000D02*
Y1416000D01*
X635137Y262863D02*
X791157D01*
X506000Y392000D02*
X635137Y262863D01*
X403231Y1518769D02*
X506000Y1416000D01*
X192000Y1518769D02*
X403231D01*
D46*
X5419432Y3238060D02*
G03*
X5360377Y3297115I-59055J0D01*
G01*
X5360377Y110973D02*
G03*
X5419432Y170029I0J59055D01*
G01*
X5619117Y896721D02*
G03*
X5678172Y955777I0J59055D01*
G01*
X5678172Y2452320D02*
G03*
X5619117Y2511375I-59055J0D01*
G01*
X5419432Y2590115D02*
G03*
X5498172Y2511375I78740J0D01*
G01*
X5498172Y896721D02*
G03*
X5419432Y817981I0J-78740D01*
G01*
X301322D02*
G03*
X222582Y896721I-78740J0D01*
G01*
X222581Y2511375D02*
G03*
X301321Y2590115I0J78740D01*
G01*
X101636Y2511375D02*
G03*
X42581Y2452320I0J-59055D01*
G01*
X42581Y955777D02*
G03*
X101637Y896721I59055J0D01*
G01*
X301322Y170029D02*
G03*
X360377Y110973I59055J0D01*
G01*
X360377Y3297115D02*
G03*
X301321Y3238060I0J-59055D01*
G01*
X5419432Y2590115D02*
Y3238060D01*
X360377Y110973D02*
X5360377D01*
X360377Y3297115D02*
X5360377D01*
X5419432Y170029D02*
Y817981D01*
X5498172Y2511375D02*
X5619117D01*
X5498172Y896721D02*
X5619117D01*
X5678172Y955777D02*
X5678172Y2451840D01*
X42581D02*
X42581Y955777D01*
X101637Y896721D02*
X222582D01*
X101636Y2511375D02*
X222581D01*
X301321Y2590115D02*
Y3238060D01*
X301322Y170029D02*
Y817981D01*
D47*
X192000Y1518769D02*
D03*
Y1703808D02*
D03*
Y1888848D02*
D03*
D48*
X791157Y2798690D02*
D03*
X1551000D02*
D03*
X791157Y608926D02*
D03*
X1551000D02*
D03*
D49*
Y262863D02*
D03*
Y3132942D02*
D03*
X791157D02*
D03*
Y262863D02*
D03*
D50*
X3032000Y896000D02*
D03*
X2632000D02*
D03*
X3032000Y367000D02*
D03*
X2632000D02*
D03*
X5089000Y1171000D02*
D03*
X4688500D02*
D03*
X4288000D02*
D03*
X3887500D02*
D03*
D51*
X2832000Y896000D02*
D03*
X2432000D02*
D03*
X2832000Y367000D02*
D03*
X2432000D02*
D03*
X4889000Y1171000D02*
D03*
X4488500D02*
D03*
X4088000D02*
D03*
X3687500D02*
D03*
D52*
X5209850Y757158D02*
D03*
X4816150D02*
D03*
Y355583D02*
D03*
X5209850D02*
D03*
X4700850Y757158D02*
D03*
X4307150D02*
D03*
Y355583D02*
D03*
X4700850D02*
D03*
X4185850Y757158D02*
D03*
X3792150D02*
D03*
Y355583D02*
D03*
X4185850D02*
D03*
X3674850Y757158D02*
D03*
X3281150D02*
D03*
Y355583D02*
D03*
X3674850D02*
D03*
D53*
X5013000Y257158D02*
D03*
X4504000D02*
D03*
X3989000D02*
D03*
X3478000D02*
D03*
D54*
X2260000Y3177000D02*
D03*
D55*
X2360000D02*
D03*
X2460000D02*
D03*
X2560000D02*
D03*
X2796000Y2266000D02*
D03*
X2596000D02*
D03*
D56*
X2963496Y3175000D02*
D03*
X2682000D02*
D03*
D57*
X2873929Y3183661D02*
D03*
X2848339Y3144291D02*
D03*
X2822748Y3183661D02*
D03*
X2797157Y3144291D02*
D03*
X2771567Y3183661D02*
D03*
D58*
X3246000Y1211000D02*
D03*
X3247000Y1033000D02*
D03*
X3497000Y1034000D02*
D03*
X3496000Y1211000D02*
D03*
D59*
X5537000Y1584520D02*
D03*
D60*
Y1663260D02*
D03*
Y1742000D02*
D03*
Y1820740D02*
D03*
D61*
X3072000Y981000D02*
D03*
X3222000Y1131000D02*
D03*
X3072000D02*
D03*
X5472000Y2481000D02*
D03*
Y2031000D02*
D03*
Y1881000D02*
D03*
Y1581000D02*
D03*
Y1431000D02*
D03*
Y1281000D02*
D03*
Y981000D02*
D03*
X5322000Y2931000D02*
D03*
Y2781000D02*
D03*
Y2631000D02*
D03*
Y2481000D02*
D03*
Y2331000D02*
D03*
Y2181000D02*
D03*
Y2031000D02*
D03*
Y1881000D02*
D03*
X5172000Y2931000D02*
D03*
Y2331000D02*
D03*
Y2031000D02*
D03*
Y1431000D02*
D03*
Y1281000D02*
D03*
Y681000D02*
D03*
Y531000D02*
D03*
Y231000D02*
D03*
X5022000Y3081000D02*
D03*
Y2931000D02*
D03*
Y2781000D02*
D03*
Y2631000D02*
D03*
Y2331000D02*
D03*
Y2031000D02*
D03*
Y981000D02*
D03*
X4872000Y2631000D02*
D03*
Y2331000D02*
D03*
Y1431000D02*
D03*
Y831000D02*
D03*
Y681000D02*
D03*
Y531000D02*
D03*
Y381000D02*
D03*
Y231000D02*
D03*
X4722000Y3081000D02*
D03*
Y2931000D02*
D03*
Y2781000D02*
D03*
Y2631000D02*
D03*
Y2331000D02*
D03*
Y2031000D02*
D03*
Y1881000D02*
D03*
Y1731000D02*
D03*
Y1581000D02*
D03*
Y681000D02*
D03*
Y531000D02*
D03*
Y231000D02*
D03*
X4572000Y2931000D02*
D03*
Y2331000D02*
D03*
Y2031000D02*
D03*
Y1881000D02*
D03*
Y1731000D02*
D03*
Y1581000D02*
D03*
Y1281000D02*
D03*
Y381000D02*
D03*
Y231000D02*
D03*
X4422000Y2931000D02*
D03*
Y2031000D02*
D03*
Y1881000D02*
D03*
Y1731000D02*
D03*
Y1581000D02*
D03*
Y1281000D02*
D03*
Y981000D02*
D03*
Y831000D02*
D03*
Y681000D02*
D03*
Y381000D02*
D03*
Y231000D02*
D03*
X4272000Y2781000D02*
D03*
Y2631000D02*
D03*
Y2031000D02*
D03*
Y1881000D02*
D03*
Y1731000D02*
D03*
Y1581000D02*
D03*
Y1281000D02*
D03*
Y831000D02*
D03*
Y681000D02*
D03*
Y531000D02*
D03*
Y231000D02*
D03*
X4122000Y2031000D02*
D03*
Y1731000D02*
D03*
Y1581000D02*
D03*
Y1281000D02*
D03*
Y981000D02*
D03*
Y831000D02*
D03*
Y681000D02*
D03*
Y231000D02*
D03*
X3972000Y1881000D02*
D03*
Y1731000D02*
D03*
Y1581000D02*
D03*
Y1281000D02*
D03*
Y1131000D02*
D03*
Y981000D02*
D03*
X3822000Y1281000D02*
D03*
Y831000D02*
D03*
Y681000D02*
D03*
Y531000D02*
D03*
X3672000Y2781000D02*
D03*
Y2181000D02*
D03*
Y1281000D02*
D03*
Y681000D02*
D03*
Y531000D02*
D03*
Y231000D02*
D03*
X3522000Y2031000D02*
D03*
Y1881000D02*
D03*
Y1581000D02*
D03*
Y1281000D02*
D03*
Y1131000D02*
D03*
Y981000D02*
D03*
Y381000D02*
D03*
X3372000Y2631000D02*
D03*
Y2481000D02*
D03*
Y2031000D02*
D03*
Y1881000D02*
D03*
Y1131000D02*
D03*
Y981000D02*
D03*
Y831000D02*
D03*
Y681000D02*
D03*
Y381000D02*
D03*
Y231000D02*
D03*
X3222000Y2931000D02*
D03*
Y2781000D02*
D03*
Y2331000D02*
D03*
Y2031000D02*
D03*
Y981000D02*
D03*
Y831000D02*
D03*
Y681000D02*
D03*
Y531000D02*
D03*
Y381000D02*
D03*
Y231000D02*
D03*
X3072000Y3081000D02*
D03*
Y2931000D02*
D03*
Y2331000D02*
D03*
Y2181000D02*
D03*
Y2031000D02*
D03*
Y1581000D02*
D03*
Y681000D02*
D03*
Y531000D02*
D03*
Y231000D02*
D03*
X2922000Y3081000D02*
D03*
Y2931000D02*
D03*
Y2631000D02*
D03*
Y2481000D02*
D03*
Y2331000D02*
D03*
Y2181000D02*
D03*
Y2031000D02*
D03*
Y1431000D02*
D03*
Y1281000D02*
D03*
Y1131000D02*
D03*
Y981000D02*
D03*
Y831000D02*
D03*
Y681000D02*
D03*
Y531000D02*
D03*
Y381000D02*
D03*
Y231000D02*
D03*
X2772000Y2631000D02*
D03*
Y2481000D02*
D03*
Y2331000D02*
D03*
Y2181000D02*
D03*
Y1281000D02*
D03*
Y1131000D02*
D03*
Y981000D02*
D03*
Y831000D02*
D03*
Y681000D02*
D03*
Y531000D02*
D03*
Y231000D02*
D03*
X2622000Y3081000D02*
D03*
Y2481000D02*
D03*
Y2331000D02*
D03*
Y2181000D02*
D03*
Y1281000D02*
D03*
Y1131000D02*
D03*
Y681000D02*
D03*
Y531000D02*
D03*
Y231000D02*
D03*
X2472000Y2331000D02*
D03*
Y2181000D02*
D03*
Y2031000D02*
D03*
Y1581000D02*
D03*
Y1431000D02*
D03*
Y1281000D02*
D03*
Y981000D02*
D03*
Y681000D02*
D03*
Y531000D02*
D03*
Y231000D02*
D03*
X2322000Y3081000D02*
D03*
Y2331000D02*
D03*
Y2181000D02*
D03*
Y2031000D02*
D03*
Y1731000D02*
D03*
Y1131000D02*
D03*
Y981000D02*
D03*
Y831000D02*
D03*
Y681000D02*
D03*
Y531000D02*
D03*
Y231000D02*
D03*
X2172000Y3081000D02*
D03*
Y2331000D02*
D03*
Y2181000D02*
D03*
Y2031000D02*
D03*
Y1881000D02*
D03*
Y981000D02*
D03*
Y831000D02*
D03*
Y681000D02*
D03*
Y531000D02*
D03*
Y231000D02*
D03*
X2022000Y3081000D02*
D03*
Y2931000D02*
D03*
Y2781000D02*
D03*
Y2631000D02*
D03*
Y2481000D02*
D03*
Y2331000D02*
D03*
Y2181000D02*
D03*
Y2031000D02*
D03*
Y1881000D02*
D03*
Y1731000D02*
D03*
Y1431000D02*
D03*
Y1281000D02*
D03*
Y1131000D02*
D03*
Y981000D02*
D03*
Y831000D02*
D03*
Y681000D02*
D03*
Y531000D02*
D03*
Y231000D02*
D03*
X1872000D02*
D03*
X1722000Y3081000D02*
D03*
Y2931000D02*
D03*
Y2781000D02*
D03*
Y2631000D02*
D03*
Y2481000D02*
D03*
Y2331000D02*
D03*
Y2181000D02*
D03*
Y2031000D02*
D03*
Y1881000D02*
D03*
Y1581000D02*
D03*
Y1431000D02*
D03*
Y1281000D02*
D03*
Y1131000D02*
D03*
Y981000D02*
D03*
Y831000D02*
D03*
Y681000D02*
D03*
Y531000D02*
D03*
Y381000D02*
D03*
Y231000D02*
D03*
X1572000Y2931000D02*
D03*
Y2631000D02*
D03*
Y2481000D02*
D03*
Y2331000D02*
D03*
Y2181000D02*
D03*
Y2031000D02*
D03*
Y1881000D02*
D03*
Y1581000D02*
D03*
Y1431000D02*
D03*
Y1281000D02*
D03*
Y1131000D02*
D03*
Y981000D02*
D03*
Y831000D02*
D03*
Y381000D02*
D03*
X1422000Y3081000D02*
D03*
Y2931000D02*
D03*
Y2781000D02*
D03*
Y2631000D02*
D03*
Y2481000D02*
D03*
Y2331000D02*
D03*
Y2181000D02*
D03*
Y2031000D02*
D03*
Y1881000D02*
D03*
Y1581000D02*
D03*
Y1431000D02*
D03*
Y1281000D02*
D03*
Y1131000D02*
D03*
Y981000D02*
D03*
Y831000D02*
D03*
Y681000D02*
D03*
Y531000D02*
D03*
Y231000D02*
D03*
X1272000Y3081000D02*
D03*
Y2931000D02*
D03*
Y2781000D02*
D03*
Y2631000D02*
D03*
Y2481000D02*
D03*
Y2331000D02*
D03*
Y2181000D02*
D03*
Y2031000D02*
D03*
Y1881000D02*
D03*
Y1581000D02*
D03*
Y1431000D02*
D03*
Y1281000D02*
D03*
Y1131000D02*
D03*
Y981000D02*
D03*
Y831000D02*
D03*
Y681000D02*
D03*
Y381000D02*
D03*
Y231000D02*
D03*
X1122000Y3081000D02*
D03*
Y2931000D02*
D03*
Y531000D02*
D03*
Y381000D02*
D03*
Y231000D02*
D03*
X972000Y3081000D02*
D03*
Y2781000D02*
D03*
Y2631000D02*
D03*
Y2481000D02*
D03*
Y2331000D02*
D03*
Y2181000D02*
D03*
Y2031000D02*
D03*
Y1881000D02*
D03*
Y1581000D02*
D03*
Y1431000D02*
D03*
Y1281000D02*
D03*
Y1131000D02*
D03*
Y981000D02*
D03*
Y831000D02*
D03*
Y681000D02*
D03*
Y531000D02*
D03*
Y381000D02*
D03*
Y231000D02*
D03*
X822000Y2931000D02*
D03*
Y2631000D02*
D03*
Y2481000D02*
D03*
Y2331000D02*
D03*
Y2181000D02*
D03*
Y2031000D02*
D03*
Y1881000D02*
D03*
Y1581000D02*
D03*
Y1431000D02*
D03*
Y1281000D02*
D03*
Y1131000D02*
D03*
Y981000D02*
D03*
Y831000D02*
D03*
Y531000D02*
D03*
Y381000D02*
D03*
X672000Y3081000D02*
D03*
Y2931000D02*
D03*
Y2781000D02*
D03*
Y2631000D02*
D03*
Y2481000D02*
D03*
Y2331000D02*
D03*
Y2181000D02*
D03*
Y2031000D02*
D03*
Y1881000D02*
D03*
Y1581000D02*
D03*
Y1431000D02*
D03*
Y1281000D02*
D03*
Y1131000D02*
D03*
Y981000D02*
D03*
Y831000D02*
D03*
Y681000D02*
D03*
Y531000D02*
D03*
Y381000D02*
D03*
X522000Y3081000D02*
D03*
Y2931000D02*
D03*
Y2781000D02*
D03*
Y2631000D02*
D03*
Y2481000D02*
D03*
Y2331000D02*
D03*
Y2181000D02*
D03*
Y2031000D02*
D03*
Y1881000D02*
D03*
Y1581000D02*
D03*
Y231000D02*
D03*
X372000Y3081000D02*
D03*
Y2931000D02*
D03*
Y2781000D02*
D03*
Y2631000D02*
D03*
Y2481000D02*
D03*
Y2331000D02*
D03*
Y2181000D02*
D03*
Y2031000D02*
D03*
Y1881000D02*
D03*
Y1431000D02*
D03*
Y1281000D02*
D03*
Y1131000D02*
D03*
Y981000D02*
D03*
Y831000D02*
D03*
Y681000D02*
D03*
Y531000D02*
D03*
Y381000D02*
D03*
Y231000D02*
D03*
X222000Y2481000D02*
D03*
Y2031000D02*
D03*
Y1431000D02*
D03*
Y1281000D02*
D03*
Y981000D02*
D03*
X72000Y2331000D02*
D03*
Y2181000D02*
D03*
Y2031000D02*
D03*
Y1881000D02*
D03*
Y1731000D02*
D03*
Y1581000D02*
D03*
Y1431000D02*
D03*
Y1281000D02*
D03*
Y1131000D02*
D03*
Y981000D02*
D03*
X3337000Y3133000D02*
D03*
X4979000Y2411000D02*
D03*
X4907500Y2412000D02*
D03*
X4836000Y2413000D02*
D03*
X4908000Y2484000D02*
D03*
X4979500Y2483000D02*
D03*
X4978500Y2546000D02*
D03*
X4907000Y2547000D02*
D03*
X4835500Y2548000D02*
D03*
X4836500Y2485000D02*
D03*
X3425000Y1289000D02*
D03*
X3421000Y3041000D02*
D03*
X4122000Y2447000D02*
D03*
X2835000Y2997000D02*
D03*
X2316331Y3000000D02*
D03*
X2844000Y1304000D02*
D03*
X2904945Y1617055D02*
D03*
X2144000Y2942000D02*
D03*
X2686000Y2940000D02*
D03*
X2766000Y2686000D02*
D03*
X2674000D02*
D03*
X3163000Y1350000D02*
D03*
X3619000Y1488000D02*
D03*
X3417710Y2920390D02*
D03*
X3387000Y3173000D02*
D03*
Y3200342D02*
D03*
X4347000Y2532000D02*
D03*
X4344276Y2340095D02*
D03*
X4943309Y2180309D02*
D03*
X4993309D02*
D03*
X5092000Y2182000D02*
D03*
X5043309Y2180309D02*
D03*
X4040102Y2237898D02*
D03*
X3936000Y2005000D02*
D03*
X3971000Y2042000D02*
D03*
X3360000Y3184000D02*
D03*
Y3210500D02*
D03*
X3387000Y3227683D02*
D03*
X3360000Y3237000D02*
D03*
X4190102Y1551102D02*
D03*
X3214945Y1567055D02*
D03*
X2783055Y1712055D02*
D03*
X4240102Y1551102D02*
D03*
X2672000Y2837000D02*
D03*
Y2787000D02*
D03*
X3316000Y1735000D02*
D03*
X3840102Y2238102D02*
D03*
X2780000Y1863000D02*
D03*
X3837000Y1415102D02*
D03*
X3990102D02*
D03*
X4140000Y1421000D02*
D03*
X4039000Y1418000D02*
D03*
X5092691Y1817000D02*
D03*
X5241475Y1430000D02*
D03*
X5130142Y1432000D02*
D03*
X5020000Y1434000D02*
D03*
X4907000Y1435000D02*
D03*
X5046000Y1817000D02*
D03*
X4946000D02*
D03*
X4996000D02*
D03*
X2922465Y2702535D02*
D03*
X3050449Y2481551D02*
D03*
X2667000Y1470000D02*
D03*
X2772968Y1639968D02*
D03*
X3014000Y1817000D02*
D03*
X287821Y1046801D02*
D03*
X155821D02*
D03*
X156821Y1178801D02*
D03*
X288821Y1179801D02*
D03*
X222591Y1019505D02*
D03*
Y1206801D02*
D03*
X128821Y1114801D02*
D03*
X315821Y1113801D02*
D03*
X287821Y2227903D02*
D03*
X155821D02*
D03*
X156821Y2359903D02*
D03*
X288821Y2360903D02*
D03*
X222591Y2200608D02*
D03*
Y2387903D02*
D03*
X128821Y2295903D02*
D03*
X315821Y2294903D02*
D03*
X5563411Y1046801D02*
D03*
X5431411D02*
D03*
X5432411Y1178801D02*
D03*
X5564411Y1179801D02*
D03*
X5498181Y1019505D02*
D03*
Y1206801D02*
D03*
X5404411Y1114801D02*
D03*
X5591411Y1113801D02*
D03*
X5563411Y2227903D02*
D03*
X5431411D02*
D03*
X5432411Y2359903D02*
D03*
X5564411Y2360903D02*
D03*
X5498181Y2200608D02*
D03*
Y2387903D02*
D03*
X5404411Y2295903D02*
D03*
X5591411Y2294903D02*
D03*
D62*
X222591Y1113480D02*
D03*
Y2294583D02*
D03*
X5498181Y1113480D02*
D03*
Y2294583D02*
D03*
%TF.MD5,a1605d87a2daf99217c927947609f168*%
M02*
