%TF.GenerationSoftware,Altium Limited,Altium Designer,21.3.2 (30)*%
G04 Layer_Color=32768*
%FSLAX26Y26*%
%MOIN*%
%TF.SameCoordinates,FFAA3912-E1DC-4B59-95C2-56FC1F4E7B50*%
%TF.FilePolarity,Positive*%
%TF.FileFunction,Other,Mechanical_15*%
%TF.Part,Single*%
G01*
G75*
%TA.AperFunction,NonConductor*%
%ADD89C,0.006000*%
%ADD105C,0.003937*%
%ADD151C,0.001968*%
%ADD152C,0.004000*%
D89*
X3296000Y2279835D02*
X3536157D01*
Y2134165D02*
Y2279835D01*
X3296000Y2134165D02*
X3536157D01*
X3296000D02*
Y2279835D01*
X3416000Y2183375D02*
Y2230619D01*
X3392378Y2206997D02*
X3439622D01*
X3296000Y2500835D02*
X3536157D01*
Y2355165D02*
Y2500835D01*
X3296000Y2355165D02*
X3536157D01*
X3296000D02*
Y2500835D01*
X3416000Y2404375D02*
Y2451619D01*
X3392378Y2427997D02*
X3439622D01*
D105*
X4472315Y2922000D02*
X4511685D01*
X4492000Y2902315D02*
Y2941685D01*
X4228221Y2623772D02*
Y3220228D01*
X4755779Y2623772D02*
Y3220228D01*
X4228221Y2623772D02*
X4755779D01*
X4228221Y3220228D02*
X4755779D01*
X4910000Y2592976D02*
Y2632346D01*
X4890315Y2612661D02*
X4929685D01*
X3345441Y3063976D02*
Y3203740D01*
X3502921Y3063976D02*
Y3203740D01*
X3345441D02*
X3502921D01*
X3345441Y3063976D02*
X3502921D01*
X3404496Y3133858D02*
X3443866D01*
X3424181Y3114173D02*
Y3153543D01*
X2728661Y2692315D02*
Y2731685D01*
X2708976Y2712000D02*
X2748346D01*
X2581024Y2505307D02*
X2876299D01*
X2581024Y2918693D02*
X2876299D01*
Y2505307D02*
Y2918693D01*
X2581024Y2505307D02*
Y2918693D01*
X2436315Y2833545D02*
X2475685D01*
X2456000Y2813860D02*
Y2853230D01*
X2501276Y2737088D02*
Y2930001D01*
X2410724Y2737088D02*
Y2930001D01*
X2501276D01*
X2410724Y2737088D02*
X2501276D01*
X3247284Y1768000D02*
X3282716D01*
X3265000Y1750283D02*
Y1785716D01*
X3293543Y1706976D02*
Y1829024D01*
X3236457Y1706976D02*
Y1829024D01*
X3293543D01*
X3236457Y1706976D02*
X3293543D01*
X3325410Y1599850D02*
X3360843D01*
X3343126Y1582134D02*
Y1617567D01*
X3371669Y1538827D02*
Y1660874D01*
X3314583Y1538827D02*
Y1660874D01*
X3371669D01*
X3314583Y1538827D02*
X3371669D01*
X3239331D02*
X3296417D01*
X3239331Y1660874D02*
X3296417D01*
X3239331Y1538827D02*
Y1660874D01*
X3296417Y1538827D02*
Y1660874D01*
X3267874Y1582134D02*
Y1617567D01*
X3250157Y1599850D02*
X3285590D01*
X3066976Y1381457D02*
Y1438543D01*
X3189024Y1381457D02*
Y1438543D01*
X3066976D02*
X3189024D01*
X3066976Y1381457D02*
X3189024D01*
X3110284Y1410000D02*
X3145717D01*
X3128000Y1392284D02*
Y1427716D01*
X3341000Y2658731D02*
X3415000D01*
X3341000Y2796731D02*
X3415000D01*
X3341000Y2658731D02*
Y2796731D01*
X3415000Y2658731D02*
Y2796731D01*
X3378000Y2708046D02*
Y2747416D01*
X3358315Y2727731D02*
X3397685D01*
X3247166Y2658731D02*
X3321166D01*
X3247166Y2796731D02*
X3321166D01*
X3247166Y2658731D02*
Y2796731D01*
X3321166Y2658731D02*
Y2796731D01*
X3284166Y2708046D02*
Y2747416D01*
X3264481Y2727731D02*
X3303851D01*
X3317024Y3067913D02*
Y3125000D01*
X3194976Y3067913D02*
Y3125000D01*
Y3067913D02*
X3317024D01*
X3194976Y3125000D02*
X3317024D01*
X3238284Y3096457D02*
X3273717D01*
X3256000Y3078740D02*
Y3114173D01*
X5084457Y1666976D02*
X5141543D01*
X5084457Y1789024D02*
X5141543D01*
X5084457Y1666976D02*
Y1789024D01*
X5141543Y1666976D02*
Y1789024D01*
X5113000Y1710283D02*
Y1745716D01*
X5095283Y1728000D02*
X5130716D01*
X5012282Y1665441D02*
X5069368D01*
X5012282Y1787488D02*
X5069368D01*
X5012282Y1665441D02*
Y1787488D01*
X5069368Y1665441D02*
Y1787488D01*
X5040825Y1708748D02*
Y1744181D01*
X5023109Y1726465D02*
X5058542D01*
X4940107Y1662441D02*
X4997194D01*
X4940107Y1784488D02*
X4997194D01*
X4940107Y1662441D02*
Y1784488D01*
X4997194Y1662441D02*
Y1784488D01*
X4968650Y1705748D02*
Y1741181D01*
X4950934Y1723465D02*
X4986367D01*
X4867932Y1663344D02*
X4925019D01*
X4867932Y1785392D02*
X4925019D01*
X4867932Y1663344D02*
Y1785392D01*
X4925019Y1663344D02*
Y1785392D01*
X4896475Y1706651D02*
Y1742085D01*
X4878759Y1724368D02*
X4914192D01*
X5093142Y1474982D02*
X5167142D01*
X5093142Y1612982D02*
X5167142D01*
X5093142Y1474982D02*
Y1612982D01*
X5167142Y1474982D02*
Y1612982D01*
X5130142Y1524297D02*
Y1563667D01*
X5110457Y1543982D02*
X5149827D01*
X5204475Y1474982D02*
X5278475D01*
X5204475Y1612982D02*
X5278475D01*
X5204475Y1474982D02*
Y1612982D01*
X5278475Y1474982D02*
Y1612982D01*
X5241475Y1524297D02*
Y1563667D01*
X5221790Y1543982D02*
X5261160D01*
X4981809Y1474982D02*
X5055809D01*
X4981809Y1612982D02*
X5055809D01*
X4981809Y1474982D02*
Y1612982D01*
X5055809Y1474982D02*
Y1612982D01*
X5018809Y1524297D02*
Y1563667D01*
X4999124Y1543982D02*
X5038494D01*
X4887790D02*
X4927160D01*
X4907475Y1524297D02*
Y1563667D01*
X4944475Y1474982D02*
Y1612982D01*
X4870475Y1474982D02*
Y1612982D01*
X4944475D01*
X4870475Y1474982D02*
X4944475D01*
X3331315Y1440386D02*
X3370685D01*
X3351000Y1420701D02*
Y1460071D01*
X3388000Y1371386D02*
Y1509386D01*
X3314000Y1371386D02*
Y1509386D01*
X3388000D01*
X3314000Y1371386D02*
X3388000D01*
X3240315Y1440386D02*
X3279685D01*
X3260000Y1420701D02*
Y1460071D01*
X3297000Y1371386D02*
Y1509386D01*
X3223000Y1371386D02*
Y1509386D01*
X3297000D01*
X3223000Y1371386D02*
X3297000D01*
X2198535Y1371284D02*
Y1406716D01*
X2180819Y1389000D02*
X2216252D01*
X2137512Y1360457D02*
X2259559D01*
X2137512Y1417543D02*
X2259559D01*
Y1360457D02*
Y1417543D01*
X2137512Y1360457D02*
Y1417543D01*
X2293441Y1360457D02*
Y1417543D01*
X2415488Y1360457D02*
Y1417543D01*
X2293441D02*
X2415488D01*
X2293441Y1360457D02*
X2415488D01*
X2336748Y1389000D02*
X2372181D01*
X2354465Y1371284D02*
Y1406716D01*
X2299857Y1700274D02*
X2455369D01*
X2299857Y1460117D02*
X2455369D01*
Y1700274D01*
X2299857Y1460117D02*
Y1700274D01*
X2377613Y1560510D02*
Y1599880D01*
X2357928Y1580195D02*
X2397298D01*
X2304000Y2008000D02*
X2464000D01*
X2304000Y1718000D02*
X2464000D01*
Y2008000D01*
X2304000Y1718000D02*
Y2008000D01*
X2384000Y1843315D02*
Y1882685D01*
X2364315Y1863000D02*
X2403685D01*
X2157928Y1580195D02*
X2197298D01*
X2177613Y1560510D02*
Y1599880D01*
X2099857Y1460117D02*
Y1700274D01*
X2255369Y1460117D02*
Y1700274D01*
X2099857Y1460117D02*
X2255369D01*
X2099857Y1700274D02*
X2255369D01*
X2755000Y1373315D02*
Y1412685D01*
X2735315Y1393000D02*
X2774685D01*
X2634921Y1461898D02*
X2875079D01*
X2634921Y1324102D02*
X2875079D01*
X2634921D02*
Y1461898D01*
X2875079Y1324102D02*
Y1461898D01*
X2755252Y1565055D02*
X2790685D01*
X2772968Y1547339D02*
Y1582772D01*
X2744425Y1504032D02*
Y1626079D01*
X2801512Y1504032D02*
Y1626079D01*
X2744425Y1504032D02*
X2801512D01*
X2744425Y1626079D02*
X2801512D01*
X2598457Y1626079D02*
X2655543D01*
X2598457Y1504032D02*
X2655543D01*
Y1626079D01*
X2598457Y1504032D02*
Y1626079D01*
X2627000Y1547339D02*
Y1582772D01*
X2609284Y1565055D02*
X2644716D01*
X3828000Y2285284D02*
Y2320716D01*
X3810284Y2303000D02*
X3845717D01*
X3766976Y2274457D02*
X3889024D01*
X3766976Y2331543D02*
X3889024D01*
Y2274457D02*
Y2331543D01*
X3766976Y2274457D02*
Y2331543D01*
X3828000Y2364284D02*
Y2399716D01*
X3810284Y2382000D02*
X3845717D01*
X3766976Y2410543D02*
X3889024D01*
X3766976Y2353457D02*
X3889024D01*
X3766976D02*
Y2410543D01*
X3889024Y2353457D02*
Y2410543D01*
X4175181Y2270551D02*
Y2327638D01*
X4297228Y2270551D02*
Y2327638D01*
X4175181D02*
X4297228D01*
X4175181Y2270551D02*
X4297228D01*
X4218488Y2299095D02*
X4253921D01*
X4236205Y2281378D02*
Y2316811D01*
X4250559Y2502457D02*
Y2559543D01*
X4128512Y2502457D02*
Y2559543D01*
Y2502457D02*
X4250559D01*
X4128512Y2559543D02*
X4250559D01*
X4171819Y2531000D02*
X4207252D01*
X4189535Y2513284D02*
Y2548716D01*
X4317559Y2502457D02*
Y2559543D01*
X4195512Y2502457D02*
Y2559543D01*
Y2502457D02*
X4317559D01*
X4195512Y2559543D02*
X4317559D01*
X4238819Y2531000D02*
X4274252D01*
X4256535Y2513284D02*
Y2548716D01*
X5160630Y2612661D02*
X5200000D01*
X5180315Y2592976D02*
Y2632347D01*
X5049315Y3043482D02*
X5088685D01*
X5069000Y3023797D02*
Y3063167D01*
X3966315Y2916063D02*
X4005685D01*
X3986000Y2896378D02*
Y2935748D01*
X4202535Y2594213D02*
Y3237913D01*
X3769465Y2594213D02*
Y3237913D01*
X4202535D01*
X3769465Y2594213D02*
X4202535D01*
X2948284Y2736000D02*
X2983716D01*
X2966000Y2718284D02*
Y2753717D01*
X2937457Y2674976D02*
Y2797024D01*
X2994543Y2674976D02*
Y2797024D01*
X2937457Y2674976D02*
X2994543D01*
X2937457Y2797024D02*
X2994543D01*
X2948284Y2566000D02*
X2983716D01*
X2966000Y2548283D02*
Y2583716D01*
X2994543Y2504976D02*
Y2627024D01*
X2937457Y2504976D02*
Y2627024D01*
X2994543D01*
X2937457Y2504976D02*
X2994543D01*
X3095724Y2546847D02*
Y2586217D01*
X3076039Y2566532D02*
X3115409D01*
X3021905Y2497634D02*
X3169543D01*
X3021905Y2635429D02*
X3169543D01*
Y2497634D02*
Y2635429D01*
X3021905Y2497634D02*
Y2635429D01*
X3095724Y2716847D02*
Y2756217D01*
X3076039Y2736532D02*
X3115409D01*
X3021905Y2667634D02*
X3169543D01*
X3021905Y2805429D02*
X3169543D01*
Y2667634D02*
Y2805429D01*
X3021905Y2667634D02*
Y2805429D01*
X2070102Y2404921D02*
X2207898D01*
X2070102Y2645079D02*
X2207898D01*
X2070102Y2404921D02*
Y2645079D01*
X2207898Y2404921D02*
Y2645079D01*
X2139000Y2505315D02*
Y2544685D01*
X2119315Y2525000D02*
X2158685D01*
X2237602Y2404921D02*
X2375398D01*
X2237602Y2645079D02*
X2375398D01*
X2237602Y2404921D02*
Y2645079D01*
X2375398Y2404921D02*
Y2645079D01*
X2306500Y2505315D02*
Y2544685D01*
X2286815Y2525000D02*
X2326185D01*
X2405102Y2404921D02*
X2542898D01*
X2405102Y2645079D02*
X2542898D01*
X2405102Y2404921D02*
Y2645079D01*
X2542898Y2404921D02*
Y2645079D01*
X2474000Y2505315D02*
Y2544685D01*
X2454315Y2525000D02*
X2493685D01*
X2164315Y1867000D02*
X2203685D01*
X2184000Y1847315D02*
Y1886685D01*
X2264000Y1722000D02*
Y2012000D01*
X2104000Y1722000D02*
Y2012000D01*
X2264000D01*
X2104000Y1722000D02*
X2264000D01*
X3352410Y2883465D02*
X3387843D01*
X3370126Y2865748D02*
Y2901181D01*
X3398669Y2822441D02*
Y2944488D01*
X3341583Y2822441D02*
Y2944488D01*
X3398669D01*
X3341583Y2822441D02*
X3398669D01*
X3598079Y472102D02*
Y609898D01*
X3357921Y472102D02*
Y609898D01*
X3598079D01*
X3357921Y472102D02*
X3598079D01*
X3458315Y541000D02*
X3497685D01*
X3478000Y521315D02*
Y560685D01*
X5142079Y472102D02*
Y609898D01*
X4901921Y472102D02*
Y609898D01*
X5142079D01*
X4901921Y472102D02*
X5142079D01*
X5002315Y541000D02*
X5041685D01*
X5022000Y521315D02*
Y560685D01*
X4624079Y472102D02*
Y609898D01*
X4383921Y472102D02*
Y609898D01*
X4624079D01*
X4383921Y472102D02*
X4624079D01*
X4484315Y541000D02*
X4523685D01*
X4504000Y521315D02*
Y560685D01*
X4103745Y472102D02*
Y609898D01*
X3863588Y472102D02*
Y609898D01*
X4103745D01*
X3863588Y472102D02*
X4103745D01*
X3963981Y541000D02*
X4003352D01*
X3983667Y521315D02*
Y560685D01*
X3919102Y2275921D02*
X4056898D01*
X3919102Y2516079D02*
X4056898D01*
X3919102Y2275921D02*
Y2516079D01*
X4056898Y2275921D02*
Y2516079D01*
X3988000Y2376315D02*
Y2415685D01*
X3968315Y2396000D02*
X4007685D01*
X3539284Y1478000D02*
X3574716D01*
X3557000Y1460284D02*
Y1495717D01*
X3585543Y1416976D02*
Y1539024D01*
X3528457Y1416976D02*
Y1539024D01*
X3585543D01*
X3528457Y1416976D02*
X3585543D01*
X2489457Y1564447D02*
X2546543D01*
X2489457Y1686495D02*
X2546543D01*
X2489457Y1564447D02*
Y1686495D01*
X2546543Y1564447D02*
Y1686495D01*
X2518000Y1607754D02*
Y1643187D01*
X2500284Y1625471D02*
X2535716D01*
X2227583Y2747315D02*
Y2786685D01*
X2207898Y2767000D02*
X2247268D01*
X2107504Y2698102D02*
X2347662D01*
X2107504Y2835898D02*
X2347662D01*
Y2698102D02*
Y2835898D01*
X2107504Y2698102D02*
Y2835898D01*
X3274324Y2883465D02*
X3309757D01*
X3292040Y2865748D02*
Y2901181D01*
X3320584Y2822441D02*
Y2944488D01*
X3263497Y2822441D02*
Y2944488D01*
X3320584D01*
X3263497Y2822441D02*
X3320584D01*
X2869764Y1678787D02*
Y1895323D01*
X2574488Y1678787D02*
Y1895323D01*
Y1678787D02*
X2869764D01*
X2574488Y1895323D02*
X2869764D01*
X2702441Y1787055D02*
X2741811D01*
X2722126Y1767370D02*
Y1806740D01*
X2023284Y1625471D02*
X2058716D01*
X2041000Y1607754D02*
Y1643187D01*
X2012457Y1564447D02*
Y1686495D01*
X2069543Y1564447D02*
Y1686495D01*
X2012457Y1564447D02*
X2069543D01*
X2012457Y1686495D02*
X2069543D01*
X2854000Y1940000D02*
Y2100000D01*
X2564000Y1940000D02*
Y2100000D01*
Y1940000D02*
X2854000D01*
X2564000Y2100000D02*
X2854000D01*
X2689315Y2020000D02*
X2728685D01*
X2709000Y2000315D02*
Y2039685D01*
X4861616Y2137227D02*
X5275002D01*
X4861616Y1841952D02*
X5275002D01*
Y2137227D01*
X4861616Y1841952D02*
Y2137227D01*
X5068309Y1969905D02*
Y2009275D01*
X5048624Y1989590D02*
X5087994D01*
D151*
X369701Y164438D02*
X1972457D01*
Y3243178D01*
X369701D02*
X1972457D01*
X369701Y164438D02*
Y3243178D01*
X4759063Y192197D02*
Y841803D01*
X5266937D01*
Y192197D02*
Y841803D01*
X4759063Y192197D02*
X5266937D01*
X4250063D02*
Y841803D01*
X4757937D01*
Y192197D02*
Y841803D01*
X4250063Y192197D02*
X4757937D01*
X3735063D02*
Y841803D01*
X4242937D01*
Y192197D02*
Y841803D01*
X3735063Y192197D02*
X4242937D01*
X3224063D02*
Y841803D01*
X3731937D01*
Y192197D02*
Y841803D01*
X3224063Y192197D02*
X3731937D01*
X2654244Y3108071D02*
X2991252D01*
Y3241929D01*
X2654244D02*
X2991252D01*
X2654244Y3108071D02*
Y3241929D01*
X4446795Y1446142D02*
Y2213858D01*
X3651520Y1446142D02*
X4446795D01*
X3651520D02*
Y2213858D01*
X4446795D01*
X2156693Y1181260D02*
X2393307D01*
X2156693Y1338740D02*
X2393307D01*
X2156693Y1181260D02*
Y1338740D01*
X2393307Y1181260D02*
Y1338740D01*
X5442512Y1495937D02*
Y1909323D01*
X5662984D01*
Y1495937D02*
Y1909323D01*
X5442512Y1495937D02*
X5662984D01*
D152*
X3248284Y1915535D02*
X3283717D01*
X3266000Y1897819D02*
Y1933252D01*
X3249136Y1884041D02*
Y1947036D01*
X3282995D01*
Y1884041D02*
Y1947036D01*
X3249136Y1884041D02*
X3282995D01*
X3159494Y1465679D02*
Y1499539D01*
X3096499D02*
X3159494D01*
X3096499Y1465679D02*
Y1499539D01*
Y1465679D02*
X3159494D01*
X3110284Y1482543D02*
X3145716D01*
X3128000Y1464827D02*
Y1500260D01*
X3553506Y3079461D02*
Y3113321D01*
Y3079461D02*
X3616501D01*
Y3113321D01*
X3553506D02*
X3616501D01*
X3567284Y3096457D02*
X3602716D01*
X3585000Y3078740D02*
Y3114173D01*
X3553506Y3154265D02*
Y3188124D01*
Y3154265D02*
X3616501D01*
Y3188124D01*
X3553506D02*
X3616501D01*
X3567284Y3171260D02*
X3602716D01*
X3585000Y3153543D02*
Y3188976D01*
X3287494Y3154396D02*
Y3188255D01*
X3224499D02*
X3287494D01*
X3224499Y3154396D02*
Y3188255D01*
Y3154396D02*
X3287494D01*
X3238284Y3171260D02*
X3273716D01*
X3256000Y3153543D02*
Y3188977D01*
X2847968Y1547339D02*
Y1582772D01*
X2830252Y1565055D02*
X2865685D01*
X2864832Y1533554D02*
Y1596550D01*
X2830973Y1533554D02*
X2864832D01*
X2830973D02*
Y1596550D01*
X2864832D01*
X2683360Y1596550D02*
X2717220D01*
X2683360Y1533554D02*
Y1596550D01*
Y1533554D02*
X2717220D01*
Y1596550D01*
X2700356Y1547339D02*
Y1582772D01*
X2682639Y1565055D02*
X2718072D01*
X2770535Y2418701D02*
Y2454134D01*
X2752819Y2436417D02*
X2788252D01*
X2739041Y2453281D02*
X2802036D01*
Y2419422D02*
Y2453281D01*
X2739041Y2419422D02*
X2802036D01*
X2739041D02*
Y2453281D01*
X2625535Y2418701D02*
Y2454134D01*
X2607819Y2436417D02*
X2643252D01*
X2594035Y2419553D02*
X2657030D01*
X2594035D02*
Y2453412D01*
X2657030D01*
Y2419553D02*
Y2453412D01*
X4346246Y2282099D02*
Y2315959D01*
Y2282099D02*
X4409241D01*
Y2315959D01*
X4346246D02*
X4409241D01*
X4360024Y2299095D02*
X4395457D01*
X4377740Y2281378D02*
Y2316811D01*
X4267699Y2364231D02*
Y2398090D01*
X4204704D02*
X4267699D01*
X4204704Y2364231D02*
Y2398090D01*
Y2364231D02*
X4267699D01*
X4218488Y2381095D02*
X4253921D01*
X4236205Y2363378D02*
Y2398811D01*
X4346246Y2364099D02*
Y2397959D01*
Y2364099D02*
X4409241D01*
Y2397959D01*
X4346246D02*
X4409241D01*
X4360024Y2381095D02*
X4395457D01*
X4377740Y2363378D02*
Y2398811D01*
X5307953Y2474866D02*
Y2750457D01*
X5052047Y2474866D02*
X5307953D01*
X5052047Y2750457D02*
X5307953D01*
X5052047Y2474866D02*
Y2750457D01*
X4842622Y3245568D02*
X5300299D01*
Y2842025D02*
Y3245568D01*
X4842622Y2842025D02*
Y3245568D01*
Y2842025D02*
X5300299D01*
X3466283Y1478000D02*
X3501716D01*
X3484000Y1460284D02*
Y1495716D01*
X3500864Y1446499D02*
Y1509494D01*
X3467005Y1446499D02*
X3500864D01*
X3467005D02*
Y1509494D01*
X3500864D01*
X3023494Y2864136D02*
Y2897995D01*
X2960499D02*
X3023494D01*
X2960499Y2864136D02*
Y2897995D01*
Y2864136D02*
X3023494D01*
X2974284Y2881000D02*
X3009716D01*
X2992000Y2863284D02*
Y2898717D01*
%TF.MD5,77c409fc56ab1ba528331c2d10c461bd*%
M02*
