%TF.GenerationSoftware,Altium Limited,Altium Designer,21.3.2 (30)*%
G04 Layer_Physical_Order=2*
G04 Layer_Color=16711680*
%FSLAX26Y26*%
%MOIN*%
%TF.SameCoordinates,FFAA3912-E1DC-4B59-95C2-56FC1F4E7B50*%
%TF.FilePolarity,Positive*%
%TF.FileFunction,Copper,L2,Bot,Signal*%
%TF.Part,Single*%
G01*
G75*
%TA.AperFunction,SMDPad,CuDef*%
G04:AMPARAMS|DCode=22|XSize=78.74mil|YSize=78.74mil|CornerRadius=19.685mil|HoleSize=0mil|Usage=FLASHONLY|Rotation=270.000|XOffset=0mil|YOffset=0mil|HoleType=Round|Shape=RoundedRectangle|*
%AMROUNDEDRECTD22*
21,1,0.078740,0.039370,0,0,270.0*
21,1,0.039370,0.078740,0,0,270.0*
1,1,0.039370,-0.019685,-0.019685*
1,1,0.039370,-0.019685,0.019685*
1,1,0.039370,0.019685,0.019685*
1,1,0.039370,0.019685,-0.019685*
%
%ADD22ROUNDEDRECTD22*%
%TA.AperFunction,Conductor*%
%ADD42C,0.010000*%
%ADD43C,0.020000*%
%ADD44C,0.040000*%
%ADD45C,0.100000*%
%TA.AperFunction,NonConductor*%
%ADD46C,0.010000*%
%TA.AperFunction,ComponentPad*%
G04:AMPARAMS|DCode=47|XSize=86.614mil|YSize=118.11mil|CornerRadius=21.654mil|HoleSize=0mil|Usage=FLASHONLY|Rotation=270.000|XOffset=0mil|YOffset=0mil|HoleType=Round|Shape=RoundedRectangle|*
%AMROUNDEDRECTD47*
21,1,0.086614,0.074803,0,0,270.0*
21,1,0.043307,0.118110,0,0,270.0*
1,1,0.043307,-0.037401,-0.021654*
1,1,0.043307,-0.037401,0.021654*
1,1,0.043307,0.037401,0.021654*
1,1,0.043307,0.037401,-0.021654*
%
%ADD47ROUNDEDRECTD47*%
%ADD48C,0.125984*%
%ADD49C,0.094488*%
%ADD50R,0.110000X0.120000*%
%ADD51O,0.110000X0.120000*%
%ADD52C,0.076772*%
%ADD53R,0.076772X0.076772*%
%ADD56O,0.035748X0.071496*%
%ADD57C,0.037717*%
%ADD58O,0.075000X0.065000*%
%ADD59R,0.051496X0.051496*%
%ADD60C,0.051496*%
%TA.AperFunction,ViaPad*%
%ADD61C,0.020000*%
%ADD62C,0.216535*%
%TA.AperFunction,ComponentPad*%
%ADD63R,0.060000X0.080000*%
%ADD64O,0.060000X0.080000*%
%ADD65C,0.070000*%
G36*
X3395098Y3260630D02*
X3397630Y3258098D01*
X3399000Y3254790D01*
Y3253000D01*
Y3167000D01*
Y3165409D01*
X3397782Y3162468D01*
X3395532Y3160218D01*
X3392591Y3159000D01*
X3353005D01*
X3351168Y3159761D01*
X3349761Y3161168D01*
X3349000Y3163005D01*
Y3164000D01*
Y3253000D01*
Y3254790D01*
X3350370Y3258098D01*
X3352902Y3260630D01*
X3356210Y3262000D01*
X3391790D01*
X3395098Y3260630D01*
D02*
G37*
G36*
X5371747Y3280494D02*
X5382343Y3276105D01*
X5391441Y3269124D01*
X5398422Y3260026D01*
X5402811Y3249430D01*
X5404240Y3238573D01*
X5404138Y3238060D01*
Y2590115D01*
X5403979D01*
X5405788Y2571739D01*
X5411149Y2554069D01*
X5419853Y2537784D01*
X5431567Y2523510D01*
X5445841Y2511796D01*
X5462126Y2503091D01*
X5479796Y2497731D01*
X5498172Y2495921D01*
Y2496081D01*
X5619117D01*
X5619631Y2496183D01*
X5630488Y2494754D01*
X5641083Y2490365D01*
X5650181Y2483384D01*
X5657163Y2474285D01*
X5661551Y2463690D01*
X5662415Y2457128D01*
X5662878Y2452320D01*
X5662878Y2452320D01*
X5662878Y2447394D01*
X5662878Y2067106D01*
X5657878Y2065035D01*
X5570099Y2152814D01*
X5565137Y2156130D01*
X5559284Y2157294D01*
X5216335D01*
X5123815Y2249814D01*
X5118853Y2253130D01*
X5113000Y2254294D01*
X4905000D01*
X4899147Y2253130D01*
X4894186Y2249814D01*
X4872563Y2228191D01*
X4062230D01*
X4059452Y2232349D01*
X4060102Y2233919D01*
Y2241876D01*
X4057058Y2249227D01*
X4051432Y2254853D01*
X4044081Y2257898D01*
X4036124D01*
X4028773Y2254853D01*
X4027112Y2253191D01*
X3906898D01*
X3901045Y2252027D01*
X3896083Y2248712D01*
X3881186Y2233814D01*
X3877870Y2228853D01*
X3876706Y2223000D01*
Y1758335D01*
X3831665Y1713294D01*
X3333246D01*
X3330545Y1718294D01*
X3331094Y1719131D01*
X3332036Y1719706D01*
X3814000D01*
X3819853Y1720870D01*
X3824814Y1724186D01*
X3850917Y1750288D01*
X3854232Y1755250D01*
X3855396Y1761102D01*
Y2225112D01*
X3857058Y2226773D01*
X3860102Y2234124D01*
Y2242081D01*
X3857058Y2249432D01*
X3851432Y2255058D01*
X3844081Y2258102D01*
X3836124D01*
X3828773Y2255058D01*
X3823147Y2249432D01*
X3820102Y2242081D01*
Y2234124D01*
X3823147Y2226773D01*
X3824809Y2225112D01*
Y1767437D01*
X3807665Y1750294D01*
X3328990D01*
X3327329Y1751955D01*
X3319978Y1755000D01*
X3312022D01*
X3304671Y1751955D01*
X3299045Y1746329D01*
X3296000Y1738978D01*
Y1731022D01*
X3299045Y1723671D01*
X3304422Y1718294D01*
X3304333Y1717040D01*
X3303075Y1713294D01*
X3257000D01*
X3251147Y1712130D01*
X3246186Y1708814D01*
X3204131Y1666759D01*
X3200815Y1661798D01*
X3199651Y1655945D01*
Y1580045D01*
X3197990Y1578384D01*
X3194945Y1571033D01*
Y1563077D01*
X3195595Y1561506D01*
X3192818Y1557349D01*
X3176280D01*
X3169294Y1564335D01*
Y2791000D01*
X3168130Y2796853D01*
X3164814Y2801814D01*
X3118814Y2847814D01*
X3113853Y2851130D01*
X3108000Y2852294D01*
X2684990D01*
X2683329Y2853955D01*
X2675978Y2857000D01*
X2668022D01*
X2660671Y2853955D01*
X2655045Y2848329D01*
X2652000Y2840978D01*
Y2833022D01*
X2655045Y2825671D01*
X2660671Y2820045D01*
X2668022Y2817000D01*
X2675978D01*
X2683329Y2820045D01*
X2684990Y2821706D01*
X3101665D01*
X3138706Y2784665D01*
Y2769456D01*
X3134087Y2767542D01*
X3103814Y2797814D01*
X3098853Y2801130D01*
X3093000Y2802294D01*
X2684990D01*
X2683329Y2803955D01*
X2675978Y2807000D01*
X2668022D01*
X2660671Y2803955D01*
X2655045Y2798329D01*
X2652000Y2790978D01*
Y2783022D01*
X2655045Y2775671D01*
X2660671Y2770045D01*
X2668022Y2767000D01*
X2675978D01*
X2683329Y2770045D01*
X2684990Y2771706D01*
X3086665D01*
X3118706Y2739665D01*
Y1549000D01*
X3119870Y1543147D01*
X3123186Y1538186D01*
X3155186Y1506186D01*
X3160147Y1502870D01*
X3166000Y1501706D01*
X3177006D01*
X3179077Y1496706D01*
X3152186Y1469814D01*
X3148870Y1464853D01*
X3147706Y1459000D01*
Y1362990D01*
X3146045Y1361329D01*
X3143000Y1353978D01*
Y1346022D01*
X3146045Y1338671D01*
X3151671Y1333045D01*
X3159022Y1330000D01*
X3166978D01*
X3174329Y1333045D01*
X3179955Y1338671D01*
X3183000Y1346022D01*
Y1353978D01*
X3179955Y1361329D01*
X3178294Y1362990D01*
Y1452665D01*
X3198335Y1472706D01*
X3606010D01*
X3607671Y1471045D01*
X3615022Y1468000D01*
X3622978D01*
X3630329Y1471045D01*
X3635955Y1476671D01*
X3639000Y1484022D01*
Y1491978D01*
X3637042Y1496706D01*
X3640111Y1501706D01*
X4206000D01*
X4211853Y1502870D01*
X4216814Y1506186D01*
X4241731Y1531102D01*
X4244081D01*
X4251431Y1534147D01*
X4257058Y1539773D01*
X4260102Y1547124D01*
Y1555081D01*
X4257058Y1562431D01*
X4251431Y1568058D01*
X4244081Y1571102D01*
X4236124D01*
X4228773Y1568058D01*
X4223147Y1562431D01*
X4220102Y1555081D01*
Y1552731D01*
X4215102Y1547731D01*
X4210102Y1549802D01*
Y1555081D01*
X4207058Y1562431D01*
X4201431Y1568058D01*
X4194081Y1571102D01*
X4186124D01*
X4178773Y1568058D01*
X4173147Y1562431D01*
X4171042Y1557349D01*
X3237072D01*
X3234294Y1561506D01*
X3234945Y1563077D01*
Y1571033D01*
X3231900Y1578384D01*
X3230239Y1580045D01*
Y1649610D01*
X3263335Y1682706D01*
X3838000D01*
X3843853Y1683870D01*
X3848814Y1687186D01*
X3902814Y1741186D01*
X3906130Y1746147D01*
X3907294Y1752000D01*
Y2216665D01*
X3913233Y2222604D01*
X3933442D01*
X3935356Y2217984D01*
X3925186Y2207814D01*
X3921870Y2202853D01*
X3920706Y2197000D01*
Y2017990D01*
X3919045Y2016329D01*
X3916000Y2008978D01*
Y2001022D01*
X3919045Y1993671D01*
X3924671Y1988045D01*
X3932022Y1985000D01*
X3939978D01*
X3947329Y1988045D01*
X3952955Y1993671D01*
X3956000Y2001022D01*
Y2008978D01*
X3952955Y2016329D01*
X3951294Y2017990D01*
Y2026351D01*
X3956294Y2028422D01*
X3959671Y2025045D01*
X3967022Y2022000D01*
X3974978D01*
X3982329Y2025045D01*
X3987955Y2030671D01*
X3991000Y2038022D01*
Y2045978D01*
X3987955Y2053329D01*
X3986294Y2054990D01*
Y2177604D01*
X4888898D01*
X4894750Y2178768D01*
X4899712Y2182083D01*
X4921335Y2203706D01*
X4934466D01*
X4935461Y2198706D01*
X4931980Y2197264D01*
X4926354Y2191638D01*
X4923309Y2184287D01*
Y2181938D01*
X4824186Y2082814D01*
X4820870Y2077853D01*
X4819706Y2072000D01*
Y1554335D01*
X4686665Y1421294D01*
X4161335D01*
X4160000Y1422629D01*
Y1424978D01*
X4156955Y1432329D01*
X4151329Y1437955D01*
X4143978Y1441000D01*
X4136022D01*
X4128671Y1437955D01*
X4123045Y1432329D01*
X4120000Y1424978D01*
Y1417022D01*
X4123045Y1409671D01*
X4126422Y1406294D01*
X4124351Y1401294D01*
X4064335D01*
X4056835Y1408794D01*
X4059000Y1414022D01*
Y1421978D01*
X4055955Y1429329D01*
X4050329Y1434955D01*
X4042978Y1438000D01*
X4035022D01*
X4027671Y1434955D01*
X4022045Y1429329D01*
X4019000Y1421978D01*
Y1414022D01*
X4022045Y1406671D01*
X4024884Y1403832D01*
Y1403822D01*
X4026048Y1397970D01*
X4029363Y1393008D01*
X4036458Y1385913D01*
X4034544Y1381294D01*
X4027335D01*
X4005957Y1402672D01*
X4007058Y1403773D01*
X4010102Y1411124D01*
Y1419081D01*
X4007058Y1426431D01*
X4001432Y1432058D01*
X3994081Y1435102D01*
X3986124D01*
X3978773Y1432058D01*
X3973147Y1426431D01*
X3970102Y1419081D01*
Y1411124D01*
X3973147Y1403773D01*
X3974809Y1402112D01*
Y1396898D01*
X3975973Y1391045D01*
X3979288Y1386083D01*
X3999458Y1365913D01*
X3997544Y1361294D01*
X3886335D01*
X3852294Y1395335D01*
Y1402112D01*
X3853955Y1403773D01*
X3857000Y1411124D01*
Y1419081D01*
X3853955Y1426431D01*
X3848329Y1432058D01*
X3840978Y1435102D01*
X3833022D01*
X3825671Y1432058D01*
X3820045Y1426431D01*
X3817000Y1419081D01*
Y1411124D01*
X3820045Y1403773D01*
X3821706Y1402112D01*
Y1389000D01*
X3822870Y1383147D01*
X3826186Y1378186D01*
X3869186Y1335186D01*
X3874147Y1331870D01*
X3880000Y1330706D01*
X4717853D01*
X4723705Y1331870D01*
X4728667Y1335186D01*
X4905815Y1512333D01*
X4909130Y1517295D01*
X4910294Y1523147D01*
Y1978665D01*
X5093629Y2162000D01*
X5095978D01*
X5103329Y2165045D01*
X5108955Y2170671D01*
X5112000Y2178022D01*
Y2183016D01*
X5117000Y2185087D01*
X5190901Y2111186D01*
X5195863Y2107870D01*
X5201716Y2106706D01*
X5544665D01*
X5613706Y2037665D01*
Y1711335D01*
X5580925Y1678554D01*
X5569448D01*
X5565605Y1685210D01*
X5558950Y1691865D01*
X5550798Y1696572D01*
X5541706Y1699008D01*
X5532294D01*
X5523202Y1696572D01*
X5515050Y1691865D01*
X5508395Y1685210D01*
X5503688Y1677058D01*
X5501252Y1667966D01*
Y1658553D01*
X5503688Y1649462D01*
X5508395Y1641310D01*
X5515050Y1634654D01*
X5523202Y1629948D01*
X5532294Y1627512D01*
X5541706D01*
X5550798Y1629948D01*
X5558950Y1634654D01*
X5565605Y1641310D01*
X5569448Y1647966D01*
X5587260D01*
X5593113Y1649130D01*
X5598074Y1652445D01*
X5629087Y1683458D01*
X5633706Y1681544D01*
Y1647335D01*
X5586185Y1599814D01*
X5572748D01*
Y1620268D01*
X5501252D01*
Y1548772D01*
X5572748D01*
Y1569226D01*
X5592520D01*
X5598372Y1570390D01*
X5603334Y1573705D01*
X5657878Y1628249D01*
X5662878Y1626178D01*
X5662878Y955777D01*
X5662980Y955263D01*
X5661551Y944406D01*
X5657162Y933811D01*
X5650181Y924713D01*
X5641082Y917731D01*
X5630487Y913343D01*
X5619630Y911913D01*
X5619117Y912015D01*
X5498172D01*
Y912175D01*
X5479796Y910365D01*
X5462126Y905005D01*
X5445841Y896301D01*
X5431567Y884586D01*
X5419853Y870313D01*
X5411148Y854028D01*
X5405788Y836358D01*
X5403978Y817981D01*
X5404138D01*
Y170029D01*
X5404240Y169515D01*
X5402811Y158658D01*
X5398422Y148063D01*
X5391441Y138965D01*
X5382342Y131983D01*
X5371747Y127594D01*
X5360890Y126165D01*
X5360377Y126267D01*
X360377D01*
X359863Y126165D01*
X349007Y127594D01*
X338411Y131983D01*
X329313Y138965D01*
X322332Y148063D01*
X317943Y158658D01*
X316514Y169515D01*
X316616Y170029D01*
Y817981D01*
X316775D01*
X314965Y836358D01*
X309605Y854028D01*
X300901Y870313D01*
X289187Y884586D01*
X274913Y896301D01*
X258628Y905005D01*
X240958Y910365D01*
X222582Y912175D01*
Y912015D01*
X101637D01*
X101123Y911913D01*
X90266Y913343D01*
X79671Y917731D01*
X70573Y924713D01*
X63591Y933811D01*
X59203Y944406D01*
X57773Y955263D01*
X57875Y955777D01*
X57875Y2447394D01*
X57875Y2452131D01*
X57875Y2452320D01*
X58338Y2457128D01*
X59202Y2463690D01*
X63591Y2474285D01*
X70573Y2483384D01*
X79671Y2490365D01*
X90266Y2494754D01*
X101123Y2496183D01*
X101636Y2496081D01*
X222581D01*
Y2495921D01*
X240958Y2497731D01*
X258628Y2503091D01*
X274913Y2511796D01*
X289186Y2523510D01*
X300901Y2537784D01*
X309605Y2554069D01*
X314965Y2571739D01*
X316775Y2590115D01*
X316615D01*
Y3238060D01*
X316513Y3238573D01*
X317942Y3249430D01*
X322331Y3260026D01*
X329313Y3269124D01*
X338411Y3276105D01*
X349006Y3280494D01*
X355560Y3281357D01*
X360377Y3281821D01*
Y3281821D01*
X360377Y3281821D01*
X1947157D01*
X1948657Y3279108D01*
X1949029Y3276821D01*
X1842604Y3170396D01*
X1837795Y3164130D01*
X1834772Y3156832D01*
X1833741Y3149000D01*
Y1761567D01*
X1829452Y1758996D01*
X1828493Y1759509D01*
X1817183Y1762940D01*
X1805421Y1764098D01*
X1043808D01*
X1039904Y1763714D01*
X1036000Y1764098D01*
X192000D01*
X180238Y1762940D01*
X168928Y1759509D01*
X164960Y1757388D01*
X154599D01*
X146335Y1756300D01*
X138635Y1753111D01*
X132023Y1748037D01*
X126949Y1741425D01*
X123760Y1733725D01*
X122672Y1725462D01*
Y1682155D01*
X123760Y1673891D01*
X126949Y1666191D01*
X132023Y1659579D01*
X138635Y1654505D01*
X146335Y1651316D01*
X154599Y1650228D01*
X164960D01*
X168928Y1648107D01*
X180238Y1644676D01*
X192000Y1643518D01*
X1036000D01*
X1039904Y1643902D01*
X1043808Y1643518D01*
X1780448D01*
X1803710Y1620256D01*
Y444000D01*
X1804868Y432238D01*
X1808299Y420928D01*
X1813870Y410505D01*
X1821368Y401368D01*
X1898368Y324369D01*
X1898368Y324368D01*
X1907505Y316870D01*
X1917928Y311299D01*
X1929238Y307868D01*
X1941000Y306710D01*
X2397553D01*
X2407005Y301657D01*
X2419258Y297940D01*
X2432000Y296685D01*
X2444742Y297940D01*
X2456995Y301657D01*
X2468287Y307693D01*
X2478184Y315816D01*
X2486307Y325713D01*
X2492343Y337005D01*
X2496059Y349258D01*
X2497314Y362000D01*
Y372000D01*
X2496059Y384742D01*
X2492343Y396995D01*
X2486307Y408287D01*
X2478184Y418184D01*
X2468287Y426307D01*
X2456995Y432343D01*
X2444742Y436060D01*
X2432000Y437315D01*
X2419258Y436060D01*
X2407005Y432343D01*
X2397553Y427290D01*
X1965973D01*
X1924290Y468973D01*
Y1645229D01*
X1923132Y1656992D01*
X1919701Y1668302D01*
X1914130Y1678725D01*
X1906632Y1687861D01*
X1894259Y1700234D01*
Y3136466D01*
X1983534Y3225741D01*
X2220000D01*
Y3127000D01*
X2244706D01*
Y3057000D01*
X2245870Y3051147D01*
X2249186Y3046186D01*
X2265186Y3030186D01*
X2270147Y3026870D01*
X2276000Y3025706D01*
X3403093D01*
X3403309Y3025392D01*
X3400683Y3020392D01*
X2838000D01*
X2836500Y3020093D01*
X2835000Y3020392D01*
X2316331D01*
X2314361Y3020000D01*
X2312353D01*
X2310497Y3019231D01*
X2308527Y3018840D01*
X2306858Y3017724D01*
X2305002Y3016955D01*
X2303582Y3015535D01*
X2301912Y3014419D01*
X2300796Y3012749D01*
X2299376Y3011329D01*
X2298607Y3009474D01*
X2297491Y3007804D01*
X2297100Y3005834D01*
X2296331Y3003978D01*
Y3001970D01*
X2295939Y3000000D01*
X2296331Y2998030D01*
Y2996022D01*
X2297100Y2994166D01*
X2297491Y2992196D01*
X2298607Y2990526D01*
X2299376Y2988671D01*
X2300796Y2987251D01*
X2301912Y2985581D01*
X2303582Y2984465D01*
X2305002Y2983045D01*
X2306858Y2982276D01*
X2308527Y2981160D01*
X2310497Y2980769D01*
X2312353Y2980000D01*
X2314361D01*
X2316331Y2979608D01*
X2824725D01*
X2825526Y2979276D01*
X2827196Y2978160D01*
X2829166Y2977769D01*
X2831022Y2977000D01*
X2833030D01*
X2835000Y2976608D01*
X2836970Y2977000D01*
X2838978D01*
X2840834Y2977769D01*
X2842804Y2978160D01*
X2844474Y2979276D01*
X2845275Y2979608D01*
X3464553D01*
X3474608Y2969553D01*
Y2467000D01*
X3476160Y2459196D01*
X3480581Y2452581D01*
X3500581Y2432581D01*
X3507196Y2428160D01*
X3515000Y2426608D01*
X4122000D01*
X4123970Y2427000D01*
X4125978D01*
X4127834Y2427769D01*
X4129804Y2428160D01*
X4131474Y2429276D01*
X4133329Y2430045D01*
X4134749Y2431465D01*
X4136419Y2432581D01*
X4137535Y2434251D01*
X4138955Y2435671D01*
X4139724Y2437526D01*
X4140840Y2439196D01*
X4141231Y2441166D01*
X4142000Y2443022D01*
Y2445030D01*
X4142392Y2447000D01*
X4142000Y2448970D01*
Y2450978D01*
X4141231Y2452834D01*
X4140840Y2454804D01*
X4139724Y2456474D01*
X4138955Y2458329D01*
X4137535Y2459749D01*
X4136419Y2461419D01*
X4134749Y2462535D01*
X4133329Y2463955D01*
X4131474Y2464724D01*
X4129804Y2465840D01*
X4127834Y2466231D01*
X4125978Y2467000D01*
X4123970D01*
X4122000Y2467392D01*
X3523447D01*
X3515392Y2475447D01*
Y2978000D01*
X3513840Y2985804D01*
X3509419Y2992419D01*
X3487419Y3014419D01*
X3480804Y3018840D01*
X3473000Y3020392D01*
X3435581D01*
X3433676Y3025392D01*
X3437955Y3029671D01*
X3441000Y3037022D01*
Y3044978D01*
X3437955Y3052329D01*
X3432329Y3057955D01*
X3424978Y3061000D01*
X3417022D01*
X3409671Y3057955D01*
X3408010Y3056294D01*
X2282335D01*
X2275294Y3063335D01*
Y3127000D01*
X2300000D01*
Y3225741D01*
X2336568D01*
X2338265Y3220741D01*
X2331472Y3215528D01*
X2325060Y3207173D01*
X2321030Y3197442D01*
X2319655Y3187000D01*
Y3182000D01*
X2400345D01*
Y3187000D01*
X2398970Y3197442D01*
X2394940Y3207173D01*
X2388528Y3215528D01*
X2381735Y3220741D01*
X2383432Y3225741D01*
X2436568D01*
X2438265Y3220741D01*
X2431472Y3215528D01*
X2425060Y3207173D01*
X2421030Y3197442D01*
X2419655Y3187000D01*
Y3167000D01*
X2421030Y3156558D01*
X2425060Y3146827D01*
X2431472Y3138472D01*
X2439827Y3132060D01*
X2449558Y3128030D01*
X2460000Y3126655D01*
X2470442Y3128030D01*
X2480173Y3132060D01*
X2488528Y3138472D01*
X2494940Y3146827D01*
X2498970Y3156558D01*
X2500345Y3167000D01*
Y3187000D01*
X2498970Y3197442D01*
X2494940Y3207173D01*
X2488528Y3215528D01*
X2481735Y3220741D01*
X2483432Y3225741D01*
X2536568D01*
X2538265Y3220741D01*
X2531472Y3215528D01*
X2525060Y3207173D01*
X2521030Y3197442D01*
X2519655Y3187000D01*
Y3167000D01*
X2521030Y3156558D01*
X2525060Y3146827D01*
X2531472Y3138472D01*
X2539827Y3132060D01*
X2549558Y3128030D01*
X2560000Y3126655D01*
X2570442Y3128030D01*
X2580173Y3132060D01*
X2588528Y3138472D01*
X2594940Y3146827D01*
X2598970Y3156558D01*
X2600345Y3167000D01*
Y3187000D01*
X2598970Y3197442D01*
X2594940Y3207173D01*
X2588528Y3215528D01*
X2581735Y3220741D01*
X2583432Y3225741D01*
X2679793D01*
X2680121Y3220741D01*
X2679049Y3220600D01*
X2674723Y3220030D01*
X2667943Y3217222D01*
X2662120Y3212754D01*
X2657652Y3206931D01*
X2654843Y3200151D01*
X2653885Y3192874D01*
Y3180000D01*
X2682000D01*
X2710115D01*
Y3192874D01*
X2709157Y3200151D01*
X2706348Y3206931D01*
X2701880Y3212754D01*
X2696057Y3217222D01*
X2689277Y3220030D01*
X2684951Y3220600D01*
X2683879Y3220741D01*
X2684207Y3225741D01*
X2961289D01*
X2961617Y3220741D01*
X2960545Y3220600D01*
X2956219Y3220030D01*
X2949439Y3217222D01*
X2943616Y3212754D01*
X2939148Y3206931D01*
X2936340Y3200151D01*
X2935381Y3192874D01*
Y3180000D01*
X2963496D01*
X2991610D01*
Y3192874D01*
X2990653Y3200151D01*
X2987844Y3206931D01*
X2983376Y3212754D01*
X2977553Y3217222D01*
X2970773Y3220030D01*
X2966447Y3220600D01*
X2965375Y3220741D01*
X2965703Y3225741D01*
X3338804D01*
Y3163005D01*
X3339580Y3159104D01*
X3340341Y3157266D01*
X3342552Y3153958D01*
X3343958Y3152552D01*
X3347266Y3150341D01*
X3349104Y3149580D01*
X3353005Y3148804D01*
X3392591D01*
X3396493Y3149580D01*
X3399433Y3150798D01*
X3402741Y3153008D01*
X3404992Y3155259D01*
X3407202Y3158566D01*
X3407202Y3158567D01*
X3408420Y3161507D01*
X3408420Y3161507D01*
X3409196Y3165409D01*
Y3248521D01*
X3409259Y3249000D01*
X3409196Y3249479D01*
Y3254790D01*
X3408420Y3258692D01*
X3408420Y3258692D01*
X3407050Y3262000D01*
X3404839Y3265308D01*
X3402525Y3267622D01*
X3400396Y3270396D01*
X3393971Y3276821D01*
X3394680Y3281177D01*
X3394898Y3281821D01*
X5360377D01*
X5360891Y3281923D01*
X5371747Y3280494D01*
D02*
G37*
%LPC*%
G36*
X2826547Y3212520D02*
X2818949D01*
X2811609Y3210553D01*
X2805029Y3206754D01*
X2800148Y3201873D01*
X2797157Y3201605D01*
X2794167Y3201873D01*
X2789286Y3206754D01*
X2782706Y3210553D01*
X2775366Y3212520D01*
X2767768D01*
X2760428Y3210553D01*
X2753848Y3206754D01*
X2748475Y3201381D01*
X2744675Y3194800D01*
X2742709Y3187461D01*
Y3179862D01*
X2744675Y3172523D01*
X2748475Y3165942D01*
X2753848Y3160569D01*
X2760428Y3156770D01*
X2767767Y3154803D01*
X2769495Y3152552D01*
X2768299Y3148091D01*
Y3140492D01*
X2770266Y3133153D01*
X2774065Y3126572D01*
X2779438Y3121199D01*
X2786019Y3117400D01*
X2793358Y3115433D01*
X2800957D01*
X2808296Y3117400D01*
X2814877Y3121199D01*
X2819757Y3126079D01*
X2822748Y3126348D01*
X2825739Y3126079D01*
X2830619Y3121199D01*
X2837200Y3117400D01*
X2844539Y3115433D01*
X2852138D01*
X2859477Y3117400D01*
X2866058Y3121199D01*
X2871431Y3126572D01*
X2875230Y3133153D01*
X2877197Y3140492D01*
Y3148091D01*
X2876001Y3152552D01*
X2877729Y3154803D01*
X2885068Y3156770D01*
X2891648Y3160569D01*
X2897021Y3165942D01*
X2900821Y3172523D01*
X2902466Y3178661D01*
X2873929D01*
Y3183661D01*
X2868929D01*
Y3212198D01*
X2862790Y3210553D01*
X2856210Y3206754D01*
X2851329Y3201873D01*
X2848338Y3201605D01*
X2845348Y3201873D01*
X2840467Y3206754D01*
X2833887Y3210553D01*
X2826547Y3212520D01*
D02*
G37*
G36*
X2878929Y3212198D02*
Y3188661D01*
X2902466D01*
X2900821Y3194800D01*
X2897021Y3201381D01*
X2891648Y3206754D01*
X2885068Y3210553D01*
X2878929Y3212198D01*
D02*
G37*
G36*
X2991610Y3170000D02*
X2968496D01*
Y3129670D01*
X2970773Y3129970D01*
X2977553Y3132778D01*
X2983376Y3137246D01*
X2987844Y3143069D01*
X2990653Y3149849D01*
X2991610Y3157126D01*
Y3170000D01*
D02*
G37*
G36*
X2710115D02*
X2687000D01*
Y3129670D01*
X2689277Y3129970D01*
X2696057Y3132778D01*
X2701880Y3137246D01*
X2706348Y3143069D01*
X2709157Y3149849D01*
X2710115Y3157126D01*
Y3170000D01*
D02*
G37*
G36*
X2958496D02*
X2935381D01*
Y3157126D01*
X2936340Y3149849D01*
X2939148Y3143069D01*
X2943616Y3137246D01*
X2949439Y3132778D01*
X2956219Y3129970D01*
X2958496Y3129670D01*
Y3170000D01*
D02*
G37*
G36*
X2677000D02*
X2653885D01*
Y3157126D01*
X2654843Y3149849D01*
X2657652Y3143069D01*
X2662120Y3137246D01*
X2667943Y3132778D01*
X2674723Y3129970D01*
X2677000Y3129670D01*
Y3170000D01*
D02*
G37*
G36*
X2400345Y3172000D02*
X2365000D01*
Y3127313D01*
X2370442Y3128030D01*
X2380173Y3132060D01*
X2388528Y3138472D01*
X2394940Y3146827D01*
X2398970Y3156558D01*
X2400345Y3167000D01*
Y3172000D01*
D02*
G37*
G36*
X2355000D02*
X2319655D01*
Y3167000D01*
X2321030Y3156558D01*
X2325060Y3146827D01*
X2331472Y3138472D01*
X2339827Y3132060D01*
X2349558Y3128030D01*
X2355000Y3127313D01*
Y3172000D01*
D02*
G37*
G36*
X798694Y3190186D02*
X783621D01*
X769062Y3186285D01*
X756009Y3178749D01*
X745351Y3168091D01*
X737814Y3155037D01*
X733913Y3140478D01*
Y3125406D01*
X737814Y3110847D01*
X745351Y3097793D01*
X756009Y3087135D01*
X769062Y3079599D01*
X783621Y3075698D01*
X798694D01*
X813253Y3079599D01*
X826306Y3087135D01*
X836964Y3097793D01*
X844500Y3110847D01*
X848402Y3125406D01*
Y3140478D01*
X844500Y3155037D01*
X836964Y3168091D01*
X826306Y3178749D01*
X813253Y3186285D01*
X798694Y3190186D01*
D02*
G37*
G36*
X2147978Y2962000D02*
X2140022D01*
X2132671Y2958955D01*
X2127045Y2953329D01*
X2124000Y2945978D01*
Y2938022D01*
X2127045Y2930671D01*
X2132671Y2925045D01*
X2140022Y2922000D01*
X2147978D01*
X2155329Y2925045D01*
X2155990Y2925706D01*
X2672010D01*
X2674671Y2923045D01*
X2682022Y2920000D01*
X2689978D01*
X2697329Y2923045D01*
X2702955Y2928671D01*
X2706000Y2936022D01*
Y2943978D01*
X2702955Y2951329D01*
X2697329Y2956955D01*
X2689978Y2960000D01*
X2682022D01*
X2674671Y2956955D01*
X2674010Y2956294D01*
X2157990D01*
X2155329Y2958955D01*
X2147978Y2962000D01*
D02*
G37*
G36*
X1558189Y2871682D02*
X1543811D01*
X1529709Y2868877D01*
X1516425Y2863375D01*
X1504470Y2855387D01*
X1494303Y2845220D01*
X1486315Y2833265D01*
X1480813Y2819981D01*
X1478008Y2805879D01*
Y2791501D01*
X1480813Y2777399D01*
X1486315Y2764115D01*
X1494303Y2752160D01*
X1504470Y2741993D01*
X1516425Y2734005D01*
X1529709Y2728503D01*
X1543811Y2725698D01*
X1558189D01*
X1572291Y2728503D01*
X1585575Y2734005D01*
X1597530Y2741993D01*
X1607697Y2752160D01*
X1615685Y2764115D01*
X1621187Y2777399D01*
X1623992Y2791501D01*
Y2805879D01*
X1621187Y2819981D01*
X1615685Y2833265D01*
X1607697Y2845220D01*
X1597530Y2855387D01*
X1585575Y2863375D01*
X1572291Y2868877D01*
X1558189Y2871682D01*
D02*
G37*
G36*
X798346D02*
X783968D01*
X769866Y2868877D01*
X756583Y2863375D01*
X744628Y2855387D01*
X734461Y2845220D01*
X726473Y2833265D01*
X720970Y2819981D01*
X718165Y2805879D01*
Y2791501D01*
X720970Y2777399D01*
X726473Y2764115D01*
X734461Y2752160D01*
X744628Y2741993D01*
X756583Y2734005D01*
X769866Y2728503D01*
X783968Y2725698D01*
X798346D01*
X812448Y2728503D01*
X825732Y2734005D01*
X837687Y2741993D01*
X847854Y2752160D01*
X855842Y2764115D01*
X861345Y2777399D01*
X864149Y2791501D01*
Y2805879D01*
X861345Y2819981D01*
X855842Y2833265D01*
X847854Y2845220D01*
X837687Y2855387D01*
X825732Y2863375D01*
X812448Y2868877D01*
X798346Y2871682D01*
D02*
G37*
G36*
X2769978Y2706000D02*
X2762022D01*
X2754671Y2702955D01*
X2753010Y2701294D01*
X2686990D01*
X2685329Y2702955D01*
X2677978Y2706000D01*
X2670022D01*
X2662671Y2702955D01*
X2657045Y2697329D01*
X2654000Y2689978D01*
Y2682022D01*
X2657045Y2674671D01*
X2662671Y2669045D01*
X2670022Y2666000D01*
X2677978D01*
X2685329Y2669045D01*
X2686990Y2670706D01*
X2753010D01*
X2754671Y2669045D01*
X2762022Y2666000D01*
X2769978D01*
X2777329Y2669045D01*
X2782955Y2674671D01*
X2786000Y2682022D01*
Y2689978D01*
X2782955Y2697329D01*
X2777329Y2702955D01*
X2769978Y2706000D01*
D02*
G37*
G36*
X2926443Y2722535D02*
X2918486D01*
X2911135Y2719491D01*
X2905509Y2713865D01*
X2902465Y2706514D01*
Y2698557D01*
X2905509Y2691206D01*
X2911135Y2685580D01*
X2918486Y2682535D01*
X2926443D01*
X2933794Y2685580D01*
X2935455Y2687242D01*
X3033130D01*
X3035155Y2685216D01*
Y2494542D01*
X3033494Y2492880D01*
X3030449Y2485529D01*
Y2477573D01*
X3033494Y2470222D01*
X3039120Y2464596D01*
X3046471Y2461551D01*
X3054427D01*
X3061778Y2464596D01*
X3067404Y2470222D01*
X3070449Y2477573D01*
Y2485529D01*
X3067404Y2492880D01*
X3065743Y2494542D01*
Y2691551D01*
X3064579Y2697404D01*
X3061263Y2702366D01*
X3050279Y2713350D01*
X3045317Y2716665D01*
X3039465Y2717829D01*
X2935455D01*
X2933794Y2719491D01*
X2926443Y2722535D01*
D02*
G37*
G36*
X4817905Y2583196D02*
X4817905Y2583196D01*
X4814723D01*
X4810821Y2582420D01*
X4810821Y2582419D01*
X4804940Y2579984D01*
X4801633Y2577774D01*
X4797132Y2573273D01*
X4794922Y2569965D01*
X4792486Y2564085D01*
X4791710Y2560183D01*
Y2557027D01*
X4790757Y2395107D01*
X4790763Y2395077D01*
X4790757Y2395047D01*
X4790757Y2392054D01*
X4791533Y2388152D01*
X4793824Y2382622D01*
X4796034Y2379314D01*
X4800267Y2375081D01*
X4803575Y2372871D01*
X4809105Y2370580D01*
X4813007Y2369804D01*
X4816000Y2369804D01*
X5001177D01*
X5005079Y2370580D01*
X5012797Y2373777D01*
X5016105Y2375987D01*
X5022012Y2381895D01*
X5024223Y2385203D01*
X5027420Y2392921D01*
X5028196Y2396823D01*
Y2401000D01*
Y2558000D01*
X5028052Y2558724D01*
X5028091Y2559460D01*
X5027428Y2564043D01*
X5027005Y2565240D01*
X5026757Y2566486D01*
X5025136Y2570398D01*
X5022926Y2573706D01*
X5018706Y2577926D01*
X5015399Y2580136D01*
X5009885Y2582420D01*
X5005984Y2583196D01*
X5003000Y2583196D01*
X4817905Y2583196D01*
D02*
G37*
G36*
X3421689Y2940390D02*
X3413732D01*
X3406381Y2937346D01*
X3400755Y2931720D01*
X3397710Y2924369D01*
Y2916412D01*
X3400755Y2909061D01*
X3402416Y2907400D01*
Y2362290D01*
X3403581Y2356437D01*
X3406896Y2351475D01*
X3429091Y2329280D01*
X3434053Y2325965D01*
X3439905Y2324801D01*
X4331285D01*
X4332947Y2323139D01*
X4340297Y2320095D01*
X4348254D01*
X4355605Y2323139D01*
X4361231Y2328765D01*
X4364276Y2336116D01*
Y2344073D01*
X4361231Y2351424D01*
X4360932Y2351723D01*
Y2517647D01*
X4363955Y2520671D01*
X4367000Y2528022D01*
Y2535978D01*
X4363955Y2543329D01*
X4358329Y2548955D01*
X4350978Y2552000D01*
X4343022D01*
X4335671Y2548955D01*
X4330045Y2543329D01*
X4327000Y2535978D01*
Y2528022D01*
X4330045Y2520671D01*
X4330344Y2520372D01*
Y2355388D01*
X3446240D01*
X3433004Y2368624D01*
Y2907400D01*
X3434666Y2909061D01*
X3437710Y2916412D01*
Y2924369D01*
X3434666Y2931720D01*
X3429039Y2937346D01*
X3421689Y2940390D01*
D02*
G37*
G36*
X2801924Y2311000D02*
X2790076D01*
X2778631Y2307933D01*
X2768369Y2302009D01*
X2759991Y2293631D01*
X2754067Y2283369D01*
X2751000Y2271924D01*
Y2260076D01*
X2754067Y2248631D01*
X2759991Y2238369D01*
X2768369Y2229991D01*
X2778631Y2224067D01*
X2790076Y2221000D01*
X2801924D01*
X2813369Y2224067D01*
X2823631Y2229991D01*
X2832009Y2238369D01*
X2837933Y2248631D01*
X2841000Y2260076D01*
Y2271924D01*
X2837933Y2283369D01*
X2832009Y2293631D01*
X2823631Y2302009D01*
X2813369Y2307933D01*
X2801924Y2311000D01*
D02*
G37*
G36*
X2601924D02*
X2590076D01*
X2578631Y2307933D01*
X2568369Y2302009D01*
X2559991Y2293631D01*
X2554067Y2283369D01*
X2551000Y2271924D01*
Y2260076D01*
X2554067Y2248631D01*
X2559991Y2238369D01*
X2568369Y2229991D01*
X2578631Y2224067D01*
X2590076Y2221000D01*
X2601924D01*
X2613369Y2224067D01*
X2623631Y2229991D01*
X2632009Y2238369D01*
X2637933Y2248631D01*
X2641000Y2260076D01*
Y2271924D01*
X2637933Y2283369D01*
X2632009Y2293631D01*
X2623631Y2302009D01*
X2613369Y2307933D01*
X2601924Y2311000D01*
D02*
G37*
G36*
X5507489Y2412850D02*
X5488873D01*
X5470487Y2409938D01*
X5452782Y2404186D01*
X5436195Y2395734D01*
X5421135Y2384792D01*
X5407972Y2371629D01*
X5397029Y2356568D01*
X5388578Y2339982D01*
X5382826Y2322277D01*
X5379913Y2303891D01*
Y2285275D01*
X5382826Y2266888D01*
X5388578Y2249184D01*
X5397029Y2232597D01*
X5407972Y2217537D01*
X5421135Y2204373D01*
X5436195Y2193431D01*
X5452782Y2184980D01*
X5470487Y2179227D01*
X5488873Y2176315D01*
X5507489D01*
X5525876Y2179227D01*
X5543580Y2184980D01*
X5560167Y2193431D01*
X5575227Y2204373D01*
X5588391Y2217537D01*
X5599333Y2232597D01*
X5607784Y2249184D01*
X5613537Y2266888D01*
X5616449Y2285275D01*
Y2303891D01*
X5613537Y2322277D01*
X5607784Y2339982D01*
X5599333Y2356568D01*
X5588391Y2371629D01*
X5575227Y2384792D01*
X5560167Y2395734D01*
X5543580Y2404186D01*
X5525876Y2409938D01*
X5507489Y2412850D01*
D02*
G37*
G36*
X231899D02*
X213283D01*
X194896Y2409938D01*
X177192Y2404186D01*
X160605Y2395734D01*
X145544Y2384792D01*
X132381Y2371629D01*
X121439Y2356568D01*
X112988Y2339982D01*
X107235Y2322277D01*
X104323Y2303891D01*
Y2285275D01*
X107235Y2266888D01*
X112988Y2249184D01*
X121439Y2232597D01*
X132381Y2217537D01*
X145544Y2204373D01*
X160605Y2193431D01*
X177192Y2184980D01*
X194896Y2179227D01*
X213283Y2176315D01*
X231899D01*
X250285Y2179227D01*
X267990Y2184980D01*
X284576Y2193431D01*
X299637Y2204373D01*
X312800Y2217537D01*
X323742Y2232597D01*
X332194Y2249184D01*
X337946Y2266888D01*
X340858Y2285275D01*
Y2303891D01*
X337946Y2322277D01*
X332194Y2339982D01*
X323742Y2356568D01*
X312800Y2371629D01*
X299637Y2384792D01*
X284576Y2395734D01*
X267990Y2404186D01*
X250285Y2409938D01*
X231899Y2412850D01*
D02*
G37*
G36*
X229401Y1942428D02*
X154599D01*
X146335Y1941340D01*
X138635Y1938150D01*
X132023Y1933077D01*
X126949Y1926464D01*
X123760Y1918764D01*
X122672Y1910501D01*
Y1867194D01*
X123760Y1858931D01*
X126949Y1851231D01*
X132023Y1844618D01*
X138635Y1839545D01*
X146335Y1836355D01*
X154599Y1835267D01*
X229401D01*
X237665Y1836355D01*
X245365Y1839545D01*
X251977Y1844618D01*
X257051Y1851231D01*
X260240Y1858931D01*
X261328Y1867194D01*
Y1910501D01*
X260240Y1918764D01*
X257051Y1926464D01*
X251977Y1933077D01*
X245365Y1938150D01*
X237665Y1941340D01*
X229401Y1942428D01*
D02*
G37*
G36*
X5542000Y1856409D02*
Y1825740D01*
X5572669D01*
X5570312Y1834538D01*
X5565605Y1842690D01*
X5558950Y1849346D01*
X5550798Y1854052D01*
X5542000Y1856409D01*
D02*
G37*
G36*
X5532000D02*
X5523202Y1854052D01*
X5515050Y1849346D01*
X5508395Y1842690D01*
X5503688Y1834538D01*
X5501331Y1825740D01*
X5532000D01*
Y1856409D01*
D02*
G37*
G36*
X2783978Y1883000D02*
X2776022D01*
X2768671Y1879955D01*
X2763045Y1874329D01*
X2760000Y1866978D01*
Y1864629D01*
X2739186Y1843814D01*
X2735870Y1838853D01*
X2734706Y1833000D01*
Y1662937D01*
X2735870Y1657084D01*
X2739186Y1652123D01*
X2752968Y1638340D01*
Y1635990D01*
X2756013Y1628639D01*
X2757675Y1626978D01*
Y1496303D01*
X2746665Y1485294D01*
X2679990D01*
X2678329Y1486955D01*
X2670978Y1490000D01*
X2663022D01*
X2655671Y1486955D01*
X2650045Y1481329D01*
X2647000Y1473978D01*
Y1466022D01*
X2650045Y1458671D01*
X2655671Y1453045D01*
X2663022Y1450000D01*
X2670978D01*
X2678329Y1453045D01*
X2679990Y1454706D01*
X2753000D01*
X2758853Y1455870D01*
X2763814Y1459186D01*
X2783783Y1479154D01*
X2787098Y1484116D01*
X2788262Y1489968D01*
Y1626978D01*
X2789924Y1628639D01*
X2792968Y1635990D01*
Y1643947D01*
X2789924Y1651298D01*
X2784298Y1656924D01*
X2776947Y1659968D01*
X2774597D01*
X2765294Y1669272D01*
Y1694461D01*
X2770294Y1696532D01*
X2771726Y1695100D01*
X2779077Y1692055D01*
X2787033D01*
X2794384Y1695100D01*
X2800010Y1700726D01*
X2803055Y1708077D01*
Y1716033D01*
X2800010Y1723384D01*
X2798349Y1725045D01*
Y1801706D01*
X3001010D01*
X3002671Y1800045D01*
X3010022Y1797000D01*
X3017978D01*
X3025329Y1800045D01*
X3030955Y1805671D01*
X3034000Y1813022D01*
Y1820978D01*
X3030955Y1828329D01*
X3025329Y1833955D01*
X3017978Y1837000D01*
X3010022D01*
X3002671Y1833955D01*
X3001010Y1832294D01*
X2792000D01*
X2786147Y1831130D01*
X2781186Y1827814D01*
X2772241Y1818870D01*
X2770294Y1815956D01*
X2765294Y1817473D01*
Y1826665D01*
X2781629Y1843000D01*
X2783978D01*
X2791329Y1846045D01*
X2796955Y1851671D01*
X2800000Y1859022D01*
Y1866978D01*
X2796955Y1874329D01*
X2791329Y1879955D01*
X2783978Y1883000D01*
D02*
G37*
G36*
X5532000Y1815740D02*
X5501331D01*
X5503688Y1806942D01*
X5508395Y1798790D01*
X5515050Y1792135D01*
X5523202Y1787428D01*
X5532000Y1785071D01*
Y1815740D01*
D02*
G37*
G36*
X5572669D02*
X5542000D01*
Y1785071D01*
X5550798Y1787428D01*
X5558950Y1792135D01*
X5565605Y1798790D01*
X5570312Y1806942D01*
X5572669Y1815740D01*
D02*
G37*
G36*
X5541706Y1777748D02*
X5532294D01*
X5523202Y1775312D01*
X5515050Y1770605D01*
X5508395Y1763950D01*
X5507495Y1762392D01*
X5383000D01*
X5381893Y1762171D01*
X5371630Y1761161D01*
X5360697Y1757844D01*
X5350621Y1752458D01*
X5341789Y1745211D01*
X5334542Y1736379D01*
X5329156Y1726303D01*
X5325839Y1715370D01*
X5324828Y1705107D01*
X5324608Y1704000D01*
Y235000D01*
X5324725Y234412D01*
X5323654Y223532D01*
X5320309Y212505D01*
X5314876Y202342D01*
X5307566Y193434D01*
X5298658Y186124D01*
X5288495Y180691D01*
X5277468Y177346D01*
X5266588Y176275D01*
X5266000Y176392D01*
X4877046D01*
X4867944Y177590D01*
X4857642Y181857D01*
X4848795Y188646D01*
X4842007Y197493D01*
X4837740Y207795D01*
X4836387Y218072D01*
X4836541Y218850D01*
Y311485D01*
X4845859Y316864D01*
X4854868Y325873D01*
X4861238Y336906D01*
X4864535Y349213D01*
Y361953D01*
X4861238Y374259D01*
X4854868Y385292D01*
X4845859Y394301D01*
X4836778Y399544D01*
Y415522D01*
X4912758Y491502D01*
X4913732Y491374D01*
X4953102D01*
X4960852Y492394D01*
X4968073Y495385D01*
X4974274Y500143D01*
X4977741Y504662D01*
X4982741Y502964D01*
Y305543D01*
X4964614D01*
Y208772D01*
X5061386D01*
Y305543D01*
X5043259D01*
Y856999D01*
X5043259Y857000D01*
X5042228Y864832D01*
X5039205Y872130D01*
X5034396Y878396D01*
X4919259Y993534D01*
Y1108471D01*
X4925287Y1111693D01*
X4935184Y1119816D01*
X4943307Y1129713D01*
X4949343Y1141005D01*
X4953060Y1153258D01*
X4954315Y1166000D01*
Y1176000D01*
X4953060Y1188742D01*
X4949343Y1200995D01*
X4943307Y1212287D01*
X4935184Y1222184D01*
X4925287Y1230307D01*
X4913995Y1236343D01*
X4901742Y1240060D01*
X4889000Y1241314D01*
X4876258Y1240060D01*
X4864005Y1236343D01*
X4852713Y1230307D01*
X4842816Y1222184D01*
X4834693Y1212287D01*
X4828657Y1200995D01*
X4824940Y1188742D01*
X4823685Y1176000D01*
Y1166000D01*
X4824940Y1153258D01*
X4828657Y1141005D01*
X4834693Y1129713D01*
X4842816Y1119816D01*
X4852713Y1111693D01*
X4858741Y1108471D01*
Y981000D01*
X4859772Y973168D01*
X4862795Y965870D01*
X4867604Y959604D01*
X4982741Y844466D01*
Y579036D01*
X4977741Y577338D01*
X4974274Y581857D01*
X4968073Y586615D01*
X4960852Y589606D01*
X4953102Y590626D01*
X4913732D01*
X4905983Y589606D01*
X4898762Y586615D01*
X4892561Y581857D01*
X4887802Y575656D01*
X4884811Y568434D01*
X4883791Y560685D01*
Y521315D01*
X4883919Y520340D01*
X4801967Y438388D01*
X4797546Y431772D01*
X4795994Y423969D01*
Y399817D01*
X4786440Y394301D01*
X4777431Y385292D01*
X4771061Y374259D01*
X4767764Y361953D01*
Y349213D01*
X4771061Y336906D01*
X4777431Y325873D01*
X4786440Y316864D01*
X4795758Y311485D01*
Y218850D01*
X4795749D01*
X4797348Y202609D01*
X4802086Y186992D01*
X4805459Y180680D01*
X4802889Y176392D01*
X4359636D01*
X4352294Y177358D01*
X4344181Y180719D01*
X4337214Y186065D01*
X4331868Y193031D01*
X4328508Y201144D01*
X4327433Y209307D01*
X4327541Y209850D01*
Y311485D01*
X4336859Y316864D01*
X4345868Y325873D01*
X4352238Y336906D01*
X4355535Y349213D01*
Y361953D01*
X4352238Y374259D01*
X4345868Y385292D01*
X4336859Y394301D01*
X4327541Y399681D01*
Y424286D01*
X4394758Y491502D01*
X4395732Y491374D01*
X4435102D01*
X4442852Y492394D01*
X4450073Y495385D01*
X4456274Y500143D01*
X4461032Y506344D01*
X4464023Y513566D01*
X4465044Y521315D01*
Y560685D01*
X4464023Y568434D01*
X4461032Y575656D01*
X4456274Y581857D01*
X4450073Y586615D01*
X4442852Y589606D01*
X4435102Y590626D01*
X4395732D01*
X4387983Y589606D01*
X4380762Y586615D01*
X4374561Y581857D01*
X4369802Y575656D01*
X4366811Y568434D01*
X4365791Y560685D01*
Y521315D01*
X4365919Y520340D01*
X4292730Y447151D01*
X4288310Y440536D01*
X4286758Y432732D01*
Y399681D01*
X4277440Y394301D01*
X4268431Y385292D01*
X4262061Y374259D01*
X4258764Y361953D01*
Y349213D01*
X4262061Y336906D01*
X4268431Y325873D01*
X4277440Y316864D01*
X4286758Y311485D01*
Y209850D01*
X4286826Y209507D01*
X4288218Y195373D01*
X4292441Y181452D01*
X4292854Y180680D01*
X4290283Y176392D01*
X3841833D01*
X3835077Y177281D01*
X3827694Y180339D01*
X3821354Y185204D01*
X3816489Y191544D01*
X3813431Y198927D01*
X3812449Y206385D01*
X3812541Y206850D01*
Y311485D01*
X3821859Y316864D01*
X3830868Y325873D01*
X3837238Y336906D01*
X3840535Y349213D01*
Y361953D01*
X3837238Y374259D01*
X3830868Y385292D01*
X3821859Y394301D01*
X3812541Y399681D01*
Y429619D01*
X3874424Y491502D01*
X3875399Y491374D01*
X3914769D01*
X3922518Y492394D01*
X3929740Y495385D01*
X3935941Y500143D01*
X3940699Y506344D01*
X3943690Y513566D01*
X3944710Y521315D01*
Y560685D01*
X3943690Y568434D01*
X3940699Y575656D01*
X3935941Y581857D01*
X3929740Y586615D01*
X3922518Y589606D01*
X3914769Y590626D01*
X3875399D01*
X3867649Y589606D01*
X3860428Y586615D01*
X3854227Y581857D01*
X3849469Y575656D01*
X3846478Y568434D01*
X3845458Y560685D01*
Y521315D01*
X3845586Y520340D01*
X3777730Y452485D01*
X3773310Y445869D01*
X3771758Y438066D01*
Y399681D01*
X3762440Y394301D01*
X3753431Y385292D01*
X3747061Y374259D01*
X3743764Y361953D01*
Y349213D01*
X3747061Y336906D01*
X3753431Y325873D01*
X3762440Y316864D01*
X3771758Y311485D01*
Y206850D01*
X3771855Y206362D01*
X3773175Y192961D01*
X3776684Y181392D01*
X3773888Y176392D01*
X3362035D01*
X3351777Y177402D01*
X3340024Y180967D01*
X3329192Y186757D01*
X3319698Y194549D01*
X3311907Y204043D01*
X3306117Y214875D01*
X3302552Y226628D01*
X3301412Y238200D01*
X3301541Y238850D01*
Y311485D01*
X3310859Y316864D01*
X3319868Y325873D01*
X3326238Y336906D01*
X3329535Y349213D01*
Y361953D01*
X3326238Y374259D01*
X3319868Y385292D01*
X3310859Y394301D01*
X3301541Y399681D01*
Y424286D01*
X3368758Y491502D01*
X3369732Y491374D01*
X3409102D01*
X3416852Y492394D01*
X3424073Y495385D01*
X3430274Y500143D01*
X3435032Y506344D01*
X3438023Y513566D01*
X3439044Y521315D01*
Y560685D01*
X3438023Y568434D01*
X3435032Y575656D01*
X3430274Y581857D01*
X3424073Y586615D01*
X3416852Y589606D01*
X3409102Y590626D01*
X3369732D01*
X3361983Y589606D01*
X3354762Y586615D01*
X3348561Y581857D01*
X3343802Y575656D01*
X3340811Y568434D01*
X3339791Y560685D01*
Y521315D01*
X3339919Y520340D01*
X3266730Y447151D01*
X3262310Y440536D01*
X3260758Y432732D01*
Y399681D01*
X3251440Y394301D01*
X3242431Y385292D01*
X3236061Y374259D01*
X3232764Y361953D01*
Y349213D01*
X3236061Y336906D01*
X3242431Y325873D01*
X3251440Y316864D01*
X3260758Y311485D01*
Y238850D01*
X3260652D01*
X3262638Y218688D01*
X3268519Y199301D01*
X3278069Y181433D01*
X3278497Y180912D01*
X3276360Y176392D01*
X2932000D01*
X2931070Y176207D01*
X2916415Y177650D01*
X2901429Y182196D01*
X2887618Y189578D01*
X2875513Y199513D01*
X2865578Y211618D01*
X2858196Y225429D01*
X2853650Y240415D01*
X2852207Y255070D01*
X2852392Y256000D01*
Y300261D01*
X2856995Y301657D01*
X2868287Y307693D01*
X2878184Y315816D01*
X2886307Y325713D01*
X2892343Y337005D01*
X2896059Y349258D01*
X2897314Y362000D01*
Y372000D01*
X2896059Y384742D01*
X2892343Y396995D01*
X2886307Y408287D01*
X2878184Y418184D01*
X2868287Y426307D01*
X2856995Y432343D01*
X2852392Y433739D01*
Y524553D01*
X3046419Y718581D01*
X3050840Y725196D01*
X3052392Y733000D01*
Y826000D01*
X3097000D01*
Y966000D01*
X3052392D01*
Y1244553D01*
X3076447Y1268608D01*
X3425000D01*
X3426970Y1269000D01*
X3428978D01*
X3430834Y1269769D01*
X3432804Y1270160D01*
X3434474Y1271276D01*
X3436329Y1272045D01*
X3437749Y1273465D01*
X3439419Y1274581D01*
X3440535Y1276251D01*
X3441955Y1277671D01*
X3442724Y1279526D01*
X3443840Y1281196D01*
X3444231Y1283166D01*
X3445000Y1285022D01*
Y1287030D01*
X3445392Y1289000D01*
X3445000Y1290970D01*
Y1292978D01*
X3444231Y1294834D01*
X3443840Y1296804D01*
X3442724Y1298474D01*
X3441955Y1300329D01*
X3440535Y1301749D01*
X3439419Y1303419D01*
X3437749Y1304535D01*
X3436329Y1305955D01*
X3434474Y1306724D01*
X3432804Y1307840D01*
X3430834Y1308231D01*
X3428978Y1309000D01*
X3426970D01*
X3425000Y1309392D01*
X3068000D01*
X3060196Y1307840D01*
X3053581Y1303419D01*
X3017581Y1267419D01*
X3013160Y1260804D01*
X3011608Y1253000D01*
Y966000D01*
X2967000D01*
Y826000D01*
X3011608D01*
Y741447D01*
X2817581Y547419D01*
X2813160Y540804D01*
X2811608Y533000D01*
Y433739D01*
X2807005Y432343D01*
X2795713Y426307D01*
X2785816Y418184D01*
X2777693Y408287D01*
X2771657Y396995D01*
X2767941Y384742D01*
X2766686Y372000D01*
Y362000D01*
X2767941Y349258D01*
X2771657Y337005D01*
X2777693Y325713D01*
X2785816Y315816D01*
X2795713Y307693D01*
X2807005Y301657D01*
X2811608Y300261D01*
Y256000D01*
X2811642Y255828D01*
X2813111Y237170D01*
X2817520Y218803D01*
X2824749Y201353D01*
X2834618Y185248D01*
X2846885Y170885D01*
X2861248Y158618D01*
X2877353Y148749D01*
X2894803Y141520D01*
X2913170Y137111D01*
X2931828Y135643D01*
X2932000Y135608D01*
X3362926D01*
X3364000Y135502D01*
Y135608D01*
X4878908D01*
X4879000Y135599D01*
Y135608D01*
X5266000D01*
Y135521D01*
X5285407Y137433D01*
X5304069Y143093D01*
X5321268Y152286D01*
X5336342Y164658D01*
X5348714Y179732D01*
X5357907Y196931D01*
X5363568Y215593D01*
X5365479Y235000D01*
X5365392D01*
Y1704000D01*
X5365275Y1704590D01*
X5366515Y1710828D01*
X5370383Y1716617D01*
X5376172Y1720485D01*
X5382410Y1721726D01*
X5383000Y1721608D01*
X5507495D01*
X5508395Y1720050D01*
X5515050Y1713395D01*
X5523202Y1708688D01*
X5532294Y1706252D01*
X5541706D01*
X5550798Y1708688D01*
X5558950Y1713395D01*
X5565605Y1720050D01*
X5570312Y1728202D01*
X5572748Y1737294D01*
Y1746706D01*
X5570312Y1755798D01*
X5565605Y1763950D01*
X5558950Y1770605D01*
X5550798Y1775312D01*
X5541706Y1777748D01*
D02*
G37*
G36*
X2908923Y1637055D02*
X2900967D01*
X2893616Y1634010D01*
X2891954Y1632349D01*
X2855055D01*
X2849202Y1631185D01*
X2844241Y1627870D01*
X2833186Y1616814D01*
X2829870Y1611853D01*
X2828706Y1606000D01*
Y1316990D01*
X2827045Y1315329D01*
X2824000Y1307978D01*
Y1300022D01*
X2827045Y1292671D01*
X2832671Y1287045D01*
X2840022Y1284000D01*
X2847978D01*
X2855329Y1287045D01*
X2860955Y1292671D01*
X2864000Y1300022D01*
Y1307978D01*
X2860955Y1315329D01*
X2859294Y1316990D01*
Y1599665D01*
X2861390Y1601761D01*
X2891954D01*
X2893616Y1600100D01*
X2900967Y1597055D01*
X2908923D01*
X2916274Y1600100D01*
X2921900Y1605726D01*
X2924945Y1613077D01*
Y1621033D01*
X2921900Y1628384D01*
X2916274Y1634010D01*
X2908923Y1637055D01*
D02*
G37*
G36*
X229401Y1572349D02*
X154599D01*
X146335Y1571261D01*
X138635Y1568072D01*
X132023Y1562998D01*
X126949Y1556386D01*
X123760Y1548685D01*
X122672Y1540422D01*
Y1497115D01*
X123760Y1488852D01*
X126949Y1481152D01*
X132023Y1474540D01*
X138635Y1469466D01*
X146335Y1466276D01*
X154599Y1465188D01*
X229401D01*
X237665Y1466276D01*
X245365Y1469466D01*
X251977Y1474540D01*
X257051Y1481152D01*
X260240Y1488852D01*
X261328Y1497115D01*
Y1540422D01*
X260240Y1548685D01*
X257051Y1556386D01*
X251977Y1562998D01*
X245365Y1568072D01*
X237665Y1571261D01*
X229401Y1572349D01*
D02*
G37*
G36*
X4946000Y1837392D02*
X4944030Y1837000D01*
X4942022D01*
X4940166Y1836231D01*
X4938196Y1835840D01*
X4936526Y1834724D01*
X4934671Y1833955D01*
X4933251Y1832535D01*
X4931581Y1831419D01*
X4930465Y1829749D01*
X4929045Y1828329D01*
X4928276Y1826474D01*
X4927160Y1824804D01*
X4926769Y1822834D01*
X4926000Y1820978D01*
Y1818970D01*
X4925608Y1817000D01*
Y1482447D01*
X4892581Y1449419D01*
X4891465Y1447749D01*
X4890045Y1446329D01*
X4889276Y1444474D01*
X4888160Y1442804D01*
X4887769Y1440834D01*
X4887000Y1438978D01*
Y1436970D01*
X4886608Y1435000D01*
X4887000Y1433030D01*
Y1431022D01*
X4887769Y1429166D01*
X4888160Y1427196D01*
X4889276Y1425526D01*
X4890045Y1423671D01*
X4891465Y1422251D01*
X4892581Y1420581D01*
X4894251Y1419465D01*
X4895671Y1418045D01*
X4897526Y1417276D01*
X4899196Y1416160D01*
X4901166Y1415769D01*
X4903022Y1415000D01*
X4905030D01*
X4907000Y1414608D01*
X4908970Y1415000D01*
X4910978D01*
X4912834Y1415769D01*
X4914804Y1416160D01*
X4916474Y1417276D01*
X4918329Y1418045D01*
X4919749Y1419465D01*
X4921419Y1420581D01*
X4960419Y1459581D01*
X4964840Y1466196D01*
X4966392Y1474000D01*
Y1817000D01*
X4966000Y1818970D01*
Y1820978D01*
X4965231Y1822834D01*
X4964840Y1824804D01*
X4963724Y1826474D01*
X4962955Y1828329D01*
X4961535Y1829749D01*
X4960419Y1831419D01*
X4958749Y1832535D01*
X4957329Y1833955D01*
X4955474Y1834724D01*
X4953804Y1835840D01*
X4951834Y1836231D01*
X4949978Y1837000D01*
X4947970D01*
X4946000Y1837392D01*
D02*
G37*
G36*
X4996000D02*
X4994030Y1837000D01*
X4992022D01*
X4990166Y1836231D01*
X4988196Y1835840D01*
X4986526Y1834724D01*
X4984671Y1833955D01*
X4983251Y1832535D01*
X4981581Y1831419D01*
X4980465Y1829749D01*
X4979045Y1828329D01*
X4978276Y1826474D01*
X4977160Y1824804D01*
X4976769Y1822834D01*
X4976000Y1820978D01*
Y1818970D01*
X4975608Y1817000D01*
Y1458000D01*
X4977160Y1450196D01*
X4981581Y1443581D01*
X5005581Y1419581D01*
X5007251Y1418465D01*
X5008671Y1417045D01*
X5010526Y1416276D01*
X5012196Y1415160D01*
X5014166Y1414769D01*
X5016022Y1414000D01*
X5018030D01*
X5020000Y1413608D01*
X5021970Y1414000D01*
X5023978D01*
X5025834Y1414769D01*
X5027804Y1415160D01*
X5029474Y1416276D01*
X5031329Y1417045D01*
X5032749Y1418465D01*
X5034419Y1419581D01*
X5035535Y1421251D01*
X5036955Y1422671D01*
X5037724Y1424526D01*
X5038840Y1426196D01*
X5039231Y1428166D01*
X5040000Y1430022D01*
Y1432030D01*
X5040392Y1434000D01*
X5040000Y1435970D01*
Y1437978D01*
X5039231Y1439834D01*
X5038840Y1441804D01*
X5037724Y1443474D01*
X5036955Y1445329D01*
X5035535Y1446749D01*
X5034419Y1448419D01*
X5016392Y1466447D01*
Y1817000D01*
X5016000Y1818970D01*
Y1820978D01*
X5015231Y1822834D01*
X5014840Y1824804D01*
X5013724Y1826474D01*
X5012955Y1828329D01*
X5011535Y1829749D01*
X5010419Y1831419D01*
X5008749Y1832535D01*
X5007329Y1833955D01*
X5005474Y1834724D01*
X5003804Y1835840D01*
X5001834Y1836231D01*
X4999978Y1837000D01*
X4997970D01*
X4996000Y1837392D01*
D02*
G37*
G36*
X5046000D02*
X5044030Y1837000D01*
X5042022D01*
X5040166Y1836231D01*
X5038196Y1835840D01*
X5036526Y1834724D01*
X5034671Y1833955D01*
X5033251Y1832535D01*
X5031581Y1831419D01*
X5030465Y1829749D01*
X5029045Y1828329D01*
X5028276Y1826474D01*
X5027160Y1824804D01*
X5026769Y1822834D01*
X5026000Y1820978D01*
Y1818970D01*
X5025608Y1817000D01*
Y1516142D01*
X5027160Y1508339D01*
X5031581Y1501723D01*
X5115723Y1417581D01*
X5117393Y1416465D01*
X5118813Y1415045D01*
X5120669Y1414276D01*
X5122338Y1413160D01*
X5124308Y1412769D01*
X5126164Y1412000D01*
X5128172D01*
X5130142Y1411608D01*
X5132112Y1412000D01*
X5134120D01*
X5135976Y1412769D01*
X5137946Y1413160D01*
X5139616Y1414276D01*
X5141471Y1415045D01*
X5142891Y1416465D01*
X5144561Y1417581D01*
X5145677Y1419251D01*
X5147097Y1420671D01*
X5147866Y1422526D01*
X5148982Y1424196D01*
X5149373Y1426166D01*
X5150142Y1428022D01*
Y1430030D01*
X5150534Y1432000D01*
X5150142Y1433970D01*
Y1435978D01*
X5149373Y1437834D01*
X5148982Y1439804D01*
X5147866Y1441474D01*
X5147097Y1443329D01*
X5145677Y1444749D01*
X5144561Y1446419D01*
X5066392Y1524589D01*
Y1817000D01*
X5066000Y1818970D01*
Y1820978D01*
X5065231Y1822834D01*
X5064840Y1824804D01*
X5063724Y1826474D01*
X5062955Y1828329D01*
X5061535Y1829749D01*
X5060419Y1831419D01*
X5058749Y1832535D01*
X5057329Y1833955D01*
X5055474Y1834724D01*
X5053804Y1835840D01*
X5051834Y1836231D01*
X5049978Y1837000D01*
X5047970D01*
X5046000Y1837392D01*
D02*
G37*
G36*
X5092691D02*
X5090721Y1837000D01*
X5088713D01*
X5086857Y1836231D01*
X5084887Y1835840D01*
X5083217Y1834724D01*
X5081362Y1833955D01*
X5079942Y1832535D01*
X5078272Y1831419D01*
X5077156Y1829749D01*
X5075736Y1828329D01*
X5074967Y1826474D01*
X5073851Y1824804D01*
X5073460Y1822834D01*
X5072691Y1820978D01*
Y1818970D01*
X5072299Y1817000D01*
Y1578784D01*
X5073851Y1570981D01*
X5078272Y1564365D01*
X5227056Y1415581D01*
X5228726Y1414465D01*
X5230146Y1413045D01*
X5232002Y1412276D01*
X5233672Y1411160D01*
X5235642Y1410769D01*
X5237497Y1410000D01*
X5239506D01*
X5241475Y1409608D01*
X5243445Y1410000D01*
X5245454D01*
X5247309Y1410769D01*
X5249279Y1411160D01*
X5250949Y1412276D01*
X5252805Y1413045D01*
X5254225Y1414465D01*
X5255895Y1415581D01*
X5257010Y1417251D01*
X5258431Y1418671D01*
X5259199Y1420526D01*
X5260315Y1422196D01*
X5260707Y1424166D01*
X5261475Y1426022D01*
Y1428030D01*
X5261867Y1430000D01*
X5261475Y1431970D01*
Y1433978D01*
X5260707Y1435834D01*
X5260315Y1437804D01*
X5259199Y1439474D01*
X5258431Y1441329D01*
X5257010Y1442749D01*
X5255895Y1444419D01*
X5113083Y1587231D01*
Y1817000D01*
X5112691Y1818970D01*
Y1820978D01*
X5111922Y1822834D01*
X5111531Y1824804D01*
X5110415Y1826474D01*
X5109646Y1828329D01*
X5108226Y1829749D01*
X5107110Y1831419D01*
X5105440Y1832535D01*
X5104020Y1833955D01*
X5102164Y1834724D01*
X5100495Y1835840D01*
X5098525Y1836231D01*
X5096669Y1837000D01*
X5094661D01*
X5092691Y1837392D01*
D02*
G37*
G36*
X3501000Y1253867D02*
X3491000D01*
X3479905Y1252406D01*
X3469567Y1248124D01*
X3460689Y1241311D01*
X3453876Y1232433D01*
X3449594Y1222095D01*
X3448133Y1211000D01*
X3449594Y1199905D01*
X3453876Y1189567D01*
X3460689Y1180689D01*
X3469567Y1173876D01*
X3479905Y1169594D01*
X3491000Y1168133D01*
X3501000D01*
X3512095Y1169594D01*
X3522433Y1173876D01*
X3531311Y1180689D01*
X3538124Y1189567D01*
X3542406Y1199905D01*
X3543867Y1211000D01*
X3542406Y1222095D01*
X3538124Y1232433D01*
X3531311Y1241311D01*
X3522433Y1248124D01*
X3512095Y1252406D01*
X3501000Y1253867D01*
D02*
G37*
G36*
X3251000D02*
X3241000D01*
X3229905Y1252406D01*
X3219567Y1248124D01*
X3210689Y1241311D01*
X3203876Y1232433D01*
X3199594Y1222095D01*
X3198133Y1211000D01*
X3199594Y1199905D01*
X3203876Y1189567D01*
X3210689Y1180689D01*
X3219567Y1173876D01*
X3229905Y1169594D01*
X3241000Y1168133D01*
X3251000D01*
X3262095Y1169594D01*
X3272433Y1173876D01*
X3281311Y1180689D01*
X3288124Y1189567D01*
X3292406Y1199905D01*
X3293867Y1211000D01*
X3292406Y1222095D01*
X3288124Y1232433D01*
X3281311Y1241311D01*
X3272433Y1248124D01*
X3262095Y1252406D01*
X3251000Y1253867D01*
D02*
G37*
G36*
X3502000Y1076867D02*
D01*
Y1039000D01*
X3544209D01*
X3543406Y1045095D01*
X3539124Y1055433D01*
X3532311Y1064311D01*
X3523433Y1071124D01*
X3513095Y1075406D01*
X3502000Y1076867D01*
D02*
G37*
G36*
X3492000D02*
X3480905Y1075406D01*
X3470567Y1071124D01*
X3461689Y1064311D01*
X3454876Y1055433D01*
X3450594Y1045095D01*
X3449791Y1039000D01*
X3492000D01*
Y1076867D01*
D02*
G37*
G36*
X3252000Y1075867D02*
D01*
Y1038000D01*
X3294209D01*
X3293406Y1044095D01*
X3289124Y1054433D01*
X3282311Y1063311D01*
X3273433Y1070124D01*
X3263095Y1074406D01*
X3252000Y1075867D01*
D02*
G37*
G36*
X3242000D02*
X3230905Y1074406D01*
X3220567Y1070124D01*
X3211689Y1063311D01*
X3204876Y1054433D01*
X3200594Y1044095D01*
X3199791Y1038000D01*
X3242000D01*
Y1075867D01*
D02*
G37*
G36*
X5507489Y1231748D02*
X5488873D01*
X5470487Y1228836D01*
X5452782Y1223083D01*
X5436195Y1214632D01*
X5421135Y1203690D01*
X5407972Y1190526D01*
X5397029Y1175466D01*
X5388578Y1158879D01*
X5382826Y1141175D01*
X5379913Y1122788D01*
Y1104172D01*
X5382826Y1085786D01*
X5388578Y1068081D01*
X5397029Y1051495D01*
X5407972Y1036434D01*
X5421135Y1023271D01*
X5436195Y1012329D01*
X5452782Y1003877D01*
X5470487Y998125D01*
X5488873Y995213D01*
X5507489D01*
X5525876Y998125D01*
X5543580Y1003877D01*
X5560167Y1012329D01*
X5575227Y1023271D01*
X5588391Y1036434D01*
X5599333Y1051495D01*
X5607784Y1068081D01*
X5613537Y1085786D01*
X5616449Y1104172D01*
Y1122788D01*
X5613537Y1141175D01*
X5607784Y1158879D01*
X5599333Y1175466D01*
X5588391Y1190526D01*
X5575227Y1203690D01*
X5560167Y1214632D01*
X5543580Y1223083D01*
X5525876Y1228836D01*
X5507489Y1231748D01*
D02*
G37*
G36*
X231899D02*
X213283D01*
X194896Y1228836D01*
X177192Y1223083D01*
X160605Y1214632D01*
X145544Y1203690D01*
X132381Y1190526D01*
X121439Y1175466D01*
X112988Y1158879D01*
X107235Y1141175D01*
X104323Y1122788D01*
Y1104172D01*
X107235Y1085786D01*
X112988Y1068081D01*
X121439Y1051495D01*
X132381Y1036434D01*
X145544Y1023271D01*
X160605Y1012329D01*
X177192Y1003877D01*
X194896Y998125D01*
X213283Y995213D01*
X231899D01*
X250285Y998125D01*
X267990Y1003877D01*
X284576Y1012329D01*
X299637Y1023271D01*
X312800Y1036434D01*
X323742Y1051495D01*
X332194Y1068081D01*
X337946Y1085786D01*
X340858Y1104172D01*
Y1122788D01*
X337946Y1141175D01*
X332194Y1158879D01*
X323742Y1175466D01*
X312800Y1190526D01*
X299637Y1203690D01*
X284576Y1214632D01*
X267990Y1223083D01*
X250285Y1228836D01*
X231899Y1231748D01*
D02*
G37*
G36*
X3544209Y1029000D02*
X3502000D01*
Y991133D01*
X3513095Y992594D01*
X3523433Y996876D01*
X3532311Y1003689D01*
X3539124Y1012567D01*
X3543406Y1022905D01*
X3544209Y1029000D01*
D02*
G37*
G36*
X3492000D02*
X3449791D01*
X3450594Y1022905D01*
X3454876Y1012567D01*
X3461689Y1003689D01*
X3470567Y996876D01*
X3480905Y992594D01*
X3492000Y991133D01*
D01*
Y1029000D01*
D02*
G37*
G36*
X3294209Y1028000D02*
X3252000D01*
Y990133D01*
X3263095Y991594D01*
X3273433Y995876D01*
X3282311Y1002689D01*
X3289124Y1011567D01*
X3293406Y1021905D01*
X3294209Y1028000D01*
D02*
G37*
G36*
X3242000D02*
X3199791D01*
X3200594Y1021905D01*
X3204876Y1011567D01*
X3211689Y1002689D01*
X3220567Y995876D01*
X3230905Y991594D01*
X3242000Y990133D01*
D01*
Y1028000D01*
D02*
G37*
G36*
X2837000Y965822D02*
Y901000D01*
X2897314D01*
X2896059Y913742D01*
X2892343Y925995D01*
X2886307Y937287D01*
X2878184Y947184D01*
X2868287Y955307D01*
X2856995Y961343D01*
X2844742Y965059D01*
X2837000Y965822D01*
D02*
G37*
G36*
X2827000D02*
X2819258Y965059D01*
X2807005Y961343D01*
X2795713Y955307D01*
X2785816Y947184D01*
X2777693Y937287D01*
X2771657Y925995D01*
X2767941Y913742D01*
X2766686Y901000D01*
D01*
X2827000D01*
Y965822D01*
D02*
G37*
G36*
X2897314Y891000D02*
X2837000D01*
Y826178D01*
X2844742Y826941D01*
X2856995Y830657D01*
X2868287Y836693D01*
X2878184Y844816D01*
X2886307Y854713D01*
X2892343Y866005D01*
X2896059Y878258D01*
X2897314Y891000D01*
D01*
D02*
G37*
G36*
X2827000D02*
X2766686D01*
X2767941Y878258D01*
X2771657Y866005D01*
X2777693Y854713D01*
X2785816Y844816D01*
X2795713Y836693D01*
X2807005Y830657D01*
X2819258Y826941D01*
X2827000Y826178D01*
Y891000D01*
D02*
G37*
G36*
X2697000Y966000D02*
X2567000D01*
Y826000D01*
X2697000D01*
Y966000D01*
D02*
G37*
G36*
X2432000Y966314D02*
X2419258Y965059D01*
X2407005Y961343D01*
X2395713Y955307D01*
X2385816Y947184D01*
X2377693Y937287D01*
X2371657Y925995D01*
X2367941Y913742D01*
X2366686Y901000D01*
Y891000D01*
X2367941Y878258D01*
X2371657Y866005D01*
X2377693Y854713D01*
X2385816Y844816D01*
X2395713Y836693D01*
X2407005Y830657D01*
X2419258Y826941D01*
X2432000Y825686D01*
X2444742Y826941D01*
X2456995Y830657D01*
X2468287Y836693D01*
X2478184Y844816D01*
X2486307Y854713D01*
X2492343Y866005D01*
X2496059Y878258D01*
X2497314Y891000D01*
Y901000D01*
X2496059Y913742D01*
X2492343Y925995D01*
X2486307Y937287D01*
X2478184Y947184D01*
X2468287Y955307D01*
X2456995Y961343D01*
X2444742Y965059D01*
X2432000Y966314D01*
D02*
G37*
G36*
X5154000Y1241000D02*
X5024000D01*
Y1101000D01*
X5116207D01*
X5179592Y1037616D01*
Y795327D01*
X5171132Y786867D01*
X5164762Y775834D01*
X5161465Y763528D01*
Y750787D01*
X5164762Y738481D01*
X5171132Y727448D01*
X5180141Y718439D01*
X5191174Y712069D01*
X5203480Y708772D01*
X5216221D01*
X5228527Y712069D01*
X5239560Y718439D01*
X5248569Y727448D01*
X5254939Y738481D01*
X5258236Y750787D01*
Y763528D01*
X5254939Y775834D01*
X5248569Y786867D01*
X5240109Y795327D01*
Y1050149D01*
X5240109Y1050149D01*
X5239078Y1057981D01*
X5236055Y1065279D01*
X5231247Y1071546D01*
X5154000Y1148793D01*
Y1241000D01*
D02*
G37*
G36*
X4822520Y805543D02*
X4809779D01*
X4797473Y802246D01*
X4786440Y795876D01*
X4777431Y786867D01*
X4771061Y775834D01*
X4767764Y763528D01*
Y750787D01*
X4771061Y738481D01*
X4777431Y727448D01*
X4786440Y718439D01*
X4797473Y712069D01*
X4809779Y708772D01*
X4822520D01*
X4834826Y712069D01*
X4845859Y718439D01*
X4854868Y727448D01*
X4861238Y738481D01*
X4864535Y750787D01*
Y763528D01*
X4861238Y775834D01*
X4854868Y786867D01*
X4845859Y795876D01*
X4834826Y802246D01*
X4822520Y805543D01*
D02*
G37*
G36*
X4753500Y1241000D02*
X4623500D01*
Y1101000D01*
X4670592D01*
Y795327D01*
X4662132Y786867D01*
X4655762Y775834D01*
X4652465Y763528D01*
Y750787D01*
X4655762Y738481D01*
X4662132Y727448D01*
X4671141Y718439D01*
X4682174Y712069D01*
X4694480Y708772D01*
X4707221D01*
X4719527Y712069D01*
X4730560Y718439D01*
X4739569Y727448D01*
X4745939Y738481D01*
X4749236Y750787D01*
Y763528D01*
X4745939Y775834D01*
X4739569Y786867D01*
X4731109Y795327D01*
Y1101000D01*
X4753500D01*
Y1241000D01*
D02*
G37*
G36*
X4313520Y805543D02*
X4300779D01*
X4288473Y802246D01*
X4277440Y795876D01*
X4268431Y786867D01*
X4262061Y775834D01*
X4258764Y763528D01*
Y750787D01*
X4262061Y738481D01*
X4268431Y727448D01*
X4277440Y718439D01*
X4288473Y712069D01*
X4300779Y708772D01*
X4313520D01*
X4325826Y712069D01*
X4336859Y718439D01*
X4345868Y727448D01*
X4352238Y738481D01*
X4355535Y750787D01*
Y763528D01*
X4352238Y775834D01*
X4345868Y786867D01*
X4336859Y795876D01*
X4325826Y802246D01*
X4313520Y805543D01*
D02*
G37*
G36*
X4353000Y1241000D02*
X4223000D01*
Y1101000D01*
X4257741D01*
Y1016534D01*
X4164454Y923247D01*
X4159645Y916980D01*
X4156623Y909682D01*
X4155592Y901850D01*
Y795327D01*
X4147132Y786867D01*
X4140762Y775834D01*
X4137465Y763528D01*
Y750787D01*
X4140762Y738481D01*
X4147132Y727448D01*
X4156141Y718439D01*
X4167174Y712069D01*
X4179480Y708772D01*
X4192221D01*
X4204527Y712069D01*
X4215560Y718439D01*
X4224569Y727448D01*
X4230939Y738481D01*
X4234236Y750787D01*
Y763528D01*
X4230939Y775834D01*
X4224569Y786867D01*
X4216109Y795327D01*
Y889317D01*
X4309396Y982603D01*
X4309396Y982604D01*
X4314205Y988870D01*
X4317228Y996168D01*
X4318259Y1004000D01*
Y1101000D01*
X4353000D01*
Y1241000D01*
D02*
G37*
G36*
X3798520Y805543D02*
X3785780D01*
X3773473Y802246D01*
X3762440Y795876D01*
X3753431Y786867D01*
X3747061Y775834D01*
X3743764Y763528D01*
Y750787D01*
X3747061Y738481D01*
X3753431Y727448D01*
X3762440Y718439D01*
X3773473Y712069D01*
X3785780Y708772D01*
X3798520D01*
X3810826Y712069D01*
X3821859Y718439D01*
X3830868Y727448D01*
X3837238Y738481D01*
X3840535Y750787D01*
Y763528D01*
X3837238Y775834D01*
X3830868Y786867D01*
X3821859Y795876D01*
X3810826Y802246D01*
X3798520Y805543D01*
D02*
G37*
G36*
X3952500Y1241000D02*
X3822500D01*
Y1101000D01*
X3857241D01*
Y1059034D01*
X3653454Y855247D01*
X3648645Y848980D01*
X3645622Y841682D01*
X3644591Y833850D01*
Y795327D01*
X3636132Y786867D01*
X3629762Y775834D01*
X3626465Y763528D01*
Y750787D01*
X3629762Y738481D01*
X3636132Y727448D01*
X3645141Y718439D01*
X3656174Y712069D01*
X3668480Y708772D01*
X3681220D01*
X3693527Y712069D01*
X3704560Y718439D01*
X3713569Y727448D01*
X3719939Y738481D01*
X3723236Y750787D01*
Y763528D01*
X3719939Y775834D01*
X3713569Y786867D01*
X3705109Y795327D01*
Y821317D01*
X3908896Y1025103D01*
X3908896Y1025104D01*
X3913705Y1031370D01*
X3916728Y1038668D01*
X3917759Y1046500D01*
Y1101000D01*
X3952500D01*
Y1241000D01*
D02*
G37*
G36*
X3287520Y805543D02*
X3274780D01*
X3262473Y802246D01*
X3251440Y795876D01*
X3242431Y786867D01*
X3236061Y775834D01*
X3232764Y763528D01*
Y750787D01*
X3236061Y738481D01*
X3242431Y727448D01*
X3251440Y718439D01*
X3262473Y712069D01*
X3274780Y708772D01*
X3287520D01*
X3299826Y712069D01*
X3310859Y718439D01*
X3319868Y727448D01*
X3326238Y738481D01*
X3329535Y750787D01*
Y763528D01*
X3326238Y775834D01*
X3319868Y786867D01*
X3310859Y795876D01*
X3299826Y802246D01*
X3287520Y805543D01*
D02*
G37*
G36*
X1558189Y681918D02*
X1543811D01*
X1529709Y679113D01*
X1516425Y673611D01*
X1504470Y665623D01*
X1494303Y655456D01*
X1486315Y643501D01*
X1480813Y630217D01*
X1478008Y616115D01*
Y601737D01*
X1480813Y587635D01*
X1486315Y574351D01*
X1494303Y562396D01*
X1504470Y552230D01*
X1516425Y544241D01*
X1529709Y538739D01*
X1543811Y535934D01*
X1558189D01*
X1572291Y538739D01*
X1585575Y544241D01*
X1597530Y552230D01*
X1607697Y562396D01*
X1615685Y574351D01*
X1621187Y587635D01*
X1623992Y601737D01*
Y616115D01*
X1621187Y630217D01*
X1615685Y643501D01*
X1607697Y655456D01*
X1597530Y665623D01*
X1585575Y673611D01*
X1572291Y679113D01*
X1558189Y681918D01*
D02*
G37*
G36*
X798346D02*
X783968D01*
X769866Y679113D01*
X756583Y673611D01*
X744628Y665623D01*
X734461Y655456D01*
X726473Y643501D01*
X720970Y630217D01*
X718165Y616115D01*
Y601737D01*
X720970Y587635D01*
X726473Y574351D01*
X734461Y562396D01*
X744628Y552230D01*
X756583Y544241D01*
X769866Y538739D01*
X783968Y535934D01*
X798346D01*
X812448Y538739D01*
X825732Y544241D01*
X837687Y552230D01*
X847854Y562396D01*
X855842Y574351D01*
X861345Y587635D01*
X864149Y601737D01*
Y616115D01*
X861345Y630217D01*
X855842Y643501D01*
X847854Y655456D01*
X837687Y665623D01*
X825732Y673611D01*
X812448Y679113D01*
X798346Y681918D01*
D02*
G37*
G36*
X2697000Y437000D02*
X2637000D01*
Y372000D01*
X2697000D01*
Y437000D01*
D02*
G37*
G36*
X3097000D02*
X3037000D01*
Y372000D01*
X3097000D01*
Y437000D01*
D02*
G37*
G36*
X2627000D02*
X2567000D01*
Y372000D01*
X2627000D01*
Y437000D01*
D02*
G37*
G36*
X3027000D02*
X2967000D01*
Y372000D01*
X3027000D01*
Y437000D01*
D02*
G37*
G36*
X5130268Y590626D02*
X5090898D01*
X5083148Y589606D01*
X5075927Y586615D01*
X5069726Y581857D01*
X5064968Y575656D01*
X5061977Y568434D01*
X5060956Y560685D01*
Y521315D01*
X5061977Y513566D01*
X5064968Y506344D01*
X5069726Y500143D01*
X5075927Y495385D01*
X5083148Y492394D01*
X5090898Y491374D01*
X5130268D01*
X5131242Y491502D01*
X5189459Y433286D01*
Y399681D01*
X5180141Y394301D01*
X5171132Y385292D01*
X5164762Y374259D01*
X5161465Y361953D01*
Y349213D01*
X5164762Y336906D01*
X5171132Y325873D01*
X5180141Y316864D01*
X5191174Y310494D01*
X5203480Y307197D01*
X5216221D01*
X5228527Y310494D01*
X5239560Y316864D01*
X5248569Y325873D01*
X5254939Y336906D01*
X5258236Y349213D01*
Y361953D01*
X5254939Y374259D01*
X5248569Y385292D01*
X5239560Y394301D01*
X5230242Y399681D01*
Y441732D01*
X5228690Y449536D01*
X5224270Y456151D01*
X5160081Y520340D01*
X5160209Y521315D01*
Y560685D01*
X5159189Y568434D01*
X5156198Y575656D01*
X5151439Y581857D01*
X5145238Y586615D01*
X5138017Y589606D01*
X5130268Y590626D01*
D02*
G37*
G36*
X4612268D02*
X4572898D01*
X4565148Y589606D01*
X4557927Y586615D01*
X4551726Y581857D01*
X4546968Y575656D01*
X4543977Y568434D01*
X4542956Y560685D01*
Y521315D01*
X4543977Y513566D01*
X4546968Y506344D01*
X4551726Y500143D01*
X4557927Y495385D01*
X4565148Y492394D01*
X4572898Y491374D01*
X4612268D01*
X4613242Y491502D01*
X4680459Y424286D01*
Y399681D01*
X4671141Y394301D01*
X4662132Y385292D01*
X4655762Y374259D01*
X4652465Y361953D01*
Y349213D01*
X4655762Y336906D01*
X4662132Y325873D01*
X4671141Y316864D01*
X4682174Y310494D01*
X4694480Y307197D01*
X4707221D01*
X4719527Y310494D01*
X4730560Y316864D01*
X4739569Y325873D01*
X4745939Y336906D01*
X4749236Y349213D01*
Y361953D01*
X4745939Y374259D01*
X4739569Y385292D01*
X4730560Y394301D01*
X4721242Y399681D01*
Y432732D01*
X4719690Y440536D01*
X4715270Y447151D01*
X4715269Y447152D01*
X4642081Y520340D01*
X4642209Y521315D01*
Y560685D01*
X4641189Y568434D01*
X4638198Y575656D01*
X4633439Y581857D01*
X4627238Y586615D01*
X4620017Y589606D01*
X4612268Y590626D01*
D02*
G37*
G36*
X4088000Y1241314D02*
X4075258Y1240060D01*
X4063005Y1236343D01*
X4051713Y1230307D01*
X4041816Y1222184D01*
X4033693Y1212287D01*
X4027657Y1200995D01*
X4023941Y1188742D01*
X4022686Y1176000D01*
Y1166000D01*
X4023941Y1153258D01*
X4027657Y1141005D01*
X4033693Y1129713D01*
X4041816Y1119816D01*
X4051713Y1111693D01*
X4057741Y1108471D01*
Y1028534D01*
X3967604Y938396D01*
X3962795Y932130D01*
X3959772Y924832D01*
X3958741Y917000D01*
Y305543D01*
X3940614D01*
Y208772D01*
X4037386D01*
Y305543D01*
X4019259D01*
Y511084D01*
X4024259Y512079D01*
X4026634Y506344D01*
X4031393Y500143D01*
X4037594Y495385D01*
X4044815Y492394D01*
X4052564Y491374D01*
X4091934D01*
X4092909Y491502D01*
X4165459Y418952D01*
Y399681D01*
X4156141Y394301D01*
X4147132Y385292D01*
X4140762Y374259D01*
X4137465Y361953D01*
Y349213D01*
X4140762Y336906D01*
X4147132Y325873D01*
X4156141Y316864D01*
X4167174Y310494D01*
X4179480Y307197D01*
X4192221D01*
X4204527Y310494D01*
X4215560Y316864D01*
X4224569Y325873D01*
X4230939Y336906D01*
X4234236Y349213D01*
Y361953D01*
X4230939Y374259D01*
X4224569Y385292D01*
X4215560Y394301D01*
X4206242Y399681D01*
Y427399D01*
X4204690Y435202D01*
X4200270Y441818D01*
X4121747Y520340D01*
X4121876Y521315D01*
Y560685D01*
X4120855Y568434D01*
X4117864Y575656D01*
X4113106Y581857D01*
X4106905Y586615D01*
X4099684Y589606D01*
X4091934Y590626D01*
X4052564D01*
X4044815Y589606D01*
X4037594Y586615D01*
X4031393Y581857D01*
X4026634Y575656D01*
X4024259Y569921D01*
X4019259Y570915D01*
Y904466D01*
X4109396Y994603D01*
X4109396Y994604D01*
X4114205Y1000870D01*
X4117228Y1008168D01*
X4118259Y1016000D01*
Y1108471D01*
X4124287Y1111693D01*
X4134184Y1119816D01*
X4142307Y1129713D01*
X4148343Y1141005D01*
X4152060Y1153258D01*
X4153315Y1166000D01*
Y1176000D01*
X4152060Y1188742D01*
X4148343Y1200995D01*
X4142307Y1212287D01*
X4134184Y1222184D01*
X4124287Y1230307D01*
X4112995Y1236343D01*
X4100742Y1240060D01*
X4088000Y1241314D01*
D02*
G37*
G36*
X3586268Y590626D02*
X3546898D01*
X3539148Y589606D01*
X3531927Y586615D01*
X3525726Y581857D01*
X3520968Y575656D01*
X3517977Y568434D01*
X3516956Y560685D01*
Y521315D01*
X3517977Y513566D01*
X3520968Y506344D01*
X3525726Y500143D01*
X3531927Y495385D01*
X3539148Y492394D01*
X3546898Y491374D01*
X3586268D01*
X3587242Y491502D01*
X3654459Y424286D01*
Y399681D01*
X3645141Y394301D01*
X3636132Y385292D01*
X3629762Y374259D01*
X3626465Y361953D01*
Y349213D01*
X3629762Y336906D01*
X3636132Y325873D01*
X3645141Y316864D01*
X3656174Y310494D01*
X3668480Y307197D01*
X3681220D01*
X3693527Y310494D01*
X3704560Y316864D01*
X3713569Y325873D01*
X3719939Y336906D01*
X3723236Y349213D01*
Y361953D01*
X3719939Y374259D01*
X3713569Y385292D01*
X3704560Y394301D01*
X3695242Y399681D01*
Y432732D01*
X3693690Y440536D01*
X3689270Y447151D01*
X3689269Y447152D01*
X3616081Y520340D01*
X3616209Y521315D01*
Y560685D01*
X3615189Y568434D01*
X3612198Y575656D01*
X3607439Y581857D01*
X3601238Y586615D01*
X3594017Y589606D01*
X3586268Y590626D01*
D02*
G37*
G36*
X3097000Y362000D02*
X3037000D01*
Y297000D01*
X3097000D01*
Y362000D01*
D02*
G37*
G36*
X3027000D02*
X2967000D01*
Y297000D01*
X3027000D01*
Y362000D01*
D02*
G37*
G36*
X2697000D02*
X2637000D01*
Y297000D01*
X2697000D01*
Y362000D01*
D02*
G37*
G36*
X2627000D02*
X2567000D01*
Y297000D01*
X2627000D01*
Y362000D01*
D02*
G37*
G36*
X4488500Y1241314D02*
X4475758Y1240060D01*
X4463505Y1236343D01*
X4452213Y1230307D01*
X4442316Y1222184D01*
X4434193Y1212287D01*
X4428157Y1200995D01*
X4424440Y1188742D01*
X4423185Y1176000D01*
Y1166000D01*
X4424440Y1153258D01*
X4428157Y1141005D01*
X4434193Y1129713D01*
X4442316Y1119816D01*
X4452213Y1111693D01*
X4463505Y1105657D01*
X4473741Y1102552D01*
Y305543D01*
X4455614D01*
Y208772D01*
X4552386D01*
Y305543D01*
X4534259D01*
Y1119467D01*
X4534684Y1119816D01*
X4542807Y1129713D01*
X4548843Y1141005D01*
X4552560Y1153258D01*
X4553815Y1166000D01*
Y1176000D01*
X4552560Y1188742D01*
X4548843Y1200995D01*
X4542807Y1212287D01*
X4534684Y1222184D01*
X4524787Y1230307D01*
X4513495Y1236343D01*
X4501242Y1240060D01*
X4488500Y1241314D01*
D02*
G37*
G36*
X3687500D02*
X3674758Y1240060D01*
X3662505Y1236343D01*
X3651213Y1230307D01*
X3641316Y1222184D01*
X3633193Y1212287D01*
X3627157Y1200995D01*
X3623441Y1188742D01*
X3622186Y1176000D01*
Y1166000D01*
X3623441Y1153258D01*
X3627157Y1141005D01*
X3633193Y1129713D01*
X3641316Y1119816D01*
X3651213Y1111693D01*
X3657241Y1108471D01*
Y1018034D01*
X3456604Y817396D01*
X3451795Y811130D01*
X3448772Y803832D01*
X3447741Y796000D01*
Y305543D01*
X3429614D01*
Y208772D01*
X3526386D01*
Y305543D01*
X3508259D01*
Y783466D01*
X3708896Y984103D01*
X3708896Y984104D01*
X3713705Y990370D01*
X3716728Y997668D01*
X3717759Y1005500D01*
Y1108471D01*
X3723787Y1111693D01*
X3733684Y1119816D01*
X3741807Y1129713D01*
X3747843Y1141005D01*
X3751559Y1153258D01*
X3752814Y1166000D01*
Y1176000D01*
X3751559Y1188742D01*
X3747843Y1200995D01*
X3741807Y1212287D01*
X3733684Y1222184D01*
X3723787Y1230307D01*
X3712495Y1236343D01*
X3700242Y1240060D01*
X3687500Y1241314D01*
D02*
G37*
G36*
X1558536Y320107D02*
X1543464D01*
X1528905Y316206D01*
X1515851Y308670D01*
X1505193Y298012D01*
X1497657Y284959D01*
X1493756Y270399D01*
Y255327D01*
X1497657Y240768D01*
X1505193Y227714D01*
X1515851Y217056D01*
X1528905Y209520D01*
X1543464Y205619D01*
X1558536D01*
X1573095Y209520D01*
X1586149Y217056D01*
X1596807Y227714D01*
X1604343Y240768D01*
X1608244Y255327D01*
Y270399D01*
X1604343Y284959D01*
X1596807Y298012D01*
X1586149Y308670D01*
X1573095Y316206D01*
X1558536Y320107D01*
D02*
G37*
G36*
X798694D02*
X783621D01*
X769062Y316206D01*
X756009Y308670D01*
X745351Y298012D01*
X737814Y284959D01*
X733913Y270399D01*
Y255327D01*
X737814Y240768D01*
X745351Y227714D01*
X756009Y217056D01*
X769062Y209520D01*
X783621Y205619D01*
X798694D01*
X813253Y209520D01*
X826306Y217056D01*
X836964Y227714D01*
X844500Y240768D01*
X848402Y255327D01*
Y270399D01*
X844500Y284959D01*
X836964Y298012D01*
X826306Y308670D01*
X813253Y316206D01*
X798694Y320107D01*
D02*
G37*
%LPD*%
G36*
X5003000Y2573000D02*
X5005984Y2573000D01*
X5011497Y2570716D01*
X5015716Y2566497D01*
X5017337Y2562584D01*
X5018000Y2558001D01*
Y2558000D01*
X5018000D01*
X5018000Y2558000D01*
Y2401000D01*
Y2396823D01*
X5014803Y2389104D01*
X5008895Y2383197D01*
X5001177Y2380000D01*
X4816000D01*
X4813007Y2380000D01*
X4807476Y2382291D01*
X4803244Y2386523D01*
X4800953Y2392054D01*
X4800953Y2395047D01*
X4801906Y2557001D01*
Y2560183D01*
X4804342Y2566063D01*
X4808842Y2570564D01*
X4814723Y2573000D01*
X4817905D01*
Y2573000D01*
X5003000Y2573000D01*
D02*
G37*
D22*
X3389417Y541000D02*
D03*
X3566583D02*
D03*
X4933417D02*
D03*
X5110583D02*
D03*
X4415417D02*
D03*
X4592583D02*
D03*
X3895084D02*
D03*
X4072249D02*
D03*
D42*
X2276000Y3041000D02*
X3421000D01*
X2260000Y3057000D02*
Y3177000D01*
Y3057000D02*
X2276000Y3041000D01*
X4345638Y2341457D02*
Y2530638D01*
X4347000Y2532000D01*
X4344276Y2340095D02*
X4345638Y2341457D01*
X2844000Y1304000D02*
Y1606000D01*
X2855055Y1617055D01*
X2904945D01*
X2144000Y2942000D02*
X2145000Y2941000D01*
X2685000D02*
X2686000Y2940000D01*
X2145000Y2941000D02*
X2685000D01*
X2674000Y2686000D02*
X2766000D01*
X3192000Y1488000D02*
X3619000D01*
X3163000Y1350000D02*
Y1459000D01*
X3192000Y1488000D01*
X3417710Y2362290D02*
Y2920390D01*
Y2362290D02*
X3439905Y2340095D01*
X4344276D01*
X5113000Y2239000D02*
X5210000Y2142000D01*
X5201716Y2122000D02*
X5551000D01*
X5210000Y2142000D02*
X5559284D01*
X4905000Y2239000D02*
X5113000D01*
X4915000Y2219000D02*
X5104716D01*
X5201716Y2122000D01*
X3976858Y2192898D02*
X4888898D01*
X4878898Y2212898D02*
X4905000Y2239000D01*
X3936000Y2197000D02*
X3951898Y2212898D01*
X4878898D01*
X4888898Y2192898D02*
X4915000Y2219000D01*
X3971000Y2187040D02*
X3976858Y2192898D01*
X3971000Y2042000D02*
Y2187040D01*
X4835000Y2072000D02*
X4943309Y2180309D01*
X5559284Y2142000D02*
X5649000Y2052284D01*
X5551000Y2122000D02*
X5629000Y2044000D01*
Y1705000D02*
Y2044000D01*
X5649000Y1972000D02*
Y2052284D01*
Y1641000D02*
Y1972000D01*
X5592520Y1584520D02*
X5649000Y1641000D01*
X5587260Y1663260D02*
X5629000Y1705000D01*
X4895000Y1985000D02*
X5092000Y2182000D01*
X4855000Y2042000D02*
X4993309Y2180309D01*
X4875000Y2012000D02*
X5043309Y2180309D01*
X4875000Y1544000D02*
Y2012000D01*
X4895000Y1523147D02*
Y1985000D01*
X4855000Y1552284D02*
Y2042000D01*
X5537000Y1663260D02*
X5587260D01*
X5537000Y1584520D02*
X5592520D01*
X3906898Y2237898D02*
X4040102D01*
X3892000Y2223000D02*
X3906898Y2237898D01*
X3936000Y2005000D02*
Y2197000D01*
X3892000Y1752000D02*
Y2223000D01*
X3840102Y1761102D02*
Y2238102D01*
X3838000Y1698000D02*
X3892000Y1752000D01*
X3257000Y1698000D02*
X3838000D01*
X3316000Y1735000D02*
X3814000D01*
X3840102Y1761102D01*
X4835000Y1548000D02*
Y2072000D01*
X4855000Y1539716D02*
Y1552284D01*
X4875000Y1531432D02*
Y1544000D01*
X3166000Y1517000D02*
X4206000D01*
X3134000Y1549000D02*
X3166000Y1517000D01*
X3134000Y1549000D02*
Y2746000D01*
X4179244Y1542055D02*
X4188292Y1551102D01*
X4190102D01*
X3169945Y1542055D02*
X4179244D01*
X3154000Y1558000D02*
X3169945Y1542055D01*
X3154000Y1558000D02*
Y2791000D01*
X3093000Y2787000D02*
X3134000Y2746000D01*
X2672000Y2787000D02*
X3093000D01*
X3108000Y2837000D02*
X3154000Y2791000D01*
X2672000Y2837000D02*
X3108000D01*
X4206000Y1517000D02*
X4240102Y1551102D01*
X4709568Y1366000D02*
X4875000Y1531432D01*
X4058000Y1386000D02*
X4688716D01*
X3837000Y1389000D02*
X3880000Y1346000D01*
X4717853D01*
X4688716Y1386000D02*
X4701284D01*
X4855000Y1539716D01*
X4040178Y1403822D02*
X4058000Y1386000D01*
X4697000Y1366000D02*
X4709568D01*
X3990102Y1396898D02*
X4021000Y1366000D01*
X4697000D01*
X4717853Y1346000D02*
X4895000Y1523147D01*
X2772968Y1489968D02*
Y1639968D01*
X2753000Y1470000D02*
X2772968Y1489968D01*
X2667000Y1470000D02*
X2753000D01*
X3214945Y1567055D02*
Y1655945D01*
X2783055Y1808055D02*
X2792000Y1817000D01*
X2783055Y1712055D02*
Y1808055D01*
X2792000Y1817000D02*
X3014000D01*
X2750000Y1662937D02*
X2772968Y1639968D01*
X2750000Y1662937D02*
Y1833000D01*
X2780000Y1863000D01*
X3214945Y1655945D02*
X3257000Y1698000D01*
X3990102Y1396898D02*
Y1415102D01*
X4155000Y1406000D02*
X4693000D01*
X4835000Y1548000D01*
X3837000Y1389000D02*
Y1415102D01*
X4039000Y1418000D02*
X4040178Y1416822D01*
Y1403822D02*
Y1416822D01*
X4140000Y1421000D02*
X4155000Y1406000D01*
X3039465Y2702535D02*
X3050449Y2691551D01*
Y2481551D02*
Y2691551D01*
X2922465Y2702535D02*
X3039465D01*
D43*
X3281150Y238850D02*
G03*
X3364000Y156000I82850J0D01*
G01*
X2832000Y256000D02*
G03*
X2932000Y156000I100000J0D01*
G01*
X5383000Y1742000D02*
G03*
X5345000Y1704000I0J-38000D01*
G01*
X5266000Y156000D02*
G03*
X5345000Y235000I0J79000D01*
G01*
X4816150Y218850D02*
G03*
X4879000Y156000I62850J0D01*
G01*
X4307150Y209850D02*
G03*
X4361000Y156000I53850J0D01*
G01*
X3792150Y206850D02*
G03*
X3843000Y156000I50850J0D01*
G01*
X3032000Y733000D02*
Y896000D01*
Y1253000D02*
X3068000Y1289000D01*
X3425000D01*
X3032000Y896000D02*
Y1253000D01*
X3364000Y156000D02*
X3843000D01*
X2932000D02*
X3364000D01*
X2832000Y256000D02*
Y367000D01*
X3473000Y3000000D02*
X3495000Y2978000D01*
Y2467000D02*
Y2978000D01*
X2835000Y2997000D02*
X2838000Y3000000D01*
X3473000D01*
X3515000Y2447000D02*
X4122000D01*
X3495000Y2467000D02*
X3515000Y2447000D01*
X2316331Y3000000D02*
X2835000D01*
X2832000Y367000D02*
Y533000D01*
X3032000Y733000D01*
X1036000Y1703808D02*
X1043808D01*
X5383000Y1742000D02*
X5537000D01*
X5345000Y235000D02*
Y1704000D01*
X4879000Y156000D02*
X5266000D01*
X4361000D02*
X4879000D01*
X4996000Y1458000D02*
X5020000Y1434000D01*
X4996000Y1458000D02*
Y1817000D01*
X5092691Y1578784D02*
X5241475Y1430000D01*
X5092691Y1578784D02*
Y1817000D01*
X5046000Y1516142D02*
X5130142Y1432000D01*
X5046000Y1516142D02*
Y1817000D01*
X4907000Y1435000D02*
X4946000Y1474000D01*
Y1817000D01*
X3792150Y206850D02*
Y355583D01*
Y438066D01*
X3895084Y541000D01*
X4816150Y218850D02*
Y355583D01*
X4816386Y355819D01*
Y423969D02*
X4933417Y541000D01*
X4816386Y355819D02*
Y423969D01*
X3281150Y238850D02*
Y355583D01*
Y432732D02*
X3389417Y541000D01*
X3281150Y355583D02*
Y432732D01*
X4307150Y209850D02*
Y355583D01*
Y432732D01*
X4415417Y541000D01*
X3843000Y156000D02*
X4361000D01*
X5209850Y355583D02*
Y441732D01*
X5110583Y541000D02*
X5209850Y441732D01*
X4592583Y541000D02*
X4700850Y432732D01*
Y355583D02*
Y432732D01*
X4185850Y355583D02*
Y427399D01*
X4072249Y541000D02*
X4185850Y427399D01*
X3566583Y541000D02*
X3674850Y432732D01*
Y355583D02*
Y432732D01*
D44*
X1864000Y1645229D02*
Y3149000D01*
X1971000Y3256000D02*
X3372000D01*
X1864000Y3149000D02*
X1971000Y3256000D01*
X3372000D02*
X3379000Y3249000D01*
X4889000Y981000D02*
Y1171000D01*
X5013000Y257158D02*
Y857000D01*
X4889000Y981000D02*
X5013000Y857000D01*
X5089000Y1166000D02*
X5124000Y1131000D01*
X5129000D02*
X5209850Y1050149D01*
Y757158D02*
Y1050149D01*
X5089000Y1166000D02*
Y1171000D01*
X5124000Y1131000D02*
X5129000D01*
X4185850Y757158D02*
Y901850D01*
X4288000Y1004000D02*
Y1171000D01*
X4185850Y901850D02*
X4288000Y1004000D01*
X4504000Y257158D02*
Y1155500D01*
X4488500Y1171000D02*
X4504000Y1155500D01*
X4688500Y1171000D02*
X4700850Y1158650D01*
Y757158D02*
Y1158650D01*
X4088000Y1016000D02*
Y1171000D01*
X3989000Y257158D02*
Y917000D01*
X4088000Y1016000D01*
X3887500Y1046500D02*
Y1171000D01*
X3674850Y833850D02*
X3887500Y1046500D01*
X3674850Y757158D02*
Y833850D01*
X3687500Y1005500D02*
Y1171000D01*
X3478000Y796000D02*
X3687500Y1005500D01*
X3478000Y257158D02*
Y796000D01*
D45*
X1805421Y1703808D02*
X1864000Y1645229D01*
X1043808Y1703808D02*
X1805421D01*
X192000D02*
X1036000D01*
X1864000Y444000D02*
Y1645229D01*
X1941000Y367000D02*
X2432000D01*
X1864000Y444000D02*
X1941000Y367000D01*
D46*
X5419432Y3238060D02*
G03*
X5360377Y3297115I-59055J0D01*
G01*
X5360377Y110973D02*
G03*
X5419432Y170029I0J59055D01*
G01*
X5619117Y896721D02*
G03*
X5678172Y955777I0J59055D01*
G01*
X5678172Y2452320D02*
G03*
X5619117Y2511375I-59055J0D01*
G01*
X5419432Y2590115D02*
G03*
X5498172Y2511375I78740J0D01*
G01*
X5498172Y896721D02*
G03*
X5419432Y817981I0J-78740D01*
G01*
X301322D02*
G03*
X222582Y896721I-78740J0D01*
G01*
X222581Y2511375D02*
G03*
X301321Y2590115I0J78740D01*
G01*
X101636Y2511375D02*
G03*
X42581Y2452320I0J-59055D01*
G01*
X42581Y955777D02*
G03*
X101637Y896721I59055J0D01*
G01*
X301322Y170029D02*
G03*
X360377Y110973I59055J0D01*
G01*
X360377Y3297115D02*
G03*
X301321Y3238060I0J-59055D01*
G01*
X5419432Y2590115D02*
Y3238060D01*
X360377Y110973D02*
X5360377D01*
X360377Y3297115D02*
X5360377D01*
X5419432Y170029D02*
Y817981D01*
X5498172Y2511375D02*
X5619117D01*
X5498172Y896721D02*
X5619117D01*
X5678172Y955777D02*
X5678172Y2451840D01*
X42581D02*
X42581Y955777D01*
X101637Y896721D02*
X222582D01*
X101636Y2511375D02*
X222581D01*
X301321Y2590115D02*
Y3238060D01*
X301322Y170029D02*
Y817981D01*
D47*
X192000Y1518769D02*
D03*
Y1703808D02*
D03*
Y1888848D02*
D03*
D48*
X791157Y2798690D02*
D03*
X1551000D02*
D03*
X791157Y608926D02*
D03*
X1551000D02*
D03*
D49*
Y262863D02*
D03*
Y3132942D02*
D03*
X791157D02*
D03*
Y262863D02*
D03*
D50*
X3032000Y896000D02*
D03*
X2632000D02*
D03*
X3032000Y367000D02*
D03*
X2632000D02*
D03*
X5089000Y1171000D02*
D03*
X4688500D02*
D03*
X4288000D02*
D03*
X3887500D02*
D03*
D51*
X2832000Y896000D02*
D03*
X2432000D02*
D03*
X2832000Y367000D02*
D03*
X2432000D02*
D03*
X4889000Y1171000D02*
D03*
X4488500D02*
D03*
X4088000D02*
D03*
X3687500D02*
D03*
D52*
X5209850Y757158D02*
D03*
X4816150D02*
D03*
Y355583D02*
D03*
X5209850D02*
D03*
X4700850Y757158D02*
D03*
X4307150D02*
D03*
Y355583D02*
D03*
X4700850D02*
D03*
X4185850Y757158D02*
D03*
X3792150D02*
D03*
Y355583D02*
D03*
X4185850D02*
D03*
X3674850Y757158D02*
D03*
X3281150D02*
D03*
Y355583D02*
D03*
X3674850D02*
D03*
D53*
X5013000Y257158D02*
D03*
X4504000D02*
D03*
X3989000D02*
D03*
X3478000D02*
D03*
D56*
X2963496Y3175000D02*
D03*
X2682000D02*
D03*
D57*
X2873929Y3183661D02*
D03*
X2848339Y3144291D02*
D03*
X2822748Y3183661D02*
D03*
X2797157Y3144291D02*
D03*
X2771567Y3183661D02*
D03*
D58*
X3246000Y1211000D02*
D03*
X3247000Y1033000D02*
D03*
X3497000Y1034000D02*
D03*
X3496000Y1211000D02*
D03*
D59*
X5537000Y1584520D02*
D03*
D60*
Y1663260D02*
D03*
Y1742000D02*
D03*
Y1820740D02*
D03*
D61*
X3072000Y981000D02*
D03*
X3222000Y1131000D02*
D03*
X3072000D02*
D03*
X5472000Y2481000D02*
D03*
Y2031000D02*
D03*
Y1881000D02*
D03*
Y1581000D02*
D03*
Y1431000D02*
D03*
Y1281000D02*
D03*
Y981000D02*
D03*
X5322000Y2931000D02*
D03*
Y2781000D02*
D03*
Y2631000D02*
D03*
Y2481000D02*
D03*
Y2331000D02*
D03*
Y2181000D02*
D03*
Y2031000D02*
D03*
Y1881000D02*
D03*
X5172000Y2931000D02*
D03*
Y2331000D02*
D03*
Y2031000D02*
D03*
Y1431000D02*
D03*
Y1281000D02*
D03*
Y681000D02*
D03*
Y531000D02*
D03*
Y231000D02*
D03*
X5022000Y3081000D02*
D03*
Y2931000D02*
D03*
Y2781000D02*
D03*
Y2631000D02*
D03*
Y2331000D02*
D03*
Y2031000D02*
D03*
Y981000D02*
D03*
X4872000Y2631000D02*
D03*
Y2331000D02*
D03*
Y1431000D02*
D03*
Y831000D02*
D03*
Y681000D02*
D03*
Y531000D02*
D03*
Y381000D02*
D03*
Y231000D02*
D03*
X4722000Y3081000D02*
D03*
Y2931000D02*
D03*
Y2781000D02*
D03*
Y2631000D02*
D03*
Y2331000D02*
D03*
Y2031000D02*
D03*
Y1881000D02*
D03*
Y1731000D02*
D03*
Y1581000D02*
D03*
Y681000D02*
D03*
Y531000D02*
D03*
Y231000D02*
D03*
X4572000Y2931000D02*
D03*
Y2331000D02*
D03*
Y2031000D02*
D03*
Y1881000D02*
D03*
Y1731000D02*
D03*
Y1581000D02*
D03*
Y1281000D02*
D03*
Y381000D02*
D03*
Y231000D02*
D03*
X4422000Y2931000D02*
D03*
Y2031000D02*
D03*
Y1881000D02*
D03*
Y1731000D02*
D03*
Y1581000D02*
D03*
Y1281000D02*
D03*
Y981000D02*
D03*
Y831000D02*
D03*
Y681000D02*
D03*
Y381000D02*
D03*
Y231000D02*
D03*
X4272000Y2781000D02*
D03*
Y2631000D02*
D03*
Y2031000D02*
D03*
Y1881000D02*
D03*
Y1731000D02*
D03*
Y1581000D02*
D03*
Y1281000D02*
D03*
Y831000D02*
D03*
Y681000D02*
D03*
Y531000D02*
D03*
Y231000D02*
D03*
X4122000Y2031000D02*
D03*
Y1731000D02*
D03*
Y1581000D02*
D03*
Y1281000D02*
D03*
Y981000D02*
D03*
Y831000D02*
D03*
Y681000D02*
D03*
Y231000D02*
D03*
X3972000Y1881000D02*
D03*
Y1731000D02*
D03*
Y1581000D02*
D03*
Y1281000D02*
D03*
Y1131000D02*
D03*
Y981000D02*
D03*
X3822000Y1281000D02*
D03*
Y831000D02*
D03*
Y681000D02*
D03*
Y531000D02*
D03*
X3672000Y2781000D02*
D03*
Y2181000D02*
D03*
Y1281000D02*
D03*
Y681000D02*
D03*
Y531000D02*
D03*
Y231000D02*
D03*
X3522000Y2031000D02*
D03*
Y1881000D02*
D03*
Y1581000D02*
D03*
Y1281000D02*
D03*
Y1131000D02*
D03*
Y981000D02*
D03*
Y381000D02*
D03*
X3372000Y2631000D02*
D03*
Y2481000D02*
D03*
Y2031000D02*
D03*
Y1881000D02*
D03*
Y1131000D02*
D03*
Y981000D02*
D03*
Y831000D02*
D03*
Y681000D02*
D03*
Y381000D02*
D03*
Y231000D02*
D03*
X3222000Y2931000D02*
D03*
Y2781000D02*
D03*
Y2331000D02*
D03*
Y2031000D02*
D03*
Y981000D02*
D03*
Y831000D02*
D03*
Y681000D02*
D03*
Y531000D02*
D03*
Y381000D02*
D03*
Y231000D02*
D03*
X3072000Y3081000D02*
D03*
Y2931000D02*
D03*
Y2331000D02*
D03*
Y2181000D02*
D03*
Y2031000D02*
D03*
Y1581000D02*
D03*
Y681000D02*
D03*
Y531000D02*
D03*
Y231000D02*
D03*
X2922000Y3081000D02*
D03*
Y2931000D02*
D03*
Y2631000D02*
D03*
Y2481000D02*
D03*
Y2331000D02*
D03*
Y2181000D02*
D03*
Y2031000D02*
D03*
Y1431000D02*
D03*
Y1281000D02*
D03*
Y1131000D02*
D03*
Y981000D02*
D03*
Y831000D02*
D03*
Y681000D02*
D03*
Y531000D02*
D03*
Y381000D02*
D03*
Y231000D02*
D03*
X2772000Y2631000D02*
D03*
Y2481000D02*
D03*
Y2331000D02*
D03*
Y2181000D02*
D03*
Y1281000D02*
D03*
Y1131000D02*
D03*
Y981000D02*
D03*
Y831000D02*
D03*
Y681000D02*
D03*
Y531000D02*
D03*
Y231000D02*
D03*
X2622000Y3081000D02*
D03*
Y2481000D02*
D03*
Y2331000D02*
D03*
Y2181000D02*
D03*
Y1281000D02*
D03*
Y1131000D02*
D03*
Y681000D02*
D03*
Y531000D02*
D03*
Y231000D02*
D03*
X2472000Y2331000D02*
D03*
Y2181000D02*
D03*
Y2031000D02*
D03*
Y1581000D02*
D03*
Y1431000D02*
D03*
Y1281000D02*
D03*
Y981000D02*
D03*
Y681000D02*
D03*
Y531000D02*
D03*
Y231000D02*
D03*
X2322000Y3081000D02*
D03*
Y2331000D02*
D03*
Y2181000D02*
D03*
Y2031000D02*
D03*
Y1731000D02*
D03*
Y1131000D02*
D03*
Y981000D02*
D03*
Y831000D02*
D03*
Y681000D02*
D03*
Y531000D02*
D03*
Y231000D02*
D03*
X2172000Y3081000D02*
D03*
Y2331000D02*
D03*
Y2181000D02*
D03*
Y2031000D02*
D03*
Y1881000D02*
D03*
Y981000D02*
D03*
Y831000D02*
D03*
Y681000D02*
D03*
Y531000D02*
D03*
Y231000D02*
D03*
X2022000Y3081000D02*
D03*
Y2931000D02*
D03*
Y2781000D02*
D03*
Y2631000D02*
D03*
Y2481000D02*
D03*
Y2331000D02*
D03*
Y2181000D02*
D03*
Y2031000D02*
D03*
Y1881000D02*
D03*
Y1731000D02*
D03*
Y1431000D02*
D03*
Y1281000D02*
D03*
Y1131000D02*
D03*
Y981000D02*
D03*
Y831000D02*
D03*
Y681000D02*
D03*
Y531000D02*
D03*
Y231000D02*
D03*
X1872000D02*
D03*
X1722000Y3081000D02*
D03*
Y2931000D02*
D03*
Y2781000D02*
D03*
Y2631000D02*
D03*
Y2481000D02*
D03*
Y2331000D02*
D03*
Y2181000D02*
D03*
Y2031000D02*
D03*
Y1881000D02*
D03*
Y1581000D02*
D03*
Y1431000D02*
D03*
Y1281000D02*
D03*
Y1131000D02*
D03*
Y981000D02*
D03*
Y831000D02*
D03*
Y681000D02*
D03*
Y531000D02*
D03*
Y381000D02*
D03*
Y231000D02*
D03*
X1572000Y2931000D02*
D03*
Y2631000D02*
D03*
Y2481000D02*
D03*
Y2331000D02*
D03*
Y2181000D02*
D03*
Y2031000D02*
D03*
Y1881000D02*
D03*
Y1581000D02*
D03*
Y1431000D02*
D03*
Y1281000D02*
D03*
Y1131000D02*
D03*
Y981000D02*
D03*
Y831000D02*
D03*
Y381000D02*
D03*
X1422000Y3081000D02*
D03*
Y2931000D02*
D03*
Y2781000D02*
D03*
Y2631000D02*
D03*
Y2481000D02*
D03*
Y2331000D02*
D03*
Y2181000D02*
D03*
Y2031000D02*
D03*
Y1881000D02*
D03*
Y1581000D02*
D03*
Y1431000D02*
D03*
Y1281000D02*
D03*
Y1131000D02*
D03*
Y981000D02*
D03*
Y831000D02*
D03*
Y681000D02*
D03*
Y531000D02*
D03*
Y231000D02*
D03*
X1272000Y3081000D02*
D03*
Y2931000D02*
D03*
Y2781000D02*
D03*
Y2631000D02*
D03*
Y2481000D02*
D03*
Y2331000D02*
D03*
Y2181000D02*
D03*
Y2031000D02*
D03*
Y1881000D02*
D03*
Y1581000D02*
D03*
Y1431000D02*
D03*
Y1281000D02*
D03*
Y1131000D02*
D03*
Y981000D02*
D03*
Y831000D02*
D03*
Y681000D02*
D03*
Y381000D02*
D03*
Y231000D02*
D03*
X1122000Y3081000D02*
D03*
Y2931000D02*
D03*
Y531000D02*
D03*
Y381000D02*
D03*
Y231000D02*
D03*
X972000Y3081000D02*
D03*
Y2781000D02*
D03*
Y2631000D02*
D03*
Y2481000D02*
D03*
Y2331000D02*
D03*
Y2181000D02*
D03*
Y2031000D02*
D03*
Y1881000D02*
D03*
Y1581000D02*
D03*
Y1431000D02*
D03*
Y1281000D02*
D03*
Y1131000D02*
D03*
Y981000D02*
D03*
Y831000D02*
D03*
Y681000D02*
D03*
Y531000D02*
D03*
Y381000D02*
D03*
Y231000D02*
D03*
X822000Y2931000D02*
D03*
Y2631000D02*
D03*
Y2481000D02*
D03*
Y2331000D02*
D03*
Y2181000D02*
D03*
Y2031000D02*
D03*
Y1881000D02*
D03*
Y1581000D02*
D03*
Y1431000D02*
D03*
Y1281000D02*
D03*
Y1131000D02*
D03*
Y981000D02*
D03*
Y831000D02*
D03*
Y531000D02*
D03*
Y381000D02*
D03*
X672000Y3081000D02*
D03*
Y2931000D02*
D03*
Y2781000D02*
D03*
Y2631000D02*
D03*
Y2481000D02*
D03*
Y2331000D02*
D03*
Y2181000D02*
D03*
Y2031000D02*
D03*
Y1881000D02*
D03*
Y1581000D02*
D03*
Y1431000D02*
D03*
Y1281000D02*
D03*
Y1131000D02*
D03*
Y981000D02*
D03*
Y831000D02*
D03*
Y681000D02*
D03*
Y531000D02*
D03*
Y381000D02*
D03*
X522000Y3081000D02*
D03*
Y2931000D02*
D03*
Y2781000D02*
D03*
Y2631000D02*
D03*
Y2481000D02*
D03*
Y2331000D02*
D03*
Y2181000D02*
D03*
Y2031000D02*
D03*
Y1881000D02*
D03*
Y1581000D02*
D03*
Y231000D02*
D03*
X372000Y3081000D02*
D03*
Y2931000D02*
D03*
Y2781000D02*
D03*
Y2631000D02*
D03*
Y2481000D02*
D03*
Y2331000D02*
D03*
Y2181000D02*
D03*
Y2031000D02*
D03*
Y1881000D02*
D03*
Y1431000D02*
D03*
Y1281000D02*
D03*
Y1131000D02*
D03*
Y981000D02*
D03*
Y831000D02*
D03*
Y681000D02*
D03*
Y531000D02*
D03*
Y381000D02*
D03*
Y231000D02*
D03*
X222000Y2481000D02*
D03*
Y2031000D02*
D03*
Y1431000D02*
D03*
Y1281000D02*
D03*
Y981000D02*
D03*
X72000Y2331000D02*
D03*
Y2181000D02*
D03*
Y2031000D02*
D03*
Y1881000D02*
D03*
Y1731000D02*
D03*
Y1581000D02*
D03*
Y1431000D02*
D03*
Y1281000D02*
D03*
Y1131000D02*
D03*
Y981000D02*
D03*
X3337000Y3133000D02*
D03*
X4979000Y2411000D02*
D03*
X4907500Y2412000D02*
D03*
X4836000Y2413000D02*
D03*
X4908000Y2484000D02*
D03*
X4979500Y2483000D02*
D03*
X4978500Y2546000D02*
D03*
X4907000Y2547000D02*
D03*
X4835500Y2548000D02*
D03*
X4836500Y2485000D02*
D03*
X3425000Y1289000D02*
D03*
X3421000Y3041000D02*
D03*
X4122000Y2447000D02*
D03*
X2835000Y2997000D02*
D03*
X2316331Y3000000D02*
D03*
X2844000Y1304000D02*
D03*
X2904945Y1617055D02*
D03*
X2144000Y2942000D02*
D03*
X2686000Y2940000D02*
D03*
X2766000Y2686000D02*
D03*
X2674000D02*
D03*
X3163000Y1350000D02*
D03*
X3619000Y1488000D02*
D03*
X3417710Y2920390D02*
D03*
X3387000Y3173000D02*
D03*
Y3200342D02*
D03*
X4347000Y2532000D02*
D03*
X4344276Y2340095D02*
D03*
X4943309Y2180309D02*
D03*
X4993309D02*
D03*
X5092000Y2182000D02*
D03*
X5043309Y2180309D02*
D03*
X4040102Y2237898D02*
D03*
X3936000Y2005000D02*
D03*
X3971000Y2042000D02*
D03*
X3360000Y3184000D02*
D03*
Y3210500D02*
D03*
X3387000Y3227683D02*
D03*
X3360000Y3237000D02*
D03*
X4190102Y1551102D02*
D03*
X3214945Y1567055D02*
D03*
X2783055Y1712055D02*
D03*
X4240102Y1551102D02*
D03*
X2672000Y2837000D02*
D03*
Y2787000D02*
D03*
X3316000Y1735000D02*
D03*
X3840102Y2238102D02*
D03*
X2780000Y1863000D02*
D03*
X3837000Y1415102D02*
D03*
X3990102D02*
D03*
X4140000Y1421000D02*
D03*
X4039000Y1418000D02*
D03*
X5092691Y1817000D02*
D03*
X5241475Y1430000D02*
D03*
X5130142Y1432000D02*
D03*
X5020000Y1434000D02*
D03*
X4907000Y1435000D02*
D03*
X5046000Y1817000D02*
D03*
X4946000D02*
D03*
X4996000D02*
D03*
X2922465Y2702535D02*
D03*
X3050449Y2481551D02*
D03*
X2667000Y1470000D02*
D03*
X2772968Y1639968D02*
D03*
X3014000Y1817000D02*
D03*
X287821Y1046801D02*
D03*
X155821D02*
D03*
X156821Y1178801D02*
D03*
X288821Y1179801D02*
D03*
X222591Y1019505D02*
D03*
Y1206801D02*
D03*
X128821Y1114801D02*
D03*
X315821Y1113801D02*
D03*
X287821Y2227903D02*
D03*
X155821D02*
D03*
X156821Y2359903D02*
D03*
X288821Y2360903D02*
D03*
X222591Y2200608D02*
D03*
Y2387903D02*
D03*
X128821Y2295903D02*
D03*
X315821Y2294903D02*
D03*
X5563411Y1046801D02*
D03*
X5431411D02*
D03*
X5432411Y1178801D02*
D03*
X5564411Y1179801D02*
D03*
X5498181Y1019505D02*
D03*
Y1206801D02*
D03*
X5404411Y1114801D02*
D03*
X5591411Y1113801D02*
D03*
X5563411Y2227903D02*
D03*
X5431411D02*
D03*
X5432411Y2359903D02*
D03*
X5564411Y2360903D02*
D03*
X5498181Y2200608D02*
D03*
Y2387903D02*
D03*
X5404411Y2295903D02*
D03*
X5591411Y2294903D02*
D03*
D62*
X222591Y1113480D02*
D03*
Y2294583D02*
D03*
X5498181Y1113480D02*
D03*
Y2294583D02*
D03*
D63*
X2260000Y3177000D02*
D03*
D64*
X2360000D02*
D03*
X2460000D02*
D03*
X2560000D02*
D03*
D65*
X2796000Y2266000D02*
D03*
X2596000D02*
D03*
%TF.MD5,07645a17db090a804e96cd3e51a7c54a*%
M02*
