%TF.GenerationSoftware,Altium Limited,Altium Designer,21.3.2 (30)*%
G04 Layer_Color=16711935*
%FSLAX26Y26*%
%MOIN*%
%TF.SameCoordinates,FFAA3912-E1DC-4B59-95C2-56FC1F4E7B50*%
%TF.FilePolarity,Negative*%
%TF.FileFunction,Soldermask,Bot*%
%TF.Part,Single*%
G01*
G75*
%TA.AperFunction,SMDPad,CuDef*%
G04:AMPARAMS|DCode=69|XSize=86.74mil|YSize=86.74mil|CornerRadius=23.685mil|HoleSize=0mil|Usage=FLASHONLY|Rotation=90.000|XOffset=0mil|YOffset=0mil|HoleType=Round|Shape=RoundedRectangle|*
%AMROUNDEDRECTD69*
21,1,0.086740,0.039370,0,0,90.0*
21,1,0.039370,0.086740,0,0,90.0*
1,1,0.047370,0.019685,0.019685*
1,1,0.047370,0.019685,-0.019685*
1,1,0.047370,-0.019685,-0.019685*
1,1,0.047370,-0.019685,0.019685*
%
%ADD69ROUNDEDRECTD69*%
%TA.AperFunction,ComponentPad*%
G04:AMPARAMS|DCode=70|XSize=94.614mil|YSize=126.11mil|CornerRadius=25.654mil|HoleSize=0mil|Usage=FLASHONLY|Rotation=270.000|XOffset=0mil|YOffset=0mil|HoleType=Round|Shape=RoundedRectangle|*
%AMROUNDEDRECTD70*
21,1,0.094614,0.074803,0,0,270.0*
21,1,0.043307,0.126110,0,0,270.0*
1,1,0.051307,-0.037401,-0.021654*
1,1,0.051307,-0.037401,0.021654*
1,1,0.051307,0.037401,0.021654*
1,1,0.051307,0.037401,-0.021654*
%
%ADD70ROUNDEDRECTD70*%
%ADD71C,0.133984*%
%ADD72C,0.102488*%
%ADD73R,0.118000X0.128000*%
%ADD74O,0.118000X0.128000*%
%ADD75C,0.084772*%
%ADD76R,0.084772X0.084772*%
%ADD77R,0.068000X0.088000*%
%ADD78O,0.068000X0.088000*%
%ADD79O,0.043748X0.079496*%
%ADD80C,0.045717*%
%ADD81O,0.083000X0.073000*%
%ADD82C,0.078000*%
%ADD83R,0.059496X0.059496*%
%ADD84C,0.059496*%
%TA.AperFunction,ViaPad*%
%ADD85C,0.028000*%
%ADD86C,0.224535*%
D69*
X3389417Y541000D02*
D03*
X3566583D02*
D03*
X4933417D02*
D03*
X5110583D02*
D03*
X4415417D02*
D03*
X4592583D02*
D03*
X3895084D02*
D03*
X4072249D02*
D03*
D70*
X192000Y1518769D02*
D03*
Y1703808D02*
D03*
Y1888848D02*
D03*
D71*
X791157Y2798690D02*
D03*
X1551000D02*
D03*
X791157Y608926D02*
D03*
X1551000D02*
D03*
D72*
Y262863D02*
D03*
Y3132942D02*
D03*
X791157D02*
D03*
Y262863D02*
D03*
D73*
X3032000Y896000D02*
D03*
X2632000D02*
D03*
X3032000Y367000D02*
D03*
X2632000D02*
D03*
X5089000Y1171000D02*
D03*
X4688500D02*
D03*
X4288000D02*
D03*
X3887500D02*
D03*
D74*
X2832000Y896000D02*
D03*
X2432000D02*
D03*
X2832000Y367000D02*
D03*
X2432000D02*
D03*
X4889000Y1171000D02*
D03*
X4488500D02*
D03*
X4088000D02*
D03*
X3687500D02*
D03*
D75*
X5209850Y757158D02*
D03*
X4816150D02*
D03*
Y355583D02*
D03*
X5209850D02*
D03*
X4700850Y757158D02*
D03*
X4307150D02*
D03*
Y355583D02*
D03*
X4700850D02*
D03*
X4185850Y757158D02*
D03*
X3792150D02*
D03*
Y355583D02*
D03*
X4185850D02*
D03*
X3674850Y757158D02*
D03*
X3281150D02*
D03*
Y355583D02*
D03*
X3674850D02*
D03*
D76*
X5013000Y257158D02*
D03*
X4504000D02*
D03*
X3989000D02*
D03*
X3478000D02*
D03*
D77*
X2260000Y3177000D02*
D03*
D78*
X2360000D02*
D03*
X2460000D02*
D03*
X2560000D02*
D03*
D79*
X2963496Y3175000D02*
D03*
X2682000D02*
D03*
D80*
X2873929Y3183661D02*
D03*
X2848339Y3144291D02*
D03*
X2822748Y3183661D02*
D03*
X2797157Y3144291D02*
D03*
X2771567Y3183661D02*
D03*
D81*
X3246000Y1211000D02*
D03*
X3247000Y1033000D02*
D03*
X3497000Y1034000D02*
D03*
X3496000Y1211000D02*
D03*
D82*
X2796000Y2266000D02*
D03*
X2596000D02*
D03*
D83*
X5537000Y1584520D02*
D03*
D84*
Y1663260D02*
D03*
Y1742000D02*
D03*
Y1820740D02*
D03*
D85*
X3337000Y3133000D02*
D03*
D86*
X222591Y1113480D02*
D03*
Y2294583D02*
D03*
X5498181Y1113480D02*
D03*
Y2294583D02*
D03*
%TF.MD5,a4d30a70e798ab32fd6f87fac006ac6a*%
M02*
