%TF.GenerationSoftware,Altium Limited,Altium Designer,21.3.2 (30)*%
G04 Layer_Color=8388736*
%FSLAX26Y26*%
%MOIN*%
%TF.SameCoordinates,5CB9DBA1-4DA9-4ED0-9B61-E5D9B39C4D3D*%
%TF.FilePolarity,Negative*%
%TF.FileFunction,Soldermask,Top*%
%TF.Part,Single*%
G01*
G75*
%TA.AperFunction,SMDPad,CuDef*%
G04:AMPARAMS|DCode=65|XSize=86.74mil|YSize=86.74mil|CornerRadius=23.685mil|HoleSize=0mil|Usage=FLASHONLY|Rotation=90.000|XOffset=0mil|YOffset=0mil|HoleType=Round|Shape=RoundedRectangle|*
%AMROUNDEDRECTD65*
21,1,0.086740,0.039370,0,0,90.0*
21,1,0.039370,0.086740,0,0,90.0*
1,1,0.047370,0.019685,0.019685*
1,1,0.047370,0.019685,-0.019685*
1,1,0.047370,-0.019685,-0.019685*
1,1,0.047370,-0.019685,0.019685*
%
%ADD65ROUNDEDRECTD65*%
%TA.AperFunction,ComponentPad*%
G04:AMPARAMS|DCode=66|XSize=94.614mil|YSize=126.11mil|CornerRadius=25.654mil|HoleSize=0mil|Usage=FLASHONLY|Rotation=270.000|XOffset=0mil|YOffset=0mil|HoleType=Round|Shape=RoundedRectangle|*
%AMROUNDEDRECTD66*
21,1,0.094614,0.074803,0,0,270.0*
21,1,0.043307,0.126110,0,0,270.0*
1,1,0.051307,-0.037401,-0.021654*
1,1,0.051307,-0.037401,0.021654*
1,1,0.051307,0.037401,0.021654*
1,1,0.051307,0.037401,-0.021654*
%
%ADD66ROUNDEDRECTD66*%
%ADD67R,0.118000X0.128000*%
%ADD68O,0.118000X0.128000*%
%ADD71C,0.067055*%
G04:AMPARAMS|DCode=72|XSize=67.055mil|YSize=67.055mil|CornerRadius=18.764mil|HoleSize=0mil|Usage=FLASHONLY|Rotation=0.000|XOffset=0mil|YOffset=0mil|HoleType=Round|Shape=RoundedRectangle|*
%AMROUNDEDRECTD72*
21,1,0.067055,0.029527,0,0,0.0*
21,1,0.029527,0.067055,0,0,0.0*
1,1,0.037528,0.014764,-0.014764*
1,1,0.037528,-0.014764,-0.014764*
1,1,0.037528,-0.014764,0.014764*
1,1,0.037528,0.014764,0.014764*
%
%ADD72ROUNDEDRECTD72*%
%ADD73C,0.102488*%
%ADD74C,0.133984*%
%ADD77O,0.083000X0.073000*%
%ADD78C,0.084772*%
%ADD79R,0.084772X0.084772*%
%ADD80R,0.059496X0.059496*%
%ADD81C,0.059496*%
%TA.AperFunction,ViaPad*%
%ADD82C,0.224535*%
%TA.AperFunction,SMDPad,CuDef*%
G04:AMPARAMS|DCode=94|XSize=67.055mil|YSize=63.118mil|CornerRadius=17.779mil|HoleSize=0mil|Usage=FLASHONLY|Rotation=0.000|XOffset=0mil|YOffset=0mil|HoleType=Round|Shape=RoundedRectangle|*
%AMROUNDEDRECTD94*
21,1,0.067055,0.027559,0,0,0.0*
21,1,0.031496,0.063118,0,0,0.0*
1,1,0.035559,0.015748,-0.013780*
1,1,0.035559,-0.015748,-0.013780*
1,1,0.035559,-0.015748,0.013780*
1,1,0.035559,0.015748,0.013780*
%
%ADD94ROUNDEDRECTD94*%
%ADD95R,0.043433X0.067055*%
%ADD96R,0.067055X0.043433*%
%TA.AperFunction,BGAPad,CuDef*%
%ADD97R,0.043433X0.043433*%
%TA.AperFunction,SMDPad,CuDef*%
G04:AMPARAMS|DCode=98|XSize=70.992mil|YSize=49.339mil|CornerRadius=14.335mil|HoleSize=0mil|Usage=FLASHONLY|Rotation=270.000|XOffset=0mil|YOffset=0mil|HoleType=Round|Shape=RoundedRectangle|*
%AMROUNDEDRECTD98*
21,1,0.070992,0.020669,0,0,270.0*
21,1,0.042323,0.049339,0,0,270.0*
1,1,0.028669,-0.010335,-0.021162*
1,1,0.028669,-0.010335,0.021162*
1,1,0.028669,0.010335,0.021162*
1,1,0.028669,0.010335,-0.021162*
%
%ADD98ROUNDEDRECTD98*%
G04:AMPARAMS|DCode=99|XSize=55.244mil|YSize=43.433mil|CornerRadius=12.858mil|HoleSize=0mil|Usage=FLASHONLY|Rotation=90.000|XOffset=0mil|YOffset=0mil|HoleType=Round|Shape=RoundedRectangle|*
%AMROUNDEDRECTD99*
21,1,0.055244,0.017717,0,0,90.0*
21,1,0.029528,0.043433,0,0,90.0*
1,1,0.025716,0.008858,0.014764*
1,1,0.025716,0.008858,-0.014764*
1,1,0.025716,-0.008858,-0.014764*
1,1,0.025716,-0.008858,0.014764*
%
%ADD99ROUNDEDRECTD99*%
G04:AMPARAMS|DCode=100|XSize=70.992mil|YSize=49.339mil|CornerRadius=14.335mil|HoleSize=0mil|Usage=FLASHONLY|Rotation=180.000|XOffset=0mil|YOffset=0mil|HoleType=Round|Shape=RoundedRectangle|*
%AMROUNDEDRECTD100*
21,1,0.070992,0.020669,0,0,180.0*
21,1,0.042323,0.049339,0,0,180.0*
1,1,0.028669,-0.021162,0.010335*
1,1,0.028669,0.021162,0.010335*
1,1,0.028669,0.021162,-0.010335*
1,1,0.028669,-0.021162,-0.010335*
%
%ADD100ROUNDEDRECTD100*%
G04:AMPARAMS|DCode=101|XSize=55.244mil|YSize=43.433mil|CornerRadius=12.858mil|HoleSize=0mil|Usage=FLASHONLY|Rotation=180.000|XOffset=0mil|YOffset=0mil|HoleType=Round|Shape=RoundedRectangle|*
%AMROUNDEDRECTD101*
21,1,0.055244,0.017717,0,0,180.0*
21,1,0.029528,0.043433,0,0,180.0*
1,1,0.025716,-0.014764,0.008858*
1,1,0.025716,0.014764,0.008858*
1,1,0.025716,0.014764,-0.008858*
1,1,0.025716,-0.014764,-0.008858*
%
%ADD101ROUNDEDRECTD101*%
G04:AMPARAMS|DCode=102|XSize=143.827mil|YSize=70.992mil|CornerRadius=19.748mil|HoleSize=0mil|Usage=FLASHONLY|Rotation=180.000|XOffset=0mil|YOffset=0mil|HoleType=Round|Shape=RoundedRectangle|*
%AMROUNDEDRECTD102*
21,1,0.143827,0.031496,0,0,180.0*
21,1,0.104331,0.070992,0,0,180.0*
1,1,0.039496,-0.052165,0.015748*
1,1,0.039496,0.052165,0.015748*
1,1,0.039496,0.052165,-0.015748*
1,1,0.039496,-0.052165,-0.015748*
%
%ADD102ROUNDEDRECTD102*%
G04:AMPARAMS|DCode=103|XSize=102.488mil|YSize=90.677mil|CornerRadius=24.669mil|HoleSize=0mil|Usage=FLASHONLY|Rotation=90.000|XOffset=0mil|YOffset=0mil|HoleType=Round|Shape=RoundedRectangle|*
%AMROUNDEDRECTD103*
21,1,0.102488,0.041339,0,0,90.0*
21,1,0.053150,0.090677,0,0,90.0*
1,1,0.049339,0.020669,0.026575*
1,1,0.049339,0.020669,-0.026575*
1,1,0.049339,-0.020669,-0.026575*
1,1,0.049339,-0.020669,0.026575*
%
%ADD103ROUNDEDRECTD103*%
G04:AMPARAMS|DCode=104|XSize=102.488mil|YSize=90.677mil|CornerRadius=24.669mil|HoleSize=0mil|Usage=FLASHONLY|Rotation=0.000|XOffset=0mil|YOffset=0mil|HoleType=Round|Shape=RoundedRectangle|*
%AMROUNDEDRECTD104*
21,1,0.102488,0.041339,0,0,0.0*
21,1,0.053150,0.090677,0,0,0.0*
1,1,0.049339,0.026575,-0.020669*
1,1,0.049339,-0.026575,-0.020669*
1,1,0.049339,-0.026575,0.020669*
1,1,0.049339,0.026575,0.020669*
%
%ADD104ROUNDEDRECTD104*%
G04:AMPARAMS|DCode=105|XSize=55.244mil|YSize=173.354mil|CornerRadius=15.811mil|HoleSize=0mil|Usage=FLASHONLY|Rotation=180.000|XOffset=0mil|YOffset=0mil|HoleType=Round|Shape=RoundedRectangle|*
%AMROUNDEDRECTD105*
21,1,0.055244,0.141732,0,0,180.0*
21,1,0.023622,0.173354,0,0,180.0*
1,1,0.031622,-0.011811,0.070866*
1,1,0.031622,0.011811,0.070866*
1,1,0.031622,0.011811,-0.070866*
1,1,0.031622,-0.011811,-0.070866*
%
%ADD105ROUNDEDRECTD105*%
G04:AMPARAMS|DCode=106|XSize=401.701mil|YSize=362.331mil|CornerRadius=92.583mil|HoleSize=0mil|Usage=FLASHONLY|Rotation=180.000|XOffset=0mil|YOffset=0mil|HoleType=Round|Shape=RoundedRectangle|*
%AMROUNDEDRECTD106*
21,1,0.401701,0.177166,0,0,180.0*
21,1,0.216536,0.362331,0,0,180.0*
1,1,0.185165,-0.108268,0.088583*
1,1,0.185165,0.108268,0.088583*
1,1,0.185165,0.108268,-0.088583*
1,1,0.185165,-0.108268,-0.088583*
%
%ADD106ROUNDEDRECTD106*%
%ADD107R,0.075000X0.029000*%
%ADD108R,0.063118X0.146189*%
%ADD109O,0.039496X0.067843*%
G04:AMPARAMS|DCode=110|XSize=39.496mil|YSize=67.843mil|CornerRadius=11.874mil|HoleSize=0mil|Usage=FLASHONLY|Rotation=0.000|XOffset=0mil|YOffset=0mil|HoleType=Round|Shape=RoundedRectangle|*
%AMROUNDEDRECTD110*
21,1,0.039496,0.044094,0,0,0.0*
21,1,0.015748,0.067843,0,0,0.0*
1,1,0.023748,0.007874,-0.022047*
1,1,0.023748,-0.007874,-0.022047*
1,1,0.023748,-0.007874,0.022047*
1,1,0.023748,0.007874,0.022047*
%
%ADD110ROUNDEDRECTD110*%
G04:AMPARAMS|DCode=111|XSize=169.417mil|YSize=86.74mil|CornerRadius=23.685mil|HoleSize=0mil|Usage=FLASHONLY|Rotation=0.000|XOffset=0mil|YOffset=0mil|HoleType=Round|Shape=RoundedRectangle|*
%AMROUNDEDRECTD111*
21,1,0.169417,0.039370,0,0,0.0*
21,1,0.122047,0.086740,0,0,0.0*
1,1,0.047370,0.061024,-0.019685*
1,1,0.047370,-0.061024,-0.019685*
1,1,0.047370,-0.061024,0.019685*
1,1,0.047370,0.061024,0.019685*
%
%ADD111ROUNDEDRECTD111*%
G04:AMPARAMS|DCode=112|XSize=145.795mil|YSize=72.961mil|CornerRadius=20.24mil|HoleSize=0mil|Usage=FLASHONLY|Rotation=180.000|XOffset=0mil|YOffset=0mil|HoleType=Round|Shape=RoundedRectangle|*
%AMROUNDEDRECTD112*
21,1,0.145795,0.032480,0,0,180.0*
21,1,0.105315,0.072961,0,0,180.0*
1,1,0.040480,-0.052657,0.016240*
1,1,0.040480,0.052657,0.016240*
1,1,0.040480,0.052657,-0.016240*
1,1,0.040480,-0.052657,-0.016240*
%
%ADD112ROUNDEDRECTD112*%
G04:AMPARAMS|DCode=113|XSize=55.244mil|YSize=72.961mil|CornerRadius=15.811mil|HoleSize=0mil|Usage=FLASHONLY|Rotation=180.000|XOffset=0mil|YOffset=0mil|HoleType=Round|Shape=RoundedRectangle|*
%AMROUNDEDRECTD113*
21,1,0.055244,0.041339,0,0,180.0*
21,1,0.023622,0.072961,0,0,180.0*
1,1,0.031622,-0.011811,0.020669*
1,1,0.031622,0.011811,0.020669*
1,1,0.031622,0.011811,-0.020669*
1,1,0.031622,-0.011811,-0.020669*
%
%ADD113ROUNDEDRECTD113*%
G04:AMPARAMS|DCode=114|XSize=133.984mil|YSize=70.992mil|CornerRadius=19.748mil|HoleSize=0mil|Usage=FLASHONLY|Rotation=90.000|XOffset=0mil|YOffset=0mil|HoleType=Round|Shape=RoundedRectangle|*
%AMROUNDEDRECTD114*
21,1,0.133984,0.031496,0,0,90.0*
21,1,0.094488,0.070992,0,0,90.0*
1,1,0.039496,0.015748,0.047244*
1,1,0.039496,0.015748,-0.047244*
1,1,0.039496,-0.015748,-0.047244*
1,1,0.039496,-0.015748,0.047244*
%
%ADD114ROUNDEDRECTD114*%
G04:AMPARAMS|DCode=115|XSize=39.496mil|YSize=70.992mil|CornerRadius=11.874mil|HoleSize=0mil|Usage=FLASHONLY|Rotation=270.000|XOffset=0mil|YOffset=0mil|HoleType=Round|Shape=RoundedRectangle|*
%AMROUNDEDRECTD115*
21,1,0.039496,0.047244,0,0,270.0*
21,1,0.015748,0.070992,0,0,270.0*
1,1,0.023748,-0.023622,-0.007874*
1,1,0.023748,-0.023622,0.007874*
1,1,0.023748,0.023622,0.007874*
1,1,0.023748,0.023622,-0.007874*
%
%ADD115ROUNDEDRECTD115*%
%ADD116O,0.070992X0.039496*%
%TA.AperFunction,ComponentPad*%
%ADD117C,0.068000*%
%ADD118R,0.068000X0.068000*%
%ADD119R,0.068000X0.068000*%
D65*
X2739835Y1666000D02*
D03*
X2917000D02*
D03*
D66*
X175000Y1465961D02*
D03*
Y1651000D02*
D03*
Y1836039D02*
D03*
D67*
X4786000Y1075000D02*
D03*
X4385667D02*
D03*
X3985333D02*
D03*
X3585000D02*
D03*
X2086000Y3059000D02*
D03*
X2686000D02*
D03*
X3086000D02*
D03*
D68*
X4586000Y1075000D02*
D03*
X4185667D02*
D03*
X3785333D02*
D03*
X3385000D02*
D03*
X2286000Y3059000D02*
D03*
X2486000D02*
D03*
X2886000D02*
D03*
X3286000D02*
D03*
D71*
X2178000Y296449D02*
D03*
D72*
X2078000D02*
D03*
D73*
X767000Y223182D02*
D03*
Y3093261D02*
D03*
X1526843D02*
D03*
Y223182D02*
D03*
D74*
Y569245D02*
D03*
X767000D02*
D03*
X1526843Y2759009D02*
D03*
X767000D02*
D03*
D77*
X3105000Y350000D02*
D03*
X3106000Y173000D02*
D03*
X2856000Y172000D02*
D03*
X2855000Y350000D02*
D03*
D78*
X4776184Y658158D02*
D03*
X4382483D02*
D03*
Y256583D02*
D03*
X4776184D02*
D03*
X3720850Y658158D02*
D03*
X3327150D02*
D03*
Y256583D02*
D03*
X3720850D02*
D03*
X4248517Y658158D02*
D03*
X3854816D02*
D03*
Y256583D02*
D03*
X4248517D02*
D03*
X5303850Y658158D02*
D03*
X4910149D02*
D03*
Y256583D02*
D03*
X5303850D02*
D03*
D79*
X4579333Y158157D02*
D03*
X3524000D02*
D03*
X4051667D02*
D03*
X5107000D02*
D03*
D80*
X5511000Y1534890D02*
D03*
D81*
Y1613630D02*
D03*
Y1692370D02*
D03*
Y1771110D02*
D03*
D82*
X173039Y2185992D02*
D03*
X5488000D02*
D03*
Y1123000D02*
D03*
X173039D02*
D03*
D94*
X5325543Y2384000D02*
D03*
X5018457D02*
D03*
X5325543Y1334000D02*
D03*
X5018457D02*
D03*
D95*
X4545000Y2198976D02*
D03*
X4595000D02*
D03*
X4645000D02*
D03*
X4695000D02*
D03*
X4745000D02*
D03*
X4795000D02*
D03*
X4845000D02*
D03*
X4895000D02*
D03*
X4945000D02*
D03*
X4995000D02*
D03*
X5045000D02*
D03*
X5095000D02*
D03*
X5145000D02*
D03*
X5195000D02*
D03*
X4545000Y1510000D02*
D03*
X4595000D02*
D03*
X4645000D02*
D03*
X4695000D02*
D03*
X4745000D02*
D03*
X4795000D02*
D03*
X4845000D02*
D03*
X4895000D02*
D03*
X4945000D02*
D03*
X4995000D02*
D03*
X5045000D02*
D03*
X5095000D02*
D03*
X5145000D02*
D03*
X5195000D02*
D03*
D96*
X4495787Y1829488D02*
D03*
Y1779488D02*
D03*
Y1729488D02*
D03*
Y1679488D02*
D03*
Y1629488D02*
D03*
Y1879488D02*
D03*
Y1929488D02*
D03*
Y1979488D02*
D03*
Y2029488D02*
D03*
Y2079488D02*
D03*
D97*
X4891063Y1913543D02*
D03*
Y1968661D02*
D03*
Y1858425D02*
D03*
X4946181Y1913543D02*
D03*
Y1968661D02*
D03*
Y1858425D02*
D03*
X4835945Y1913543D02*
D03*
Y1968661D02*
D03*
Y1858425D02*
D03*
D98*
X4970000Y2605000D02*
D03*
X4893228D02*
D03*
X5143614Y793000D02*
D03*
X5220386D02*
D03*
X4611031D02*
D03*
X4687803D02*
D03*
X3551228D02*
D03*
X3628000D02*
D03*
X4080000D02*
D03*
X4156772D02*
D03*
D99*
X5080535Y2610000D02*
D03*
X5147465D02*
D03*
X5080535Y2751333D02*
D03*
X5147465D02*
D03*
X5080535Y2822000D02*
D03*
X5147465D02*
D03*
X5080535Y2680667D02*
D03*
X5147465D02*
D03*
X4896535Y2683000D02*
D03*
X4963465D02*
D03*
X4896535Y2752500D02*
D03*
X4963465D02*
D03*
X4896535Y2822000D02*
D03*
X4963465D02*
D03*
X4796535Y2415000D02*
D03*
X4863465D02*
D03*
Y2339000D02*
D03*
X4796535D02*
D03*
X4367071Y2305000D02*
D03*
X4434000D02*
D03*
Y2378000D02*
D03*
X4367071D02*
D03*
Y2451000D02*
D03*
X4434000D02*
D03*
X4220606Y2305000D02*
D03*
X4287535D02*
D03*
X4220606Y2378000D02*
D03*
X4287535D02*
D03*
X2272535Y2423000D02*
D03*
X2205606D02*
D03*
X2425000D02*
D03*
X2358071D02*
D03*
X2807035Y1862000D02*
D03*
X2740106D02*
D03*
Y1788000D02*
D03*
X2807035D02*
D03*
X2888535Y1862000D02*
D03*
X2955465D02*
D03*
X2888535Y1788000D02*
D03*
X2955465D02*
D03*
X3046071Y466000D02*
D03*
X3113000D02*
D03*
Y537000D02*
D03*
X3046071D02*
D03*
X5006535Y793000D02*
D03*
X5073465D02*
D03*
X4471071D02*
D03*
X4538000D02*
D03*
X3939071D02*
D03*
X4006000D02*
D03*
X3412071D02*
D03*
X3479000D02*
D03*
X3273535Y2128000D02*
D03*
X3340465D02*
D03*
D100*
X4646000Y2347228D02*
D03*
Y2424000D02*
D03*
X3115000Y1626614D02*
D03*
Y1703386D02*
D03*
X3023000Y1626614D02*
D03*
Y1703386D02*
D03*
D101*
X4562000Y2360071D02*
D03*
Y2427000D02*
D03*
X4221591Y2527465D02*
D03*
Y2460535D02*
D03*
X2650000Y1793535D02*
D03*
Y1860465D02*
D03*
X2576000D02*
D03*
Y1793535D02*
D03*
X3049000Y1857465D02*
D03*
Y1790535D02*
D03*
X3125000Y1857465D02*
D03*
Y1790535D02*
D03*
X4210000Y1481535D02*
D03*
Y1548465D02*
D03*
X4283000D02*
D03*
Y1481535D02*
D03*
X3859000Y2612535D02*
D03*
Y2679465D02*
D03*
X2534000Y2064929D02*
D03*
Y1998000D02*
D03*
D102*
X2406000Y2167260D02*
D03*
Y2324740D02*
D03*
X2227000Y2167260D02*
D03*
Y2324740D02*
D03*
D103*
X2224000Y2043000D02*
D03*
X2404000D02*
D03*
D104*
X2409000Y1891000D02*
D03*
Y1711000D02*
D03*
X2230000D02*
D03*
Y1891000D02*
D03*
D105*
X4501000Y2652457D02*
D03*
X4701000D02*
D03*
X4250000D02*
D03*
X4050000D02*
D03*
D106*
X4601000Y3056000D02*
D03*
X4150000D02*
D03*
D107*
X2967000Y1977000D02*
D03*
Y2027000D02*
D03*
Y2077000D02*
D03*
Y2127000D02*
D03*
Y2177000D02*
D03*
Y2227000D02*
D03*
Y2277000D02*
D03*
X3171000D02*
D03*
Y2227000D02*
D03*
Y2177000D02*
D03*
Y2127000D02*
D03*
Y2077000D02*
D03*
Y2027000D02*
D03*
Y1977000D02*
D03*
D108*
X2236016Y2575000D02*
D03*
X2397984D02*
D03*
D109*
X3582000Y1474677D02*
D03*
X3632000D02*
D03*
X3682000D02*
D03*
X3732000D02*
D03*
X3782000D02*
D03*
X3832000D02*
D03*
X3882000D02*
D03*
X3932000D02*
D03*
X3582000Y1692000D02*
D03*
X3632000D02*
D03*
X3682000D02*
D03*
X3732000D02*
D03*
X3782000D02*
D03*
X3832000D02*
D03*
X3882000D02*
D03*
D110*
X3932000D02*
D03*
D111*
X3842000Y3010000D02*
D03*
X3499480D02*
D03*
D112*
X4966000Y3174110D02*
D03*
D113*
X5056551Y2937890D02*
D03*
X4966000D02*
D03*
X4875449D02*
D03*
D114*
X5247000Y2956575D02*
D03*
Y3153425D02*
D03*
D115*
X2860843Y1998000D02*
D03*
D116*
Y2048000D02*
D03*
Y2098000D02*
D03*
Y2148000D02*
D03*
X2641157Y1998000D02*
D03*
Y2048000D02*
D03*
Y2098000D02*
D03*
Y2148000D02*
D03*
D117*
X3518000Y2441000D02*
D03*
X3618000D02*
D03*
X3718000D02*
D03*
X3818000D02*
D03*
X4244000Y1712000D02*
D03*
Y1812000D02*
D03*
Y1912000D02*
D03*
D118*
X3918000Y2441000D02*
D03*
D119*
X4244000Y2012000D02*
D03*
%TF.MD5,dee1e2aa4c5929892332f342775b69bb*%
M02*
