%TF.GenerationSoftware,Altium Limited,Altium Designer,21.3.2 (30)*%
G04 Layer_Color=32768*
%FSLAX26Y26*%
%MOIN*%
%TF.SameCoordinates,5CB9DBA1-4DA9-4ED0-9B61-E5D9B39C4D3D*%
%TF.FilePolarity,Positive*%
%TF.FileFunction,Other,Mechanical_15*%
%TF.Part,Single*%
G01*
G75*
%TA.AperFunction,NonConductor*%
%ADD83C,0.006000*%
%ADD89C,0.003937*%
%ADD126C,0.001968*%
%ADD127C,0.004000*%
D83*
X5148378Y2383997D02*
X5195622D01*
X5172000Y2360375D02*
Y2407619D01*
X5052000Y2311165D02*
Y2456835D01*
Y2311165D02*
X5292157D01*
Y2456835D01*
X5052000D02*
X5292157D01*
X5148378Y1333997D02*
X5195622D01*
X5172000Y1310375D02*
Y1357619D01*
X5052000Y1261165D02*
Y1406835D01*
Y1261165D02*
X5292157D01*
Y1406835D01*
X5052000D02*
X5292157D01*
D89*
X5000614Y2568000D02*
Y2642000D01*
X4862614Y2568000D02*
Y2642000D01*
Y2568000D02*
X5000614D01*
X4862614Y2642000D02*
X5000614D01*
X4911929Y2605000D02*
X4951299D01*
X4931614Y2585315D02*
Y2624685D01*
X4868976Y2654457D02*
Y2711543D01*
X4991024Y2654457D02*
Y2711543D01*
X4868976D02*
X4991024D01*
X4868976Y2654457D02*
X4991024D01*
X4912283Y2683000D02*
X4947717D01*
X4930000Y2665284D02*
Y2700716D01*
X4830000Y2397284D02*
Y2432716D01*
X4812283Y2415000D02*
X4847717D01*
X4768976Y2443543D02*
X4891024D01*
X4768976Y2386457D02*
X4891024D01*
X4768976D02*
Y2443543D01*
X4891024Y2386457D02*
Y2443543D01*
X4609000Y2316614D02*
X4683000D01*
X4609000Y2454614D02*
X4683000D01*
X4609000Y2316614D02*
Y2454614D01*
X4683000Y2316614D02*
Y2454614D01*
X4646000Y2365929D02*
Y2405299D01*
X4626315Y2385614D02*
X4665685D01*
X4533457Y2332512D02*
X4590543D01*
X4533457Y2454559D02*
X4590543D01*
X4533457Y2332512D02*
Y2454559D01*
X4590543Y2332512D02*
Y2454559D01*
X4562000Y2375819D02*
Y2411252D01*
X4544283Y2393535D02*
X4579717D01*
X4339512Y2276457D02*
Y2333543D01*
X4461559Y2276457D02*
Y2333543D01*
X4339512D02*
X4461559D01*
X4339512Y2276457D02*
X4461559D01*
X4382819Y2305000D02*
X4418252D01*
X4400535Y2287284D02*
Y2322716D01*
X4461559Y2349457D02*
Y2406543D01*
X4339512Y2349457D02*
Y2406543D01*
Y2349457D02*
X4461559D01*
X4339512Y2406543D02*
X4461559D01*
X4382819Y2378000D02*
X4418252D01*
X4400535Y2360284D02*
Y2395716D01*
X4254071Y2287284D02*
Y2322716D01*
X4236354Y2305000D02*
X4271788D01*
X4193047Y2333543D02*
X4315095D01*
X4193047Y2276457D02*
X4315095D01*
X4193047D02*
Y2333543D01*
X4315095Y2276457D02*
Y2333543D01*
X4254071Y2360284D02*
Y2395716D01*
X4236354Y2378000D02*
X4271788D01*
X4193047Y2406543D02*
X4315095D01*
X4193047Y2349457D02*
X4315095D01*
X4193047D02*
Y2406543D01*
X4315095Y2349457D02*
Y2406543D01*
X2300095Y2394457D02*
Y2451543D01*
X2178047Y2394457D02*
Y2451543D01*
Y2394457D02*
X2300095D01*
X2178047Y2451543D02*
X2300095D01*
X2221354Y2423000D02*
X2256787D01*
X2239071Y2405284D02*
Y2440716D01*
X2452559Y2394457D02*
Y2451543D01*
X2330512Y2394457D02*
Y2451543D01*
Y2394457D02*
X2452559D01*
X2330512Y2451543D02*
X2452559D01*
X2373819Y2423000D02*
X2409252D01*
X2391535Y2405284D02*
Y2440716D01*
X2328244Y2125921D02*
X2483756D01*
X2328244Y2366079D02*
X2483756D01*
X2328244Y2125921D02*
Y2366079D01*
X2483756Y2125921D02*
Y2366079D01*
X2406000Y2226315D02*
Y2265685D01*
X2386315Y2246000D02*
X2425685D01*
X2149244Y2125921D02*
X2304756D01*
X2149244Y2366079D02*
X2304756D01*
X2149244Y2125921D02*
Y2366079D01*
X2304756Y2125921D02*
Y2366079D01*
X2227000Y2226315D02*
Y2265685D01*
X2207315Y2246000D02*
X2246685D01*
X2169000Y1963000D02*
Y2123000D01*
X2459000Y1963000D02*
Y2123000D01*
X2169000D02*
X2459000D01*
X2169000Y1963000D02*
X2459000D01*
X2294315Y2043000D02*
X2333685D01*
X2314000Y2023315D02*
Y2062685D01*
X2329000Y1946000D02*
X2489000D01*
X2329000Y1656000D02*
X2489000D01*
Y1946000D01*
X2329000Y1656000D02*
Y1946000D01*
X2409000Y1781315D02*
Y1820685D01*
X2389315Y1801000D02*
X2428685D01*
X2150000Y1656000D02*
X2310000D01*
X2150000Y1946000D02*
X2310000D01*
X2150000Y1656000D02*
Y1946000D01*
X2310000Y1656000D02*
Y1946000D01*
X2230000Y1781315D02*
Y1820685D01*
X2210315Y1801000D02*
X2249685D01*
X2948496Y1597102D02*
Y1734898D01*
X2708338Y1597102D02*
Y1734898D01*
Y1597102D02*
X2948496D01*
X2708338Y1734898D02*
X2948496D01*
X2808732Y1666000D02*
X2848102D01*
X2828417Y1646315D02*
Y1685685D01*
X2834595Y1833457D02*
Y1890543D01*
X2712547Y1833457D02*
Y1890543D01*
Y1833457D02*
X2834595D01*
X2712547Y1890543D02*
X2834595D01*
X2755854Y1862000D02*
X2791287D01*
X2773571Y1844284D02*
Y1879716D01*
X2712547Y1759457D02*
Y1816543D01*
X2834595Y1759457D02*
Y1816543D01*
X2712547D02*
X2834595D01*
X2712547Y1759457D02*
X2834595D01*
X2755854Y1788000D02*
X2791287D01*
X2773571Y1770284D02*
Y1805716D01*
X3078000Y1596000D02*
X3152000D01*
X3078000Y1734000D02*
X3152000D01*
X3078000Y1596000D02*
Y1734000D01*
X3152000Y1596000D02*
Y1734000D01*
X3115000Y1645315D02*
Y1684685D01*
X3095315Y1665000D02*
X3134685D01*
X2986000Y1596000D02*
X3060000D01*
X2986000Y1734000D02*
X3060000D01*
X2986000Y1596000D02*
Y1734000D01*
X3060000Y1596000D02*
Y1734000D01*
X3023000Y1645315D02*
Y1684685D01*
X3003315Y1665000D02*
X3042685D01*
X3140559Y508457D02*
Y565543D01*
X3018512Y508457D02*
Y565543D01*
Y508457D02*
X3140559D01*
X3018512Y565543D02*
X3140559D01*
X3061819Y537000D02*
X3097252D01*
X3079535Y519284D02*
Y554716D01*
X4380528Y2558953D02*
X4821472D01*
X4380528Y3238087D02*
X4821472D01*
X4380528Y2558953D02*
Y3238087D01*
X4821472Y2558953D02*
Y3238087D01*
X4601000Y2878835D02*
Y2918205D01*
X4581315Y2898520D02*
X4620685D01*
X4203874Y2494000D02*
X4239307D01*
X4221591Y2476283D02*
Y2511716D01*
X4250134Y2432976D02*
Y2555024D01*
X4193047Y2432976D02*
Y2555024D01*
X4250134D01*
X4193047Y2432976D02*
X4250134D01*
X4577000Y358315D02*
Y397685D01*
X4557315Y378000D02*
X4596685D01*
X4456921Y309102D02*
X4697079D01*
X4456921Y446898D02*
X4697079D01*
X4456921Y309102D02*
Y446898D01*
X4697079Y309102D02*
Y446898D01*
X4052000Y358315D02*
Y397685D01*
X4032315Y378000D02*
X4071685D01*
X3931921Y309102D02*
X4172079D01*
X3931921Y446898D02*
X4172079D01*
X3931921Y309102D02*
Y446898D01*
X4172079Y309102D02*
Y446898D01*
X3520000Y358315D02*
Y397685D01*
X3500315Y378000D02*
X3539685D01*
X3399921Y309102D02*
X3640079D01*
X3399921Y446898D02*
X3640079D01*
X3399921Y309102D02*
Y446898D01*
X3640079Y309102D02*
Y446898D01*
X2632284Y1827000D02*
X2667716D01*
X2650000Y1809284D02*
Y1844717D01*
X2621457Y1765976D02*
Y1888024D01*
X2678543Y1765976D02*
Y1888024D01*
X2621457Y1765976D02*
X2678543D01*
X2621457Y1888024D02*
X2678543D01*
X2558284Y1827000D02*
X2593716D01*
X2576000Y1809284D02*
Y1844717D01*
X2604543Y1765976D02*
Y1888024D01*
X2547457Y1765976D02*
Y1888024D01*
X2604543D01*
X2547457Y1765976D02*
X2604543D01*
X3031284Y1824000D02*
X3066716D01*
X3049000Y1806283D02*
Y1841716D01*
X3077543Y1762976D02*
Y1885024D01*
X3020457Y1762976D02*
Y1885024D01*
X3077543D01*
X3020457Y1762976D02*
X3077543D01*
X3107284Y1824000D02*
X3142716D01*
X3125000Y1806283D02*
Y1841716D01*
X3153543Y1762976D02*
Y1885024D01*
X3096457Y1762976D02*
Y1885024D01*
X3153543D01*
X3096457Y1762976D02*
X3153543D01*
X4130315Y2898520D02*
X4169685D01*
X4150000Y2878835D02*
Y2918205D01*
X4370472Y2558953D02*
Y3238087D01*
X3929528Y2558953D02*
Y3238087D01*
X4370472D01*
X3929528Y2558953D02*
X4370472D01*
X5107000Y358315D02*
Y397685D01*
X5087315Y378000D02*
X5126685D01*
X4986921Y309102D02*
X5227079D01*
X4986921Y446898D02*
X5227079D01*
X4986921Y309102D02*
Y446898D01*
X5227079Y309102D02*
Y446898D01*
X4265283Y1515000D02*
X4300717D01*
X4283000Y1497283D02*
Y1532716D01*
X4311543Y1453976D02*
Y1576024D01*
X4254457Y1453976D02*
Y1576024D01*
X4311543D01*
X4254457Y1453976D02*
X4311543D01*
X3737315Y1583339D02*
X3776685D01*
X3757000Y1563654D02*
Y1603024D01*
X3550307Y1435701D02*
Y1730976D01*
X3963693Y1435701D02*
Y1730976D01*
X3550307Y1435701D02*
X3963693D01*
X3550307Y1730976D02*
X3963693D01*
X3670740Y2989994D02*
Y3029364D01*
X3651055Y3009679D02*
X3690425D01*
X5040000Y775284D02*
Y810716D01*
X5022283Y793000D02*
X5057717D01*
X4978976Y821543D02*
X5101024D01*
X4978976Y764457D02*
X5101024D01*
X4978976D02*
Y821543D01*
X5101024Y764457D02*
Y821543D01*
X5182000Y773315D02*
Y812685D01*
X5162315Y793000D02*
X5201685D01*
X5113000Y830000D02*
X5251000D01*
X5113000Y756000D02*
X5251000D01*
X5113000D02*
Y830000D01*
X5251000Y756000D02*
Y830000D01*
X4649417Y773315D02*
Y812685D01*
X4629732Y793000D02*
X4669102D01*
X4580417Y830000D02*
X4718417D01*
X4580417Y756000D02*
X4718417D01*
X4580417D02*
Y830000D01*
X4718417Y756000D02*
Y830000D01*
X4504535Y775284D02*
Y810716D01*
X4486819Y793000D02*
X4522252D01*
X4443512Y821543D02*
X4565559D01*
X4443512Y764457D02*
X4565559D01*
X4443512D02*
Y821543D01*
X4565559Y764457D02*
Y821543D01*
X3589614Y773315D02*
Y812685D01*
X3569929Y793000D02*
X3609299D01*
X3520614Y830000D02*
X3658614D01*
X3520614Y756000D02*
X3658614D01*
X3520614D02*
Y830000D01*
X3658614Y756000D02*
Y830000D01*
X4118386Y773315D02*
Y812685D01*
X4098701Y793000D02*
X4138071D01*
X4049386Y830000D02*
X4187386D01*
X4049386Y756000D02*
X4187386D01*
X4049386D02*
Y830000D01*
X4187386Y756000D02*
Y830000D01*
X3972535Y775284D02*
Y810716D01*
X3954819Y793000D02*
X3990252D01*
X3911512Y821543D02*
X4033559D01*
X3911512Y764457D02*
X4033559D01*
X3911512D02*
Y821543D01*
X4033559Y764457D02*
Y821543D01*
X3445535Y775284D02*
Y810716D01*
X3427819Y793000D02*
X3463252D01*
X3384512Y821543D02*
X3506559D01*
X3384512Y764457D02*
X3506559D01*
X3384512D02*
Y821543D01*
X3506559Y764457D02*
Y821543D01*
X4946315Y3056000D02*
X4985685D01*
X4966000Y3036315D02*
Y3075685D01*
X5107732Y2885724D02*
Y3226276D01*
X4824268Y2885724D02*
Y3226276D01*
X5107732D01*
X4824268Y2885724D02*
X5107732D01*
X5227630Y3055000D02*
X5267000D01*
X5247315Y3035315D02*
Y3074685D01*
X3245976Y2099457D02*
Y2156543D01*
X3368024Y2099457D02*
Y2156543D01*
X3245976D02*
X3368024D01*
X3245976Y2099457D02*
X3368024D01*
X3289283Y2128000D02*
X3324716D01*
X3307000Y2110284D02*
Y2145716D01*
X2898638Y1964732D02*
Y2181268D01*
X2603362Y1964732D02*
Y2181268D01*
Y1964732D02*
X2898638D01*
X2603362Y2181268D02*
X2898638D01*
X2731315Y2073000D02*
X2770685D01*
X2751000Y2053315D02*
Y2092685D01*
D126*
X5251693Y1470630D02*
Y2238347D01*
X4456417Y1470630D02*
X5251693D01*
X4456417D02*
Y2238347D01*
X5251693D01*
X345543Y124757D02*
Y3203497D01*
X1948299D01*
Y124757D02*
Y3203497D01*
X345543Y124757D02*
X1948299D01*
X2198693Y2496260D02*
Y2653740D01*
X2435307Y2496260D02*
Y2653740D01*
X2198693Y2496260D02*
X2435307D01*
X2198693Y2653740D02*
X2435307D01*
X4325396Y93197D02*
Y742803D01*
X4833270D01*
Y93197D02*
Y742803D01*
X4325396Y93197D02*
X4833270D01*
X3270063D02*
Y742803D01*
X3777937D01*
Y93197D02*
Y742803D01*
X3270063Y93197D02*
X3777937D01*
X3797730D02*
Y742803D01*
X4305604D01*
Y93197D02*
Y742803D01*
X3797730Y93197D02*
X4305604D01*
X4853063D02*
Y742803D01*
X5360937D01*
Y93197D02*
Y742803D01*
X4853063Y93197D02*
X5360937D01*
X5416512Y1446307D02*
Y1859693D01*
X5636984D01*
Y1446307D02*
Y1859693D01*
X5416512Y1446307D02*
X5636984D01*
D127*
X5114000Y2592283D02*
Y2627716D01*
X5096283Y2610000D02*
X5131717D01*
X5082506Y2626864D02*
X5145501D01*
Y2593005D02*
Y2626864D01*
X5082506Y2593005D02*
X5145501D01*
X5082506D02*
Y2626864D01*
X5114000Y2733617D02*
Y2769050D01*
X5096283Y2751333D02*
X5131717D01*
X5082506Y2768197D02*
X5145501D01*
Y2734338D02*
Y2768197D01*
X5082506Y2734338D02*
X5145501D01*
X5082506D02*
Y2768197D01*
X5114000Y2804283D02*
Y2839716D01*
X5096283Y2822000D02*
X5131717D01*
X5082506Y2838864D02*
X5145501D01*
Y2805005D02*
Y2838864D01*
X5082506Y2805005D02*
X5145501D01*
X5082506D02*
Y2838864D01*
X5114000Y2662950D02*
Y2698383D01*
X5096283Y2680667D02*
X5131717D01*
X5082506Y2697531D02*
X5145501D01*
Y2663671D02*
Y2697531D01*
X5082506Y2663671D02*
X5145501D01*
X5082506D02*
Y2697531D01*
X4961494Y2735636D02*
Y2769495D01*
X4898499D02*
X4961494D01*
X4898499Y2735636D02*
Y2769495D01*
Y2735636D02*
X4961494D01*
X4912283Y2752500D02*
X4947717D01*
X4930000Y2734784D02*
Y2770217D01*
X4961494Y2805136D02*
Y2838995D01*
X4898499D02*
X4961494D01*
X4898499Y2805136D02*
Y2838995D01*
Y2805136D02*
X4961494D01*
X4912283Y2822000D02*
X4947717D01*
X4930000Y2804284D02*
Y2839717D01*
X4830000Y2321284D02*
Y2356717D01*
X4812283Y2339000D02*
X4847717D01*
X4798499Y2322136D02*
X4861494D01*
X4798499D02*
Y2355995D01*
X4861494D01*
Y2322136D02*
Y2355995D01*
X4400535Y2433283D02*
Y2468716D01*
X4382819Y2451000D02*
X4418252D01*
X4369041Y2467864D02*
X4432036D01*
Y2434005D02*
Y2467864D01*
X4369041Y2434005D02*
X4432036D01*
X4369041D02*
Y2467864D01*
X2953494Y1845136D02*
Y1878995D01*
X2890499D02*
X2953494D01*
X2890499Y1845136D02*
Y1878995D01*
Y1845136D02*
X2953494D01*
X2904284Y1862000D02*
X2939716D01*
X2922000Y1844284D02*
Y1879717D01*
X2953494Y1771136D02*
Y1804995D01*
X2890499D02*
X2953494D01*
X2890499Y1771136D02*
Y1804995D01*
Y1771136D02*
X2953494D01*
X2904284Y1788000D02*
X2939716D01*
X2922000Y1770284D02*
Y1805717D01*
X3111030Y449136D02*
Y482995D01*
X3048035D02*
X3111030D01*
X3048035Y449136D02*
Y482995D01*
Y449136D02*
X3111030D01*
X3061819Y466000D02*
X3097252D01*
X3079535Y448284D02*
Y483717D01*
X4192283Y1515000D02*
X4227717D01*
X4210000Y1497284D02*
Y1532716D01*
X4193136Y1483506D02*
Y1546501D01*
X4226995D01*
Y1483506D02*
Y1546501D01*
X4193136Y1483506D02*
X4226995D01*
X3444362Y2808222D02*
X3902039D01*
X3444362D02*
Y3211765D01*
X3902039Y2808222D02*
Y3211765D01*
X3444362D02*
X3902039D01*
X5374953Y2917205D02*
Y3192795D01*
X5119047Y2917205D02*
X5374953D01*
X5119047Y3192795D02*
X5374953D01*
X5119047Y2917205D02*
Y3192795D01*
X3842005Y2677494D02*
X3875864D01*
X3842005Y2614499D02*
Y2677494D01*
Y2614499D02*
X3875864D01*
Y2677494D01*
X3859000Y2628284D02*
Y2663716D01*
X3841283Y2646000D02*
X3876716D01*
X2517136Y1999970D02*
X2550995D01*
Y2062966D01*
X2517136D02*
X2550995D01*
X2517136Y1999970D02*
Y2062966D01*
X2534000Y2013748D02*
Y2049181D01*
X2516284Y2031465D02*
X2551717D01*
%TF.MD5,1d90cf38c0b9cfd5e5b56c49aa714b32*%
M02*
