%TF.GenerationSoftware,Altium Limited,Altium Designer,21.3.2 (30)*%
G04 Layer_Color=2752767*
%FSLAX26Y26*%
%MOIN*%
%TF.SameCoordinates,5CB9DBA1-4DA9-4ED0-9B61-E5D9B39C4D3D*%
%TF.FilePolarity,Positive*%
%TF.FileFunction,Drawing*%
%TF.Part,Single*%
G01*
G75*
%TA.AperFunction,NonConductor*%
%ADD88C,0.005000*%
%ADD127C,0.004000*%
%ADD142C,0.006667*%
D88*
X155000Y1445961D02*
Y1485961D01*
X195000D01*
Y1445961D01*
X155000D01*
Y1631000D02*
Y1671000D01*
X195000D01*
Y1631000D01*
X155000D01*
Y1816039D02*
Y1856039D01*
X195000D01*
Y1816039D01*
X155000D01*
X3518000Y2421000D02*
X3498000Y2461000D01*
X3538000D01*
X3518000Y2421000D01*
X3618000D02*
X3598000Y2461000D01*
X3638000D01*
X3618000Y2421000D01*
X3718000D02*
X3698000Y2461000D01*
X3738000D01*
X3718000Y2421000D01*
X3818000D02*
X3798000Y2461000D01*
X3838000D01*
X3818000Y2421000D01*
X3918000D02*
X3898000Y2461000D01*
X3938000D01*
X3918000Y2421000D01*
X2178000Y276449D02*
X2188000Y286449D01*
X2198000D01*
X2188000Y296449D01*
X2198000Y306449D01*
X2188000D01*
X2178000Y316449D01*
X2168000Y306449D01*
X2158000D01*
X2168000Y296449D01*
X2158000Y286449D01*
X2168000D01*
X2178000Y276449D01*
X2078000D02*
X2088000Y286449D01*
X2098000D01*
X2088000Y296449D01*
X2098000Y306449D01*
X2088000D01*
X2078000Y316449D01*
X2068000Y306449D01*
X2058000D01*
X2068000Y296449D01*
X2058000Y286449D01*
X2068000D01*
X2078000Y276449D01*
X747000Y203182D02*
X757000Y223182D01*
X747000Y243182D01*
X767000Y233182D01*
X787000Y243182D01*
X777000Y223182D01*
X787000Y203182D01*
X767000Y213182D01*
X747000Y203182D01*
Y3073261D02*
X757000Y3093261D01*
X747000Y3113261D01*
X767000Y3103261D01*
X787000Y3113261D01*
X777000Y3093261D01*
X787000Y3073261D01*
X767000Y3083261D01*
X747000Y3073261D01*
X1506843D02*
X1516843Y3093261D01*
X1506843Y3113261D01*
X1526843Y3103261D01*
X1546843Y3113261D01*
X1536843Y3093261D01*
X1546843Y3073261D01*
X1526843Y3083261D01*
X1506843Y3073261D01*
Y203182D02*
X1516843Y223182D01*
X1506843Y243182D01*
X1526843Y233182D01*
X1546843Y243182D01*
X1536843Y223182D01*
X1546843Y203182D01*
X1526843Y213182D01*
X1506843Y203182D01*
X1516843Y559245D02*
Y549245D01*
X1536843D01*
Y559245D01*
X1546843D01*
Y579245D01*
X1536843D01*
Y589245D01*
X1516843D01*
Y579245D01*
X1506843D01*
Y559245D01*
X1516843D01*
X757000D02*
Y549245D01*
X777000D01*
Y559245D01*
X787000D01*
Y579245D01*
X777000D01*
Y589245D01*
X757000D01*
Y579245D01*
X747000D01*
Y559245D01*
X757000D01*
X1516843Y2749009D02*
Y2739009D01*
X1536843D01*
Y2749009D01*
X1546843D01*
Y2769009D01*
X1536843D01*
Y2779009D01*
X1516843D01*
Y2769009D01*
X1506843D01*
Y2749009D01*
X1516843D01*
X757000D02*
Y2739009D01*
X777000D01*
Y2749009D01*
X787000D01*
Y2769009D01*
X777000D01*
Y2779009D01*
X757000D01*
Y2769009D01*
X747000D01*
Y2749009D01*
X757000D01*
X4224000Y1692000D02*
X4234000D01*
X4244000Y1702000D01*
X4254000Y1692000D01*
X4264000D01*
Y1702000D01*
X4254000Y1712000D01*
X4264000Y1722000D01*
Y1732000D01*
X4254000D01*
X4244000Y1722000D01*
X4234000Y1732000D01*
X4224000D01*
Y1722000D01*
X4234000Y1712000D01*
X4224000Y1702000D01*
Y1692000D01*
Y1792000D02*
X4234000D01*
X4244000Y1802000D01*
X4254000Y1792000D01*
X4264000D01*
Y1802000D01*
X4254000Y1812000D01*
X4264000Y1822000D01*
Y1832000D01*
X4254000D01*
X4244000Y1822000D01*
X4234000Y1832000D01*
X4224000D01*
Y1822000D01*
X4234000Y1812000D01*
X4224000Y1802000D01*
Y1792000D01*
Y1892000D02*
X4234000D01*
X4244000Y1902000D01*
X4254000Y1892000D01*
X4264000D01*
Y1902000D01*
X4254000Y1912000D01*
X4264000Y1922000D01*
Y1932000D01*
X4254000D01*
X4244000Y1922000D01*
X4234000Y1932000D01*
X4224000D01*
Y1922000D01*
X4234000Y1912000D01*
X4224000Y1902000D01*
Y1892000D01*
Y1992000D02*
X4234000D01*
X4244000Y2002000D01*
X4254000Y1992000D01*
X4264000D01*
Y2002000D01*
X4254000Y2012000D01*
X4264000Y2022000D01*
Y2032000D01*
X4254000D01*
X4244000Y2022000D01*
X4234000Y2032000D01*
X4224000D01*
Y2022000D01*
X4234000Y2012000D01*
X4224000Y2002000D01*
Y1992000D01*
X3085000Y350000D02*
X3105000Y370000D01*
X3125000Y350000D01*
X3105000Y330000D01*
X3085000Y350000D01*
X3086000Y173000D02*
X3106000Y193000D01*
X3126000Y173000D01*
X3106000Y153000D01*
X3086000Y173000D01*
X2836000Y172000D02*
X2856000Y192000D01*
X2876000Y172000D01*
X2856000Y152000D01*
X2836000Y172000D01*
X2835000Y350000D02*
X2855000Y370000D01*
X2875000Y350000D01*
X2855000Y330000D01*
X2835000Y350000D01*
X4756184Y638158D02*
Y678158D01*
X4796184D01*
Y638158D01*
X4756184D01*
X4764184Y646158D02*
Y670158D01*
X4788184D01*
Y646158D01*
X4764184D01*
X4362483Y638158D02*
Y678158D01*
X4402483D01*
Y638158D01*
X4362483D01*
X4370483Y646158D02*
Y670158D01*
X4394483D01*
Y646158D01*
X4370483D01*
X4559333Y138157D02*
Y178157D01*
X4599333D01*
Y138157D01*
X4559333D01*
X4567333Y146157D02*
Y170157D01*
X4591333D01*
Y146157D01*
X4567333D01*
X4362483Y236583D02*
Y276583D01*
X4402483D01*
Y236583D01*
X4362483D01*
X4370483Y244583D02*
Y268583D01*
X4394483D01*
Y244583D01*
X4370483D01*
X4756184Y236583D02*
Y276583D01*
X4796184D01*
Y236583D01*
X4756184D01*
X4764184Y244583D02*
Y268583D01*
X4788184D01*
Y244583D01*
X4764184D01*
X3700850Y638158D02*
Y678158D01*
X3740850D01*
Y638158D01*
X3700850D01*
X3708850Y646158D02*
Y670158D01*
X3732850D01*
Y646158D01*
X3708850D01*
X3307150Y638158D02*
Y678158D01*
X3347150D01*
Y638158D01*
X3307150D01*
X3315150Y646158D02*
Y670158D01*
X3339150D01*
Y646158D01*
X3315150D01*
X3504000Y138157D02*
Y178157D01*
X3544000D01*
Y138157D01*
X3504000D01*
X3512000Y146157D02*
Y170157D01*
X3536000D01*
Y146157D01*
X3512000D01*
X3307150Y236583D02*
Y276583D01*
X3347150D01*
Y236583D01*
X3307150D01*
X3315150Y244583D02*
Y268583D01*
X3339150D01*
Y244583D01*
X3315150D01*
X3700850Y236583D02*
Y276583D01*
X3740850D01*
Y236583D01*
X3700850D01*
X3708850Y244583D02*
Y268583D01*
X3732850D01*
Y244583D01*
X3708850D01*
X4228517Y638158D02*
Y678158D01*
X4268517D01*
Y638158D01*
X4228517D01*
X4236517Y646158D02*
Y670158D01*
X4260517D01*
Y646158D01*
X4236517D01*
X3834816Y638158D02*
Y678158D01*
X3874816D01*
Y638158D01*
X3834816D01*
X3842816Y646158D02*
Y670158D01*
X3866816D01*
Y646158D01*
X3842816D01*
X4031667Y138157D02*
Y178157D01*
X4071667D01*
Y138157D01*
X4031667D01*
X4039667Y146157D02*
Y170157D01*
X4063667D01*
Y146157D01*
X4039667D01*
X3834816Y236583D02*
Y276583D01*
X3874816D01*
Y236583D01*
X3834816D01*
X3842816Y244583D02*
Y268583D01*
X3866816D01*
Y244583D01*
X3842816D01*
X4228517Y236583D02*
Y276583D01*
X4268517D01*
Y236583D01*
X4228517D01*
X4236517Y244583D02*
Y268583D01*
X4260517D01*
Y244583D01*
X4236517D01*
X5283850Y638158D02*
Y678158D01*
X5323850D01*
Y638158D01*
X5283850D01*
X5291850Y646158D02*
Y670158D01*
X5315850D01*
Y646158D01*
X5291850D01*
X4890149Y638158D02*
Y678158D01*
X4930149D01*
Y638158D01*
X4890149D01*
X4898149Y646158D02*
Y670158D01*
X4922149D01*
Y646158D01*
X4898149D01*
X5087000Y138157D02*
Y178157D01*
X5127000D01*
Y138157D01*
X5087000D01*
X5095000Y146157D02*
Y170157D01*
X5119000D01*
Y146157D01*
X5095000D01*
X4890149Y236583D02*
Y276583D01*
X4930149D01*
Y236583D01*
X4890149D01*
X4898149Y244583D02*
Y268583D01*
X4922149D01*
Y244583D01*
X4898149D01*
X5283850Y236583D02*
Y276583D01*
X5323850D01*
Y236583D01*
X5283850D01*
X5291850Y244583D02*
Y268583D01*
X5315850D01*
Y244583D01*
X5291850D01*
X4478934Y2695278D02*
X4458934Y2735278D01*
X4498934D01*
X4478934Y2695278D01*
Y2703278D02*
X4466934Y2727278D01*
X4490934D01*
X4478934Y2703278D01*
X4844000Y2241000D02*
X4824000Y2281000D01*
X4864000D01*
X4844000Y2241000D01*
Y2249000D02*
X4832000Y2273000D01*
X4856000D01*
X4844000Y2249000D01*
X4947000Y1430000D02*
X4927000Y1470000D01*
X4967000D01*
X4947000Y1430000D01*
Y1438000D02*
X4935000Y1462000D01*
X4959000D01*
X4947000Y1438000D01*
X4595000Y2240000D02*
X4575000Y2280000D01*
X4615000D01*
X4595000Y2240000D01*
Y2248000D02*
X4583000Y2272000D01*
X4607000D01*
X4595000Y2248000D01*
X4645000Y2241000D02*
X4625000Y2281000D01*
X4665000D01*
X4645000Y2241000D01*
Y2249000D02*
X4633000Y2273000D01*
X4657000D01*
X4645000Y2249000D01*
X5045000Y1420000D02*
X5025000Y1460000D01*
X5065000D01*
X5045000Y1420000D01*
Y1428000D02*
X5033000Y1452000D01*
X5057000D01*
X5045000Y1428000D01*
X4995000Y1417000D02*
X4975000Y1457000D01*
X5015000D01*
X4995000Y1417000D01*
Y1425000D02*
X4983000Y1449000D01*
X5007000D01*
X4995000Y1425000D01*
X4545000Y2237000D02*
X4525000Y2277000D01*
X4565000D01*
X4545000Y2237000D01*
Y2245000D02*
X4533000Y2269000D01*
X4557000D01*
X4545000Y2245000D01*
X4797000Y1430000D02*
X4777000Y1470000D01*
X4817000D01*
X4797000Y1430000D01*
Y1438000D02*
X4785000Y1462000D01*
X4809000D01*
X4797000Y1438000D01*
X3732000Y1745000D02*
X3712000Y1785000D01*
X3752000D01*
X3732000Y1745000D01*
Y1753000D02*
X3720000Y1777000D01*
X3744000D01*
X3732000Y1753000D01*
X4645000Y1430000D02*
X4625000Y1470000D01*
X4665000D01*
X4645000Y1430000D01*
Y1438000D02*
X4633000Y1462000D01*
X4657000D01*
X4645000Y1438000D01*
X3682000Y1745000D02*
X3662000Y1785000D01*
X3702000D01*
X3682000Y1745000D01*
Y1753000D02*
X3670000Y1777000D01*
X3694000D01*
X3682000Y1753000D01*
X3235000Y2107500D02*
X3215000Y2147500D01*
X3255000D01*
X3235000Y2107500D01*
Y2115500D02*
X3223000Y2139500D01*
X3247000D01*
X3235000Y2115500D01*
X3782000Y1745000D02*
X3762000Y1785000D01*
X3802000D01*
X3782000Y1745000D01*
Y1753000D02*
X3770000Y1777000D01*
X3794000D01*
X3782000Y1753000D01*
X4847000Y1430000D02*
X4827000Y1470000D01*
X4867000D01*
X4847000Y1430000D01*
Y1438000D02*
X4835000Y1462000D01*
X4859000D01*
X4847000Y1438000D01*
X3632000Y1745000D02*
X3612000Y1785000D01*
X3652000D01*
X3632000Y1745000D01*
Y1753000D02*
X3620000Y1777000D01*
X3644000D01*
X3632000Y1753000D01*
X2650000Y1889000D02*
X2630000Y1929000D01*
X2670000D01*
X2650000Y1889000D01*
Y1897000D02*
X2638000Y1921000D01*
X2662000D01*
X2650000Y1897000D01*
X2895425Y1727000D02*
X2875425Y1767000D01*
X2915425D01*
X2895425Y1727000D01*
Y1735000D02*
X2883425Y1759000D01*
X2907425D01*
X2895425Y1735000D01*
X2740106Y1725000D02*
X2720106Y1765000D01*
X2760106D01*
X2740106Y1725000D01*
Y1733000D02*
X2728106Y1757000D01*
X2752106D01*
X2740106Y1733000D01*
X2909000Y2156000D02*
X2889000Y2196000D01*
X2929000D01*
X2909000Y2156000D01*
Y2164000D02*
X2897000Y2188000D01*
X2921000D01*
X2909000Y2164000D01*
X2918000Y2007000D02*
X2898000Y2047000D01*
X2938000D01*
X2918000Y2007000D01*
Y2015000D02*
X2906000Y2039000D01*
X2930000D01*
X2918000Y2015000D01*
X3230000Y1957000D02*
X3210000Y1997000D01*
X3250000D01*
X3230000Y1957000D01*
Y1965000D02*
X3218000Y1989000D01*
X3242000D01*
X3230000Y1965000D01*
X2228500Y1931000D02*
X2208500Y1971000D01*
X2248500D01*
X2228500Y1931000D01*
Y1939000D02*
X2216500Y1963000D01*
X2240500D01*
X2228500Y1939000D01*
X2408000Y1932000D02*
X2388000Y1972000D01*
X2428000D01*
X2408000Y1932000D01*
Y1940000D02*
X2396000Y1964000D01*
X2420000D01*
X2408000Y1940000D01*
X2576000Y1888000D02*
X2556000Y1928000D01*
X2596000D01*
X2576000Y1888000D01*
Y1896000D02*
X2564000Y1920000D01*
X2588000D01*
X2576000Y1896000D01*
X4406934Y2695278D02*
X4386934Y2735278D01*
X4426934D01*
X4406934Y2695278D01*
Y2703278D02*
X4394934Y2727278D01*
X4418934D01*
X4406934Y2703278D01*
X4408934Y2641278D02*
X4388934Y2681278D01*
X4428934D01*
X4408934Y2641278D01*
Y2649278D02*
X4396934Y2673278D01*
X4420934D01*
X4408934Y2649278D01*
X2802000Y1976000D02*
X2782000Y2016000D01*
X2822000D01*
X2802000Y1976000D01*
Y1984000D02*
X2790000Y2008000D01*
X2814000D01*
X2802000Y1984000D01*
X2807035Y1879965D02*
X2787035Y1919965D01*
X2827035D01*
X2807035Y1879965D01*
Y1887965D02*
X2795035Y1911965D01*
X2819035D01*
X2807035Y1887965D01*
X3397181Y1566181D02*
X3377181Y1606181D01*
X3417181D01*
X3397181Y1566181D01*
Y1574181D02*
X3385181Y1598181D01*
X3409181D01*
X3397181Y1574181D01*
X4795000Y2241000D02*
X4775000Y2281000D01*
X4815000D01*
X4795000Y2241000D01*
Y2249000D02*
X4783000Y2273000D01*
X4807000D01*
X4795000Y2249000D01*
X4406934Y2587278D02*
X4386934Y2627278D01*
X4426934D01*
X4406934Y2587278D01*
Y2595278D02*
X4394934Y2619278D01*
X4418934D01*
X4406934Y2595278D01*
X4476934Y2589278D02*
X4456934Y2629278D01*
X4496934D01*
X4476934Y2589278D01*
Y2597278D02*
X4464934Y2621278D01*
X4488934D01*
X4476934Y2597278D01*
Y2643278D02*
X4456934Y2683278D01*
X4496934D01*
X4476934Y2643278D01*
Y2651278D02*
X4464934Y2675278D01*
X4488934D01*
X4476934Y2651278D01*
X4440000Y2564000D02*
X4420000Y2604000D01*
X4460000D01*
X4440000Y2564000D01*
Y2572000D02*
X4428000Y2596000D01*
X4452000D01*
X4440000Y2572000D01*
Y2614000D02*
X4420000Y2654000D01*
X4460000D01*
X4440000Y2614000D01*
Y2622000D02*
X4428000Y2646000D01*
X4452000D01*
X4440000Y2622000D01*
Y2664000D02*
X4420000Y2704000D01*
X4460000D01*
X4440000Y2664000D01*
Y2672000D02*
X4428000Y2696000D01*
X4452000D01*
X4440000Y2672000D01*
X5143000Y2239000D02*
X5123000Y2279000D01*
X5163000D01*
X5143000Y2239000D01*
Y2247000D02*
X5131000Y2271000D01*
X5155000D01*
X5143000Y2247000D01*
X5058000Y2598000D02*
X5038000Y2638000D01*
X5078000D01*
X5058000Y2598000D01*
Y2606000D02*
X5046000Y2630000D01*
X5070000D01*
X5058000Y2606000D01*
X5082000Y2569000D02*
X5062000Y2609000D01*
X5102000D01*
X5082000Y2569000D01*
Y2577000D02*
X5070000Y2601000D01*
X5094000D01*
X5082000Y2577000D01*
X5058000Y2569000D02*
X5038000Y2609000D01*
X5078000D01*
X5058000Y2569000D01*
Y2577000D02*
X5046000Y2601000D01*
X5070000D01*
X5058000Y2577000D01*
X3050000Y563000D02*
X3030000Y603000D01*
X3070000D01*
X3050000Y563000D01*
Y571000D02*
X3038000Y595000D01*
X3062000D01*
X3050000Y571000D01*
X4329000Y1525000D02*
X4309000Y1565000D01*
X4349000D01*
X4329000Y1525000D01*
Y1533000D02*
X4317000Y1557000D01*
X4341000D01*
X4329000Y1533000D01*
X5082000Y2598000D02*
X5062000Y2638000D01*
X5102000D01*
X5082000Y2598000D01*
Y2606000D02*
X5070000Y2630000D01*
X5094000D01*
X5082000Y2606000D01*
X5081836Y2542602D02*
X5061836Y2582602D01*
X5101836D01*
X5081836Y2542602D01*
Y2550602D02*
X5069836Y2574602D01*
X5093836D01*
X5081836Y2550602D01*
X5057836Y2542602D02*
X5037836Y2582602D01*
X5077836D01*
X5057836Y2542602D01*
Y2550602D02*
X5045836Y2574602D01*
X5069836D01*
X5057836Y2550602D01*
X90000Y1414000D02*
X70000Y1454000D01*
X110000D01*
X90000Y1414000D01*
Y1422000D02*
X78000Y1446000D01*
X102000D01*
X90000Y1422000D01*
X240000Y964000D02*
X220000Y1004000D01*
X260000D01*
X240000Y964000D01*
Y972000D02*
X228000Y996000D01*
X252000D01*
X240000Y972000D01*
X90000Y1564000D02*
X70000Y1604000D01*
X110000D01*
X90000Y1564000D01*
Y1572000D02*
X78000Y1596000D01*
X102000D01*
X90000Y1572000D01*
Y1714000D02*
X70000Y1754000D01*
X110000D01*
X90000Y1714000D01*
Y1722000D02*
X78000Y1746000D01*
X102000D01*
X90000Y1722000D01*
Y1264000D02*
X70000Y1304000D01*
X110000D01*
X90000Y1264000D01*
Y1272000D02*
X78000Y1296000D01*
X102000D01*
X90000Y1272000D01*
X266270Y1103320D02*
X246270Y1143320D01*
X286270D01*
X266270Y1103320D01*
Y1111320D02*
X254270Y1135320D01*
X278270D01*
X266270Y1111320D01*
X79270Y1104320D02*
X59270Y1144320D01*
X99270D01*
X79270Y1104320D01*
Y1112320D02*
X67270Y1136320D01*
X91270D01*
X79270Y1112320D01*
X173040Y1196320D02*
X153040Y1236320D01*
X193040D01*
X173040Y1196320D01*
Y1204320D02*
X161040Y1228320D01*
X185040D01*
X173040Y1204320D01*
Y1009025D02*
X153040Y1049025D01*
X193040D01*
X173040Y1009025D01*
Y1017025D02*
X161040Y1041025D01*
X185040D01*
X173040Y1017025D01*
X239270Y1169320D02*
X219270Y1209320D01*
X259270D01*
X239270Y1169320D01*
Y1177320D02*
X227270Y1201320D01*
X251270D01*
X239270Y1177320D01*
X107270Y1168320D02*
X87270Y1208320D01*
X127270D01*
X107270Y1168320D01*
Y1176320D02*
X95270Y1200320D01*
X119270D01*
X107270Y1176320D01*
X106270Y1036320D02*
X86270Y1076320D01*
X126270D01*
X106270Y1036320D01*
Y1044320D02*
X94270Y1068320D01*
X118270D01*
X106270Y1044320D01*
X238270Y1036320D02*
X218270Y1076320D01*
X258270D01*
X238270Y1036320D01*
Y1044320D02*
X226270Y1068320D01*
X250270D01*
X238270Y1044320D01*
X5581230Y1103320D02*
X5561230Y1143320D01*
X5601230D01*
X5581230Y1103320D01*
Y1111320D02*
X5569230Y1135320D01*
X5593230D01*
X5581230Y1111320D01*
X5394230Y1104320D02*
X5374230Y1144320D01*
X5414230D01*
X5394230Y1104320D01*
Y1112320D02*
X5382230Y1136320D01*
X5406230D01*
X5394230Y1112320D01*
X5488000Y1196320D02*
X5468000Y1236320D01*
X5508000D01*
X5488000Y1196320D01*
Y1204320D02*
X5476000Y1228320D01*
X5500000D01*
X5488000Y1204320D01*
Y1009025D02*
X5468000Y1049025D01*
X5508000D01*
X5488000Y1009025D01*
Y1017025D02*
X5476000Y1041025D01*
X5500000D01*
X5488000Y1017025D01*
X5554230Y1169320D02*
X5534230Y1209320D01*
X5574230D01*
X5554230Y1169320D01*
Y1177320D02*
X5542230Y1201320D01*
X5566230D01*
X5554230Y1177320D01*
X5422230Y1168320D02*
X5402230Y1208320D01*
X5442230D01*
X5422230Y1168320D01*
Y1176320D02*
X5410230Y1200320D01*
X5434230D01*
X5422230Y1176320D01*
X5421230Y1036320D02*
X5401230Y1076320D01*
X5441230D01*
X5421230Y1036320D01*
Y1044320D02*
X5409230Y1068320D01*
X5433230D01*
X5421230Y1044320D01*
X5553230Y1036320D02*
X5533230Y1076320D01*
X5573230D01*
X5553230Y1036320D01*
Y1044320D02*
X5541230Y1068320D01*
X5565230D01*
X5553230Y1044320D01*
X5581230Y2166312D02*
X5561230Y2206312D01*
X5601230D01*
X5581230Y2166312D01*
Y2174312D02*
X5569230Y2198312D01*
X5593230D01*
X5581230Y2174312D01*
X990000Y2614000D02*
X970000Y2654000D01*
X1010000D01*
X990000Y2614000D01*
Y2622000D02*
X978000Y2646000D01*
X1002000D01*
X990000Y2622000D01*
Y514000D02*
X970000Y554000D01*
X1010000D01*
X990000Y514000D01*
Y522000D02*
X978000Y546000D01*
X1002000D01*
X990000Y522000D01*
Y1414000D02*
X970000Y1454000D01*
X1010000D01*
X990000Y1414000D01*
Y1422000D02*
X978000Y1446000D01*
X1002000D01*
X990000Y1422000D01*
X1290000Y514000D02*
X1270000Y554000D01*
X1310000D01*
X1290000Y514000D01*
Y522000D02*
X1278000Y546000D01*
X1302000D01*
X1290000Y522000D01*
Y814000D02*
X1270000Y854000D01*
X1310000D01*
X1290000Y814000D01*
Y822000D02*
X1278000Y846000D01*
X1302000D01*
X1290000Y822000D01*
X1140000Y214000D02*
X1120000Y254000D01*
X1160000D01*
X1140000Y214000D01*
Y222000D02*
X1128000Y246000D01*
X1152000D01*
X1140000Y222000D01*
X840000Y2614000D02*
X820000Y2654000D01*
X860000D01*
X840000Y2614000D01*
Y2622000D02*
X828000Y2646000D01*
X852000D01*
X840000Y2622000D01*
X990000Y1264000D02*
X970000Y1304000D01*
X1010000D01*
X990000Y1264000D01*
Y1272000D02*
X978000Y1296000D01*
X1002000D01*
X990000Y1272000D01*
X1290000Y1114000D02*
X1270000Y1154000D01*
X1310000D01*
X1290000Y1114000D01*
Y1122000D02*
X1278000Y1146000D01*
X1302000D01*
X1290000Y1122000D01*
X840000Y2914000D02*
X820000Y2954000D01*
X860000D01*
X840000Y2914000D01*
Y2922000D02*
X828000Y2946000D01*
X852000D01*
X840000Y2922000D01*
X990000Y2464000D02*
X970000Y2504000D01*
X1010000D01*
X990000Y2464000D01*
Y2472000D02*
X978000Y2496000D01*
X1002000D01*
X990000Y2472000D01*
X1290000Y664000D02*
X1270000Y704000D01*
X1310000D01*
X1290000Y664000D01*
Y672000D02*
X1278000Y696000D01*
X1302000D01*
X1290000Y672000D01*
X840000Y2314000D02*
X820000Y2354000D01*
X860000D01*
X840000Y2314000D01*
Y2322000D02*
X828000Y2346000D01*
X852000D01*
X840000Y2322000D01*
X1290000Y964000D02*
X1270000Y1004000D01*
X1310000D01*
X1290000Y964000D01*
Y972000D02*
X1278000Y996000D01*
X1302000D01*
X1290000Y972000D01*
Y1414000D02*
X1270000Y1454000D01*
X1310000D01*
X1290000Y1414000D01*
Y1422000D02*
X1278000Y1446000D01*
X1302000D01*
X1290000Y1422000D01*
X990000Y2014000D02*
X970000Y2054000D01*
X1010000D01*
X990000Y2014000D01*
Y2022000D02*
X978000Y2046000D01*
X1002000D01*
X990000Y2022000D01*
Y1864000D02*
X970000Y1904000D01*
X1010000D01*
X990000Y1864000D01*
Y1872000D02*
X978000Y1896000D01*
X1002000D01*
X990000Y1872000D01*
Y2914000D02*
X970000Y2954000D01*
X1010000D01*
X990000Y2914000D01*
Y2922000D02*
X978000Y2946000D01*
X1002000D01*
X990000Y2922000D01*
X840000Y1714000D02*
X820000Y1754000D01*
X860000D01*
X840000Y1714000D01*
Y1722000D02*
X828000Y1746000D01*
X852000D01*
X840000Y1722000D01*
X990000Y2164000D02*
X970000Y2204000D01*
X1010000D01*
X990000Y2164000D01*
Y2172000D02*
X978000Y2196000D01*
X1002000D01*
X990000Y2172000D01*
X1140000Y3064000D02*
X1120000Y3104000D01*
X1160000D01*
X1140000Y3064000D01*
Y3072000D02*
X1128000Y3096000D01*
X1152000D01*
X1140000Y3072000D01*
X990000Y664000D02*
X970000Y704000D01*
X1010000D01*
X990000Y664000D01*
Y672000D02*
X978000Y696000D01*
X1002000D01*
X990000Y672000D01*
Y1114000D02*
X970000Y1154000D01*
X1010000D01*
X990000Y1114000D01*
Y1122000D02*
X978000Y1146000D01*
X1002000D01*
X990000Y1122000D01*
Y814000D02*
X970000Y854000D01*
X1010000D01*
X990000Y814000D01*
Y822000D02*
X978000Y846000D01*
X1002000D01*
X990000Y822000D01*
Y214000D02*
X970000Y254000D01*
X1010000D01*
X990000Y214000D01*
Y222000D02*
X978000Y246000D01*
X1002000D01*
X990000Y222000D01*
X1290000Y364000D02*
X1270000Y404000D01*
X1310000D01*
X1290000Y364000D01*
Y372000D02*
X1278000Y396000D01*
X1302000D01*
X1290000Y372000D01*
X840000Y1864000D02*
X820000Y1904000D01*
X860000D01*
X840000Y1864000D01*
Y1872000D02*
X828000Y1896000D01*
X852000D01*
X840000Y1872000D01*
Y1564000D02*
X820000Y1604000D01*
X860000D01*
X840000Y1564000D01*
Y1572000D02*
X828000Y1596000D01*
X852000D01*
X840000Y1572000D01*
X990000Y2314000D02*
X970000Y2354000D01*
X1010000D01*
X990000Y2314000D01*
Y2322000D02*
X978000Y2346000D01*
X1002000D01*
X990000Y2322000D01*
Y964000D02*
X970000Y1004000D01*
X1010000D01*
X990000Y964000D01*
Y972000D02*
X978000Y996000D01*
X1002000D01*
X990000Y972000D01*
Y1714000D02*
X970000Y1754000D01*
X1010000D01*
X990000Y1714000D01*
Y1722000D02*
X978000Y1746000D01*
X1002000D01*
X990000Y1722000D01*
Y2764000D02*
X970000Y2804000D01*
X1010000D01*
X990000Y2764000D01*
Y2772000D02*
X978000Y2796000D01*
X1002000D01*
X990000Y2772000D01*
X840000Y2014000D02*
X820000Y2054000D01*
X860000D01*
X840000Y2014000D01*
Y2022000D02*
X828000Y2046000D01*
X852000D01*
X840000Y2022000D01*
Y2164000D02*
X820000Y2204000D01*
X860000D01*
X840000Y2164000D01*
Y2172000D02*
X828000Y2196000D01*
X852000D01*
X840000Y2172000D01*
X1290000Y1264000D02*
X1270000Y1304000D01*
X1310000D01*
X1290000Y1264000D01*
Y1272000D02*
X1278000Y1296000D01*
X1302000D01*
X1290000Y1272000D01*
X840000Y2464000D02*
X820000Y2504000D01*
X860000D01*
X840000Y2464000D01*
Y2472000D02*
X828000Y2496000D01*
X852000D01*
X840000Y2472000D01*
X990000Y364000D02*
X970000Y404000D01*
X1010000D01*
X990000Y364000D01*
Y372000D02*
X978000Y396000D01*
X1002000D01*
X990000Y372000D01*
Y1564000D02*
X970000Y1604000D01*
X1010000D01*
X990000Y1564000D01*
Y1572000D02*
X978000Y1596000D01*
X1002000D01*
X990000Y1572000D01*
X3840000Y2914000D02*
X3820000Y2954000D01*
X3860000D01*
X3840000Y2914000D01*
Y2922000D02*
X3828000Y2946000D01*
X3852000D01*
X3840000Y2922000D01*
X3990000Y214000D02*
X3970000Y254000D01*
X4010000D01*
X3990000Y214000D01*
Y222000D02*
X3978000Y246000D01*
X4002000D01*
X3990000Y222000D01*
Y514000D02*
X3970000Y554000D01*
X4010000D01*
X3990000Y514000D01*
Y522000D02*
X3978000Y546000D01*
X4002000D01*
X3990000Y522000D01*
Y664000D02*
X3970000Y704000D01*
X4010000D01*
X3990000Y664000D01*
Y672000D02*
X3978000Y696000D01*
X4002000D01*
X3990000Y672000D01*
Y1414000D02*
X3970000Y1454000D01*
X4010000D01*
X3990000Y1414000D01*
Y1422000D02*
X3978000Y1446000D01*
X4002000D01*
X3990000Y1422000D01*
Y1714000D02*
X3970000Y1754000D01*
X4010000D01*
X3990000Y1714000D01*
Y1722000D02*
X3978000Y1746000D01*
X4002000D01*
X3990000Y1722000D01*
Y1864000D02*
X3970000Y1904000D01*
X4010000D01*
X3990000Y1864000D01*
Y1872000D02*
X3978000Y1896000D01*
X4002000D01*
X3990000Y1872000D01*
Y2164000D02*
X3970000Y2204000D01*
X4010000D01*
X3990000Y2164000D01*
Y2172000D02*
X3978000Y2196000D01*
X4002000D01*
X3990000Y2172000D01*
Y2314000D02*
X3970000Y2354000D01*
X4010000D01*
X3990000Y2314000D01*
Y2322000D02*
X3978000Y2346000D01*
X4002000D01*
X3990000Y2322000D01*
Y2464000D02*
X3970000Y2504000D01*
X4010000D01*
X3990000Y2464000D01*
Y2472000D02*
X3978000Y2496000D01*
X4002000D01*
X3990000Y2472000D01*
Y2764000D02*
X3970000Y2804000D01*
X4010000D01*
X3990000Y2764000D01*
Y2772000D02*
X3978000Y2796000D01*
X4002000D01*
X3990000Y2772000D01*
X4140000Y214000D02*
X4120000Y254000D01*
X4160000D01*
X4140000Y214000D01*
Y222000D02*
X4128000Y246000D01*
X4152000D01*
X4140000Y222000D01*
Y964000D02*
X4120000Y1004000D01*
X4160000D01*
X4140000Y964000D01*
Y972000D02*
X4128000Y996000D01*
X4152000D01*
X4140000Y972000D01*
Y1414000D02*
X4120000Y1454000D01*
X4160000D01*
X4140000Y1414000D01*
Y1422000D02*
X4128000Y1446000D01*
X4152000D01*
X4140000Y1422000D01*
Y1714000D02*
X4120000Y1754000D01*
X4160000D01*
X4140000Y1714000D01*
Y1722000D02*
X4128000Y1746000D01*
X4152000D01*
X4140000Y1722000D01*
Y1864000D02*
X4120000Y1904000D01*
X4160000D01*
X4140000Y1864000D01*
Y1872000D02*
X4128000Y1896000D01*
X4152000D01*
X4140000Y1872000D01*
Y2464000D02*
X4120000Y2504000D01*
X4160000D01*
X4140000Y2464000D01*
Y2472000D02*
X4128000Y2496000D01*
X4152000D01*
X4140000Y2472000D01*
X4290000Y364000D02*
X4270000Y404000D01*
X4310000D01*
X4290000Y364000D01*
Y372000D02*
X4278000Y396000D01*
X4302000D01*
X4290000Y372000D01*
X4140000Y2764000D02*
X4120000Y2804000D01*
X4160000D01*
X4140000Y2764000D01*
Y2772000D02*
X4128000Y2796000D01*
X4152000D01*
X4140000Y2772000D01*
Y2164000D02*
X4120000Y2204000D01*
X4160000D01*
X4140000Y2164000D01*
Y2172000D02*
X4128000Y2196000D01*
X4152000D01*
X4140000Y2172000D01*
X1590000Y1564000D02*
X1570000Y1604000D01*
X1610000D01*
X1590000Y1564000D01*
Y1572000D02*
X1578000Y1596000D01*
X1602000D01*
X1590000Y1572000D01*
Y2314000D02*
X1570000Y2354000D01*
X1610000D01*
X1590000Y2314000D01*
Y2322000D02*
X1578000Y2346000D01*
X1602000D01*
X1590000Y2322000D01*
X1440000Y1114000D02*
X1420000Y1154000D01*
X1460000D01*
X1440000Y1114000D01*
Y1122000D02*
X1428000Y1146000D01*
X1452000D01*
X1440000Y1122000D01*
X1590000Y2464000D02*
X1570000Y2504000D01*
X1610000D01*
X1590000Y2464000D01*
Y2472000D02*
X1578000Y2496000D01*
X1602000D01*
X1590000Y2472000D01*
X1740000Y2014000D02*
X1720000Y2054000D01*
X1760000D01*
X1740000Y2014000D01*
Y2022000D02*
X1728000Y2046000D01*
X1752000D01*
X1740000Y2022000D01*
X1440000Y814000D02*
X1420000Y854000D01*
X1460000D01*
X1440000Y814000D01*
Y822000D02*
X1428000Y846000D01*
X1452000D01*
X1440000Y822000D01*
Y2014000D02*
X1420000Y2054000D01*
X1460000D01*
X1440000Y2014000D01*
Y2022000D02*
X1428000Y2046000D01*
X1452000D01*
X1440000Y2022000D01*
X1740000Y1114000D02*
X1720000Y1154000D01*
X1760000D01*
X1740000Y1114000D01*
Y1122000D02*
X1728000Y1146000D01*
X1752000D01*
X1740000Y1122000D01*
X1290000Y1564000D02*
X1270000Y1604000D01*
X1310000D01*
X1290000Y1564000D01*
Y1572000D02*
X1278000Y1596000D01*
X1302000D01*
X1290000Y1572000D01*
X1740000Y2314000D02*
X1720000Y2354000D01*
X1760000D01*
X1740000Y2314000D01*
Y2322000D02*
X1728000Y2346000D01*
X1752000D01*
X1740000Y2322000D01*
Y1414000D02*
X1720000Y1454000D01*
X1760000D01*
X1740000Y1414000D01*
Y1422000D02*
X1728000Y1446000D01*
X1752000D01*
X1740000Y1422000D01*
Y964000D02*
X1720000Y1004000D01*
X1760000D01*
X1740000Y964000D01*
Y972000D02*
X1728000Y996000D01*
X1752000D01*
X1740000Y972000D01*
X1590000Y364000D02*
X1570000Y404000D01*
X1610000D01*
X1590000Y364000D01*
Y372000D02*
X1578000Y396000D01*
X1602000D01*
X1590000Y372000D01*
X1740000Y2464000D02*
X1720000Y2504000D01*
X1760000D01*
X1740000Y2464000D01*
Y2472000D02*
X1728000Y2496000D01*
X1752000D01*
X1740000Y2472000D01*
X1290000Y2014000D02*
X1270000Y2054000D01*
X1310000D01*
X1290000Y2014000D01*
Y2022000D02*
X1278000Y2046000D01*
X1302000D01*
X1290000Y2022000D01*
X1740000Y1714000D02*
X1720000Y1754000D01*
X1760000D01*
X1740000Y1714000D01*
Y1722000D02*
X1728000Y1746000D01*
X1752000D01*
X1740000Y1722000D01*
Y1564000D02*
X1720000Y1604000D01*
X1760000D01*
X1740000Y1564000D01*
Y1572000D02*
X1728000Y1596000D01*
X1752000D01*
X1740000Y1572000D01*
X1590000Y2014000D02*
X1570000Y2054000D01*
X1610000D01*
X1590000Y2014000D01*
Y2022000D02*
X1578000Y2046000D01*
X1602000D01*
X1590000Y2022000D01*
X1740000Y364000D02*
X1720000Y404000D01*
X1760000D01*
X1740000Y364000D01*
Y372000D02*
X1728000Y396000D01*
X1752000D01*
X1740000Y372000D01*
X1590000Y1264000D02*
X1570000Y1304000D01*
X1610000D01*
X1590000Y1264000D01*
Y1272000D02*
X1578000Y1296000D01*
X1602000D01*
X1590000Y1272000D01*
X1440000Y2314000D02*
X1420000Y2354000D01*
X1460000D01*
X1440000Y2314000D01*
Y2322000D02*
X1428000Y2346000D01*
X1452000D01*
X1440000Y2322000D01*
X1590000Y964000D02*
X1570000Y1004000D01*
X1610000D01*
X1590000Y964000D01*
Y972000D02*
X1578000Y996000D01*
X1602000D01*
X1590000Y972000D01*
X1290000Y2764000D02*
X1270000Y2804000D01*
X1310000D01*
X1290000Y2764000D01*
Y2772000D02*
X1278000Y2796000D01*
X1302000D01*
X1290000Y2772000D01*
X1440000Y364000D02*
X1420000Y404000D01*
X1460000D01*
X1440000Y364000D01*
Y372000D02*
X1428000Y396000D01*
X1452000D01*
X1440000Y372000D01*
Y2164000D02*
X1420000Y2204000D01*
X1460000D01*
X1440000Y2164000D01*
Y2172000D02*
X1428000Y2196000D01*
X1452000D01*
X1440000Y2172000D01*
X1590000Y2914000D02*
X1570000Y2954000D01*
X1610000D01*
X1590000Y2914000D01*
Y2922000D02*
X1578000Y2946000D01*
X1602000D01*
X1590000Y2922000D01*
X1290000Y1714000D02*
X1270000Y1754000D01*
X1310000D01*
X1290000Y1714000D01*
Y1722000D02*
X1278000Y1746000D01*
X1302000D01*
X1290000Y1722000D01*
X1440000Y2614000D02*
X1420000Y2654000D01*
X1460000D01*
X1440000Y2614000D01*
Y2622000D02*
X1428000Y2646000D01*
X1452000D01*
X1440000Y2622000D01*
Y1864000D02*
X1420000Y1904000D01*
X1460000D01*
X1440000Y1864000D01*
Y1872000D02*
X1428000Y1896000D01*
X1452000D01*
X1440000Y1872000D01*
X1590000Y1414000D02*
X1570000Y1454000D01*
X1610000D01*
X1590000Y1414000D01*
Y1422000D02*
X1578000Y1446000D01*
X1602000D01*
X1590000Y1422000D01*
X1290000Y2914000D02*
X1270000Y2954000D01*
X1310000D01*
X1290000Y2914000D01*
Y2922000D02*
X1278000Y2946000D01*
X1302000D01*
X1290000Y2922000D01*
X1440000Y1414000D02*
X1420000Y1454000D01*
X1460000D01*
X1440000Y1414000D01*
Y1422000D02*
X1428000Y1446000D01*
X1452000D01*
X1440000Y1422000D01*
X1740000Y2764000D02*
X1720000Y2804000D01*
X1760000D01*
X1740000Y2764000D01*
Y2772000D02*
X1728000Y2796000D01*
X1752000D01*
X1740000Y2772000D01*
X1290000Y2314000D02*
X1270000Y2354000D01*
X1310000D01*
X1290000Y2314000D01*
Y2322000D02*
X1278000Y2346000D01*
X1302000D01*
X1290000Y2322000D01*
X1740000Y514000D02*
X1720000Y554000D01*
X1760000D01*
X1740000Y514000D01*
Y522000D02*
X1728000Y546000D01*
X1752000D01*
X1740000Y522000D01*
X1590000Y664000D02*
X1570000Y704000D01*
X1610000D01*
X1590000Y664000D01*
Y672000D02*
X1578000Y696000D01*
X1602000D01*
X1590000Y672000D01*
X1440000Y1564000D02*
X1420000Y1604000D01*
X1460000D01*
X1440000Y1564000D01*
Y1572000D02*
X1428000Y1596000D01*
X1452000D01*
X1440000Y1572000D01*
Y2764000D02*
X1420000Y2804000D01*
X1460000D01*
X1440000Y2764000D01*
Y2772000D02*
X1428000Y2796000D01*
X1452000D01*
X1440000Y2772000D01*
X1590000Y1114000D02*
X1570000Y1154000D01*
X1610000D01*
X1590000Y1114000D01*
Y1122000D02*
X1578000Y1146000D01*
X1602000D01*
X1590000Y1122000D01*
X1440000Y1264000D02*
X1420000Y1304000D01*
X1460000D01*
X1440000Y1264000D01*
Y1272000D02*
X1428000Y1296000D01*
X1452000D01*
X1440000Y1272000D01*
X1290000Y2614000D02*
X1270000Y2654000D01*
X1310000D01*
X1290000Y2614000D01*
Y2622000D02*
X1278000Y2646000D01*
X1302000D01*
X1290000Y2622000D01*
X1440000Y664000D02*
X1420000Y704000D01*
X1460000D01*
X1440000Y664000D01*
Y672000D02*
X1428000Y696000D01*
X1452000D01*
X1440000Y672000D01*
Y964000D02*
X1420000Y1004000D01*
X1460000D01*
X1440000Y964000D01*
Y972000D02*
X1428000Y996000D01*
X1452000D01*
X1440000Y972000D01*
Y2914000D02*
X1420000Y2954000D01*
X1460000D01*
X1440000Y2914000D01*
Y2922000D02*
X1428000Y2946000D01*
X1452000D01*
X1440000Y2922000D01*
X1590000Y1864000D02*
X1570000Y1904000D01*
X1610000D01*
X1590000Y1864000D01*
Y1872000D02*
X1578000Y1896000D01*
X1602000D01*
X1590000Y1872000D01*
Y2614000D02*
X1570000Y2654000D01*
X1610000D01*
X1590000Y2614000D01*
Y2622000D02*
X1578000Y2646000D01*
X1602000D01*
X1590000Y2622000D01*
X1440000Y3064000D02*
X1420000Y3104000D01*
X1460000D01*
X1440000Y3064000D01*
Y3072000D02*
X1428000Y3096000D01*
X1452000D01*
X1440000Y3072000D01*
X1740000Y2164000D02*
X1720000Y2204000D01*
X1760000D01*
X1740000Y2164000D01*
Y2172000D02*
X1728000Y2196000D01*
X1752000D01*
X1740000Y2172000D01*
X1290000Y1864000D02*
X1270000Y1904000D01*
X1310000D01*
X1290000Y1864000D01*
Y1872000D02*
X1278000Y1896000D01*
X1302000D01*
X1290000Y1872000D01*
X1440000Y514000D02*
X1420000Y554000D01*
X1460000D01*
X1440000Y514000D01*
Y522000D02*
X1428000Y546000D01*
X1452000D01*
X1440000Y522000D01*
Y1714000D02*
X1420000Y1754000D01*
X1460000D01*
X1440000Y1714000D01*
Y1722000D02*
X1428000Y1746000D01*
X1452000D01*
X1440000Y1722000D01*
X1740000Y214000D02*
X1720000Y254000D01*
X1760000D01*
X1740000Y214000D01*
Y222000D02*
X1728000Y246000D01*
X1752000D01*
X1740000Y222000D01*
Y814000D02*
X1720000Y854000D01*
X1760000D01*
X1740000Y814000D01*
Y822000D02*
X1728000Y846000D01*
X1752000D01*
X1740000Y822000D01*
X1590000Y1714000D02*
X1570000Y1754000D01*
X1610000D01*
X1590000Y1714000D01*
Y1722000D02*
X1578000Y1746000D01*
X1602000D01*
X1590000Y1722000D01*
X1740000Y1864000D02*
X1720000Y1904000D01*
X1760000D01*
X1740000Y1864000D01*
Y1872000D02*
X1728000Y1896000D01*
X1752000D01*
X1740000Y1872000D01*
X1290000Y2464000D02*
X1270000Y2504000D01*
X1310000D01*
X1290000Y2464000D01*
Y2472000D02*
X1278000Y2496000D01*
X1302000D01*
X1290000Y2472000D01*
X1590000Y2164000D02*
X1570000Y2204000D01*
X1610000D01*
X1590000Y2164000D01*
Y2172000D02*
X1578000Y2196000D01*
X1602000D01*
X1590000Y2172000D01*
X1290000Y3064000D02*
X1270000Y3104000D01*
X1310000D01*
X1290000Y3064000D01*
Y3072000D02*
X1278000Y3096000D01*
X1302000D01*
X1290000Y3072000D01*
X1740000Y1264000D02*
X1720000Y1304000D01*
X1760000D01*
X1740000Y1264000D01*
Y1272000D02*
X1728000Y1296000D01*
X1752000D01*
X1740000Y1272000D01*
X1590000Y814000D02*
X1570000Y854000D01*
X1610000D01*
X1590000Y814000D01*
Y822000D02*
X1578000Y846000D01*
X1602000D01*
X1590000Y822000D01*
X1290000Y2164000D02*
X1270000Y2204000D01*
X1310000D01*
X1290000Y2164000D01*
Y2172000D02*
X1278000Y2196000D01*
X1302000D01*
X1290000Y2172000D01*
X1440000Y2464000D02*
X1420000Y2504000D01*
X1460000D01*
X1440000Y2464000D01*
Y2472000D02*
X1428000Y2496000D01*
X1452000D01*
X1440000Y2472000D01*
X1740000Y664000D02*
X1720000Y704000D01*
X1760000D01*
X1740000Y664000D01*
Y672000D02*
X1728000Y696000D01*
X1752000D01*
X1740000Y672000D01*
X540000Y2614000D02*
X520000Y2654000D01*
X560000D01*
X540000Y2614000D01*
Y2622000D02*
X528000Y2646000D01*
X552000D01*
X540000Y2622000D01*
X690000Y2314000D02*
X670000Y2354000D01*
X710000D01*
X690000Y2314000D01*
Y2322000D02*
X678000Y2346000D01*
X702000D01*
X690000Y2322000D01*
Y2464000D02*
X670000Y2504000D01*
X710000D01*
X690000Y2464000D01*
Y2472000D02*
X678000Y2496000D01*
X702000D01*
X690000Y2472000D01*
Y1714000D02*
X670000Y1754000D01*
X710000D01*
X690000Y1714000D01*
Y1722000D02*
X678000Y1746000D01*
X702000D01*
X690000Y1722000D01*
X540000Y2314000D02*
X520000Y2354000D01*
X560000D01*
X540000Y2314000D01*
Y2322000D02*
X528000Y2346000D01*
X552000D01*
X540000Y2322000D01*
X690000Y1114000D02*
X670000Y1154000D01*
X710000D01*
X690000Y1114000D01*
Y1122000D02*
X678000Y1146000D01*
X702000D01*
X690000Y1122000D01*
X240000Y1264000D02*
X220000Y1304000D01*
X260000D01*
X240000Y1264000D01*
Y1272000D02*
X228000Y1296000D01*
X252000D01*
X240000Y1272000D01*
X540000Y2464000D02*
X520000Y2504000D01*
X560000D01*
X540000Y2464000D01*
Y2472000D02*
X528000Y2496000D01*
X552000D01*
X540000Y2472000D01*
X840000Y664000D02*
X820000Y704000D01*
X860000D01*
X840000Y664000D01*
Y672000D02*
X828000Y696000D01*
X852000D01*
X840000Y672000D01*
X690000Y964000D02*
X670000Y1004000D01*
X710000D01*
X690000Y964000D01*
Y972000D02*
X678000Y996000D01*
X702000D01*
X690000Y972000D01*
X390000Y214000D02*
X370000Y254000D01*
X410000D01*
X390000Y214000D01*
Y222000D02*
X378000Y246000D01*
X402000D01*
X390000Y222000D01*
X540000Y1864000D02*
X520000Y1904000D01*
X560000D01*
X540000Y1864000D01*
Y1872000D02*
X528000Y1896000D01*
X552000D01*
X540000Y1872000D01*
X690000Y2014000D02*
X670000Y2054000D01*
X710000D01*
X690000Y2014000D01*
Y2022000D02*
X678000Y2046000D01*
X702000D01*
X690000Y2022000D01*
X540000Y3064000D02*
X520000Y3104000D01*
X560000D01*
X540000Y3064000D01*
Y3072000D02*
X528000Y3096000D01*
X552000D01*
X540000Y3072000D01*
X390000Y1864000D02*
X370000Y1904000D01*
X410000D01*
X390000Y1864000D01*
Y1872000D02*
X378000Y1896000D01*
X402000D01*
X390000Y1872000D01*
X840000Y814000D02*
X820000Y854000D01*
X860000D01*
X840000Y814000D01*
Y822000D02*
X828000Y846000D01*
X852000D01*
X840000Y822000D01*
X390000Y2914000D02*
X370000Y2954000D01*
X410000D01*
X390000Y2914000D01*
Y2922000D02*
X378000Y2946000D01*
X402000D01*
X390000Y2922000D01*
X690000Y2914000D02*
X670000Y2954000D01*
X710000D01*
X690000Y2914000D01*
Y2922000D02*
X678000Y2946000D01*
X702000D01*
X690000Y2922000D01*
X390000Y1114000D02*
X370000Y1154000D01*
X410000D01*
X390000Y1114000D01*
Y1122000D02*
X378000Y1146000D01*
X402000D01*
X390000Y1122000D01*
X540000Y2914000D02*
X520000Y2954000D01*
X560000D01*
X540000Y2914000D01*
Y2922000D02*
X528000Y2946000D01*
X552000D01*
X540000Y2922000D01*
X690000Y2164000D02*
X670000Y2204000D01*
X710000D01*
X690000Y2164000D01*
Y2172000D02*
X678000Y2196000D01*
X702000D01*
X690000Y2172000D01*
X390000Y1714000D02*
X370000Y1754000D01*
X410000D01*
X390000Y1714000D01*
Y1722000D02*
X378000Y1746000D01*
X402000D01*
X390000Y1722000D01*
Y814000D02*
X370000Y854000D01*
X410000D01*
X390000Y814000D01*
Y822000D02*
X378000Y846000D01*
X402000D01*
X390000Y822000D01*
X540000Y2164000D02*
X520000Y2204000D01*
X560000D01*
X540000Y2164000D01*
Y2172000D02*
X528000Y2196000D01*
X552000D01*
X540000Y2172000D01*
X390000Y1264000D02*
X370000Y1304000D01*
X410000D01*
X390000Y1264000D01*
Y1272000D02*
X378000Y1296000D01*
X402000D01*
X390000Y1272000D01*
Y964000D02*
X370000Y1004000D01*
X410000D01*
X390000Y964000D01*
Y972000D02*
X378000Y996000D01*
X402000D01*
X390000Y972000D01*
X840000Y1264000D02*
X820000Y1304000D01*
X860000D01*
X840000Y1264000D01*
Y1272000D02*
X828000Y1296000D01*
X852000D01*
X840000Y1272000D01*
Y214000D02*
X820000Y254000D01*
X860000D01*
X840000Y214000D01*
Y222000D02*
X828000Y246000D01*
X852000D01*
X840000Y222000D01*
X390000Y664000D02*
X370000Y704000D01*
X410000D01*
X390000Y664000D01*
Y672000D02*
X378000Y696000D01*
X402000D01*
X390000Y672000D01*
X690000Y1864000D02*
X670000Y1904000D01*
X710000D01*
X690000Y1864000D01*
Y1872000D02*
X678000Y1896000D01*
X702000D01*
X690000Y1872000D01*
X540000Y1564000D02*
X520000Y1604000D01*
X560000D01*
X540000Y1564000D01*
Y1572000D02*
X528000Y1596000D01*
X552000D01*
X540000Y1572000D01*
X390000Y2464000D02*
X370000Y2504000D01*
X410000D01*
X390000Y2464000D01*
Y2472000D02*
X378000Y2496000D01*
X402000D01*
X390000Y2472000D01*
X240000Y1714000D02*
X220000Y1754000D01*
X260000D01*
X240000Y1714000D01*
Y1722000D02*
X228000Y1746000D01*
X252000D01*
X240000Y1722000D01*
X690000Y1564000D02*
X670000Y1604000D01*
X710000D01*
X690000Y1564000D01*
Y1572000D02*
X678000Y1596000D01*
X702000D01*
X690000Y1572000D01*
X390000Y2164000D02*
X370000Y2204000D01*
X410000D01*
X390000Y2164000D01*
Y2172000D02*
X378000Y2196000D01*
X402000D01*
X390000Y2172000D01*
X690000Y2614000D02*
X670000Y2654000D01*
X710000D01*
X690000Y2614000D01*
Y2622000D02*
X678000Y2646000D01*
X702000D01*
X690000Y2622000D01*
Y1414000D02*
X670000Y1454000D01*
X710000D01*
X690000Y1414000D01*
Y1422000D02*
X678000Y1446000D01*
X702000D01*
X690000Y1422000D01*
Y3064000D02*
X670000Y3104000D01*
X710000D01*
X690000Y3064000D01*
Y3072000D02*
X678000Y3096000D01*
X702000D01*
X690000Y3072000D01*
X390000Y2014000D02*
X370000Y2054000D01*
X410000D01*
X390000Y2014000D01*
Y2022000D02*
X378000Y2046000D01*
X402000D01*
X390000Y2022000D01*
X690000Y364000D02*
X670000Y404000D01*
X710000D01*
X690000Y364000D01*
Y372000D02*
X678000Y396000D01*
X702000D01*
X690000Y372000D01*
X840000Y364000D02*
X820000Y404000D01*
X860000D01*
X840000Y364000D01*
Y372000D02*
X828000Y396000D01*
X852000D01*
X840000Y372000D01*
X390000Y364000D02*
X370000Y404000D01*
X410000D01*
X390000Y364000D01*
Y372000D02*
X378000Y396000D01*
X402000D01*
X390000Y372000D01*
X840000Y964000D02*
X820000Y1004000D01*
X860000D01*
X840000Y964000D01*
Y972000D02*
X828000Y996000D01*
X852000D01*
X840000Y972000D01*
X390000Y514000D02*
X370000Y554000D01*
X410000D01*
X390000Y514000D01*
Y522000D02*
X378000Y546000D01*
X402000D01*
X390000Y522000D01*
X690000Y664000D02*
X670000Y704000D01*
X710000D01*
X690000Y664000D01*
Y672000D02*
X678000Y696000D01*
X702000D01*
X690000Y672000D01*
X540000Y2764000D02*
X520000Y2804000D01*
X560000D01*
X540000Y2764000D01*
Y2772000D02*
X528000Y2796000D01*
X552000D01*
X540000Y2772000D01*
X840000Y1114000D02*
X820000Y1154000D01*
X860000D01*
X840000Y1114000D01*
Y1122000D02*
X828000Y1146000D01*
X852000D01*
X840000Y1122000D01*
X690000Y814000D02*
X670000Y854000D01*
X710000D01*
X690000Y814000D01*
Y822000D02*
X678000Y846000D01*
X702000D01*
X690000Y822000D01*
X540000Y1714000D02*
X520000Y1754000D01*
X560000D01*
X540000Y1714000D01*
Y1722000D02*
X528000Y1746000D01*
X552000D01*
X540000Y1722000D01*
X90000Y2014000D02*
X70000Y2054000D01*
X110000D01*
X90000Y2014000D01*
Y2022000D02*
X78000Y2046000D01*
X102000D01*
X90000Y2022000D01*
X390000Y3064000D02*
X370000Y3104000D01*
X410000D01*
X390000Y3064000D01*
Y3072000D02*
X378000Y3096000D01*
X402000D01*
X390000Y3072000D01*
Y1564000D02*
X370000Y1604000D01*
X410000D01*
X390000Y1564000D01*
Y1572000D02*
X378000Y1596000D01*
X402000D01*
X390000Y1572000D01*
X90000Y2314000D02*
X70000Y2354000D01*
X110000D01*
X90000Y2314000D01*
Y2322000D02*
X78000Y2346000D01*
X102000D01*
X90000Y2322000D01*
X390000Y2314000D02*
X370000Y2354000D01*
X410000D01*
X390000Y2314000D01*
Y2322000D02*
X378000Y2346000D01*
X402000D01*
X390000Y2322000D01*
X690000Y514000D02*
X670000Y554000D01*
X710000D01*
X690000Y514000D01*
Y522000D02*
X678000Y546000D01*
X702000D01*
X690000Y522000D01*
X240000Y1564000D02*
X220000Y1604000D01*
X260000D01*
X240000Y1564000D01*
Y1572000D02*
X228000Y1596000D01*
X252000D01*
X240000Y1572000D01*
X540000Y2014000D02*
X520000Y2054000D01*
X560000D01*
X540000Y2014000D01*
Y2022000D02*
X528000Y2046000D01*
X552000D01*
X540000Y2022000D01*
X840000Y1414000D02*
X820000Y1454000D01*
X860000D01*
X840000Y1414000D01*
Y1422000D02*
X828000Y1446000D01*
X852000D01*
X840000Y1422000D01*
X390000Y2764000D02*
X370000Y2804000D01*
X410000D01*
X390000Y2764000D01*
Y2772000D02*
X378000Y2796000D01*
X402000D01*
X390000Y2772000D01*
X240000Y2014000D02*
X220000Y2054000D01*
X260000D01*
X240000Y2014000D01*
Y2022000D02*
X228000Y2046000D01*
X252000D01*
X240000Y2022000D01*
X690000Y1264000D02*
X670000Y1304000D01*
X710000D01*
X690000Y1264000D01*
Y1272000D02*
X678000Y1296000D01*
X702000D01*
X690000Y1272000D01*
X390000Y2614000D02*
X370000Y2654000D01*
X410000D01*
X390000Y2614000D01*
Y2622000D02*
X378000Y2646000D01*
X402000D01*
X390000Y2622000D01*
X240000Y2314000D02*
X220000Y2354000D01*
X260000D01*
X240000Y2314000D01*
Y2322000D02*
X228000Y2346000D01*
X252000D01*
X240000Y2322000D01*
X5490000Y2314000D02*
X5470000Y2354000D01*
X5510000D01*
X5490000Y2314000D01*
Y2322000D02*
X5478000Y2346000D01*
X5502000D01*
X5490000Y2322000D01*
Y2014000D02*
X5470000Y2054000D01*
X5510000D01*
X5490000Y2014000D01*
Y2022000D02*
X5478000Y2046000D01*
X5502000D01*
X5490000Y2022000D01*
Y1864000D02*
X5470000Y1904000D01*
X5510000D01*
X5490000Y1864000D01*
Y1872000D02*
X5478000Y1896000D01*
X5502000D01*
X5490000Y1872000D01*
Y1414000D02*
X5470000Y1454000D01*
X5510000D01*
X5490000Y1414000D01*
Y1422000D02*
X5478000Y1446000D01*
X5502000D01*
X5490000Y1422000D01*
Y1264000D02*
X5470000Y1304000D01*
X5510000D01*
X5490000Y1264000D01*
Y1272000D02*
X5478000Y1296000D01*
X5502000D01*
X5490000Y1272000D01*
Y964000D02*
X5470000Y1004000D01*
X5510000D01*
X5490000Y964000D01*
Y972000D02*
X5478000Y996000D01*
X5502000D01*
X5490000Y972000D01*
X5340000Y3064000D02*
X5320000Y3104000D01*
X5360000D01*
X5340000Y3064000D01*
Y3072000D02*
X5328000Y3096000D01*
X5352000D01*
X5340000Y3072000D01*
Y2314000D02*
X5320000Y2354000D01*
X5360000D01*
X5340000Y2314000D01*
Y2322000D02*
X5328000Y2346000D01*
X5352000D01*
X5340000Y2322000D01*
Y2164000D02*
X5320000Y2204000D01*
X5360000D01*
X5340000Y2164000D01*
Y2172000D02*
X5328000Y2196000D01*
X5352000D01*
X5340000Y2172000D01*
Y2014000D02*
X5320000Y2054000D01*
X5360000D01*
X5340000Y2014000D01*
Y2022000D02*
X5328000Y2046000D01*
X5352000D01*
X5340000Y2022000D01*
Y1864000D02*
X5320000Y1904000D01*
X5360000D01*
X5340000Y1864000D01*
Y1872000D02*
X5328000Y1896000D01*
X5352000D01*
X5340000Y1872000D01*
Y1714000D02*
X5320000Y1754000D01*
X5360000D01*
X5340000Y1714000D01*
Y1722000D02*
X5328000Y1746000D01*
X5352000D01*
X5340000Y1722000D01*
Y1414000D02*
X5320000Y1454000D01*
X5360000D01*
X5340000Y1414000D01*
Y1422000D02*
X5328000Y1446000D01*
X5352000D01*
X5340000Y1422000D01*
Y1264000D02*
X5320000Y1304000D01*
X5360000D01*
X5340000Y1264000D01*
Y1272000D02*
X5328000Y1296000D01*
X5352000D01*
X5340000Y1272000D01*
Y1114000D02*
X5320000Y1154000D01*
X5360000D01*
X5340000Y1114000D01*
Y1122000D02*
X5328000Y1146000D01*
X5352000D01*
X5340000Y1122000D01*
Y964000D02*
X5320000Y1004000D01*
X5360000D01*
X5340000Y964000D01*
Y972000D02*
X5328000Y996000D01*
X5352000D01*
X5340000Y972000D01*
Y814000D02*
X5320000Y854000D01*
X5360000D01*
X5340000Y814000D01*
Y822000D02*
X5328000Y846000D01*
X5352000D01*
X5340000Y822000D01*
Y514000D02*
X5320000Y554000D01*
X5360000D01*
X5340000Y514000D01*
Y522000D02*
X5328000Y546000D01*
X5352000D01*
X5340000Y522000D01*
Y364000D02*
X5320000Y404000D01*
X5360000D01*
X5340000Y364000D01*
Y372000D02*
X5328000Y396000D01*
X5352000D01*
X5340000Y372000D01*
X5190000Y2764000D02*
X5170000Y2804000D01*
X5210000D01*
X5190000Y2764000D01*
Y2772000D02*
X5178000Y2796000D01*
X5202000D01*
X5190000Y2772000D01*
Y2614000D02*
X5170000Y2654000D01*
X5210000D01*
X5190000Y2614000D01*
Y2622000D02*
X5178000Y2646000D01*
X5202000D01*
X5190000Y2622000D01*
Y2314000D02*
X5170000Y2354000D01*
X5210000D01*
X5190000Y2314000D01*
Y2322000D02*
X5178000Y2346000D01*
X5202000D01*
X5190000Y2322000D01*
Y2014000D02*
X5170000Y2054000D01*
X5210000D01*
X5190000Y2014000D01*
Y2022000D02*
X5178000Y2046000D01*
X5202000D01*
X5190000Y2022000D01*
Y1864000D02*
X5170000Y1904000D01*
X5210000D01*
X5190000Y1864000D01*
Y1872000D02*
X5178000Y1896000D01*
X5202000D01*
X5190000Y1872000D01*
Y1714000D02*
X5170000Y1754000D01*
X5210000D01*
X5190000Y1714000D01*
Y1722000D02*
X5178000Y1746000D01*
X5202000D01*
X5190000Y1722000D01*
Y1414000D02*
X5170000Y1454000D01*
X5210000D01*
X5190000Y1414000D01*
Y1422000D02*
X5178000Y1446000D01*
X5202000D01*
X5190000Y1422000D01*
Y1264000D02*
X5170000Y1304000D01*
X5210000D01*
X5190000Y1264000D01*
Y1272000D02*
X5178000Y1296000D01*
X5202000D01*
X5190000Y1272000D01*
Y1114000D02*
X5170000Y1154000D01*
X5210000D01*
X5190000Y1114000D01*
Y1122000D02*
X5178000Y1146000D01*
X5202000D01*
X5190000Y1122000D01*
Y214000D02*
X5170000Y254000D01*
X5210000D01*
X5190000Y214000D01*
Y222000D02*
X5178000Y246000D01*
X5202000D01*
X5190000Y222000D01*
X5040000Y2764000D02*
X5020000Y2804000D01*
X5060000D01*
X5040000Y2764000D01*
Y2772000D02*
X5028000Y2796000D01*
X5052000D01*
X5040000Y2772000D01*
Y2314000D02*
X5020000Y2354000D01*
X5060000D01*
X5040000Y2314000D01*
Y2322000D02*
X5028000Y2346000D01*
X5052000D01*
X5040000Y2322000D01*
Y1864000D02*
X5020000Y1904000D01*
X5060000D01*
X5040000Y1864000D01*
Y1872000D02*
X5028000Y1896000D01*
X5052000D01*
X5040000Y1872000D01*
Y1264000D02*
X5020000Y1304000D01*
X5060000D01*
X5040000Y1264000D01*
Y1272000D02*
X5028000Y1296000D01*
X5052000D01*
X5040000Y1272000D01*
Y1114000D02*
X5020000Y1154000D01*
X5060000D01*
X5040000Y1114000D01*
Y1122000D02*
X5028000Y1146000D01*
X5052000D01*
X5040000Y1122000D01*
Y964000D02*
X5020000Y1004000D01*
X5060000D01*
X5040000Y964000D01*
Y972000D02*
X5028000Y996000D01*
X5052000D01*
X5040000Y972000D01*
X4290000Y2164000D02*
X4270000Y2204000D01*
X4310000D01*
X4290000Y2164000D01*
Y2172000D02*
X4278000Y2196000D01*
X4302000D01*
X4290000Y2172000D01*
X4890000Y514000D02*
X4870000Y554000D01*
X4910000D01*
X4890000Y514000D01*
Y522000D02*
X4878000Y546000D01*
X4902000D01*
X4890000Y522000D01*
X4740000Y814000D02*
X4720000Y854000D01*
X4760000D01*
X4740000Y814000D01*
Y822000D02*
X4728000Y846000D01*
X4752000D01*
X4740000Y822000D01*
Y1864000D02*
X4720000Y1904000D01*
X4760000D01*
X4740000Y1864000D01*
Y1872000D02*
X4728000Y1896000D01*
X4752000D01*
X4740000Y1872000D01*
X4590000Y1864000D02*
X4570000Y1904000D01*
X4610000D01*
X4590000Y1864000D01*
Y1872000D02*
X4578000Y1896000D01*
X4602000D01*
X4590000Y1872000D01*
X4440000Y2764000D02*
X4420000Y2804000D01*
X4460000D01*
X4440000Y2764000D01*
Y2772000D02*
X4428000Y2796000D01*
X4452000D01*
X4440000Y2772000D01*
X4290000Y2764000D02*
X4270000Y2804000D01*
X4310000D01*
X4290000Y2764000D01*
Y2772000D02*
X4278000Y2796000D01*
X4302000D01*
X4290000Y2772000D01*
X4890000Y964000D02*
X4870000Y1004000D01*
X4910000D01*
X4890000Y964000D01*
Y972000D02*
X4878000Y996000D01*
X4902000D01*
X4890000Y972000D01*
X4740000Y2314000D02*
X4720000Y2354000D01*
X4760000D01*
X4740000Y2314000D01*
Y2322000D02*
X4728000Y2346000D01*
X4752000D01*
X4740000Y2322000D01*
X4590000Y2614000D02*
X4570000Y2654000D01*
X4610000D01*
X4590000Y2614000D01*
Y2622000D02*
X4578000Y2646000D01*
X4602000D01*
X4590000Y2622000D01*
Y964000D02*
X4570000Y1004000D01*
X4610000D01*
X4590000Y964000D01*
Y972000D02*
X4578000Y996000D01*
X4602000D01*
X4590000Y972000D01*
X4440000Y214000D02*
X4420000Y254000D01*
X4460000D01*
X4440000Y214000D01*
Y222000D02*
X4428000Y246000D01*
X4452000D01*
X4440000Y222000D01*
X5040000Y214000D02*
X5020000Y254000D01*
X5060000D01*
X5040000Y214000D01*
Y222000D02*
X5028000Y246000D01*
X5052000D01*
X5040000Y222000D01*
X4740000Y2764000D02*
X4720000Y2804000D01*
X4760000D01*
X4740000Y2764000D01*
Y2772000D02*
X4728000Y2796000D01*
X4752000D01*
X4740000Y2772000D01*
X4590000Y2764000D02*
X4570000Y2804000D01*
X4610000D01*
X4590000Y2764000D01*
Y2772000D02*
X4578000Y2796000D01*
X4602000D01*
X4590000Y2772000D01*
X4440000Y1414000D02*
X4420000Y1454000D01*
X4460000D01*
X4440000Y1414000D01*
Y1422000D02*
X4428000Y1446000D01*
X4452000D01*
X4440000Y1422000D01*
Y514000D02*
X4420000Y554000D01*
X4460000D01*
X4440000Y514000D01*
Y522000D02*
X4428000Y546000D01*
X4452000D01*
X4440000Y522000D01*
X5040000Y514000D02*
X5020000Y554000D01*
X5060000D01*
X5040000Y514000D01*
Y522000D02*
X5028000Y546000D01*
X5052000D01*
X5040000Y522000D01*
X4890000Y364000D02*
X4870000Y404000D01*
X4910000D01*
X4890000Y364000D01*
Y372000D02*
X4878000Y396000D01*
X4902000D01*
X4890000Y372000D01*
X4740000Y364000D02*
X4720000Y404000D01*
X4760000D01*
X4740000Y364000D01*
Y372000D02*
X4728000Y396000D01*
X4752000D01*
X4740000Y372000D01*
X4440000Y1864000D02*
X4420000Y1904000D01*
X4460000D01*
X4440000Y1864000D01*
Y1872000D02*
X4428000Y1896000D01*
X4452000D01*
X4440000Y1872000D01*
Y664000D02*
X4420000Y704000D01*
X4460000D01*
X4440000Y664000D01*
Y672000D02*
X4428000Y696000D01*
X4452000D01*
X4440000Y672000D01*
X5040000Y664000D02*
X5020000Y704000D01*
X5060000D01*
X5040000Y664000D01*
Y672000D02*
X5028000Y696000D01*
X5052000D01*
X5040000Y672000D01*
X4740000Y964000D02*
X4720000Y1004000D01*
X4760000D01*
X4740000Y964000D01*
Y972000D02*
X4728000Y996000D01*
X4752000D01*
X4740000Y972000D01*
Y514000D02*
X4720000Y554000D01*
X4760000D01*
X4740000Y514000D01*
Y522000D02*
X4728000Y546000D01*
X4752000D01*
X4740000Y522000D01*
X2690056Y2002974D02*
X2670056Y2042974D01*
X2710056D01*
X2690056Y2002974D01*
Y2010974D02*
X2678056Y2034974D01*
X2702056D01*
X2690056Y2010974D01*
X3240000Y1714000D02*
X3220000Y1754000D01*
X3260000D01*
X3240000Y1714000D01*
Y1722000D02*
X3228000Y1746000D01*
X3252000D01*
X3240000Y1722000D01*
X3390000Y1864000D02*
X3370000Y1904000D01*
X3410000D01*
X3390000Y1864000D01*
Y1872000D02*
X3378000Y1896000D01*
X3402000D01*
X3390000Y1872000D01*
X3240000Y2464000D02*
X3220000Y2504000D01*
X3260000D01*
X3240000Y2464000D01*
Y2472000D02*
X3228000Y2496000D01*
X3252000D01*
X3240000Y2472000D01*
Y2164000D02*
X3220000Y2204000D01*
X3260000D01*
X3240000Y2164000D01*
Y2172000D02*
X3228000Y2196000D01*
X3252000D01*
X3240000Y2172000D01*
Y1264000D02*
X3220000Y1304000D01*
X3260000D01*
X3240000Y1264000D01*
Y1272000D02*
X3228000Y1296000D01*
X3252000D01*
X3240000Y1272000D01*
X3540000Y1264000D02*
X3520000Y1304000D01*
X3560000D01*
X3540000Y1264000D01*
Y1272000D02*
X3528000Y1296000D01*
X3552000D01*
X3540000Y1272000D01*
X3240000Y2914000D02*
X3220000Y2954000D01*
X3260000D01*
X3240000Y2914000D01*
Y2922000D02*
X3228000Y2946000D01*
X3252000D01*
X3240000Y2922000D01*
X3540000Y1414000D02*
X3520000Y1454000D01*
X3560000D01*
X3540000Y1414000D01*
Y1422000D02*
X3528000Y1446000D01*
X3552000D01*
X3540000Y1422000D01*
X3690000Y514000D02*
X3670000Y554000D01*
X3710000D01*
X3690000Y514000D01*
Y522000D02*
X3678000Y546000D01*
X3702000D01*
X3690000Y522000D01*
X3540000Y1714000D02*
X3520000Y1754000D01*
X3560000D01*
X3540000Y1714000D01*
Y1722000D02*
X3528000Y1746000D01*
X3552000D01*
X3540000Y1722000D01*
X3840000Y514000D02*
X3820000Y554000D01*
X3860000D01*
X3840000Y514000D01*
Y522000D02*
X3828000Y546000D01*
X3852000D01*
X3840000Y522000D01*
X3390000Y2914000D02*
X3370000Y2954000D01*
X3410000D01*
X3390000Y2914000D01*
Y2922000D02*
X3378000Y2946000D01*
X3402000D01*
X3390000Y2922000D01*
X3690000Y1864000D02*
X3670000Y1904000D01*
X3710000D01*
X3690000Y1864000D01*
Y1872000D02*
X3678000Y1896000D01*
X3702000D01*
X3690000Y1872000D01*
X3240000Y1114000D02*
X3220000Y1154000D01*
X3260000D01*
X3240000Y1114000D01*
Y1122000D02*
X3228000Y1146000D01*
X3252000D01*
X3240000Y1122000D01*
X3690000Y2164000D02*
X3670000Y2204000D01*
X3710000D01*
X3690000Y2164000D01*
Y2172000D02*
X3678000Y2196000D01*
X3702000D01*
X3690000Y2172000D01*
X3390000Y1264000D02*
X3370000Y1304000D01*
X3410000D01*
X3390000Y1264000D01*
Y1272000D02*
X3378000Y1296000D01*
X3402000D01*
X3390000Y1272000D01*
X3840000Y814000D02*
X3820000Y854000D01*
X3860000D01*
X3840000Y814000D01*
Y822000D02*
X3828000Y846000D01*
X3852000D01*
X3840000Y822000D01*
X3390000Y214000D02*
X3370000Y254000D01*
X3410000D01*
X3390000Y214000D01*
Y222000D02*
X3378000Y246000D01*
X3402000D01*
X3390000Y222000D01*
X3690000Y2314000D02*
X3670000Y2354000D01*
X3710000D01*
X3690000Y2314000D01*
Y2322000D02*
X3678000Y2346000D01*
X3702000D01*
X3690000Y2322000D01*
X3540000Y1864000D02*
X3520000Y1904000D01*
X3560000D01*
X3540000Y1864000D01*
Y1872000D02*
X3528000Y1896000D01*
X3552000D01*
X3540000Y1872000D01*
Y964000D02*
X3520000Y1004000D01*
X3560000D01*
X3540000Y964000D01*
Y972000D02*
X3528000Y996000D01*
X3552000D01*
X3540000Y972000D01*
X3840000Y1114000D02*
X3820000Y1154000D01*
X3860000D01*
X3840000Y1114000D01*
Y1122000D02*
X3828000Y1146000D01*
X3852000D01*
X3840000Y1122000D01*
X3690000Y2764000D02*
X3670000Y2804000D01*
X3710000D01*
X3690000Y2764000D01*
Y2772000D02*
X3678000Y2796000D01*
X3702000D01*
X3690000Y2772000D01*
Y2914000D02*
X3670000Y2954000D01*
X3710000D01*
X3690000Y2914000D01*
Y2922000D02*
X3678000Y2946000D01*
X3702000D01*
X3690000Y2922000D01*
X3240000Y2314000D02*
X3220000Y2354000D01*
X3260000D01*
X3240000Y2314000D01*
Y2322000D02*
X3228000Y2346000D01*
X3252000D01*
X3240000Y2322000D01*
X3390000Y2764000D02*
X3370000Y2804000D01*
X3410000D01*
X3390000Y2764000D01*
Y2772000D02*
X3378000Y2796000D01*
X3402000D01*
X3390000Y2772000D01*
X3540000Y2764000D02*
X3520000Y2804000D01*
X3560000D01*
X3540000Y2764000D01*
Y2772000D02*
X3528000Y2796000D01*
X3552000D01*
X3540000Y2772000D01*
Y2914000D02*
X3520000Y2954000D01*
X3560000D01*
X3540000Y2914000D01*
Y2922000D02*
X3528000Y2946000D01*
X3552000D01*
X3540000Y2922000D01*
X3390000Y1414000D02*
X3370000Y1454000D01*
X3410000D01*
X3390000Y1414000D01*
Y1422000D02*
X3378000Y1446000D01*
X3402000D01*
X3390000Y1422000D01*
X3840000Y1864000D02*
X3820000Y1904000D01*
X3860000D01*
X3840000Y1864000D01*
Y1872000D02*
X3828000Y1896000D01*
X3852000D01*
X3840000Y1872000D01*
X3390000Y2464000D02*
X3370000Y2504000D01*
X3410000D01*
X3390000Y2464000D01*
Y2472000D02*
X3378000Y2496000D01*
X3402000D01*
X3390000Y2472000D01*
X3840000Y364000D02*
X3820000Y404000D01*
X3860000D01*
X3840000Y364000D01*
Y372000D02*
X3828000Y396000D01*
X3852000D01*
X3840000Y372000D01*
X3390000Y2314000D02*
X3370000Y2354000D01*
X3410000D01*
X3390000Y2314000D01*
Y2322000D02*
X3378000Y2346000D01*
X3402000D01*
X3390000Y2322000D01*
X3840000Y2164000D02*
X3820000Y2204000D01*
X3860000D01*
X3840000Y2164000D01*
Y2172000D02*
X3828000Y2196000D01*
X3852000D01*
X3840000Y2172000D01*
X3690000Y364000D02*
X3670000Y404000D01*
X3710000D01*
X3690000Y364000D01*
Y372000D02*
X3678000Y396000D01*
X3702000D01*
X3690000Y372000D01*
X3240000Y2764000D02*
X3220000Y2804000D01*
X3260000D01*
X3240000Y2764000D01*
Y2772000D02*
X3228000Y2796000D01*
X3252000D01*
X3240000Y2772000D01*
X3390000Y2164000D02*
X3370000Y2204000D01*
X3410000D01*
X3390000Y2164000D01*
Y2172000D02*
X3378000Y2196000D01*
X3402000D01*
X3390000Y2172000D01*
X3840000Y2764000D02*
X3820000Y2804000D01*
X3860000D01*
X3840000Y2764000D01*
Y2772000D02*
X3828000Y2796000D01*
X3852000D01*
X3840000Y2772000D01*
X3390000Y1714000D02*
X3370000Y1754000D01*
X3410000D01*
X3390000Y1714000D01*
Y1722000D02*
X3378000Y1746000D01*
X3402000D01*
X3390000Y1722000D01*
X2490000Y814000D02*
X2470000Y854000D01*
X2510000D01*
X2490000Y814000D01*
Y822000D02*
X2478000Y846000D01*
X2502000D01*
X2490000Y822000D01*
Y664000D02*
X2470000Y704000D01*
X2510000D01*
X2490000Y664000D01*
Y672000D02*
X2478000Y696000D01*
X2502000D01*
X2490000Y672000D01*
X2190000Y214000D02*
X2170000Y254000D01*
X2210000D01*
X2190000Y214000D01*
Y222000D02*
X2178000Y246000D01*
X2202000D01*
X2190000Y222000D01*
X2340000Y664000D02*
X2320000Y704000D01*
X2360000D01*
X2340000Y664000D01*
Y672000D02*
X2328000Y696000D01*
X2352000D01*
X2340000Y672000D01*
X2040000Y364000D02*
X2020000Y404000D01*
X2060000D01*
X2040000Y364000D01*
Y372000D02*
X2028000Y396000D01*
X2052000D01*
X2040000Y372000D01*
X2490000Y2014000D02*
X2470000Y2054000D01*
X2510000D01*
X2490000Y2014000D01*
Y2022000D02*
X2478000Y2046000D01*
X2502000D01*
X2490000Y2022000D01*
Y214000D02*
X2470000Y254000D01*
X2510000D01*
X2490000Y214000D01*
Y222000D02*
X2478000Y246000D01*
X2502000D01*
X2490000Y222000D01*
Y364000D02*
X2470000Y404000D01*
X2510000D01*
X2490000Y364000D01*
Y372000D02*
X2478000Y396000D01*
X2502000D01*
X2490000Y372000D01*
X2040000Y1414000D02*
X2020000Y1454000D01*
X2060000D01*
X2040000Y1414000D01*
Y1422000D02*
X2028000Y1446000D01*
X2052000D01*
X2040000Y1422000D01*
X2490000Y2764000D02*
X2470000Y2804000D01*
X2510000D01*
X2490000Y2764000D01*
Y2772000D02*
X2478000Y2796000D01*
X2502000D01*
X2490000Y2772000D01*
X2040000Y1564000D02*
X2020000Y1604000D01*
X2060000D01*
X2040000Y1564000D01*
Y1572000D02*
X2028000Y1596000D01*
X2052000D01*
X2040000Y1572000D01*
X2190000Y814000D02*
X2170000Y854000D01*
X2210000D01*
X2190000Y814000D01*
Y822000D02*
X2178000Y846000D01*
X2202000D01*
X2190000Y822000D01*
X2490000Y964000D02*
X2470000Y1004000D01*
X2510000D01*
X2490000Y964000D01*
Y972000D02*
X2478000Y996000D01*
X2502000D01*
X2490000Y972000D01*
X2190000Y664000D02*
X2170000Y704000D01*
X2210000D01*
X2190000Y664000D01*
Y672000D02*
X2178000Y696000D01*
X2202000D01*
X2190000Y672000D01*
X2340000Y964000D02*
X2320000Y1004000D01*
X2360000D01*
X2340000Y964000D01*
Y972000D02*
X2328000Y996000D01*
X2352000D01*
X2340000Y972000D01*
X1890000Y364000D02*
X1870000Y404000D01*
X1910000D01*
X1890000Y364000D01*
Y372000D02*
X1878000Y396000D01*
X1902000D01*
X1890000Y372000D01*
X2040000Y2014000D02*
X2020000Y2054000D01*
X2060000D01*
X2040000Y2014000D01*
Y2022000D02*
X2028000Y2046000D01*
X2052000D01*
X2040000Y2022000D01*
Y1264000D02*
X2020000Y1304000D01*
X2060000D01*
X2040000Y1264000D01*
Y1272000D02*
X2028000Y1296000D01*
X2052000D01*
X2040000Y1272000D01*
X1740000Y2914000D02*
X1720000Y2954000D01*
X1760000D01*
X1740000Y2914000D01*
Y2922000D02*
X1728000Y2946000D01*
X1752000D01*
X1740000Y2922000D01*
X2040000Y1114000D02*
X2020000Y1154000D01*
X2060000D01*
X2040000Y1114000D01*
Y1122000D02*
X2028000Y1146000D01*
X2052000D01*
X2040000Y1122000D01*
X2340000Y2914000D02*
X2320000Y2954000D01*
X2360000D01*
X2340000Y2914000D01*
Y2922000D02*
X2328000Y2946000D01*
X2352000D01*
X2340000Y2922000D01*
X2190000Y1414000D02*
X2170000Y1454000D01*
X2210000D01*
X2190000Y1414000D01*
Y1422000D02*
X2178000Y1446000D01*
X2202000D01*
X2190000Y1422000D01*
X2340000Y2014000D02*
X2320000Y2054000D01*
X2360000D01*
X2340000Y2014000D01*
Y2022000D02*
X2328000Y2046000D01*
X2352000D01*
X2340000Y2022000D01*
X2190000Y2914000D02*
X2170000Y2954000D01*
X2210000D01*
X2190000Y2914000D01*
Y2922000D02*
X2178000Y2946000D01*
X2202000D01*
X2190000Y2922000D01*
X2490000Y2464000D02*
X2470000Y2504000D01*
X2510000D01*
X2490000Y2464000D01*
Y2472000D02*
X2478000Y2496000D01*
X2502000D01*
X2490000Y2472000D01*
Y1564000D02*
X2470000Y1604000D01*
X2510000D01*
X2490000Y1564000D01*
Y1572000D02*
X2478000Y1596000D01*
X2502000D01*
X2490000Y1572000D01*
X2640000Y214000D02*
X2620000Y254000D01*
X2660000D01*
X2640000Y214000D01*
Y222000D02*
X2628000Y246000D01*
X2652000D01*
X2640000Y222000D01*
X2340000Y1564000D02*
X2320000Y1604000D01*
X2360000D01*
X2340000Y1564000D01*
Y1572000D02*
X2328000Y1596000D01*
X2352000D01*
X2340000Y1572000D01*
X2040000Y2314000D02*
X2020000Y2354000D01*
X2060000D01*
X2040000Y2314000D01*
Y2322000D02*
X2028000Y2346000D01*
X2052000D01*
X2040000Y2322000D01*
Y664000D02*
X2020000Y704000D01*
X2060000D01*
X2040000Y664000D01*
Y672000D02*
X2028000Y696000D01*
X2052000D01*
X2040000Y672000D01*
X2190000Y1114000D02*
X2170000Y1154000D01*
X2210000D01*
X2190000Y1114000D01*
Y1122000D02*
X2178000Y1146000D01*
X2202000D01*
X2190000Y1122000D01*
X2040000Y214000D02*
X2020000Y254000D01*
X2060000D01*
X2040000Y214000D01*
Y222000D02*
X2028000Y246000D01*
X2052000D01*
X2040000Y222000D01*
X2190000Y964000D02*
X2170000Y1004000D01*
X2210000D01*
X2190000Y964000D01*
Y972000D02*
X2178000Y996000D01*
X2202000D01*
X2190000Y972000D01*
X2490000Y514000D02*
X2470000Y554000D01*
X2510000D01*
X2490000Y514000D01*
Y522000D02*
X2478000Y546000D01*
X2502000D01*
X2490000Y522000D01*
X2340000Y1714000D02*
X2320000Y1754000D01*
X2360000D01*
X2340000Y1714000D01*
Y1722000D02*
X2328000Y1746000D01*
X2352000D01*
X2340000Y1722000D01*
X2040000Y2914000D02*
X2020000Y2954000D01*
X2060000D01*
X2040000Y2914000D01*
Y2922000D02*
X2028000Y2946000D01*
X2052000D01*
X2040000Y2922000D01*
X1740000Y3064000D02*
X1720000Y3104000D01*
X1760000D01*
X1740000Y3064000D01*
Y3072000D02*
X1728000Y3096000D01*
X1752000D01*
X1740000Y3072000D01*
X1890000Y214000D02*
X1870000Y254000D01*
X1910000D01*
X1890000Y214000D01*
Y222000D02*
X1878000Y246000D01*
X1902000D01*
X1890000Y222000D01*
X2190000Y3064000D02*
X2170000Y3104000D01*
X2210000D01*
X2190000Y3064000D01*
Y3072000D02*
X2178000Y3096000D01*
X2202000D01*
X2190000Y3072000D01*
X2490000Y2914000D02*
X2470000Y2954000D01*
X2510000D01*
X2490000Y2914000D01*
Y2922000D02*
X2478000Y2946000D01*
X2502000D01*
X2490000Y2922000D01*
X2340000Y2464000D02*
X2320000Y2504000D01*
X2360000D01*
X2340000Y2464000D01*
Y2472000D02*
X2328000Y2496000D01*
X2352000D01*
X2340000Y2472000D01*
Y1264000D02*
X2320000Y1304000D01*
X2360000D01*
X2340000Y1264000D01*
Y1272000D02*
X2328000Y1296000D01*
X2352000D01*
X2340000Y1272000D01*
X2040000Y2464000D02*
X2020000Y2504000D01*
X2060000D01*
X2040000Y2464000D01*
Y2472000D02*
X2028000Y2496000D01*
X2052000D01*
X2040000Y2472000D01*
X2190000Y1564000D02*
X2170000Y1604000D01*
X2210000D01*
X2190000Y1564000D01*
Y1572000D02*
X2178000Y1596000D01*
X2202000D01*
X2190000Y1572000D01*
X2040000Y2164000D02*
X2020000Y2204000D01*
X2060000D01*
X2040000Y2164000D01*
Y2172000D02*
X2028000Y2196000D01*
X2052000D01*
X2040000Y2172000D01*
X2340000Y364000D02*
X2320000Y404000D01*
X2360000D01*
X2340000Y364000D01*
Y372000D02*
X2328000Y396000D01*
X2352000D01*
X2340000Y372000D01*
X2490000Y1114000D02*
X2470000Y1154000D01*
X2510000D01*
X2490000Y1114000D01*
Y1122000D02*
X2478000Y1146000D01*
X2502000D01*
X2490000Y1122000D01*
Y1264000D02*
X2470000Y1304000D01*
X2510000D01*
X2490000Y1264000D01*
Y1272000D02*
X2478000Y1296000D01*
X2502000D01*
X2490000Y1272000D01*
Y1414000D02*
X2470000Y1454000D01*
X2510000D01*
X2490000Y1414000D01*
Y1422000D02*
X2478000Y1446000D01*
X2502000D01*
X2490000Y1422000D01*
X2040000Y2764000D02*
X2020000Y2804000D01*
X2060000D01*
X2040000Y2764000D01*
Y2772000D02*
X2028000Y2796000D01*
X2052000D01*
X2040000Y2772000D01*
Y964000D02*
X2020000Y1004000D01*
X2060000D01*
X2040000Y964000D01*
Y972000D02*
X2028000Y996000D01*
X2052000D01*
X2040000Y972000D01*
X2190000Y1264000D02*
X2170000Y1304000D01*
X2210000D01*
X2190000Y1264000D01*
Y1272000D02*
X2178000Y1296000D01*
X2202000D01*
X2190000Y1272000D01*
X2340000Y1114000D02*
X2320000Y1154000D01*
X2360000D01*
X2340000Y1114000D01*
Y1122000D02*
X2328000Y1146000D01*
X2352000D01*
X2340000Y1122000D01*
X2190000Y514000D02*
X2170000Y554000D01*
X2210000D01*
X2190000Y514000D01*
Y522000D02*
X2178000Y546000D01*
X2202000D01*
X2190000Y522000D01*
X2040000Y1714000D02*
X2020000Y1754000D01*
X2060000D01*
X2040000Y1714000D01*
Y1722000D02*
X2028000Y1746000D01*
X2052000D01*
X2040000Y1722000D01*
X2340000Y814000D02*
X2320000Y854000D01*
X2360000D01*
X2340000Y814000D01*
Y822000D02*
X2328000Y846000D01*
X2352000D01*
X2340000Y822000D01*
X2040000Y514000D02*
X2020000Y554000D01*
X2060000D01*
X2040000Y514000D01*
Y522000D02*
X2028000Y546000D01*
X2052000D01*
X2040000Y522000D01*
X2340000Y514000D02*
X2320000Y554000D01*
X2360000D01*
X2340000Y514000D01*
Y522000D02*
X2328000Y546000D01*
X2352000D01*
X2340000Y522000D01*
Y1414000D02*
X2320000Y1454000D01*
X2360000D01*
X2340000Y1414000D01*
Y1422000D02*
X2328000Y1446000D01*
X2352000D01*
X2340000Y1422000D01*
Y214000D02*
X2320000Y254000D01*
X2360000D01*
X2340000Y214000D01*
Y222000D02*
X2328000Y246000D01*
X2352000D01*
X2340000Y222000D01*
X2040000Y814000D02*
X2020000Y854000D01*
X2060000D01*
X2040000Y814000D01*
Y822000D02*
X2028000Y846000D01*
X2052000D01*
X2040000Y822000D01*
Y1864000D02*
X2020000Y1904000D01*
X2060000D01*
X2040000Y1864000D01*
Y1872000D02*
X2028000Y1896000D01*
X2052000D01*
X2040000Y1872000D01*
X2640000Y514000D02*
X2620000Y554000D01*
X2660000D01*
X2640000Y514000D01*
Y522000D02*
X2628000Y546000D01*
X2652000D01*
X2640000Y522000D01*
X2790000Y514000D02*
X2770000Y554000D01*
X2810000D01*
X2790000Y514000D01*
Y522000D02*
X2778000Y546000D01*
X2802000D01*
X2790000Y522000D01*
X2640000Y2914000D02*
X2620000Y2954000D01*
X2660000D01*
X2640000Y2914000D01*
Y2922000D02*
X2628000Y2946000D01*
X2652000D01*
X2640000Y2922000D01*
X3090000Y2764000D02*
X3070000Y2804000D01*
X3110000D01*
X3090000Y2764000D01*
Y2772000D02*
X3078000Y2796000D01*
X3102000D01*
X3090000Y2772000D01*
X2640000Y2164000D02*
X2620000Y2204000D01*
X2660000D01*
X2640000Y2164000D01*
Y2172000D02*
X2628000Y2196000D01*
X2652000D01*
X2640000Y2172000D01*
Y364000D02*
X2620000Y404000D01*
X2660000D01*
X2640000Y364000D01*
Y372000D02*
X2628000Y396000D01*
X2652000D01*
X2640000Y372000D01*
Y1264000D02*
X2620000Y1304000D01*
X2660000D01*
X2640000Y1264000D01*
Y1272000D02*
X2628000Y1296000D01*
X2652000D01*
X2640000Y1272000D01*
X3240000Y664000D02*
X3220000Y704000D01*
X3260000D01*
X3240000Y664000D01*
Y672000D02*
X3228000Y696000D01*
X3252000D01*
X3240000Y672000D01*
X2790000Y1114000D02*
X2770000Y1154000D01*
X2810000D01*
X2790000Y1114000D01*
Y1122000D02*
X2778000Y1146000D01*
X2802000D01*
X2790000Y1122000D01*
Y814000D02*
X2770000Y854000D01*
X2810000D01*
X2790000Y814000D01*
Y822000D02*
X2778000Y846000D01*
X2802000D01*
X2790000Y822000D01*
X2640000Y2764000D02*
X2620000Y2804000D01*
X2660000D01*
X2640000Y2764000D01*
Y2772000D02*
X2628000Y2796000D01*
X2652000D01*
X2640000Y2772000D01*
X2940000Y1114000D02*
X2920000Y1154000D01*
X2960000D01*
X2940000Y1114000D01*
Y1122000D02*
X2928000Y1146000D01*
X2952000D01*
X2940000Y1122000D01*
X2790000Y2764000D02*
X2770000Y2804000D01*
X2810000D01*
X2790000Y2764000D01*
Y2772000D02*
X2778000Y2796000D01*
X2802000D01*
X2790000Y2772000D01*
X3090000Y214000D02*
X3070000Y254000D01*
X3110000D01*
X3090000Y214000D01*
Y222000D02*
X3078000Y246000D01*
X3102000D01*
X3090000Y222000D01*
X2790000Y364000D02*
X2770000Y404000D01*
X2810000D01*
X2790000Y364000D01*
Y372000D02*
X2778000Y396000D01*
X2802000D01*
X2790000Y372000D01*
X3240000Y364000D02*
X3220000Y404000D01*
X3260000D01*
X3240000Y364000D01*
Y372000D02*
X3228000Y396000D01*
X3252000D01*
X3240000Y372000D01*
X2790000Y3064000D02*
X2770000Y3104000D01*
X2810000D01*
X2790000Y3064000D01*
Y3072000D02*
X2778000Y3096000D01*
X2802000D01*
X2790000Y3072000D01*
Y2314000D02*
X2770000Y2354000D01*
X2810000D01*
X2790000Y2314000D01*
Y2322000D02*
X2778000Y2346000D01*
X2802000D01*
X2790000Y2322000D01*
Y214000D02*
X2770000Y254000D01*
X2810000D01*
X2790000Y214000D01*
Y222000D02*
X2778000Y246000D01*
X2802000D01*
X2790000Y222000D01*
X3240000Y814000D02*
X3220000Y854000D01*
X3260000D01*
X3240000Y814000D01*
Y822000D02*
X3228000Y846000D01*
X3252000D01*
X3240000Y822000D01*
X2940000Y814000D02*
X2920000Y854000D01*
X2960000D01*
X2940000Y814000D01*
Y822000D02*
X2928000Y846000D01*
X2952000D01*
X2940000Y822000D01*
Y1714000D02*
X2920000Y1754000D01*
X2960000D01*
X2940000Y1714000D01*
Y1722000D02*
X2928000Y1746000D01*
X2952000D01*
X2940000Y1722000D01*
Y664000D02*
X2920000Y704000D01*
X2960000D01*
X2940000Y664000D01*
Y672000D02*
X2928000Y696000D01*
X2952000D01*
X2940000Y672000D01*
X2640000Y1114000D02*
X2620000Y1154000D01*
X2660000D01*
X2640000Y1114000D01*
Y1122000D02*
X2628000Y1146000D01*
X2652000D01*
X2640000Y1122000D01*
Y2314000D02*
X2620000Y2354000D01*
X2660000D01*
X2640000Y2314000D01*
Y2322000D02*
X2628000Y2346000D01*
X2652000D01*
X2640000Y2322000D01*
Y814000D02*
X2620000Y854000D01*
X2660000D01*
X2640000Y814000D01*
Y822000D02*
X2628000Y846000D01*
X2652000D01*
X2640000Y822000D01*
Y964000D02*
X2620000Y1004000D01*
X2660000D01*
X2640000Y964000D01*
Y972000D02*
X2628000Y996000D01*
X2652000D01*
X2640000Y972000D01*
X2940000Y214000D02*
X2920000Y254000D01*
X2960000D01*
X2940000Y214000D01*
Y222000D02*
X2928000Y246000D01*
X2952000D01*
X2940000Y222000D01*
Y364000D02*
X2920000Y404000D01*
X2960000D01*
X2940000Y364000D01*
Y372000D02*
X2928000Y396000D01*
X2952000D01*
X2940000Y372000D01*
X3090000Y2464000D02*
X3070000Y2504000D01*
X3110000D01*
X3090000Y2464000D01*
Y2472000D02*
X3078000Y2496000D01*
X3102000D01*
X3090000Y2472000D01*
X2940000Y1264000D02*
X2920000Y1304000D01*
X2960000D01*
X2940000Y1264000D01*
Y1272000D02*
X2928000Y1296000D01*
X2952000D01*
X2940000Y1272000D01*
X3240000Y964000D02*
X3220000Y1004000D01*
X3260000D01*
X3240000Y964000D01*
Y972000D02*
X3228000Y996000D01*
X3252000D01*
X3240000Y972000D01*
X2640000Y2464000D02*
X2620000Y2504000D01*
X2660000D01*
X2640000Y2464000D01*
Y2472000D02*
X2628000Y2496000D01*
X2652000D01*
X2640000Y2472000D01*
X2940000Y2764000D02*
X2920000Y2804000D01*
X2960000D01*
X2940000Y2764000D01*
Y2772000D02*
X2928000Y2796000D01*
X2952000D01*
X2940000Y2772000D01*
X3240000Y214000D02*
X3220000Y254000D01*
X3260000D01*
X3240000Y214000D01*
Y222000D02*
X3228000Y246000D01*
X3252000D01*
X3240000Y222000D01*
X2940000Y2464000D02*
X2920000Y2504000D01*
X2960000D01*
X2940000Y2464000D01*
Y2472000D02*
X2928000Y2496000D01*
X2952000D01*
X2940000Y2472000D01*
X2790000Y1414000D02*
X2770000Y1454000D01*
X2810000D01*
X2790000Y1414000D01*
Y1422000D02*
X2778000Y1446000D01*
X2802000D01*
X2790000Y1422000D01*
X2940000Y2314000D02*
X2920000Y2354000D01*
X2960000D01*
X2940000Y2314000D01*
Y2322000D02*
X2928000Y2346000D01*
X2952000D01*
X2940000Y2322000D01*
X2790000Y1264000D02*
X2770000Y1304000D01*
X2810000D01*
X2790000Y1264000D01*
Y1272000D02*
X2778000Y1296000D01*
X2802000D01*
X2790000Y1272000D01*
X3240000Y514000D02*
X3220000Y554000D01*
X3260000D01*
X3240000Y514000D01*
Y522000D02*
X3228000Y546000D01*
X3252000D01*
X3240000Y522000D01*
X2640000Y664000D02*
X2620000Y704000D01*
X2660000D01*
X2640000Y664000D01*
Y672000D02*
X2628000Y696000D01*
X2652000D01*
X2640000Y672000D01*
X2940000Y514000D02*
X2920000Y554000D01*
X2960000D01*
X2940000Y514000D01*
Y522000D02*
X2928000Y546000D01*
X2952000D01*
X2940000Y522000D01*
Y1564000D02*
X2920000Y1604000D01*
X2960000D01*
X2940000Y1564000D01*
Y1572000D02*
X2928000Y1596000D01*
X2952000D01*
X2940000Y1572000D01*
X2790000Y664000D02*
X2770000Y704000D01*
X2810000D01*
X2790000Y664000D01*
Y672000D02*
X2778000Y696000D01*
X2802000D01*
X2790000Y672000D01*
X2940000Y1414000D02*
X2920000Y1454000D01*
X2960000D01*
X2940000Y1414000D01*
Y1422000D02*
X2928000Y1446000D01*
X2952000D01*
X2940000Y1422000D01*
X2790000Y2464000D02*
X2770000Y2504000D01*
X2810000D01*
X2790000Y2464000D01*
Y2472000D02*
X2778000Y2496000D01*
X2802000D01*
X2790000Y2472000D01*
X2940000Y964000D02*
X2920000Y1004000D01*
X2960000D01*
X2940000Y964000D01*
Y972000D02*
X2928000Y996000D01*
X2952000D01*
X2940000Y972000D01*
Y2914000D02*
X2920000Y2954000D01*
X2960000D01*
X2940000Y2914000D01*
Y2922000D02*
X2928000Y2946000D01*
X2952000D01*
X2940000Y2922000D01*
X3090000Y2314000D02*
X3070000Y2354000D01*
X3110000D01*
X3090000Y2314000D01*
Y2322000D02*
X3078000Y2346000D01*
X3102000D01*
X3090000Y2322000D01*
Y2914000D02*
X3070000Y2954000D01*
X3110000D01*
X3090000Y2914000D01*
Y2922000D02*
X3078000Y2946000D01*
X3102000D01*
X3090000Y2922000D01*
X2790000Y2914000D02*
X2770000Y2954000D01*
X2810000D01*
X2790000Y2914000D01*
Y2922000D02*
X2778000Y2946000D01*
X2802000D01*
X2790000Y2922000D01*
Y1564000D02*
X2770000Y1604000D01*
X2810000D01*
X2790000Y1564000D01*
Y1572000D02*
X2778000Y1596000D01*
X2802000D01*
X2790000Y1572000D01*
Y964000D02*
X2770000Y1004000D01*
X2810000D01*
X2790000Y964000D01*
Y972000D02*
X2778000Y996000D01*
X2802000D01*
X2790000Y972000D01*
X5394230Y2167312D02*
X5374230Y2207312D01*
X5414230D01*
X5394230Y2167312D01*
Y2175312D02*
X5382230Y2199312D01*
X5406230D01*
X5394230Y2175312D01*
X5488000Y2259312D02*
X5468000Y2299312D01*
X5508000D01*
X5488000Y2259312D01*
Y2267312D02*
X5476000Y2291312D01*
X5500000D01*
X5488000Y2267312D01*
Y2072017D02*
X5468000Y2112017D01*
X5508000D01*
X5488000Y2072017D01*
Y2080017D02*
X5476000Y2104017D01*
X5500000D01*
X5488000Y2080017D01*
X5554230Y2232312D02*
X5534230Y2272312D01*
X5574230D01*
X5554230Y2232312D01*
Y2240312D02*
X5542230Y2264312D01*
X5566230D01*
X5554230Y2240312D01*
X5422230Y2231312D02*
X5402230Y2271312D01*
X5442230D01*
X5422230Y2231312D01*
Y2239312D02*
X5410230Y2263312D01*
X5434230D01*
X5422230Y2239312D01*
X5421230Y2099312D02*
X5401230Y2139312D01*
X5441230D01*
X5421230Y2099312D01*
Y2107312D02*
X5409230Y2131312D01*
X5433230D01*
X5421230Y2107312D01*
X5553230Y2099312D02*
X5533230Y2139312D01*
X5573230D01*
X5553230Y2099312D01*
Y2107312D02*
X5541230Y2131312D01*
X5565230D01*
X5553230Y2107312D01*
X266270Y2166312D02*
X246270Y2206312D01*
X286270D01*
X266270Y2166312D01*
Y2174312D02*
X254270Y2198312D01*
X278270D01*
X266270Y2174312D01*
X79270Y2167312D02*
X59270Y2207312D01*
X99270D01*
X79270Y2167312D01*
Y2175312D02*
X67270Y2199312D01*
X91270D01*
X79270Y2175312D01*
X173040Y2259312D02*
X153040Y2299312D01*
X193040D01*
X173040Y2259312D01*
Y2267312D02*
X161040Y2291312D01*
X185040D01*
X173040Y2267312D01*
Y2072017D02*
X153040Y2112017D01*
X193040D01*
X173040Y2072017D01*
Y2080017D02*
X161040Y2104017D01*
X185040D01*
X173040Y2080017D01*
X239270Y2232312D02*
X219270Y2272312D01*
X259270D01*
X239270Y2232312D01*
Y2240312D02*
X227270Y2264312D01*
X251270D01*
X239270Y2240312D01*
X107270Y2231312D02*
X87270Y2271312D01*
X127270D01*
X107270Y2231312D01*
Y2239312D02*
X95270Y2263312D01*
X119270D01*
X107270Y2239312D01*
X106270Y2099312D02*
X86270Y2139312D01*
X126270D01*
X106270Y2099312D01*
Y2107312D02*
X94270Y2131312D01*
X118270D01*
X106270Y2107312D01*
X238270Y2099312D02*
X218270Y2139312D01*
X258270D01*
X238270Y2099312D01*
Y2107312D02*
X226270Y2131312D01*
X250270D01*
X238270Y2107312D01*
X90000Y964000D02*
X70000Y1004000D01*
X110000D01*
X90000Y964000D01*
Y972000D02*
X78000Y996000D01*
X102000D01*
X90000Y972000D01*
Y1864000D02*
X70000Y1904000D01*
X110000D01*
X90000Y1864000D01*
Y1872000D02*
X78000Y1896000D01*
X102000D01*
X90000Y1872000D01*
X4290000Y514000D02*
X4270000Y554000D01*
X4310000D01*
X4290000Y514000D01*
Y522000D02*
X4278000Y546000D01*
X4302000D01*
X4290000Y522000D01*
Y1414000D02*
X4270000Y1454000D01*
X4310000D01*
X4290000Y1414000D01*
Y1422000D02*
X4278000Y1446000D01*
X4302000D01*
X4290000Y1422000D01*
Y1114000D02*
X4270000Y1154000D01*
X4310000D01*
X4290000Y1114000D01*
Y1122000D02*
X4278000Y1146000D01*
X4302000D01*
X4290000Y1122000D01*
Y814000D02*
X4270000Y854000D01*
X4310000D01*
X4290000Y814000D01*
Y822000D02*
X4278000Y846000D01*
X4302000D01*
X4290000Y822000D01*
X173039Y2165992D02*
X183039Y2175992D01*
X193039D01*
X183039Y2185992D01*
X193039Y2195992D01*
X183039D01*
X173039Y2205992D01*
X163039Y2195992D01*
X153039D01*
X163039Y2185992D01*
X153039Y2175992D01*
X163039D01*
X173039Y2165992D01*
Y2173992D02*
X179039Y2179992D01*
X185039D01*
X179039Y2185992D01*
X185039Y2191992D01*
X179039D01*
X173039Y2197992D01*
X167039Y2191992D01*
X161039D01*
X167039Y2185992D01*
X161039Y2179992D01*
X167039D01*
X173039Y2173992D01*
X5488000Y2165992D02*
X5498000Y2175992D01*
X5508000D01*
X5498000Y2185992D01*
X5508000Y2195992D01*
X5498000D01*
X5488000Y2205992D01*
X5478000Y2195992D01*
X5468000D01*
X5478000Y2185992D01*
X5468000Y2175992D01*
X5478000D01*
X5488000Y2165992D01*
Y2173992D02*
X5494000Y2179992D01*
X5500000D01*
X5494000Y2185992D01*
X5500000Y2191992D01*
X5494000D01*
X5488000Y2197992D01*
X5482000Y2191992D01*
X5476000D01*
X5482000Y2185992D01*
X5476000Y2179992D01*
X5482000D01*
X5488000Y2173992D01*
Y1103000D02*
X5498000Y1113000D01*
X5508000D01*
X5498000Y1123000D01*
X5508000Y1133000D01*
X5498000D01*
X5488000Y1143000D01*
X5478000Y1133000D01*
X5468000D01*
X5478000Y1123000D01*
X5468000Y1113000D01*
X5478000D01*
X5488000Y1103000D01*
Y1111000D02*
X5494000Y1117000D01*
X5500000D01*
X5494000Y1123000D01*
X5500000Y1129000D01*
X5494000D01*
X5488000Y1135000D01*
X5482000Y1129000D01*
X5476000D01*
X5482000Y1123000D01*
X5476000Y1117000D01*
X5482000D01*
X5488000Y1111000D01*
X173039Y1103000D02*
X183039Y1113000D01*
X193039D01*
X183039Y1123000D01*
X193039Y1133000D01*
X183039D01*
X173039Y1143000D01*
X163039Y1133000D01*
X153039D01*
X163039Y1123000D01*
X153039Y1113000D01*
X163039D01*
X173039Y1103000D01*
Y1111000D02*
X179039Y1117000D01*
X185039D01*
X179039Y1123000D01*
X185039Y1129000D01*
X179039D01*
X173039Y1135000D01*
X167039Y1129000D01*
X161039D01*
X167039Y1123000D01*
X161039Y1117000D01*
X167039D01*
X173039Y1111000D01*
D127*
X5523000Y1534890D02*
G03*
X5523000Y1534890I-12000J0D01*
G01*
Y1613630D02*
G03*
X5523000Y1613630I-12000J0D01*
G01*
Y1692370D02*
G03*
X5523000Y1692370I-12000J0D01*
G01*
Y1771110D02*
G03*
X5523000Y1771110I-12000J0D01*
G01*
D142*
X4806000Y1075000D02*
G03*
X4806000Y1075000I-20000J0D01*
G01*
X4606000D02*
G03*
X4606000Y1075000I-20000J0D01*
G01*
X4405667D02*
G03*
X4405667Y1075000I-20000J0D01*
G01*
X4205667D02*
G03*
X4205667Y1075000I-20000J0D01*
G01*
X4005333D02*
G03*
X4005333Y1075000I-20000J0D01*
G01*
X3805333D02*
G03*
X3805333Y1075000I-20000J0D01*
G01*
X3605000D02*
G03*
X3605000Y1075000I-20000J0D01*
G01*
X3405000D02*
G03*
X3405000Y1075000I-20000J0D01*
G01*
X2106000Y3059000D02*
G03*
X2106000Y3059000I-20000J0D01*
G01*
X2306000D02*
G03*
X2306000Y3059000I-20000J0D01*
G01*
X2506000D02*
G03*
X2506000Y3059000I-20000J0D01*
G01*
X2706000D02*
G03*
X2706000Y3059000I-20000J0D01*
G01*
X2906000D02*
G03*
X2906000Y3059000I-20000J0D01*
G01*
X3106000D02*
G03*
X3106000Y3059000I-20000J0D01*
G01*
X3306000D02*
G03*
X3306000Y3059000I-20000J0D01*
G01*
X5531000Y1534890D02*
G03*
X5531000Y1534890I-20000J0D01*
G01*
Y1613630D02*
G03*
X5531000Y1613630I-20000J0D01*
G01*
Y1692370D02*
G03*
X5531000Y1692370I-20000J0D01*
G01*
Y1771110D02*
G03*
X5531000Y1771110I-20000J0D01*
G01*
%TF.MD5,ecc77b28a20e6c0e568f20c0909859a7*%
M02*
