%TF.GenerationSoftware,Altium Limited,Altium Designer,21.3.2 (30)*%
G04 Layer_Physical_Order=1*
G04 Layer_Color=255*
%FSLAX26Y26*%
%MOIN*%
%TF.SameCoordinates,5CB9DBA1-4DA9-4ED0-9B61-E5D9B39C4D3D*%
%TF.FilePolarity,Positive*%
%TF.FileFunction,Copper,L1,Top,Signal*%
%TF.Part,Single*%
G01*
G75*
%TA.AperFunction,SMDPad,CuDef*%
G04:AMPARAMS|DCode=10|XSize=59.055mil|YSize=55.118mil|CornerRadius=13.78mil|HoleSize=0mil|Usage=FLASHONLY|Rotation=0.000|XOffset=0mil|YOffset=0mil|HoleType=Round|Shape=RoundedRectangle|*
%AMROUNDEDRECTD10*
21,1,0.059055,0.027559,0,0,0.0*
21,1,0.031496,0.055118,0,0,0.0*
1,1,0.027559,0.015748,-0.013780*
1,1,0.027559,-0.015748,-0.013780*
1,1,0.027559,-0.015748,0.013780*
1,1,0.027559,0.015748,0.013780*
%
%ADD10ROUNDEDRECTD10*%
%ADD11R,0.035433X0.059055*%
%ADD12R,0.059055X0.035433*%
%TA.AperFunction,BGAPad,CuDef*%
%ADD13R,0.035433X0.035433*%
%TA.AperFunction,SMDPad,CuDef*%
G04:AMPARAMS|DCode=14|XSize=62.992mil|YSize=41.339mil|CornerRadius=10.335mil|HoleSize=0mil|Usage=FLASHONLY|Rotation=270.000|XOffset=0mil|YOffset=0mil|HoleType=Round|Shape=RoundedRectangle|*
%AMROUNDEDRECTD14*
21,1,0.062992,0.020669,0,0,270.0*
21,1,0.042323,0.041339,0,0,270.0*
1,1,0.020669,-0.010335,-0.021162*
1,1,0.020669,-0.010335,0.021162*
1,1,0.020669,0.010335,0.021162*
1,1,0.020669,0.010335,-0.021162*
%
%ADD14ROUNDEDRECTD14*%
G04:AMPARAMS|DCode=15|XSize=47.244mil|YSize=35.433mil|CornerRadius=8.858mil|HoleSize=0mil|Usage=FLASHONLY|Rotation=90.000|XOffset=0mil|YOffset=0mil|HoleType=Round|Shape=RoundedRectangle|*
%AMROUNDEDRECTD15*
21,1,0.047244,0.017717,0,0,90.0*
21,1,0.029528,0.035433,0,0,90.0*
1,1,0.017716,0.008858,0.014764*
1,1,0.017716,0.008858,-0.014764*
1,1,0.017716,-0.008858,-0.014764*
1,1,0.017716,-0.008858,0.014764*
%
%ADD15ROUNDEDRECTD15*%
G04:AMPARAMS|DCode=16|XSize=62.992mil|YSize=41.339mil|CornerRadius=10.335mil|HoleSize=0mil|Usage=FLASHONLY|Rotation=180.000|XOffset=0mil|YOffset=0mil|HoleType=Round|Shape=RoundedRectangle|*
%AMROUNDEDRECTD16*
21,1,0.062992,0.020669,0,0,180.0*
21,1,0.042323,0.041339,0,0,180.0*
1,1,0.020669,-0.021162,0.010335*
1,1,0.020669,0.021162,0.010335*
1,1,0.020669,0.021162,-0.010335*
1,1,0.020669,-0.021162,-0.010335*
%
%ADD16ROUNDEDRECTD16*%
G04:AMPARAMS|DCode=17|XSize=47.244mil|YSize=35.433mil|CornerRadius=8.858mil|HoleSize=0mil|Usage=FLASHONLY|Rotation=180.000|XOffset=0mil|YOffset=0mil|HoleType=Round|Shape=RoundedRectangle|*
%AMROUNDEDRECTD17*
21,1,0.047244,0.017717,0,0,180.0*
21,1,0.029528,0.035433,0,0,180.0*
1,1,0.017716,-0.014764,0.008858*
1,1,0.017716,0.014764,0.008858*
1,1,0.017716,0.014764,-0.008858*
1,1,0.017716,-0.014764,-0.008858*
%
%ADD17ROUNDEDRECTD17*%
G04:AMPARAMS|DCode=18|XSize=135.827mil|YSize=62.992mil|CornerRadius=15.748mil|HoleSize=0mil|Usage=FLASHONLY|Rotation=180.000|XOffset=0mil|YOffset=0mil|HoleType=Round|Shape=RoundedRectangle|*
%AMROUNDEDRECTD18*
21,1,0.135827,0.031496,0,0,180.0*
21,1,0.104331,0.062992,0,0,180.0*
1,1,0.031496,-0.052165,0.015748*
1,1,0.031496,0.052165,0.015748*
1,1,0.031496,0.052165,-0.015748*
1,1,0.031496,-0.052165,-0.015748*
%
%ADD18ROUNDEDRECTD18*%
G04:AMPARAMS|DCode=19|XSize=94.488mil|YSize=82.677mil|CornerRadius=20.669mil|HoleSize=0mil|Usage=FLASHONLY|Rotation=90.000|XOffset=0mil|YOffset=0mil|HoleType=Round|Shape=RoundedRectangle|*
%AMROUNDEDRECTD19*
21,1,0.094488,0.041339,0,0,90.0*
21,1,0.053150,0.082677,0,0,90.0*
1,1,0.041339,0.020669,0.026575*
1,1,0.041339,0.020669,-0.026575*
1,1,0.041339,-0.020669,-0.026575*
1,1,0.041339,-0.020669,0.026575*
%
%ADD19ROUNDEDRECTD19*%
G04:AMPARAMS|DCode=20|XSize=94.488mil|YSize=82.677mil|CornerRadius=20.669mil|HoleSize=0mil|Usage=FLASHONLY|Rotation=0.000|XOffset=0mil|YOffset=0mil|HoleType=Round|Shape=RoundedRectangle|*
%AMROUNDEDRECTD20*
21,1,0.094488,0.041339,0,0,0.0*
21,1,0.053150,0.082677,0,0,0.0*
1,1,0.041339,0.026575,-0.020669*
1,1,0.041339,-0.026575,-0.020669*
1,1,0.041339,-0.026575,0.020669*
1,1,0.041339,0.026575,0.020669*
%
%ADD20ROUNDEDRECTD20*%
G04:AMPARAMS|DCode=21|XSize=78.74mil|YSize=78.74mil|CornerRadius=19.685mil|HoleSize=0mil|Usage=FLASHONLY|Rotation=270.000|XOffset=0mil|YOffset=0mil|HoleType=Round|Shape=RoundedRectangle|*
%AMROUNDEDRECTD21*
21,1,0.078740,0.039370,0,0,270.0*
21,1,0.039370,0.078740,0,0,270.0*
1,1,0.039370,-0.019685,-0.019685*
1,1,0.039370,-0.019685,0.019685*
1,1,0.039370,0.019685,0.019685*
1,1,0.039370,0.019685,-0.019685*
%
%ADD21ROUNDEDRECTD21*%
G04:AMPARAMS|DCode=22|XSize=47.244mil|YSize=165.354mil|CornerRadius=11.811mil|HoleSize=0mil|Usage=FLASHONLY|Rotation=180.000|XOffset=0mil|YOffset=0mil|HoleType=Round|Shape=RoundedRectangle|*
%AMROUNDEDRECTD22*
21,1,0.047244,0.141732,0,0,180.0*
21,1,0.023622,0.165354,0,0,180.0*
1,1,0.023622,-0.011811,0.070866*
1,1,0.023622,0.011811,0.070866*
1,1,0.023622,0.011811,-0.070866*
1,1,0.023622,-0.011811,-0.070866*
%
%ADD22ROUNDEDRECTD22*%
G04:AMPARAMS|DCode=23|XSize=393.701mil|YSize=354.331mil|CornerRadius=88.583mil|HoleSize=0mil|Usage=FLASHONLY|Rotation=180.000|XOffset=0mil|YOffset=0mil|HoleType=Round|Shape=RoundedRectangle|*
%AMROUNDEDRECTD23*
21,1,0.393701,0.177166,0,0,180.0*
21,1,0.216536,0.354331,0,0,180.0*
1,1,0.177165,-0.108268,0.088583*
1,1,0.177165,0.108268,0.088583*
1,1,0.177165,0.108268,-0.088583*
1,1,0.177165,-0.108268,-0.088583*
%
%ADD23ROUNDEDRECTD23*%
%ADD24R,0.067000X0.021000*%
%ADD25R,0.055118X0.138189*%
%ADD26O,0.031496X0.059843*%
G04:AMPARAMS|DCode=27|XSize=31.496mil|YSize=59.843mil|CornerRadius=7.874mil|HoleSize=0mil|Usage=FLASHONLY|Rotation=0.000|XOffset=0mil|YOffset=0mil|HoleType=Round|Shape=RoundedRectangle|*
%AMROUNDEDRECTD27*
21,1,0.031496,0.044094,0,0,0.0*
21,1,0.015748,0.059843,0,0,0.0*
1,1,0.015748,0.007874,-0.022047*
1,1,0.015748,-0.007874,-0.022047*
1,1,0.015748,-0.007874,0.022047*
1,1,0.015748,0.007874,0.022047*
%
%ADD27ROUNDEDRECTD27*%
G04:AMPARAMS|DCode=28|XSize=161.417mil|YSize=78.74mil|CornerRadius=19.685mil|HoleSize=0mil|Usage=FLASHONLY|Rotation=0.000|XOffset=0mil|YOffset=0mil|HoleType=Round|Shape=RoundedRectangle|*
%AMROUNDEDRECTD28*
21,1,0.161417,0.039370,0,0,0.0*
21,1,0.122047,0.078740,0,0,0.0*
1,1,0.039370,0.061024,-0.019685*
1,1,0.039370,-0.061024,-0.019685*
1,1,0.039370,-0.061024,0.019685*
1,1,0.039370,0.061024,0.019685*
%
%ADD28ROUNDEDRECTD28*%
G04:AMPARAMS|DCode=29|XSize=137.795mil|YSize=64.961mil|CornerRadius=16.24mil|HoleSize=0mil|Usage=FLASHONLY|Rotation=180.000|XOffset=0mil|YOffset=0mil|HoleType=Round|Shape=RoundedRectangle|*
%AMROUNDEDRECTD29*
21,1,0.137795,0.032480,0,0,180.0*
21,1,0.105315,0.064961,0,0,180.0*
1,1,0.032480,-0.052657,0.016240*
1,1,0.032480,0.052657,0.016240*
1,1,0.032480,0.052657,-0.016240*
1,1,0.032480,-0.052657,-0.016240*
%
%ADD29ROUNDEDRECTD29*%
G04:AMPARAMS|DCode=30|XSize=47.244mil|YSize=64.961mil|CornerRadius=11.811mil|HoleSize=0mil|Usage=FLASHONLY|Rotation=180.000|XOffset=0mil|YOffset=0mil|HoleType=Round|Shape=RoundedRectangle|*
%AMROUNDEDRECTD30*
21,1,0.047244,0.041339,0,0,180.0*
21,1,0.023622,0.064961,0,0,180.0*
1,1,0.023622,-0.011811,0.020669*
1,1,0.023622,0.011811,0.020669*
1,1,0.023622,0.011811,-0.020669*
1,1,0.023622,-0.011811,-0.020669*
%
%ADD30ROUNDEDRECTD30*%
G04:AMPARAMS|DCode=31|XSize=125.984mil|YSize=62.992mil|CornerRadius=15.748mil|HoleSize=0mil|Usage=FLASHONLY|Rotation=90.000|XOffset=0mil|YOffset=0mil|HoleType=Round|Shape=RoundedRectangle|*
%AMROUNDEDRECTD31*
21,1,0.125984,0.031496,0,0,90.0*
21,1,0.094488,0.062992,0,0,90.0*
1,1,0.031496,0.015748,0.047244*
1,1,0.031496,0.015748,-0.047244*
1,1,0.031496,-0.015748,-0.047244*
1,1,0.031496,-0.015748,0.047244*
%
%ADD31ROUNDEDRECTD31*%
G04:AMPARAMS|DCode=32|XSize=31.496mil|YSize=62.992mil|CornerRadius=7.874mil|HoleSize=0mil|Usage=FLASHONLY|Rotation=270.000|XOffset=0mil|YOffset=0mil|HoleType=Round|Shape=RoundedRectangle|*
%AMROUNDEDRECTD32*
21,1,0.031496,0.047244,0,0,270.0*
21,1,0.015748,0.062992,0,0,270.0*
1,1,0.015748,-0.023622,-0.007874*
1,1,0.015748,-0.023622,0.007874*
1,1,0.015748,0.023622,0.007874*
1,1,0.015748,0.023622,-0.007874*
%
%ADD32ROUNDEDRECTD32*%
%ADD33O,0.062992X0.031496*%
%TA.AperFunction,Conductor*%
%ADD34C,0.010000*%
%ADD35C,0.040000*%
%ADD36C,0.020000*%
%ADD37C,0.030000*%
%ADD38C,0.100000*%
%TA.AperFunction,NonConductor*%
%ADD39C,0.010000*%
%TA.AperFunction,ComponentPad*%
G04:AMPARAMS|DCode=40|XSize=86.614mil|YSize=118.11mil|CornerRadius=21.654mil|HoleSize=0mil|Usage=FLASHONLY|Rotation=270.000|XOffset=0mil|YOffset=0mil|HoleType=Round|Shape=RoundedRectangle|*
%AMROUNDEDRECTD40*
21,1,0.086614,0.074803,0,0,270.0*
21,1,0.043307,0.118110,0,0,270.0*
1,1,0.043307,-0.037401,-0.021654*
1,1,0.043307,-0.037401,0.021654*
1,1,0.043307,0.037401,0.021654*
1,1,0.043307,0.037401,-0.021654*
%
%ADD40ROUNDEDRECTD40*%
%ADD41R,0.110000X0.120000*%
%ADD42O,0.110000X0.120000*%
%ADD43C,0.060000*%
%ADD44R,0.060000X0.060000*%
%ADD45C,0.059055*%
G04:AMPARAMS|DCode=46|XSize=59.055mil|YSize=59.055mil|CornerRadius=14.764mil|HoleSize=0mil|Usage=FLASHONLY|Rotation=0.000|XOffset=0mil|YOffset=0mil|HoleType=Round|Shape=RoundedRectangle|*
%AMROUNDEDRECTD46*
21,1,0.059055,0.029527,0,0,0.0*
21,1,0.029527,0.059055,0,0,0.0*
1,1,0.029528,0.014764,-0.014764*
1,1,0.029528,-0.014764,-0.014764*
1,1,0.029528,-0.014764,0.014764*
1,1,0.029528,0.014764,0.014764*
%
%ADD46ROUNDEDRECTD46*%
%ADD47C,0.094488*%
%ADD48C,0.125984*%
%ADD49R,0.060000X0.060000*%
%ADD50O,0.075000X0.065000*%
%ADD51C,0.076772*%
%ADD52R,0.076772X0.076772*%
%ADD53R,0.051496X0.051496*%
%ADD54C,0.051496*%
%TA.AperFunction,ViaPad*%
%ADD55C,0.020000*%
%ADD56C,0.216535*%
G36*
X5341640Y3230559D02*
X5352235Y3226170D01*
X5361334Y3219189D01*
X5368315Y3210090D01*
X5372704Y3199495D01*
X5374133Y3188638D01*
X5374031Y3188125D01*
Y2540180D01*
X5373871D01*
X5375681Y2521803D01*
X5375792Y2521440D01*
X5371503Y2518870D01*
X5362953Y2527419D01*
X5356338Y2531840D01*
X5348534Y2533392D01*
X5267975D01*
X5265302Y2538392D01*
X5265840Y2539196D01*
X5267392Y2547000D01*
X5267392Y2547001D01*
Y2883972D01*
X5269470Y2884245D01*
X5275733Y2886840D01*
X5281112Y2890967D01*
X5285239Y2896346D01*
X5287833Y2902609D01*
X5288718Y2909331D01*
Y3003819D01*
X5287833Y3010541D01*
X5285239Y3016804D01*
X5281112Y3022183D01*
X5275733Y3026310D01*
X5269470Y3028904D01*
X5262748Y3029789D01*
X5231252D01*
X5224530Y3028904D01*
X5218267Y3026310D01*
X5212888Y3022183D01*
X5208761Y3016804D01*
X5206167Y3010541D01*
X5205282Y3003819D01*
Y2958282D01*
X5090600D01*
Y2958559D01*
X5088908Y2967069D01*
X5084087Y2974284D01*
X5076872Y2979105D01*
X5068362Y2980797D01*
X5044740D01*
X5036230Y2979105D01*
X5029015Y2974284D01*
X5024195Y2967069D01*
X5022502Y2958559D01*
Y2917220D01*
X5024195Y2908710D01*
X5029015Y2901496D01*
X5036230Y2896675D01*
X5044740Y2894982D01*
X5060144D01*
Y2851738D01*
X5058081Y2850360D01*
X5053913Y2844122D01*
X5052449Y2836764D01*
Y2807236D01*
X5053913Y2799878D01*
X5058081Y2793640D01*
X5060144Y2792262D01*
Y2781071D01*
X5058081Y2779693D01*
X5053913Y2773455D01*
X5052449Y2766097D01*
Y2736569D01*
X5053913Y2729211D01*
X5058081Y2722973D01*
X5064319Y2718805D01*
X5065608Y2718549D01*
Y2713451D01*
X5064319Y2713195D01*
X5058081Y2709026D01*
X5053913Y2702789D01*
X5052787Y2697127D01*
X4991551D01*
Y2697764D01*
X4990087Y2705122D01*
X4985919Y2711360D01*
X4983856Y2712738D01*
Y2722762D01*
X4985919Y2724140D01*
X4990087Y2730378D01*
X4991551Y2737736D01*
Y2767264D01*
X4990087Y2774622D01*
X4985919Y2780860D01*
X4985124Y2781391D01*
Y2793109D01*
X4985919Y2793640D01*
X4990087Y2799878D01*
X4991551Y2807236D01*
Y2836764D01*
X4990087Y2844122D01*
X4985919Y2850360D01*
X4985124Y2850891D01*
Y2896437D01*
X4986321Y2896675D01*
X4993536Y2901496D01*
X4998356Y2908710D01*
X5000049Y2917220D01*
Y2958559D01*
X4998356Y2967069D01*
X4993536Y2974284D01*
X4986392Y2979057D01*
Y3131403D01*
X5018657D01*
X5025507Y3132305D01*
X5031891Y3134949D01*
X5037372Y3139155D01*
X5041578Y3144637D01*
X5044222Y3151020D01*
X5045124Y3157870D01*
Y3190350D01*
X5044222Y3197200D01*
X5041578Y3203584D01*
X5037372Y3209065D01*
X5031891Y3213271D01*
X5025507Y3215915D01*
X5018657Y3216817D01*
X4913343D01*
X4906493Y3215915D01*
X4900109Y3213271D01*
X4894628Y3209065D01*
X4890422Y3203584D01*
X4887778Y3197200D01*
X4886876Y3190350D01*
Y3157870D01*
X4887778Y3151020D01*
X4890422Y3144637D01*
X4894628Y3139155D01*
X4900109Y3134949D01*
X4906493Y3132305D01*
X4913343Y3131403D01*
X4945608D01*
Y2979057D01*
X4938464Y2974284D01*
X4933644Y2967069D01*
X4931951Y2958559D01*
Y2917220D01*
X4933644Y2908710D01*
X4938464Y2901496D01*
X4944341Y2897569D01*
Y2852585D01*
X4941010Y2850360D01*
X4936842Y2844122D01*
X4935379Y2836764D01*
Y2807236D01*
X4936842Y2799878D01*
X4941010Y2793640D01*
X4944341Y2791415D01*
Y2783085D01*
X4941010Y2780860D01*
X4936842Y2774622D01*
X4935379Y2767264D01*
Y2737736D01*
X4936842Y2730378D01*
X4941010Y2724140D01*
X4943073Y2722762D01*
Y2712738D01*
X4941010Y2711360D01*
X4936842Y2705122D01*
X4935379Y2697764D01*
Y2668236D01*
X4936842Y2660878D01*
X4941010Y2654640D01*
X4947248Y2650472D01*
X4950242Y2649877D01*
X4950647Y2648636D01*
X4950770Y2644674D01*
X4945005Y2640822D01*
X4940511Y2634096D01*
X4938932Y2626161D01*
Y2610000D01*
X4970000D01*
X5001068D01*
Y2626161D01*
X4999489Y2634096D01*
X4994995Y2640822D01*
X4988269Y2645316D01*
X4982640Y2646436D01*
X4981584Y2651744D01*
X4985919Y2654640D01*
X4990087Y2660878D01*
X4991213Y2666539D01*
X5052449D01*
Y2665903D01*
X5053913Y2658545D01*
X5058081Y2652307D01*
X5062737Y2649196D01*
X5061220Y2644196D01*
X5045806D01*
X5041905Y2643420D01*
X5041904Y2643420D01*
X5039700Y2642506D01*
X5039699Y2642506D01*
X5036392Y2640296D01*
X5034704Y2638608D01*
X5032494Y2635300D01*
X5031580Y2633095D01*
X5030804Y2629193D01*
Y2551210D01*
X5031580Y2547308D01*
X5032950Y2544000D01*
X5035160Y2540692D01*
X5037461Y2538392D01*
X5037396Y2537403D01*
X5035829Y2533392D01*
X4721392D01*
Y2561092D01*
X4728536Y2565866D01*
X4733356Y2573080D01*
X4735049Y2581591D01*
Y2723323D01*
X4733356Y2731833D01*
X4728536Y2739048D01*
X4721321Y2743868D01*
X4712811Y2745561D01*
X4689189D01*
X4680679Y2743868D01*
X4673464Y2739048D01*
X4668644Y2731833D01*
X4666951Y2723323D01*
Y2581591D01*
X4668644Y2573080D01*
X4673464Y2565866D01*
X4680608Y2561092D01*
Y2524716D01*
X4682160Y2516912D01*
X4686581Y2510297D01*
X4694486Y2502392D01*
X4692415Y2497392D01*
X4567858D01*
X4560054Y2495840D01*
X4553439Y2491419D01*
X4547581Y2485561D01*
X4543160Y2478946D01*
X4541608Y2471142D01*
Y2453966D01*
X4539878Y2453622D01*
X4533640Y2449454D01*
X4529472Y2443216D01*
X4528008Y2435858D01*
Y2418142D01*
X4529472Y2410784D01*
X4533640Y2404546D01*
X4539878Y2400378D01*
X4547236Y2398914D01*
X4576764D01*
X4580452Y2399647D01*
X4582915Y2395039D01*
X4576032Y2388157D01*
X4547236D01*
X4539878Y2386693D01*
X4533640Y2382525D01*
X4529472Y2376287D01*
X4528008Y2368929D01*
Y2351213D01*
X4529472Y2343854D01*
X4533640Y2337617D01*
X4539878Y2333448D01*
X4547236Y2331985D01*
X4576764D01*
X4584122Y2333448D01*
X4590360Y2337617D01*
X4594528Y2343854D01*
X4595992Y2351213D01*
Y2364859D01*
X4605793Y2374660D01*
X4609677Y2371473D01*
X4605684Y2365497D01*
X4604106Y2357563D01*
Y2336894D01*
X4605684Y2328959D01*
X4610178Y2322233D01*
X4616904Y2317739D01*
X4624839Y2316161D01*
X4667161D01*
X4675096Y2317739D01*
X4676296Y2318541D01*
X4680706Y2316184D01*
Y2238504D01*
X4660294D01*
Y2248010D01*
X4661955Y2249671D01*
X4665000Y2257022D01*
Y2264978D01*
X4661955Y2272329D01*
X4656329Y2277955D01*
X4648978Y2281000D01*
X4641022D01*
X4633671Y2277955D01*
X4628045Y2272329D01*
X4625000Y2264978D01*
Y2257022D01*
X4628045Y2249671D01*
X4629706Y2248010D01*
Y2238504D01*
X4610294D01*
Y2247010D01*
X4611955Y2248671D01*
X4615000Y2256022D01*
Y2263978D01*
X4611955Y2271329D01*
X4606329Y2276955D01*
X4598978Y2280000D01*
X4591022D01*
X4583671Y2276955D01*
X4578045Y2271329D01*
X4575000Y2263978D01*
Y2256022D01*
X4578045Y2248671D01*
X4579706Y2247010D01*
Y2238504D01*
X4560294D01*
Y2244010D01*
X4561955Y2245671D01*
X4565000Y2253022D01*
Y2260978D01*
X4561955Y2268329D01*
X4556329Y2273955D01*
X4548978Y2277000D01*
X4541022D01*
X4533671Y2273955D01*
X4528045Y2268329D01*
X4525000Y2260978D01*
Y2253022D01*
X4528045Y2245671D01*
X4529706Y2244010D01*
Y2238504D01*
X4517283D01*
Y2159449D01*
X4729706D01*
Y2152294D01*
X4469335D01*
X4449294Y2172335D01*
Y2272289D01*
X4450216Y2272472D01*
X4456454Y2276640D01*
X4460622Y2282878D01*
X4462086Y2290236D01*
Y2319764D01*
X4460622Y2327122D01*
X4456454Y2333360D01*
X4450216Y2337528D01*
X4449294Y2337711D01*
Y2345289D01*
X4450216Y2345472D01*
X4456454Y2349640D01*
X4460622Y2355878D01*
X4462086Y2363236D01*
Y2392764D01*
X4460622Y2400122D01*
X4456454Y2406360D01*
X4450216Y2410528D01*
X4442858Y2411992D01*
X4425142D01*
X4417784Y2410528D01*
X4411546Y2406360D01*
X4407378Y2400122D01*
X4405914Y2392764D01*
Y2363236D01*
X4407378Y2355878D01*
X4411546Y2349640D01*
X4417784Y2345472D01*
X4418706Y2345289D01*
Y2337711D01*
X4417784Y2337528D01*
X4411546Y2333360D01*
X4407378Y2327122D01*
X4405914Y2319764D01*
Y2290236D01*
X4407378Y2282878D01*
X4411546Y2276640D01*
X4417784Y2272472D01*
X4418706Y2272289D01*
Y2166000D01*
X4419870Y2160147D01*
X4423186Y2155186D01*
X4452186Y2126186D01*
X4457147Y2122870D01*
X4463000Y2121706D01*
X4739142D01*
X4744995Y2122870D01*
X4749957Y2126186D01*
X4755814Y2132044D01*
X4759130Y2137005D01*
X4760294Y2142858D01*
Y2159449D01*
X5190000D01*
Y2198976D01*
Y2238504D01*
X5163392D01*
Y2259000D01*
Y2450999D01*
X5163392Y2451000D01*
X5161840Y2458804D01*
X5157419Y2465419D01*
X5157419Y2465419D01*
X5135230Y2487608D01*
X5137301Y2492608D01*
X5340087D01*
X5432115Y2400581D01*
X5438730Y2396160D01*
X5446534Y2394608D01*
X5565553D01*
X5595876Y2364286D01*
Y2245490D01*
X5591014Y2244323D01*
X5589152Y2247978D01*
X5578209Y2263038D01*
X5565046Y2276202D01*
X5549986Y2287144D01*
X5533399Y2295595D01*
X5515694Y2301348D01*
X5497308Y2304260D01*
X5478692D01*
X5460306Y2301348D01*
X5442601Y2295595D01*
X5426014Y2287144D01*
X5410954Y2276202D01*
X5397791Y2263038D01*
X5386848Y2247978D01*
X5378397Y2231391D01*
X5372645Y2213686D01*
X5369732Y2195300D01*
Y2176684D01*
X5372645Y2158298D01*
X5378397Y2140593D01*
X5386848Y2124006D01*
X5397791Y2108946D01*
X5410954Y2095783D01*
X5426014Y2084840D01*
X5442601Y2076389D01*
X5460306Y2070637D01*
X5478692Y2067724D01*
X5497308D01*
X5515694Y2070637D01*
X5533399Y2076389D01*
X5549986Y2084840D01*
X5565046Y2095783D01*
X5578209Y2108946D01*
X5589152Y2124006D01*
X5591014Y2127662D01*
X5595876Y2126494D01*
Y1725714D01*
X5582923Y1712762D01*
X5540505D01*
X5539605Y1714320D01*
X5532950Y1720976D01*
X5524798Y1725682D01*
X5515706Y1728118D01*
X5506294D01*
X5497202Y1725682D01*
X5489050Y1720976D01*
X5482395Y1714320D01*
X5477688Y1706168D01*
X5475252Y1697076D01*
Y1687664D01*
X5477688Y1678572D01*
X5482395Y1670420D01*
X5489050Y1663765D01*
X5497202Y1659058D01*
X5506294Y1656622D01*
X5515706D01*
X5524798Y1659058D01*
X5532950Y1663765D01*
X5539605Y1670420D01*
X5540505Y1671978D01*
X5591370D01*
X5599174Y1673531D01*
X5605789Y1677951D01*
X5627771Y1699933D01*
X5632771Y1697862D01*
X5632771Y905841D01*
X5632873Y905328D01*
X5631444Y894471D01*
X5627055Y883876D01*
X5620074Y874777D01*
X5610975Y867796D01*
X5600380Y863407D01*
X5589523Y861978D01*
X5589010Y862080D01*
X5468065D01*
Y862240D01*
X5449689Y860430D01*
X5432019Y855070D01*
X5415734Y846365D01*
X5401460Y834651D01*
X5389746Y820377D01*
X5381041Y804092D01*
X5375681Y786422D01*
X5373871Y768046D01*
X5374031D01*
Y120093D01*
X5374133Y119580D01*
X5372704Y108723D01*
X5368315Y98128D01*
X5361333Y89029D01*
X5352235Y82048D01*
X5341640Y77659D01*
X5330783Y76230D01*
X5330270Y76332D01*
X330270D01*
X329756Y76230D01*
X318899Y77659D01*
X308304Y82048D01*
X299206Y89029D01*
X292224Y98128D01*
X287836Y108723D01*
X286406Y119580D01*
X286508Y120093D01*
Y768046D01*
X286668D01*
X284858Y786422D01*
X279498Y804092D01*
X270794Y820377D01*
X259079Y834651D01*
X244806Y846365D01*
X228521Y855070D01*
X210851Y860430D01*
X192474Y862240D01*
Y862080D01*
X71529D01*
X71016Y861978D01*
X60159Y863407D01*
X49564Y867796D01*
X40466Y874777D01*
X33484Y883876D01*
X29095Y894471D01*
X27666Y905328D01*
X27768Y905841D01*
X27768Y2397459D01*
X27768Y2402196D01*
X27768Y2402385D01*
X28231Y2407193D01*
X29095Y2413755D01*
X33484Y2424350D01*
X40465Y2433448D01*
X49564Y2440430D01*
X60159Y2444818D01*
X71016Y2446248D01*
X71529Y2446146D01*
X192474D01*
Y2445986D01*
X210850Y2447796D01*
X228520Y2453156D01*
X244805Y2461860D01*
X259079Y2473575D01*
X270793Y2487849D01*
X279498Y2504133D01*
X284858Y2521803D01*
X286668Y2540180D01*
X286508D01*
Y3188125D01*
X286406Y3188638D01*
X287835Y3199495D01*
X292224Y3210090D01*
X299205Y3219189D01*
X308304Y3226170D01*
X318899Y3230559D01*
X325452Y3231421D01*
X330269Y3231886D01*
Y3231886D01*
X330270Y3231886D01*
X1963022D01*
X1965093Y3226886D01*
X1908604Y3170396D01*
X1903795Y3164130D01*
X1900772Y3156832D01*
X1899741Y3149000D01*
Y504432D01*
X1900772Y496600D01*
X1903795Y489302D01*
X1908604Y483035D01*
X1932035Y459604D01*
X1932035Y459604D01*
X1938302Y454795D01*
X1945600Y451772D01*
X1953431Y450741D01*
X2142035D01*
X2147741Y445035D01*
Y322090D01*
X2146370Y320719D01*
X2141166Y311706D01*
X2138472Y301653D01*
Y291245D01*
X2141166Y281192D01*
X2146370Y272178D01*
X2153729Y264819D01*
X2162743Y259615D01*
X2172796Y256921D01*
X2183204D01*
X2193257Y259615D01*
X2202271Y264819D01*
X2209630Y272178D01*
X2214834Y281192D01*
X2217528Y291245D01*
Y301653D01*
X2214834Y311706D01*
X2209630Y320719D01*
X2208259Y322090D01*
Y457568D01*
X2207228Y465400D01*
X2204205Y472698D01*
X2199396Y478965D01*
X2199396Y478965D01*
X2175965Y502396D01*
X2169698Y507205D01*
X2162400Y510228D01*
X2154568Y511259D01*
X1965965D01*
X1960259Y516965D01*
Y3136466D01*
X2003534Y3179741D01*
X3455646D01*
X3469222Y3166166D01*
Y3059626D01*
X3438457D01*
X3430707Y3058606D01*
X3423486Y3055615D01*
X3417285Y3050857D01*
X3412527Y3044656D01*
X3409536Y3037434D01*
X3408516Y3029685D01*
Y2990315D01*
X3409536Y2982566D01*
X3412527Y2975344D01*
X3417285Y2969143D01*
X3423486Y2964385D01*
X3430707Y2961394D01*
X3438457Y2960374D01*
X3469222D01*
Y2755520D01*
X3470253Y2747688D01*
X3473275Y2740390D01*
X3478084Y2734123D01*
X3551268Y2660939D01*
X3557535Y2656130D01*
X3564833Y2653107D01*
X3572665Y2652076D01*
X3840728D01*
X3844236Y2651379D01*
X3873764D01*
X3877272Y2652076D01*
X4015951D01*
Y2581591D01*
X4017644Y2573080D01*
X4019741Y2569941D01*
Y2343000D01*
X4020772Y2335168D01*
X4023795Y2327870D01*
X4028604Y2321604D01*
X4066604Y2283604D01*
X4072870Y2278795D01*
X4080168Y2275772D01*
X4088000Y2274741D01*
X4200994D01*
X4204390Y2272472D01*
X4211748Y2271008D01*
X4229465D01*
X4236823Y2272472D01*
X4243061Y2276640D01*
X4247229Y2282878D01*
X4248692Y2290236D01*
Y2294412D01*
X4249834Y2297168D01*
X4250865Y2305000D01*
X4249834Y2312832D01*
X4248692Y2315588D01*
Y2319764D01*
X4247229Y2327122D01*
X4243061Y2333360D01*
X4236823Y2337528D01*
X4229465Y2338992D01*
X4211748D01*
X4204390Y2337528D01*
X4200994Y2335259D01*
X4100534D01*
X4080259Y2355534D01*
Y2569941D01*
X4082356Y2573080D01*
X4084049Y2581591D01*
Y2723323D01*
X4082356Y2731833D01*
X4077536Y2739048D01*
X4070321Y2743868D01*
X4061811Y2745561D01*
X4038189D01*
X4029679Y2743868D01*
X4022464Y2739048D01*
X4017644Y2731833D01*
X4015951Y2723323D01*
Y2712594D01*
X3585198D01*
X3529739Y2768053D01*
Y2960374D01*
X3560504D01*
X3568253Y2961394D01*
X3575475Y2964385D01*
X3581676Y2969143D01*
X3586434Y2975344D01*
X3589425Y2982566D01*
X3590445Y2990315D01*
Y3029685D01*
X3589425Y3037434D01*
X3586434Y3044656D01*
X3581676Y3050857D01*
X3575475Y3055615D01*
X3568253Y3058606D01*
X3560504Y3059626D01*
X3529739D01*
Y3178699D01*
X3528708Y3186531D01*
X3525685Y3193829D01*
X3520877Y3200096D01*
X3494086Y3226886D01*
X3496158Y3231886D01*
X3984590D01*
X3986659Y3227305D01*
X3986622Y3226886D01*
X3971686Y3214628D01*
X3959367Y3199617D01*
X3950213Y3182491D01*
X3944576Y3163908D01*
X3942673Y3144583D01*
Y3061000D01*
X4150000D01*
X4357327D01*
Y3144583D01*
X4355424Y3163908D01*
X4349787Y3182491D01*
X4340633Y3199617D01*
X4328314Y3214628D01*
X4313378Y3226886D01*
X4313341Y3227305D01*
X4315410Y3231886D01*
X4435590D01*
X4437659Y3227305D01*
X4437622Y3226886D01*
X4422686Y3214628D01*
X4410367Y3199617D01*
X4401213Y3182491D01*
X4395576Y3163908D01*
X4393673Y3144583D01*
Y3061000D01*
X4601000D01*
X4808327D01*
Y3144583D01*
X4806424Y3163908D01*
X4800787Y3182491D01*
X4791633Y3199617D01*
X4779314Y3214628D01*
X4764378Y3226886D01*
X4764341Y3227305D01*
X4766410Y3231886D01*
X5330270D01*
X5330783Y3231988D01*
X5341640Y3230559D01*
D02*
G37*
G36*
X5094098Y2632630D02*
X5096630Y2630098D01*
X5098000Y2626790D01*
Y2625000D01*
Y2550000D01*
Y2548807D01*
X5097087Y2546601D01*
X5095399Y2544913D01*
X5093193Y2544000D01*
X5048210D01*
X5044902Y2545370D01*
X5042370Y2547902D01*
X5041000Y2551210D01*
Y2553000D01*
Y2628000D01*
Y2629193D01*
X5041913Y2631399D01*
X5043601Y2633086D01*
X5045806Y2634000D01*
X5090790D01*
X5094098Y2632630D01*
D02*
G37*
G36*
X5205282Y2909331D02*
X5206167Y2902609D01*
X5208761Y2896346D01*
X5212888Y2890967D01*
X5218267Y2886840D01*
X5224530Y2884245D01*
X5226608Y2883972D01*
Y2555447D01*
X5204553Y2533392D01*
X5105155D01*
X5103834Y2535628D01*
X5103296Y2538392D01*
X5104296Y2539392D01*
X5106506Y2542699D01*
X5106506Y2542700D01*
X5107420Y2544905D01*
X5107420Y2544905D01*
X5108196Y2548806D01*
Y2593097D01*
X5108621Y2595236D01*
Y2624764D01*
X5107158Y2632122D01*
X5106289Y2633423D01*
X5106050Y2634000D01*
X5103839Y2637308D01*
X5103398Y2637749D01*
X5102990Y2638360D01*
X5102379Y2638768D01*
X5101308Y2639839D01*
X5098000Y2642050D01*
X5095829Y2642949D01*
Y2647955D01*
X5096752Y2648139D01*
X5102990Y2652307D01*
X5107158Y2658545D01*
X5108621Y2665903D01*
Y2695430D01*
X5107158Y2702789D01*
X5102990Y2709026D01*
X5096752Y2713195D01*
X5095463Y2713451D01*
Y2718549D01*
X5096752Y2718805D01*
X5102990Y2722973D01*
X5107158Y2729211D01*
X5108621Y2736569D01*
Y2766097D01*
X5107158Y2773455D01*
X5102990Y2779693D01*
X5100927Y2781071D01*
Y2792262D01*
X5102990Y2793640D01*
X5107158Y2799878D01*
X5108621Y2807236D01*
Y2836764D01*
X5107158Y2844122D01*
X5102990Y2850360D01*
X5100927Y2851738D01*
Y2904067D01*
X5099375Y2911871D01*
X5098561Y2913088D01*
X5100918Y2917498D01*
X5205282D01*
Y2909331D01*
D02*
G37*
G36*
X5122608Y2442553D02*
Y2259000D01*
Y2238504D01*
X5110294D01*
Y2351000D01*
X5109130Y2356853D01*
X5105814Y2361814D01*
X5073799Y2393830D01*
X5068837Y2397145D01*
X5062984Y2398310D01*
X5058345D01*
X5056605Y2407058D01*
X5051349Y2414924D01*
X5043483Y2420179D01*
X5034205Y2422025D01*
X5002709D01*
X4996563Y2420802D01*
X4991551Y2425814D01*
X4986589Y2429130D01*
X4980737Y2430294D01*
X4891445D01*
X4890087Y2437122D01*
X4885919Y2443360D01*
X4879681Y2447528D01*
X4872323Y2448992D01*
X4854606D01*
X4847248Y2447528D01*
X4841010Y2443360D01*
X4836842Y2437122D01*
X4835379Y2429764D01*
Y2400236D01*
X4836842Y2392878D01*
X4841010Y2386640D01*
X4847248Y2382472D01*
X4848171Y2382289D01*
Y2371711D01*
X4847248Y2371528D01*
X4841010Y2367360D01*
X4836842Y2361122D01*
X4835379Y2353764D01*
Y2324236D01*
X4836842Y2316878D01*
X4841010Y2310640D01*
X4847248Y2306472D01*
X4854606Y2305008D01*
X4872323D01*
X4879681Y2306472D01*
X4885919Y2310640D01*
X4890087Y2316878D01*
X4891551Y2324236D01*
Y2353764D01*
X4890087Y2361122D01*
X4885919Y2367360D01*
X4879681Y2371528D01*
X4878758Y2371711D01*
Y2382289D01*
X4879681Y2382472D01*
X4885919Y2386640D01*
X4890087Y2392878D01*
X4891445Y2399706D01*
X4974402D01*
X4978463Y2395645D01*
Y2370220D01*
X4980309Y2360942D01*
X4985565Y2353076D01*
X4993430Y2347821D01*
X5002709Y2345975D01*
X5034205D01*
X5043483Y2347821D01*
X5051349Y2353076D01*
X5056506Y2360794D01*
X5057059Y2361503D01*
X5061869Y2362502D01*
X5079706Y2344665D01*
Y2238504D01*
X4860294D01*
Y2249010D01*
X4860955Y2249671D01*
X4864000Y2257022D01*
Y2264978D01*
X4860955Y2272329D01*
X4855329Y2277955D01*
X4847978Y2281000D01*
X4840022D01*
X4832671Y2277955D01*
X4827045Y2272329D01*
X4824000Y2264978D01*
Y2257022D01*
X4827045Y2249671D01*
X4829706Y2247010D01*
Y2238504D01*
X4810294D01*
Y2248010D01*
X4811955Y2249671D01*
X4815000Y2257022D01*
Y2264978D01*
X4811955Y2272329D01*
X4806329Y2277955D01*
X4798978Y2281000D01*
X4791022D01*
X4783671Y2277955D01*
X4778045Y2272329D01*
X4775000Y2264978D01*
Y2257022D01*
X4778045Y2249671D01*
X4779706Y2248010D01*
Y2238504D01*
X4711294D01*
Y2341370D01*
X4710130Y2347223D01*
X4706814Y2352185D01*
X4700957Y2358043D01*
X4695995Y2361358D01*
X4690142Y2362522D01*
X4686908D01*
X4686316Y2365497D01*
X4681822Y2372223D01*
X4675096Y2376718D01*
X4667161Y2378296D01*
X4624839D01*
X4616904Y2376718D01*
X4610929Y2372725D01*
X4607742Y2376609D01*
X4624193Y2393061D01*
X4624839Y2392932D01*
X4667161D01*
X4675096Y2394510D01*
X4681822Y2399005D01*
X4686316Y2405731D01*
X4687894Y2413665D01*
Y2434335D01*
X4686316Y2442269D01*
X4681822Y2448995D01*
X4677911Y2451608D01*
X4679428Y2456608D01*
X4776144D01*
Y2444738D01*
X4774081Y2443360D01*
X4769913Y2437122D01*
X4768449Y2429764D01*
Y2400236D01*
X4769913Y2392878D01*
X4774081Y2386640D01*
X4780319Y2382472D01*
X4787677Y2381008D01*
X4805394D01*
X4812752Y2382472D01*
X4818990Y2386640D01*
X4823158Y2392878D01*
X4824622Y2400236D01*
Y2429764D01*
X4823158Y2437122D01*
X4818990Y2443360D01*
X4816927Y2444738D01*
Y2456608D01*
X5108553D01*
X5122608Y2442553D01*
D02*
G37*
%LPC*%
G36*
X5262748Y3226640D02*
X5252000D01*
Y3158425D01*
X5288718D01*
Y3200669D01*
X5287833Y3207391D01*
X5285239Y3213654D01*
X5281112Y3219033D01*
X5275733Y3223160D01*
X5269470Y3225755D01*
X5262748Y3226640D01*
D02*
G37*
G36*
X5242000D02*
X5231252D01*
X5224530Y3225755D01*
X5218267Y3223160D01*
X5212888Y3219033D01*
X5208761Y3213654D01*
X5206167Y3207391D01*
X5205282Y3200669D01*
Y3158425D01*
X5242000D01*
Y3226640D01*
D02*
G37*
G36*
X1534379Y3150505D02*
X1531843D01*
Y3098261D01*
X1584087D01*
Y3100798D01*
X1580186Y3115357D01*
X1572649Y3128410D01*
X1561991Y3139068D01*
X1548938Y3146604D01*
X1534379Y3150505D01*
D02*
G37*
G36*
X1521843D02*
X1519306D01*
X1504747Y3146604D01*
X1491694Y3139068D01*
X1481036Y3128410D01*
X1473500Y3115357D01*
X1469599Y3100798D01*
Y3098261D01*
X1521843D01*
Y3150505D01*
D02*
G37*
G36*
X5288718Y3148425D02*
X5252000D01*
Y3080211D01*
X5262748D01*
X5269470Y3081096D01*
X5275733Y3083690D01*
X5281112Y3087817D01*
X5285239Y3093196D01*
X5287833Y3099459D01*
X5288718Y3106181D01*
Y3148425D01*
D02*
G37*
G36*
X5242000D02*
X5205282D01*
Y3106181D01*
X5206167Y3099459D01*
X5208761Y3093196D01*
X5212888Y3087817D01*
X5218267Y3083690D01*
X5224530Y3081096D01*
X5231252Y3080211D01*
X5242000D01*
Y3148425D01*
D02*
G37*
G36*
X3151000Y3129000D02*
X3091000D01*
Y3064000D01*
X3151000D01*
Y3129000D01*
D02*
G37*
G36*
X3081000D02*
X3021000D01*
Y3064000D01*
X3081000D01*
Y3129000D01*
D02*
G37*
G36*
X2751000D02*
X2691000D01*
Y3064000D01*
X2751000D01*
Y3129000D01*
D02*
G37*
G36*
X2681000D02*
X2621000D01*
Y3064000D01*
X2681000D01*
Y3129000D01*
D02*
G37*
G36*
X2491000Y3128822D02*
Y3064000D01*
X2551314D01*
X2550059Y3076742D01*
X2546343Y3088995D01*
X2540307Y3100287D01*
X2532184Y3110184D01*
X2522287Y3118307D01*
X2510995Y3124343D01*
X2498742Y3128059D01*
X2491000Y3128822D01*
D02*
G37*
G36*
X2481000D02*
X2473258Y3128059D01*
X2461005Y3124343D01*
X2449713Y3118307D01*
X2439816Y3110184D01*
X2431693Y3100287D01*
X2425657Y3088995D01*
X2421941Y3076742D01*
X2420686Y3064000D01*
X2481000D01*
Y3128822D01*
D02*
G37*
G36*
X1584087Y3088261D02*
X1531843D01*
Y3036017D01*
X1534379D01*
X1548938Y3039918D01*
X1561991Y3047454D01*
X1572649Y3058113D01*
X1580186Y3071166D01*
X1584087Y3085725D01*
Y3088261D01*
D02*
G37*
G36*
X1521843D02*
X1469599D01*
Y3085725D01*
X1473500Y3071166D01*
X1481036Y3058113D01*
X1491694Y3047454D01*
X1504747Y3039918D01*
X1519306Y3036017D01*
X1521843D01*
Y3088261D01*
D02*
G37*
G36*
X3903024Y3059626D02*
X3847000D01*
Y3015000D01*
X3932965D01*
Y3029685D01*
X3931945Y3037434D01*
X3928953Y3044656D01*
X3924195Y3050857D01*
X3917994Y3055615D01*
X3910773Y3058606D01*
X3903024Y3059626D01*
D02*
G37*
G36*
X3837000D02*
X3780976D01*
X3773227Y3058606D01*
X3766006Y3055615D01*
X3759805Y3050857D01*
X3755047Y3044656D01*
X3752055Y3037434D01*
X3751035Y3029685D01*
Y3015000D01*
X3837000D01*
Y3059626D01*
D02*
G37*
G36*
X2551314Y3054000D02*
X2491000D01*
Y2989178D01*
X2498742Y2989941D01*
X2510995Y2993657D01*
X2522287Y2999693D01*
X2532184Y3007816D01*
X2540307Y3017713D01*
X2546343Y3029005D01*
X2550059Y3041258D01*
X2551314Y3054000D01*
D02*
G37*
G36*
X2481000D02*
X2420686D01*
X2421941Y3041258D01*
X2425657Y3029005D01*
X2431693Y3017713D01*
X2439816Y3007816D01*
X2449713Y2999693D01*
X2461005Y2993657D01*
X2473258Y2989941D01*
X2481000Y2989178D01*
Y3054000D01*
D02*
G37*
G36*
X3151000D02*
X3091000D01*
Y2989000D01*
X3151000D01*
Y3054000D01*
D02*
G37*
G36*
X3081000D02*
X3021000D01*
Y2989000D01*
X3081000D01*
Y3054000D01*
D02*
G37*
G36*
X2751000D02*
X2691000D01*
Y2989000D01*
X2751000D01*
Y3054000D01*
D02*
G37*
G36*
X2681000D02*
X2621000D01*
Y2989000D01*
X2681000D01*
Y3054000D01*
D02*
G37*
G36*
X2886000Y3129314D02*
X2873258Y3128059D01*
X2861005Y3124343D01*
X2849713Y3118307D01*
X2839816Y3110184D01*
X2831693Y3100287D01*
X2825657Y3088995D01*
X2821941Y3076742D01*
X2820686Y3064000D01*
Y3054000D01*
X2821941Y3041258D01*
X2825657Y3029005D01*
X2831693Y3017713D01*
X2839816Y3007816D01*
X2849713Y2999693D01*
X2861005Y2993657D01*
X2873258Y2989941D01*
X2886000Y2988686D01*
X2898742Y2989941D01*
X2910995Y2993657D01*
X2922287Y2999693D01*
X2932184Y3007816D01*
X2940307Y3017713D01*
X2946343Y3029005D01*
X2950059Y3041258D01*
X2951314Y3054000D01*
Y3064000D01*
X2950059Y3076742D01*
X2946343Y3088995D01*
X2940307Y3100287D01*
X2932184Y3110184D01*
X2922287Y3118307D01*
X2910995Y3124343D01*
X2898742Y3128059D01*
X2886000Y3129314D01*
D02*
G37*
G36*
X3932965Y3005000D02*
X3847000D01*
Y2960374D01*
X3903024D01*
X3910773Y2961394D01*
X3917994Y2964385D01*
X3924195Y2969143D01*
X3928953Y2975344D01*
X3931945Y2982566D01*
X3932965Y2990315D01*
Y3005000D01*
D02*
G37*
G36*
X3837000D02*
X3751035D01*
Y2990315D01*
X3752055Y2982566D01*
X3755047Y2975344D01*
X3759805Y2969143D01*
X3766006Y2964385D01*
X3773227Y2961394D01*
X3780976Y2960374D01*
X3837000D01*
Y3005000D01*
D02*
G37*
G36*
X4887260Y2980797D02*
X4880449D01*
Y2942889D01*
X4909498D01*
Y2958559D01*
X4907805Y2967069D01*
X4902985Y2974284D01*
X4895770Y2979105D01*
X4887260Y2980797D01*
D02*
G37*
G36*
X4870449D02*
X4863638D01*
X4855128Y2979105D01*
X4847913Y2974284D01*
X4843092Y2967069D01*
X4841400Y2958559D01*
Y2942889D01*
X4870449D01*
Y2980797D01*
D02*
G37*
G36*
X4909498Y2932889D02*
X4880449D01*
Y2894982D01*
X4887260D01*
X4895770Y2896675D01*
X4902985Y2901496D01*
X4907805Y2908710D01*
X4909498Y2917220D01*
Y2932889D01*
D02*
G37*
G36*
X4870449D02*
X4841400D01*
Y2917220D01*
X4843092Y2908710D01*
X4847913Y2901496D01*
X4855128Y2896675D01*
X4863638Y2894982D01*
X4870449D01*
Y2932889D01*
D02*
G37*
G36*
X4808327Y3051000D02*
X4606000D01*
Y2868358D01*
X4709268D01*
X4728593Y2870261D01*
X4747176Y2875898D01*
X4764302Y2885052D01*
X4779314Y2897372D01*
X4791633Y2912383D01*
X4800787Y2929509D01*
X4806424Y2948092D01*
X4808327Y2967417D01*
Y3051000D01*
D02*
G37*
G36*
X4596000D02*
X4393673D01*
Y2967417D01*
X4395576Y2948092D01*
X4401213Y2929509D01*
X4410367Y2912383D01*
X4422686Y2897372D01*
X4437698Y2885052D01*
X4454824Y2875898D01*
X4473407Y2870261D01*
X4492732Y2868358D01*
X4596000D01*
Y3051000D01*
D02*
G37*
G36*
X4357327D02*
X4155000D01*
Y2868358D01*
X4258268D01*
X4277593Y2870261D01*
X4296176Y2875898D01*
X4313302Y2885052D01*
X4328314Y2897372D01*
X4340633Y2912383D01*
X4349787Y2929509D01*
X4355424Y2948092D01*
X4357327Y2967417D01*
Y3051000D01*
D02*
G37*
G36*
X4145000D02*
X3942673D01*
Y2967417D01*
X3944576Y2948092D01*
X3950213Y2929509D01*
X3959367Y2912383D01*
X3971686Y2897372D01*
X3986698Y2885052D01*
X4003824Y2875898D01*
X4022407Y2870261D01*
X4041732Y2868358D01*
X4145000D01*
Y3051000D01*
D02*
G37*
G36*
X4905394Y2855992D02*
X4901536D01*
Y2827000D01*
X4924622D01*
Y2836764D01*
X4923158Y2844122D01*
X4918990Y2850360D01*
X4912752Y2854528D01*
X4905394Y2855992D01*
D02*
G37*
G36*
X4891536D02*
X4887677D01*
X4880319Y2854528D01*
X4874081Y2850360D01*
X4869913Y2844122D01*
X4868449Y2836764D01*
Y2827000D01*
X4891536D01*
Y2855992D01*
D02*
G37*
G36*
X4924622Y2817000D02*
X4896536D01*
X4868449D01*
Y2807236D01*
X4869913Y2799878D01*
X4874081Y2793640D01*
X4879565Y2789976D01*
X4879980Y2787250D01*
X4879565Y2784524D01*
X4874081Y2780860D01*
X4869913Y2774622D01*
X4868449Y2767264D01*
Y2757500D01*
X4896536D01*
X4924622D01*
Y2767264D01*
X4923158Y2774622D01*
X4918990Y2780860D01*
X4913506Y2784524D01*
X4913091Y2787250D01*
X4913506Y2789976D01*
X4918990Y2793640D01*
X4923158Y2799878D01*
X4924622Y2807236D01*
Y2817000D01*
D02*
G37*
G36*
X4502607Y2745803D02*
X4404607Y2745802D01*
X4401424Y2745802D01*
X4397523Y2745026D01*
X4391641Y2742590D01*
X4388334Y2740380D01*
X4383833Y2735879D01*
X4381623Y2732572D01*
X4379829Y2728242D01*
X4379573Y2726954D01*
X4379146Y2725712D01*
X4378503Y2720978D01*
X4378546Y2720286D01*
X4378411Y2719606D01*
X4378411Y2625459D01*
X4349047Y2596095D01*
X4343521Y2587825D01*
X4341581Y2578071D01*
Y2486025D01*
X4245408D01*
X4243712Y2487158D01*
X4236354Y2488621D01*
X4206827D01*
X4199469Y2487158D01*
X4193231Y2482990D01*
X4189063Y2476752D01*
X4187599Y2469394D01*
Y2451677D01*
X4189063Y2444319D01*
X4193231Y2438081D01*
X4195609Y2436492D01*
Y2402553D01*
X4193984Y2400122D01*
X4192520Y2392764D01*
Y2363236D01*
X4193984Y2355878D01*
X4198152Y2349640D01*
X4204390Y2345472D01*
X4211748Y2344008D01*
X4229465D01*
X4236823Y2345472D01*
X4243061Y2349640D01*
X4247229Y2355878D01*
X4248692Y2363236D01*
Y2392764D01*
X4247229Y2400122D01*
X4246588Y2401081D01*
Y2435046D01*
X4339222D01*
X4340449Y2428878D01*
X4344617Y2422640D01*
X4350855Y2418472D01*
X4358213Y2417008D01*
X4375929D01*
X4383287Y2418472D01*
X4389525Y2422640D01*
X4393693Y2428878D01*
X4395157Y2436236D01*
Y2465764D01*
X4393693Y2473122D01*
X4392561Y2474817D01*
Y2558410D01*
X4392663Y2558478D01*
X4397561Y2561020D01*
X4400623Y2560411D01*
X4403607Y2560411D01*
X4483868Y2560411D01*
X4489189Y2559352D01*
X4512811D01*
X4521321Y2561045D01*
X4528536Y2565866D01*
X4529934Y2567957D01*
X4530141Y2568165D01*
X4530141Y2568165D01*
X4531463Y2570143D01*
X4532351Y2571473D01*
X4532352Y2571473D01*
X4532352Y2571473D01*
X4532465Y2571745D01*
X4533356Y2573080D01*
X4533670Y2574655D01*
X4534026Y2575516D01*
X4534026Y2575516D01*
X4534027Y2575517D01*
X4534381Y2577301D01*
X4534802Y2579418D01*
X4534802Y2579418D01*
X4534802Y2579418D01*
Y2580350D01*
X4535049Y2581591D01*
Y2723323D01*
X4534765Y2724752D01*
X4534697Y2726488D01*
X4534697Y2726489D01*
X4534697Y2726491D01*
X4534209Y2728522D01*
X4533769Y2730356D01*
X4533768Y2730357D01*
X4533768Y2730359D01*
X4533560Y2730809D01*
X4533356Y2731833D01*
X4532489Y2733131D01*
X4531682Y2734880D01*
X4531681Y2734881D01*
X4531681Y2734883D01*
X4530505Y2736500D01*
X4529343Y2738098D01*
X4529342Y2738099D01*
X4529341Y2738100D01*
X4528891Y2738515D01*
X4528536Y2739048D01*
X4527738Y2739581D01*
X4525684Y2741478D01*
X4525682Y2741479D01*
X4525681Y2741480D01*
X4524094Y2742451D01*
X4522291Y2743555D01*
X4522288Y2743555D01*
X4522287Y2743556D01*
X4519704Y2744506D01*
X4518657Y2744671D01*
X4517657Y2745027D01*
X4513082Y2745695D01*
X4512338Y2745657D01*
X4511606Y2745802D01*
X4502607Y2745803D01*
D02*
G37*
G36*
X1534032Y2832001D02*
X1519653D01*
X1505552Y2829196D01*
X1492268Y2823694D01*
X1480313Y2815706D01*
X1470146Y2805539D01*
X1462158Y2793584D01*
X1456656Y2780300D01*
X1453851Y2766198D01*
Y2751820D01*
X1456656Y2737718D01*
X1462158Y2724434D01*
X1470146Y2712479D01*
X1480313Y2702312D01*
X1492268Y2694324D01*
X1505552Y2688822D01*
X1519653Y2686017D01*
X1534032D01*
X1548134Y2688822D01*
X1561417Y2694324D01*
X1573372Y2702312D01*
X1583539Y2712479D01*
X1591527Y2724434D01*
X1597030Y2737718D01*
X1599835Y2751820D01*
Y2766198D01*
X1597030Y2780300D01*
X1591527Y2793584D01*
X1583539Y2805539D01*
X1573372Y2815706D01*
X1561417Y2823694D01*
X1548134Y2829196D01*
X1534032Y2832001D01*
D02*
G37*
G36*
X774189D02*
X759811D01*
X745709Y2829196D01*
X732425Y2823694D01*
X720470Y2815706D01*
X710303Y2805539D01*
X702315Y2793584D01*
X696813Y2780300D01*
X694008Y2766198D01*
Y2751820D01*
X696813Y2737718D01*
X702315Y2724434D01*
X710303Y2712479D01*
X720470Y2702312D01*
X732425Y2694324D01*
X745709Y2688822D01*
X759811Y2686017D01*
X774189D01*
X788291Y2688822D01*
X801575Y2694324D01*
X813530Y2702312D01*
X823697Y2712479D01*
X831685Y2724434D01*
X837187Y2737718D01*
X839992Y2751820D01*
Y2766198D01*
X837187Y2780300D01*
X831685Y2793584D01*
X823697Y2805539D01*
X813530Y2815706D01*
X801575Y2823694D01*
X788291Y2829196D01*
X774189Y2832001D01*
D02*
G37*
G36*
X3873764Y2640622D02*
X3864000D01*
Y2617535D01*
X3892992D01*
Y2621394D01*
X3891528Y2628752D01*
X3887360Y2634990D01*
X3881122Y2639158D01*
X3873764Y2640622D01*
D02*
G37*
G36*
X3854000D02*
X3844236D01*
X3836878Y2639158D01*
X3830640Y2634990D01*
X3826472Y2628752D01*
X3825008Y2621394D01*
Y2617535D01*
X3854000D01*
Y2640622D01*
D02*
G37*
G36*
X3892992Y2607535D02*
X3864000D01*
Y2584450D01*
X3873764D01*
X3881122Y2585913D01*
X3887360Y2590081D01*
X3891528Y2596319D01*
X3892992Y2603677D01*
Y2607535D01*
D02*
G37*
G36*
X3854000D02*
X3825008D01*
Y2603677D01*
X3826472Y2596319D01*
X3830640Y2590081D01*
X3836878Y2585913D01*
X3844236Y2584450D01*
X3854000D01*
Y2607535D01*
D02*
G37*
G36*
X5001068Y2600000D02*
X4975000D01*
Y2563106D01*
X4980335D01*
X4988269Y2564684D01*
X4994995Y2569178D01*
X4999489Y2575904D01*
X5001068Y2583839D01*
Y2600000D01*
D02*
G37*
G36*
X4965000D02*
X4938932D01*
Y2583839D01*
X4940511Y2575904D01*
X4945005Y2569178D01*
X4951731Y2564684D01*
X4959665Y2563106D01*
X4965000D01*
Y2600000D01*
D02*
G37*
G36*
X4924622Y2747500D02*
X4896536D01*
X4868449D01*
Y2737736D01*
X4869913Y2730378D01*
X4874081Y2724140D01*
X4879565Y2720476D01*
X4879980Y2717750D01*
X4879565Y2715024D01*
X4874081Y2711360D01*
X4869913Y2705122D01*
X4868449Y2697764D01*
Y2668236D01*
X4869913Y2660878D01*
X4874081Y2654640D01*
X4879588Y2650961D01*
Y2646237D01*
X4874959Y2645316D01*
X4868233Y2640822D01*
X4863739Y2634096D01*
X4862161Y2626161D01*
Y2583839D01*
X4863739Y2575904D01*
X4868233Y2569178D01*
X4874959Y2564684D01*
X4882894Y2563106D01*
X4903563D01*
X4911497Y2564684D01*
X4918223Y2569178D01*
X4922718Y2575904D01*
X4924296Y2583839D01*
Y2626161D01*
X4922718Y2634096D01*
X4918223Y2640822D01*
X4911718Y2645169D01*
X4911577Y2646146D01*
X4911979Y2650318D01*
X4912752Y2650472D01*
X4918990Y2654640D01*
X4923158Y2660878D01*
X4924622Y2668236D01*
Y2697764D01*
X4923158Y2705122D01*
X4918990Y2711360D01*
X4913506Y2715024D01*
X4913091Y2717750D01*
X4913506Y2720476D01*
X4918990Y2724140D01*
X4923158Y2730378D01*
X4924622Y2737736D01*
Y2747500D01*
D02*
G37*
G36*
X4261811Y2745561D02*
X4238189D01*
X4229679Y2743868D01*
X4222464Y2739048D01*
X4217644Y2731833D01*
X4215951Y2723323D01*
Y2597566D01*
X4203614Y2585230D01*
X4198089Y2576960D01*
X4196149Y2567206D01*
Y2551868D01*
X4193231Y2549919D01*
X4189063Y2543681D01*
X4187599Y2536323D01*
Y2518606D01*
X4189063Y2511248D01*
X4193231Y2505010D01*
X4199469Y2500842D01*
X4206827Y2499378D01*
X4236354D01*
X4243712Y2500842D01*
X4249950Y2505010D01*
X4254118Y2511248D01*
X4255582Y2518606D01*
Y2536323D01*
X4254118Y2543681D01*
X4249950Y2549919D01*
X4247128Y2551805D01*
Y2556648D01*
X4249833Y2559352D01*
X4261811D01*
X4270321Y2561045D01*
X4277536Y2565866D01*
X4282356Y2573080D01*
X4284049Y2581591D01*
Y2723323D01*
X4282356Y2731833D01*
X4277536Y2739048D01*
X4270321Y2743868D01*
X4261811Y2745561D01*
D02*
G37*
G36*
X4442858Y2484992D02*
X4439000D01*
Y2456000D01*
X4462086D01*
Y2465764D01*
X4460622Y2473122D01*
X4456454Y2479360D01*
X4450216Y2483528D01*
X4442858Y2484992D01*
D02*
G37*
G36*
X4429000D02*
X4425142D01*
X4417784Y2483528D01*
X4411546Y2479360D01*
X4407378Y2473122D01*
X4405914Y2465764D01*
Y2456000D01*
X4429000D01*
Y2484992D01*
D02*
G37*
G36*
X2366929Y2456992D02*
X2349213D01*
X2341854Y2455528D01*
X2338459Y2453259D01*
X2292148D01*
X2288752Y2455528D01*
X2281394Y2456992D01*
X2263677D01*
X2256319Y2455528D01*
X2250081Y2451360D01*
X2245913Y2445122D01*
X2244450Y2437764D01*
Y2433588D01*
X2243308Y2430832D01*
X2242277Y2423000D01*
X2243308Y2415168D01*
X2244450Y2412412D01*
Y2408236D01*
X2245913Y2400878D01*
X2250081Y2394640D01*
X2256319Y2390472D01*
X2263677Y2389008D01*
X2281394D01*
X2288752Y2390472D01*
X2292148Y2392741D01*
X2338459D01*
X2341854Y2390472D01*
X2349213Y2389008D01*
X2366929D01*
X2374287Y2390472D01*
X2380525Y2394640D01*
X2384693Y2400878D01*
X2386157Y2408236D01*
Y2412412D01*
X2387299Y2415168D01*
X2388330Y2423000D01*
X2387299Y2430832D01*
X2386157Y2433588D01*
Y2437764D01*
X2384693Y2445122D01*
X2380525Y2451360D01*
X2374287Y2455528D01*
X2366929Y2456992D01*
D02*
G37*
G36*
X3623266Y2481000D02*
X3623000D01*
Y2446000D01*
X3658000D01*
Y2446266D01*
X3655274Y2456439D01*
X3650008Y2465561D01*
X3642561Y2473008D01*
X3633439Y2478274D01*
X3623266Y2481000D01*
D02*
G37*
G36*
X3613000D02*
X3612734D01*
X3602561Y2478274D01*
X3593439Y2473008D01*
X3585992Y2465561D01*
X3580726Y2456439D01*
X3578000Y2446266D01*
Y2446000D01*
X3613000D01*
Y2481000D01*
D02*
G37*
G36*
X4462086Y2446000D02*
X4439000D01*
Y2417008D01*
X4442858D01*
X4450216Y2418472D01*
X4456454Y2422640D01*
X4460622Y2428878D01*
X4462086Y2436236D01*
Y2446000D01*
D02*
G37*
G36*
X4429000D02*
X4405914D01*
Y2436236D01*
X4407378Y2428878D01*
X4411546Y2422640D01*
X4417784Y2418472D01*
X4425142Y2417008D01*
X4429000D01*
Y2446000D01*
D02*
G37*
G36*
X3958000Y2481000D02*
X3878000D01*
Y2401000D01*
X3958000D01*
Y2481000D01*
D02*
G37*
G36*
X3823266D02*
X3812734D01*
X3802561Y2478274D01*
X3793439Y2473008D01*
X3785992Y2465561D01*
X3780726Y2456439D01*
X3778000Y2446266D01*
Y2435734D01*
X3780726Y2425561D01*
X3785992Y2416439D01*
X3793439Y2408992D01*
X3802561Y2403726D01*
X3812734Y2401000D01*
X3823266D01*
X3833439Y2403726D01*
X3842561Y2408992D01*
X3850008Y2416439D01*
X3855274Y2425561D01*
X3858000Y2435734D01*
Y2446266D01*
X3855274Y2456439D01*
X3850008Y2465561D01*
X3842561Y2473008D01*
X3833439Y2478274D01*
X3823266Y2481000D01*
D02*
G37*
G36*
X3723266D02*
X3712734D01*
X3702561Y2478274D01*
X3693439Y2473008D01*
X3685992Y2465561D01*
X3680726Y2456439D01*
X3678000Y2446266D01*
Y2435734D01*
X3680726Y2425561D01*
X3685992Y2416439D01*
X3693439Y2408992D01*
X3702561Y2403726D01*
X3712734Y2401000D01*
X3723266D01*
X3733439Y2403726D01*
X3742561Y2408992D01*
X3750008Y2416439D01*
X3755274Y2425561D01*
X3758000Y2435734D01*
Y2446266D01*
X3755274Y2456439D01*
X3750008Y2465561D01*
X3742561Y2473008D01*
X3733439Y2478274D01*
X3723266Y2481000D01*
D02*
G37*
G36*
X3658000Y2436000D02*
X3623000D01*
Y2401000D01*
X3623266D01*
X3633439Y2403726D01*
X3642561Y2408992D01*
X3650008Y2416439D01*
X3655274Y2425561D01*
X3658000Y2435734D01*
Y2436000D01*
D02*
G37*
G36*
X3613000D02*
X3578000D01*
Y2435734D01*
X3580726Y2425561D01*
X3585992Y2416439D01*
X3593439Y2408992D01*
X3602561Y2403726D01*
X3612734Y2401000D01*
X3613000D01*
Y2436000D01*
D02*
G37*
G36*
X4375929Y2411992D02*
X4358213D01*
X4350855Y2410528D01*
X4344617Y2406360D01*
X4340449Y2400122D01*
X4339090Y2393294D01*
X4315516D01*
X4314158Y2400122D01*
X4309990Y2406360D01*
X4303752Y2410528D01*
X4296394Y2411992D01*
X4278677D01*
X4271319Y2410528D01*
X4265081Y2406360D01*
X4260913Y2400122D01*
X4259449Y2392764D01*
Y2363236D01*
X4260913Y2355878D01*
X4265081Y2349640D01*
X4269706Y2346550D01*
Y2336450D01*
X4265081Y2333360D01*
X4260913Y2327122D01*
X4259449Y2319764D01*
Y2290236D01*
X4260913Y2282878D01*
X4265081Y2276640D01*
X4271319Y2272472D01*
X4278677Y2271008D01*
X4296394D01*
X4303752Y2272472D01*
X4309990Y2276640D01*
X4314158Y2282878D01*
X4315622Y2290236D01*
Y2319764D01*
X4314158Y2327122D01*
X4309990Y2333360D01*
X4303752Y2337528D01*
X4300294Y2338216D01*
Y2344784D01*
X4303752Y2345472D01*
X4309990Y2349640D01*
X4314158Y2355878D01*
X4315516Y2362706D01*
X4339090D01*
X4340449Y2355878D01*
X4344617Y2349640D01*
X4350855Y2345472D01*
X4358213Y2344008D01*
X4375929D01*
X4383287Y2345472D01*
X4389525Y2349640D01*
X4393693Y2355878D01*
X4395157Y2363236D01*
Y2392764D01*
X4393693Y2400122D01*
X4389525Y2406360D01*
X4383287Y2410528D01*
X4375929Y2411992D01*
D02*
G37*
G36*
X5341291Y2422025D02*
X5330543D01*
Y2389000D01*
X5365537D01*
Y2397780D01*
X5363691Y2407058D01*
X5358435Y2414924D01*
X5350570Y2420179D01*
X5341291Y2422025D01*
D02*
G37*
G36*
X5320543D02*
X5309795D01*
X5300517Y2420179D01*
X5292651Y2414924D01*
X5287395Y2407058D01*
X5285550Y2397780D01*
Y2389000D01*
X5320543D01*
Y2422025D01*
D02*
G37*
G36*
X5365537Y2379000D02*
X5330543D01*
Y2345975D01*
X5341291D01*
X5350570Y2347821D01*
X5358435Y2353076D01*
X5363691Y2360942D01*
X5365537Y2370220D01*
Y2379000D01*
D02*
G37*
G36*
X5320543D02*
X5285550D01*
Y2370220D01*
X5287395Y2360942D01*
X5292651Y2353076D01*
X5300517Y2347821D01*
X5309795Y2345975D01*
X5320543D01*
Y2379000D01*
D02*
G37*
G36*
X4375929Y2338992D02*
X4372071D01*
Y2310000D01*
X4395157D01*
Y2319764D01*
X4393693Y2327122D01*
X4389525Y2333360D01*
X4383287Y2337528D01*
X4375929Y2338992D01*
D02*
G37*
G36*
X4362071D02*
X4358213D01*
X4350855Y2337528D01*
X4344617Y2333360D01*
X4340449Y2327122D01*
X4338985Y2319764D01*
Y2310000D01*
X4362071D01*
Y2338992D01*
D02*
G37*
G36*
X2286000Y3129314D02*
X2273258Y3128059D01*
X2261005Y3124343D01*
X2249713Y3118307D01*
X2239816Y3110184D01*
X2231693Y3100287D01*
X2225657Y3088995D01*
X2221941Y3076742D01*
X2220686Y3064000D01*
Y3054000D01*
X2221941Y3041258D01*
X2225657Y3029005D01*
X2231693Y3017713D01*
X2239816Y3007816D01*
X2249713Y2999693D01*
X2255741Y2996471D01*
Y2857000D01*
X2256772Y2849168D01*
X2259795Y2841870D01*
X2264604Y2835604D01*
X2367725Y2732482D01*
Y2654095D01*
X2360425D01*
Y2495905D01*
X2392751D01*
X2394741Y2493915D01*
Y2366458D01*
X2353835D01*
X2347113Y2365573D01*
X2340849Y2362979D01*
X2335471Y2358852D01*
X2331344Y2353473D01*
X2328749Y2347210D01*
X2327864Y2340488D01*
Y2308992D01*
X2328749Y2302271D01*
X2331344Y2296007D01*
X2335471Y2290628D01*
X2340849Y2286501D01*
X2347113Y2283907D01*
X2353835Y2283022D01*
X2458165D01*
X2464887Y2283907D01*
X2471151Y2286501D01*
X2476529Y2290628D01*
X2480656Y2296007D01*
X2483251Y2302271D01*
X2484136Y2308992D01*
Y2340488D01*
X2483251Y2347210D01*
X2480656Y2353473D01*
X2476529Y2358852D01*
X2471151Y2362979D01*
X2464887Y2365573D01*
X2458165Y2366458D01*
X2455259D01*
Y2506449D01*
X2454228Y2514280D01*
X2451205Y2521578D01*
X2446396Y2527845D01*
X2435802Y2538439D01*
Y2567440D01*
X2435802Y2567441D01*
X2435543Y2569409D01*
Y2654095D01*
X2428243D01*
Y2745016D01*
X2427212Y2752847D01*
X2424189Y2760145D01*
X2419381Y2766412D01*
X2316259Y2869534D01*
Y2996471D01*
X2322287Y2999693D01*
X2332184Y3007816D01*
X2340307Y3017713D01*
X2346343Y3029005D01*
X2350059Y3041258D01*
X2351314Y3054000D01*
Y3064000D01*
X2350059Y3076742D01*
X2346343Y3088995D01*
X2340307Y3100287D01*
X2332184Y3110184D01*
X2322287Y3118307D01*
X2310995Y3124343D01*
X2298742Y3128059D01*
X2286000Y3129314D01*
D02*
G37*
G36*
X2151000Y3129000D02*
X2021000D01*
Y2989000D01*
X2055741D01*
Y2844000D01*
X2056772Y2836168D01*
X2059795Y2828870D01*
X2064604Y2822604D01*
X2205757Y2681451D01*
Y2654095D01*
X2198457D01*
Y2538698D01*
X2184210Y2524452D01*
X2179401Y2518185D01*
X2176378Y2510887D01*
X2175347Y2503055D01*
Y2423000D01*
Y2366458D01*
X2174835D01*
X2168113Y2365573D01*
X2161849Y2362979D01*
X2156471Y2358852D01*
X2152344Y2353473D01*
X2149749Y2347210D01*
X2148864Y2340488D01*
Y2308992D01*
X2149749Y2302271D01*
X2152344Y2296007D01*
X2156471Y2290628D01*
X2161849Y2286501D01*
X2168113Y2283907D01*
X2174835Y2283022D01*
X2279165D01*
X2285887Y2283907D01*
X2292151Y2286501D01*
X2297529Y2290628D01*
X2301656Y2296007D01*
X2304251Y2302271D01*
X2305136Y2308992D01*
Y2340488D01*
X2304251Y2347210D01*
X2301656Y2353473D01*
X2297529Y2358852D01*
X2292151Y2362979D01*
X2285887Y2365573D01*
X2279165Y2366458D01*
X2235865D01*
Y2423000D01*
Y2490522D01*
X2241249Y2495905D01*
X2273575D01*
Y2654095D01*
X2266275D01*
Y2693984D01*
X2265244Y2701816D01*
X2262221Y2709114D01*
X2257412Y2715381D01*
X2257412Y2715381D01*
X2116259Y2856534D01*
Y2989000D01*
X2151000D01*
Y3129000D01*
D02*
G37*
G36*
X3214500Y2297500D02*
X3176000D01*
Y2282000D01*
X3214500D01*
Y2297500D01*
D02*
G37*
G36*
X3166000D02*
X3127500D01*
Y2282000D01*
X3166000D01*
Y2297500D01*
D02*
G37*
G36*
X4395157Y2300000D02*
X4372071D01*
Y2271008D01*
X4375929D01*
X4383287Y2272472D01*
X4389525Y2276640D01*
X4393693Y2282878D01*
X4395157Y2290236D01*
Y2300000D01*
D02*
G37*
G36*
X4362071D02*
X4338985D01*
Y2290236D01*
X4340449Y2282878D01*
X4344617Y2276640D01*
X4350855Y2272472D01*
X4358213Y2271008D01*
X4362071D01*
Y2300000D01*
D02*
G37*
G36*
X3214500Y2272000D02*
X3176000D01*
Y2256500D01*
X3214500D01*
Y2272000D01*
D02*
G37*
G36*
X3166000D02*
X3127500D01*
Y2256500D01*
X3166000D01*
Y2272000D01*
D02*
G37*
G36*
X3214500Y2247500D02*
X3127500D01*
Y2206500D01*
X3214500D01*
Y2247500D01*
D02*
G37*
G36*
X3010500D02*
X2923500D01*
Y2242294D01*
X2811000D01*
X2805147Y2241130D01*
X2800186Y2237814D01*
X2771186Y2208814D01*
X2767870Y2203853D01*
X2766706Y2198000D01*
Y2013000D01*
X2767870Y2007147D01*
X2771186Y2002186D01*
X2782460Y1990911D01*
X2785045Y1984671D01*
X2790671Y1979045D01*
X2798022Y1976000D01*
X2805978D01*
X2813329Y1979045D01*
X2816140Y1981856D01*
X2821490Y1981497D01*
X2824334Y1977239D01*
X2830246Y1973289D01*
X2837220Y1971902D01*
X2884465D01*
X2891439Y1973289D01*
X2897351Y1977239D01*
X2901302Y1983152D01*
X2902689Y1990126D01*
Y2005874D01*
X2902420Y2007225D01*
X2905544Y2009297D01*
X2906983Y2009916D01*
X2914022Y2007000D01*
X2921978D01*
X2922456Y2007198D01*
X2923500Y2006500D01*
Y2006500D01*
X3010500D01*
Y2047500D01*
X2923500D01*
Y2047500D01*
X2922456Y2046802D01*
X2921978Y2047000D01*
X2914022D01*
X2907095Y2044131D01*
X2905173Y2044935D01*
X2902396Y2046752D01*
X2902561Y2048000D01*
X2901676Y2054722D01*
X2899081Y2060985D01*
X2894954Y2066364D01*
X2889909Y2070235D01*
X2889554Y2072919D01*
Y2073081D01*
X2889909Y2075765D01*
X2894906Y2079599D01*
X2908320Y2066186D01*
X2913282Y2062870D01*
X2919134Y2061706D01*
X2923500D01*
Y2056500D01*
X3010500D01*
Y2097500D01*
X2923500D01*
X2923500Y2097500D01*
Y2097500D01*
X2918910Y2098853D01*
X2909919Y2107844D01*
X2904957Y2111160D01*
X2899105Y2112324D01*
X2898054D01*
X2894954Y2116364D01*
X2889909Y2120235D01*
X2889554Y2122919D01*
Y2123081D01*
X2889909Y2125765D01*
X2894954Y2129636D01*
X2899081Y2135015D01*
X2901676Y2141278D01*
X2902561Y2148000D01*
X2902056Y2151836D01*
X2906219Y2156000D01*
X2912978D01*
X2918500Y2158287D01*
X2923500Y2156500D01*
Y2156500D01*
X3010500D01*
Y2197500D01*
X2923500D01*
Y2196642D01*
X2922994Y2196054D01*
X2918500Y2193713D01*
X2912978Y2196000D01*
X2905022D01*
X2897671Y2192955D01*
X2892045Y2187329D01*
X2890457Y2183495D01*
X2880427Y2173465D01*
X2876590Y2173970D01*
X2845095D01*
X2838373Y2173085D01*
X2832109Y2170491D01*
X2826731Y2166364D01*
X2822604Y2160985D01*
X2820009Y2154722D01*
X2819124Y2148000D01*
X2820009Y2141278D01*
X2822604Y2135015D01*
X2826731Y2129636D01*
X2831776Y2125765D01*
X2832131Y2123081D01*
Y2122919D01*
X2831776Y2120235D01*
X2826731Y2116364D01*
X2822604Y2110985D01*
X2820009Y2104722D01*
X2819124Y2098000D01*
X2820009Y2091278D01*
X2822604Y2085015D01*
X2826731Y2079636D01*
X2831776Y2075765D01*
X2832131Y2073081D01*
Y2072919D01*
X2831776Y2070235D01*
X2826731Y2066364D01*
X2822604Y2060985D01*
X2820009Y2054722D01*
X2819124Y2048000D01*
X2820009Y2041278D01*
X2822604Y2035015D01*
X2826731Y2029636D01*
X2829346Y2027630D01*
X2829581Y2026343D01*
X2828801Y2021745D01*
X2824334Y2018761D01*
X2820681Y2013294D01*
X2812511D01*
X2805978Y2016000D01*
X2800629D01*
X2797294Y2019335D01*
Y2191665D01*
X2817335Y2211706D01*
X2923500D01*
Y2206500D01*
X3010500D01*
Y2247500D01*
D02*
G37*
G36*
X5222717Y2238504D02*
X5200000D01*
Y2203976D01*
X5222717D01*
Y2238504D01*
D02*
G37*
G36*
Y2193976D02*
X5200000D01*
Y2159449D01*
X5222717D01*
Y2193976D01*
D02*
G37*
G36*
X3214500Y2197500D02*
X3127500D01*
Y2156500D01*
X3214500D01*
Y2197500D01*
D02*
G37*
G36*
X2656905Y2173970D02*
X2646158D01*
Y2153000D01*
X2682217D01*
X2681991Y2154722D01*
X2679396Y2160985D01*
X2675269Y2166364D01*
X2669891Y2170491D01*
X2663627Y2173085D01*
X2656905Y2173970D01*
D02*
G37*
G36*
X2636158D02*
X2625410D01*
X2618688Y2173085D01*
X2612424Y2170491D01*
X2607046Y2166364D01*
X2602919Y2160985D01*
X2600324Y2154722D01*
X2600098Y2153000D01*
X2636158D01*
Y2173970D01*
D02*
G37*
G36*
X3286000Y3129314D02*
X3273258Y3128059D01*
X3261005Y3124343D01*
X3249713Y3118307D01*
X3239816Y3110184D01*
X3231693Y3100287D01*
X3225657Y3088995D01*
X3221941Y3076742D01*
X3220686Y3064000D01*
Y3054000D01*
X3221941Y3041258D01*
X3225657Y3029005D01*
X3231693Y3017713D01*
X3239816Y3007816D01*
X3249713Y2999693D01*
X3261005Y2993657D01*
X3265608Y2992261D01*
Y2474000D01*
X3267160Y2466196D01*
X3271581Y2459581D01*
X3304581Y2426581D01*
X3304581Y2426581D01*
X3311196Y2422160D01*
X3319000Y2420608D01*
X3483585D01*
X3485992Y2416439D01*
X3493439Y2408992D01*
X3497608Y2406585D01*
Y2172447D01*
X3473553Y2148392D01*
X3367431D01*
X3367087Y2150122D01*
X3362919Y2156360D01*
X3356681Y2160528D01*
X3349323Y2161992D01*
X3331606D01*
X3324248Y2160528D01*
X3318010Y2156360D01*
X3313842Y2150122D01*
X3312378Y2142764D01*
Y2113236D01*
X3313842Y2105878D01*
X3318010Y2099640D01*
X3320073Y2098262D01*
Y1548911D01*
X3260258Y1489096D01*
X3171553Y1400392D01*
X2688447D01*
X2649392Y1439447D01*
Y1717553D01*
X2664419Y1732581D01*
X2668840Y1739196D01*
X2670392Y1747000D01*
Y1766569D01*
X2672122Y1766913D01*
X2678360Y1771081D01*
X2682528Y1777319D01*
X2683615Y1782786D01*
X2689671Y1786833D01*
X2707250Y1804412D01*
X2710479Y1803296D01*
X2712020Y1802111D01*
Y1773236D01*
X2713484Y1765878D01*
X2717652Y1759640D01*
X2723033Y1756044D01*
X2720106Y1748978D01*
Y1741022D01*
X2723151Y1733671D01*
X2724812Y1732010D01*
Y1715626D01*
X2720149D01*
X2712400Y1714606D01*
X2705179Y1711615D01*
X2698978Y1706857D01*
X2694220Y1700656D01*
X2691229Y1693435D01*
X2690208Y1685685D01*
Y1646315D01*
X2691229Y1638565D01*
X2694220Y1631344D01*
X2698978Y1625143D01*
X2705179Y1620385D01*
X2712400Y1617394D01*
X2720149Y1616374D01*
X2759520D01*
X2767269Y1617394D01*
X2774490Y1620385D01*
X2780691Y1625143D01*
X2785450Y1631344D01*
X2788441Y1638565D01*
X2789461Y1646315D01*
Y1685685D01*
X2788441Y1693435D01*
X2785450Y1700656D01*
X2780691Y1706857D01*
X2774490Y1711615D01*
X2767269Y1714606D01*
X2759520Y1715626D01*
X2755400D01*
Y1732010D01*
X2757061Y1733671D01*
X2760106Y1741022D01*
Y1748978D01*
X2757179Y1756044D01*
X2762561Y1759640D01*
X2766729Y1765878D01*
X2768192Y1773236D01*
Y1802764D01*
X2766729Y1810122D01*
X2762561Y1816360D01*
X2756323Y1820528D01*
X2748965Y1821992D01*
X2736037D01*
X2735645Y1822234D01*
X2733537Y1826992D01*
X2734459Y1828008D01*
X2748965D01*
X2756323Y1829472D01*
X2762561Y1833640D01*
X2766729Y1839878D01*
X2768192Y1847236D01*
Y1869604D01*
X2768215Y1869717D01*
Y1915608D01*
X2787862D01*
X2789796Y1910608D01*
X2787035Y1903943D01*
Y1895986D01*
X2788329Y1892864D01*
X2784581Y1890360D01*
X2780413Y1884122D01*
X2778949Y1876764D01*
Y1847236D01*
X2780413Y1839878D01*
X2784581Y1833640D01*
X2790819Y1829472D01*
X2798177Y1828008D01*
X2815894D01*
X2823252Y1829472D01*
X2829490Y1833640D01*
X2833658Y1839878D01*
X2835121Y1847236D01*
Y1876764D01*
X2833658Y1884122D01*
X2829490Y1890360D01*
X2825742Y1892864D01*
X2827035Y1895986D01*
Y1903943D01*
X2824275Y1910608D01*
X2826209Y1915608D01*
X2868144D01*
Y1891738D01*
X2866081Y1890360D01*
X2861913Y1884122D01*
X2860450Y1876764D01*
Y1847236D01*
X2861913Y1839878D01*
X2866081Y1833640D01*
X2872319Y1829472D01*
X2879677Y1828008D01*
X2897394D01*
X2904752Y1829472D01*
X2910990Y1833640D01*
X2915158Y1839878D01*
X2916622Y1847236D01*
Y1876764D01*
X2915158Y1884122D01*
X2910990Y1890360D01*
X2908927Y1891738D01*
Y1913089D01*
X2917419Y1921581D01*
X2952338Y1956500D01*
X3010500D01*
Y1997500D01*
X2923500D01*
Y1985338D01*
X2894553Y1956392D01*
X2759539D01*
X2751735Y1954840D01*
X2745119Y1950419D01*
X2745119Y1950419D01*
X2733404Y1938703D01*
X2728983Y1932088D01*
X2727431Y1924284D01*
Y1895232D01*
X2723890Y1894528D01*
X2717652Y1890360D01*
X2713484Y1884122D01*
X2712020Y1876764D01*
Y1865511D01*
X2707959Y1862797D01*
X2707959Y1862797D01*
X2686983Y1841821D01*
X2682788Y1844167D01*
X2682575Y1844484D01*
X2683992Y1851606D01*
Y1869323D01*
X2682528Y1876681D01*
X2678360Y1882919D01*
X2672122Y1887087D01*
X2665294Y1888445D01*
Y1896010D01*
X2666955Y1897671D01*
X2670000Y1905022D01*
Y1911706D01*
X2682000D01*
X2687853Y1912870D01*
X2692814Y1916186D01*
X2746814Y1970186D01*
X2750130Y1975147D01*
X2751294Y1981000D01*
Y2082000D01*
X2750130Y2087853D01*
X2746814Y2092814D01*
X2730814Y2108814D01*
X2725853Y2112130D01*
X2720000Y2113294D01*
X2677625D01*
X2675269Y2116364D01*
X2670224Y2120235D01*
X2669869Y2122919D01*
Y2123081D01*
X2670224Y2125765D01*
X2675269Y2129636D01*
X2679396Y2135015D01*
X2681991Y2141278D01*
X2682218Y2143000D01*
X2641158D01*
X2600097D01*
X2600324Y2141278D01*
X2602919Y2135015D01*
X2607046Y2129636D01*
X2612091Y2125765D01*
X2612446Y2123081D01*
Y2122919D01*
X2612091Y2120235D01*
X2607046Y2116364D01*
X2602919Y2110985D01*
X2600324Y2104722D01*
X2599439Y2098000D01*
X2600324Y2091278D01*
X2602919Y2085015D01*
X2607046Y2079636D01*
X2612091Y2075765D01*
X2612446Y2073081D01*
Y2072919D01*
X2612091Y2070235D01*
X2607046Y2066364D01*
X2602919Y2060985D01*
X2600324Y2054722D01*
X2599439Y2048000D01*
X2600324Y2041278D01*
X2602919Y2035015D01*
X2607046Y2029636D01*
X2612091Y2025765D01*
X2612446Y2023081D01*
Y2022919D01*
X2612091Y2020235D01*
X2609689Y2018392D01*
X2563738D01*
X2562360Y2020455D01*
X2556122Y2024623D01*
X2548764Y2026086D01*
X2519236D01*
X2511878Y2024623D01*
X2505640Y2020455D01*
X2501472Y2014217D01*
X2500008Y2006859D01*
Y1992066D01*
X2497160Y1987804D01*
X2495608Y1980000D01*
Y1746000D01*
X2497160Y1738196D01*
X2501581Y1731581D01*
X2521581Y1711581D01*
X2528196Y1707160D01*
X2536000Y1705608D01*
X2608608D01*
Y1431000D01*
X2610160Y1423196D01*
X2614581Y1416581D01*
X2665581Y1365581D01*
X2672196Y1361160D01*
X2680000Y1359608D01*
X3159608D01*
Y825000D01*
X3161160Y817196D01*
X3165581Y810581D01*
X3197581Y778581D01*
X3204196Y774160D01*
X3212000Y772608D01*
X3385104D01*
X3385448Y770878D01*
X3389617Y764640D01*
X3391679Y763262D01*
Y340517D01*
X3350268Y299106D01*
X3345826Y301671D01*
X3333520Y304969D01*
X3320780D01*
X3308473Y301671D01*
X3297440Y295301D01*
X3288431Y286292D01*
X3282061Y275259D01*
X3278764Y262953D01*
Y250213D01*
X3282061Y237906D01*
X3288431Y226873D01*
X3297440Y217864D01*
X3308473Y211494D01*
X3320780Y208197D01*
X3333520D01*
X3345826Y211494D01*
X3356859Y217864D01*
X3365868Y226873D01*
X3372238Y237906D01*
X3375535Y250213D01*
Y262953D01*
X3374744Y265906D01*
X3426490Y317652D01*
X3430910Y324267D01*
X3432463Y332071D01*
Y763262D01*
X3434525Y764640D01*
X3438693Y770878D01*
X3440157Y778236D01*
Y807764D01*
X3438693Y815122D01*
X3434525Y821360D01*
X3428287Y825528D01*
X3420929Y826991D01*
X3403213D01*
X3395854Y825528D01*
X3389617Y821360D01*
X3385448Y815122D01*
X3385104Y813392D01*
X3220447D01*
X3200392Y833447D01*
Y1371553D01*
X3283124Y1454285D01*
X3556849D01*
X3556915Y1453782D01*
X3559509Y1447519D01*
X3563636Y1442140D01*
X3569015Y1438013D01*
X3575278Y1435419D01*
X3582000Y1434534D01*
X3588722Y1435419D01*
X3594985Y1438013D01*
X3600364Y1442140D01*
X3604235Y1447186D01*
X3606919Y1447541D01*
X3607081D01*
X3609765Y1447186D01*
X3611608Y1444783D01*
Y1373000D01*
X3613160Y1365196D01*
X3617581Y1358581D01*
X3663608Y1312553D01*
Y919447D01*
X3613581Y869419D01*
X3609160Y862804D01*
X3607608Y855000D01*
Y831898D01*
X3603005Y828822D01*
X3598510Y822096D01*
X3596932Y814161D01*
Y771839D01*
X3598510Y763904D01*
X3603005Y757178D01*
X3607608Y754102D01*
Y349433D01*
X3609160Y341630D01*
X3613581Y335014D01*
X3675249Y273345D01*
X3672465Y262953D01*
Y250213D01*
X3675762Y237906D01*
X3682132Y226873D01*
X3691141Y217864D01*
X3702174Y211494D01*
X3714480Y208197D01*
X3727220D01*
X3739527Y211494D01*
X3750560Y217864D01*
X3759569Y226873D01*
X3765939Y237906D01*
X3769236Y250213D01*
Y262953D01*
X3765939Y275259D01*
X3759569Y286292D01*
X3750560Y295301D01*
X3739527Y301671D01*
X3727220Y304969D01*
X3714480D01*
X3704088Y302184D01*
X3648392Y357880D01*
Y754102D01*
X3652995Y757178D01*
X3657490Y763904D01*
X3659068Y771839D01*
Y814161D01*
X3657490Y822096D01*
X3652995Y828822D01*
X3648392Y831898D01*
Y846553D01*
X3698419Y896581D01*
X3702840Y903196D01*
X3704392Y911000D01*
X3704392Y911000D01*
Y1316699D01*
X3709392Y1318770D01*
X3733581Y1294581D01*
X3740196Y1290160D01*
X3748000Y1288608D01*
X4064553D01*
X4068608Y1284553D01*
Y871598D01*
X4070160Y863795D01*
X4074581Y857179D01*
X4092124Y839637D01*
X4090811Y836157D01*
X4089795Y834894D01*
X4069665D01*
X4061731Y833316D01*
X4055005Y828822D01*
X4050510Y822096D01*
X4048932Y814161D01*
Y808294D01*
X4033981D01*
X4032622Y815122D01*
X4028454Y821360D01*
X4022216Y825528D01*
X4014858Y826991D01*
X3997142D01*
X3989784Y825528D01*
X3983546Y821360D01*
X3979378Y815122D01*
X3977914Y807764D01*
Y778236D01*
X3979378Y770878D01*
X3983546Y764640D01*
X3989784Y760472D01*
X3997142Y759009D01*
X4014858D01*
X4022216Y760472D01*
X4028454Y764640D01*
X4032622Y770878D01*
X4033981Y777706D01*
X4048932D01*
Y771839D01*
X4050510Y763904D01*
X4055005Y757178D01*
X4061731Y752684D01*
X4069665Y751106D01*
X4090335D01*
X4098269Y752684D01*
X4104995Y757178D01*
X4109489Y763904D01*
X4111068Y771839D01*
Y813621D01*
X4112330Y814638D01*
X4115810Y815950D01*
X4125704Y806056D01*
Y771839D01*
X4127282Y763904D01*
X4131777Y757178D01*
X4136380Y754102D01*
Y348328D01*
X4137932Y340524D01*
X4142352Y333909D01*
X4202916Y273346D01*
X4200131Y262953D01*
Y250213D01*
X4203429Y237906D01*
X4209799Y226873D01*
X4218807Y217864D01*
X4229841Y211494D01*
X4242147Y208197D01*
X4254887D01*
X4267193Y211494D01*
X4278227Y217864D01*
X4287235Y226873D01*
X4293605Y237906D01*
X4296903Y250213D01*
Y262953D01*
X4293605Y275259D01*
X4287235Y286292D01*
X4278227Y295301D01*
X4267193Y301671D01*
X4254887Y304969D01*
X4242147D01*
X4231754Y302184D01*
X4177163Y356775D01*
Y754102D01*
X4181767Y757178D01*
X4186261Y763904D01*
X4187839Y771839D01*
Y814161D01*
X4186261Y822096D01*
X4181767Y828822D01*
X4175041Y833316D01*
X4167106Y834894D01*
X4154542D01*
X4109392Y880045D01*
Y1293000D01*
X4107840Y1300804D01*
X4103419Y1307419D01*
X4096850Y1313989D01*
X4098763Y1318608D01*
X4628553D01*
X4667411Y1279750D01*
Y831898D01*
X4662808Y828822D01*
X4658314Y822096D01*
X4656735Y814161D01*
Y771839D01*
X4658314Y763904D01*
X4662808Y757178D01*
X4667411Y754102D01*
Y344963D01*
X4668963Y337160D01*
X4673384Y330544D01*
X4730583Y273345D01*
X4727798Y262953D01*
Y250213D01*
X4731095Y237906D01*
X4737465Y226873D01*
X4746474Y217864D01*
X4757507Y211494D01*
X4769814Y208197D01*
X4782554D01*
X4794860Y211494D01*
X4805893Y217864D01*
X4814902Y226873D01*
X4821272Y237906D01*
X4824569Y250213D01*
Y262953D01*
X4821272Y275259D01*
X4814902Y286292D01*
X4805893Y295301D01*
X4794860Y301671D01*
X4782554Y304969D01*
X4769814D01*
X4759421Y302184D01*
X4708195Y353410D01*
Y754102D01*
X4712798Y757178D01*
X4717293Y763904D01*
X4718871Y771839D01*
Y814161D01*
X4717293Y822096D01*
X4712798Y828822D01*
X4708195Y831898D01*
Y1288197D01*
X4706643Y1296001D01*
X4702222Y1302616D01*
X4660850Y1343989D01*
X4662763Y1348608D01*
X4864553D01*
X4892608Y1320553D01*
Y1084000D01*
X4894160Y1076196D01*
X4898581Y1069581D01*
X4963581Y1004581D01*
X4970196Y1000160D01*
X4978000Y998608D01*
X5136553D01*
X5199994Y935168D01*
Y831898D01*
X5195391Y828822D01*
X5190896Y822096D01*
X5189318Y814161D01*
Y771839D01*
X5190896Y763904D01*
X5195391Y757178D01*
X5199994Y754102D01*
Y340047D01*
X5201546Y332243D01*
X5205967Y325628D01*
X5258249Y273345D01*
X5255464Y262953D01*
Y250213D01*
X5258762Y237906D01*
X5265132Y226873D01*
X5274141Y217864D01*
X5285174Y211494D01*
X5297480Y208197D01*
X5310220D01*
X5322526Y211494D01*
X5333560Y217864D01*
X5342569Y226873D01*
X5348939Y237906D01*
X5352236Y250213D01*
Y262953D01*
X5348939Y275259D01*
X5342569Y286292D01*
X5333560Y295301D01*
X5322526Y301671D01*
X5310220Y304969D01*
X5297480D01*
X5287087Y302184D01*
X5240778Y348494D01*
Y754102D01*
X5245381Y757178D01*
X5249875Y763904D01*
X5251453Y771839D01*
Y814161D01*
X5249875Y822096D01*
X5245381Y828822D01*
X5240778Y831898D01*
Y943614D01*
X5239225Y951418D01*
X5234805Y958033D01*
X5159419Y1033419D01*
X5152804Y1037840D01*
X5145000Y1039392D01*
X4986447D01*
X4933392Y1092447D01*
Y1329000D01*
X4931840Y1336804D01*
X4927419Y1343419D01*
X4887419Y1383419D01*
X4880804Y1387840D01*
X4873000Y1389392D01*
X3802392D01*
Y1444783D01*
X3804235Y1447186D01*
X3806919Y1447541D01*
X3807081D01*
X3809765Y1447186D01*
X3813636Y1442140D01*
X3819015Y1438013D01*
X3825278Y1435419D01*
X3832000Y1434534D01*
X3838722Y1435419D01*
X3844985Y1438013D01*
X3850364Y1442140D01*
X3854235Y1447186D01*
X3856919Y1447541D01*
X3857081D01*
X3859765Y1447186D01*
X3863636Y1442140D01*
X3869015Y1438013D01*
X3875278Y1435419D01*
X3882000Y1434534D01*
X3888722Y1435419D01*
X3894985Y1438013D01*
X3900364Y1442140D01*
X3904235Y1447186D01*
X3906919Y1447541D01*
X3907081D01*
X3909765Y1447186D01*
X3913636Y1442140D01*
X3919015Y1438013D01*
X3925278Y1435419D01*
X3932000Y1434534D01*
X3938722Y1435419D01*
X3944985Y1438013D01*
X3950364Y1442140D01*
X3954491Y1447519D01*
X3957085Y1453782D01*
X3957970Y1460504D01*
Y1488850D01*
X3957085Y1495572D01*
X3954491Y1501835D01*
X3950364Y1507214D01*
X3944985Y1511341D01*
X3938722Y1513936D01*
X3932000Y1514821D01*
X3925278Y1513936D01*
X3919015Y1511341D01*
X3913636Y1507214D01*
X3909765Y1502169D01*
X3907081Y1501814D01*
X3906919D01*
X3904235Y1502169D01*
X3900364Y1507214D01*
X3894985Y1511341D01*
X3888722Y1513936D01*
X3882000Y1514821D01*
X3875278Y1513936D01*
X3869015Y1511341D01*
X3863636Y1507214D01*
X3859765Y1502169D01*
X3857081Y1501814D01*
X3856919D01*
X3854235Y1502169D01*
X3850364Y1507214D01*
X3844985Y1511341D01*
X3838722Y1513936D01*
X3832000Y1514821D01*
X3825278Y1513936D01*
X3819015Y1511341D01*
X3813636Y1507214D01*
X3809765Y1502169D01*
X3807081Y1501814D01*
X3806919D01*
X3804235Y1502169D01*
X3800364Y1507214D01*
X3794985Y1511341D01*
X3788722Y1513936D01*
X3782000Y1514821D01*
X3775278Y1513936D01*
X3769015Y1511341D01*
X3763636Y1507214D01*
X3759765Y1502169D01*
X3757081Y1501814D01*
X3756919D01*
X3754235Y1502169D01*
X3750364Y1507214D01*
X3744985Y1511341D01*
X3738722Y1513936D01*
X3732000Y1514821D01*
X3725278Y1513936D01*
X3719015Y1511341D01*
X3713636Y1507214D01*
X3709765Y1502169D01*
X3707081Y1501814D01*
X3706919D01*
X3704235Y1502169D01*
X3700364Y1507214D01*
X3694985Y1511341D01*
X3688722Y1513936D01*
X3682000Y1514821D01*
X3675278Y1513936D01*
X3669015Y1511341D01*
X3663636Y1507214D01*
X3659765Y1502169D01*
X3657081Y1501814D01*
X3656919D01*
X3654235Y1502169D01*
X3650364Y1507214D01*
X3644985Y1511341D01*
X3638722Y1513936D01*
X3632000Y1514821D01*
X3625278Y1513936D01*
X3619015Y1511341D01*
X3613636Y1507214D01*
X3609765Y1502169D01*
X3607081Y1501814D01*
X3606919D01*
X3604235Y1502169D01*
X3600364Y1507214D01*
X3594985Y1511341D01*
X3588722Y1513936D01*
X3582000Y1514821D01*
X3575278Y1513936D01*
X3569015Y1511341D01*
X3563636Y1507214D01*
X3559509Y1501835D01*
X3556915Y1495572D01*
X3556849Y1495069D01*
X3330440D01*
X3328527Y1499688D01*
X3354884Y1526045D01*
X3359304Y1532661D01*
X3360856Y1540465D01*
Y2098262D01*
X3362919Y2099640D01*
X3367087Y2105878D01*
X3367431Y2107608D01*
X3482000D01*
X3489804Y2109160D01*
X3496419Y2113581D01*
X3532419Y2149581D01*
X3536840Y2156196D01*
X3538392Y2164000D01*
Y2406585D01*
X3542561Y2408992D01*
X3550008Y2416439D01*
X3555274Y2425561D01*
X3558000Y2435734D01*
Y2446266D01*
X3555274Y2456439D01*
X3550008Y2465561D01*
X3542561Y2473008D01*
X3533439Y2478274D01*
X3523266Y2481000D01*
X3512734D01*
X3502561Y2478274D01*
X3493439Y2473008D01*
X3485992Y2465561D01*
X3483585Y2461392D01*
X3327447D01*
X3306392Y2482447D01*
Y2992261D01*
X3310995Y2993657D01*
X3322287Y2999693D01*
X3332184Y3007816D01*
X3340307Y3017713D01*
X3346343Y3029005D01*
X3350059Y3041258D01*
X3351314Y3054000D01*
Y3064000D01*
X3350059Y3076742D01*
X3346343Y3088995D01*
X3340307Y3100287D01*
X3332184Y3110184D01*
X3322287Y3118307D01*
X3310995Y3124343D01*
X3298742Y3128059D01*
X3286000Y3129314D01*
D02*
G37*
G36*
X3010500Y2297500D02*
X2923500D01*
Y2256500D01*
X3010500D01*
Y2257800D01*
X3015500Y2259871D01*
X3052706Y2222665D01*
Y2121000D01*
X3052956Y2119744D01*
X3048348Y2117281D01*
X3027814Y2137814D01*
X3022853Y2141130D01*
X3017000Y2142294D01*
X3010500D01*
Y2147500D01*
X2923500D01*
Y2106500D01*
X3010500D01*
Y2106500D01*
X3015500Y2106871D01*
X3106186Y2016186D01*
X3111147Y2012870D01*
X3117000Y2011706D01*
X3127500D01*
Y2006500D01*
X3214500D01*
Y2011706D01*
X3251204D01*
X3254706Y2008204D01*
Y1981688D01*
X3250000Y1980978D01*
X3246955Y1988329D01*
X3241329Y1993955D01*
X3233978Y1997000D01*
X3226022D01*
X3219500Y1994299D01*
X3216346Y1995572D01*
X3214500Y1996855D01*
Y1997500D01*
X3127500D01*
Y1956500D01*
X3214500D01*
Y1957145D01*
X3216346Y1958428D01*
X3219500Y1959701D01*
X3226022Y1957000D01*
X3233978D01*
X3241329Y1960045D01*
X3246955Y1965671D01*
X3250000Y1973022D01*
X3254706Y1972312D01*
Y1928158D01*
X3251843Y1925294D01*
X3066000D01*
X3060147Y1924130D01*
X3055186Y1920814D01*
X3038186Y1903814D01*
X3034870Y1898853D01*
X3033706Y1893000D01*
Y1885445D01*
X3026878Y1884087D01*
X3020640Y1879919D01*
X3016472Y1873681D01*
X3015008Y1866323D01*
Y1848606D01*
X3016472Y1841248D01*
X3020640Y1835010D01*
X3026878Y1830842D01*
X3034236Y1829379D01*
X3063764D01*
X3071122Y1830842D01*
X3077360Y1835010D01*
X3081528Y1841248D01*
X3082992Y1848606D01*
Y1866323D01*
X3081528Y1873681D01*
X3077360Y1879919D01*
X3071122Y1884087D01*
X3069174Y1884474D01*
X3067528Y1889900D01*
X3072335Y1894706D01*
X3134080D01*
X3135994Y1890087D01*
X3131457Y1885551D01*
X3110236D01*
X3102878Y1884087D01*
X3096640Y1879919D01*
X3092472Y1873681D01*
X3091008Y1866323D01*
Y1848606D01*
X3092472Y1841248D01*
X3096640Y1835010D01*
X3102878Y1830842D01*
X3110236Y1829379D01*
X3139764D01*
X3147122Y1830842D01*
X3153360Y1835010D01*
X3157528Y1841248D01*
X3158992Y1848606D01*
Y1866323D01*
X3158410Y1869246D01*
X3163870Y1874706D01*
X3266462D01*
X3272314Y1875870D01*
X3277276Y1879186D01*
X3300814Y1902724D01*
X3304130Y1907686D01*
X3305294Y1913538D01*
Y2051538D01*
X3304130Y2057391D01*
X3300814Y2062353D01*
X3275353Y2087814D01*
X3273566Y2089008D01*
X3275082Y2094008D01*
X3282394D01*
X3289752Y2095472D01*
X3295990Y2099640D01*
X3300158Y2105878D01*
X3301621Y2113236D01*
Y2142764D01*
X3300158Y2150122D01*
X3295990Y2156360D01*
X3289752Y2160528D01*
X3282394Y2161992D01*
X3264677D01*
X3257319Y2160528D01*
X3251081Y2156360D01*
X3246913Y2150122D01*
X3246596Y2148528D01*
X3242186Y2146171D01*
X3238978Y2147500D01*
X3231022D01*
X3223671Y2144455D01*
X3222010Y2142794D01*
X3214500D01*
Y2147500D01*
X3127500D01*
Y2106500D01*
X3214500D01*
Y2112206D01*
X3222010D01*
X3223671Y2110545D01*
X3231022Y2107500D01*
X3238978D01*
X3242370Y2108905D01*
X3246780Y2106548D01*
X3246913Y2105878D01*
X3251081Y2099640D01*
X3254593Y2097294D01*
X3253076Y2092294D01*
X3214500D01*
Y2097500D01*
X3127500D01*
Y2092294D01*
X3118335D01*
X3083294Y2127335D01*
Y2229000D01*
X3082130Y2234853D01*
X3078814Y2239814D01*
X3030814Y2287814D01*
X3025853Y2291130D01*
X3020000Y2292294D01*
X3010500D01*
Y2297500D01*
D02*
G37*
G36*
X4535315Y2107205D02*
X4500787D01*
Y2084488D01*
X4535315D01*
Y2107205D01*
D02*
G37*
G36*
X4490787D02*
X4456260D01*
Y2084488D01*
X4490787D01*
Y2107205D01*
D02*
G37*
G36*
X2548764Y2093015D02*
X2539000D01*
Y2069929D01*
X2567992D01*
Y2073788D01*
X2566528Y2081146D01*
X2562360Y2087384D01*
X2556122Y2091552D01*
X2548764Y2093015D01*
D02*
G37*
G36*
X2529000D02*
X2519236D01*
X2511878Y2091552D01*
X2505640Y2087384D01*
X2501472Y2081146D01*
X2500008Y2073788D01*
Y2069929D01*
X2529000D01*
Y2093015D01*
D02*
G37*
G36*
X182347Y2304260D02*
X163732D01*
X145345Y2301348D01*
X127640Y2295595D01*
X111054Y2287144D01*
X95993Y2276202D01*
X82830Y2263038D01*
X71888Y2247978D01*
X63436Y2231391D01*
X57684Y2213686D01*
X54772Y2195300D01*
Y2176684D01*
X57684Y2158298D01*
X63436Y2140593D01*
X71888Y2124006D01*
X82830Y2108946D01*
X95993Y2095783D01*
X111054Y2084840D01*
X127640Y2076389D01*
X145345Y2070637D01*
X163732Y2067724D01*
X182347D01*
X200734Y2070637D01*
X218438Y2076389D01*
X235025Y2084840D01*
X250086Y2095783D01*
X263249Y2108946D01*
X274191Y2124006D01*
X282642Y2140593D01*
X288395Y2158298D01*
X291307Y2176684D01*
Y2195300D01*
X288395Y2213686D01*
X282642Y2231391D01*
X274191Y2247978D01*
X263249Y2263038D01*
X250086Y2276202D01*
X235025Y2287144D01*
X218438Y2295595D01*
X200734Y2301348D01*
X182347Y2304260D01*
D02*
G37*
G36*
X2567992Y2059929D02*
X2539000D01*
Y2036843D01*
X2548764D01*
X2556122Y2038307D01*
X2562360Y2042475D01*
X2566528Y2048713D01*
X2567992Y2056071D01*
Y2059929D01*
D02*
G37*
G36*
X2529000D02*
X2500008D01*
Y2056071D01*
X2501472Y2048713D01*
X2505640Y2042475D01*
X2511878Y2038307D01*
X2519236Y2036843D01*
X2529000D01*
Y2059929D01*
D02*
G37*
G36*
X4973898Y1996378D02*
X4951181D01*
Y1973661D01*
X4973898D01*
Y1996378D01*
D02*
G37*
G36*
X4830945D02*
X4808228D01*
Y1973661D01*
X4830945D01*
Y1996378D01*
D02*
G37*
G36*
X4284000Y2052000D02*
X4204000D01*
Y1972000D01*
X4284000D01*
Y2052000D01*
D02*
G37*
G36*
X4941181Y1996378D02*
X4896063D01*
Y1968662D01*
X4886063D01*
Y1996378D01*
X4840945D01*
Y1968661D01*
X4835945D01*
Y1963661D01*
X4808228D01*
Y1940945D01*
Y1918543D01*
X4835945D01*
Y1908543D01*
X4808228D01*
Y1885827D01*
Y1863425D01*
X4835945D01*
Y1858425D01*
X4840945D01*
Y1830709D01*
X4886063D01*
Y1858425D01*
X4896063D01*
Y1830709D01*
X4941181D01*
Y1858425D01*
X4946181D01*
Y1863425D01*
X4973898D01*
Y1885827D01*
Y1908543D01*
X4946181D01*
Y1918543D01*
X4973898D01*
Y1940945D01*
Y1963661D01*
X4946181D01*
Y1968661D01*
X4941181D01*
Y1996378D01*
D02*
G37*
G36*
X4249266Y1952000D02*
X4249000D01*
Y1917000D01*
X4284000D01*
Y1917266D01*
X4281274Y1927439D01*
X4276008Y1936561D01*
X4268561Y1944008D01*
X4259439Y1949274D01*
X4249266Y1952000D01*
D02*
G37*
G36*
X4239000D02*
X4238734D01*
X4228561Y1949274D01*
X4219439Y1944008D01*
X4211992Y1936561D01*
X4206726Y1927439D01*
X4204000Y1917266D01*
Y1917000D01*
X4239000D01*
Y1952000D01*
D02*
G37*
G36*
X4284000Y1907000D02*
X4249000D01*
Y1872000D01*
X4249266D01*
X4259439Y1874726D01*
X4268561Y1879992D01*
X4276008Y1887439D01*
X4281274Y1896561D01*
X4284000Y1906734D01*
Y1907000D01*
D02*
G37*
G36*
X4239000D02*
X4204000D01*
Y1906734D01*
X4206726Y1896561D01*
X4211992Y1887439D01*
X4219439Y1879992D01*
X4228561Y1874726D01*
X4238734Y1872000D01*
X4239000D01*
Y1907000D01*
D02*
G37*
G36*
X2964323Y1895992D02*
X2960465D01*
Y1867000D01*
X2983551D01*
Y1876764D01*
X2982087Y1884122D01*
X2977919Y1890360D01*
X2971681Y1894528D01*
X2964323Y1895992D01*
D02*
G37*
G36*
X2950465D02*
X2946606D01*
X2939248Y1894528D01*
X2933010Y1890360D01*
X2928842Y1884122D01*
X2927379Y1876764D01*
Y1867000D01*
X2950465D01*
Y1895992D01*
D02*
G37*
G36*
X2458165Y2208978D02*
X2353835D01*
X2347113Y2208093D01*
X2340849Y2205499D01*
X2335471Y2201372D01*
X2331344Y2195993D01*
X2328749Y2189729D01*
X2327864Y2183008D01*
Y2151512D01*
X2328749Y2144790D01*
X2331344Y2138527D01*
X2335471Y2133148D01*
X2340849Y2129021D01*
X2347113Y2126427D01*
X2353835Y2125542D01*
X2377241D01*
Y2099707D01*
X2375324Y2099455D01*
X2367864Y2096364D01*
X2361457Y2091448D01*
X2356541Y2085042D01*
X2353451Y2077581D01*
X2352397Y2069575D01*
Y2016425D01*
X2353451Y2008419D01*
X2356541Y2000958D01*
X2361457Y1994552D01*
X2367864Y1989636D01*
X2375324Y1986545D01*
X2377241Y1986293D01*
Y1941921D01*
X2374419Y1941549D01*
X2366958Y1938459D01*
X2360552Y1933543D01*
X2355636Y1927136D01*
X2352545Y1919676D01*
X2351491Y1911669D01*
Y1870331D01*
X2352545Y1862324D01*
X2355636Y1854864D01*
X2360552Y1848457D01*
X2366958Y1843541D01*
X2374419Y1840451D01*
X2382425Y1839397D01*
X2435575D01*
X2443581Y1840451D01*
X2451042Y1843541D01*
X2457448Y1848457D01*
X2462364Y1854864D01*
X2465455Y1862324D01*
X2466509Y1870331D01*
Y1911669D01*
X2465455Y1919676D01*
X2462364Y1927136D01*
X2457448Y1933543D01*
X2451042Y1938459D01*
X2443581Y1941549D01*
X2437759Y1942316D01*
Y1988651D01*
X2440136Y1989636D01*
X2446543Y1994552D01*
X2451459Y2000958D01*
X2454549Y2008419D01*
X2455603Y2016425D01*
Y2069575D01*
X2454549Y2077581D01*
X2451459Y2085042D01*
X2446543Y2091448D01*
X2440136Y2096364D01*
X2437759Y2097349D01*
Y2125542D01*
X2458165D01*
X2464887Y2126427D01*
X2471151Y2129021D01*
X2476529Y2133148D01*
X2480656Y2138527D01*
X2483251Y2144790D01*
X2484136Y2151512D01*
Y2183008D01*
X2483251Y2189729D01*
X2480656Y2195993D01*
X2476529Y2201372D01*
X2471151Y2205499D01*
X2464887Y2208093D01*
X2458165Y2208978D01*
D02*
G37*
G36*
X2279165D02*
X2174835D01*
X2168113Y2208093D01*
X2161849Y2205499D01*
X2156471Y2201372D01*
X2152344Y2195993D01*
X2149749Y2189729D01*
X2148864Y2183008D01*
Y2151512D01*
X2149749Y2144790D01*
X2152344Y2138527D01*
X2156471Y2133148D01*
X2161849Y2129021D01*
X2168113Y2126427D01*
X2174835Y2125542D01*
X2198241D01*
Y2099839D01*
X2195324Y2099455D01*
X2187864Y2096364D01*
X2181457Y2091448D01*
X2176541Y2085042D01*
X2173451Y2077581D01*
X2172397Y2069575D01*
Y2016425D01*
X2173451Y2008419D01*
X2176541Y2000958D01*
X2181457Y1994552D01*
X2187864Y1989636D01*
X2195324Y1986545D01*
X2198241Y1986161D01*
Y1941921D01*
X2195419Y1941549D01*
X2187958Y1938459D01*
X2181552Y1933543D01*
X2176636Y1927136D01*
X2173545Y1919676D01*
X2172491Y1911669D01*
Y1870331D01*
X2173545Y1862324D01*
X2176636Y1854864D01*
X2181552Y1848457D01*
X2187958Y1843541D01*
X2195419Y1840451D01*
X2203425Y1839397D01*
X2256575D01*
X2264581Y1840451D01*
X2272042Y1843541D01*
X2278448Y1848457D01*
X2283364Y1854864D01*
X2286455Y1862324D01*
X2287509Y1870331D01*
Y1911669D01*
X2286455Y1919676D01*
X2283364Y1927136D01*
X2278448Y1933543D01*
X2272042Y1938459D01*
X2264581Y1941549D01*
X2258759Y1942316D01*
Y1989065D01*
X2260136Y1989636D01*
X2266543Y1994552D01*
X2271459Y2000958D01*
X2274549Y2008419D01*
X2275603Y2016425D01*
Y2069575D01*
X2274549Y2077581D01*
X2271459Y2085042D01*
X2266543Y2091448D01*
X2260136Y2096364D01*
X2258759Y2096935D01*
Y2125542D01*
X2279165D01*
X2285887Y2126427D01*
X2292151Y2129021D01*
X2297529Y2133148D01*
X2301656Y2138527D01*
X2304251Y2144790D01*
X2305136Y2151512D01*
Y2183008D01*
X2304251Y2189729D01*
X2301656Y2195993D01*
X2297529Y2201372D01*
X2292151Y2205499D01*
X2285887Y2208093D01*
X2279165Y2208978D01*
D02*
G37*
G36*
X4973898Y1853425D02*
X4951181D01*
Y1830709D01*
X4973898D01*
Y1853425D01*
D02*
G37*
G36*
X4830945Y1853425D02*
X4808228D01*
Y1830709D01*
X4830945D01*
Y1853425D01*
D02*
G37*
G36*
X2983551Y1857000D02*
X2960465D01*
Y1828008D01*
X2964323D01*
X2971681Y1829472D01*
X2977919Y1833640D01*
X2982087Y1839878D01*
X2983551Y1847236D01*
Y1857000D01*
D02*
G37*
G36*
X2950465D02*
X2927379D01*
Y1847236D01*
X2928842Y1839878D01*
X2933010Y1833640D01*
X2939248Y1829472D01*
X2946606Y1828008D01*
X2950465D01*
Y1857000D01*
D02*
G37*
G36*
X2897394Y1821992D02*
X2879677D01*
X2872319Y1820528D01*
X2866081Y1816360D01*
X2861913Y1810122D01*
X2860555Y1803294D01*
X2835016D01*
X2833658Y1810122D01*
X2829490Y1816360D01*
X2823252Y1820528D01*
X2815894Y1821992D01*
X2798177D01*
X2790819Y1820528D01*
X2784581Y1816360D01*
X2780413Y1810122D01*
X2778949Y1802764D01*
Y1773236D01*
X2780413Y1765878D01*
X2784581Y1759640D01*
X2790819Y1755472D01*
X2798177Y1754008D01*
X2815894D01*
X2823252Y1755472D01*
X2829490Y1759640D01*
X2833658Y1765878D01*
X2835016Y1772706D01*
X2860555D01*
X2861913Y1765878D01*
X2866081Y1759640D01*
X2872319Y1755472D01*
X2873107Y1755315D01*
X2875425Y1750978D01*
Y1743022D01*
X2878470Y1735671D01*
X2880131Y1734010D01*
Y1709917D01*
X2876143Y1706857D01*
X2871385Y1700656D01*
X2868394Y1693435D01*
X2867374Y1685685D01*
Y1646315D01*
X2868394Y1638565D01*
X2871385Y1631344D01*
X2876143Y1625143D01*
X2882344Y1620385D01*
X2889566Y1617394D01*
X2897315Y1616374D01*
X2936685D01*
X2944434Y1617394D01*
X2951656Y1620385D01*
X2957857Y1625143D01*
X2962615Y1631344D01*
X2965606Y1638565D01*
X2966626Y1646315D01*
Y1685685D01*
X2965606Y1693435D01*
X2962615Y1700656D01*
X2957857Y1706857D01*
X2951656Y1711615D01*
X2944434Y1714606D01*
X2936685Y1715626D01*
X2910719D01*
Y1734010D01*
X2912380Y1735671D01*
X2915425Y1743022D01*
Y1750978D01*
X2912380Y1758329D01*
X2911022Y1759688D01*
X2915158Y1765878D01*
X2916622Y1773236D01*
Y1802764D01*
X2915158Y1810122D01*
X2910990Y1816360D01*
X2904752Y1820528D01*
X2897394Y1821992D01*
D02*
G37*
G36*
X2964323D02*
X2960465D01*
Y1793000D01*
X2983551D01*
Y1802764D01*
X2982087Y1810122D01*
X2977919Y1816360D01*
X2971681Y1820528D01*
X2964323Y1821992D01*
D02*
G37*
G36*
X2950465D02*
X2946606D01*
X2939248Y1820528D01*
X2933010Y1816360D01*
X2928842Y1810122D01*
X2927379Y1802764D01*
Y1793000D01*
X2950465D01*
Y1821992D01*
D02*
G37*
G36*
X212401Y1889620D02*
X137599D01*
X129335Y1888532D01*
X121635Y1885342D01*
X115023Y1880268D01*
X109949Y1873656D01*
X106760Y1865956D01*
X105672Y1857693D01*
Y1814386D01*
X106760Y1806123D01*
X109949Y1798423D01*
X115023Y1791810D01*
X121635Y1786737D01*
X129335Y1783547D01*
X137599Y1782459D01*
X212401D01*
X220665Y1783547D01*
X228365Y1786737D01*
X234977Y1791810D01*
X240051Y1798423D01*
X243240Y1806123D01*
X244328Y1814386D01*
Y1857693D01*
X243240Y1865956D01*
X240051Y1873656D01*
X234977Y1880268D01*
X228365Y1885342D01*
X220665Y1888532D01*
X212401Y1889620D01*
D02*
G37*
G36*
X5516000Y1806780D02*
Y1776110D01*
X5546669D01*
X5544312Y1784908D01*
X5539605Y1793060D01*
X5532950Y1799716D01*
X5524798Y1804422D01*
X5516000Y1806780D01*
D02*
G37*
G36*
X5506000D02*
X5497202Y1804422D01*
X5489050Y1799716D01*
X5482395Y1793060D01*
X5477688Y1784908D01*
X5475331Y1776110D01*
X5506000D01*
Y1806780D01*
D02*
G37*
G36*
X4249266Y1852000D02*
X4238734D01*
X4228561Y1849274D01*
X4219439Y1844008D01*
X4211992Y1836561D01*
X4206726Y1827439D01*
X4204000Y1817266D01*
Y1806734D01*
X4206726Y1796561D01*
X4211992Y1787439D01*
X4219439Y1779992D01*
X4228561Y1774726D01*
X4238734Y1772000D01*
X4249266D01*
X4259439Y1774726D01*
X4268561Y1779992D01*
X4276008Y1787439D01*
X4281274Y1796561D01*
X4284000Y1806734D01*
Y1817266D01*
X4281274Y1827439D01*
X4276008Y1836561D01*
X4268561Y1844008D01*
X4259439Y1849274D01*
X4249266Y1852000D01*
D02*
G37*
G36*
X2983551Y1783000D02*
X2960465D01*
Y1754008D01*
X2964323D01*
X2971681Y1755472D01*
X2977919Y1759640D01*
X2982087Y1765878D01*
X2983551Y1773236D01*
Y1783000D01*
D02*
G37*
G36*
X2950465D02*
X2927379D01*
Y1773236D01*
X2928842Y1765878D01*
X2933010Y1759640D01*
X2939248Y1755472D01*
X2946606Y1754008D01*
X2950465D01*
Y1783000D01*
D02*
G37*
G36*
X5546669Y1766110D02*
X5516000D01*
Y1735441D01*
X5524798Y1737798D01*
X5532950Y1742505D01*
X5539605Y1749160D01*
X5544312Y1757312D01*
X5546669Y1766110D01*
D02*
G37*
G36*
X5506000D02*
X5475331D01*
X5477688Y1757312D01*
X5482395Y1749160D01*
X5489050Y1742505D01*
X5497202Y1737798D01*
X5506000Y1735441D01*
Y1766110D01*
D02*
G37*
G36*
X3785978Y1785000D02*
X3778022D01*
X3770671Y1781955D01*
X3765045Y1776329D01*
X3762000Y1768978D01*
Y1761022D01*
X3765045Y1753671D01*
X3766706Y1752010D01*
Y1726892D01*
X3763636Y1724537D01*
X3759765Y1719492D01*
X3757081Y1719136D01*
X3756919D01*
X3754235Y1719492D01*
X3750364Y1724537D01*
X3748294Y1726125D01*
Y1753010D01*
X3748955Y1753671D01*
X3752000Y1761022D01*
Y1768978D01*
X3748955Y1776329D01*
X3743329Y1781955D01*
X3735978Y1785000D01*
X3728022D01*
X3720671Y1781955D01*
X3715045Y1776329D01*
X3712000Y1768978D01*
Y1761022D01*
X3715045Y1753671D01*
X3717706Y1751010D01*
Y1727660D01*
X3713636Y1724537D01*
X3709765Y1719492D01*
X3707081Y1719136D01*
X3706919D01*
X3704235Y1719492D01*
X3700364Y1724537D01*
X3697294Y1726892D01*
Y1752010D01*
X3698955Y1753671D01*
X3702000Y1761022D01*
Y1768978D01*
X3698955Y1776329D01*
X3693329Y1781955D01*
X3685978Y1785000D01*
X3678022D01*
X3670671Y1781955D01*
X3665045Y1776329D01*
X3662000Y1768978D01*
Y1761022D01*
X3665045Y1753671D01*
X3666706Y1752010D01*
Y1726892D01*
X3663636Y1724537D01*
X3659765Y1719492D01*
X3657081Y1719136D01*
X3656919D01*
X3654235Y1719492D01*
X3650364Y1724537D01*
X3647294Y1726892D01*
Y1752010D01*
X3648955Y1753671D01*
X3652000Y1761022D01*
Y1768978D01*
X3648955Y1776329D01*
X3643329Y1781955D01*
X3635978Y1785000D01*
X3628022D01*
X3620671Y1781955D01*
X3615045Y1776329D01*
X3612000Y1768978D01*
Y1761022D01*
X3615045Y1753671D01*
X3616706Y1752010D01*
Y1726892D01*
X3613636Y1724537D01*
X3609765Y1719492D01*
X3607081Y1719136D01*
X3606919D01*
X3604235Y1719492D01*
X3600364Y1724537D01*
X3594985Y1728664D01*
X3588722Y1731258D01*
X3587000Y1731485D01*
Y1692000D01*
Y1652515D01*
X3588722Y1652742D01*
X3594985Y1655336D01*
X3600364Y1659463D01*
X3604235Y1664508D01*
X3606919Y1664864D01*
X3607081D01*
X3609765Y1664508D01*
X3613636Y1659463D01*
X3619015Y1655336D01*
X3625278Y1652742D01*
X3632000Y1651857D01*
X3638722Y1652742D01*
X3644985Y1655336D01*
X3650364Y1659463D01*
X3654235Y1664508D01*
X3656919Y1664864D01*
X3657081D01*
X3659765Y1664508D01*
X3663636Y1659463D01*
X3669015Y1655336D01*
X3675278Y1652742D01*
X3682000Y1651857D01*
X3688722Y1652742D01*
X3694985Y1655336D01*
X3700364Y1659463D01*
X3704235Y1664508D01*
X3706919Y1664864D01*
X3707081D01*
X3709765Y1664508D01*
X3713636Y1659463D01*
X3719015Y1655336D01*
X3725278Y1652742D01*
X3732000Y1651857D01*
X3738722Y1652742D01*
X3744985Y1655336D01*
X3750364Y1659463D01*
X3754235Y1664508D01*
X3756919Y1664864D01*
X3757081D01*
X3759765Y1664508D01*
X3763636Y1659463D01*
X3769015Y1655336D01*
X3775278Y1652742D01*
X3782000Y1651857D01*
X3788722Y1652742D01*
X3794985Y1655336D01*
X3800364Y1659463D01*
X3804235Y1664508D01*
X3806919Y1664864D01*
X3807081D01*
X3809765Y1664508D01*
X3813636Y1659463D01*
X3819015Y1655336D01*
X3825278Y1652742D01*
X3832000Y1651857D01*
X3838722Y1652742D01*
X3844985Y1655336D01*
X3850364Y1659463D01*
X3854235Y1664508D01*
X3856919Y1664864D01*
X3857081D01*
X3859765Y1664508D01*
X3863636Y1659463D01*
X3869015Y1655336D01*
X3875278Y1652742D01*
X3882000Y1651857D01*
X3888722Y1652742D01*
X3894985Y1655336D01*
X3900364Y1659463D01*
X3902370Y1662078D01*
X3903657Y1662313D01*
X3908255Y1661533D01*
X3911240Y1657066D01*
X3917152Y1653116D01*
X3924126Y1651729D01*
X3939874D01*
X3946848Y1653116D01*
X3952760Y1657066D01*
X3956711Y1662979D01*
X3958098Y1669953D01*
Y1714047D01*
X3956711Y1721021D01*
X3952760Y1726934D01*
X3946848Y1730884D01*
X3939874Y1732271D01*
X3924126D01*
X3917152Y1730884D01*
X3911240Y1726934D01*
X3908255Y1722467D01*
X3903657Y1721687D01*
X3902370Y1721922D01*
X3900364Y1724537D01*
X3894985Y1728664D01*
X3888722Y1731258D01*
X3882000Y1732143D01*
X3875278Y1731258D01*
X3869015Y1728664D01*
X3863636Y1724537D01*
X3859765Y1719492D01*
X3857081Y1719136D01*
X3856919D01*
X3854235Y1719492D01*
X3850364Y1724537D01*
X3844985Y1728664D01*
X3838722Y1731258D01*
X3832000Y1732143D01*
X3825278Y1731258D01*
X3819015Y1728664D01*
X3813636Y1724537D01*
X3809765Y1719492D01*
X3807081Y1719136D01*
X3806919D01*
X3804235Y1719492D01*
X3800364Y1724537D01*
X3797294Y1726892D01*
Y1752010D01*
X3798955Y1753671D01*
X3802000Y1761022D01*
Y1768978D01*
X3798955Y1776329D01*
X3793329Y1781955D01*
X3785978Y1785000D01*
D02*
G37*
G36*
X2256575Y1762603D02*
X2235000D01*
Y1716000D01*
X2287509D01*
Y1731669D01*
X2286455Y1739676D01*
X2283364Y1747136D01*
X2278448Y1753543D01*
X2272042Y1758459D01*
X2264581Y1761549D01*
X2256575Y1762603D01*
D02*
G37*
G36*
X2435575D02*
X2414000D01*
Y1716000D01*
X2466509D01*
Y1731669D01*
X2465455Y1739676D01*
X2462364Y1747136D01*
X2457448Y1753543D01*
X2451042Y1758459D01*
X2443581Y1761549D01*
X2435575Y1762603D01*
D02*
G37*
G36*
X2404000D02*
X2382425D01*
X2374419Y1761549D01*
X2366958Y1758459D01*
X2360552Y1753543D01*
X2355636Y1747136D01*
X2352545Y1739676D01*
X2351491Y1731669D01*
Y1716000D01*
X2404000D01*
Y1762603D01*
D02*
G37*
G36*
X2225000D02*
X2203425D01*
X2195419Y1761549D01*
X2187958Y1758459D01*
X2181552Y1753543D01*
X2176636Y1747136D01*
X2173545Y1739676D01*
X2172491Y1731669D01*
Y1716000D01*
X2225000D01*
Y1762603D01*
D02*
G37*
G36*
X3577000Y1731485D02*
X3575278Y1731258D01*
X3569015Y1728664D01*
X3563636Y1724537D01*
X3559509Y1719158D01*
X3556915Y1712895D01*
X3556030Y1706173D01*
Y1697000D01*
X3577000D01*
Y1731485D01*
D02*
G37*
G36*
X3139764Y1818621D02*
X3110236D01*
X3102878Y1817158D01*
X3096640Y1812990D01*
X3092472Y1806752D01*
X3091008Y1799394D01*
Y1781677D01*
X3092472Y1774319D01*
X3096640Y1768081D01*
X3102878Y1763913D01*
X3109706Y1762555D01*
Y1734454D01*
X3093839D01*
X3085904Y1732875D01*
X3079178Y1728381D01*
X3074684Y1721655D01*
X3073106Y1713721D01*
Y1693051D01*
X3074684Y1685117D01*
X3079178Y1678391D01*
X3085904Y1673896D01*
X3093839Y1672318D01*
X3136161D01*
X3144096Y1673896D01*
X3150822Y1678391D01*
X3155316Y1685117D01*
X3156894Y1693051D01*
Y1713721D01*
X3155316Y1721655D01*
X3150822Y1728381D01*
X3144096Y1732875D01*
X3140294Y1733632D01*
Y1762555D01*
X3147122Y1763913D01*
X3153360Y1768081D01*
X3157528Y1774319D01*
X3158992Y1781677D01*
Y1799394D01*
X3157528Y1806752D01*
X3153360Y1812990D01*
X3147122Y1817158D01*
X3139764Y1818621D01*
D02*
G37*
G36*
X3063764D02*
X3034236D01*
X3026878Y1817158D01*
X3020640Y1812990D01*
X3016472Y1806752D01*
X3015008Y1799394D01*
Y1781677D01*
X3016472Y1774319D01*
X3020640Y1768081D01*
X3025706Y1764696D01*
Y1734454D01*
X3001839D01*
X2993904Y1732875D01*
X2987178Y1728381D01*
X2982684Y1721655D01*
X2981106Y1713721D01*
Y1693051D01*
X2982684Y1685117D01*
X2987178Y1678391D01*
X2993904Y1673896D01*
X3001839Y1672318D01*
X3044161D01*
X3052096Y1673896D01*
X3058822Y1678391D01*
X3063316Y1685117D01*
X3064894Y1693051D01*
Y1713721D01*
X3063316Y1721655D01*
X3058822Y1728381D01*
X3056294Y1730070D01*
Y1762449D01*
X3063764D01*
X3071122Y1763913D01*
X3077360Y1768081D01*
X3081528Y1774319D01*
X3082992Y1781677D01*
Y1799394D01*
X3081528Y1806752D01*
X3077360Y1812990D01*
X3071122Y1817158D01*
X3063764Y1818621D01*
D02*
G37*
G36*
X4249266Y1752000D02*
X4238734D01*
X4228561Y1749274D01*
X4219439Y1744008D01*
X4211992Y1736561D01*
X4206726Y1727439D01*
X4204000Y1717266D01*
Y1706734D01*
X4206726Y1696561D01*
X4211992Y1687439D01*
X4219439Y1679992D01*
X4228561Y1674726D01*
X4238734Y1672000D01*
X4249266D01*
X4259439Y1674726D01*
X4268561Y1679992D01*
X4276008Y1687439D01*
X4281274Y1696561D01*
X4284000Y1706734D01*
Y1717266D01*
X4281274Y1727439D01*
X4276008Y1736561D01*
X4268561Y1744008D01*
X4259439Y1749274D01*
X4249266Y1752000D01*
D02*
G37*
G36*
X2466509Y1706000D02*
X2414000D01*
Y1659397D01*
X2435575D01*
X2443581Y1660451D01*
X2451042Y1663541D01*
X2457448Y1668457D01*
X2462364Y1674864D01*
X2465455Y1682324D01*
X2466509Y1690331D01*
Y1706000D01*
D02*
G37*
G36*
X2404000D02*
X2351491D01*
Y1690331D01*
X2352545Y1682324D01*
X2355636Y1674864D01*
X2360552Y1668457D01*
X2366958Y1663541D01*
X2374419Y1660451D01*
X2382425Y1659397D01*
X2404000D01*
Y1706000D01*
D02*
G37*
G36*
X2287509D02*
X2235000D01*
Y1659397D01*
X2256575D01*
X2264581Y1660451D01*
X2272042Y1663541D01*
X2278448Y1668457D01*
X2283364Y1674864D01*
X2286455Y1682324D01*
X2287509Y1690331D01*
Y1706000D01*
D02*
G37*
G36*
X2225000D02*
X2172491D01*
Y1690331D01*
X2173545Y1682324D01*
X2176636Y1674864D01*
X2181552Y1668457D01*
X2187958Y1663541D01*
X2195419Y1660451D01*
X2203425Y1659397D01*
X2225000D01*
Y1706000D01*
D02*
G37*
G36*
X3577000Y1687000D02*
X3556030D01*
Y1677827D01*
X3556915Y1671105D01*
X3559509Y1664842D01*
X3563636Y1659463D01*
X3569015Y1655336D01*
X3575278Y1652742D01*
X3577000Y1652515D01*
Y1687000D01*
D02*
G37*
G36*
X3136161Y1657682D02*
X3120000D01*
Y1631614D01*
X3156894D01*
Y1636949D01*
X3155316Y1644883D01*
X3150822Y1651609D01*
X3144096Y1656104D01*
X3136161Y1657682D01*
D02*
G37*
G36*
X3044161D02*
X3028000D01*
Y1631614D01*
X3064894D01*
Y1636949D01*
X3063316Y1644883D01*
X3058822Y1651609D01*
X3052096Y1656104D01*
X3044161Y1657682D01*
D02*
G37*
G36*
X3110000D02*
X3093839D01*
X3085904Y1656104D01*
X3079178Y1651609D01*
X3074684Y1644883D01*
X3073106Y1636949D01*
Y1631614D01*
X3110000D01*
Y1657682D01*
D02*
G37*
G36*
X3018000D02*
X3001839D01*
X2993904Y1656104D01*
X2987178Y1651609D01*
X2982684Y1644883D01*
X2981106Y1636949D01*
Y1631614D01*
X3018000D01*
Y1657682D01*
D02*
G37*
G36*
X4495787Y2079488D02*
D01*
Y2074488D01*
X4456260D01*
Y2051772D01*
Y2001772D01*
Y1951772D01*
Y1901772D01*
Y1851772D01*
Y1801772D01*
Y1751772D01*
Y1701772D01*
Y1651772D01*
X4456260Y1601772D01*
X4451383Y1601475D01*
X3410171D01*
X3408510Y1603136D01*
X3401159Y1606181D01*
X3393203D01*
X3385852Y1603136D01*
X3380226Y1597510D01*
X3377181Y1590159D01*
Y1582203D01*
X3380226Y1574852D01*
X3385852Y1569226D01*
X3393203Y1566181D01*
X3401159D01*
X3408510Y1569226D01*
X3410171Y1570887D01*
X4176316D01*
X4178673Y1566477D01*
X4177472Y1564681D01*
X4176008Y1557323D01*
Y1553464D01*
X4210000D01*
X4243992D01*
Y1557323D01*
X4242528Y1564681D01*
X4241327Y1566477D01*
X4243684Y1570887D01*
X4249316D01*
X4251673Y1566477D01*
X4250472Y1564681D01*
X4249008Y1557323D01*
Y1539606D01*
X4250472Y1532248D01*
X4254640Y1526010D01*
X4260878Y1521842D01*
X4268236Y1520379D01*
X4297764D01*
X4305122Y1521842D01*
X4311360Y1526010D01*
X4312089Y1527101D01*
X4317671Y1528045D01*
X4325022Y1525000D01*
X4332978D01*
X4340329Y1528045D01*
X4345955Y1533671D01*
X4349000Y1541022D01*
Y1548978D01*
X4345955Y1556329D01*
X4340329Y1561955D01*
X4332978Y1565000D01*
X4325022D01*
X4320902Y1563293D01*
X4318489Y1563917D01*
X4317535Y1565887D01*
X4320671Y1570887D01*
X4561484D01*
X4577844Y1554527D01*
X4575773Y1549527D01*
X4517283D01*
Y1496829D01*
X4315711D01*
X4315528Y1497752D01*
X4311360Y1503990D01*
X4305122Y1508158D01*
X4297764Y1509621D01*
X4268236D01*
X4260878Y1508158D01*
X4254640Y1503990D01*
X4250472Y1497752D01*
X4250289Y1496829D01*
X4242711D01*
X4242528Y1497752D01*
X4238360Y1503990D01*
X4232122Y1508158D01*
X4224764Y1509621D01*
X4195236D01*
X4187878Y1508158D01*
X4181640Y1503990D01*
X4177472Y1497752D01*
X4176008Y1490394D01*
Y1472677D01*
X4177472Y1465319D01*
X4181640Y1459081D01*
X4187878Y1454913D01*
X4195236Y1453449D01*
X4224764D01*
X4232122Y1454913D01*
X4238360Y1459081D01*
X4242528Y1465319D01*
X4242711Y1466242D01*
X4250289D01*
X4250472Y1465319D01*
X4254640Y1459081D01*
X4260878Y1454913D01*
X4268236Y1453449D01*
X4297764D01*
X4305122Y1454913D01*
X4311360Y1459081D01*
X4315528Y1465319D01*
X4315711Y1466242D01*
X4528346D01*
X4529706Y1465126D01*
Y1436000D01*
X4530870Y1430147D01*
X4534186Y1425186D01*
X4560186Y1399186D01*
X4565147Y1395870D01*
X4571000Y1394706D01*
X4974665D01*
X4994308Y1375064D01*
X4992645Y1369655D01*
X4985565Y1364924D01*
X4980309Y1357058D01*
X4978463Y1347780D01*
Y1320220D01*
X4980309Y1310942D01*
X4985565Y1303076D01*
X4993430Y1297821D01*
X5002709Y1295975D01*
X5034205D01*
X5043483Y1297821D01*
X5051349Y1303076D01*
X5056605Y1310942D01*
X5058450Y1320220D01*
Y1347780D01*
X5056605Y1357058D01*
X5051349Y1364924D01*
X5043483Y1370179D01*
X5034205Y1372025D01*
X5033751D01*
Y1372543D01*
X5032586Y1378396D01*
X5029271Y1383358D01*
X5000248Y1412381D01*
X5001610Y1418090D01*
X5006329Y1420045D01*
X5011955Y1425671D01*
X5015000Y1433022D01*
Y1440978D01*
X5011955Y1448329D01*
X5010294Y1449990D01*
Y1470473D01*
X5029706D01*
Y1452990D01*
X5028045Y1451329D01*
X5025000Y1443978D01*
Y1436022D01*
X5028045Y1428671D01*
X5033671Y1423045D01*
X5041022Y1420000D01*
X5048978D01*
X5056329Y1423045D01*
X5061955Y1428671D01*
X5065000Y1436022D01*
Y1443978D01*
X5061955Y1451329D01*
X5060294Y1452990D01*
Y1470473D01*
X5190000D01*
Y1510000D01*
Y1549527D01*
X4760294D01*
Y1574706D01*
X5401706D01*
Y1550000D01*
X5402870Y1544147D01*
X5406186Y1539186D01*
X5421296Y1524075D01*
X5426257Y1520760D01*
X5432110Y1519596D01*
X5475252D01*
Y1499142D01*
X5546748D01*
Y1570638D01*
X5475252D01*
Y1550184D01*
X5438445D01*
X5432294Y1556335D01*
Y1584142D01*
X5431130Y1589995D01*
X5428897Y1593336D01*
X5431071Y1598336D01*
X5478552D01*
X5482395Y1591680D01*
X5489050Y1585024D01*
X5497202Y1580318D01*
X5506294Y1577882D01*
X5515706D01*
X5524798Y1580318D01*
X5532950Y1585024D01*
X5539605Y1591680D01*
X5544312Y1599832D01*
X5546748Y1608924D01*
Y1618336D01*
X5544312Y1627428D01*
X5539605Y1635580D01*
X5532950Y1642235D01*
X5524798Y1646942D01*
X5515706Y1649378D01*
X5506294D01*
X5497202Y1646942D01*
X5489050Y1642235D01*
X5482395Y1635580D01*
X5478552Y1628924D01*
X4720630D01*
X4714777Y1627760D01*
X4709815Y1624444D01*
X4684186Y1598814D01*
X4680870Y1593853D01*
X4679706Y1588000D01*
Y1549527D01*
X4610294D01*
Y1559000D01*
X4609130Y1564853D01*
X4605814Y1569814D01*
X4578633Y1596995D01*
X4573672Y1600311D01*
X4567819Y1601475D01*
X4540192D01*
X4535315Y1601772D01*
X4535315Y1606475D01*
Y1651772D01*
Y1701772D01*
Y1751772D01*
Y1801772D01*
Y1851772D01*
Y1901772D01*
Y1951772D01*
Y2001772D01*
Y2051772D01*
Y2074488D01*
X4495787D01*
Y2079488D01*
D02*
G37*
G36*
X212401Y1704580D02*
X137599D01*
X129335Y1703492D01*
X121635Y1700303D01*
X115023Y1695229D01*
X109949Y1688617D01*
X106760Y1680917D01*
X105672Y1672653D01*
Y1629347D01*
X106760Y1621083D01*
X109949Y1613383D01*
X115023Y1606771D01*
X121635Y1601697D01*
X129335Y1598508D01*
X137599Y1597420D01*
X212401D01*
X220665Y1598508D01*
X228365Y1601697D01*
X234977Y1606771D01*
X240051Y1613383D01*
X243240Y1621083D01*
X244328Y1629347D01*
Y1672653D01*
X243240Y1680917D01*
X240051Y1688617D01*
X234977Y1695229D01*
X228365Y1700303D01*
X220665Y1703492D01*
X212401Y1704580D01*
D02*
G37*
G36*
X3156894Y1621614D02*
X3120000D01*
Y1595546D01*
X3136161D01*
X3144096Y1597125D01*
X3150822Y1601619D01*
X3155316Y1608345D01*
X3156894Y1616280D01*
Y1621614D01*
D02*
G37*
G36*
X3110000D02*
X3073106D01*
Y1616280D01*
X3074684Y1608345D01*
X3079178Y1601619D01*
X3085904Y1597125D01*
X3093839Y1595546D01*
X3110000D01*
Y1621614D01*
D02*
G37*
G36*
X3064894D02*
X3028000D01*
Y1595546D01*
X3044161D01*
X3052096Y1597125D01*
X3058822Y1601619D01*
X3063316Y1608345D01*
X3064894Y1616280D01*
Y1621614D01*
D02*
G37*
G36*
X3018000D02*
X2981106D01*
Y1616280D01*
X2982684Y1608345D01*
X2987178Y1601619D01*
X2993904Y1597125D01*
X3001839Y1595546D01*
X3018000D01*
Y1621614D01*
D02*
G37*
G36*
X4243992Y1543464D02*
X4215000D01*
Y1520379D01*
X4224764D01*
X4232122Y1521842D01*
X4238360Y1526010D01*
X4242528Y1532248D01*
X4243992Y1539606D01*
Y1543464D01*
D02*
G37*
G36*
X4205000D02*
X4176008D01*
Y1539606D01*
X4177472Y1532248D01*
X4181640Y1526010D01*
X4187878Y1521842D01*
X4195236Y1520379D01*
X4205000D01*
Y1543464D01*
D02*
G37*
G36*
X5222717Y1549527D02*
X5200000D01*
Y1515000D01*
X5222717D01*
Y1549527D01*
D02*
G37*
G36*
Y1505000D02*
X5200000D01*
Y1470473D01*
X5222717D01*
Y1505000D01*
D02*
G37*
G36*
X5341291Y1372025D02*
X5330543D01*
Y1339000D01*
X5365537D01*
Y1347780D01*
X5363691Y1357058D01*
X5358435Y1364924D01*
X5350570Y1370179D01*
X5341291Y1372025D01*
D02*
G37*
G36*
X5320543D02*
X5309795D01*
X5300517Y1370179D01*
X5292651Y1364924D01*
X5287395Y1357058D01*
X5285550Y1347780D01*
Y1339000D01*
X5320543D01*
Y1372025D01*
D02*
G37*
G36*
X5365537Y1329000D02*
X5330543D01*
Y1295975D01*
X5341291D01*
X5350570Y1297821D01*
X5358435Y1303076D01*
X5363691Y1310942D01*
X5365537Y1320220D01*
Y1329000D01*
D02*
G37*
G36*
X5320543D02*
X5285550D01*
Y1320220D01*
X5287395Y1310942D01*
X5292651Y1303076D01*
X5300517Y1297821D01*
X5309795Y1295975D01*
X5320543D01*
Y1329000D01*
D02*
G37*
G36*
X4851000Y1145000D02*
X4721000D01*
Y1005000D01*
X4851000D01*
Y1145000D01*
D02*
G37*
G36*
X4450667D02*
X4320667D01*
Y1005000D01*
X4450667D01*
Y1145000D01*
D02*
G37*
G36*
X4050333D02*
X3920333D01*
Y1005000D01*
X4050333D01*
Y1145000D01*
D02*
G37*
G36*
X3650000D02*
X3520000D01*
Y1005000D01*
X3650000D01*
Y1145000D01*
D02*
G37*
G36*
X5497308Y1241268D02*
X5478692D01*
X5460306Y1238355D01*
X5442601Y1232603D01*
X5426014Y1224152D01*
X5410954Y1213209D01*
X5397791Y1200046D01*
X5386848Y1184986D01*
X5378397Y1168399D01*
X5372645Y1150694D01*
X5369732Y1132308D01*
Y1113692D01*
X5372645Y1095306D01*
X5378397Y1077601D01*
X5386848Y1061014D01*
X5397791Y1045954D01*
X5410954Y1032791D01*
X5426014Y1021848D01*
X5442601Y1013397D01*
X5460306Y1007644D01*
X5478692Y1004732D01*
X5497308D01*
X5515694Y1007644D01*
X5533399Y1013397D01*
X5549986Y1021848D01*
X5565046Y1032791D01*
X5578209Y1045954D01*
X5589152Y1061014D01*
X5597603Y1077601D01*
X5603355Y1095306D01*
X5606268Y1113692D01*
Y1132308D01*
X5603355Y1150694D01*
X5597603Y1168399D01*
X5589152Y1184986D01*
X5578209Y1200046D01*
X5565046Y1213209D01*
X5549986Y1224152D01*
X5533399Y1232603D01*
X5515694Y1238355D01*
X5497308Y1241268D01*
D02*
G37*
G36*
X182347D02*
X163732D01*
X145345Y1238355D01*
X127640Y1232603D01*
X111054Y1224152D01*
X95993Y1213209D01*
X82830Y1200046D01*
X71888Y1184986D01*
X63436Y1168399D01*
X57684Y1150694D01*
X54772Y1132308D01*
Y1113692D01*
X57684Y1095306D01*
X63436Y1077601D01*
X71888Y1061014D01*
X82830Y1045954D01*
X95993Y1032791D01*
X111054Y1021848D01*
X127640Y1013397D01*
X145345Y1007644D01*
X163732Y1004732D01*
X182347D01*
X200734Y1007644D01*
X218438Y1013397D01*
X235025Y1021848D01*
X250086Y1032791D01*
X263249Y1045954D01*
X274191Y1061014D01*
X282642Y1077601D01*
X288395Y1095306D01*
X291307Y1113692D01*
Y1132308D01*
X288395Y1150694D01*
X282642Y1168399D01*
X274191Y1184986D01*
X263249Y1200046D01*
X250086Y1213209D01*
X235025Y1224152D01*
X218438Y1232603D01*
X200734Y1238355D01*
X182347Y1241268D01*
D02*
G37*
G36*
X4586000Y1145314D02*
X4573258Y1144060D01*
X4561005Y1140343D01*
X4549713Y1134307D01*
X4539816Y1126184D01*
X4531693Y1116287D01*
X4525657Y1104995D01*
X4521940Y1092742D01*
X4520685Y1080000D01*
Y1070000D01*
X4521940Y1057258D01*
X4525657Y1045005D01*
X4531693Y1033713D01*
X4539816Y1023816D01*
X4549713Y1015693D01*
X4561005Y1009657D01*
X4573258Y1005941D01*
X4586000Y1004686D01*
X4598742Y1005941D01*
X4610995Y1009657D01*
X4622287Y1015693D01*
X4632184Y1023816D01*
X4640307Y1033713D01*
X4646343Y1045005D01*
X4650059Y1057258D01*
X4651314Y1070000D01*
Y1080000D01*
X4650059Y1092742D01*
X4646343Y1104995D01*
X4640307Y1116287D01*
X4632184Y1126184D01*
X4622287Y1134307D01*
X4610995Y1140343D01*
X4598742Y1144060D01*
X4586000Y1145314D01*
D02*
G37*
G36*
X4185667D02*
X4172924Y1144060D01*
X4160672Y1140343D01*
X4149380Y1134307D01*
X4139482Y1126184D01*
X4131360Y1116287D01*
X4125324Y1104995D01*
X4121607Y1092742D01*
X4120352Y1080000D01*
Y1070000D01*
X4121607Y1057258D01*
X4125324Y1045005D01*
X4131360Y1033713D01*
X4139482Y1023816D01*
X4149380Y1015693D01*
X4160672Y1009657D01*
X4172924Y1005941D01*
X4185667Y1004686D01*
X4198409Y1005941D01*
X4210661Y1009657D01*
X4221953Y1015693D01*
X4231851Y1023816D01*
X4239974Y1033713D01*
X4246009Y1045005D01*
X4249726Y1057258D01*
X4250981Y1070000D01*
Y1080000D01*
X4249726Y1092742D01*
X4246009Y1104995D01*
X4239974Y1116287D01*
X4231851Y1126184D01*
X4221953Y1134307D01*
X4210661Y1140343D01*
X4198409Y1144060D01*
X4185667Y1145314D01*
D02*
G37*
G36*
X3785333D02*
X3772591Y1144060D01*
X3760338Y1140343D01*
X3749046Y1134307D01*
X3739149Y1126184D01*
X3731026Y1116287D01*
X3724991Y1104995D01*
X3721274Y1092742D01*
X3720019Y1080000D01*
Y1070000D01*
X3721274Y1057258D01*
X3724991Y1045005D01*
X3731026Y1033713D01*
X3739149Y1023816D01*
X3749046Y1015693D01*
X3760338Y1009657D01*
X3772591Y1005941D01*
X3785333Y1004686D01*
X3798075Y1005941D01*
X3810328Y1009657D01*
X3821620Y1015693D01*
X3831518Y1023816D01*
X3839640Y1033713D01*
X3845676Y1045005D01*
X3849393Y1057258D01*
X3850648Y1070000D01*
Y1080000D01*
X3849393Y1092742D01*
X3845676Y1104995D01*
X3839640Y1116287D01*
X3831518Y1126184D01*
X3821620Y1134307D01*
X3810328Y1140343D01*
X3798075Y1144060D01*
X3785333Y1145314D01*
D02*
G37*
G36*
X3385000D02*
X3372258Y1144060D01*
X3360005Y1140343D01*
X3348713Y1134307D01*
X3338816Y1126184D01*
X3330693Y1116287D01*
X3324657Y1104995D01*
X3320941Y1092742D01*
X3319686Y1080000D01*
Y1070000D01*
X3320941Y1057258D01*
X3324657Y1045005D01*
X3330693Y1033713D01*
X3338816Y1023816D01*
X3348713Y1015693D01*
X3360005Y1009657D01*
X3372258Y1005941D01*
X3385000Y1004686D01*
X3397742Y1005941D01*
X3409995Y1009657D01*
X3421287Y1015693D01*
X3431184Y1023816D01*
X3439307Y1033713D01*
X3445343Y1045005D01*
X3449059Y1057258D01*
X3450314Y1070000D01*
Y1080000D01*
X3449059Y1092742D01*
X3445343Y1104995D01*
X3439307Y1116287D01*
X3431184Y1126184D01*
X3421287Y1134307D01*
X3409995Y1140343D01*
X3397742Y1144060D01*
X3385000Y1145314D01*
D02*
G37*
G36*
X5153949Y834894D02*
X5133279D01*
X5125345Y833316D01*
X5118619Y828822D01*
X5114125Y822096D01*
X5112546Y814161D01*
Y808294D01*
X5101445D01*
X5100087Y815122D01*
X5095919Y821360D01*
X5089681Y825528D01*
X5082323Y826991D01*
X5064606D01*
X5057248Y825528D01*
X5051010Y821360D01*
X5046842Y815122D01*
X5045379Y807764D01*
Y778236D01*
X5046842Y770878D01*
X5051010Y764640D01*
X5057248Y760472D01*
X5064606Y759009D01*
X5082323D01*
X5089681Y760472D01*
X5095919Y764640D01*
X5100087Y770878D01*
X5101445Y777706D01*
X5112546D01*
Y771839D01*
X5114125Y763904D01*
X5118619Y757178D01*
X5125345Y752684D01*
X5133279Y751106D01*
X5153949D01*
X5161883Y752684D01*
X5168609Y757178D01*
X5173104Y763904D01*
X5174682Y771839D01*
Y814161D01*
X5173104Y822096D01*
X5168609Y828822D01*
X5161883Y833316D01*
X5153949Y834894D01*
D02*
G37*
G36*
X4621366D02*
X4600697D01*
X4592762Y833316D01*
X4586036Y828822D01*
X4581542Y822096D01*
X4579964Y814161D01*
Y808294D01*
X4565981D01*
X4564622Y815122D01*
X4560454Y821360D01*
X4554216Y825528D01*
X4546858Y826991D01*
X4529142D01*
X4521784Y825528D01*
X4515546Y821360D01*
X4511378Y815122D01*
X4509914Y807764D01*
Y778236D01*
X4511378Y770878D01*
X4515546Y764640D01*
X4521784Y760472D01*
X4529142Y759009D01*
X4546858D01*
X4554216Y760472D01*
X4560454Y764640D01*
X4564622Y770878D01*
X4565981Y777706D01*
X4579964D01*
Y771839D01*
X4581542Y763904D01*
X4586036Y757178D01*
X4592762Y752684D01*
X4600697Y751106D01*
X4621366D01*
X4629300Y752684D01*
X4636026Y757178D01*
X4640521Y763904D01*
X4642099Y771839D01*
Y814161D01*
X4640521Y822096D01*
X4636026Y828822D01*
X4629300Y833316D01*
X4621366Y834894D01*
D02*
G37*
G36*
X3561563D02*
X3540894D01*
X3532959Y833316D01*
X3526233Y828822D01*
X3521739Y822096D01*
X3520161Y814161D01*
Y808294D01*
X3506981D01*
X3505622Y815122D01*
X3501454Y821360D01*
X3495216Y825528D01*
X3487858Y826991D01*
X3470142D01*
X3462784Y825528D01*
X3456546Y821360D01*
X3452378Y815122D01*
X3450914Y807764D01*
Y778236D01*
X3452378Y770878D01*
X3456546Y764640D01*
X3462784Y760472D01*
X3470142Y759009D01*
X3487858D01*
X3495216Y760472D01*
X3501454Y764640D01*
X3505622Y770878D01*
X3506981Y777706D01*
X3520161D01*
Y771839D01*
X3521739Y763904D01*
X3526233Y757178D01*
X3532959Y752684D01*
X3540894Y751106D01*
X3561563D01*
X3569497Y752684D01*
X3576223Y757178D01*
X3580718Y763904D01*
X3582296Y771839D01*
Y814161D01*
X3580718Y822096D01*
X3576223Y828822D01*
X3569497Y833316D01*
X3561563Y834894D01*
D02*
G37*
G36*
X5310220Y706543D02*
X5297480D01*
X5285174Y703246D01*
X5274141Y696876D01*
X5265132Y687867D01*
X5258762Y676834D01*
X5255464Y664528D01*
Y651787D01*
X5258762Y639481D01*
X5265132Y628448D01*
X5274141Y619439D01*
X5285174Y613069D01*
X5297480Y609772D01*
X5310220D01*
X5322526Y613069D01*
X5333560Y619439D01*
X5342569Y628448D01*
X5348939Y639481D01*
X5352236Y651787D01*
Y664528D01*
X5348939Y676834D01*
X5342569Y687867D01*
X5333560Y696876D01*
X5322526Y703246D01*
X5310220Y706543D01*
D02*
G37*
G36*
X4916520D02*
X4903779D01*
X4891473Y703246D01*
X4880440Y696876D01*
X4871431Y687867D01*
X4865061Y676834D01*
X4861764Y664528D01*
Y651787D01*
X4865061Y639481D01*
X4871431Y628448D01*
X4880440Y619439D01*
X4891473Y613069D01*
X4903779Y609772D01*
X4916520D01*
X4928826Y613069D01*
X4939859Y619439D01*
X4948868Y628448D01*
X4955238Y639481D01*
X4958535Y651787D01*
Y664528D01*
X4955238Y676834D01*
X4948868Y687867D01*
X4939859Y696876D01*
X4928826Y703246D01*
X4916520Y706543D01*
D02*
G37*
G36*
X4782554D02*
X4769814D01*
X4757507Y703246D01*
X4746474Y696876D01*
X4737465Y687867D01*
X4731095Y676834D01*
X4727798Y664528D01*
Y651787D01*
X4731095Y639481D01*
X4737465Y628448D01*
X4746474Y619439D01*
X4757507Y613069D01*
X4769814Y609772D01*
X4782554D01*
X4794860Y613069D01*
X4805893Y619439D01*
X4814902Y628448D01*
X4821272Y639481D01*
X4824569Y651787D01*
Y664528D01*
X4821272Y676834D01*
X4814902Y687867D01*
X4805893Y696876D01*
X4794860Y703246D01*
X4782554Y706543D01*
D02*
G37*
G36*
X4388853D02*
X4376113D01*
X4363807Y703246D01*
X4352773Y696876D01*
X4343765Y687867D01*
X4337394Y676834D01*
X4334097Y664528D01*
Y651787D01*
X4337394Y639481D01*
X4343765Y628448D01*
X4352773Y619439D01*
X4363807Y613069D01*
X4376113Y609772D01*
X4388853D01*
X4401159Y613069D01*
X4412192Y619439D01*
X4421201Y628448D01*
X4427571Y639481D01*
X4430869Y651787D01*
Y664528D01*
X4427571Y676834D01*
X4421201Y687867D01*
X4412192Y696876D01*
X4401159Y703246D01*
X4388853Y706543D01*
D02*
G37*
G36*
X4254887D02*
X4242147D01*
X4229841Y703246D01*
X4218807Y696876D01*
X4209799Y687867D01*
X4203429Y676834D01*
X4200131Y664528D01*
Y651787D01*
X4203429Y639481D01*
X4209799Y628448D01*
X4218807Y619439D01*
X4229841Y613069D01*
X4242147Y609772D01*
X4254887D01*
X4267193Y613069D01*
X4278227Y619439D01*
X4287235Y628448D01*
X4293605Y639481D01*
X4296903Y651787D01*
Y664528D01*
X4293605Y676834D01*
X4287235Y687867D01*
X4278227Y696876D01*
X4267193Y703246D01*
X4254887Y706543D01*
D02*
G37*
G36*
X3861186D02*
X3848446D01*
X3836140Y703246D01*
X3825107Y696876D01*
X3816098Y687867D01*
X3809728Y676834D01*
X3806430Y664528D01*
Y651787D01*
X3809728Y639481D01*
X3816098Y628448D01*
X3825107Y619439D01*
X3836140Y613069D01*
X3848446Y609772D01*
X3861186D01*
X3873492Y613069D01*
X3884526Y619439D01*
X3893535Y628448D01*
X3899905Y639481D01*
X3903202Y651787D01*
Y664528D01*
X3899905Y676834D01*
X3893535Y687867D01*
X3884526Y696876D01*
X3873492Y703246D01*
X3861186Y706543D01*
D02*
G37*
G36*
X3727220D02*
X3714480D01*
X3702174Y703246D01*
X3691141Y696876D01*
X3682132Y687867D01*
X3675762Y676834D01*
X3672465Y664528D01*
Y651787D01*
X3675762Y639481D01*
X3682132Y628448D01*
X3691141Y619439D01*
X3702174Y613069D01*
X3714480Y609772D01*
X3727220D01*
X3739527Y613069D01*
X3750560Y619439D01*
X3759569Y628448D01*
X3765939Y639481D01*
X3769236Y651787D01*
Y664528D01*
X3765939Y676834D01*
X3759569Y687867D01*
X3750560Y696876D01*
X3739527Y703246D01*
X3727220Y706543D01*
D02*
G37*
G36*
X3333520D02*
X3320780D01*
X3308473Y703246D01*
X3297440Y696876D01*
X3288431Y687867D01*
X3282061Y676834D01*
X3278764Y664528D01*
Y651787D01*
X3282061Y639481D01*
X3288431Y628448D01*
X3297440Y619439D01*
X3308473Y613069D01*
X3320780Y609772D01*
X3333520D01*
X3345826Y613069D01*
X3356859Y619439D01*
X3365868Y628448D01*
X3372238Y639481D01*
X3375535Y651787D01*
Y664528D01*
X3372238Y676834D01*
X3365868Y687867D01*
X3356859Y696876D01*
X3345826Y703246D01*
X3333520Y706543D01*
D02*
G37*
G36*
X1534032Y642237D02*
X1519653D01*
X1505552Y639433D01*
X1492268Y633930D01*
X1480313Y625942D01*
X1470146Y615775D01*
X1462158Y603820D01*
X1456656Y590536D01*
X1453851Y576434D01*
Y562056D01*
X1456656Y547954D01*
X1462158Y534671D01*
X1470146Y522716D01*
X1480313Y512549D01*
X1492268Y504561D01*
X1505552Y499058D01*
X1519653Y496253D01*
X1534032D01*
X1548134Y499058D01*
X1561417Y504561D01*
X1573372Y512549D01*
X1583539Y522716D01*
X1591527Y534671D01*
X1597030Y547954D01*
X1599835Y562056D01*
Y576434D01*
X1597030Y590536D01*
X1591527Y603820D01*
X1583539Y615775D01*
X1573372Y625942D01*
X1561417Y633930D01*
X1548134Y639433D01*
X1534032Y642237D01*
D02*
G37*
G36*
X774189D02*
X759811D01*
X745709Y639433D01*
X732425Y633930D01*
X720470Y625942D01*
X710303Y615775D01*
X702315Y603820D01*
X696813Y590536D01*
X694008Y576434D01*
Y562056D01*
X696813Y547954D01*
X702315Y534671D01*
X710303Y522716D01*
X720470Y512549D01*
X732425Y504561D01*
X745709Y499058D01*
X759811Y496253D01*
X774189D01*
X788291Y499058D01*
X801575Y504561D01*
X813530Y512549D01*
X823697Y522716D01*
X831685Y534671D01*
X837187Y547954D01*
X839992Y562056D01*
Y576434D01*
X837187Y590536D01*
X831685Y603820D01*
X823697Y615775D01*
X813530Y625942D01*
X801575Y633930D01*
X788291Y639433D01*
X774189Y642237D01*
D02*
G37*
G36*
X3050000Y603392D02*
X3048030Y603000D01*
X3046022D01*
X3044166Y602231D01*
X3042196Y601840D01*
X3040526Y600724D01*
X3038671Y599955D01*
X3037251Y598535D01*
X3035581Y597419D01*
X3034465Y595749D01*
X3033045Y594329D01*
X3032276Y592473D01*
X3031160Y590804D01*
X3030769Y588834D01*
X3030000Y586978D01*
Y584970D01*
X3029608Y583000D01*
Y569363D01*
X3023617Y565360D01*
X3019448Y559122D01*
X3017985Y551764D01*
Y522236D01*
X3019448Y514878D01*
X3023617Y508640D01*
X3029854Y504472D01*
X3031982Y504049D01*
Y498951D01*
X3029854Y498528D01*
X3023617Y494360D01*
X3019448Y488122D01*
X3017985Y480764D01*
Y471000D01*
X3046071D01*
X3074157D01*
Y480764D01*
X3072693Y488122D01*
X3068525Y494360D01*
X3062287Y498528D01*
X3060160Y498951D01*
Y504049D01*
X3062287Y504472D01*
X3068525Y508640D01*
X3072693Y514878D01*
X3074157Y522236D01*
Y551764D01*
X3072693Y559122D01*
X3070392Y562566D01*
Y583000D01*
X3070000Y584970D01*
Y586978D01*
X3069231Y588834D01*
X3068840Y590804D01*
X3067724Y592473D01*
X3066955Y594329D01*
X3065535Y595749D01*
X3064419Y597419D01*
X3062749Y598535D01*
X3061329Y599955D01*
X3059474Y600724D01*
X3057804Y601840D01*
X3055834Y602231D01*
X3053978Y603000D01*
X3051970D01*
X3050000Y603392D01*
D02*
G37*
G36*
X3074157Y461000D02*
X3051071D01*
Y432009D01*
X3054929D01*
X3062287Y433472D01*
X3068525Y437640D01*
X3072693Y443878D01*
X3074157Y451236D01*
Y461000D01*
D02*
G37*
G36*
X3041071D02*
X3017985D01*
Y451236D01*
X3019448Y443878D01*
X3023617Y437640D01*
X3029854Y433472D01*
X3037213Y432009D01*
X3041071D01*
Y461000D01*
D02*
G37*
G36*
X3121858Y570991D02*
X3104142D01*
X3096784Y569528D01*
X3090546Y565360D01*
X3086378Y559122D01*
X3084914Y551764D01*
Y522236D01*
X3086378Y514878D01*
X3090546Y508640D01*
X3096784Y504472D01*
X3097706Y504289D01*
Y498711D01*
X3096784Y498528D01*
X3090546Y494360D01*
X3086378Y488122D01*
X3084914Y480764D01*
Y451236D01*
X3086378Y443878D01*
X3090546Y437640D01*
X3093706Y435529D01*
Y392038D01*
X3088905Y391406D01*
X3078567Y387124D01*
X3069689Y380311D01*
X3062876Y371433D01*
X3058594Y361095D01*
X3057133Y350000D01*
X3058594Y338905D01*
X3062876Y328567D01*
X3069689Y319689D01*
X3078567Y312876D01*
X3088905Y308594D01*
X3100000Y307133D01*
X3110000D01*
X3121095Y308594D01*
X3131433Y312876D01*
X3140311Y319689D01*
X3147124Y328567D01*
X3151406Y338905D01*
X3152867Y350000D01*
X3151406Y361095D01*
X3147124Y371433D01*
X3140311Y380311D01*
X3131433Y387124D01*
X3124294Y390081D01*
Y432493D01*
X3129216Y433472D01*
X3135454Y437640D01*
X3139622Y443878D01*
X3141086Y451236D01*
Y480764D01*
X3139622Y488122D01*
X3135454Y494360D01*
X3129216Y498528D01*
X3128294Y498711D01*
Y504289D01*
X3129216Y504472D01*
X3135454Y508640D01*
X3139622Y514878D01*
X3141086Y522236D01*
Y551764D01*
X3139622Y559122D01*
X3135454Y565360D01*
X3129216Y569528D01*
X3121858Y570991D01*
D02*
G37*
G36*
X2860000Y392867D02*
X2850000D01*
X2838905Y391406D01*
X2828567Y387124D01*
X2819689Y380311D01*
X2812876Y371433D01*
X2808594Y361095D01*
X2807133Y350000D01*
X2808594Y338905D01*
X2812876Y328567D01*
X2819689Y319689D01*
X2828567Y312876D01*
X2838905Y308594D01*
X2850000Y307133D01*
X2860000D01*
X2871095Y308594D01*
X2881433Y312876D01*
X2890311Y319689D01*
X2897124Y328567D01*
X2901406Y338905D01*
X2902867Y350000D01*
X2901406Y361095D01*
X2897124Y371433D01*
X2890311Y380311D01*
X2881433Y387124D01*
X2871095Y391406D01*
X2860000Y392867D01*
D02*
G37*
G36*
X5015394Y826991D02*
X4997677D01*
X4990319Y825528D01*
X4984081Y821360D01*
X4979913Y815122D01*
X4978449Y807764D01*
Y778236D01*
X4979913Y770878D01*
X4984081Y764640D01*
X4986144Y763262D01*
Y361415D01*
X4926912Y302184D01*
X4916520Y304969D01*
X4903779D01*
X4891473Y301671D01*
X4880440Y295301D01*
X4871431Y286292D01*
X4865061Y275259D01*
X4861764Y262953D01*
Y250213D01*
X4865061Y237906D01*
X4871431Y226873D01*
X4880440Y217864D01*
X4891473Y211494D01*
X4903779Y208197D01*
X4916520D01*
X4928826Y211494D01*
X4939859Y217864D01*
X4948868Y226873D01*
X4955238Y237906D01*
X4958535Y250213D01*
Y262953D01*
X4955751Y273345D01*
X5020955Y338550D01*
X5025375Y345165D01*
X5026927Y352969D01*
Y763262D01*
X5028990Y764640D01*
X5033158Y770878D01*
X5034622Y778236D01*
Y807764D01*
X5033158Y815122D01*
X5028990Y821360D01*
X5022752Y825528D01*
X5015394Y826991D01*
D02*
G37*
G36*
X4479929D02*
X4462213D01*
X4454855Y825528D01*
X4448617Y821360D01*
X4444449Y815122D01*
X4442985Y807764D01*
Y778236D01*
X4444449Y770878D01*
X4448617Y764640D01*
X4450679Y763262D01*
Y353617D01*
X4399245Y302184D01*
X4388853Y304969D01*
X4376113D01*
X4363807Y301671D01*
X4352773Y295301D01*
X4343765Y286292D01*
X4337394Y275259D01*
X4334097Y262953D01*
Y250213D01*
X4337394Y237906D01*
X4343765Y226873D01*
X4352773Y217864D01*
X4363807Y211494D01*
X4376113Y208197D01*
X4388853D01*
X4401159Y211494D01*
X4412192Y217864D01*
X4421201Y226873D01*
X4427571Y237906D01*
X4430869Y250213D01*
Y262953D01*
X4428084Y273345D01*
X4485490Y330752D01*
X4489910Y337367D01*
X4491463Y345171D01*
Y763262D01*
X4493525Y764640D01*
X4497693Y770878D01*
X4499157Y778236D01*
Y807764D01*
X4497693Y815122D01*
X4493525Y821360D01*
X4487287Y825528D01*
X4479929Y826991D01*
D02*
G37*
G36*
X3947929D02*
X3930213D01*
X3922854Y825528D01*
X3916617Y821360D01*
X3912448Y815122D01*
X3910985Y807764D01*
Y778236D01*
X3912448Y770878D01*
X3916617Y764640D01*
X3918679Y763262D01*
Y349284D01*
X3871579Y302184D01*
X3861186Y304969D01*
X3848446D01*
X3836140Y301671D01*
X3825107Y295301D01*
X3816098Y286292D01*
X3809728Y275259D01*
X3806430Y262953D01*
Y250213D01*
X3809728Y237906D01*
X3816098Y226873D01*
X3825107Y217864D01*
X3836140Y211494D01*
X3848446Y208197D01*
X3861186D01*
X3873492Y211494D01*
X3884526Y217864D01*
X3893535Y226873D01*
X3899905Y237906D01*
X3903202Y250213D01*
Y262953D01*
X3900417Y273345D01*
X3953490Y326418D01*
X3957910Y333034D01*
X3959463Y340837D01*
Y763262D01*
X3961525Y764640D01*
X3965693Y770878D01*
X3967157Y778236D01*
Y807764D01*
X3965693Y815122D01*
X3961525Y821360D01*
X3955287Y825528D01*
X3947929Y826991D01*
D02*
G37*
G36*
X2092764Y336462D02*
X2083000D01*
Y301449D01*
X2118013D01*
Y311212D01*
X2116091Y320875D01*
X2110617Y329066D01*
X2102426Y334539D01*
X2092764Y336462D01*
D02*
G37*
G36*
X2073000D02*
X2063236D01*
X2053574Y334539D01*
X2045383Y329066D01*
X2039909Y320875D01*
X2037987Y311212D01*
Y301449D01*
X2073000D01*
Y336462D01*
D02*
G37*
G36*
X2118013Y291449D02*
X2083000D01*
Y256436D01*
X2092764D01*
X2102426Y258358D01*
X2110617Y263831D01*
X2116091Y272023D01*
X2118013Y281685D01*
Y291449D01*
D02*
G37*
G36*
X2073000D02*
X2037987D01*
Y281685D01*
X2039909Y272023D01*
X2045383Y263831D01*
X2053574Y258358D01*
X2063236Y256436D01*
X2073000D01*
Y291449D01*
D02*
G37*
G36*
X3111000Y215867D02*
D01*
Y178000D01*
X3153209D01*
X3152406Y184095D01*
X3148124Y194433D01*
X3141311Y203311D01*
X3132433Y210124D01*
X3122095Y214406D01*
X3111000Y215867D01*
D02*
G37*
G36*
X3101000D02*
X3089905Y214406D01*
X3079567Y210124D01*
X3070689Y203311D01*
X3063876Y194433D01*
X3059594Y184095D01*
X3058791Y178000D01*
X3101000D01*
Y215867D01*
D02*
G37*
G36*
X2861000Y214867D02*
D01*
Y177000D01*
X2903209D01*
X2902406Y183095D01*
X2898124Y193433D01*
X2891311Y202311D01*
X2882433Y209124D01*
X2872095Y213406D01*
X2861000Y214867D01*
D02*
G37*
G36*
X2851000D02*
X2839905Y213406D01*
X2829567Y209124D01*
X2820689Y202311D01*
X2813876Y193433D01*
X2809594Y183095D01*
X2808791Y177000D01*
X2851000D01*
Y214867D01*
D02*
G37*
G36*
X980739Y3153552D02*
X767000D01*
X755238Y3152393D01*
X743928Y3148962D01*
X733505Y3143391D01*
X724368Y3135893D01*
X716870Y3126757D01*
X711299Y3116333D01*
X707868Y3105023D01*
X706710Y3093261D01*
X707868Y3081499D01*
X711299Y3070189D01*
X716870Y3059766D01*
X724368Y3050630D01*
X733505Y3043132D01*
X743928Y3037560D01*
X755238Y3034129D01*
X767000Y3032971D01*
X955766D01*
X1097710Y2891027D01*
Y368000D01*
X1098868Y356238D01*
X1102299Y344928D01*
X1107870Y334505D01*
X1115368Y325368D01*
X1260186Y180551D01*
X1269322Y173053D01*
X1279745Y167481D01*
X1291055Y164050D01*
X1302818Y162892D01*
X1526843D01*
X1538605Y164051D01*
X1549915Y167481D01*
X1560338Y173053D01*
X1569474Y180551D01*
X1576972Y189687D01*
X1582544Y200110D01*
X1585974Y211420D01*
X1587133Y223182D01*
X1585974Y234945D01*
X1582544Y246255D01*
X1576972Y256678D01*
X1569474Y265814D01*
X1560338Y273312D01*
X1549915Y278883D01*
X1538605Y282314D01*
X1526843Y283473D01*
X1327791D01*
X1218290Y392973D01*
Y2916000D01*
X1217132Y2927762D01*
X1213701Y2939072D01*
X1208130Y2949495D01*
X1200632Y2958632D01*
X1023370Y3135893D01*
X1014234Y3143391D01*
X1003811Y3148962D01*
X992501Y3152393D01*
X980739Y3153552D01*
D02*
G37*
G36*
X413039Y1526251D02*
X175000D01*
X163238Y1525092D01*
X151928Y1521662D01*
X147960Y1519541D01*
X137599D01*
X129335Y1518453D01*
X121635Y1515263D01*
X115023Y1510190D01*
X109949Y1503577D01*
X106760Y1495877D01*
X105672Y1487614D01*
Y1444307D01*
X106760Y1436044D01*
X109949Y1428344D01*
X115023Y1421732D01*
X121635Y1416658D01*
X129335Y1413468D01*
X137599Y1412380D01*
X147960D01*
X151928Y1410260D01*
X163238Y1406829D01*
X175000Y1405670D01*
X388066D01*
X461710Y1332027D01*
Y321000D01*
X462868Y309238D01*
X466299Y297928D01*
X471870Y287505D01*
X479368Y278368D01*
X577186Y180551D01*
X586322Y173053D01*
X596745Y167481D01*
X608056Y164050D01*
X619818Y162892D01*
X767000D01*
X778762Y164051D01*
X790072Y167481D01*
X800495Y173053D01*
X809632Y180551D01*
X817130Y189687D01*
X822701Y200110D01*
X826132Y211420D01*
X827290Y223182D01*
X826132Y234945D01*
X822701Y246255D01*
X817130Y256678D01*
X809632Y265814D01*
X800495Y273312D01*
X790072Y278883D01*
X778762Y282314D01*
X767000Y283473D01*
X644791D01*
X582290Y345973D01*
Y1356999D01*
X582290Y1357000D01*
X581132Y1368762D01*
X577701Y1380072D01*
X572130Y1390495D01*
X564632Y1399632D01*
X455671Y1508592D01*
X446535Y1516090D01*
X436111Y1521662D01*
X424801Y1525092D01*
X413039Y1526251D01*
D02*
G37*
G36*
X3153209Y168000D02*
X3111000D01*
Y130133D01*
X3122095Y131594D01*
X3132433Y135876D01*
X3141311Y142689D01*
X3148124Y151567D01*
X3152406Y161905D01*
X3153209Y168000D01*
D02*
G37*
G36*
X3101000D02*
X3058791D01*
X3059594Y161905D01*
X3063876Y151567D01*
X3070689Y142689D01*
X3079567Y135876D01*
X3089905Y131594D01*
X3101000Y130133D01*
D01*
Y168000D01*
D02*
G37*
G36*
X2903209Y167000D02*
X2861000D01*
Y129133D01*
X2872095Y130594D01*
X2882433Y134876D01*
X2891311Y141689D01*
X2898124Y150567D01*
X2902406Y160905D01*
X2903209Y167000D01*
D02*
G37*
G36*
X2851000D02*
X2808791D01*
X2809594Y160905D01*
X2813876Y150567D01*
X2820689Y141689D01*
X2829567Y134876D01*
X2839905Y130594D01*
X2851000Y129133D01*
D01*
Y167000D01*
D02*
G37*
G36*
X5155386Y206543D02*
X5058614D01*
Y109772D01*
X5155386D01*
Y206543D01*
D02*
G37*
G36*
X4627719D02*
X4530947D01*
Y109772D01*
X4627719D01*
Y206543D01*
D02*
G37*
G36*
X4100052D02*
X4003281D01*
Y109772D01*
X4100052D01*
Y206543D01*
D02*
G37*
G36*
X3572386D02*
X3475614D01*
Y109772D01*
X3572386D01*
Y206543D01*
D02*
G37*
%LPD*%
G36*
X4511606Y2735606D02*
X4511606Y2735606D01*
X4511607Y2735606D01*
X4511608Y2735606D01*
X4516183Y2734938D01*
X4518766Y2733988D01*
X4522424Y2730610D01*
X4524509Y2726089D01*
X4524606Y2723601D01*
X4524607Y2581606D01*
X4524606Y2581606D01*
X4524607Y2579418D01*
X4522932Y2575375D01*
X4519837Y2572281D01*
X4515794Y2570606D01*
X4513606Y2570607D01*
X4403607Y2570607D01*
X4400623Y2570606D01*
X4395110Y2572890D01*
X4390890Y2577110D01*
X4388607Y2582623D01*
X4388607Y2585607D01*
X4388607Y2719606D01*
X4388607Y2719607D01*
X4388607Y2719607D01*
X4389249Y2724341D01*
X4391042Y2728670D01*
X4395543Y2733171D01*
X4401424Y2735606D01*
X4404606Y2735606D01*
X4502607Y2735607D01*
X4511606Y2735606D01*
D02*
G37*
G36*
X2700706Y1995619D02*
X2667381Y1962294D01*
X2600000D01*
X2594147Y1961130D01*
X2589186Y1957814D01*
X2565186Y1933814D01*
X2561870Y1928853D01*
X2560706Y1923000D01*
Y1920990D01*
X2559045Y1919329D01*
X2556000Y1911978D01*
Y1904022D01*
X2559045Y1896671D01*
X2560706Y1895010D01*
Y1888445D01*
X2553878Y1887087D01*
X2547640Y1882919D01*
X2543472Y1876681D01*
X2542008Y1869323D01*
Y1851606D01*
X2543472Y1844248D01*
X2547640Y1838010D01*
X2553878Y1833842D01*
X2561236Y1832379D01*
X2590764D01*
X2598122Y1833842D01*
X2604360Y1838010D01*
X2608528Y1844248D01*
X2609992Y1851606D01*
Y1869323D01*
X2608528Y1876681D01*
X2604360Y1882919D01*
X2598122Y1887087D01*
X2591294Y1888445D01*
Y1895010D01*
X2592955Y1896671D01*
X2596000Y1904022D01*
Y1911978D01*
X2593249Y1918620D01*
X2606335Y1931706D01*
X2635199D01*
X2637777Y1926706D01*
X2635870Y1923853D01*
X2635697Y1922981D01*
X2633045Y1920329D01*
X2630000Y1912978D01*
Y1905022D01*
X2633045Y1897671D01*
X2634706Y1896010D01*
Y1888445D01*
X2627878Y1887087D01*
X2621640Y1882919D01*
X2617472Y1876681D01*
X2616008Y1869323D01*
Y1851606D01*
X2617472Y1844248D01*
X2621640Y1838010D01*
X2627878Y1833842D01*
X2635236Y1832379D01*
X2664764D01*
X2671886Y1833795D01*
X2672203Y1833582D01*
X2674548Y1829387D01*
X2666805Y1821644D01*
X2657717D01*
X2657604Y1821621D01*
X2635236D01*
X2627878Y1820158D01*
X2621640Y1815990D01*
X2617472Y1809752D01*
X2616008Y1802394D01*
Y1784677D01*
X2617472Y1777319D01*
X2621640Y1771081D01*
X2627878Y1766913D01*
X2629608Y1766569D01*
Y1755447D01*
X2620553Y1746392D01*
X2544447D01*
X2536392Y1754447D01*
Y1969914D01*
X2548764D01*
X2556122Y1971378D01*
X2562360Y1975546D01*
X2563738Y1977608D01*
X2609689D01*
X2612424Y1975509D01*
X2618688Y1972915D01*
X2625410Y1972030D01*
X2656905D01*
X2663627Y1972915D01*
X2669891Y1975509D01*
X2675269Y1979636D01*
X2679396Y1985015D01*
X2681991Y1991278D01*
X2682876Y1998000D01*
X2681991Y2004722D01*
X2679396Y2010985D01*
X2675269Y2016364D01*
X2670224Y2020235D01*
X2669869Y2022919D01*
Y2023081D01*
X2670224Y2025765D01*
X2675269Y2029636D01*
X2677625Y2032706D01*
X2700706D01*
Y1995619D01*
D02*
G37*
%LPC*%
G36*
X2590764Y1821621D02*
X2581000D01*
Y1798536D01*
X2609992D01*
Y1802394D01*
X2608528Y1809752D01*
X2604360Y1815990D01*
X2598122Y1820158D01*
X2590764Y1821621D01*
D02*
G37*
G36*
X2571000D02*
X2561236D01*
X2553878Y1820158D01*
X2547640Y1815990D01*
X2543472Y1809752D01*
X2542008Y1802394D01*
Y1798536D01*
X2571000D01*
Y1821621D01*
D02*
G37*
G36*
X2609992Y1788536D02*
X2581000D01*
Y1765449D01*
X2590764D01*
X2598122Y1766913D01*
X2604360Y1771081D01*
X2608528Y1777319D01*
X2609992Y1784677D01*
Y1788536D01*
D02*
G37*
G36*
X2571000D02*
X2542008D01*
Y1784677D01*
X2543472Y1777319D01*
X2547640Y1771081D01*
X2553878Y1766913D01*
X2561236Y1765449D01*
X2571000D01*
Y1788536D01*
D02*
G37*
G36*
X5156323Y2855991D02*
X5152465D01*
Y2827000D01*
X5175551D01*
Y2836764D01*
X5174087Y2844122D01*
X5169919Y2850360D01*
X5163681Y2854528D01*
X5156323Y2855991D01*
D02*
G37*
G36*
X5142465D02*
X5138606D01*
X5131248Y2854528D01*
X5125010Y2850360D01*
X5120842Y2844122D01*
X5119378Y2836764D01*
Y2827000D01*
X5142465D01*
Y2855991D01*
D02*
G37*
G36*
X5175551Y2817000D02*
X5147465D01*
X5119378D01*
Y2807236D01*
X5120842Y2799878D01*
X5125010Y2793640D01*
X5131248Y2789472D01*
X5132537Y2789215D01*
Y2784117D01*
X5131248Y2783861D01*
X5125010Y2779693D01*
X5120842Y2773455D01*
X5119378Y2766097D01*
Y2756333D01*
X5147464D01*
X5175551D01*
Y2766097D01*
X5174087Y2773455D01*
X5169919Y2779693D01*
X5163681Y2783861D01*
X5162392Y2784117D01*
Y2789215D01*
X5163681Y2789472D01*
X5169919Y2793640D01*
X5174087Y2799878D01*
X5175551Y2807236D01*
Y2817000D01*
D02*
G37*
G36*
Y2746333D02*
X5147464D01*
X5119378D01*
Y2736569D01*
X5120842Y2729211D01*
X5125010Y2722973D01*
X5131248Y2718805D01*
X5132537Y2718549D01*
Y2713451D01*
X5131248Y2713195D01*
X5125010Y2709026D01*
X5120842Y2702789D01*
X5119378Y2695430D01*
Y2685666D01*
X5147464D01*
X5175551D01*
Y2695430D01*
X5174087Y2702789D01*
X5169919Y2709026D01*
X5163681Y2713195D01*
X5162392Y2713451D01*
Y2718549D01*
X5163681Y2718805D01*
X5169919Y2722973D01*
X5174087Y2729211D01*
X5175551Y2736569D01*
Y2746333D01*
D02*
G37*
G36*
Y2675666D02*
X5147464D01*
X5119378D01*
Y2665903D01*
X5120842Y2658545D01*
X5125010Y2652307D01*
X5131248Y2648139D01*
X5132537Y2647882D01*
Y2642784D01*
X5131248Y2642528D01*
X5125010Y2638360D01*
X5120842Y2632122D01*
X5119378Y2624764D01*
Y2615000D01*
X5147464D01*
X5175551D01*
Y2624764D01*
X5174087Y2632122D01*
X5169919Y2638360D01*
X5163681Y2642528D01*
X5162392Y2642784D01*
Y2647882D01*
X5163681Y2648139D01*
X5169919Y2652307D01*
X5174087Y2658545D01*
X5175551Y2665903D01*
Y2675666D01*
D02*
G37*
G36*
Y2605000D02*
X5152464D01*
Y2576008D01*
X5156323D01*
X5163681Y2577472D01*
X5169919Y2581640D01*
X5174087Y2587878D01*
X5175551Y2595236D01*
Y2605000D01*
D02*
G37*
G36*
X5142464D02*
X5119378D01*
Y2595236D01*
X5120842Y2587878D01*
X5125010Y2581640D01*
X5131248Y2577472D01*
X5138606Y2576008D01*
X5142464D01*
Y2605000D01*
D02*
G37*
G36*
X4805394Y2372992D02*
X4801536D01*
Y2344000D01*
X4824622D01*
Y2353764D01*
X4823158Y2361122D01*
X4818990Y2367360D01*
X4812752Y2371528D01*
X4805394Y2372992D01*
D02*
G37*
G36*
X4791536D02*
X4787677D01*
X4780319Y2371528D01*
X4774081Y2367360D01*
X4769913Y2361122D01*
X4768449Y2353764D01*
Y2344000D01*
X4791536D01*
Y2372992D01*
D02*
G37*
G36*
X4824622Y2334000D02*
X4801536D01*
Y2305008D01*
X4805394D01*
X4812752Y2306472D01*
X4818990Y2310640D01*
X4823158Y2316878D01*
X4824622Y2324236D01*
Y2334000D01*
D02*
G37*
G36*
X4791536D02*
X4768449D01*
Y2324236D01*
X4769913Y2316878D01*
X4774081Y2310640D01*
X4780319Y2306472D01*
X4787677Y2305008D01*
X4791536D01*
Y2334000D01*
D02*
G37*
%LPD*%
D10*
X5325543Y2384000D02*
D03*
X5018457D02*
D03*
X5325543Y1334000D02*
D03*
X5018457D02*
D03*
D11*
X4545000Y2198976D02*
D03*
X4595000D02*
D03*
X4645000D02*
D03*
X4695000D02*
D03*
X4745000D02*
D03*
X4795000D02*
D03*
X4845000D02*
D03*
X4895000D02*
D03*
X4945000D02*
D03*
X4995000D02*
D03*
X5045000D02*
D03*
X5095000D02*
D03*
X5145000D02*
D03*
X5195000D02*
D03*
X4545000Y1510000D02*
D03*
X4595000D02*
D03*
X4645000D02*
D03*
X4695000D02*
D03*
X4745000D02*
D03*
X4795000D02*
D03*
X4845000D02*
D03*
X4895000D02*
D03*
X4945000D02*
D03*
X4995000D02*
D03*
X5045000D02*
D03*
X5095000D02*
D03*
X5145000D02*
D03*
X5195000D02*
D03*
D12*
X4495787Y1829488D02*
D03*
Y1779488D02*
D03*
Y1729488D02*
D03*
Y1679488D02*
D03*
Y1629488D02*
D03*
Y1879488D02*
D03*
Y1929488D02*
D03*
Y1979488D02*
D03*
Y2029488D02*
D03*
Y2079488D02*
D03*
D13*
X4891063Y1913543D02*
D03*
Y1968661D02*
D03*
Y1858425D02*
D03*
X4946181Y1913543D02*
D03*
Y1968661D02*
D03*
Y1858425D02*
D03*
X4835945Y1913543D02*
D03*
Y1968661D02*
D03*
Y1858425D02*
D03*
D14*
X4970000Y2605000D02*
D03*
X4893228D02*
D03*
X5143614Y793000D02*
D03*
X5220386D02*
D03*
X4611031D02*
D03*
X4687803D02*
D03*
X3551228D02*
D03*
X3628000D02*
D03*
X4080000D02*
D03*
X4156772D02*
D03*
D15*
X5080535Y2610000D02*
D03*
X5147465D02*
D03*
X5080535Y2751333D02*
D03*
X5147465D02*
D03*
X5080535Y2822000D02*
D03*
X5147465D02*
D03*
X5080535Y2680667D02*
D03*
X5147465D02*
D03*
X4896535Y2683000D02*
D03*
X4963465D02*
D03*
X4896535Y2752500D02*
D03*
X4963465D02*
D03*
X4896535Y2822000D02*
D03*
X4963465D02*
D03*
X4796535Y2415000D02*
D03*
X4863465D02*
D03*
Y2339000D02*
D03*
X4796535D02*
D03*
X4367071Y2305000D02*
D03*
X4434000D02*
D03*
Y2378000D02*
D03*
X4367071D02*
D03*
Y2451000D02*
D03*
X4434000D02*
D03*
X4220606Y2305000D02*
D03*
X4287535D02*
D03*
X4220606Y2378000D02*
D03*
X4287535D02*
D03*
X2272535Y2423000D02*
D03*
X2205606D02*
D03*
X2425000D02*
D03*
X2358071D02*
D03*
X2807035Y1862000D02*
D03*
X2740106D02*
D03*
Y1788000D02*
D03*
X2807035D02*
D03*
X2888535Y1862000D02*
D03*
X2955465D02*
D03*
X2888535Y1788000D02*
D03*
X2955465D02*
D03*
X3046071Y466000D02*
D03*
X3113000D02*
D03*
Y537000D02*
D03*
X3046071D02*
D03*
X5006535Y793000D02*
D03*
X5073465D02*
D03*
X4471071D02*
D03*
X4538000D02*
D03*
X3939071D02*
D03*
X4006000D02*
D03*
X3412071D02*
D03*
X3479000D02*
D03*
X3273535Y2128000D02*
D03*
X3340465D02*
D03*
D16*
X4646000Y2347228D02*
D03*
Y2424000D02*
D03*
X3115000Y1626614D02*
D03*
Y1703386D02*
D03*
X3023000Y1626614D02*
D03*
Y1703386D02*
D03*
D17*
X4562000Y2360071D02*
D03*
Y2427000D02*
D03*
X4221591Y2527465D02*
D03*
Y2460535D02*
D03*
X2650000Y1793535D02*
D03*
Y1860465D02*
D03*
X2576000D02*
D03*
Y1793535D02*
D03*
X3049000Y1857465D02*
D03*
Y1790535D02*
D03*
X3125000Y1857465D02*
D03*
Y1790535D02*
D03*
X4210000Y1481535D02*
D03*
Y1548465D02*
D03*
X4283000D02*
D03*
Y1481535D02*
D03*
X3859000Y2612535D02*
D03*
Y2679465D02*
D03*
X2534000Y2064929D02*
D03*
Y1998000D02*
D03*
D18*
X2406000Y2167260D02*
D03*
Y2324740D02*
D03*
X2227000Y2167260D02*
D03*
Y2324740D02*
D03*
D19*
X2224000Y2043000D02*
D03*
X2404000D02*
D03*
D20*
X2409000Y1891000D02*
D03*
Y1711000D02*
D03*
X2230000D02*
D03*
Y1891000D02*
D03*
D21*
X2739835Y1666000D02*
D03*
X2917000D02*
D03*
D22*
X4501000Y2652457D02*
D03*
X4701000D02*
D03*
X4250000D02*
D03*
X4050000D02*
D03*
D23*
X4601000Y3056000D02*
D03*
X4150000D02*
D03*
D24*
X2967000Y1977000D02*
D03*
Y2027000D02*
D03*
Y2077000D02*
D03*
Y2127000D02*
D03*
Y2177000D02*
D03*
Y2227000D02*
D03*
Y2277000D02*
D03*
X3171000D02*
D03*
Y2227000D02*
D03*
Y2177000D02*
D03*
Y2127000D02*
D03*
Y2077000D02*
D03*
Y2027000D02*
D03*
Y1977000D02*
D03*
D25*
X2236016Y2575000D02*
D03*
X2397984D02*
D03*
D26*
X3582000Y1474677D02*
D03*
X3632000D02*
D03*
X3682000D02*
D03*
X3732000D02*
D03*
X3782000D02*
D03*
X3832000D02*
D03*
X3882000D02*
D03*
X3932000D02*
D03*
X3582000Y1692000D02*
D03*
X3632000D02*
D03*
X3682000D02*
D03*
X3732000D02*
D03*
X3782000D02*
D03*
X3832000D02*
D03*
X3882000D02*
D03*
D27*
X3932000D02*
D03*
D28*
X3842000Y3010000D02*
D03*
X3499480D02*
D03*
D29*
X4966000Y3174110D02*
D03*
D30*
X5056551Y2937890D02*
D03*
X4966000D02*
D03*
X4875449D02*
D03*
D31*
X5247000Y2956575D02*
D03*
Y3153425D02*
D03*
D32*
X2860843Y1998000D02*
D03*
D33*
Y2048000D02*
D03*
Y2098000D02*
D03*
Y2148000D02*
D03*
X2641157Y1998000D02*
D03*
Y2048000D02*
D03*
Y2098000D02*
D03*
Y2148000D02*
D03*
D34*
X4903780Y1894481D02*
X4906063Y1892197D01*
X4891063Y1858425D02*
Y1861823D01*
Y1913543D02*
X4903780Y1900827D01*
Y1894481D02*
Y1900827D01*
X4906063Y1876823D02*
Y1892197D01*
X4891063Y1861823D02*
X4906063Y1876823D01*
X4903780Y1926260D02*
X4906063Y1928543D01*
X4891063Y1913543D02*
X4903780Y1926260D01*
X4906063Y1928543D02*
Y1947316D01*
X4891063Y1968661D02*
X4903780Y1955945D01*
Y1949599D02*
Y1955945D01*
Y1949599D02*
X4906063Y1947316D01*
X4903780Y1926260D02*
X4910125D01*
X4912409Y1928543D02*
X4931181D01*
X4946181Y1913543D01*
X4910125Y1926260D02*
X4912409Y1928543D01*
X4848661Y1926260D02*
X4855007D01*
X4857291Y1928543D02*
X4876063D01*
X4835945Y1913543D02*
X4848661Y1926260D01*
X4855007D02*
X4857291Y1928543D01*
X4876063D02*
X4891063Y1913543D01*
X4286465Y1545000D02*
X4329000D01*
X4283000Y1548465D02*
X4286465Y1545000D01*
X4646000Y2347228D02*
X4690142D01*
X4696000Y2341370D01*
X4569575Y2360071D02*
X4633504Y2424000D01*
X4646000D01*
X4562000Y2360071D02*
X4569575D01*
X4560500Y2361571D02*
X4562000Y2360071D01*
X4644500Y2425500D02*
X4646000Y2424000D01*
X4964631Y2681833D02*
X5079369D01*
X4963465Y2683000D02*
X4964631Y2681833D01*
X5079369D02*
X5080535Y2680667D01*
X3290000Y1913538D02*
Y2051538D01*
X3270000Y1921823D02*
Y2014538D01*
X3257538Y2027000D02*
X3270000Y2014538D01*
X3264538Y2077000D02*
X3290000Y2051538D01*
X3266462Y1890000D02*
X3290000Y1913538D01*
X3258177Y1910000D02*
X3270000Y1921823D01*
X3171000Y2027000D02*
X3257538D01*
X3171000Y1977000D02*
X3230000D01*
X3171000Y2077000D02*
X3264538D01*
X3066000Y1910000D02*
X3258177D01*
X3157536Y1890000D02*
X3266462D01*
X3117000Y2027000D02*
X3171000D01*
X3109000Y354000D02*
Y462000D01*
X3105000Y350000D02*
X3109000Y354000D01*
Y462000D02*
X3113000Y466000D01*
Y537000D01*
X3397181Y1586181D02*
X4567819D01*
X3112000Y2077000D02*
X3171000D01*
X3068000Y2121000D02*
X3112000Y2077000D01*
X3017000Y2127000D02*
X3117000Y2027000D01*
X2967000Y2127000D02*
X3017000D01*
X3068000Y2121000D02*
Y2229000D01*
X2802000Y1998000D02*
X2860843D01*
X2807035Y1862000D02*
Y1899965D01*
X2659000Y1927000D02*
X2682000D01*
X2736000Y1981000D02*
Y2082000D01*
X2600000Y1947000D02*
X2673716D01*
X2682000Y1927000D02*
X2736000Y1981000D01*
X2673716Y1947000D02*
X2716000Y1989284D01*
Y2042142D01*
X4745000Y2142858D02*
Y2198976D01*
X4739142Y2137000D02*
X4745000Y2142858D01*
X4463000Y2137000D02*
X4739142D01*
X4434000Y2166000D02*
X4463000Y2137000D01*
X4695000Y2198976D02*
X4696000Y2199976D01*
Y2341370D01*
X4434000Y2305000D02*
Y2378000D01*
Y2166000D02*
Y2305000D01*
X4844000Y2254000D02*
X4845000Y2253000D01*
Y2198976D02*
Y2253000D01*
X4795000Y2198976D02*
Y2261000D01*
X4845000Y1450000D02*
Y1510000D01*
Y1450000D02*
X4847000Y1448000D01*
X4595000Y1510000D02*
Y1559000D01*
X3782000Y1692000D02*
Y1761000D01*
X4567819Y1586181D02*
X4595000Y1559000D01*
X4947000Y1450000D02*
Y1508000D01*
X4945000Y1510000D02*
X4947000Y1508000D01*
X4795000Y1452000D02*
Y1510000D01*
Y1452000D02*
X4797000Y1450000D01*
X4571000Y1410000D02*
X4981000D01*
X5018457Y1372543D01*
X4545000Y1436000D02*
X4571000Y1410000D01*
X4645000Y1450000D02*
Y1510000D01*
X3733000Y1693000D02*
Y1764000D01*
X3732000Y1692000D02*
X3733000Y1693000D01*
X3732000Y1765000D02*
X3733000Y1764000D01*
X3682000Y1692000D02*
Y1763000D01*
X3632000Y1692000D02*
Y1765000D01*
X4285000Y2375465D02*
X4287535Y2378000D01*
X4285000Y2307535D02*
Y2375465D01*
Y2307535D02*
X4287535Y2305000D01*
X4980737Y2415000D02*
X5011737Y2384000D01*
X4863465Y2415000D02*
X4980737D01*
X5011737Y2384000D02*
X5018457D01*
X5062984Y2383016D02*
X5095000Y2351000D01*
Y2198976D02*
Y2351000D01*
X5019441Y2383016D02*
X5062984D01*
X5018457Y2384000D02*
X5019441Y2383016D01*
X4863465Y2339000D02*
Y2415000D01*
X3125000Y1713386D02*
Y1790535D01*
X3115000Y1703386D02*
X3125000Y1713386D01*
X3171500Y2127500D02*
X3235000D01*
X3273035D01*
X4545000Y2198976D02*
Y2257000D01*
X4645000Y2198976D02*
Y2261000D01*
X4595000Y2198976D02*
Y2260000D01*
X4750858Y1590000D02*
X5411142D01*
X5417000Y1550000D02*
Y1584142D01*
X4745000Y1510000D02*
Y1584142D01*
X4750858Y1590000D01*
X5411142D02*
X5417000Y1584142D01*
X4695000Y1510000D02*
Y1588000D01*
X4720630Y1613630D02*
X5511000D01*
X4695000Y1588000D02*
X4720630Y1613630D01*
X5417000Y1550000D02*
X5432110Y1534890D01*
X5511000D01*
X5045000Y1440000D02*
Y1510000D01*
X4995000Y1437000D02*
Y1510000D01*
X4545000Y1498189D02*
Y1510000D01*
X5018457Y1334000D02*
Y1372543D01*
X4545000Y1436000D02*
Y1498189D01*
X4528346Y1481535D02*
X4545000Y1498189D01*
X4283000Y1481535D02*
X4528346D01*
X5073465Y793000D02*
X5143614D01*
X4538000D02*
X4611031D01*
X4006000D02*
X4080000D01*
X3479000D02*
X3551228D01*
X4210000Y1481535D02*
X4283000D01*
X3141240Y1873705D02*
X3157536Y1890000D01*
X3141240Y1869887D02*
Y1873705D01*
X3125000Y1857465D02*
X3128817D01*
X3141240Y1869887D01*
X2782000Y2013000D02*
Y2198000D01*
X2811000Y2227000D01*
X2967000D01*
X4894882Y2606654D02*
Y2681346D01*
X4893228Y2605000D02*
X4894882Y2606654D01*
Y2681346D02*
X4896535Y2683000D01*
X3020000Y2277000D02*
X3068000Y2229000D01*
X4287535Y2378000D02*
X4367071D01*
X5080535Y2610000D02*
Y2680667D01*
X3049000Y1893000D02*
X3066000Y1910000D01*
X3023000Y1703386D02*
X3025737D01*
X3041000Y1718649D01*
Y1782535D02*
X3049000Y1790535D01*
X3041000Y1718649D02*
Y1782535D01*
X2918000Y2027000D02*
X2967000D01*
X2909000Y2177000D02*
X2967000D01*
X2740106Y1745000D02*
Y1788000D01*
Y1666272D02*
Y1745000D01*
X2895425Y1747000D02*
Y1781110D01*
Y1687575D02*
Y1747000D01*
X2782000Y2013000D02*
X2797000Y1998000D01*
X2710142Y2048000D02*
X2716000Y2042142D01*
X2641157Y2048000D02*
X2710142D01*
X2720000Y2098000D02*
X2736000Y2082000D01*
X2888535Y1788000D02*
X2895425Y1781110D01*
Y1687575D02*
X2917000Y1666000D01*
X2807035Y1788000D02*
X2888535D01*
X2739835Y1666000D02*
X2740106Y1666272D01*
X2650000Y1909000D02*
Y1918000D01*
Y1860465D02*
Y1909000D01*
X2576000Y1908000D02*
Y1923000D01*
Y1860465D02*
Y1908000D01*
X2650000Y1918000D02*
X2659000Y1927000D01*
X2641157Y2098000D02*
X2720000D01*
X2576000Y1923000D02*
X2600000Y1947000D01*
X3049000Y1857465D02*
Y1893000D01*
X3273035Y2127500D02*
X3273535Y2128000D01*
X3171000Y2127000D02*
X3171500Y2127500D01*
X2967000Y2277000D02*
X3020000D01*
X2876590Y2148000D02*
X2905590Y2177000D01*
X2860843Y2148000D02*
X2876590D01*
X2861813Y2097030D02*
X2899105D01*
X2919134Y2077000D02*
X2967000D01*
X2860843Y2098000D02*
X2861813Y2097030D01*
X2899105D02*
X2919134Y2077000D01*
X2860843Y2048000D02*
Y2098000D01*
D35*
X4050000Y2343000D02*
X4088000Y2305000D01*
X4220606D01*
X4050000Y2343000D02*
Y2652457D01*
X2154568Y481000D02*
X2178000Y457568D01*
X1953431Y481000D02*
X2154568D01*
X2178000Y296449D02*
Y457568D01*
X1930000Y3149000D02*
X1991000Y3210000D01*
X1930000Y504432D02*
Y3149000D01*
X1991000Y3210000D02*
X3468180D01*
X1930000Y504432D02*
X1953431Y481000D01*
X3468180Y3210000D02*
X3499480Y3178699D01*
Y3010000D02*
Y3178699D01*
X2407500Y1892500D02*
Y2165760D01*
X2228500Y1951000D02*
Y2165760D01*
Y1892500D02*
Y1951000D01*
X2406000Y2167260D02*
X2407500Y2165760D01*
Y1892500D02*
X2409000Y1891000D01*
X2228500Y1892500D02*
X2230000Y1891000D01*
X2227000Y2167260D02*
X2228500Y2165760D01*
X2425000Y2336236D02*
Y2506449D01*
X2405543Y2525905D02*
Y2567441D01*
Y2525905D02*
X2425000Y2506449D01*
X2397984Y2575000D02*
X2405543Y2567441D01*
X2286000Y2857000D02*
X2397984Y2745016D01*
Y2575000D02*
Y2745016D01*
X3572665Y2682335D02*
X4046378D01*
X3499480Y2755520D02*
X3572665Y2682335D01*
X3499480Y2755520D02*
Y3010000D01*
X4046378Y2682335D02*
X4050000Y2678713D01*
Y2652457D02*
Y2678713D01*
X2406000Y2324740D02*
X2413504D01*
X2425000Y2336236D01*
X2286000Y2857000D02*
Y3059000D01*
X2272535Y2423000D02*
X2358071D01*
X2205606Y2336236D02*
Y2423000D01*
Y2336236D02*
X2217102Y2324740D01*
X2227000D01*
X2205606Y2423000D02*
Y2503055D01*
X2236016Y2533465D02*
Y2575000D01*
X2205606Y2503055D02*
X2236016Y2533465D01*
Y2575000D02*
Y2693984D01*
X2086000Y2844000D02*
X2236016Y2693984D01*
X2086000Y2844000D02*
Y3059000D01*
D36*
X3046071Y537000D02*
X3050000Y540929D01*
Y583000D01*
X2629000Y1431000D02*
X2680000Y1380000D01*
X3180000D01*
X2629000Y1431000D02*
Y1726000D01*
X5143000Y2259000D02*
Y2451000D01*
X5117000Y2477000D02*
X5143000Y2451000D01*
X4788000Y2477000D02*
X5117000D01*
X4796535Y2415000D02*
Y2468465D01*
X4788000Y2477000D02*
X4796535Y2468465D01*
X4562000Y2471142D02*
X4567858Y2477000D01*
X4788000D01*
X4562000Y2427000D02*
Y2471142D01*
X5143000Y2200976D02*
X5145000Y2198976D01*
X5143000Y2200976D02*
Y2259000D01*
X4712716Y2513000D02*
X5213000D01*
X4701000Y2524716D02*
X4712716Y2513000D01*
X3274677Y1474677D02*
X3340465Y1540465D01*
X3180000Y1380000D02*
X3274677Y1474677D01*
X3340465Y1540465D02*
Y2128000D01*
X3274677Y1474677D02*
X3582000D01*
X5591370Y1692370D02*
X5616268Y1717268D01*
X5511000Y1692370D02*
X5591370D01*
X5574000Y2415000D02*
X5616268Y2372732D01*
Y1717268D02*
Y2372732D01*
X5446534Y2415000D02*
X5574000D01*
X5348534Y2513000D02*
X5446534Y2415000D01*
X5213000Y2513000D02*
X5348534D01*
X2747823Y1924284D02*
X2759539Y1936000D01*
X2888535Y1921535D02*
X2903000Y1936000D01*
X2944000Y1977000D01*
X2747823Y1869717D02*
Y1924284D01*
X2759539Y1936000D02*
X2903000D01*
X2740106Y1862000D02*
X2747823Y1869717D01*
X2629000Y1726000D02*
X2650000Y1747000D01*
Y1793535D01*
X2536000Y1726000D02*
X2629000D01*
X2516000Y1746000D02*
X2536000Y1726000D01*
X2516000Y1746000D02*
Y1980000D01*
X2528095Y1998000D02*
X2534000D01*
X2520378Y1990284D02*
X2528095Y1998000D01*
X2520378Y1984378D02*
Y1990284D01*
X2516000Y1980000D02*
X2520378Y1984378D01*
X4701000Y2524716D02*
Y2652457D01*
X5213000Y2513000D02*
X5247000Y2547000D01*
Y2956575D01*
X3319000Y2441000D02*
X3518000D01*
X3286000Y2474000D02*
X3319000Y2441000D01*
X3286000Y2474000D02*
Y3059000D01*
X3180000Y825000D02*
X3212000Y793000D01*
X3412071D01*
X3180000Y825000D02*
Y1380000D01*
X3684000Y911000D02*
Y1321000D01*
X3632000Y1373000D02*
Y1474677D01*
Y1373000D02*
X3684000Y1321000D01*
X3682000Y1375000D02*
X3748000Y1309000D01*
X3682000Y1375000D02*
Y1474677D01*
X3748000Y1309000D02*
X4073000D01*
X3772000Y1339000D02*
X4637000D01*
X3732000Y1379000D02*
Y1474677D01*
Y1379000D02*
X3772000Y1339000D01*
X3782000Y1380716D02*
Y1474677D01*
X3793716Y1369000D02*
X4873000D01*
X3782000Y1380716D02*
X3793716Y1369000D01*
X4873000D02*
X4913000Y1329000D01*
Y1084000D02*
Y1329000D01*
X4687803Y793000D02*
Y1288197D01*
Y344963D02*
Y793000D01*
X4637000Y1339000D02*
X4687803Y1288197D01*
X4913000Y1084000D02*
X4978000Y1019000D01*
X5145000D01*
X5220386Y943614D01*
Y793000D02*
Y943614D01*
X4073000Y1309000D02*
X4089000Y1293000D01*
Y871598D02*
Y1293000D01*
Y871598D02*
X4156772Y803827D01*
Y793000D02*
Y803827D01*
X3628000Y855000D02*
X3684000Y911000D01*
X3628000Y793000D02*
Y855000D01*
X4910149Y256583D02*
X4911000Y255732D01*
X3482000Y2128000D02*
X3518000Y2164000D01*
X3340465Y2128000D02*
X3482000D01*
X3518000Y2164000D02*
Y2441000D01*
X4964732Y2753768D02*
Y2936622D01*
X4966000Y2937890D02*
Y3174110D01*
X4964732Y2936622D02*
X4966000Y2937890D01*
X3412071Y332071D02*
Y793000D01*
X3628000Y349433D02*
Y793000D01*
X3939071Y340837D02*
Y793000D01*
X4156772Y348328D02*
Y793000D01*
X4471071Y345171D02*
Y793000D01*
X3336583Y256583D02*
X3412071Y332071D01*
X5220386Y340047D02*
Y793000D01*
Y340047D02*
X5303850Y256583D01*
X5006535Y352969D02*
Y793000D01*
X4910149Y256583D02*
X5006535Y352969D01*
X4687803Y344963D02*
X4776184Y256583D01*
X4382483D02*
X4471071Y345171D01*
X4156772Y348328D02*
X4248517Y256583D01*
X3854816D02*
X3939071Y340837D01*
X3327150Y256583D02*
X3336583D01*
X3628000Y349433D02*
X3720850Y256583D01*
X5056551Y2928052D02*
X5080535Y2904067D01*
Y2751333D02*
Y2904067D01*
X5056551Y2928052D02*
Y2937890D01*
X5228315D01*
X5247000Y2956575D01*
X4963465Y2683000D02*
Y2752500D01*
X4964732Y2753768D01*
X2722378Y1848378D02*
X2732390D01*
X2657717Y1801252D02*
X2675252D01*
X2650000Y1793535D02*
X2657717Y1801252D01*
X2675252D02*
X2722378Y1848378D01*
X2732390D02*
X2740106Y1856094D01*
X2888535Y1862000D02*
Y1921535D01*
X2944000Y1977000D02*
X2967000D01*
X2740106Y1856094D02*
Y1862000D01*
X2534000Y1998000D02*
X2534000Y1998000D01*
X2641157D01*
X2641157Y1998000D01*
D37*
X4367071Y2456905D02*
Y2578071D01*
X4363441Y2460535D02*
X4367071Y2456905D01*
Y2451000D02*
Y2456905D01*
X4221591Y2460535D02*
X4363441D01*
X4220606Y2378000D02*
X4221099Y2378492D01*
Y2460043D01*
X4221591Y2460535D01*
Y2527465D02*
X4221638Y2527512D01*
Y2567206D02*
X4239212Y2584780D01*
X4241378D02*
X4250000Y2593402D01*
X4221638Y2527512D02*
Y2567206D01*
X4239212Y2584780D02*
X4241378D01*
X4250000Y2593402D02*
Y2652457D01*
X4367071Y2578071D02*
X4441457Y2652457D01*
X4501000D01*
D38*
X1158000Y368000D02*
Y2916000D01*
Y368000D02*
X1302818Y223182D01*
X767000Y3093261D02*
X980739D01*
X1158000Y2916000D01*
X1302818Y223182D02*
X1526843D01*
X522000Y321000D02*
X619818Y223182D01*
X413039Y1465961D02*
X522000Y1357000D01*
X619818Y223182D02*
X767000D01*
X175000Y1465961D02*
X413039D01*
X522000Y321000D02*
Y1357000D01*
D39*
X330269Y3247180D02*
G03*
X271214Y3188125I0J-59055D01*
G01*
X271214Y120093D02*
G03*
X330270Y61038I59055J0D01*
G01*
X12474Y905841D02*
G03*
X71529Y846786I59055J0D01*
G01*
X71529Y2461440D02*
G03*
X12474Y2402385I0J-59055D01*
G01*
X192474Y2461440D02*
G03*
X271214Y2540180I0J78740D01*
G01*
X271214Y768046D02*
G03*
X192474Y846786I-78740J0D01*
G01*
X5468065D02*
G03*
X5389325Y768046I0J-78740D01*
G01*
X5389325Y2540180D02*
G03*
X5468065Y2461440I78740J0D01*
G01*
X5648065Y2402385D02*
G03*
X5589010Y2461440I-59055J0D01*
G01*
X5589010Y846786D02*
G03*
X5648065Y905841I0J59055D01*
G01*
X5330270Y61038D02*
G03*
X5389325Y120093I0J59055D01*
G01*
X5389325Y3188125D02*
G03*
X5330270Y3247180I-59055J0D01*
G01*
X271214Y120093D02*
Y768046D01*
X271214Y2540180D02*
Y3188125D01*
X71529Y2461440D02*
X192474D01*
X71529Y846786D02*
X192474D01*
X12474Y2401904D02*
X12474Y905841D01*
X5648065D02*
X5648065Y2401904D01*
X5468065Y846786D02*
X5589010D01*
X5468065Y2461440D02*
X5589010D01*
X5389325Y2540180D02*
Y3188125D01*
X5389325Y120093D02*
Y768046D01*
X330270Y3247180D02*
X5330270D01*
X330270Y61038D02*
X5330270D01*
D40*
X175000Y1465961D02*
D03*
Y1651000D02*
D03*
Y1836039D02*
D03*
D41*
X4786000Y1075000D02*
D03*
X4385667D02*
D03*
X3985333D02*
D03*
X3585000D02*
D03*
X2086000Y3059000D02*
D03*
X2686000D02*
D03*
X3086000D02*
D03*
D42*
X4586000Y1075000D02*
D03*
X4185667D02*
D03*
X3785333D02*
D03*
X3385000D02*
D03*
X2286000Y3059000D02*
D03*
X2486000D02*
D03*
X2886000D02*
D03*
X3286000D02*
D03*
D43*
X3518000Y2441000D02*
D03*
X3618000D02*
D03*
X3718000D02*
D03*
X3818000D02*
D03*
X4244000Y1712000D02*
D03*
Y1812000D02*
D03*
Y1912000D02*
D03*
D44*
X3918000Y2441000D02*
D03*
D45*
X2178000Y296449D02*
D03*
D46*
X2078000D02*
D03*
D47*
X767000Y223182D02*
D03*
Y3093261D02*
D03*
X1526843D02*
D03*
Y223182D02*
D03*
D48*
Y569245D02*
D03*
X767000D02*
D03*
X1526843Y2759009D02*
D03*
X767000D02*
D03*
D49*
X4244000Y2012000D02*
D03*
D50*
X3105000Y350000D02*
D03*
X3106000Y173000D02*
D03*
X2856000Y172000D02*
D03*
X2855000Y350000D02*
D03*
D51*
X4776184Y658158D02*
D03*
X4382483D02*
D03*
Y256583D02*
D03*
X4776184D02*
D03*
X3720850Y658158D02*
D03*
X3327150D02*
D03*
Y256583D02*
D03*
X3720850D02*
D03*
X4248517Y658158D02*
D03*
X3854816D02*
D03*
Y256583D02*
D03*
X4248517D02*
D03*
X5303850Y658158D02*
D03*
X4910149D02*
D03*
Y256583D02*
D03*
X5303850D02*
D03*
D52*
X4579333Y158157D02*
D03*
X3524000D02*
D03*
X4051667D02*
D03*
X5107000D02*
D03*
D53*
X5511000Y1534890D02*
D03*
D54*
Y1613630D02*
D03*
Y1692370D02*
D03*
Y1771110D02*
D03*
D55*
X4478934Y2715278D02*
D03*
X4844000Y2261000D02*
D03*
X4947000Y1450000D02*
D03*
X4595000Y2260000D02*
D03*
X4645000Y2261000D02*
D03*
X5045000Y1440000D02*
D03*
X4995000Y1437000D02*
D03*
X4545000Y2257000D02*
D03*
X4797000Y1450000D02*
D03*
X3732000Y1765000D02*
D03*
X4645000Y1450000D02*
D03*
X3682000Y1765000D02*
D03*
X3235000Y2127500D02*
D03*
X3782000Y1765000D02*
D03*
X4847000Y1450000D02*
D03*
X3632000Y1765000D02*
D03*
X2650000Y1909000D02*
D03*
X2895425Y1747000D02*
D03*
X2740106Y1745000D02*
D03*
X2909000Y2176000D02*
D03*
X2918000Y2027000D02*
D03*
X3230000Y1977000D02*
D03*
X2228500Y1951000D02*
D03*
X2408000Y1952000D02*
D03*
X2576000Y1908000D02*
D03*
X4406934Y2715278D02*
D03*
X4408934Y2661278D02*
D03*
X2802000Y1996000D02*
D03*
X2807035Y1899965D02*
D03*
X3397181Y1586181D02*
D03*
X4795000Y2261000D02*
D03*
X4406934Y2607278D02*
D03*
X4476934Y2609278D02*
D03*
Y2663278D02*
D03*
X4440000Y2584000D02*
D03*
Y2634000D02*
D03*
Y2684000D02*
D03*
X5143000Y2259000D02*
D03*
X5058000Y2618000D02*
D03*
X5082000Y2589000D02*
D03*
X5058000D02*
D03*
X3050000Y583000D02*
D03*
X4329000Y1545000D02*
D03*
X5082000Y2618000D02*
D03*
X5081836Y2562602D02*
D03*
X5057836D02*
D03*
X90000Y1434000D02*
D03*
X240000Y984000D02*
D03*
X90000Y1584000D02*
D03*
Y1734000D02*
D03*
Y1284000D02*
D03*
X266270Y1123320D02*
D03*
X79270Y1124320D02*
D03*
X173040Y1216320D02*
D03*
Y1029025D02*
D03*
X239270Y1189320D02*
D03*
X107270Y1188320D02*
D03*
X106270Y1056320D02*
D03*
X238270D02*
D03*
X5581230Y1123320D02*
D03*
X5394230Y1124320D02*
D03*
X5488000Y1216320D02*
D03*
Y1029025D02*
D03*
X5554230Y1189320D02*
D03*
X5422230Y1188320D02*
D03*
X5421230Y1056320D02*
D03*
X5553230D02*
D03*
X5581230Y2186312D02*
D03*
X990000Y2634000D02*
D03*
Y534000D02*
D03*
Y1434000D02*
D03*
X1290000Y534000D02*
D03*
Y834000D02*
D03*
X1140000Y234000D02*
D03*
X840000Y2634000D02*
D03*
X990000Y1284000D02*
D03*
X1290000Y1134000D02*
D03*
X840000Y2934000D02*
D03*
X990000Y2484000D02*
D03*
X1290000Y684000D02*
D03*
X840000Y2334000D02*
D03*
X1290000Y984000D02*
D03*
Y1434000D02*
D03*
X990000Y2034000D02*
D03*
Y1884000D02*
D03*
Y2934000D02*
D03*
X840000Y1734000D02*
D03*
X990000Y2184000D02*
D03*
X1140000Y3084000D02*
D03*
X990000Y684000D02*
D03*
Y1134000D02*
D03*
Y834000D02*
D03*
Y234000D02*
D03*
X1290000Y384000D02*
D03*
X840000Y1884000D02*
D03*
Y1584000D02*
D03*
X990000Y2334000D02*
D03*
Y984000D02*
D03*
Y1734000D02*
D03*
Y2784000D02*
D03*
X840000Y2034000D02*
D03*
Y2184000D02*
D03*
X1290000Y1284000D02*
D03*
X840000Y2484000D02*
D03*
X990000Y384000D02*
D03*
Y1584000D02*
D03*
X3840000Y2934000D02*
D03*
X3990000Y234000D02*
D03*
Y534000D02*
D03*
Y684000D02*
D03*
Y1434000D02*
D03*
Y1734000D02*
D03*
Y1884000D02*
D03*
Y2184000D02*
D03*
Y2334000D02*
D03*
Y2484000D02*
D03*
Y2784000D02*
D03*
X4140000Y234000D02*
D03*
Y984000D02*
D03*
Y1434000D02*
D03*
Y1734000D02*
D03*
Y1884000D02*
D03*
Y2484000D02*
D03*
X4290000Y384000D02*
D03*
X4140000Y2784000D02*
D03*
Y2184000D02*
D03*
X1590000Y1584000D02*
D03*
Y2334000D02*
D03*
X1440000Y1134000D02*
D03*
X1590000Y2484000D02*
D03*
X1740000Y2034000D02*
D03*
X1440000Y834000D02*
D03*
Y2034000D02*
D03*
X1740000Y1134000D02*
D03*
X1290000Y1584000D02*
D03*
X1740000Y2334000D02*
D03*
Y1434000D02*
D03*
Y984000D02*
D03*
X1590000Y384000D02*
D03*
X1740000Y2484000D02*
D03*
X1290000Y2034000D02*
D03*
X1740000Y1734000D02*
D03*
Y1584000D02*
D03*
X1590000Y2034000D02*
D03*
X1740000Y384000D02*
D03*
X1590000Y1284000D02*
D03*
X1440000Y2334000D02*
D03*
X1590000Y984000D02*
D03*
X1290000Y2784000D02*
D03*
X1440000Y384000D02*
D03*
Y2184000D02*
D03*
X1590000Y2934000D02*
D03*
X1290000Y1734000D02*
D03*
X1440000Y2634000D02*
D03*
Y1884000D02*
D03*
X1590000Y1434000D02*
D03*
X1290000Y2934000D02*
D03*
X1440000Y1434000D02*
D03*
X1740000Y2784000D02*
D03*
X1290000Y2334000D02*
D03*
X1740000Y534000D02*
D03*
X1590000Y684000D02*
D03*
X1440000Y1584000D02*
D03*
Y2784000D02*
D03*
X1590000Y1134000D02*
D03*
X1440000Y1284000D02*
D03*
X1290000Y2634000D02*
D03*
X1440000Y684000D02*
D03*
Y984000D02*
D03*
Y2934000D02*
D03*
X1590000Y1884000D02*
D03*
Y2634000D02*
D03*
X1440000Y3084000D02*
D03*
X1740000Y2184000D02*
D03*
X1290000Y1884000D02*
D03*
X1440000Y534000D02*
D03*
Y1734000D02*
D03*
X1740000Y234000D02*
D03*
Y834000D02*
D03*
X1590000Y1734000D02*
D03*
X1740000Y1884000D02*
D03*
X1290000Y2484000D02*
D03*
X1590000Y2184000D02*
D03*
X1290000Y3084000D02*
D03*
X1740000Y1284000D02*
D03*
X1590000Y834000D02*
D03*
X1290000Y2184000D02*
D03*
X1440000Y2484000D02*
D03*
X1740000Y684000D02*
D03*
X540000Y2634000D02*
D03*
X690000Y2334000D02*
D03*
Y2484000D02*
D03*
Y1734000D02*
D03*
X540000Y2334000D02*
D03*
X690000Y1134000D02*
D03*
X240000Y1284000D02*
D03*
X540000Y2484000D02*
D03*
X840000Y684000D02*
D03*
X690000Y984000D02*
D03*
X390000Y234000D02*
D03*
X540000Y1884000D02*
D03*
X690000Y2034000D02*
D03*
X540000Y3084000D02*
D03*
X390000Y1884000D02*
D03*
X840000Y834000D02*
D03*
X390000Y2934000D02*
D03*
X690000D02*
D03*
X390000Y1134000D02*
D03*
X540000Y2934000D02*
D03*
X690000Y2184000D02*
D03*
X390000Y1734000D02*
D03*
Y834000D02*
D03*
X540000Y2184000D02*
D03*
X390000Y1284000D02*
D03*
Y984000D02*
D03*
X840000Y1284000D02*
D03*
Y234000D02*
D03*
X390000Y684000D02*
D03*
X690000Y1884000D02*
D03*
X540000Y1584000D02*
D03*
X390000Y2484000D02*
D03*
X240000Y1734000D02*
D03*
X690000Y1584000D02*
D03*
X390000Y2184000D02*
D03*
X690000Y2634000D02*
D03*
Y1434000D02*
D03*
Y3084000D02*
D03*
X390000Y2034000D02*
D03*
X690000Y384000D02*
D03*
X840000D02*
D03*
X390000D02*
D03*
X840000Y984000D02*
D03*
X390000Y534000D02*
D03*
X690000Y684000D02*
D03*
X540000Y2784000D02*
D03*
X840000Y1134000D02*
D03*
X690000Y834000D02*
D03*
X540000Y1734000D02*
D03*
X90000Y2034000D02*
D03*
X390000Y3084000D02*
D03*
Y1584000D02*
D03*
X90000Y2334000D02*
D03*
X390000D02*
D03*
X690000Y534000D02*
D03*
X240000Y1584000D02*
D03*
X540000Y2034000D02*
D03*
X840000Y1434000D02*
D03*
X390000Y2784000D02*
D03*
X240000Y2034000D02*
D03*
X690000Y1284000D02*
D03*
X390000Y2634000D02*
D03*
X240000Y2334000D02*
D03*
X5490000D02*
D03*
Y2034000D02*
D03*
Y1884000D02*
D03*
Y1434000D02*
D03*
Y1284000D02*
D03*
Y984000D02*
D03*
X5340000Y3084000D02*
D03*
Y2334000D02*
D03*
Y2184000D02*
D03*
Y2034000D02*
D03*
Y1884000D02*
D03*
Y1734000D02*
D03*
Y1434000D02*
D03*
Y1284000D02*
D03*
Y1134000D02*
D03*
Y984000D02*
D03*
Y834000D02*
D03*
Y534000D02*
D03*
Y384000D02*
D03*
X5190000Y2784000D02*
D03*
Y2634000D02*
D03*
Y2334000D02*
D03*
Y2034000D02*
D03*
Y1884000D02*
D03*
Y1734000D02*
D03*
Y1434000D02*
D03*
Y1284000D02*
D03*
Y1134000D02*
D03*
Y234000D02*
D03*
X5040000Y2784000D02*
D03*
Y2334000D02*
D03*
Y1884000D02*
D03*
Y1284000D02*
D03*
Y1134000D02*
D03*
Y984000D02*
D03*
X4290000Y2184000D02*
D03*
X4890000Y534000D02*
D03*
X4740000Y834000D02*
D03*
Y1884000D02*
D03*
X4590000D02*
D03*
X4440000Y2784000D02*
D03*
X4290000D02*
D03*
X4890000Y984000D02*
D03*
X4740000Y2334000D02*
D03*
X4590000Y2634000D02*
D03*
Y984000D02*
D03*
X4440000Y234000D02*
D03*
X5040000D02*
D03*
X4740000Y2784000D02*
D03*
X4590000D02*
D03*
X4440000Y1434000D02*
D03*
Y534000D02*
D03*
X5040000D02*
D03*
X4890000Y384000D02*
D03*
X4740000D02*
D03*
X4440000Y1884000D02*
D03*
Y684000D02*
D03*
X5040000D02*
D03*
X4740000Y984000D02*
D03*
Y534000D02*
D03*
X2690056Y2022974D02*
D03*
X3240000Y1734000D02*
D03*
X3390000Y1884000D02*
D03*
X3240000Y2484000D02*
D03*
Y2184000D02*
D03*
Y1284000D02*
D03*
X3540000D02*
D03*
X3240000Y2934000D02*
D03*
X3540000Y1434000D02*
D03*
X3690000Y534000D02*
D03*
X3540000Y1734000D02*
D03*
X3840000Y534000D02*
D03*
X3390000Y2934000D02*
D03*
X3690000Y1884000D02*
D03*
X3240000Y1134000D02*
D03*
X3690000Y2184000D02*
D03*
X3390000Y1284000D02*
D03*
X3840000Y834000D02*
D03*
X3390000Y234000D02*
D03*
X3690000Y2334000D02*
D03*
X3540000Y1884000D02*
D03*
Y984000D02*
D03*
X3840000Y1134000D02*
D03*
X3690000Y2784000D02*
D03*
Y2934000D02*
D03*
X3240000Y2334000D02*
D03*
X3390000Y2784000D02*
D03*
X3540000D02*
D03*
Y2934000D02*
D03*
X3390000Y1434000D02*
D03*
X3840000Y1884000D02*
D03*
X3390000Y2484000D02*
D03*
X3840000Y384000D02*
D03*
X3390000Y2334000D02*
D03*
X3840000Y2184000D02*
D03*
X3690000Y384000D02*
D03*
X3240000Y2784000D02*
D03*
X3390000Y2184000D02*
D03*
X3840000Y2784000D02*
D03*
X3390000Y1734000D02*
D03*
X2490000Y834000D02*
D03*
Y684000D02*
D03*
X2190000Y234000D02*
D03*
X2340000Y684000D02*
D03*
X2040000Y384000D02*
D03*
X2490000Y2034000D02*
D03*
Y234000D02*
D03*
Y384000D02*
D03*
X2040000Y1434000D02*
D03*
X2490000Y2784000D02*
D03*
X2040000Y1584000D02*
D03*
X2190000Y834000D02*
D03*
X2490000Y984000D02*
D03*
X2190000Y684000D02*
D03*
X2340000Y984000D02*
D03*
X1890000Y384000D02*
D03*
X2040000Y2034000D02*
D03*
Y1284000D02*
D03*
X1740000Y2934000D02*
D03*
X2040000Y1134000D02*
D03*
X2340000Y2934000D02*
D03*
X2190000Y1434000D02*
D03*
X2340000Y2034000D02*
D03*
X2190000Y2934000D02*
D03*
X2490000Y2484000D02*
D03*
Y1584000D02*
D03*
X2640000Y234000D02*
D03*
X2340000Y1584000D02*
D03*
X2040000Y2334000D02*
D03*
Y684000D02*
D03*
X2190000Y1134000D02*
D03*
X2040000Y234000D02*
D03*
X2190000Y984000D02*
D03*
X2490000Y534000D02*
D03*
X2340000Y1734000D02*
D03*
X2040000Y2934000D02*
D03*
X1740000Y3084000D02*
D03*
X1890000Y234000D02*
D03*
X2190000Y3084000D02*
D03*
X2490000Y2934000D02*
D03*
X2340000Y2484000D02*
D03*
Y1284000D02*
D03*
X2040000Y2484000D02*
D03*
X2190000Y1584000D02*
D03*
X2040000Y2184000D02*
D03*
X2340000Y384000D02*
D03*
X2490000Y1134000D02*
D03*
Y1284000D02*
D03*
Y1434000D02*
D03*
X2040000Y2784000D02*
D03*
Y984000D02*
D03*
X2190000Y1284000D02*
D03*
X2340000Y1134000D02*
D03*
X2190000Y534000D02*
D03*
X2040000Y1734000D02*
D03*
X2340000Y834000D02*
D03*
X2040000Y534000D02*
D03*
X2340000D02*
D03*
Y1434000D02*
D03*
Y234000D02*
D03*
X2040000Y834000D02*
D03*
Y1884000D02*
D03*
X2640000Y534000D02*
D03*
X2790000D02*
D03*
X2640000Y2934000D02*
D03*
X3090000Y2784000D02*
D03*
X2640000Y2184000D02*
D03*
Y384000D02*
D03*
Y1284000D02*
D03*
X3240000Y684000D02*
D03*
X2790000Y1134000D02*
D03*
Y834000D02*
D03*
X2640000Y2784000D02*
D03*
X2940000Y1134000D02*
D03*
X2790000Y2784000D02*
D03*
X3090000Y234000D02*
D03*
X2790000Y384000D02*
D03*
X3240000D02*
D03*
X2790000Y3084000D02*
D03*
Y2334000D02*
D03*
Y234000D02*
D03*
X3240000Y834000D02*
D03*
X2940000D02*
D03*
Y1734000D02*
D03*
Y684000D02*
D03*
X2640000Y1134000D02*
D03*
Y2334000D02*
D03*
Y834000D02*
D03*
Y984000D02*
D03*
X2940000Y234000D02*
D03*
Y384000D02*
D03*
X3090000Y2484000D02*
D03*
X2940000Y1284000D02*
D03*
X3240000Y984000D02*
D03*
X2640000Y2484000D02*
D03*
X2940000Y2784000D02*
D03*
X3240000Y234000D02*
D03*
X2940000Y2484000D02*
D03*
X2790000Y1434000D02*
D03*
X2940000Y2334000D02*
D03*
X2790000Y1284000D02*
D03*
X3240000Y534000D02*
D03*
X2640000Y684000D02*
D03*
X2940000Y534000D02*
D03*
Y1584000D02*
D03*
X2790000Y684000D02*
D03*
X2940000Y1434000D02*
D03*
X2790000Y2484000D02*
D03*
X2940000Y984000D02*
D03*
Y2934000D02*
D03*
X3090000Y2334000D02*
D03*
Y2934000D02*
D03*
X2790000D02*
D03*
Y1584000D02*
D03*
Y984000D02*
D03*
X5394230Y2187312D02*
D03*
X5488000Y2279312D02*
D03*
Y2092017D02*
D03*
X5554230Y2252312D02*
D03*
X5422230Y2251312D02*
D03*
X5421230Y2119312D02*
D03*
X5553230D02*
D03*
X266270Y2186312D02*
D03*
X79270Y2187312D02*
D03*
X173040Y2279312D02*
D03*
Y2092017D02*
D03*
X239270Y2252312D02*
D03*
X107270Y2251312D02*
D03*
X106270Y2119312D02*
D03*
X238270D02*
D03*
X90000Y984000D02*
D03*
Y1884000D02*
D03*
X4290000Y534000D02*
D03*
Y1434000D02*
D03*
Y1134000D02*
D03*
Y834000D02*
D03*
D56*
X173039Y2185992D02*
D03*
X5488000D02*
D03*
Y1123000D02*
D03*
X173039D02*
D03*
%TF.MD5,f1125ce0cac2bc232e3f9bb104867711*%
M02*
