%TF.GenerationSoftware,Altium Limited,Altium Designer,21.3.2 (30)*%
G04 Layer_Color=16711935*
%FSLAX26Y26*%
%MOIN*%
%TF.SameCoordinates,5CB9DBA1-4DA9-4ED0-9B61-E5D9B39C4D3D*%
%TF.FilePolarity,Positive*%
%TF.FileFunction,Other,Mechanical_13*%
%TF.Part,Single*%
G01*
G75*
%TA.AperFunction,NonConductor*%
%ADD63C,0.007874*%
%ADD88C,0.005000*%
%ADD89C,0.003937*%
%ADD120C,0.000000*%
%ADD121R,0.010591X0.049212*%
%ADD122R,0.049213X0.010591*%
%ADD123R,0.024358X0.141734*%
%ADD124R,0.141734X0.024358*%
%ADD125R,0.024358X0.114173*%
D63*
X5198937Y2248189D02*
G03*
X5198937Y2248189I-3937J0D01*
G01*
X5514937Y1424653D02*
G03*
X5514937Y1424653I-3937J0D01*
G01*
D88*
X5241850Y1500158D02*
Y2208819D01*
X4485945Y1500158D02*
X5241850D01*
X4485945D02*
Y2208819D01*
X5241850D01*
X355386Y134600D02*
Y3193655D01*
X1938457D01*
Y134600D02*
Y3193655D01*
X355386Y134600D02*
X1938457D01*
X1107551Y49954D02*
X1186291D01*
X1146921Y10584D02*
Y89324D01*
Y3238930D02*
Y3317671D01*
X2411488Y2506102D02*
Y2643898D01*
X2222512Y2506102D02*
Y2643898D01*
Y2506102D02*
X2411488D01*
X2222512Y2643898D02*
X2411488D01*
X4823428Y103039D02*
Y732961D01*
X4335239D02*
X4823428D01*
X4335239Y103039D02*
Y732961D01*
Y103039D02*
X4823428D01*
X3768095D02*
Y732961D01*
X3279905D02*
X3768095D01*
X3279905Y103039D02*
Y732961D01*
Y103039D02*
X3768095D01*
X4295761D02*
Y732961D01*
X3807572D02*
X4295761D01*
X3807572Y103039D02*
Y732961D01*
Y103039D02*
X4295761D01*
X5351094D02*
Y732961D01*
X4862905D02*
X5351094D01*
X4862905Y103039D02*
Y732961D01*
Y103039D02*
X5351094D01*
X5426354Y1456150D02*
Y1849850D01*
X5627142D01*
Y1456150D02*
Y1849850D01*
X5426354Y1456150D02*
X5627142D01*
D89*
X3936134Y1624677D02*
G03*
X3936134Y1624677I-19685J0D01*
G01*
X2812024Y2011976D02*
G03*
X2812024Y2011976I-19685J0D01*
G01*
X4970984Y2580394D02*
Y2629606D01*
X4892244Y2580394D02*
Y2629606D01*
Y2580394D02*
X4970984D01*
X4892244Y2629606D02*
X4970984D01*
X5080535Y2592283D02*
X5147465D01*
X5080535Y2627716D02*
X5147465D01*
Y2592283D02*
Y2627716D01*
X5080535Y2592283D02*
Y2627716D01*
Y2733617D02*
X5147465D01*
X5080535Y2769050D02*
X5147465D01*
Y2733617D02*
Y2769050D01*
X5080535Y2733617D02*
Y2769050D01*
Y2804283D02*
X5147465D01*
X5080535Y2839716D02*
X5147465D01*
Y2804283D02*
Y2839716D01*
X5080535Y2804283D02*
Y2839716D01*
Y2662950D02*
X5147465D01*
X5080535Y2698383D02*
X5147465D01*
Y2662950D02*
Y2698383D01*
X5080535Y2662950D02*
Y2698383D01*
X4896535Y2665284D02*
Y2700716D01*
X4963465Y2665284D02*
Y2700716D01*
X4896535D02*
X4963465D01*
X4896535Y2665284D02*
X4963465D01*
Y2734784D02*
Y2770217D01*
X4896535Y2734784D02*
Y2770217D01*
Y2734784D02*
X4963465D01*
X4896535Y2770217D02*
X4963465D01*
Y2804284D02*
Y2839717D01*
X4896535Y2804284D02*
Y2839717D01*
Y2804284D02*
X4963465D01*
X4896535Y2839717D02*
X4963465D01*
X4796535Y2432716D02*
X4863465D01*
X4796535Y2397284D02*
X4863465D01*
X4796535D02*
Y2432716D01*
X4863465Y2397284D02*
Y2432716D01*
X4796535Y2356717D02*
X4863465D01*
X4796535Y2321284D02*
X4863465D01*
X4796535D02*
Y2356717D01*
X4863465Y2321284D02*
Y2356717D01*
X4621394Y2346244D02*
X4670606D01*
X4621394Y2424984D02*
X4670606D01*
X4621394Y2346244D02*
Y2424984D01*
X4670606Y2346244D02*
Y2424984D01*
X4544283Y2360071D02*
X4579717D01*
X4544283Y2427000D02*
X4579717D01*
X4544283Y2360071D02*
Y2427000D01*
X4579717Y2360071D02*
Y2427000D01*
X4367071Y2287284D02*
Y2322716D01*
X4434000Y2287284D02*
Y2322716D01*
X4367071D02*
X4434000D01*
X4367071Y2287284D02*
X4434000D01*
Y2360284D02*
Y2395716D01*
X4367071Y2360284D02*
Y2395716D01*
Y2360284D02*
X4434000D01*
X4367071Y2395716D02*
X4434000D01*
X4367071Y2433283D02*
X4434000D01*
X4367071Y2468716D02*
X4434000D01*
Y2433283D02*
Y2468716D01*
X4367071Y2433283D02*
Y2468716D01*
X4220606Y2322716D02*
X4287535D01*
X4220606Y2287284D02*
X4287535D01*
X4220606D02*
Y2322716D01*
X4287535Y2287284D02*
Y2322716D01*
X4220606Y2395716D02*
X4287535D01*
X4220606Y2360284D02*
X4287535D01*
X4220606D02*
Y2395716D01*
X4287535Y2360284D02*
Y2395716D01*
X2272535Y2405284D02*
Y2440716D01*
X2205606Y2405284D02*
Y2440716D01*
Y2405284D02*
X2272535D01*
X2205606Y2440716D02*
X2272535D01*
X2425000Y2405284D02*
Y2440716D01*
X2358071Y2405284D02*
Y2440716D01*
Y2405284D02*
X2425000D01*
X2358071Y2440716D02*
X2425000D01*
X2338874Y2152890D02*
X2473126D01*
X2338874Y2339110D02*
X2473126D01*
X2338874Y2152890D02*
Y2339110D01*
X2473126Y2152890D02*
Y2339110D01*
X2159874Y2152890D02*
X2294126D01*
X2159874Y2339110D02*
X2294126D01*
X2159874Y2152890D02*
Y2339110D01*
X2294126Y2152890D02*
Y2339110D01*
X2223449Y1973131D02*
Y2114866D01*
Y1973131D02*
X2404551D01*
X2223449Y2114866D02*
X2404551D01*
Y1973131D02*
Y2114866D01*
X2339131Y1891551D02*
X2480866D01*
X2339131Y1710449D02*
Y1891551D01*
X2480866Y1710449D02*
Y1891551D01*
X2339131Y1710449D02*
X2480866D01*
X2158134D02*
X2299869D01*
Y1891551D01*
X2158134Y1710449D02*
Y1891551D01*
X2299869D01*
X2918968Y1608913D02*
Y1723087D01*
X2737866Y1608913D02*
Y1723087D01*
Y1608913D02*
X2918968D01*
X2737866Y1723087D02*
X2918968D01*
X2807035Y1844284D02*
Y1879716D01*
X2740106Y1844284D02*
Y1879716D01*
Y1844284D02*
X2807035D01*
X2740106Y1879716D02*
X2807035D01*
X2740106Y1770284D02*
Y1805716D01*
X2807035Y1770284D02*
Y1805716D01*
X2740106D02*
X2807035D01*
X2740106Y1770284D02*
X2807035D01*
X2955465Y1844284D02*
Y1879717D01*
X2888535Y1844284D02*
Y1879717D01*
Y1844284D02*
X2955465D01*
X2888535Y1879717D02*
X2955465D01*
Y1770284D02*
Y1805717D01*
X2888535Y1770284D02*
Y1805717D01*
Y1770284D02*
X2955465D01*
X2888535Y1805717D02*
X2955465D01*
X3090394Y1625630D02*
X3139606D01*
X3090394Y1704370D02*
X3139606D01*
X3090394Y1625630D02*
Y1704370D01*
X3139606Y1625630D02*
Y1704370D01*
X2998394Y1625630D02*
X3047606D01*
X2998394Y1704370D02*
X3047606D01*
X2998394Y1625630D02*
Y1704370D01*
X3047606Y1625630D02*
Y1704370D01*
X3113000Y448284D02*
Y483717D01*
X3046071Y448284D02*
Y483717D01*
Y448284D02*
X3113000D01*
X3046071Y483717D02*
X3113000D01*
Y519284D02*
Y554716D01*
X3046071Y519284D02*
Y554716D01*
Y519284D02*
X3113000D01*
X3046071Y554716D02*
X3113000D01*
X4391354Y2782378D02*
X4810646D01*
X4391354Y3162299D02*
X4810646D01*
X4391354Y2782378D02*
Y3162299D01*
X4810646Y2782378D02*
Y3162299D01*
X4239307Y2460535D02*
Y2527465D01*
X4203874Y2460535D02*
Y2527465D01*
X4239307D01*
X4203874Y2460535D02*
X4239307D01*
X4486449Y320913D02*
X4667551D01*
X4486449Y435087D02*
X4667551D01*
X4486449Y320913D02*
Y435087D01*
X4667551Y320913D02*
Y435087D01*
X3961449Y320913D02*
X4142551D01*
X3961449Y435087D02*
X4142551D01*
X3961449Y320913D02*
Y435087D01*
X4142551Y320913D02*
Y435087D01*
X3429449Y320913D02*
X3610551D01*
X3429449Y435087D02*
X3610551D01*
X3429449Y320913D02*
Y435087D01*
X3610551Y320913D02*
Y435087D01*
X2632284Y1793535D02*
Y1860465D01*
X2667716Y1793535D02*
Y1860465D01*
X2632284Y1793535D02*
X2667716D01*
X2632284Y1860465D02*
X2667716D01*
X2593716Y1793535D02*
Y1860465D01*
X2558284Y1793535D02*
Y1860465D01*
X2593716D01*
X2558284Y1793535D02*
X2593716D01*
X3066716Y1790535D02*
Y1857465D01*
X3031284Y1790535D02*
Y1857465D01*
X3066716D01*
X3031284Y1790535D02*
X3066716D01*
X3142716D02*
Y1857465D01*
X3107284Y1790535D02*
Y1857465D01*
X3142716D01*
X3107284Y1790535D02*
X3142716D01*
X4359646Y2782378D02*
Y3162299D01*
X3940354Y2782378D02*
Y3162299D01*
X4359646D01*
X3940354Y2782378D02*
X4359646D01*
X5016449Y320913D02*
X5197551D01*
X5016449Y435087D02*
X5197551D01*
X5016449Y320913D02*
Y435087D01*
X5197551Y320913D02*
Y435087D01*
X4227717Y1481535D02*
Y1548465D01*
X4192283Y1481535D02*
Y1548465D01*
X4227717D01*
X4192283Y1481535D02*
X4227717D01*
X4300717D02*
Y1548465D01*
X4265283Y1481535D02*
Y1548465D01*
X4300717D01*
X4265283Y1481535D02*
X4300717D01*
X3560150Y1504598D02*
Y1662079D01*
X3953850Y1504598D02*
Y1662079D01*
X3560150Y1504598D02*
X3953850D01*
X3560150Y1662079D02*
X3953850D01*
X5006535Y810716D02*
X5073465D01*
X5006535Y775284D02*
X5073465D01*
X5006535D02*
Y810716D01*
X5073465Y775284D02*
Y810716D01*
X5142630Y817606D02*
X5221370D01*
X5142630Y768394D02*
X5221370D01*
X5142630D02*
Y817606D01*
X5221370Y768394D02*
Y817606D01*
X4610047D02*
X4688787D01*
X4610047Y768394D02*
X4688787D01*
X4610047D02*
Y817606D01*
X4688787Y768394D02*
Y817606D01*
X4471071Y810716D02*
X4538000D01*
X4471071Y775284D02*
X4538000D01*
X4471071D02*
Y810716D01*
X4538000Y775284D02*
Y810716D01*
X3550244Y817606D02*
X3628984D01*
X3550244Y768394D02*
X3628984D01*
X3550244D02*
Y817606D01*
X3628984Y768394D02*
Y817606D01*
X4079016D02*
X4157756D01*
X4079016Y768394D02*
X4157756D01*
X4079016D02*
Y817606D01*
X4157756Y768394D02*
Y817606D01*
X3939071Y810716D02*
X4006000D01*
X3939071Y775284D02*
X4006000D01*
X3939071D02*
Y810716D01*
X4006000Y775284D02*
Y810716D01*
X3412071D02*
X3479000D01*
X3412071Y775284D02*
X3479000D01*
X3412071D02*
Y810716D01*
X3479000Y775284D02*
Y810716D01*
X5097890Y2983165D02*
Y3128835D01*
X4834110Y2983165D02*
Y3128835D01*
X5097890D01*
X4834110Y2983165D02*
X5097890D01*
X3841283Y2679465D02*
X3876716D01*
X3841283Y2612535D02*
X3876716D01*
Y2679465D01*
X3841283Y2612535D02*
Y2679465D01*
X2516284Y1998000D02*
X2551717D01*
X2516284Y2064929D02*
X2551717D01*
X2516284Y1998000D02*
Y2064929D01*
X2551717Y1998000D02*
Y2064929D01*
X3273535Y2110284D02*
Y2145716D01*
X3340465Y2110284D02*
Y2145716D01*
X3273535D02*
X3340465D01*
X3273535Y2110284D02*
X3340465D01*
X2829740Y1974575D02*
Y2171425D01*
X2672260Y1974575D02*
Y2171425D01*
Y1974575D02*
X2829740D01*
X2672260Y2171425D02*
X2829740D01*
D120*
X3081000Y1955000D02*
G03*
X3057000Y1955000I-12000J0D01*
G01*
X3148000D02*
Y2299000D01*
X3081000Y1955000D02*
X3148000D01*
X3057000D02*
X3081000D01*
X2990000D02*
X3057000D01*
X2990000D02*
Y2299000D01*
X3148000D01*
X2947000Y1967000D02*
X2990000D01*
X2947000D02*
Y1987000D01*
X2990000D01*
Y1967000D02*
Y1987000D01*
X2947000Y2017000D02*
X2990000D01*
X2947000D02*
Y2037000D01*
X2990000D01*
Y2017000D02*
Y2037000D01*
X2947000Y2067000D02*
X2990000D01*
X2947000D02*
Y2087000D01*
X2990000D01*
Y2067000D02*
Y2087000D01*
X2947000Y2117000D02*
X2990000D01*
X2947000D02*
Y2137000D01*
X2990000D01*
Y2117000D02*
Y2137000D01*
X2947000Y2167000D02*
X2990000D01*
X2947000D02*
Y2187000D01*
X2990000D01*
Y2167000D02*
Y2187000D01*
X2947000Y2217000D02*
X2990000D01*
X2947000D02*
Y2237000D01*
X2990000D01*
Y2217000D02*
Y2237000D01*
X2947000Y2267000D02*
X2990000D01*
X2947000D02*
Y2287000D01*
X2990000D01*
Y2267000D02*
Y2287000D01*
X3148000D02*
X3191000D01*
Y2267000D02*
Y2287000D01*
X3148000Y2267000D02*
X3191000D01*
X3148000D02*
Y2287000D01*
Y2237000D02*
X3191000D01*
Y2217000D02*
Y2237000D01*
X3148000Y2217000D02*
X3191000D01*
X3148000D02*
Y2237000D01*
Y2187000D02*
X3191000D01*
Y2167000D02*
Y2187000D01*
X3148000Y2167000D02*
X3191000D01*
X3148000D02*
Y2187000D01*
Y2137000D02*
X3191000D01*
Y2117000D02*
Y2137000D01*
X3148000Y2117000D02*
X3191000D01*
X3148000D02*
Y2137000D01*
Y2087000D02*
X3191000D01*
Y2067000D02*
Y2087000D01*
X3148000Y2067000D02*
X3191000D01*
X3148000D02*
Y2087000D01*
Y2037000D02*
X3191000D01*
Y2017000D02*
Y2037000D01*
X3148000Y2017000D02*
X3191000D01*
X3148000D02*
Y2037000D01*
Y1987000D02*
X3191000D01*
Y1967000D02*
Y1987000D01*
X3148000Y1967000D02*
X3191000D01*
X3148000D02*
Y1987000D01*
D121*
X4965689Y2605000D02*
D03*
X5216075Y793000D02*
D03*
X4683492Y793002D02*
D03*
X3623689Y793000D02*
D03*
X4152461D02*
D03*
D122*
X4646000Y2351539D02*
D03*
X3115000Y1630925D02*
D03*
X3023000D02*
D03*
D123*
X2390621Y2043998D02*
D03*
D124*
X2409998Y1724379D02*
D03*
X2229002Y1877621D02*
D03*
D125*
X2751789Y1666000D02*
D03*
X4500372Y378000D02*
D03*
X3975372Y378000D02*
D03*
X3443372Y378000D02*
D03*
X5030372Y378000D02*
D03*
%TF.MD5,003822f2fa8bac7fc993a8367b1c6501*%
M02*
